<svg width="220" height="164" viewBox="0 0 220 164" fill="none" xmlns="http://www.w3.org/2000/svg">
<path d="M220 144.056H0V144.166H220V144.056Z" fill="#EBEBEB"/>
<path d="M30.1489 148.245H23.0825V148.355H30.1489V148.245Z" fill="#EBEBEB"/>
<path d="M98.855 147.052H75.3018V147.162H98.855V147.052Z" fill="#EBEBEB"/>
<path d="M46.5389 152.332H30.5889V152.442H46.5389V152.332Z" fill="#EBEBEB"/>
<path d="M185.825 146.995H166.822V147.105H185.825V146.995Z" fill="#EBEBEB"/>
<path d="M192.531 146.995H189.746V147.105H192.531V146.995Z" fill="#EBEBEB"/>
<path d="M163.192 149.736H139.48V149.846H163.192V149.736Z" fill="#EBEBEB"/>
<path d="M104.28 124.432H19.3205C18.6549 124.431 18.017 124.166 17.5468 123.695C17.0766 123.224 16.8125 122.585 16.8125 121.92V2.4904C16.8183 1.82865 17.0849 1.19591 17.5545 0.729616C18.0241 0.263322 18.6587 0.00113361 19.3205 0H104.28C104.946 0 105.585 0.264699 106.057 0.735865C106.528 1.20703 106.793 1.84607 106.793 2.5124V121.92C106.793 122.586 106.528 123.225 106.057 123.696C105.585 124.167 104.946 124.432 104.28 124.432ZM19.3205 0.0880003C18.6841 0.0891659 18.0742 0.342789 17.6246 0.7932C17.175 1.24361 16.9225 1.85401 16.9225 2.4904V121.92C16.9225 122.556 17.175 123.166 17.6246 123.617C18.0742 124.067 18.6841 124.321 19.3205 124.322H104.28C104.917 124.321 105.527 124.067 105.978 123.617C106.428 123.167 106.681 122.556 106.683 121.92V2.4904C106.681 1.8536 106.428 1.24322 105.978 0.792931C105.527 0.342646 104.917 0.0891634 104.28 0.0880003H19.3205Z" fill="#EBEBEB"/>
<path d="M199.456 124.432H114.492C113.826 124.431 113.188 124.166 112.717 123.695C112.246 123.224 111.981 122.586 111.98 121.92V2.4904C111.987 1.82825 112.255 1.19551 112.725 0.729341C113.195 0.263168 113.83 0.00112125 114.492 0H199.456C200.117 0.00228998 200.751 0.26499 201.22 0.73116C201.688 1.19733 201.954 1.82941 201.96 2.4904V121.92C201.96 122.584 201.697 123.222 201.227 123.693C200.758 124.164 200.121 124.43 199.456 124.432ZM114.492 0.0880003C113.856 0.0891634 113.245 0.342646 112.795 0.792931C112.345 1.24322 112.091 1.8536 112.09 2.4904V121.92C112.091 122.556 112.345 123.167 112.795 123.617C113.245 124.067 113.856 124.321 114.492 124.322H199.456C200.093 124.321 200.704 124.067 201.154 123.617C201.604 123.167 201.858 122.556 201.859 121.92V2.4904C201.858 1.8536 201.604 1.24322 201.154 0.792931C200.704 0.342646 200.093 0.0891634 199.456 0.0880003H114.492Z" fill="#EBEBEB"/>
<path d="M196.645 116.547C192.261 117.881 188.116 119.898 184.36 122.522C186.291 110.854 180.343 101.662 180.343 101.662C180.343 101.662 172.282 108.935 168.08 118.756C166.837 117.277 165.425 115.948 163.873 114.796C164.388 112.865 164.753 110.896 164.965 108.909C159.364 110.611 154.068 113.186 149.27 116.538C151.734 101.636 144.135 89.8965 144.135 89.8965C144.135 89.8965 133.857 99.1981 128.48 111.76C126.491 109.375 124.144 107.311 121.523 105.644C121.523 105.644 116.111 114.84 115.592 124.815C112.001 124.021 108.31 123.773 104.645 124.08C104.645 124.08 104.861 135.96 112.688 142.428C113.431 143.04 114.221 143.591 115.051 144.078H186.604C190.139 141.709 193.239 138.748 195.769 135.326C193.722 134.715 191.6 134.388 189.464 134.354C195.861 126.183 196.645 116.547 196.645 116.547Z" fill="#E6E6E6"/>
<path d="M127.098 112.842C122.122 114.353 117.415 116.64 113.15 119.618C115.35 106.379 108.592 95.9506 108.592 95.9506C108.592 95.9506 99.4401 104.205 94.6925 115.35C93.279 113.681 91.677 112.181 89.9185 110.88C90.5007 108.688 90.9155 106.455 91.1593 104.201C84.8021 106.132 78.7895 109.054 73.3437 112.86C76.1421 95.9506 67.5225 82.6274 67.5225 82.6274C67.5225 82.6274 55.8493 93.1874 49.7685 107.404C47.5115 104.696 44.8487 102.354 41.8749 100.461C41.8749 100.461 35.7149 110.902 35.1297 122.236C31.057 121.321 26.8696 121.024 22.7085 121.356C22.7085 121.356 22.9505 134.829 31.8341 142.177C32.6767 142.871 33.5727 143.498 34.5137 144.051H115.72C119.733 141.364 123.251 138.005 126.122 134.121C123.797 133.427 121.388 133.055 118.963 133.016C126.21 123.776 127.098 112.842 127.098 112.842Z" fill="#F5F5F5"/>
<path d="M62.2661 29.9985C65.8625 26.402 65.8625 20.5711 62.2661 16.9747C58.6697 13.3783 52.8388 13.3783 49.2424 16.9747C45.6459 20.5711 45.6459 26.402 49.2424 29.9985C52.8388 33.5949 58.6697 33.5949 62.2661 29.9985Z" fill="#F5F5F5"/>
<path d="M47.5422 61.3317C51.5225 58.6594 56.1907 57.1955 60.9842 57.1165C67.0782 57.1165 70.3694 59.9941 68.9966 63.7781C70.1589 63.4643 71.3567 63.3016 72.5606 63.2941C76.7142 63.2941 78.7206 65.4941 77.075 68.1737C76.9097 68.4333 76.7274 68.6817 76.5294 68.9173H35.6094C35.7061 68.2901 35.934 67.6904 36.2782 67.1573C38.0954 64.2137 42.9266 61.7761 47.5422 61.3317Z" fill="#EBEBEB"/>
<path d="M136.101 45.9272C139.048 43.9459 142.507 42.8608 146.058 42.8032C150.572 42.8032 153.01 44.9372 151.994 47.7356C152.855 47.5053 153.742 47.3855 154.634 47.3792C157.714 47.3792 159.21 48.9984 157.978 50.996C157.857 51.1893 157.721 51.3732 157.573 51.546H127.257C127.327 51.0758 127.497 50.6259 127.754 50.226C129.1 48.0612 132.678 46.2528 136.101 45.9272Z" fill="#F5F5F5"/>
<path d="M50.8462 43.8151C50.5426 42.3499 48.7738 41.3511 46.0326 41.3511C42.4686 41.3511 38.4734 43.0319 36.5506 45.2407C35.9948 45.0419 35.4072 44.9464 34.817 44.9591C32.3882 44.9591 29.6338 46.2395 28.657 47.8103C28.5713 47.9504 28.4977 48.0976 28.437 48.2503H52.3598C52.7013 47.9514 52.9977 47.6046 53.2398 47.2207C54.287 45.4959 53.2398 44.0747 50.8462 43.8151Z" fill="#F5F5F5"/>
<path d="M187.797 61.6001C187.603 60.6673 186.477 60.0293 184.717 60.0293C182.446 60.0293 179.899 61.1029 178.675 62.5109C178.321 62.3838 177.947 62.3227 177.571 62.3305C176.022 62.3305 174.267 63.1445 173.646 64.1477C173.591 64.235 173.545 64.328 173.51 64.4249H188.76C188.976 64.235 189.163 64.014 189.315 63.7693C189.992 62.6517 189.315 61.7409 187.797 61.6001Z" fill="#F5F5F5"/>
<path d="M147.765 18.3743C148.059 18.3743 148.345 18.3875 148.623 18.4139C151.708 16.1643 155.414 14.9254 159.232 14.8675C160.139 14.8586 161.045 14.9591 161.929 15.1667C166.017 12.3168 170.863 10.7525 175.846 10.6743C181.812 10.6743 185.121 13.3979 184.083 17.0367C187.242 17.5031 188.615 19.4919 187.163 21.8767C186.998 22.1427 186.812 22.3957 186.608 22.6335H138.648V22.6027C140.1 20.2663 144.179 18.3743 147.765 18.3743Z" fill="#EBEBEB"/>
<path d="M110 163.926C157.116 163.926 195.312 161.696 195.312 158.946C195.312 156.195 157.116 153.965 110 153.965C62.8838 153.965 24.6885 156.195 24.6885 158.946C24.6885 161.696 62.8838 163.926 110 163.926Z" fill="#F5F5F5"/>
<path d="M103.189 122.14L106.933 122.452L109.829 113.916L106.089 113.608L103.189 122.14Z" fill="#FFBE9D"/>
<path d="M107.25 121.66L103.136 121.581C103.062 121.58 102.989 121.605 102.93 121.65C102.871 121.696 102.829 121.76 102.811 121.832L102.005 125.167C101.986 125.246 101.985 125.328 102.002 125.407C102.019 125.487 102.053 125.562 102.102 125.626C102.152 125.691 102.215 125.743 102.287 125.78C102.359 125.817 102.439 125.838 102.52 125.84C104.003 125.84 106.15 125.8 108.011 125.84C110.211 125.88 110.876 126.034 113.432 126.086C114.981 126.113 115.439 124.56 114.792 124.406C111.861 123.706 110.651 123.592 108.139 121.972C107.877 121.789 107.569 121.681 107.25 121.66Z" fill="#263238"/>
<path opacity="0.2" d="M109.828 113.92L108.337 118.32L104.592 118.008L106.084 113.608L109.828 113.92Z" fill="black"/>
<path d="M118.065 92.0568C117.093 84.92 103.044 77.5148 103.044 77.5148L90.1252 74.6152C90.1252 74.6152 85.2016 75.7548 87.076 81.18C88.9504 86.6052 102.414 89.76 108.992 94.9916C108.24 103.884 104.28 115.377 104.28 115.377L109.718 116.626C109.718 116.626 119.288 101.006 118.065 92.0568Z" fill="black"/>
<path opacity="0.3" d="M118.065 92.0568C117.093 84.92 103.044 77.5148 103.044 77.5148L90.1252 74.6152C90.1252 74.6152 85.2016 75.7548 87.076 81.18C88.9504 86.6052 102.414 89.76 108.992 94.9916C108.24 103.884 104.28 115.377 104.28 115.377L109.718 116.626C109.718 116.626 119.288 101.006 118.065 92.0568Z" fill="white"/>
<path d="M110.528 117.797L103.026 116.6L103.413 114.176L111.395 115.324L110.528 117.797Z" fill="#919191"/>
<path d="M107.611 122.188C107.596 122.182 107.583 122.173 107.573 122.16C107.563 122.148 107.556 122.133 107.554 122.118C107.551 122.099 107.554 122.08 107.563 122.063C107.571 122.047 107.585 122.033 107.602 122.025C107.774 121.942 109.301 121.202 109.754 121.466C109.796 121.49 109.832 121.524 109.858 121.566C109.883 121.608 109.897 121.655 109.899 121.704C109.909 121.786 109.897 121.869 109.867 121.946C109.836 122.023 109.787 122.091 109.723 122.144C109.283 122.5 108.227 122.333 107.62 122.201L107.611 122.188ZM109.631 121.603C109.349 121.502 108.526 121.796 107.923 122.069C108.751 122.223 109.371 122.201 109.604 121.999C109.645 121.965 109.677 121.922 109.697 121.873C109.717 121.823 109.725 121.77 109.719 121.717C109.721 121.698 109.717 121.678 109.707 121.661C109.698 121.643 109.683 121.629 109.666 121.62C109.655 121.612 109.643 121.606 109.631 121.603Z" fill="#407BFF"/>
<path d="M107.611 122.188C107.598 122.18 107.588 122.168 107.582 122.154C107.575 122.14 107.573 122.124 107.576 122.109C107.576 122.065 107.699 121.053 108.187 120.67C108.256 120.613 108.335 120.57 108.421 120.545C108.506 120.52 108.596 120.513 108.685 120.525C108.927 120.556 108.997 120.679 109.01 120.78C109.072 121.22 108.157 122.003 107.69 122.201C107.677 122.205 107.663 122.206 107.649 122.204C107.635 122.202 107.622 122.196 107.611 122.188ZM108.733 120.71C108.702 120.706 108.671 120.706 108.641 120.71C108.575 120.702 108.509 120.708 108.447 120.727C108.384 120.746 108.326 120.777 108.275 120.82C107.987 121.139 107.805 121.54 107.756 121.968C108.227 121.7 108.847 121.088 108.812 120.815C108.812 120.776 108.803 120.736 108.733 120.71Z" fill="#407BFF"/>
<path opacity="0.2" d="M97.6362 84.1543V88.8051C101.249 90.5035 105.094 92.2195 107.976 94.2347C106.291 90.4947 100.668 85.0211 97.6362 84.1543Z" fill="black"/>
<path d="M67.883 106.383C72.7329 106.383 77.4738 107.821 81.5063 110.516C85.5388 113.21 88.6817 117.04 90.5377 121.521C92.3936 126.001 92.8792 130.932 91.9331 135.688C90.9869 140.445 88.6515 144.814 85.2221 148.244C81.7928 151.673 77.4235 154.008 72.6669 154.955C67.9102 155.901 62.9798 155.415 58.4992 153.559C54.0185 151.703 50.1888 148.56 47.4944 144.528C44.8 140.495 43.3618 135.754 43.3618 130.904C43.3688 124.403 45.9545 118.17 50.5516 113.573C55.1487 108.976 61.3817 106.39 67.883 106.383ZM67.883 102.863C62.3368 102.862 56.9149 104.506 52.303 107.587C47.691 110.668 44.0962 115.047 41.9732 120.171C39.8501 125.294 39.2942 130.933 40.3757 136.372C41.4572 141.812 44.1275 146.809 48.0489 150.731C51.9704 154.653 56.9669 157.324 62.4064 158.407C67.846 159.489 73.4844 158.934 78.6085 156.812C83.7326 154.689 88.1123 151.095 91.1937 146.484C94.2751 141.872 95.9198 136.451 95.9198 130.904C95.9198 123.467 92.9655 116.335 87.7067 111.076C82.448 105.818 75.3156 102.863 67.8786 102.863H67.883Z" fill="#263238"/>
<path d="M67.8835 107.43C72.5264 107.43 77.0653 108.806 80.9261 111.384C84.787 113.963 87.7964 117.629 89.5738 121.918C91.3511 126.208 91.8166 130.927 90.9114 135.481C90.0061 140.035 87.7708 144.218 84.4881 147.502C81.2053 150.785 77.0227 153.021 72.469 153.927C67.9154 154.833 63.1953 154.369 58.9058 152.592C54.6162 150.815 50.9498 147.807 48.3703 143.946C45.7907 140.086 44.4139 135.547 44.4139 130.904C44.4197 124.681 46.8941 118.715 51.2941 114.314C55.6941 109.913 61.6603 107.437 67.8835 107.43ZM67.8835 104.064C62.575 104.064 57.3858 105.639 52.972 108.588C48.5581 111.537 45.118 115.729 43.0865 120.633C41.0551 125.538 40.5236 130.934 41.5592 136.141C42.5948 141.347 45.1511 146.13 48.9047 149.883C52.6584 153.637 57.4408 156.193 62.6472 157.229C67.8537 158.264 73.2503 157.733 78.1547 155.701C83.0591 153.67 87.2509 150.23 90.2001 145.816C93.1493 141.402 94.7235 136.213 94.7235 130.904C94.7235 123.786 91.8957 116.959 86.8622 111.926C81.8287 106.892 75.0019 104.064 67.8835 104.064Z" fill="#0D6C61"/>
<path d="M152.117 106.383C156.967 106.382 161.708 107.82 165.741 110.514C169.774 113.208 172.918 117.037 174.775 121.518C176.631 125.998 177.118 130.929 176.172 135.686C175.226 140.443 172.891 144.812 169.462 148.242C166.033 151.672 161.664 154.008 156.907 154.954C152.15 155.901 147.219 155.415 142.738 153.56C138.258 151.704 134.428 148.561 131.733 144.528C129.038 140.496 127.6 135.755 127.6 130.904C127.607 124.403 130.193 118.17 134.79 113.573C139.387 108.976 145.62 106.39 152.121 106.383M152.121 102.863C146.575 102.863 141.154 104.508 136.542 107.589C131.931 110.67 128.337 115.05 126.215 120.174C124.092 125.297 123.537 130.936 124.619 136.375C125.701 141.815 128.372 146.811 132.293 150.733C136.215 154.654 141.211 157.325 146.651 158.407C152.09 159.489 157.728 158.934 162.852 156.811C167.976 154.689 172.355 151.095 175.437 146.483C178.518 141.872 180.162 136.451 180.162 130.904C180.162 127.222 179.437 123.576 178.028 120.174C176.619 116.771 174.553 113.68 171.949 111.076C169.346 108.472 166.254 106.407 162.852 104.998C159.45 103.589 155.804 102.863 152.121 102.863Z" fill="#263238"/>
<path d="M152.117 107.43C156.76 107.43 161.299 108.806 165.16 111.384C169.02 113.963 172.03 117.629 173.807 121.918C175.585 126.208 176.05 130.927 175.145 135.481C174.24 140.035 172.004 144.218 168.721 147.502C165.439 150.785 161.256 153.021 156.702 153.927C152.149 154.833 147.429 154.369 143.139 152.592C138.85 150.815 135.183 147.807 132.604 143.946C130.024 140.086 128.647 135.547 128.647 130.904C128.653 124.681 131.128 118.715 135.528 114.314C139.928 109.913 145.894 107.437 152.117 107.43ZM152.117 104.064C146.808 104.064 141.619 105.639 137.205 108.588C132.792 111.537 129.351 115.729 127.32 120.633C125.288 125.538 124.757 130.934 125.793 136.141C126.828 141.347 129.384 146.13 133.138 149.883C136.892 153.637 141.674 156.193 146.881 157.229C152.087 158.264 157.484 157.733 162.388 155.701C167.292 153.67 171.484 150.23 174.434 145.816C177.383 141.402 178.957 136.213 178.957 130.904C178.957 123.786 176.129 116.959 171.096 111.926C166.062 106.892 159.235 104.064 152.117 104.064Z" fill="#0D6C61"/>
<path d="M105.384 136.303C106.24 136.303 107.077 136.557 107.789 137.033C108.501 137.508 109.056 138.185 109.384 138.976C109.712 139.767 109.798 140.637 109.631 141.477C109.463 142.317 109.051 143.089 108.446 143.694C107.84 144.3 107.069 144.712 106.229 144.879C105.389 145.046 104.518 144.96 103.727 144.633C102.936 144.305 102.26 143.75 101.784 143.038C101.308 142.326 101.054 141.489 101.054 140.633C101.056 139.485 101.512 138.384 102.324 137.572C103.136 136.761 104.236 136.304 105.384 136.303ZM105.384 134.103C104.093 134.103 102.83 134.486 101.756 135.203C100.683 135.921 99.8457 136.941 99.3515 138.134C98.8573 139.327 98.728 140.64 98.98 141.906C99.2319 143.173 99.8538 144.337 100.767 145.25C101.68 146.163 102.844 146.785 104.11 147.037C105.377 147.289 106.69 147.159 107.883 146.665C109.076 146.171 110.096 145.334 110.813 144.26C111.531 143.186 111.914 141.924 111.914 140.633C111.914 139.775 111.746 138.926 111.418 138.133C111.09 137.341 110.609 136.621 110.003 136.014C109.396 135.408 108.676 134.927 107.884 134.599C107.091 134.271 106.242 134.102 105.384 134.103Z" fill="#263238"/>
<path d="M67.8833 135.23C70.272 135.23 72.2085 133.293 72.2085 130.904C72.2085 128.516 70.272 126.579 67.8833 126.579C65.4946 126.579 63.5581 128.516 63.5581 130.904C63.5581 133.293 65.4946 135.23 67.8833 135.23Z" fill="#263238"/>
<path d="M152.117 135.23C154.505 135.23 156.442 133.293 156.442 130.904C156.442 128.516 154.505 126.579 152.117 126.579C149.728 126.579 147.792 128.516 147.792 130.904C147.792 133.293 149.728 135.23 152.117 135.23Z" fill="#263238"/>
<path d="M67.8785 127.895C68.1538 127.896 68.4277 127.934 68.6925 128.009H68.7409H68.7893L106.704 135.568C107.932 135.887 109.001 136.643 109.711 137.693C110.421 138.744 110.724 140.018 110.562 141.276C110.4 142.534 109.785 143.69 108.831 144.526C107.878 145.363 106.652 145.823 105.384 145.82C104.96 145.82 104.538 145.768 104.126 145.666L67.1173 133.786H67.0953H67.0689C66.3716 133.588 65.7691 133.145 65.3722 132.539C64.9753 131.932 64.8107 131.203 64.9087 130.484C65.0066 129.766 65.3605 129.107 65.9053 128.629C66.4501 128.151 67.1492 127.886 67.8741 127.882M67.8741 126.562C66.8163 126.547 65.7899 126.92 64.9885 127.611C64.1871 128.302 63.6663 129.262 63.5245 130.31C63.3826 131.358 63.6295 132.422 64.2184 133.301C64.8074 134.18 65.6978 134.813 66.7213 135.08L103.769 146.96C104.299 147.094 104.843 147.162 105.389 147.162C106.979 147.161 108.514 146.578 109.706 145.525C110.897 144.472 111.664 143.02 111.861 141.442C112.058 139.864 111.672 138.268 110.776 136.954C109.88 135.64 108.536 134.698 106.995 134.306L69.0445 126.72C68.6653 126.612 68.2729 126.557 67.8785 126.557L67.8741 126.562Z" fill="#263238"/>
<path d="M105.384 141.953C105.321 141.957 105.258 141.957 105.195 141.953C104.97 141.921 104.757 141.831 104.576 141.692C104.396 141.553 104.254 141.37 104.165 141.161L80.6739 85.4963C80.6066 85.3366 80.5714 85.1651 80.5703 84.9918C80.5693 84.8184 80.6024 84.6465 80.6678 84.4859C80.7331 84.3254 80.8295 84.1793 80.9513 84.0559C81.0732 83.9326 81.2181 83.8345 81.3779 83.7672C81.5377 83.6998 81.7091 83.6647 81.8825 83.6636C82.0559 83.6625 82.2277 83.6957 82.3883 83.761C82.5489 83.8264 82.695 83.9228 82.8183 84.0446C82.9417 84.1664 83.0398 84.3114 83.1071 84.4711L105.745 138.098L141.825 93.9487C142.05 93.6895 142.368 93.5282 142.71 93.4992C143.052 93.4701 143.392 93.5756 143.658 93.7932C143.924 94.0108 144.094 94.3234 144.133 94.6646C144.172 95.0058 144.076 95.3488 143.867 95.6208L106.418 141.469C106.293 141.622 106.135 141.745 105.956 141.828C105.777 141.912 105.582 141.955 105.384 141.953Z" fill="#263238"/>
<path d="M67.8834 131.784C67.7346 131.785 67.5883 131.747 67.4579 131.676C67.3275 131.604 67.2174 131.501 67.1379 131.375C67.0583 131.249 67.0119 131.106 67.003 130.957C66.9941 130.809 67.023 130.66 67.087 130.526L84.7442 93.2493C84.7896 93.1388 84.857 93.0387 84.9423 92.9552C85.0277 92.8716 85.1291 92.8063 85.2405 92.7632C85.3519 92.7201 85.4709 92.7001 85.5903 92.7044C85.7096 92.7088 85.8269 92.7374 85.9348 92.7886C86.0427 92.8397 86.1392 92.9123 86.2181 93.0019C86.2971 93.0914 86.3571 93.1962 86.3943 93.3097C86.4315 93.4232 86.4452 93.5431 86.4346 93.662C86.424 93.781 86.3893 93.8966 86.3326 94.0017L68.6798 131.278C68.6088 131.43 68.4962 131.558 68.3551 131.647C68.2141 131.737 68.0505 131.784 67.8834 131.784Z" fill="#263238"/>
<path d="M152.117 132.224C151.823 132.225 151.538 132.127 151.306 131.947C151.074 131.767 150.909 131.514 150.837 131.23L140.241 90.0019L85.6551 94.9387C85.305 94.9702 84.9567 94.8613 84.6869 94.6361C84.4171 94.4108 84.2478 94.0876 84.2163 93.7375C84.1848 93.3874 84.2936 93.0391 84.5189 92.7693C84.7442 92.4995 85.0674 92.3302 85.4175 92.2987L141.121 87.2607C141.434 87.232 141.746 87.3154 142.002 87.496C142.259 87.6766 142.443 87.9426 142.521 88.2463L153.397 130.561C153.484 130.9 153.433 131.26 153.255 131.561C153.077 131.862 152.786 132.08 152.447 132.167C152.34 132.201 152.229 132.221 152.117 132.224Z" fill="#263238"/>
<path d="M141.24 89.9053C140.921 89.9086 140.611 89.7958 140.368 89.5878C140.125 89.3798 139.966 89.0908 139.92 88.7745L138.349 77.8801C138.299 77.5335 138.388 77.1809 138.597 76.9C138.806 76.619 139.118 76.4326 139.465 76.3819C139.811 76.3311 140.164 76.4201 140.445 76.6293C140.726 76.8385 140.912 77.1507 140.963 77.4973L142.56 88.3961C142.585 88.5677 142.576 88.7425 142.533 88.9106C142.491 89.0787 142.415 89.2367 142.311 89.3756C142.208 89.5146 142.077 89.6317 141.928 89.7203C141.779 89.8089 141.614 89.8673 141.443 89.8921C141.376 89.9015 141.308 89.9059 141.24 89.9053Z" fill="#263238"/>
<path d="M135.283 82.4193C135.001 82.4178 134.727 82.324 134.504 82.1522C134.28 81.9804 134.119 81.74 134.045 81.4679C133.971 81.1958 133.989 80.907 134.094 80.6457C134.2 80.3845 134.389 80.1651 134.632 80.0213L142.886 75.1813C143.181 75.0062 143.533 74.9554 143.865 75.04C144.197 75.1246 144.482 75.3376 144.657 75.6323C144.832 75.9269 144.883 76.279 144.798 76.6112C144.714 76.9433 144.501 77.2282 144.206 77.4033L135.956 82.2433C135.751 82.3611 135.519 82.4219 135.283 82.4193Z" fill="#404040"/>
<path d="M72.3664 84.5158C74.6676 87.4462 84.4048 84.1726 87.3572 83.1958C90.3096 82.219 97.0372 84.1726 96.0296 81.8758C95.022 79.579 80.2424 80.481 78.1876 79.6758C73.836 77.9642 68.424 79.4778 72.3664 84.5158Z" fill="#404040"/>
<path d="M101.495 155.54C101.359 155.54 101.226 155.509 101.104 155.449C100.983 155.389 100.877 155.302 100.795 155.194C100.712 155.086 100.656 154.961 100.63 154.828C100.605 154.695 100.61 154.558 100.646 154.427L108.425 126.368C108.495 126.153 108.646 125.973 108.846 125.866C109.045 125.759 109.279 125.733 109.497 125.794C109.715 125.855 109.902 125.997 110.017 126.192C110.133 126.386 110.17 126.618 110.119 126.839L102.34 154.88C102.291 155.068 102.182 155.234 102.029 155.354C101.877 155.473 101.689 155.538 101.495 155.54Z" fill="#263238"/>
<path d="M111.457 127.486H103.682C103.448 127.486 103.225 127.393 103.06 127.228C102.894 127.063 102.802 126.839 102.802 126.606C102.802 126.372 102.894 126.148 103.06 125.983C103.225 125.818 103.448 125.726 103.682 125.726H111.457C111.69 125.726 111.914 125.818 112.079 125.983C112.244 126.148 112.337 126.372 112.337 126.606C112.337 126.839 112.244 127.063 112.079 127.228C111.914 127.393 111.69 127.486 111.457 127.486Z" fill="#263238"/>
<path d="M107.083 155.54H99.3121C99.0787 155.54 98.8549 155.447 98.6899 155.282C98.5248 155.117 98.4321 154.893 98.4321 154.66C98.4321 154.427 98.5248 154.203 98.6899 154.038C98.8549 153.873 99.0787 153.78 99.3121 153.78H107.083C107.316 153.78 107.54 153.873 107.705 154.038C107.87 154.203 107.963 154.427 107.963 154.66C107.963 154.893 107.87 155.117 107.705 155.282C107.54 155.447 107.316 155.54 107.083 155.54Z" fill="#263238"/>
<path d="M98.3003 150.814L102.062 150.511L102.084 141.777L98.3267 142.076L98.3003 150.814Z" fill="#FFBE9D"/>
<path d="M102.678 149.657L98.089 149.706C98.0147 149.707 97.9429 149.733 97.8855 149.78C97.828 149.827 97.788 149.893 97.7722 149.965L97.0638 153.322C97.0472 153.404 97.0493 153.489 97.0699 153.57C97.0905 153.65 97.1291 153.726 97.1828 153.789C97.2366 153.853 97.304 153.904 97.3802 153.938C97.4563 153.973 97.5392 153.989 97.6226 153.987C99.0966 153.943 100.175 153.846 102.023 153.828C103.167 153.828 106.616 153.899 108.183 153.881C109.749 153.864 109.943 152.302 109.305 152.165C106.396 151.562 104.201 150.709 103.263 149.886C103.101 149.743 102.894 149.662 102.678 149.657Z" fill="#263238"/>
<path d="M114.598 50.6309C116.041 53.1917 117.555 55.8141 119.09 58.3485C120.568 60.8622 122.184 63.2918 123.93 65.6261C125.431 67.6193 127.75 69.2605 130.24 70.7389C131.481 71.4781 132.779 72.1645 134.103 72.8245C134.768 73.1501 135.423 73.4845 136.105 73.7925L138.12 74.6725L137.333 77.3873C134.225 76.7717 131.191 75.8277 128.282 74.5713C126.783 73.9241 125.336 73.1637 123.952 72.2965C123.236 71.8492 122.544 71.363 121.88 70.8401C121.541 70.5673 121.211 70.2637 120.886 69.9601L120.402 69.4673C120.243 69.3045 120.124 69.1593 119.962 69.0009C118.887 67.8081 117.878 66.5582 116.939 65.2565C115.993 63.9893 115.117 62.6957 114.268 61.3889C112.561 58.7489 111.008 56.1089 109.538 53.3501L114.598 50.6309Z" fill="#FFBE9D"/>
<path d="M109.16 55.5851C109.46 58.5162 110.676 61.278 112.636 63.4787L120.01 57.8951C120.01 57.8951 118.395 52.4787 115.452 49.5351C109.938 44.0703 108.759 51.2995 109.16 55.5851Z" fill="#E89C24"/>
<path opacity="0.2" d="M111.32 54.8152L109.12 55.3432C109.12 55.4268 109.12 55.506 109.12 55.5852C109.318 57.5098 109.918 59.3716 110.88 61.05C111.835 59.3516 111.76 56.2584 111.32 54.8152Z" fill="black"/>
<path opacity="0.2" d="M98.3267 142.08L102.084 141.781L102.071 146.282L98.3091 146.582L98.3267 142.08Z" fill="black"/>
<path d="M92.68 44.5994C90.7748 58.1866 83.5236 69.7674 83 72.6098C85.8776 73.2654 96.7324 75.6898 102.65 77.0098C109.726 65.5918 113.21 47.6794 113.21 47.6794C113.21 47.6794 112.088 46.993 110.504 46.2142C110.007 45.9722 109.466 45.7214 108.898 45.475C108.582 45.3372 108.26 45.2052 107.935 45.079C105.239 44.1314 102.49 43.341 99.7024 42.7118C99.1788 42.5886 98.642 42.4742 98.114 42.373C97.586 42.2718 97.146 42.197 96.6928 42.1266L96.0592 42.0298C95.6682 41.9741 95.2701 41.9966 94.8879 42.0959C94.5057 42.1953 94.147 42.3695 93.8327 42.6086C93.5184 42.8476 93.2546 43.1467 93.0567 43.4884C92.8588 43.8302 92.7308 44.2078 92.68 44.5994Z" fill="#E89C24"/>
<path d="M94.7715 50.5515C94.3315 52.2587 91.9379 55.3519 90.0195 57.1823C90.7543 55.0835 91.4407 52.8527 92.0039 50.5251L94.7715 50.5515Z" fill="#E89C24"/>
<path opacity="0.2" d="M94.7715 50.5515C94.3315 52.2587 91.9379 55.3519 90.0195 57.1823C90.7543 55.0835 91.4407 52.8527 92.0039 50.5251L94.7715 50.5515Z" fill="black"/>
<path d="M136.95 74.58L141.79 74.47L141.429 77.484C141.429 77.484 138.635 78.8348 136.47 76.956L136.95 74.58Z" fill="#FFBE9D"/>
<path d="M143.805 75.35L142.498 77.9548L141.438 77.484L141.799 74.47L143.805 75.35Z" fill="#FFBE9D"/>
<path d="M99.4711 32.12C98.8375 35.0724 101.064 37.84 105.059 37.4C109.054 36.96 100.461 27.4824 99.4711 32.12Z" fill="#263238"/>
<path d="M103.572 34.1836C103.33 36.982 102.45 41.9804 100.091 43.2168C101.117 45.0604 102.525 47.2516 105.635 48.268C108.746 49.2844 108.821 46.948 108.319 45.584C105.569 44.0264 106.273 41.8616 107.382 39.952L103.572 34.1836Z" fill="#FFBE9D"/>
<path opacity="0.2" d="M105.125 36.52L107.378 39.93C107.113 40.3713 106.888 40.8351 106.704 41.316C106.086 41.0126 105.552 40.561 105.149 40.0014C104.747 39.4418 104.489 38.7916 104.399 38.1084C104.342 37.2768 104.808 36.542 105.125 36.52Z" fill="black"/>
<path d="M111.443 27.1876C113.37 27.214 113.001 31.0376 111.883 31.9748C110.765 32.912 109.34 27.1612 111.443 27.1876Z" fill="#263238"/>
<path d="M102.128 30.5624C102.19 34.3024 102.04 36.4892 103.836 38.4824C106.542 41.4832 111.219 39.9784 112.27 36.2824C113.216 32.9692 112.952 27.4164 109.371 25.7708C108.581 25.4032 107.71 25.2443 106.842 25.309C105.973 25.3738 105.136 25.6602 104.409 26.1408C103.683 26.6214 103.092 27.2802 102.692 28.0543C102.293 28.8284 102.099 29.6919 102.128 30.5624Z" fill="#FFBE9D"/>
<path d="M101.895 33.33C103.805 31.79 104.94 29.876 104.32 28.3052C106.295 29.04 113.384 29.2248 112.737 26.2152C112.09 23.2056 107.36 22.6248 107.36 22.6248C107.36 22.6248 108.434 23.3332 108.381 23.8832C105.948 23.0032 103.101 22.9548 102.107 23.1748C102.819 23.6632 102.89 23.9976 102.89 23.9976C102.89 23.9976 98.3797 24.2748 99.3697 25.7576C97.6053 25.6916 96.3601 32.0232 101.895 33.33Z" fill="#263238"/>
<path d="M100.403 34.32C100.869 35.1364 101.64 35.7347 102.546 35.9832C103.752 36.3044 104.337 35.2264 103.989 34.0956C103.677 33.0792 102.669 31.6888 101.473 31.8692C100.276 32.0496 99.8447 33.33 100.403 34.32Z" fill="#FFBE9D"/>
<path d="M96.0386 75.9264C96.0386 75.9264 105.424 98.7316 104.72 109.745C103.959 121.805 103.686 144.417 103.686 144.417L97.165 144.932C97.165 144.932 94.547 123.328 95.1762 111.566C95.8978 98.164 77.9326 82.764 83.3842 73.106C89.5574 74.3952 96.0386 75.9264 96.0386 75.9264Z" fill="black"/>
<path opacity="0.3" d="M96.0386 75.9264C96.0386 75.9264 105.424 98.7316 104.72 109.745C103.959 121.805 103.686 144.417 103.686 144.417L97.165 144.932C97.165 144.932 94.547 123.328 95.1762 111.566C95.8978 98.164 77.9326 82.764 83.3842 73.106C89.5574 74.3952 96.0386 75.9264 96.0386 75.9264Z" fill="white"/>
<path d="M104.245 145.134L96.1619 145.93L95.9243 143.519L104.592 142.511L104.245 145.134Z" fill="#919191"/>
<path d="M107.734 31.8559C107.734 32.1595 107.87 32.4103 108.068 32.4191C108.266 32.4279 108.438 32.1903 108.451 31.8867C108.464 31.5831 108.315 31.3279 108.117 31.3191C107.919 31.3103 107.747 31.5523 107.734 31.8559Z" fill="#263238"/>
<path d="M111.162 32.0055C111.162 32.3091 111.298 32.5599 111.496 32.5687C111.694 32.5775 111.87 32.3399 111.883 32.0363C111.896 31.7327 111.747 31.4819 111.544 31.4731C111.342 31.4643 111.175 31.7019 111.162 32.0055Z" fill="#263238"/>
<path d="M110.066 32.1199C110.383 33.0633 110.827 33.959 111.386 34.7819C110.827 35.2571 109.925 34.9887 109.925 34.9887L110.066 32.1199Z" fill="#FF5652"/>
<path d="M108.623 35.7323C108.287 35.6762 107.966 35.5524 107.679 35.3687C107.393 35.1849 107.146 34.9448 106.955 34.6631C106.949 34.653 106.945 34.6418 106.943 34.6301C106.942 34.6184 106.942 34.6066 106.945 34.5951C106.948 34.5837 106.953 34.5729 106.96 34.5634C106.967 34.554 106.976 34.546 106.986 34.5399C106.996 34.5338 107.007 34.5298 107.019 34.5281C107.031 34.5263 107.043 34.5269 107.054 34.5298C107.065 34.5326 107.076 34.5377 107.086 34.5447C107.095 34.5518 107.103 34.5606 107.109 34.5707C107.326 34.8802 107.613 35.1343 107.946 35.3124C108.279 35.4905 108.65 35.5876 109.028 35.5959C109.039 35.5965 109.05 35.5993 109.061 35.6043C109.071 35.6092 109.081 35.6162 109.089 35.6247C109.096 35.6333 109.102 35.6434 109.106 35.6543C109.11 35.6652 109.112 35.6767 109.111 35.6883C109.11 35.712 109.1 35.7344 109.083 35.7508C109.065 35.7672 109.043 35.7763 109.019 35.7763C108.886 35.7689 108.754 35.7542 108.623 35.7323Z" fill="#263238"/>
<path d="M106.726 30.6987C106.696 30.6934 106.667 30.6814 106.643 30.6635C106.624 30.6486 106.609 30.6303 106.598 30.6095C106.588 30.5888 106.581 30.5661 106.579 30.5427C106.577 30.5193 106.579 30.4958 106.587 30.4735C106.594 30.4511 106.605 30.4305 106.621 30.4127C106.795 30.1893 107.021 30.0115 107.279 29.8942C107.538 29.777 107.82 29.7239 108.103 29.7395C108.127 29.7422 108.149 29.7495 108.169 29.7609C108.19 29.7724 108.208 29.7878 108.222 29.8062C108.236 29.8246 108.247 29.8457 108.253 29.8683C108.259 29.8908 108.26 29.9143 108.257 29.9375C108.255 29.9606 108.248 29.9831 108.237 30.0036C108.227 30.0242 108.212 30.0423 108.194 30.057C108.176 30.0718 108.155 30.0828 108.133 30.0894C108.11 30.0961 108.087 30.0983 108.064 30.0959C107.84 30.0856 107.616 30.1294 107.413 30.2236C107.209 30.3178 107.031 30.4596 106.893 30.6371C106.874 30.662 106.848 30.6811 106.819 30.692C106.789 30.7029 106.757 30.7052 106.726 30.6987Z" fill="#263238"/>
<path d="M112.693 30.8924C112.664 30.8862 112.637 30.8735 112.614 30.8552C112.592 30.8368 112.573 30.8134 112.561 30.7868C112.478 30.5787 112.348 30.3931 112.179 30.2455C112.011 30.0978 111.81 29.9923 111.593 29.9376C111.546 29.929 111.505 29.9025 111.478 29.8639C111.451 29.8252 111.44 29.7774 111.448 29.7308C111.451 29.708 111.46 29.6861 111.472 29.6665C111.484 29.6468 111.5 29.6297 111.519 29.6162C111.538 29.6028 111.559 29.5931 111.581 29.5879C111.604 29.5826 111.627 29.5818 111.65 29.5856C111.926 29.6497 112.183 29.7795 112.398 29.9642C112.614 30.1488 112.781 30.3827 112.887 30.646C112.896 30.6674 112.901 30.6904 112.901 30.7137C112.902 30.7371 112.898 30.7603 112.889 30.782C112.881 30.8037 112.868 30.8234 112.851 30.8401C112.835 30.8568 112.816 30.8701 112.794 30.8792C112.762 30.8924 112.727 30.8969 112.693 30.8924Z" fill="#263238"/>
<path d="M103.932 150.304C103.6 150.299 103.27 150.257 102.947 150.181C102.929 150.176 102.914 150.166 102.901 150.153C102.889 150.14 102.88 150.123 102.876 150.106C102.874 150.089 102.877 150.072 102.884 150.056C102.891 150.041 102.902 150.027 102.916 150.018C103.052 149.93 104.262 149.173 104.676 149.38C104.722 149.403 104.761 149.439 104.788 149.484C104.815 149.528 104.83 149.579 104.83 149.631C104.841 149.719 104.83 149.808 104.799 149.891C104.767 149.974 104.716 150.047 104.649 150.106C104.439 150.25 104.187 150.32 103.932 150.304ZM103.202 150.053C103.844 150.172 104.337 150.145 104.522 149.969C104.566 149.929 104.6 149.878 104.621 149.821C104.641 149.764 104.648 149.704 104.641 149.644C104.642 149.623 104.637 149.602 104.627 149.583C104.617 149.564 104.602 149.549 104.583 149.538C104.381 149.433 103.695 149.758 103.202 150.04V150.053Z" fill="#407BFF"/>
<path d="M102.96 150.181H102.907C102.894 150.171 102.884 150.159 102.877 150.144C102.87 150.129 102.867 150.113 102.868 150.097C102.868 150.053 102.951 148.966 103.383 148.605C103.433 148.56 103.494 148.525 103.559 148.505C103.624 148.484 103.693 148.478 103.761 148.487C103.828 148.485 103.893 148.508 103.945 148.549C103.998 148.591 104.034 148.65 104.047 148.715C104.135 149.155 103.387 149.969 103 150.185L102.96 150.181ZM103.704 148.645C103.628 148.65 103.555 148.679 103.497 148.729C103.234 149.07 103.081 149.482 103.057 149.912C103.44 149.613 103.937 148.984 103.867 148.737C103.867 148.715 103.867 148.663 103.735 148.649H103.695L103.704 148.645Z" fill="#407BFF"/>
<path d="M97.68 48.6728C97.2928 48.8576 96.976 49.0028 96.624 49.1568C96.272 49.3108 95.942 49.4472 95.5988 49.5968C94.908 49.874 94.2216 50.138 93.5264 50.3932C92.1404 50.9036 90.728 51.348 89.2892 51.7396C86.3607 52.5699 83.3422 53.0412 80.3 53.1432C79.5057 53.1597 78.7112 53.1348 77.9196 53.0684C77.5148 53.0288 77.1144 52.9936 76.7052 52.9232L76.4016 52.8792H76.2476L76.1244 52.8572L75.966 52.822C75.4837 52.7158 75.0256 52.5203 74.6152 52.2456C74.1638 51.9425 73.7839 51.5445 73.502 51.0796C73.2731 50.7003 73.1095 50.2854 73.018 49.852C72.8949 49.2498 72.8712 48.6315 72.9476 48.0216C73.0637 47.1427 73.2869 46.2812 73.612 45.4564C74.1765 44.0314 74.8687 42.6604 75.68 41.36C76.0584 40.7264 76.4544 40.106 76.8768 39.5076C77.2992 38.9092 77.7084 38.3196 78.1968 37.7256L80.6256 39.1688L79.8732 41.0916L79.1604 43.0188C78.7065 44.2488 78.3274 45.5051 78.0252 46.7808C77.9035 47.2973 77.8371 47.8254 77.8272 48.356C77.8272 48.5452 77.8756 48.6904 77.8888 48.6288C77.8856 48.5396 77.8582 48.4529 77.8096 48.378C77.7145 48.2146 77.5855 48.0736 77.4312 47.9644C77.3164 47.8834 77.1904 47.8197 77.0572 47.7752H77.0264H77.1364H77.3608C77.6512 47.806 77.9548 47.8104 78.2408 47.8236C78.848 47.8236 79.464 47.8236 80.0932 47.7664C81.3746 47.6719 82.6478 47.4882 83.9036 47.2164C85.1884 46.9568 86.4732 46.6224 87.7536 46.2396C89.034 45.8568 90.31 45.43 91.5772 44.9768C92.2108 44.748 92.84 44.5104 93.4648 44.2596L94.3932 43.8812L95.2732 43.5072L97.68 48.6728Z" fill="#FFBE9D"/>
<path d="M97.7547 49.9356C95.2995 52.5756 87.8547 54.362 87.8547 54.362L84.9199 45.8612C84.9199 45.8612 89.7907 42.944 94.4239 42.5348C101.526 41.9056 100.289 47.212 97.7547 49.9356Z" fill="#E89C24"/>
<path d="M80.5594 39.3887L82.447 36.0667L77.6554 35.6399C77.6554 35.6399 76.6786 38.8255 78.3066 39.5339L80.5594 39.3887Z" fill="#FFBE9D"/>
<path d="M81.6158 32.3489L78.0254 32.7933L77.6558 35.6533L82.4474 36.0669L81.6158 32.3489Z" fill="#FFBE9D"/>
</svg>
