<svg width="220" height="133" viewBox="0 0 220 133" fill="none" xmlns="http://www.w3.org/2000/svg">
<path d="M56.4871 24.4706C53.6249 24.4706 5.47823 24.7989 2.45511 24.6905C2.40417 24.6903 2.35472 24.6734 2.31431 24.6424C2.2739 24.6114 2.24476 24.5679 2.23136 24.5188C2.21795 24.4697 2.22102 24.4175 2.24009 24.3702C2.25916 24.323 2.29318 24.2833 2.33694 24.2573C4.24403 23.3152 6.40715 23.5023 8.38974 22.836C9.555 22.4421 10.2706 21.6806 11.0813 20.8041C11.751 20.0391 12.6171 19.4716 13.5858 19.1629C14.4715 18.8949 15.4118 18.8632 16.3135 19.071C17.2982 19.3041 18.1385 19.8621 19.0708 20.2166C21.3849 21.0897 23.63 20.2593 25.2811 18.5491C26.6433 17.1377 27.9825 15.805 29.8338 15.0468C31.3864 14.41 33.1163 14.2787 34.659 14.9811C36.4249 15.7787 37.6362 17.3904 39.2938 18.3555C41.2632 19.5076 43.6135 19.2351 45.7831 19.5798C47.9528 19.9245 49.6236 21.756 51.5274 22.8097C52.1474 23.2135 52.8657 23.4404 53.6052 23.4662C54.0291 23.4285 54.4509 23.3694 54.8689 23.2889C55.5254 23.2069 56.149 23.2266 56.5889 23.7715C56.6972 23.906 56.6742 24.4706 56.4871 24.4706Z" fill="#EBEBEB"/>
<path d="M219.877 27.8349C217.789 27.8349 182.637 28.0647 180.428 27.9958C180.271 27.9958 180.186 27.7561 180.343 27.6675C181.735 26.9782 183.314 27.1161 184.761 26.6303C185.615 26.3414 186.137 25.7867 186.731 25.1466C187.22 24.5899 187.852 24.1778 188.559 23.9551C189.206 23.7591 189.893 23.7376 190.551 23.8927C191.264 24.0601 191.884 24.4704 192.564 24.7265C194.251 25.3632 195.892 24.7593 197.1 23.5087C198.085 22.478 199.069 21.5064 200.422 20.9517C200.974 20.7027 201.572 20.5699 202.178 20.5615C202.783 20.553 203.385 20.6691 203.944 20.9024C205.234 21.4867 206.117 22.6618 207.328 23.3708C208.766 24.2078 210.482 24.0273 212.068 24.2636C213.653 24.5 214.871 25.8523 216.259 26.6204C216.713 26.9109 217.237 27.0731 217.776 27.0898C218.087 27.0624 218.395 27.0185 218.702 26.9585C219.177 26.8994 219.634 26.9158 219.955 27.313C220.031 27.4213 220.014 27.8349 219.877 27.8349Z" fill="#EBEBEB"/>
<path d="M105.55 35.6504C103.462 35.6504 68.3108 35.8802 66.1017 35.8113C65.9442 35.8113 65.8588 35.5717 66.0164 35.483C67.4081 34.7937 68.9706 34.9349 70.4345 34.4458C71.288 34.1602 71.8099 33.6022 72.404 32.9621C72.8937 32.4061 73.5258 31.9941 74.2323 31.7706C74.8794 31.5747 75.5667 31.5531 76.2247 31.7082C76.937 31.8757 77.5574 32.286 78.2369 32.542C79.9273 33.1788 81.5685 32.5748 82.7732 31.3242C83.7579 30.2968 84.7426 29.3219 86.0983 28.7672C86.6502 28.5181 87.2474 28.3855 87.8529 28.3776C88.4583 28.3697 89.0589 28.4867 89.617 28.7212C90.907 29.3055 91.7933 30.4773 93.0045 31.1863C94.4389 32.0234 96.1556 31.8264 97.741 32.0792C99.3265 32.3319 100.544 33.6679 101.936 34.4359C102.39 34.7269 102.914 34.8892 103.452 34.9053C103.761 34.9053 104.066 34.8134 104.375 34.7773C104.854 34.7182 105.307 34.7314 105.629 35.1285C105.704 35.2369 105.688 35.6504 105.55 35.6504Z" fill="#EBEBEB"/>
<path d="M145.494 49.9782C143.406 49.9782 108.255 50.208 106.046 50.139C105.888 50.139 105.803 49.8994 105.96 49.8108C107.352 49.1215 108.931 49.2593 110.378 48.7703C111.229 48.4847 111.754 47.9267 112.348 47.2899C112.836 46.7311 113.468 46.3177 114.176 46.0951C114.823 45.8991 115.511 45.8776 116.169 46.0327C116.881 46.2034 117.501 46.6104 118.181 46.8664C119.868 47.5065 121.509 46.8993 122.717 45.6487C123.702 44.6213 124.686 43.6497 126.039 43.0949C126.591 42.8453 127.189 42.712 127.795 42.7036C128.401 42.6951 129.002 42.8116 129.561 43.0457C130.851 43.63 131.734 44.8051 132.945 45.5108C134.383 46.3478 136.099 46.1509 137.685 46.4036C139.27 46.6564 140.488 47.9923 141.877 48.7604C142.329 49.0538 142.854 49.2163 143.393 49.2298C143.721 49.2298 144.01 49.1379 144.319 49.1018C144.795 49.0427 145.251 49.0558 145.573 49.453C145.648 49.5646 145.632 49.9782 145.494 49.9782Z" fill="#EBEBEB"/>
<path d="M175.928 12.3189C175.889 12.4371 120.527 12.3189 121.227 12.3189C121.555 12.3189 120.741 11.843 121.053 11.692C122.855 10.7959 124.827 10.7696 126.79 10.5891C127.936 10.4873 129.111 10.3199 130.142 9.77831C131.172 9.23671 131.835 8.28152 132.577 7.40511C133.719 6.05416 135.186 5.01642 136.84 4.38985C138.494 3.76327 140.28 3.56852 142.031 3.82399C145.969 4.44108 149.068 7.43466 153.014 7.99267C155.38 8.32091 157.609 7.40512 159.936 7.08344C161.843 6.81756 163.429 7.18847 165.136 8.03534C166.383 8.65244 167.538 9.17434 168.95 9.27281C170.033 9.34831 171.123 9.22358 172.209 9.21373C173.988 9.24642 175.694 9.92817 177.005 11.1307C177.179 11.2849 177.743 12.3189 175.928 12.3189Z" fill="#EBEBEB"/>
<path d="M178.288 16.5171H159.93V112.748H178.288V16.5171Z" fill="#DBDBDB"/>
<path d="M166.347 19.6421H162.779V23.3151H166.347V19.6421Z" fill="#EBEBEB"/>
<path d="M170.913 19.6421H167.345V23.3151H170.913V19.6421Z" fill="#EBEBEB"/>
<path d="M166.347 25.8821H162.779V29.5551H166.347V25.8821Z" fill="#EBEBEB"/>
<path d="M170.913 25.8821H167.345V29.5551H170.913V25.8821Z" fill="#EBEBEB"/>
<path d="M166.347 32.1187H162.779V35.7917H166.347V32.1187Z" fill="#EBEBEB"/>
<path d="M170.913 32.1187H167.345V35.7917H170.913V32.1187Z" fill="#EBEBEB"/>
<path d="M166.347 38.3584H162.779V42.0314H166.347V38.3584Z" fill="#EBEBEB"/>
<path d="M170.913 38.3584H167.345V42.0314H170.913V38.3584Z" fill="#EBEBEB"/>
<path d="M166.347 44.595H162.779V48.268H166.347V44.595Z" fill="#EBEBEB"/>
<path d="M170.913 44.595H167.345V48.268H170.913V44.595Z" fill="#EBEBEB"/>
<path d="M166.347 50.835H162.779V54.508H166.347V50.835Z" fill="#EBEBEB"/>
<path d="M170.913 50.835H167.345V54.508H170.913V50.835Z" fill="#EBEBEB"/>
<path d="M166.347 57.0715H162.779V60.7446H166.347V57.0715Z" fill="#EBEBEB"/>
<path d="M170.913 57.0715H167.345V60.7446H170.913V57.0715Z" fill="#EBEBEB"/>
<path d="M166.347 63.3115H162.779V66.9846H166.347V63.3115Z" fill="#EBEBEB"/>
<path d="M170.913 63.3115H167.345V66.9846H170.913V63.3115Z" fill="#EBEBEB"/>
<path d="M166.347 69.5481H162.779V73.2211H166.347V69.5481Z" fill="#EBEBEB"/>
<path d="M170.913 69.5481H167.345V73.2211H170.913V69.5481Z" fill="#EBEBEB"/>
<path d="M166.347 75.7881H162.779V79.4611H166.347V75.7881Z" fill="#EBEBEB"/>
<path d="M170.913 75.7881H167.345V79.4611H170.913V75.7881Z" fill="#EBEBEB"/>
<path d="M166.347 82.0247H162.779V85.6977H166.347V82.0247Z" fill="#EBEBEB"/>
<path d="M170.913 82.0247H167.345V85.6977H170.913V82.0247Z" fill="#EBEBEB"/>
<path d="M166.347 88.2644H162.779V91.9374H166.347V88.2644Z" fill="#EBEBEB"/>
<path d="M170.913 88.2644H167.345V91.9374H170.913V88.2644Z" fill="#EBEBEB"/>
<path d="M166.347 94.501H162.779V98.174H166.347V94.501Z" fill="#EBEBEB"/>
<path d="M170.913 94.501H167.345V98.174H170.913V94.501Z" fill="#EBEBEB"/>
<path d="M166.347 100.741H162.779V104.414H166.347V100.741Z" fill="#EBEBEB"/>
<path d="M171.871 104.414H175.439V100.741H171.871V104.414Z" fill="#EBEBEB"/>
<path d="M171.871 98.1775H175.439V94.5045H171.871V98.1775Z" fill="#EBEBEB"/>
<path d="M171.871 91.9375H175.439V88.2645H171.871V91.9375Z" fill="#EBEBEB"/>
<path d="M171.871 85.7009H175.439V82.0279H171.871V85.7009Z" fill="#EBEBEB"/>
<path d="M171.871 79.4609H175.439V75.7879H171.871V79.4609Z" fill="#EBEBEB"/>
<path d="M171.871 73.2244H175.439V69.5513H171.871V73.2244Z" fill="#EBEBEB"/>
<path d="M171.871 66.9844H175.439V63.3113H171.871V66.9844Z" fill="#EBEBEB"/>
<path d="M171.871 60.7478H175.439V57.0748H171.871V60.7478Z" fill="#EBEBEB"/>
<path d="M171.871 54.5081H175.439V50.835H171.871V54.5081Z" fill="#EBEBEB"/>
<path d="M171.871 48.2715H175.439V44.5984H171.871V48.2715Z" fill="#EBEBEB"/>
<path d="M171.871 42.0315H175.439V38.3585H171.871V42.0315Z" fill="#EBEBEB"/>
<path d="M171.871 35.7949H175.439V32.1219H171.871V35.7949Z" fill="#EBEBEB"/>
<path d="M171.871 29.5549H175.439V25.8819H171.871V29.5549Z" fill="#EBEBEB"/>
<path d="M171.871 23.3184H175.439V19.6453H171.871V23.3184Z" fill="#EBEBEB"/>
<path d="M170.913 100.741H167.345V104.414H170.913V100.741Z" fill="#EBEBEB"/>
<path d="M192.764 16.5171H178.288V112.748H192.764V16.5171Z" fill="#A6A6A6"/>
<path d="M188.326 104.414H191.273V100.741H188.326V104.414Z" fill="#C7C7C7"/>
<path d="M184.554 104.414H187.502V100.741H184.554V104.414Z" fill="#C7C7C7"/>
<path d="M188.326 98.1775H191.273V94.5045H188.326V98.1775Z" fill="#C7C7C7"/>
<path d="M184.554 98.1775H187.502V94.5045H184.554V98.1775Z" fill="#C7C7C7"/>
<path d="M188.326 91.9375H191.273V88.2645H188.326V91.9375Z" fill="#C7C7C7"/>
<path d="M184.554 91.9375H187.502V88.2645H184.554V91.9375Z" fill="#C7C7C7"/>
<path d="M188.326 85.7009H191.273V82.0279H188.326V85.7009Z" fill="#C7C7C7"/>
<path d="M184.554 85.7009H187.502V82.0279H184.554V85.7009Z" fill="#C7C7C7"/>
<path d="M188.326 79.4609H191.273V75.7879H188.326V79.4609Z" fill="#C7C7C7"/>
<path d="M184.554 79.4609H187.502V75.7879H184.554V79.4609Z" fill="#C7C7C7"/>
<path d="M188.326 73.2244H191.273V69.5513H188.326V73.2244Z" fill="#C7C7C7"/>
<path d="M184.554 73.2244H187.502V69.5513H184.554V73.2244Z" fill="#C7C7C7"/>
<path d="M188.326 66.9844H191.273V63.3113H188.326V66.9844Z" fill="#C7C7C7"/>
<path d="M184.554 66.9844H187.502V63.3113H184.554V66.9844Z" fill="#C7C7C7"/>
<path d="M188.326 60.7478H191.273V57.0748H188.326V60.7478Z" fill="#C7C7C7"/>
<path d="M184.554 60.7478H187.502V57.0748H184.554V60.7478Z" fill="#C7C7C7"/>
<path d="M188.326 54.5081H191.273V50.835H188.326V54.5081Z" fill="#C7C7C7"/>
<path d="M184.554 54.5081H187.502V50.835H184.554V54.5081Z" fill="#C7C7C7"/>
<path d="M188.326 48.2715H191.273V44.5984H188.326V48.2715Z" fill="#C7C7C7"/>
<path d="M184.554 48.2715H187.502V44.5984H184.554V48.2715Z" fill="#C7C7C7"/>
<path d="M188.326 42.0315H191.273V38.3585H188.326V42.0315Z" fill="#C7C7C7"/>
<path d="M184.554 42.0315H187.502V38.3585H184.554V42.0315Z" fill="#C7C7C7"/>
<path d="M188.326 35.7949H191.273V32.1219H188.326V35.7949Z" fill="#C7C7C7"/>
<path d="M184.554 35.7949H187.502V32.1219H184.554V35.7949Z" fill="#C7C7C7"/>
<path d="M188.326 29.5549H191.273V25.8819H188.326V29.5549Z" fill="#C7C7C7"/>
<path d="M184.554 29.5549H187.502V25.8819H184.554V29.5549Z" fill="#C7C7C7"/>
<path d="M188.326 23.3184H191.273V19.6453H188.326V23.3184Z" fill="#C7C7C7"/>
<path d="M183.764 19.6421H180.816V23.3151H183.764V19.6421Z" fill="#C7C7C7"/>
<path d="M183.764 25.8821H180.816V29.5551H183.764V25.8821Z" fill="#C7C7C7"/>
<path d="M183.764 32.1187H180.816V35.7917H183.764V32.1187Z" fill="#C7C7C7"/>
<path d="M183.764 38.3584H180.816V42.0314H183.764V38.3584Z" fill="#C7C7C7"/>
<path d="M183.764 44.595H180.816V48.268H183.764V44.595Z" fill="#C7C7C7"/>
<path d="M183.764 50.835H180.816V54.508H183.764V50.835Z" fill="#C7C7C7"/>
<path d="M183.764 57.0715H180.816V60.7446H183.764V57.0715Z" fill="#C7C7C7"/>
<path d="M183.764 63.3115H180.816V66.9846H183.764V63.3115Z" fill="#C7C7C7"/>
<path d="M183.764 69.5481H180.816V73.2211H183.764V69.5481Z" fill="#C7C7C7"/>
<path d="M183.764 75.7881H180.816V79.4611H183.764V75.7881Z" fill="#C7C7C7"/>
<path d="M183.764 82.0247H180.816V85.6977H183.764V82.0247Z" fill="#C7C7C7"/>
<path d="M183.764 88.2644H180.816V91.9374H183.764V88.2644Z" fill="#C7C7C7"/>
<path d="M183.764 94.501H180.816V98.174H183.764V94.501Z" fill="#C7C7C7"/>
<path d="M183.764 100.741H180.816V104.414H183.764V100.741Z" fill="#C7C7C7"/>
<path d="M184.554 23.3184H187.502V19.6453H184.554V23.3184Z" fill="#C7C7C7"/>
<path d="M48.4849 9.05298H26.3843V112.748H48.4849V9.05298Z" fill="#EBEBEB"/>
<path d="M48.4849 6.98828H25.8525V9.05293H48.4849V6.98828Z" fill="#C7C7C7"/>
<path d="M30.6219 12.0957H28.3833V112.748H30.6219V12.0957Z" fill="white"/>
<path d="M34.5868 12.0957H32.3481V112.748H34.5868V12.0957Z" fill="white"/>
<path d="M38.5521 12.0957H36.3135V112.748H38.5521V12.0957Z" fill="white"/>
<path d="M42.5208 12.0957H40.2822V112.748H42.5208V12.0957Z" fill="white"/>
<path d="M46.4857 12.0957H44.2471V112.748H46.4857V12.0957Z" fill="white"/>
<path d="M30.6219 14.7053H28.3833V18.7821H30.6219V14.7053Z" fill="#EBEBEB"/>
<path d="M34.5868 14.7053H32.3481V18.7821H34.5868V14.7053Z" fill="#EBEBEB"/>
<path d="M38.5521 14.7053H36.3135V18.7821H38.5521V14.7053Z" fill="#EBEBEB"/>
<path d="M42.5208 14.7053H40.2822V18.7821H42.5208V14.7053Z" fill="#EBEBEB"/>
<path d="M46.4857 14.7053H44.2471V18.7821H46.4857V14.7053Z" fill="#EBEBEB"/>
<path d="M30.6219 21.3293H28.3833V25.4061H30.6219V21.3293Z" fill="#EBEBEB"/>
<path d="M34.5868 21.3293H32.3481V25.4061H34.5868V21.3293Z" fill="#EBEBEB"/>
<path d="M38.5521 21.3293H36.3135V25.4061H38.5521V21.3293Z" fill="#EBEBEB"/>
<path d="M42.5208 21.3293H40.2822V25.4061H42.5208V21.3293Z" fill="#EBEBEB"/>
<path d="M46.4857 21.3293H44.2471V25.4061H46.4857V21.3293Z" fill="#EBEBEB"/>
<path d="M30.6219 27.9531H28.3833V32.0299H30.6219V27.9531Z" fill="#EBEBEB"/>
<path d="M34.5868 27.9531H32.3481V32.0299H34.5868V27.9531Z" fill="#EBEBEB"/>
<path d="M38.5521 27.9531H36.3135V32.0299H38.5521V27.9531Z" fill="#EBEBEB"/>
<path d="M42.5208 27.9531H40.2822V32.0299H42.5208V27.9531Z" fill="#EBEBEB"/>
<path d="M46.4857 27.9531H44.2471V32.0299H46.4857V27.9531Z" fill="#EBEBEB"/>
<path d="M30.6219 34.5803H28.3833V38.6571H30.6219V34.5803Z" fill="#EBEBEB"/>
<path d="M34.5868 34.5803H32.3481V38.6571H34.5868V34.5803Z" fill="#EBEBEB"/>
<path d="M38.5521 34.5803H36.3135V38.6571H38.5521V34.5803Z" fill="#EBEBEB"/>
<path d="M42.5208 34.5803H40.2822V38.6571H42.5208V34.5803Z" fill="#EBEBEB"/>
<path d="M46.4857 34.5803H44.2471V38.6571H46.4857V34.5803Z" fill="#EBEBEB"/>
<path d="M30.6219 41.2043H28.3833V45.2811H30.6219V41.2043Z" fill="#EBEBEB"/>
<path d="M34.5868 41.2043H32.3481V45.2811H34.5868V41.2043Z" fill="#EBEBEB"/>
<path d="M38.5521 41.2043H36.3135V45.2811H38.5521V41.2043Z" fill="#EBEBEB"/>
<path d="M42.5208 41.2043H40.2822V45.2811H42.5208V41.2043Z" fill="#EBEBEB"/>
<path d="M46.4857 41.2043H44.2471V45.2811H46.4857V41.2043Z" fill="#EBEBEB"/>
<path d="M30.6219 47.8284H28.3833V51.9051H30.6219V47.8284Z" fill="#EBEBEB"/>
<path d="M34.5868 47.8284H32.3481V51.9051H34.5868V47.8284Z" fill="#EBEBEB"/>
<path d="M38.5521 47.8284H36.3135V51.9051H38.5521V47.8284Z" fill="#EBEBEB"/>
<path d="M42.5208 47.8284H40.2822V51.9051H42.5208V47.8284Z" fill="#EBEBEB"/>
<path d="M46.4857 47.8284H44.2471V51.9051H46.4857V47.8284Z" fill="#EBEBEB"/>
<path d="M30.6219 54.4521H28.3833V58.5289H30.6219V54.4521Z" fill="#EBEBEB"/>
<path d="M34.5868 54.4521H32.3481V58.5289H34.5868V54.4521Z" fill="#EBEBEB"/>
<path d="M38.5521 54.4521H36.3135V58.5289H38.5521V54.4521Z" fill="#EBEBEB"/>
<path d="M42.5208 54.4521H40.2822V58.5289H42.5208V54.4521Z" fill="#EBEBEB"/>
<path d="M46.4857 54.4521H44.2471V58.5289H46.4857V54.4521Z" fill="#EBEBEB"/>
<path d="M30.6219 61.0793H28.3833V65.1561H30.6219V61.0793Z" fill="#EBEBEB"/>
<path d="M34.5868 61.0793H32.3481V65.1561H34.5868V61.0793Z" fill="#EBEBEB"/>
<path d="M38.5521 61.0793H36.3135V65.1561H38.5521V61.0793Z" fill="#EBEBEB"/>
<path d="M42.5208 61.0793H40.2822V65.1561H42.5208V61.0793Z" fill="#EBEBEB"/>
<path d="M46.4857 61.0793H44.2471V65.1561H46.4857V61.0793Z" fill="#EBEBEB"/>
<path d="M30.6219 67.7034H28.3833V71.7801H30.6219V67.7034Z" fill="#EBEBEB"/>
<path d="M34.5868 67.7034H32.3481V71.7801H34.5868V67.7034Z" fill="#EBEBEB"/>
<path d="M38.5521 67.7034H36.3135V71.7801H38.5521V67.7034Z" fill="#EBEBEB"/>
<path d="M42.5208 67.7034H40.2822V71.7801H42.5208V67.7034Z" fill="#EBEBEB"/>
<path d="M46.4857 67.7034H44.2471V71.7801H46.4857V67.7034Z" fill="#EBEBEB"/>
<path d="M30.6219 74.3274H28.3833V78.4042H30.6219V74.3274Z" fill="#EBEBEB"/>
<path d="M34.5868 74.3274H32.3481V78.4042H34.5868V74.3274Z" fill="#EBEBEB"/>
<path d="M38.5521 74.3274H36.3135V78.4042H38.5521V74.3274Z" fill="#EBEBEB"/>
<path d="M42.5208 74.3274H40.2822V78.4042H42.5208V74.3274Z" fill="#EBEBEB"/>
<path d="M46.4857 74.3274H44.2471V78.4042H46.4857V74.3274Z" fill="#EBEBEB"/>
<path d="M30.6219 80.9512H28.3833V85.0279H30.6219V80.9512Z" fill="#EBEBEB"/>
<path d="M34.5868 80.9512H32.3481V85.0279H34.5868V80.9512Z" fill="#EBEBEB"/>
<path d="M38.5521 80.9512H36.3135V85.0279H38.5521V80.9512Z" fill="#EBEBEB"/>
<path d="M42.5208 80.9512H40.2822V85.0279H42.5208V80.9512Z" fill="#EBEBEB"/>
<path d="M46.4857 80.9512H44.2471V85.0279H46.4857V80.9512Z" fill="#EBEBEB"/>
<path d="M30.6219 87.5752H28.3833V91.652H30.6219V87.5752Z" fill="#EBEBEB"/>
<path d="M34.5868 87.5752H32.3481V91.652H34.5868V87.5752Z" fill="#EBEBEB"/>
<path d="M38.5521 87.5752H36.3135V91.652H38.5521V87.5752Z" fill="#EBEBEB"/>
<path d="M42.5208 87.5752H40.2822V91.652H42.5208V87.5752Z" fill="#EBEBEB"/>
<path d="M46.4857 87.5752H44.2471V91.652H46.4857V87.5752Z" fill="#EBEBEB"/>
<path d="M30.6219 94.2024H28.3833V98.2792H30.6219V94.2024Z" fill="#EBEBEB"/>
<path d="M34.5868 94.2024H32.3481V98.2792H34.5868V94.2024Z" fill="#EBEBEB"/>
<path d="M38.5521 94.2024H36.3135V98.2792H38.5521V94.2024Z" fill="#EBEBEB"/>
<path d="M42.5208 94.2024H40.2822V98.2792H42.5208V94.2024Z" fill="#EBEBEB"/>
<path d="M46.4857 94.2024H44.2471V98.2792H46.4857V94.2024Z" fill="#EBEBEB"/>
<path d="M30.6219 100.826H28.3833V112.748H30.6219V100.826Z" fill="#EBEBEB"/>
<path d="M34.5868 100.826H32.3481V112.748H34.5868V100.826Z" fill="#EBEBEB"/>
<path d="M38.5521 100.826H36.3135V112.748H38.5521V100.826Z" fill="#EBEBEB"/>
<path d="M42.5208 100.826H40.2822V112.748H42.5208V100.826Z" fill="#EBEBEB"/>
<path d="M46.4857 100.826H44.2471V112.748H46.4857V100.826Z" fill="#EBEBEB"/>
<path d="M62.6715 9.05298H48.4849V112.748H62.6715V9.05298Z" fill="#DBDBDB"/>
<path d="M63.2886 6.98828H48.4849V9.05293H63.2886V6.98828Z" fill="#C7C7C7"/>
<path d="M52.7191 12.0957H50.4805V112.748H52.7191V12.0957Z" fill="#C7C7C7"/>
<path d="M56.6873 12.0957H54.4487V112.748H56.6873V12.0957Z" fill="#C7C7C7"/>
<path d="M60.6527 12.0957H58.4141V112.748H60.6527V12.0957Z" fill="#C7C7C7"/>
<path d="M52.7191 14.7053H50.4805V18.7821H52.7191V14.7053Z" fill="#DBDBDB"/>
<path d="M56.6873 14.7053H54.4487V18.7821H56.6873V14.7053Z" fill="#DBDBDB"/>
<path d="M60.6527 14.7053H58.4141V18.7821H60.6527V14.7053Z" fill="#DBDBDB"/>
<path d="M52.7191 21.3293H50.4805V25.4061H52.7191V21.3293Z" fill="#DBDBDB"/>
<path d="M56.6873 21.3293H54.4487V25.4061H56.6873V21.3293Z" fill="#DBDBDB"/>
<path d="M60.6527 21.3293H58.4141V25.4061H60.6527V21.3293Z" fill="#DBDBDB"/>
<path d="M52.7191 27.9531H50.4805V32.0299H52.7191V27.9531Z" fill="#DBDBDB"/>
<path d="M56.6873 27.9531H54.4487V32.0299H56.6873V27.9531Z" fill="#DBDBDB"/>
<path d="M60.6527 27.9531H58.4141V32.0299H60.6527V27.9531Z" fill="#DBDBDB"/>
<path d="M52.7191 34.5803H50.4805V38.6571H52.7191V34.5803Z" fill="#DBDBDB"/>
<path d="M56.6873 34.5803H54.4487V38.6571H56.6873V34.5803Z" fill="#DBDBDB"/>
<path d="M60.6527 34.5803H58.4141V38.6571H60.6527V34.5803Z" fill="#DBDBDB"/>
<path d="M52.7191 41.2043H50.4805V45.2811H52.7191V41.2043Z" fill="#DBDBDB"/>
<path d="M56.6873 41.2043H54.4487V45.2811H56.6873V41.2043Z" fill="#DBDBDB"/>
<path d="M60.6527 41.2043H58.4141V45.2811H60.6527V41.2043Z" fill="#DBDBDB"/>
<path d="M52.7191 47.8284H50.4805V51.9051H52.7191V47.8284Z" fill="#DBDBDB"/>
<path d="M56.6873 47.8284H54.4487V51.9051H56.6873V47.8284Z" fill="#DBDBDB"/>
<path d="M60.6527 47.8284H58.4141V51.9051H60.6527V47.8284Z" fill="#DBDBDB"/>
<path d="M52.7191 54.4521H50.4805V58.5289H52.7191V54.4521Z" fill="#DBDBDB"/>
<path d="M56.6873 54.4521H54.4487V58.5289H56.6873V54.4521Z" fill="#DBDBDB"/>
<path d="M60.6527 54.4521H58.4141V58.5289H60.6527V54.4521Z" fill="#DBDBDB"/>
<path d="M52.7191 61.0793H50.4805V65.1561H52.7191V61.0793Z" fill="#DBDBDB"/>
<path d="M56.6873 61.0793H54.4487V65.1561H56.6873V61.0793Z" fill="#DBDBDB"/>
<path d="M60.6527 61.0793H58.4141V65.1561H60.6527V61.0793Z" fill="#DBDBDB"/>
<path d="M52.7191 67.7034H50.4805V71.7801H52.7191V67.7034Z" fill="#DBDBDB"/>
<path d="M56.6873 67.7034H54.4487V71.7801H56.6873V67.7034Z" fill="#DBDBDB"/>
<path d="M60.6527 67.7034H58.4141V71.7801H60.6527V67.7034Z" fill="#DBDBDB"/>
<path d="M52.7191 74.3274H50.4805V78.4042H52.7191V74.3274Z" fill="#DBDBDB"/>
<path d="M56.6873 74.3274H54.4487V78.4042H56.6873V74.3274Z" fill="#DBDBDB"/>
<path d="M60.6527 74.3274H58.4141V78.4042H60.6527V74.3274Z" fill="#DBDBDB"/>
<path d="M52.7191 80.9512H50.4805V85.0279H52.7191V80.9512Z" fill="#DBDBDB"/>
<path d="M56.6873 80.9512H54.4487V85.0279H56.6873V80.9512Z" fill="#DBDBDB"/>
<path d="M60.6527 80.9512H58.4141V85.0279H60.6527V80.9512Z" fill="#DBDBDB"/>
<path d="M52.7191 87.5752H50.4805V91.652H52.7191V87.5752Z" fill="#DBDBDB"/>
<path d="M56.6873 87.5752H54.4487V91.652H56.6873V87.5752Z" fill="#DBDBDB"/>
<path d="M60.6527 87.5752H58.4141V91.652H60.6527V87.5752Z" fill="#DBDBDB"/>
<path d="M52.7191 94.2024H50.4805V98.2792H52.7191V94.2024Z" fill="#DBDBDB"/>
<path d="M56.6873 94.2024H54.4487V98.2792H56.6873V94.2024Z" fill="#DBDBDB"/>
<path d="M60.6527 94.2024H58.4141V98.2792H60.6527V94.2024Z" fill="#DBDBDB"/>
<path d="M52.7191 100.826H50.4805V112.748H52.7191V100.826Z" fill="#DBDBDB"/>
<path d="M56.6873 100.826H54.4487V112.748H56.6873V100.826Z" fill="#DBDBDB"/>
<path d="M60.6527 100.826H58.4141V112.748H60.6527V100.826Z" fill="#DBDBDB"/>
<path d="M21.8872 43.8665H3.72559V112.748H21.8872V43.8665Z" fill="#EBEBEB"/>
<path d="M21.8875 39.3005H6.30908V43.8697H21.8875V39.3005Z" fill="#C7C7C7"/>
<path d="M19.8949 46.2527H5.71484V97.7441H19.8949V46.2527Z" fill="#DBDBDB"/>
<path d="M19.8949 51.1665H5.71484V52.3843H19.8949V51.1665Z" fill="white"/>
<path d="M19.8949 56.2051H5.71484V57.4229H19.8949V56.2051Z" fill="white"/>
<path d="M19.8949 61.2468H5.71484V62.4646H19.8949V61.2468Z" fill="white"/>
<path d="M19.8949 66.2854H5.71484V67.5032H19.8949V66.2854Z" fill="white"/>
<path d="M19.8949 71.3271H5.71484V72.5449H19.8949V71.3271Z" fill="white"/>
<path d="M19.8949 76.3657H5.71484V77.5835H19.8949V76.3657Z" fill="white"/>
<path d="M19.8949 81.4075H5.71484V82.6252H19.8949V81.4075Z" fill="white"/>
<path d="M19.8949 86.446H5.71484V87.6638H19.8949V86.446Z" fill="white"/>
<path d="M19.8949 91.4878H5.71484V92.7056H19.8949V91.4878Z" fill="white"/>
<path d="M19.8949 96.5264H5.71484V97.7441H19.8949V96.5264Z" fill="white"/>
<path d="M33.2641 43.8665H21.8872V112.748H33.2641V43.8665Z" fill="#DBDBDB"/>
<path d="M31.5572 39.3005H21.8872V43.8697H31.5572V39.3005Z" fill="#A6A6A6"/>
<path d="M32.2042 46.2527H23.4565V97.7441H32.2042V46.2527Z" fill="#C7C7C7"/>
<path d="M32.2042 51.1665H23.4565V52.3843H32.2042V51.1665Z" fill="white"/>
<path d="M32.2042 56.2051H23.4565V57.4229H32.2042V56.2051Z" fill="white"/>
<path d="M32.2042 61.2468H23.4565V62.4646H32.2042V61.2468Z" fill="white"/>
<path d="M32.2042 66.2854H23.4565V67.5032H32.2042V66.2854Z" fill="white"/>
<path d="M32.2042 71.3271H23.4565V72.5449H32.2042V71.3271Z" fill="white"/>
<path d="M32.2042 76.3657H23.4565V77.5835H32.2042V76.3657Z" fill="white"/>
<path d="M32.2042 81.4075H23.4565V82.6252H32.2042V81.4075Z" fill="white"/>
<path d="M32.2042 86.446H23.4565V87.6638H32.2042V86.446Z" fill="white"/>
<path d="M32.2042 91.4878H23.4565V92.7056H32.2042V91.4878Z" fill="white"/>
<path d="M32.2042 96.5264H23.4565V97.7441H32.2042V96.5264Z" fill="white"/>
<path d="M203.52 45.0283H193.821V56.4873H203.52V45.0283Z" fill="#DBDBDB"/>
<path d="M209.672 45.0283H203.521V56.9074H209.672V45.0283Z" fill="#C7C7C7"/>
<path d="M210.082 50.0898H203.977V56.9074H210.082V50.0898Z" fill="#DBDBDB"/>
<path d="M213.89 50.0898H210.082V56.9074H213.89V50.0898Z" fill="#C7C7C7"/>
<path d="M205.785 55.7422H190.099V112.748H205.785V55.7422Z" fill="#EBEBEB"/>
<path d="M196.828 58.1941H191.894V60.2095H196.828V58.1941Z" fill="white"/>
<path d="M203.136 58.1941H198.203V60.2095H203.136V58.1941Z" fill="white"/>
<path d="M196.828 61.6145H191.894V63.6299H196.828V61.6145Z" fill="white"/>
<path d="M203.136 61.6145H198.203V63.6299H203.136V61.6145Z" fill="white"/>
<path d="M196.828 65.0347H191.894V67.0501H196.828V65.0347Z" fill="white"/>
<path d="M203.136 65.0347H198.203V67.0501H203.136V65.0347Z" fill="white"/>
<path d="M196.828 68.4583H191.894V70.4737H196.828V68.4583Z" fill="white"/>
<path d="M203.136 68.4583H198.203V70.4737H203.136V68.4583Z" fill="white"/>
<path d="M196.828 71.8787H191.894V73.8941H196.828V71.8787Z" fill="white"/>
<path d="M203.136 71.8787H198.203V73.8941H203.136V71.8787Z" fill="white"/>
<path d="M196.828 75.3022H191.894V77.3177H196.828V75.3022Z" fill="white"/>
<path d="M203.136 75.3022H198.203V77.3177H203.136V75.3022Z" fill="white"/>
<path d="M196.828 78.7224H191.894V80.7378H196.828V78.7224Z" fill="white"/>
<path d="M203.136 78.7224H198.203V80.7378H203.136V78.7224Z" fill="white"/>
<path d="M196.828 82.146H191.894V84.1614H196.828V82.146Z" fill="white"/>
<path d="M203.136 82.146H198.203V84.1614H203.136V82.146Z" fill="white"/>
<path d="M196.828 85.5664H191.894V87.5818H196.828V85.5664Z" fill="white"/>
<path d="M203.136 85.5664H198.203V87.5818H203.136V85.5664Z" fill="white"/>
<path d="M196.828 88.9866H191.894V91.002H196.828V88.9866Z" fill="white"/>
<path d="M203.136 88.9866H198.203V91.002H203.136V88.9866Z" fill="white"/>
<path d="M196.828 92.4102H191.894V94.4256H196.828V92.4102Z" fill="white"/>
<path d="M203.136 92.4102H198.203V94.4256H203.136V92.4102Z" fill="white"/>
<path d="M196.828 95.8303H191.894V97.8457H196.828V95.8303Z" fill="white"/>
<path d="M203.136 95.8303H198.203V97.8457H203.136V95.8303Z" fill="white"/>
<path d="M196.828 99.2539H191.894V101.269H196.828V99.2539Z" fill="white"/>
<path d="M203.136 99.2539H198.203V101.269H203.136V99.2539Z" fill="white"/>
<path d="M196.828 102.674H191.894V104.69H196.828V102.674Z" fill="white"/>
<path d="M203.136 102.674H198.203V104.69H203.136V102.674Z" fill="white"/>
<path d="M218.495 55.7422H205.785V112.748H218.495V55.7422Z" fill="#C7C7C7"/>
<path d="M213.171 104.69H217.221V102.674H213.171V104.69Z" fill="#EBEBEB"/>
<path d="M207.988 104.69H212.038V102.674H207.988V104.69Z" fill="#EBEBEB"/>
<path d="M213.171 101.266H217.221V99.2507H213.171V101.266Z" fill="#EBEBEB"/>
<path d="M207.988 101.266H212.038V99.2507H207.988V101.266Z" fill="#EBEBEB"/>
<path d="M213.171 97.8459H217.221V95.8305H213.171V97.8459Z" fill="#EBEBEB"/>
<path d="M207.988 97.8459H212.038V95.8305H207.988V97.8459Z" fill="#EBEBEB"/>
<path d="M213.171 94.4255H217.221V92.4101H213.171V94.4255Z" fill="#EBEBEB"/>
<path d="M207.988 94.4255H212.038V92.4101H207.988V94.4255Z" fill="#EBEBEB"/>
<path d="M213.171 91.0054H217.221V88.99H213.171V91.0054Z" fill="#EBEBEB"/>
<path d="M207.988 91.0054H212.038V88.99H207.988V91.0054Z" fill="#EBEBEB"/>
<path d="M213.171 87.5818H217.221V85.5664H213.171V87.5818Z" fill="#EBEBEB"/>
<path d="M207.988 87.5818H212.038V85.5664H207.988V87.5818Z" fill="#EBEBEB"/>
<path d="M213.171 84.1582H217.221V82.1428H213.171V84.1582Z" fill="#EBEBEB"/>
<path d="M207.988 84.1582H212.038V82.1428H207.988V84.1582Z" fill="#EBEBEB"/>
<path d="M213.171 80.7378H217.221V78.7224H213.171V80.7378Z" fill="#EBEBEB"/>
<path d="M207.988 80.7378H212.038V78.7224H207.988V80.7378Z" fill="#EBEBEB"/>
<path d="M213.171 77.3142H217.221V75.2988H213.171V77.3142Z" fill="#EBEBEB"/>
<path d="M207.988 77.3142H212.038V75.2988H207.988V77.3142Z" fill="#EBEBEB"/>
<path d="M213.171 73.8972H217.221V71.8818H213.171V73.8972Z" fill="#EBEBEB"/>
<path d="M207.988 73.8972H212.038V71.8818H207.988V73.8972Z" fill="#EBEBEB"/>
<path d="M213.171 70.4736H217.221V68.4582H213.171V70.4736Z" fill="#EBEBEB"/>
<path d="M207.988 70.4736H212.038V68.4582H207.988V70.4736Z" fill="#EBEBEB"/>
<path d="M213.171 67.0535H217.221V65.0381H213.171V67.0535Z" fill="#EBEBEB"/>
<path d="M207.988 67.0535H212.038V65.0381H207.988V67.0535Z" fill="#EBEBEB"/>
<path d="M213.171 63.6299H217.221V61.6145H213.171V63.6299Z" fill="#EBEBEB"/>
<path d="M207.988 63.6299H212.038V61.6145H207.988V63.6299Z" fill="#EBEBEB"/>
<path d="M213.171 60.2063H217.221V58.1909H213.171V60.2063Z" fill="#EBEBEB"/>
<path d="M207.988 60.2063H212.038V58.1909H207.988V60.2063Z" fill="#EBEBEB"/>
<path d="M77.5539 67.4014H59.0181V112.748H77.5539V67.4014Z" fill="#C7C7C7"/>
<path d="M65.2118 71.3271H61.9326V74.1041H65.2118V71.3271Z" fill="#DBDBDB"/>
<path d="M65.2118 77.2617H61.9326V80.0386H65.2118V77.2617Z" fill="#DBDBDB"/>
<path d="M65.2118 83.1963H61.9326V85.9732H65.2118V83.1963Z" fill="#DBDBDB"/>
<path d="M65.2118 89.1277H61.9326V91.9046H65.2118V89.1277Z" fill="#DBDBDB"/>
<path d="M65.2118 95.0623H61.9326V97.8392H65.2118V95.0623Z" fill="#DBDBDB"/>
<path d="M65.2118 100.997H61.9326V103.774H65.2118V100.997Z" fill="#DBDBDB"/>
<path d="M65.2118 106.932H61.9326V109.709H65.2118V106.932Z" fill="#DBDBDB"/>
<path d="M69.929 71.3271H66.6499V74.1041H69.929V71.3271Z" fill="#DBDBDB"/>
<path d="M69.929 77.2617H66.6499V80.0386H69.929V77.2617Z" fill="#DBDBDB"/>
<path d="M69.929 83.1963H66.6499V85.9732H69.929V83.1963Z" fill="#DBDBDB"/>
<path d="M69.929 89.1277H66.6499V91.9046H69.929V89.1277Z" fill="#DBDBDB"/>
<path d="M69.929 95.0623H66.6499V97.8392H69.929V95.0623Z" fill="#DBDBDB"/>
<path d="M69.929 100.997H66.6499V103.774H69.929V100.997Z" fill="#DBDBDB"/>
<path d="M69.929 106.932H66.6499V109.709H69.929V106.932Z" fill="#DBDBDB"/>
<path d="M74.6361 71.3271H71.3569V74.1041H74.6361V71.3271Z" fill="#DBDBDB"/>
<path d="M74.6361 77.2617H71.3569V80.0386H74.6361V77.2617Z" fill="#DBDBDB"/>
<path d="M74.6361 83.1963H71.3569V85.9732H74.6361V83.1963Z" fill="#DBDBDB"/>
<path d="M74.6361 89.1277H71.3569V91.9046H74.6361V89.1277Z" fill="#DBDBDB"/>
<path d="M74.6361 95.0623H71.3569V97.8392H74.6361V95.0623Z" fill="#DBDBDB"/>
<path d="M74.6361 100.997H71.3569V103.774H74.6361V100.997Z" fill="#DBDBDB"/>
<path d="M74.6361 106.932H71.3569V109.709H74.6361V106.932Z" fill="#DBDBDB"/>
<path d="M77.5506 62.678H65.2119V67.4014H77.5506V62.678Z" fill="#DBDBDB"/>
<path d="M77.5505 59.7534H69.7285V62.6781H77.5505V59.7534Z" fill="#EBEBEB"/>
<path d="M90.5558 67.4014H77.5508V112.748H90.5558V67.4014Z" fill="#A6A6A6"/>
<path d="M86.5545 109.265H89.2231V106.488H86.5545V109.265Z" fill="#C7C7C7"/>
<path d="M86.5545 103.334H89.2231V100.557H86.5545V103.334Z" fill="#C7C7C7"/>
<path d="M86.5545 97.3994H89.2231V94.6225H86.5545V97.3994Z" fill="#C7C7C7"/>
<path d="M86.5545 91.4648H89.2231V88.6879H86.5545V91.4648Z" fill="#C7C7C7"/>
<path d="M86.5545 85.5303H89.2231V82.7533H86.5545V85.5303Z" fill="#C7C7C7"/>
<path d="M86.5545 79.5955H89.2231V76.8185H86.5545V79.5955Z" fill="#C7C7C7"/>
<path d="M86.5545 73.6643H89.2231V70.8874H86.5545V73.6643Z" fill="#C7C7C7"/>
<path d="M82.7142 109.265H85.3828V106.488H82.7142V109.265Z" fill="#C7C7C7"/>
<path d="M82.7142 103.334H85.3828V100.557H82.7142V103.334Z" fill="#C7C7C7"/>
<path d="M82.7142 97.3994H85.3828V94.6225H82.7142V97.3994Z" fill="#C7C7C7"/>
<path d="M82.7142 91.4648H85.3828V88.6879H82.7142V91.4648Z" fill="#C7C7C7"/>
<path d="M82.7142 85.5303H85.3828V82.7533H82.7142V85.5303Z" fill="#C7C7C7"/>
<path d="M82.7142 79.5955H85.3828V76.8185H82.7142V79.5955Z" fill="#C7C7C7"/>
<path d="M82.7142 73.6643H85.3828V70.8874H82.7142V73.6643Z" fill="#C7C7C7"/>
<path d="M78.8831 109.265H81.5518V106.488H78.8831V109.265Z" fill="#C7C7C7"/>
<path d="M78.8831 103.334H81.5518V100.557H78.8831V103.334Z" fill="#C7C7C7"/>
<path d="M78.8831 97.3994H81.5518V94.6225H78.8831V97.3994Z" fill="#C7C7C7"/>
<path d="M78.8831 91.4648H81.5518V88.6879H78.8831V91.4648Z" fill="#C7C7C7"/>
<path d="M78.8831 85.5303H81.5518V82.7533H78.8831V85.5303Z" fill="#C7C7C7"/>
<path d="M78.8831 79.5955H81.5518V76.8185H78.8831V79.5955Z" fill="#C7C7C7"/>
<path d="M78.8831 73.6643H81.5518V70.8874H78.8831V73.6643Z" fill="#C7C7C7"/>
<path d="M88.5863 62.678H77.5508V67.4014H88.5863V62.678Z" fill="#C7C7C7"/>
<path d="M83.5314 59.7534H77.5508V62.6781H83.5314V59.7534Z" fill="#DBDBDB"/>
<path d="M3.44678 126.222C72.4204 126.019 149.794 126.019 218.774 126.222C149.8 126.423 72.427 126.423 3.44678 126.222Z" fill="#263238"/>
<path d="M3.44678 112.748C72.4204 112.548 149.794 112.545 218.774 112.748C149.8 112.952 72.427 112.948 3.44678 112.748Z" fill="#263238"/>
<path d="M11.3245 97.9575C11.3245 97.9575 15.3258 106.843 8.79374 106.853C2.26171 106.863 6.49604 97.6621 6.49604 97.6621C6.49604 97.6621 4.98284 97.0056 6.72909 92.036C8.47535 87.0664 9.26313 87.073 9.99183 87.073C10.9109 87.073 11.7709 89.2197 11.1472 92.5153C11.1407 92.5153 13.4417 96.6248 11.3245 97.9575Z" fill="#37474F"/>
<path d="M8.22266 112.748L8.83975 99.3557L9.48311 112.748H8.22266Z" fill="#263238"/>
<path d="M8.58691 104.969L10.9601 102.195L9.09897 105.336L8.58691 104.969Z" fill="#263238"/>
<path d="M91.271 98.9125C91.271 98.9125 89.4099 98.1773 87.9328 100.751C86.4196 103.377 88.3234 105.126 89.83 104.089C89.83 104.089 91.015 106.57 93.3783 105.976C95.7417 105.382 96.1257 103.492 96.1257 103.492C96.1257 103.492 98.2265 103.636 98.2823 102.07C98.3381 100.504 96.8019 99.116 96.8019 99.116C96.8019 99.116 96.71 95.2132 94.176 95.2461C91.6419 95.2789 91.271 98.9125 91.271 98.9125Z" fill="#455A64"/>
<path d="M93.0176 112.741L93.5362 101.128L94.0811 112.741H93.0176Z" fill="#263238"/>
<path d="M93.385 105.494L91.7471 102.238L93.6509 104.985L93.385 105.494Z" fill="#263238"/>
<path d="M59.9697 98.9125C59.9697 98.9125 58.1053 98.1773 56.6282 100.751C55.1183 103.377 57.0188 105.126 58.5254 104.089C58.5254 104.089 59.7104 106.57 62.077 105.976C64.4436 105.382 64.8244 103.492 64.8244 103.492C64.8244 103.492 66.9219 103.636 66.9809 102.07C67.04 100.504 65.4973 99.116 65.4973 99.116C65.4973 99.116 65.4054 95.2132 62.8713 95.2461C60.3373 95.2789 59.9697 98.9125 59.9697 98.9125Z" fill="#455A64"/>
<path d="M61.7129 112.741L62.2348 101.128L62.7797 112.741H61.7129Z" fill="#263238"/>
<path d="M62.0805 105.494L60.4458 102.238L62.3463 104.985L62.0805 105.494Z" fill="#263238"/>
<path d="M215.862 97.8983C215.862 97.8983 219.863 106.784 213.331 106.79C206.799 106.797 211.034 97.5996 211.034 97.5996C211.034 97.5996 209.52 96.9431 211.27 91.9736C213.02 87.004 213.791 87.0171 214.506 87.0171C215.429 87.0171 216.286 89.1605 215.662 92.4593C215.675 92.4561 217.979 96.5657 215.862 97.8983Z" fill="#37474F"/>
<path d="M212.76 112.689L213.374 99.2935L214.017 112.686L212.76 112.689Z" fill="#263238"/>
<path d="M213.125 104.91L215.494 102.136L213.637 105.277L213.125 104.91Z" fill="#263238"/>
<path d="M190.784 97.8983C190.784 97.8983 194.786 106.784 188.254 106.79C181.722 106.797 185.956 97.5996 185.956 97.5996C185.956 97.5996 184.443 96.9431 186.192 91.9736C187.942 87.004 188.717 87.0171 189.442 87.0171C190.364 87.0171 191.224 89.1605 190.597 92.4593C190.597 92.4561 192.902 96.5657 190.784 97.8983Z" fill="#37474F"/>
<path d="M187.683 112.689L188.296 99.2935L188.943 112.686L187.683 112.689Z" fill="#263238"/>
<path d="M188.047 104.91L190.417 102.136L188.559 105.277L188.047 104.91Z" fill="#263238"/>
<path d="M82.287 99.7858C82.287 99.7858 78.8011 107.578 84.5224 107.572C90.2436 107.565 86.5279 99.5166 86.5279 99.5166C86.5279 99.5166 87.8409 98.9323 86.308 94.593C84.7751 90.2536 84.0825 90.2503 83.4424 90.2536C82.6382 90.2536 81.8898 92.1344 82.4577 95.0197C82.4413 95.0164 80.4325 98.6238 82.287 99.7858Z" fill="#37474F"/>
<path d="M85.0345 112.735L84.47 101.004L83.9316 112.735H85.0345Z" fill="#263238"/>
<path d="M84.6997 105.924L82.6187 103.495L84.2533 106.246L84.6997 105.924Z" fill="#263238"/>
<path d="M133.884 99.7858C133.884 99.7858 130.398 107.578 136.119 107.572C141.84 107.565 138.121 99.5166 138.121 99.5166C138.121 99.5166 139.434 98.9323 137.905 94.593C136.375 90.2536 135.679 90.2503 135.039 90.2536C134.235 90.2536 133.487 92.1344 134.054 95.0197C134.038 95.0164 132.029 98.6238 133.884 99.7858Z" fill="#37474F"/>
<path d="M136.631 112.735L136.067 101.004L135.528 112.735H136.631Z" fill="#263238"/>
<path d="M136.296 105.924L134.215 103.495L135.85 106.246L136.296 105.924Z" fill="#263238"/>
<path d="M194.369 98.8667C194.369 98.8667 192.505 98.1282 191.028 100.702C189.514 103.344 191.418 105.077 192.925 104.043C192.925 104.043 194.11 106.525 196.476 105.931C198.843 105.336 199.22 103.442 199.22 103.442C199.22 103.442 201.321 103.59 201.377 102.021C201.433 100.452 199.897 99.067 199.897 99.067C199.897 99.067 199.805 95.1642 197.271 95.197C194.737 95.2298 194.369 98.8667 194.369 98.8667Z" fill="#455A64"/>
<path d="M196.112 112.696L196.63 101.082L197.175 112.692L196.112 112.696Z" fill="#263238"/>
<path d="M196.473 105.432L194.842 102.188L196.795 104.933L196.473 105.432Z" fill="#263238"/>
<path d="M143.193 47.2635C142.938 47.1361 142.675 47.0264 142.405 46.9353C142.129 46.831 141.841 46.7647 141.548 46.7384C141.458 46.7316 141.368 46.7417 141.282 46.7679C141.254 46.7784 141.227 46.7904 141.2 46.804L141.148 46.8434C141.115 46.8664 141.089 46.8926 141.056 46.9189C140.94 47.0219 140.83 47.1315 140.727 47.2471C140.537 47.4638 140.363 47.6903 140.192 47.9233L140.406 47.8478C140.118 47.7655 139.826 47.7041 139.529 47.664C139.378 47.6429 139.226 47.632 139.073 47.6312C138.992 47.6303 138.911 47.6358 138.83 47.6476C138.785 47.6543 138.742 47.6653 138.699 47.6804C138.653 47.6971 138.609 47.718 138.568 47.7428C138.437 47.8342 138.321 47.9449 138.223 48.071C138.128 48.1892 138.046 48.3106 137.964 48.4354C137.809 48.6852 137.673 48.9464 137.557 49.2166C137.747 48.9901 137.928 48.7636 138.121 48.5601C138.216 48.4518 138.312 48.3467 138.413 48.2516C138.505 48.1587 138.609 48.0781 138.722 48.0119C138.828 47.9776 138.94 47.9664 139.05 47.9791C139.188 47.9882 139.325 48.0069 139.46 48.0349C139.736 48.0842 140.015 48.1531 140.284 48.2253L140.419 48.2614L140.498 48.1498C140.655 47.9266 140.826 47.7034 140.997 47.4933C141.078 47.3876 141.166 47.2867 141.259 47.1913L141.328 47.1257L141.358 47.0994C141.406 47.0801 141.457 47.07 141.509 47.0699C141.78 47.0694 142.05 47.0958 142.316 47.1487C142.621 47.1552 142.914 47.2143 143.193 47.2635Z" fill="#263238"/>
<path d="M140.1 55.6141C139.766 55.3503 139.414 55.1091 139.047 54.8919C138.672 54.6584 138.268 54.4762 137.845 54.3503C137.715 54.3148 137.579 54.3037 137.445 54.3175C137.4 54.3211 137.355 54.3322 137.314 54.3503L137.225 54.3897C137.166 54.416 137.12 54.4455 137.067 54.4718C136.878 54.5866 136.695 54.7115 136.519 54.846C136.171 55.1086 135.863 55.3909 135.535 55.6797L135.863 55.6338C135.465 55.4295 135.054 55.2529 134.632 55.1053C134.417 55.0322 134.198 54.972 133.975 54.9248C133.856 54.9017 133.736 54.8874 133.614 54.8821C133.548 54.8773 133.481 54.8773 133.414 54.8821C133.345 54.8821 133.27 54.9182 133.204 54.9346C132.984 55.0313 132.78 55.162 132.6 55.3219C132.428 55.4668 132.265 55.6214 132.111 55.7848C131.809 56.1047 131.534 56.4483 131.287 56.8122C131.615 56.5364 131.96 56.2574 132.308 56.0014C132.474 55.8698 132.647 55.747 132.827 55.6338C132.988 55.5237 133.164 55.4354 133.348 55.3712C133.522 55.3506 133.698 55.3685 133.864 55.4237C134.063 55.4771 134.258 55.544 134.448 55.6239C134.835 55.7782 135.229 55.9522 135.603 56.1458L135.791 56.2377L135.938 56.0966C136.234 55.811 136.549 55.5353 136.864 55.2694C137.016 55.1371 137.175 55.0133 137.34 54.8985C137.379 54.8755 137.419 54.846 137.458 54.8263L137.511 54.7968C137.511 54.7968 137.511 54.7968 137.53 54.7968C137.606 54.7832 137.684 54.7832 137.76 54.7968C138.159 54.8747 138.55 54.9924 138.925 55.148C139.316 55.2924 139.707 55.4565 140.1 55.6141Z" fill="#263238"/>
<path d="M75.5911 21.9922C75.3625 21.8223 75.1223 21.6688 74.8722 21.5326C74.6168 21.3873 74.343 21.2769 74.0582 21.2044C73.9691 21.1887 73.878 21.1887 73.789 21.2044C73.76 21.2111 73.7314 21.2198 73.7037 21.2307L73.6446 21.2602C73.6096 21.2779 73.5756 21.2977 73.5428 21.3193C73.4187 21.3988 73.2993 21.4854 73.185 21.5786C72.9586 21.7624 72.7518 21.9561 72.545 22.1563L72.7649 22.1169C72.4948 21.9911 72.2175 21.8815 71.9344 21.7887C71.79 21.7493 71.6423 21.7099 71.488 21.6836C71.4079 21.6692 71.3266 21.6615 71.2451 21.6607C71.2003 21.6576 71.1554 21.6576 71.1106 21.6607C71.0637 21.6703 71.0176 21.6835 70.9727 21.7001C70.8271 21.7699 70.6931 21.8618 70.5755 21.9725C70.4656 22.076 70.3615 22.1856 70.2637 22.3007C70.0689 22.5211 69.8911 22.7559 69.7319 23.0032C69.9551 22.8128 70.1718 22.6191 70.3884 22.4386C70.5 22.35 70.6149 22.2613 70.7167 22.1859C70.8176 22.1097 70.9279 22.0468 71.0449 21.9988C71.1601 21.9815 71.2777 21.9893 71.3896 22.0217C71.5231 22.0547 71.6546 22.0952 71.7835 22.1432C72.046 22.2384 72.3119 22.35 72.5647 22.4714L72.6927 22.5272L72.7879 22.432C72.9783 22.2351 73.185 22.0414 73.3886 21.8576C73.4866 21.7667 73.5896 21.6812 73.6971 21.6016C73.7234 21.6016 73.7496 21.5622 73.7759 21.5491L73.8087 21.5294C73.8087 21.5294 73.8087 21.5294 73.8251 21.5294C73.8751 21.5204 73.9262 21.5204 73.9761 21.5294C74.2436 21.5748 74.5062 21.6452 74.7606 21.7394C75.0593 21.7952 75.3318 21.897 75.5911 21.9922Z" fill="#263238"/>
<path d="M85.0183 20.8467C84.7767 20.4942 84.5113 20.1586 84.2239 19.8423C83.9364 19.5083 83.6052 19.2146 83.2392 18.9692C83.1258 18.8967 83.0001 18.8455 82.8683 18.8182C82.8237 18.8114 82.7783 18.8114 82.7337 18.8182C82.7009 18.8162 82.668 18.8162 82.6352 18.8182L82.4613 18.8543C82.2454 18.9049 82.0327 18.9684 81.8245 19.0446C81.4175 19.1924 81.0301 19.3729 80.6362 19.5501L80.9645 19.6027C80.6442 19.2911 80.3031 19.0016 79.9436 18.7361C79.7598 18.6003 79.5668 18.4775 79.3659 18.3685C79.26 18.31 79.1503 18.2585 79.0377 18.2142C78.9732 18.1935 78.9074 18.1771 78.8408 18.165C78.7686 18.1599 78.6962 18.1599 78.6241 18.165C78.3858 18.1921 78.1532 18.2563 77.9348 18.3553C77.7247 18.444 77.5278 18.5457 77.3308 18.6508C76.9479 18.8683 76.5825 19.1152 76.2378 19.3893C76.6448 19.2252 77.0485 19.0611 77.4523 18.9166C77.6507 18.8402 77.8535 18.7755 78.0595 18.723C78.2465 18.6633 78.4411 18.6313 78.6372 18.6278C78.8082 18.6571 78.9699 18.7257 79.1099 18.828C79.284 18.9384 79.4507 19.0601 79.6088 19.1924C79.9371 19.455 80.2653 19.7438 80.5575 20.0327L80.7085 20.1771L80.8923 20.0852C81.2599 19.9014 81.6439 19.7307 82.0214 19.5698C82.2054 19.4889 82.3939 19.4187 82.586 19.3598C82.6301 19.3451 82.6751 19.333 82.7206 19.3237H82.7797H82.8026C82.8792 19.3345 82.9535 19.3578 83.0226 19.3926C83.379 19.5807 83.7165 19.8027 84.0303 20.0556C84.3618 20.3051 84.6835 20.5775 85.0183 20.8467Z" fill="#263238"/>
<path d="M152.488 53.566C152.247 53.2135 151.982 52.8779 151.694 52.5616C151.408 52.2268 151.076 51.933 150.709 51.6885C150.597 51.6141 150.471 51.5628 150.339 51.5375C150.294 51.5323 150.249 51.5323 150.204 51.5375H150.109C150.043 51.5375 149.991 51.5605 149.931 51.5703C149.717 51.6231 149.505 51.6877 149.298 51.764C148.888 51.9117 148.5 52.0922 148.106 52.2695L148.435 52.322C148.115 52.0095 147.774 51.7199 147.414 51.4554C147.229 51.3197 147.036 51.1958 146.836 51.0845C146.731 51.0259 146.621 50.9754 146.508 50.9335C146.445 50.9117 146.38 50.8953 146.314 50.8843C146.242 50.8794 146.17 50.8794 146.098 50.8843C145.858 50.9107 145.624 50.975 145.405 51.0747C145.199 51.1605 144.998 51.2592 144.804 51.3701C144.42 51.5865 144.054 51.8323 143.708 52.1054C144.118 51.9445 144.519 51.7771 144.926 51.6327C145.126 51.5605 145.33 51.4915 145.53 51.439C145.717 51.3826 145.912 51.3506 146.107 51.3438C146.279 51.3761 146.441 51.4443 146.583 51.5441C146.756 51.6564 146.921 51.7792 147.079 51.9117C147.407 52.171 147.736 52.4631 148.028 52.752L148.179 52.8964L148.362 52.8045C148.73 52.6207 149.114 52.45 149.492 52.2892C149.676 52.2077 149.864 52.1365 150.056 52.0758L150.191 52.043H150.25C150.25 52.043 150.25 52.043 150.273 52.043C150.35 52.0522 150.424 52.0756 150.493 52.1119C150.851 52.3055 151.188 52.5342 151.5 52.7947C151.832 53.0244 152.157 53.2969 152.488 53.566Z" fill="#263238"/>
<path d="M25.8427 72.7616C21.8719 72.9849 17.8917 72.9849 13.9209 72.7616C17.8917 72.5384 21.8719 72.5384 25.8427 72.7616Z" fill="#263238"/>
<path d="M16.6418 76.684C12.5473 76.9072 8.44364 76.9072 4.34912 76.684C8.44355 76.4575 12.5474 76.4575 16.6418 76.684Z" fill="#263238"/>
<path d="M14.3705 74.2485C9.59453 74.4717 4.77921 74.4717 0 74.2485C4.77921 74.022 9.59453 74.022 14.3705 74.2485Z" fill="#263238"/>
<path d="M106.186 51.7736C102.216 51.9968 98.2354 51.9968 94.2646 51.7736C98.2354 51.5504 102.216 51.5504 106.186 51.7736Z" fill="#263238"/>
<path d="M88.7667 67.7526C84.6711 67.9758 80.5663 67.9758 76.4707 67.7526C80.5663 67.5294 84.6711 67.5294 88.7667 67.7526Z" fill="#263238"/>
<path d="M95.3249 64.8805C90.5457 65.1037 85.7304 65.1037 80.9512 64.8805C85.7304 64.6573 90.5457 64.6573 95.3249 64.8805Z" fill="#263238"/>
<g opacity="0.8">
<path d="M3.52539 126.222L5.88874 125.796C5.88874 125.796 3.3744 123.216 4.90401 121.63C6.43362 120.045 8.77727 121.447 8.77727 121.447C8.77727 121.447 8.42933 117.675 11.3441 116.887C14.2589 116.099 16.8291 121.739 16.8291 121.739C16.8291 121.739 17.2558 120.426 19.4353 120.934C21.6148 121.443 23.3348 124.42 23.3348 124.42L50.3328 126.226" fill="white"/>
<path d="M3.52539 126.223L5.88545 125.779C5.35047 125.265 4.92409 124.649 4.63157 123.967C3.85035 122.369 4.95981 120.879 6.66339 120.826C7.41879 120.828 8.1608 121.026 8.81666 121.401L8.73132 121.453C8.69285 120.884 8.73038 120.312 8.84292 119.753C9.26307 117.235 11.8529 115.719 13.9405 117.586C15.2535 118.686 16.1496 120.183 16.8947 121.706H16.7569C16.9017 121.365 17.1703 121.092 17.5085 120.941C19.2351 120.242 21.0371 121.427 22.1367 122.704C22.6026 123.206 23.0059 123.762 23.3381 124.361L50.3328 126.216L23.3315 124.463C23.2987 124.463 23.3053 124.463 23.2889 124.437C22.9275 123.853 22.5132 123.304 22.0514 122.796C21.1487 121.788 19.9605 120.885 18.5491 120.892C17.8926 120.866 17.1507 121.135 16.9078 121.768L16.8422 121.923L16.77 121.775C16.0314 120.281 15.1288 118.821 13.8519 117.714C12.4733 116.454 10.6154 116.707 9.58475 118.249C9.01558 119.216 8.76094 120.336 8.85605 121.453V121.555L8.76742 121.506C8.13026 121.138 7.40886 120.941 6.67324 120.935C5.60645 120.935 4.4379 121.742 4.46416 122.888C4.49042 124.033 5.20271 124.998 5.92156 125.815H5.89858L3.53195 126.229L3.52539 126.223Z" fill="#263238"/>
</g>
<g opacity="0.8">
<path d="M9.98193 126.222L12.342 125.796C12.342 125.796 9.82766 123.216 11.3573 121.63C12.8869 120.045 15.2305 121.446 15.2305 121.446C15.2305 121.446 14.8695 117.675 17.7875 116.884C20.7056 116.093 23.2692 121.735 23.2692 121.735C23.2692 121.735 23.6992 120.422 25.8754 120.931C28.0517 121.44 29.775 124.417 29.775 124.417L56.7729 126.222" fill="white"/>
<path d="M9.98193 126.223L12.3387 125.779C11.8058 125.264 11.3797 124.648 11.0848 123.967C10.3036 122.369 11.4131 120.879 13.1166 120.826C13.8699 120.828 14.6097 121.026 15.2634 121.401L15.1813 121.453C15.1428 120.884 15.1804 120.312 15.2929 119.753C15.7098 117.235 18.2996 115.719 20.3872 117.586C21.7002 118.686 22.5996 120.183 23.3414 121.706H23.2068C23.3516 121.365 23.6202 121.092 23.9585 120.941C25.6851 120.242 27.4838 121.427 28.5834 122.704C29.0493 123.206 29.4526 123.762 29.7848 124.361L56.7795 126.216L29.7782 124.463C29.7454 124.463 29.752 124.463 29.7389 124.437C29.3753 123.855 28.9612 123.305 28.5014 122.796C27.5987 121.788 26.4072 120.885 24.999 120.892C24.3425 120.866 23.6007 121.135 23.3578 121.768L23.2955 121.923L23.2232 121.775C22.4814 120.281 21.582 118.821 20.3019 117.714C18.9233 116.454 17.0654 116.707 16.0347 118.249C15.4646 119.216 15.2088 120.335 15.3027 121.453V121.555L15.2141 121.506C14.5776 121.136 13.8558 120.94 13.1199 120.935C12.0531 120.935 10.8846 121.742 10.9109 122.888C10.9371 124.033 11.6494 124.998 12.3715 125.815H12.3453L9.98193 126.229V126.223Z" fill="#263238"/>
</g>
<path d="M107.732 64.1025C105.576 66.0096 103.304 68.6355 100.426 69.3905C98.1674 69.9747 95.7942 69.3084 93.7788 68.2646C89.3442 65.9669 85.1394 61.145 86.6723 55.8144C87.2861 53.6841 90.0926 51.1533 92.4953 51.9411C93.7263 52.3481 94.665 53.2541 95.6924 54.0057C96.3119 54.4928 97.033 54.8342 97.8024 55.0047C98.5717 55.1751 99.3696 55.1703 100.137 54.9905C103.347 54.2946 104.847 52.7157 107.503 50.9432C107.754 50.7505 108.043 50.6119 108.351 50.5362C108.659 50.4605 108.979 50.4493 109.292 50.5034C110.655 50.7883 111.878 51.5377 112.751 52.6238C113.519 53.8154 113.352 55.6831 113.408 57.0387C113.463 58.3943 113.106 59.3364 112.078 60.2785C110.644 61.575 109.18 62.8289 107.732 64.1025Z" fill="#263238"/>
<path d="M106.899 65.2252C108.763 63.3608 110.588 61.4602 112.43 59.5728C112.43 59.5728 112.43 59.54 112.43 59.5531C110.871 61.0631 109.292 62.55 107.752 64.0796C106.213 65.6092 104.798 67.2275 103.157 68.5897C99.4873 71.6522 94.8951 69.0361 92.5351 65.7208C92.4268 65.5698 92.2068 65.7569 92.3119 65.9046C94.4783 68.7505 98.0988 71.3141 101.801 69.7254C103.813 68.8588 105.373 66.7515 106.899 65.2252Z" fill="#263238"/>
<path d="M107.844 50.9598C107.884 50.9269 107.844 50.8711 107.792 50.9007C105.668 52.45 103.337 54.4588 100.616 54.7247C99.2762 54.8531 97.9285 54.574 96.7496 53.9238C95.8174 53.4052 95.1347 52.6108 94.3305 51.9314C91.1892 49.2824 86.9155 52.6601 87.0927 56.274C87.0927 56.3495 87.2273 56.3462 87.2273 56.274C87.2273 53.6481 89.1246 51.2355 91.8884 51.1764C94.1073 51.1272 95.2922 53.4971 97.1862 54.3407C101.112 56.0804 104.916 53.4117 107.844 50.9598Z" fill="#263238"/>
<path d="M93.7133 77.2586C93.7133 77.2586 93.4737 74.9904 93.4868 74.521C93.5 74.0516 95.8961 72.4334 95.8961 72.4334C95.8961 72.4334 96.4607 68.1006 96.9137 67.1224C97.0384 66.85 101.125 66.466 101.657 66.9517C102.189 67.4375 104.805 77.4358 104.805 77.4358L93.7133 77.2586Z" fill="#FFC727"/>
<path opacity="0.5" d="M93.7133 77.2586C93.7133 77.2586 93.4737 74.9904 93.4868 74.521C93.5 74.0516 95.8961 72.4334 95.8961 72.4334C95.8961 72.4334 96.4607 68.1006 96.9137 67.1224C97.0384 66.85 101.125 66.466 101.657 66.9517C102.189 67.4375 104.805 77.4358 104.805 77.4358L93.7133 77.2586Z" fill="white"/>
<path d="M108.855 65.7141C111.153 70.3095 114.875 75.5844 116.077 76.2934C117.616 77.1895 125.35 77.1173 125.773 77.0615C126.82 76.917 126.738 69.8106 125.612 69.9156C123.902 70.0765 119.215 70.7395 118.765 70.4572C118.315 70.1749 114.984 67.572 111.498 64.585C109.105 62.5203 107.431 62.865 108.855 65.7141Z" fill="#FFBE9D"/>
<path d="M128.779 69.1804C130.019 68.9166 131.311 69.0797 132.446 69.6432C133.506 70.1684 133.726 71.9967 133.536 72.4005C133.345 72.8042 131.75 75.1314 130.683 74.6292C129.617 74.127 131.172 72.4924 131.238 72.2527C131.304 72.0131 131.396 71.7079 131.186 71.6357C130.975 71.5634 126.656 71.5667 126.656 71.5667L128.779 69.1804Z" fill="#FFBE9D"/>
<path d="M128.97 69.1443C129.029 69.1705 132.423 69.3938 133.483 69.9189C134.543 70.4441 134.76 72.2724 134.57 72.6762C134.379 73.0799 132.787 75.4072 131.72 74.905C130.654 74.4027 132.209 72.7681 132.275 72.5285C132.341 72.2889 132.433 71.9869 132.219 71.9114C132.006 71.8359 127.693 71.8424 127.693 71.8424L128.97 69.1443Z" fill="#FFBE9D"/>
<path d="M131.422 74.5965C131.398 74.3518 131.438 74.1049 131.54 73.881C131.627 73.6453 131.749 73.424 131.901 73.2245C132.051 73.0612 132.188 72.8855 132.308 72.6993C132.401 72.5017 132.442 72.2836 132.426 72.0658C132.426 71.8754 132.236 71.8524 132.078 71.836C131.843 71.8229 131.608 71.8229 131.373 71.836L130.618 71.8623C130.357 71.8611 130.096 71.8765 129.837 71.9082C129.833 71.9098 129.83 71.9123 129.828 71.9155C129.826 71.9187 129.825 71.9224 129.825 71.9263C129.825 71.9301 129.826 71.9339 129.828 71.9371C129.83 71.9403 129.833 71.9428 129.837 71.9443C130.055 71.9559 130.274 71.9559 130.493 71.9443C130.739 71.9443 130.989 71.9443 131.235 71.9443C131.481 71.9443 131.698 71.9443 131.931 71.9443C132.043 71.9324 132.156 71.9493 132.259 71.9936C132.331 72.0494 132.259 72.2693 132.259 72.3415C132.214 72.5549 132.106 72.7502 131.95 72.9028C131.804 73.0664 131.674 73.2446 131.563 73.4346C131.456 73.6122 131.383 73.808 131.346 74.0123C131.334 74.2067 131.346 74.4019 131.383 74.5932C131.383 74.6294 131.425 74.6228 131.422 74.5965Z" fill="#263238"/>
<path d="M129.462 69.059C129.528 69.059 132.899 68.6224 134.041 68.9277C135.183 69.233 135.761 70.9792 135.653 71.4125C135.544 71.8458 134.445 74.4455 133.299 74.1599C132.154 73.8743 133.358 71.9705 133.372 71.7243C133.385 71.4782 133.421 71.1598 133.198 71.1269C132.974 71.0941 128.747 71.9574 128.747 71.9574L129.462 69.059Z" fill="#FFBE9D"/>
<path d="M132.945 73.9204C132.875 73.6846 132.867 73.4347 132.922 73.195C132.958 72.9441 133.033 72.7004 133.145 72.4728C133.259 72.2815 133.357 72.0818 133.441 71.8754C133.495 71.66 133.495 71.4344 133.441 71.219C133.391 71.0351 133.207 71.0483 133.05 71.0647C132.817 71.0927 132.585 71.1355 132.357 71.1927C132.111 71.2452 131.868 71.3076 131.622 71.3634C131.366 71.4157 131.114 71.4837 130.867 71.5669C130.847 71.5669 130.851 71.603 130.867 71.5997C131.088 71.5724 131.307 71.533 131.524 71.4816L132.256 71.3437C132.482 71.3043 132.709 71.2518 132.938 71.2157C133.046 71.189 133.159 71.189 133.267 71.2157C133.349 71.2551 133.339 71.4815 133.339 71.5439C133.337 71.7617 133.27 71.974 133.148 72.1544C133.035 72.3432 132.943 72.5434 132.873 72.7518C132.804 72.948 132.771 73.1547 132.774 73.3624C132.802 73.5549 132.852 73.7433 132.925 73.9237C132.912 73.9598 132.955 73.9434 132.945 73.9204Z" fill="#263238"/>
<path d="M129.296 80.1946L130.88 80.9983L136.546 69.8347L134.962 69.031L129.296 80.1946Z" fill="#263238"/>
<path d="M136.821 75.0842L133.664 73.9136L132.968 75.791L136.125 76.9616L136.821 75.0842Z" fill="#263238"/>
<path d="M137.881 75.0506L135.829 74.2896L134.852 76.9241L136.905 77.6851L137.881 75.0506Z" fill="#263238"/>
<path d="M124.256 70.3457C124.256 70.3457 128.077 69.2756 128.97 69.1443C130.152 68.967 132.006 69.548 132.069 70.4901C132.069 70.7625 130.893 71.9048 130.808 72.1313C130.565 72.7385 130.608 74.1008 131.616 74.5504C132.623 75.0001 133.953 73.848 134.941 74.1172C135.929 74.3863 134.537 75.7781 133.434 76.4411C132.316 77.0553 131.047 77.3399 129.774 77.2617C128.763 77.1797 125.559 77.0681 125.559 77.0681L124.256 70.3457Z" fill="#FFBE9D"/>
<path d="M133.178 74.4191C132.666 74.5307 132.065 74.7047 131.563 74.4913C131.061 74.278 130.87 73.7823 130.831 73.2571C130.764 72.726 130.903 72.1895 131.218 71.7571C131.537 71.3831 131.956 71.1085 132.426 70.966C133.001 70.7947 133.598 70.7074 134.199 70.7067C134.225 70.7067 134.218 70.664 134.199 70.664C133.644 70.664 131.947 70.5623 131.067 71.6849C130.749 72.1283 130.611 72.6765 130.683 73.2177C130.671 73.4724 130.723 73.7261 130.834 73.9555C130.945 74.1849 131.112 74.3827 131.32 74.5307C131.885 74.859 132.617 74.6161 133.207 74.4585C133.227 74.4388 133.204 74.4125 133.178 74.4191Z" fill="#263238"/>
<path d="M125.553 69.3938L124.958 78.0594C124.958 78.0594 117.603 77.7574 116.017 76.7037C114.432 75.6501 110.417 69.2133 108.914 65.9834C107.411 62.7534 109.147 62.4252 111.241 64.1813C113.335 65.9374 118.515 70.1783 118.765 70.2374C119.014 70.2965 125.553 69.3938 125.553 69.3938Z" fill="#0D6C61"/>
<path d="M123.419 74.6425C123.498 73.6184 123.583 72.5942 123.623 71.5668C123.646 70.9826 123.672 70.4016 123.692 69.8173C123.692 69.7943 123.652 69.7911 123.652 69.8173C123.531 70.8414 123.416 71.8688 123.34 72.8995C123.265 73.9302 123.189 74.9477 123.13 75.9719C123.098 76.5561 123.081 77.1371 123.084 77.7214H123.104C123.255 76.7006 123.34 75.6732 123.419 74.6425Z" fill="#263238"/>
<path d="M125.004 77.1961L124.945 78.0594C124.945 78.0594 117.586 77.7574 116.004 76.707C114.422 75.6566 110.404 69.2132 108.901 65.9833C107.801 63.6233 108.435 62.8092 109.672 63.2327C113.519 66.6661 120.787 73.1981 125.004 77.1961Z" fill="#115B52"/>
<path d="M98.3975 79.7728L115.607 80.0551L114.258 74.9017C114.258 74.9017 115.686 73.5887 114.977 70.9989C114.567 69.4824 112.66 66.6201 111.462 65.1791C108.537 61.6636 105.996 63.2523 105.186 64.155C102.09 67.6081 98.3975 79.7728 98.3975 79.7728Z" fill="#0D6C61"/>
<path d="M105.921 63.5444L109.758 63.6331L109.912 63.7348L105.779 63.6396C105.825 63.6068 105.858 63.574 105.921 63.5444ZM104.581 64.9263L111.376 65.0806L111.291 64.9789L104.653 64.8279L104.581 64.9263ZM103.771 66.2163L112.413 66.4166L112.341 66.3181L103.83 66.1244C103.808 66.1538 103.788 66.1845 103.771 66.2163ZM103.084 67.5293L113.319 67.7656C113.296 67.7328 113.276 67.6967 113.253 67.6606L103.13 67.4308C103.114 67.4505 103.098 67.4833 103.084 67.5162V67.5293ZM102.461 68.8423L114.12 69.1081L114.064 69.013L102.507 68.7471L102.461 68.8423ZM101.89 70.1552L114.773 70.4507C114.773 70.4178 114.747 70.385 114.734 70.3489L101.932 70.0568L101.89 70.1552ZM101.351 71.4518L115.138 71.78C115.138 71.7505 115.138 71.7177 115.138 71.6849L101.41 71.3566C101.374 71.35 101.361 71.3829 101.351 71.4124V71.4518ZM100.836 72.7648L115.124 73.093C115.124 73.0602 115.124 73.0274 115.124 72.9945L100.862 72.6663L100.836 72.7648ZM100.347 74.0777L114.678 74.406L114.731 74.3108L100.383 73.9825L100.347 74.0777ZM99.8776 75.3907L114.452 75.7189L114.425 75.6205L99.9137 75.2922C99.8973 75.2528 99.8907 75.2857 99.8776 75.3185V75.3907ZM99.4213 76.7037L114.796 77.0582L114.77 76.9597L99.4574 76.5133C99.4478 76.5491 99.4357 76.5842 99.4213 76.6183V76.7037ZM98.988 78.0166L115.144 78.3876L115.118 78.2858L99.034 77.9182L98.988 78.0166ZM98.5679 79.3296L115.489 79.7169L115.463 79.6152L98.5974 79.1392C98.5843 79.1622 98.5777 79.1983 98.5679 79.2279V79.3296Z" fill="white"/>
<path d="M109.653 74.5997C110.388 74.5336 111.128 74.5215 111.865 74.5636C112.233 74.5899 112.594 74.6325 112.958 74.6818C113.139 74.708 113.323 74.7277 113.503 74.7441C113.693 74.7687 113.885 74.7687 114.074 74.7441C114.094 74.7441 114.097 74.7671 114.074 74.7704C113.898 74.8129 113.719 74.8426 113.539 74.859C113.364 74.8705 113.189 74.8705 113.014 74.859C112.64 74.836 112.269 74.7966 111.898 74.7671C111.15 74.7146 110.401 74.6621 109.649 74.6621C109.643 74.6596 109.637 74.6551 109.634 74.6493C109.63 74.6435 109.628 74.6366 109.628 74.6297C109.629 74.6228 109.631 74.6161 109.636 74.6107C109.64 74.6054 109.646 74.6015 109.653 74.5997Z" fill="#263238"/>
<path d="M107.979 75.5646C108.565 75.395 109.16 75.258 109.761 75.1543C110.06 75.1018 110.362 75.069 110.667 75.0427L111.1 75.0132C111.261 75.0132 111.428 75.0132 111.583 75.0132C111.599 75.0132 111.606 75.0362 111.583 75.0362C111.435 75.0526 111.284 75.092 111.136 75.1149L110.687 75.1839L109.784 75.3283C109.183 75.4169 108.583 75.5088 107.985 75.6171C107.956 75.6204 107.949 75.5745 107.979 75.5646Z" fill="#263238"/>
<path d="M107.214 63.7118C107.302 64.0204 108.888 65.9668 110.309 65.829C110.772 65.783 110.637 63.249 110.637 63.249L110.67 63.0619L111.11 60.4294L107.933 58.6044L107.473 58.3647C107.473 58.3647 107.398 59.1 107.309 60.006V60.1373C107.309 60.1898 107.309 60.239 107.293 60.285C107.276 60.4228 107.263 60.5607 107.25 60.7018C107.237 60.843 107.234 60.9086 107.227 61.0301C107.22 61.1515 107.227 61.25 107.204 61.3583C107.154 62.1421 107.157 62.9284 107.214 63.7118Z" fill="#FFBE9D"/>
<path d="M107.322 60.0027C107.624 60.726 108.08 61.3751 108.657 61.905C109.235 62.435 109.92 62.8331 110.667 63.0717L111.11 60.4294L107.933 58.6044L107.473 58.3647C107.473 58.3647 107.411 59.0902 107.322 60.0027Z" fill="#263238"/>
<path d="M114.504 55.6569C115.758 60.2096 113.191 61.4734 112.206 61.7425C111.317 61.9887 108.251 62.7076 106.534 58.3091C104.818 53.9107 106.515 51.8952 108.53 51.2388C110.546 50.5823 113.25 51.1075 114.504 55.6569Z" fill="#FFBE9D"/>
<path d="M113.648 55.0495C113.536 55.0495 113.431 55.0495 113.319 55.0495C113.207 55.0673 113.092 55.0489 112.991 54.997C112.962 54.9741 112.942 54.9424 112.933 54.9069C112.924 54.8713 112.927 54.8338 112.942 54.8001C112.981 54.7369 113.036 54.6853 113.102 54.6506C113.168 54.616 113.242 54.5996 113.316 54.6031C113.468 54.5887 113.62 54.6308 113.743 54.7213C113.774 54.7429 113.797 54.7736 113.81 54.8092C113.822 54.8447 113.823 54.8833 113.813 54.9195C113.802 54.9557 113.781 54.9877 113.751 55.011C113.721 55.0343 113.685 55.0478 113.648 55.0495Z" fill="#263238"/>
<path d="M110.454 55.6963C110.559 55.6569 110.647 55.6044 110.749 55.5552C110.859 55.519 110.953 55.4475 111.018 55.3517C111.033 55.3176 111.037 55.2794 111.028 55.2431C111.019 55.2068 110.998 55.1745 110.969 55.1515C110.905 55.1143 110.831 55.0947 110.757 55.0947C110.683 55.0947 110.61 55.1143 110.545 55.1515C110.401 55.2082 110.284 55.3172 110.217 55.4567C110.2 55.4899 110.194 55.5276 110.2 55.5644C110.205 55.6013 110.223 55.6354 110.249 55.6619C110.275 55.6884 110.309 55.706 110.346 55.7122C110.382 55.7184 110.42 55.7128 110.454 55.6963Z" fill="#263238"/>
<path d="M111.514 56.7695C111.514 56.7695 111.491 56.7925 111.497 56.8056C111.593 57.1109 111.648 57.4621 111.399 57.6591C111.399 57.6591 111.399 57.682 111.399 57.6755C111.734 57.5343 111.652 57.0453 111.514 56.7695Z" fill="#263238"/>
<path d="M111.146 56.5234C110.638 56.6219 110.874 57.6329 111.347 57.541C111.819 57.4491 111.573 56.4381 111.146 56.5234Z" fill="#263238"/>
<path d="M110.959 56.6219C110.887 56.7006 110.824 56.8221 110.719 56.8582C110.614 56.8943 110.48 56.8155 110.391 56.7335C110.434 56.9304 110.555 57.1109 110.769 57.0913C110.982 57.0716 111.061 56.868 111.064 56.6645C111.034 56.6383 110.992 56.5923 110.959 56.6219Z" fill="#263238"/>
<path d="M113.237 56.2969C113.237 56.2969 113.264 56.2969 113.267 56.3166C113.329 56.6448 113.451 56.9731 113.759 57.0256V57.042C113.408 57.0715 113.244 56.6054 113.237 56.2969Z" fill="#263238"/>
<path d="M113.44 55.9029C113.936 55.7519 114.205 56.7531 113.749 56.8876C113.293 57.0222 113.027 56.0309 113.44 55.9029Z" fill="#263238"/>
<path d="M113.67 55.9128C113.762 55.9456 113.867 56.0211 113.962 56.0014C114.058 55.9818 114.127 55.8505 114.169 55.729C114.169 55.729 114.169 55.729 114.186 55.729C114.227 55.8125 114.237 55.908 114.214 55.9982C114.191 56.0885 114.137 56.1676 114.061 56.2214C113.9 56.3001 113.733 56.1689 113.637 55.9883C113.618 55.9621 113.631 55.903 113.67 55.9128Z" fill="#263238"/>
<path d="M112.095 59.3462C112.175 59.4255 112.281 59.4742 112.393 59.484C112.512 59.4597 112.624 59.4104 112.722 59.3396C112.722 59.3396 112.745 59.3396 112.738 59.3396C112.706 59.4105 112.654 59.4711 112.589 59.5145C112.524 59.558 112.449 59.5826 112.37 59.5858C112.303 59.5835 112.237 59.5601 112.183 59.519C112.129 59.4778 112.089 59.4209 112.069 59.356C112.046 59.3494 112.069 59.3396 112.095 59.3462Z" fill="#263238"/>
<path d="M113.106 57.8954C113.194 58.1102 113.272 58.3293 113.339 58.5519C113.339 58.5749 113.296 58.5979 113.22 58.6208C113.041 58.7024 112.842 58.7326 112.646 58.7083C112.451 58.684 112.265 58.606 112.111 58.483C112.091 58.4666 112.111 58.437 112.137 58.4436C112.465 58.565 112.822 58.5788 113.158 58.483C113.158 58.4173 112.83 57.7215 112.859 57.7116C113.034 57.6865 113.21 57.6865 113.385 57.7116C113.037 56.763 112.541 55.88 112.21 54.9281C112.209 54.9214 112.21 54.9147 112.214 54.9088C112.217 54.903 112.222 54.8983 112.228 54.8955C112.234 54.8926 112.241 54.8917 112.248 54.8928C112.254 54.894 112.261 54.8971 112.265 54.9019C112.826 55.8379 113.293 56.8275 113.657 57.856C113.696 57.9644 113.204 57.9118 113.106 57.8954Z" fill="#263238"/>
<path d="M113.162 58.5355C113.087 58.7469 112.959 58.9356 112.791 59.0837C112.697 59.1607 112.583 59.2077 112.462 59.2183C112.197 59.2183 112.115 59.0082 112.098 58.8014C112.085 58.6924 112.085 58.5822 112.098 58.4731C112.437 58.6073 112.81 58.6292 113.162 58.5355Z" fill="#263238"/>
<path d="M112.791 59.0838C112.697 59.1609 112.583 59.2078 112.462 59.2184C112.197 59.2184 112.115 59.0083 112.098 58.8015C112.229 58.7651 112.367 58.7731 112.493 58.8242C112.618 58.8753 112.723 58.9666 112.791 59.0838Z" fill="#FF9BBC"/>
<path d="M106.741 58.8376C107.008 58.6288 107.217 58.3549 107.346 58.0421C107.476 57.7293 107.524 57.3882 107.483 57.0519C108.221 56.5241 108.804 55.8091 109.174 54.9807C109.174 55.0825 109.085 55.821 109.032 56.1952C111.865 55.0234 112.315 52.5846 112.315 52.5846C112.988 52.9836 113.562 53.5288 113.996 54.1798C113.996 54.1798 113.634 52.3679 112.446 51.3536C112.055 50.9941 111.575 50.7457 111.055 50.6343C110.536 50.5229 109.996 50.5525 109.492 50.7201C108.727 50.6987 107.969 50.8837 107.3 51.2556C106.631 51.6275 106.074 52.1727 105.688 52.834C104.217 55.3155 106.741 58.8376 106.741 58.8376Z" fill="#263238"/>
<path d="M111.172 55.2334C110.753 55.5929 110.283 55.8883 109.777 56.1098C110.558 55.7081 111.212 55.0965 111.665 54.3438C111.856 54.0226 112.006 53.6785 112.111 53.3197C112.242 52.9313 112.295 52.5207 112.265 52.1118C112.265 52.0822 112.308 52.079 112.311 52.1118C112.38 52.5126 112.38 52.9222 112.311 53.323C112.232 53.7186 112.079 54.0959 111.862 54.4357C111.669 54.7371 111.433 55.009 111.163 55.2432L111.172 55.2334Z" fill="#263238"/>
<path d="M105.615 58.7882L105.412 58.7324C105.438 58.6373 105.674 57.8101 106.111 57.6394C106.547 57.4687 109.308 57.1437 109.426 57.1306L109.449 57.3374C108.651 57.4326 106.495 57.7083 106.186 57.8331C105.878 57.9578 105.674 58.5519 105.615 58.7882Z" fill="#A6A6A6"/>
<path d="M112.315 56.9173L112.15 56.7893C112.341 56.5464 112.807 56.1689 113.276 56.4873L113.158 56.658C112.751 56.3724 112.334 56.8976 112.315 56.9173Z" fill="#A6A6A6"/>
<g opacity="0.9">
<path d="M111.389 58.7257C111.267 58.7685 111.14 58.7971 111.012 58.8111C110.721 58.84 110.428 58.7868 110.166 58.6573C109.904 58.5279 109.684 58.3275 109.53 58.0789C109.377 57.8304 109.296 57.5437 109.298 57.2516C109.299 56.9595 109.383 56.6737 109.539 56.4267C109.695 56.1797 109.917 55.9816 110.18 55.8549C110.444 55.7281 110.737 55.6778 111.028 55.7098C111.318 55.7418 111.593 55.8546 111.823 56.0356C112.052 56.2166 112.226 56.4583 112.325 56.7333C112.382 56.889 112.413 57.0532 112.417 57.2191C112.425 57.5462 112.33 57.8675 112.145 58.1378C111.961 58.4081 111.697 58.6138 111.389 58.7257Z" fill="#37474F"/>
<g opacity="0.1">
<path d="M111.241 55.7455L109.393 57.7806C109.299 57.5131 109.279 57.2247 109.338 56.9469L110.401 55.7718C110.674 55.6863 110.964 55.6772 111.241 55.7455Z" fill="white"/>
<path d="M112.147 56.3822L110.125 58.6241C110.038 58.5745 109.954 58.5174 109.876 58.4535L111.97 56.1558C112.036 56.2253 112.096 56.3012 112.147 56.3822Z" fill="white"/>
<path d="M112.351 56.8188L110.559 58.7883H110.49L112.331 56.7532L112.351 56.8188Z" fill="white"/>
</g>
</g>
<g opacity="0.9">
<path d="M114.606 58.0169C114.572 58.0198 114.538 58.0198 114.504 58.0169C113.91 58.076 113.312 57.5213 113.142 56.7237C113.051 56.346 113.083 55.9493 113.234 55.5912C113.291 55.4357 113.387 55.2971 113.512 55.1884C113.637 55.0796 113.787 55.0043 113.95 54.9693C114.112 54.9342 114.28 54.9407 114.439 54.988C114.598 55.0353 114.742 55.122 114.858 55.24C115.139 55.5032 115.331 55.8474 115.407 56.2247C115.594 57.088 115.229 57.8856 114.606 58.0169Z" fill="#37474F"/>
<g opacity="0.1">
<path d="M115.403 56.2314L113.903 57.8726C113.725 57.7646 113.572 57.6203 113.454 57.4491L115.141 55.5847C115.267 55.7826 115.356 56.0017 115.403 56.2314Z" fill="white"/>
<path d="M114.553 55.0496L113.122 56.6317C113.121 56.6066 113.121 56.5814 113.122 56.5562L114.507 55.0266L114.553 55.0496Z" fill="white"/>
</g>
</g>
<path d="M106.843 59.8912C106.918 59.9005 106.994 59.9005 107.069 59.8912C107.144 59.8918 107.218 59.8796 107.289 59.8551C107.381 59.8299 107.467 59.7839 107.539 59.7206C107.597 59.6722 107.647 59.6159 107.69 59.5532C107.75 59.4646 107.793 59.3655 107.818 59.261L107.332 58.0662C107.332 58.0662 106.052 56.8058 105.461 57.2883C104.87 57.7708 106.025 59.7468 106.843 59.8912Z" fill="#FFBE9D"/>
<path d="M105.812 57.8561C105.812 57.8561 105.812 57.8758 105.812 57.879C106.084 57.9562 106.336 58.0895 106.553 58.2705C106.769 58.4515 106.946 58.676 107.07 58.9294C107.028 58.8809 106.976 58.8419 106.918 58.8152C106.86 58.7885 106.797 58.7747 106.733 58.7747C106.669 58.7747 106.606 58.7885 106.548 58.8152C106.49 58.8419 106.438 58.8809 106.397 58.9294C106.397 58.9294 106.397 58.959 106.42 58.9557C106.509 58.9076 106.611 58.8884 106.711 58.9008C106.812 58.9131 106.906 58.9564 106.981 59.0246C107.102 59.142 107.212 59.2706 107.309 59.4087C107.342 59.4513 107.424 59.4087 107.395 59.3561C107.28 58.657 106.564 57.8036 105.812 57.8561Z" fill="#263238"/>
<path d="M104.729 64.6409C102.103 67.2668 95.5844 77.357 97.4751 79.3035C99.3658 81.25 110.835 78.903 113.933 77.5539C114.852 77.1535 111.074 71.2583 109.994 71.406C109.101 71.5307 104.503 73.185 104.381 72.9192C104.26 72.6533 105.038 70.4672 106.265 66.5644C107.697 62.0707 105.888 63.4789 104.729 64.6409Z" fill="#FFBE9D"/>
<path d="M107.999 73.1785C109.216 71.9521 110.57 70.8685 112.033 69.9486C113.457 69.1182 116.756 67.6509 121.049 70.0537C122.07 70.6248 123.117 72.1577 121.115 71.8327C119.694 71.5997 118.863 71.0253 118.01 71.0417C118.01 71.0417 119.113 73.149 118.502 74.1469C117.969 75.0207 117.375 75.8555 116.723 76.6448C116.552 76.5574 116.387 76.4598 116.228 76.3526C116.228 76.3526 115.571 77.2323 113.93 77.5573L107.999 73.1785Z" fill="#FFBE9D"/>
<path d="M113.52 69.3708C114.366 69.5317 116.145 69.9059 117.518 70.7232C119.031 71.6292 121.696 73.7824 121.013 74.8919C120.514 75.7059 119.425 74.9707 119.425 74.9707C119.425 74.9707 120.34 76.0933 119.727 76.7301C119.172 77.3078 118.361 76.6907 118.361 76.6907C118.361 76.6907 118.798 77.4686 118.154 77.9216C117.38 78.4665 116.589 76.753 115.328 76.6283C115.049 76.5988 113.52 69.3708 113.52 69.3708Z" fill="#FFBE9D"/>
<path d="M116.296 72.1608C117.598 72.7457 118.69 73.7132 119.428 74.9345C119.444 74.9673 119.428 74.9968 119.408 74.9706C118.484 73.9158 117.436 72.9768 116.287 72.174C116.287 72.174 116.287 72.1576 116.296 72.1608Z" fill="#263238"/>
<path d="M115.423 73.7102C116.656 74.4112 117.676 75.4318 118.377 76.6644C118.377 76.6973 118.377 76.7268 118.358 76.7005C117.488 75.5988 116.497 74.5989 115.403 73.7201C115.403 73.7201 115.416 73.707 115.423 73.7102Z" fill="#263238"/>
<path d="M118.003 71.0253C118.69 71.0483 119.366 71.1928 120.002 71.452C120.348 71.5714 120.701 71.6701 121.059 71.7474C121.388 71.8163 121.867 71.9214 122.093 71.5931C122.141 71.4986 122.163 71.3927 122.155 71.2869C122.148 71.181 122.112 71.0792 122.051 70.9924C121.882 70.7438 121.676 70.5224 121.44 70.3359C121.44 70.3359 121.44 70.313 121.44 70.3195C121.667 70.4892 121.876 70.6817 122.064 70.894C122.189 71.0405 122.266 71.2212 122.287 71.4126C122.287 71.8229 121.867 72.0067 121.519 71.9969C121.309 71.9836 121.102 71.9506 120.898 71.8984C120.705 71.8524 120.511 71.7966 120.317 71.7375C119.924 71.6128 119.54 71.4684 119.146 71.3404C118.767 71.2238 118.381 71.1317 117.99 71.0646L118.003 71.0253Z" fill="#263238"/>
<path d="M120.176 73.011C119.493 72.3079 118.765 71.65 117.997 71.0415C117.997 71.0415 117.997 71.0185 117.997 71.0218C118.835 71.5282 119.606 72.1369 120.294 72.8337C120.667 73.2096 120.96 73.6559 121.158 74.1467C121.246 74.3427 121.256 74.5655 121.183 74.7681C121.111 74.9708 120.963 75.1375 120.77 75.2332C120.573 75.3327 120.347 75.3628 120.13 75.3185C119.872 75.2488 119.629 75.1283 119.418 74.964C119.418 74.964 119.418 74.9377 119.418 74.9443C119.591 75.0672 119.79 75.1489 119.999 75.1831C120.208 75.2172 120.423 75.2029 120.626 75.1413C120.795 75.0707 120.929 74.9362 121 74.7671C121.055 74.562 121.034 74.3441 120.941 74.1532C120.75 73.733 120.492 73.3471 120.176 73.011Z" fill="#263238"/>
<path d="M108.652 71.6554L111.872 79.0802C111.872 79.0802 98.1839 81.6668 97.1007 79.2607C96.0175 76.8547 101.601 67.7723 104.073 65.1693C106.935 62.1396 107.25 63.2162 106.547 65.9636C105.812 68.839 104.44 72.988 104.44 72.988L108.652 71.6554Z" fill="#0D6C61"/>
<path d="M100.239 74.7935C100.885 74.3795 101.561 74.013 102.261 73.6971C102.953 73.3865 103.667 73.1276 104.398 72.9225C104.811 72.801 105.231 72.6993 105.651 72.5942C105.651 72.5942 105.668 72.6106 105.651 72.6139C104.919 72.8233 104.198 73.0754 103.495 73.3689C102.796 73.6512 102.1 73.9499 101.407 74.2584C101.017 74.4357 100.636 74.6293 100.252 74.8164L100.239 74.7935Z" fill="#263238"/>
<path d="M108.616 71.6323C108.547 71.6487 104.608 72.7812 104.483 72.8337C104.499 72.7779 105.52 69.6891 105.533 69.6596C105.606 69.5348 105.976 68.8554 106.062 68.6748C105.967 68.8357 105.681 69.223 105.642 69.2985C105.717 69.095 106.039 68.0577 106.137 67.7295C106.137 67.7295 106.137 67.7295 106.121 67.7295C105.612 68.6748 104.122 73.1718 104.128 73.1685C104.135 73.1652 108.556 71.7111 108.635 71.6815C108.642 71.6789 108.647 71.6738 108.65 71.6674C108.652 71.6609 108.653 71.6536 108.65 71.6471C108.647 71.6405 108.642 71.6353 108.636 71.6326C108.629 71.6298 108.622 71.6297 108.616 71.6323Z" fill="#263238"/>
<path d="M108.701 76.4084C108.35 75.578 108.002 74.7475 107.614 73.9335C107.398 73.4707 107.181 73.0046 106.958 72.5417C106.958 72.5417 106.918 72.5417 106.925 72.5417C107.253 73.3886 107.582 74.2355 107.933 75.0659C108.284 75.8964 108.645 76.7236 109.016 77.5442C109.235 78.0147 109.459 78.4753 109.689 78.9261H109.705C109.413 78.0759 109.059 77.2422 108.701 76.4084Z" fill="#263238"/>
<path d="M112.046 79.2017C111.915 78.9719 111.757 78.6404 111.619 78.4172C111.583 78.3581 111.537 78.3679 111.567 78.4172C111.662 78.624 111.741 78.857 111.836 79.0737L111.258 79.1656L110.602 79.2837C110.168 79.3559 109.732 79.4249 109.289 79.4905C108.413 79.6218 107.527 79.7312 106.63 79.8188C104.85 80.0201 103.061 80.1297 101.27 80.147C100.771 80.147 100.285 80.147 99.7695 80.1142C99.2754 80.1002 98.7823 80.0597 98.2925 79.9927C98.2925 79.9927 98.276 80.0124 98.2925 80.0157C98.7131 80.1195 99.1411 80.1908 99.5726 80.2291C100.026 80.2652 100.479 80.2914 100.932 80.3013C101.834 80.321 102.74 80.3013 103.64 80.2422C105.428 80.1404 107.214 79.9599 108.987 79.7104C109.486 79.6382 109.971 79.5627 110.477 79.4807L111.225 79.3527C111.503 79.3261 111.777 79.2756 112.046 79.2017Z" fill="#263238"/>
<path d="M139.44 73.6116C138.679 74.0065 137.985 74.5206 137.386 75.1346C136.568 76.0373 135.528 78.8503 135.528 78.8503C135.528 78.8503 144.899 79.8055 144.873 79.1064C144.847 78.4072 139.44 73.6116 139.44 73.6116Z" fill="#263238"/>
<path d="M75.2921 75.7256C75.2921 75.7256 74.0185 67.6508 73.4835 67.2865C72.9484 66.9221 65.4514 66.8795 64.9492 67.2044C64.4469 67.5294 64.2008 71.0679 63.7741 71.1433C63.3473 71.2188 60.7903 71.5175 59.9664 71.8228C59.1426 72.1281 59.1064 74.8558 59.1064 74.8558L75.2921 75.7256Z" fill="#FFC727"/>
<path opacity="0.5" d="M75.2921 75.7256C75.2921 75.7256 74.0185 67.6508 73.4835 67.2865C72.9484 66.9221 65.4514 66.8795 64.9492 67.2044C64.4469 67.5294 64.2008 71.0679 63.7741 71.1433C63.3473 71.2188 60.7903 71.5175 59.9664 71.8228C59.1426 72.1281 59.1064 74.8558 59.1064 74.8558L75.2921 75.7256Z" fill="white"/>
<path d="M194.556 114.169L154.028 114.439C154.028 114.439 156.194 89.3707 175.692 91.0546C195.189 92.7385 194.556 114.169 194.556 114.169Z" fill="#FFC727"/>
<path opacity="0.5" d="M194.556 114.169L154.028 114.439C154.028 114.439 156.194 89.3707 175.692 91.0546C195.189 92.7385 194.556 114.169 194.556 114.169Z" fill="black"/>
<path d="M73.2506 114.143L32.8374 111.091C32.8374 111.091 37.0488 86.2819 56.3429 89.5611C75.637 92.8402 73.2506 114.143 73.2506 114.143Z" fill="#FFC727"/>
<path opacity="0.5" d="M73.2506 114.143L32.8374 111.091C32.8374 111.091 37.0488 86.2819 56.3429 89.5611C75.637 92.8402 73.2506 114.143 73.2506 114.143Z" fill="black"/>
<path opacity="0.6" d="M162.973 76.7235L163.833 77.2159C163.833 77.2159 158.4 77.7181 157.202 77.5835C156.004 77.4489 134.744 64.2733 134.448 64.1453C134.153 64.0172 120.317 58.7883 120.317 58.7883C120.317 58.7883 139.273 64.8247 140.498 65.2678C141.722 65.711 162.973 76.7235 162.973 76.7235Z" fill="white"/>
<path d="M211.736 110.257C211.736 110.257 207.646 113.995 206.376 114.343C205.105 114.691 193.345 115.745 192.649 115.515C191.953 115.285 195.544 93.9103 175.445 92.7122C155.347 91.5141 157.556 116.411 157.064 116.401C156.572 116.392 71.1924 115.745 70.8083 115.394C70.4243 115.043 73.3883 92.466 53.871 92.2198C35.1841 91.9835 36.2476 112.653 35.5091 112.676C34.7705 112.699 20.4362 110.979 19.2315 110.651C18.0269 110.322 16.2774 106.84 16.1493 106.538C16.0213 106.236 16.4021 105.438 16.4021 105.438C16.4021 105.438 14.5508 99.5298 14.4556 97.1795C14.3604 94.8293 18.7884 88.3006 18.7884 88.3006L21.8969 77.8395C21.8969 77.8395 20.446 76.9729 20.2557 76.6742C20.0653 76.3755 19.8585 75.2497 19.8585 75.2497L49.8139 72.7878C50.1561 72.548 50.5212 72.3424 50.9037 72.174C51.2319 72.0887 53.1587 72.0329 53.1587 72.0329C53.1587 72.0329 56.2967 74.4094 57.5801 74.7179C58.8636 75.0265 143.934 79.1853 144.407 79.0343C144.88 78.8833 132.705 66.8401 131.461 65.6978C130.217 64.5555 119.618 61.6309 119.49 61.319C119.362 61.0072 119.332 58.529 119.667 58.5651C120.002 58.6012 133.378 63.515 134.911 64.3684C136.444 65.2218 156.903 77.2979 157.507 77.5375C158.111 77.7771 163.776 77.2552 163.832 77.2093C163.888 77.1633 162.972 76.8416 162.972 76.7235C162.972 76.6053 164.479 76.9532 164.804 76.9532C165.129 76.9532 189.547 80.5902 193.561 82.018C197.576 83.4459 203.569 87.1255 206.261 89.712C208.952 92.2986 211.431 96.2375 211.88 96.5034C212.33 96.7692 213.413 96.8316 213.604 98.5483C213.794 100.265 213.551 102.028 213.17 102.395C212.79 102.763 211.565 103.147 211.441 103.288C211.316 103.429 211.152 107.555 211.214 107.706C211.276 107.857 211.772 107.975 211.825 108.34C211.877 108.704 211.985 109.846 211.736 110.257Z" fill="#FFC727"/>
<path opacity="0.3" d="M160.281 100.803C159.812 101.702 159.407 102.634 159.07 103.59C144.299 103.127 77.3079 100.994 77.4392 100.344C77.5705 99.6938 148.487 100.623 160.281 100.803Z" fill="white"/>
<path d="M190.974 112.306C192.197 103.51 186.058 95.3868 177.262 94.1631C168.466 92.9394 160.343 99.0782 159.119 107.875C157.895 116.671 164.034 124.794 172.831 126.018C181.627 127.241 189.75 121.102 190.974 112.306Z" fill="#263238"/>
<path d="M179.758 120.856C185.701 118.261 188.414 111.339 185.819 105.397C183.224 99.4542 176.303 96.7404 170.361 99.3355C164.418 101.93 161.704 108.852 164.299 114.794C166.894 120.737 173.815 123.451 179.758 120.856Z" fill="#DBDBDB"/>
<path d="M182.712 117.753C186.939 113.526 186.939 106.671 182.712 102.444C178.484 98.2163 171.63 98.2163 167.402 102.444C163.175 106.671 163.175 113.526 167.402 117.753C171.63 121.981 178.484 121.981 182.712 117.753Z" fill="#A6A6A6"/>
<path d="M172.984 107.657L176.348 107.168C174.973 105.694 178.098 99.392 178.098 99.392L176.243 99.0637C175.36 101.256 174.858 101.936 173.89 102.077C172.921 102.218 172.249 101.709 170.768 99.8613L169.091 100.711C169.091 100.711 173.88 105.852 172.984 107.657Z" fill="#DBDBDB"/>
<path d="M176.66 107.332L178.167 110.381C179.152 108.619 186.1 109.643 186.1 109.643L185.844 107.772C183.488 107.611 182.687 107.342 182.253 106.459C181.82 105.576 182.096 104.782 183.396 102.809L182.083 101.473C182.083 101.473 178.656 107.627 176.66 107.332Z" fill="#DBDBDB"/>
<path d="M178.108 110.726L175.672 113.103C177.642 113.487 178.827 120.419 178.827 120.419L180.527 119.598C179.953 117.301 179.959 116.464 180.662 115.781C181.364 115.098 182.204 115.108 184.486 115.738L185.346 114.064C185.346 114.064 178.443 112.715 178.108 110.726Z" fill="#DBDBDB"/>
<path d="M175.324 113.152L172.314 111.57C172.561 113.572 166.331 116.822 166.331 116.822L167.644 118.184C169.646 116.93 170.45 116.677 171.317 117.13C172.183 117.583 172.433 118.394 172.541 120.757L174.399 121.056C174.399 121.056 173.539 114.087 175.324 113.152Z" fill="#DBDBDB"/>
<path d="M172.163 111.254L172.734 107.903C170.909 108.753 165.881 103.836 165.881 103.836L164.991 105.497C166.803 107.017 167.289 107.703 167.125 108.668C166.961 109.633 166.271 110.119 164.056 110.966L164.345 112.827C164.345 112.827 170.719 109.843 172.163 111.254Z" fill="#DBDBDB"/>
<path d="M171.937 110.477C172.026 111.091 172.296 111.666 172.712 112.127C173.128 112.589 173.672 112.916 174.274 113.069C174.876 113.221 175.51 113.192 176.096 112.984C176.681 112.776 177.192 112.399 177.563 111.901C177.935 111.403 178.15 110.806 178.182 110.186C178.214 109.565 178.062 108.949 177.744 108.416C177.426 107.882 176.956 107.454 176.395 107.187C175.834 106.92 175.207 106.826 174.592 106.915C174.184 106.975 173.791 107.114 173.437 107.325C173.083 107.536 172.773 107.815 172.527 108.146C172.28 108.477 172.101 108.853 172 109.253C171.899 109.652 171.877 110.068 171.937 110.477Z" fill="#DBDBDB"/>
<path d="M61.8335 123.76C69.361 119.047 71.6427 109.124 66.9299 101.597C62.2171 94.0693 52.2944 91.7876 44.7669 96.5004C37.2394 101.213 34.9577 111.136 39.6705 118.663C44.3833 126.191 54.3061 128.473 61.8335 123.76Z" fill="#263238"/>
<path d="M62.2094 117.783C66.4311 112.861 65.8634 105.449 60.9413 101.227C56.0193 97.0056 48.6069 97.5733 44.3852 102.495C40.1635 107.417 40.7313 114.83 45.6533 119.051C50.5754 123.273 57.9878 122.705 62.2094 117.783Z" fill="#DBDBDB"/>
<path d="M63.687 113.181C65.368 107.443 62.0795 101.429 56.342 99.748C50.6045 98.067 44.5905 101.355 42.9095 107.093C41.2285 112.831 44.5169 118.844 50.2544 120.525C55.992 122.207 62.0059 118.918 63.687 113.181Z" fill="#A6A6A6"/>
<path d="M51.2253 107.696L54.5898 107.207C53.2145 105.73 56.3394 99.4313 56.3394 99.4313L54.4815 99.103C53.5985 101.296 53.0963 101.975 52.128 102.116C51.1597 102.257 50.4868 101.749 49.0097 99.9007L47.3291 100.751C47.3291 100.751 52.1214 105.891 51.2253 107.696Z" fill="#DBDBDB"/>
<path d="M54.9019 107.368L56.4052 110.414C57.3899 108.652 64.3421 109.676 64.3421 109.676L64.0861 107.808C61.7293 107.647 60.9284 107.378 60.4951 106.495C60.0618 105.612 60.3343 104.818 61.6374 102.842L60.3244 101.509C60.3244 101.509 56.8943 107.664 54.9019 107.368Z" fill="#DBDBDB"/>
<path d="M56.3459 110.765L53.9136 113.139C55.883 113.526 57.068 120.458 57.068 120.458L58.765 119.638C58.1906 117.34 58.2004 116.503 58.8996 115.817C59.5987 115.131 60.4456 115.161 62.7236 115.778L63.5836 114.1C63.5836 114.1 56.6839 112.755 56.3459 110.765Z" fill="#DBDBDB"/>
<path d="M53.566 113.191L50.556 111.609C50.7989 113.611 44.5688 116.861 44.5688 116.861L45.8818 118.223C47.8841 116.969 48.6883 116.717 49.5549 117.17C50.4214 117.623 50.6709 118.433 50.7759 120.78L52.6338 121.082C52.6338 121.082 51.7771 114.123 53.566 113.191Z" fill="#DBDBDB"/>
<path d="M50.3851 111.307L50.9595 107.956C49.1312 108.806 44.1058 103.889 44.1058 103.889L43.213 105.55C45.0249 107.07 45.5107 107.756 45.3498 108.721C45.189 109.686 44.4931 110.171 42.2808 111.002L42.5696 112.863C42.5696 112.863 48.9572 109.883 50.3851 111.307Z" fill="#DBDBDB"/>
<path d="M50.175 110.516C50.2645 111.131 50.5342 111.705 50.95 112.166C51.3659 112.628 51.9092 112.956 52.5113 113.108C53.1134 113.261 53.7473 113.232 54.3328 113.024C54.9183 112.817 55.4291 112.44 55.8007 111.943C56.1723 111.445 56.388 110.848 56.4205 110.228C56.453 109.607 56.3008 108.991 55.9833 108.458C55.6657 107.924 55.197 107.496 54.6364 107.228C54.0758 106.961 53.4485 106.866 52.8337 106.954C52.0095 107.075 51.2668 107.518 50.7685 108.186C50.2701 108.853 50.0567 109.691 50.175 110.516Z" fill="#DBDBDB"/>
<path d="M21.7658 78.3089C20.6301 78.6372 18.4243 81.7095 18.316 82.3102C18.2077 82.9109 18.0567 86.8629 18.5195 87.3816C18.9823 87.9002 20.571 89.1213 21.7658 88.9965C22.9606 88.8718 30.5135 85.2939 30.9566 84.7294C31.3998 84.1648 31.3702 81.227 30.6284 80.3867C29.8866 79.5464 23.2134 77.9052 21.7658 78.3089Z" fill="white"/>
<path d="M30.9661 84.7457C30.5132 85.2971 22.9603 88.8717 21.7754 88.9964C20.8661 89.0916 19.7238 88.399 19.0312 87.8377C19.9799 88.2644 20.83 88.3892 21.4602 88.2316C22.0905 88.0741 29.3381 84.9787 29.9388 84.2402C30.5394 83.5016 30.221 81.0858 30.0668 80.6656C29.9125 80.2455 23.886 78.3679 23.886 78.3679C26.6038 78.6141 30.1226 79.822 30.6346 80.3899C31.3765 81.24 31.4191 84.1909 30.9661 84.7457Z" fill="#EBEBEB"/>
<path d="M190.889 86.2522C191.703 88.1462 199.132 92.3805 202.004 93.2963C203.812 93.874 210.18 95.2231 210.6 94.9375C211.021 94.652 208.559 89.9121 207.111 88.632C205.664 87.3518 198.039 83.4884 195.596 83.2422C193.154 82.9961 190.066 84.3386 190.889 86.2522Z" fill="white"/>
<path d="M210.604 94.9441C210.18 95.2264 203.816 93.874 202.004 93.3029C199.132 92.3838 191.703 88.1528 190.886 86.2555C190.069 84.3583 193.154 83.0125 195.596 83.2554C195.787 83.2743 195.975 83.3061 196.161 83.3506C193.781 83.8495 193.059 85.5465 194.287 86.7577C195.514 87.9689 199.571 90.9724 201.262 91.724C202.903 92.4495 209.071 94.3664 209.678 94.0217C209.801 93.9131 209.899 93.7784 209.964 93.6274C210.028 93.4764 210.059 93.3128 210.052 93.1486C210.505 94.0907 210.761 94.8391 210.604 94.9441Z" fill="#EBEBEB"/>
<g opacity="0.1">
<path d="M192.514 112.646C192.554 114.353 192.491 115.463 192.649 115.515C193.345 115.745 205.102 114.698 206.376 114.343C207.649 113.989 211.736 110.253 211.736 110.253C211.736 110.253 211.756 110.221 211.762 110.201C207.484 111.635 203.026 112.46 198.518 112.653C197.697 112.682 195.619 112.679 192.514 112.646Z" fill="black"/>
<path d="M70.6279 110.03C70.8741 113.063 70.6739 115.282 70.7921 115.394C71.1728 115.755 156.545 116.378 157.044 116.401C157.179 116.401 157.117 114.616 157.343 112.019C131.267 111.475 97.6029 110.693 70.6279 110.03Z" fill="black"/>
<path d="M16.1494 106.548C16.2774 106.85 18.0236 110.342 19.2316 110.66C20.4395 110.979 34.7476 112.702 35.4861 112.679C35.6798 112.679 35.752 111.251 36.0868 109.157C31.351 109.024 26.6276 108.603 21.9428 107.897C19.9513 107.457 18.0676 106.625 16.4021 105.448C16.4021 105.448 16.0213 106.249 16.1494 106.548Z" fill="black"/>
</g>
<g opacity="0.2">
<path d="M150.408 111.872C150.408 106.872 150.575 99.6019 150.67 94.5272C150.706 93.083 150.742 91.6387 150.762 90.1944C150.792 89.9464 150.77 89.6947 150.696 89.4559C149.561 87.3256 145.697 81.1907 144.407 79.0342C146.419 82.0343 148.408 85.0541 150.289 88.1429C150.539 88.6221 150.946 89.108 151.054 89.6364C151.015 97.0547 150.726 104.463 150.398 111.872H150.408Z" fill="black"/>
<path d="M89.2426 76.4478L88.202 80.6033C87.8377 82.3233 87.2173 84.0564 87.1746 85.8125C87.3584 91.9244 87.5357 100.025 87.6014 106.164L87.621 110.447L87.4405 106.18C87.2337 100.478 87.0236 92.594 86.9219 86.9056C86.9219 86.2753 86.8464 85.3628 87.0039 84.7457C87.6145 81.9425 88.4252 79.205 89.2426 76.4674V76.4478Z" fill="black"/>
<path d="M39.7636 98.9553C36.8389 97.4585 33.9537 95.8862 31.1275 94.2056C30.6304 93.8774 30.193 93.4666 29.8342 92.9911C29.3287 92.4069 28.8232 91.8193 28.3407 91.2154C27.356 90.014 26.4106 88.8028 25.4883 87.562L27.0179 89.3017C28.1733 90.5917 29.7095 92.5086 30.9404 93.71C33.8585 95.4891 36.8488 97.1434 39.7636 98.9619V98.9553Z" fill="black"/>
<path d="M190.65 85.0477C182.913 84.063 175.062 83.0093 167.364 81.7193C164.016 80.4589 160.78 78.9785 157.517 77.5474C159.053 78.1382 166.051 80.9775 167.446 81.4436C174.75 82.6023 183.383 83.8037 190.66 85.0543L190.65 85.0477Z" fill="black"/>
<path d="M101.591 86.515C101.384 87.2272 101.108 88.1102 100.38 88.4483C99.399 88.5572 98.4107 88.5825 97.4256 88.5238C96.4442 88.5056 95.4661 88.4068 94.5009 88.2284C94.3859 88.2033 94.2753 88.1612 94.1727 88.1036C93.6672 87.6408 93.4768 86.9745 93.27 86.3508C93.549 86.899 93.8182 87.5424 94.2909 87.933C94.4803 87.9945 94.6765 88.033 94.8751 88.0478C96.5787 88.189 98.3217 88.2415 100.032 88.2514C100.225 88.274 100.42 88.2198 100.573 88.1004C101.031 87.6558 101.382 87.1139 101.601 86.515H101.591Z" fill="black"/>
<path d="M101.65 85.3988C101.483 84.8146 101.286 84.0859 100.797 83.7281C100.597 83.6722 100.393 83.6359 100.186 83.6198C98.8768 83.5036 97.5611 83.4718 96.2474 83.5246C95.3579 83.5246 94.5537 83.692 93.93 84.3649C93.608 84.656 93.3353 84.9974 93.1226 85.3759C93.2866 84.9606 93.5271 84.5798 93.8316 84.2533C94.1281 83.905 94.4965 83.625 94.9115 83.4327C95.3459 83.3042 95.7947 83.2304 96.2474 83.2127C97.5743 83.1273 98.9065 83.1801 100.222 83.3703C100.454 83.4039 100.681 83.4634 100.899 83.5475C101.45 84.0005 101.555 84.7456 101.65 85.3988Z" fill="black"/>
<path d="M101.381 85.3299C102.737 85.6254 102.651 86.4197 101.296 86.5838C99.5988 86.7512 97.8919 86.7283 96.1916 86.7348C95.1412 86.6593 93.9792 86.8661 92.9715 86.4066C92.4628 86.1571 92.315 85.5925 92.9026 85.3102C93.976 84.8934 95.174 85.1133 96.2868 85.0673C97.9883 85.0704 99.6885 85.1591 101.381 85.3332V85.3299ZM101.381 85.3299C98.8635 85.0542 96.2769 85.2019 93.756 85.3792C93.3392 85.4153 92.3512 85.7074 93.1225 86.121C93.674 86.4033 94.3042 86.3475 94.9246 86.3967C97.0319 86.4722 99.1917 86.6495 101.289 86.5379C102.632 86.4164 102.727 85.6385 101.381 85.3299Z" fill="black"/>
</g>
<path d="M211.444 103.288C211.444 103.288 203.79 103.968 203.694 103.945C203.599 103.922 203.366 102.868 202.726 102.838C202.086 102.809 199.864 104.706 199.509 106.531C199.155 108.356 199.572 109.725 200.73 109.587C201.889 109.449 203.471 107.106 203.471 107.106C203.471 107.106 209.347 106.777 209.488 106.886C209.724 107.098 209.975 107.292 210.24 107.467C210.559 107.578 210.889 107.658 211.224 107.706L211.444 103.288Z" fill="#263238"/>
<path d="M138.748 82.4513C138.23 81.6734 139.461 75.8865 140.028 75.5024C140.596 75.1184 147.135 76.0014 146.921 79.7105C146.708 83.4196 139.556 83.6691 138.748 82.4513Z" fill="#FFC727"/>
<path opacity="0.1" d="M138.748 82.4513C138.23 81.6734 139.461 75.8865 140.028 75.5024C140.596 75.1184 147.135 76.0014 146.921 79.7105C146.708 83.4196 139.556 83.6691 138.748 82.4513Z" fill="black"/>
<g opacity="0.4">
<path d="M73.1685 101.647C71.4583 96.1685 67.3783 91.4484 62.064 89.2295C55.8767 86.7447 48.3468 86.8103 42.6288 90.467C39.1054 92.7756 36.36 96.093 34.751 99.986C35.4444 97.9867 36.4503 96.1099 37.7314 94.4256C43.2886 86.9416 53.0866 85.2348 61.5356 88.4023C67.2798 90.5425 71.7111 95.7648 73.1521 101.653L73.1685 101.647Z" fill="white"/>
<path d="M194.779 102.008C193.069 96.5265 188.989 91.8063 183.675 89.5874C177.488 87.1026 169.958 87.1716 164.24 90.8282C160.716 93.1361 157.97 96.4537 156.362 100.347C157.061 98.3434 158.073 96.4632 159.362 94.7769C164.919 87.2963 174.717 85.5862 183.166 88.7537C188.91 90.8938 193.342 96.1195 194.783 102.008H194.779Z" fill="white"/>
<path d="M138.525 86.3607C112.824 85.3759 86.8631 83.9481 61.2109 82.0935C86.9123 83.0782 112.873 84.5094 138.525 86.3607Z" fill="white"/>
</g>
</svg>
