<svg width="220" height="164" viewBox="0 0 220 164" fill="none" xmlns="http://www.w3.org/2000/svg">
<path d="M220 144.056H0V144.166H220V144.056Z" fill="#EBEBEB"/>
<path d="M197.956 151.135H183.383V151.245H197.956V151.135Z" fill="#EBEBEB"/>
<path d="M145.737 152.333H141.913V152.443H145.737V152.333Z" fill="#EBEBEB"/>
<path d="M182.943 147.052H174.5V147.162H182.943V147.052Z" fill="#EBEBEB"/>
<path d="M42.0861 147.792H23.0825V147.902H42.0861V147.792Z" fill="#EBEBEB"/>
<path d="M48.7915 147.792H46.0063V147.902H48.7915V147.792Z" fill="#EBEBEB"/>
<path d="M99.0659 149.648H57.8467V149.758H99.0659V149.648Z" fill="#EBEBEB"/>
<path d="M104.28 124.432H19.3205C18.6549 124.431 18.017 124.166 17.5468 123.695C17.0766 123.224 16.8125 122.585 16.8125 121.92V2.4904C16.8183 1.82865 17.0849 1.19591 17.5545 0.729616C18.0241 0.263322 18.6587 0.00113361 19.3205 0H104.28C104.946 0 105.585 0.264699 106.057 0.735865C106.528 1.20703 106.793 1.84607 106.793 2.5124V121.92C106.793 122.586 106.528 123.225 106.057 123.696C105.585 124.167 104.946 124.432 104.28 124.432ZM19.3205 0.0880003C18.6841 0.0891659 18.0742 0.342789 17.6246 0.7932C17.175 1.24361 16.9225 1.85401 16.9225 2.4904V121.92C16.9225 122.556 17.175 123.166 17.6246 123.617C18.0742 124.067 18.6841 124.321 19.3205 124.322H104.28C104.917 124.321 105.527 124.067 105.978 123.617C106.428 123.167 106.681 122.556 106.683 121.92V2.4904C106.681 1.8536 106.428 1.24322 105.978 0.792931C105.527 0.342646 104.917 0.0891634 104.28 0.0880003H19.3205Z" fill="#EBEBEB"/>
<path d="M199.456 124.432H114.492C113.826 124.431 113.188 124.166 112.717 123.695C112.246 123.224 111.981 122.586 111.98 121.92V2.4904C111.987 1.82825 112.255 1.19551 112.725 0.729341C113.195 0.263168 113.83 0.00112125 114.492 0H199.456C200.117 0.00228998 200.751 0.26499 201.22 0.73116C201.688 1.19733 201.954 1.82941 201.96 2.4904V121.92C201.96 122.584 201.697 123.222 201.227 123.693C200.758 124.164 200.121 124.43 199.456 124.432ZM114.492 0.0880003C113.856 0.0891634 113.245 0.342646 112.795 0.792931C112.345 1.24322 112.091 1.8536 112.09 2.4904V121.92C112.091 122.556 112.345 123.167 112.795 123.617C113.245 124.067 113.856 124.321 114.492 124.322H199.456C200.093 124.321 200.704 124.067 201.154 123.617C201.604 123.167 201.858 122.556 201.859 121.92V2.4904C201.858 1.8536 201.604 1.24322 201.154 0.792931C200.704 0.342646 200.093 0.0891634 199.456 0.0880003H114.492Z" fill="#EBEBEB"/>
<path d="M115.513 144.377H179.85V50.0544L115.513 50.0544L115.513 144.377Z" fill="#F0F0F0"/>
<path d="M117.788 70.4441L177.575 70.4441V53.0245L117.788 53.0245V70.4441Z" fill="#E0E0E0"/>
<path d="M174.178 70.4441H177.575V55.8449H174.178V70.4441Z" fill="#EBEBEB"/>
<path d="M157.757 70.4441H161.154V55.8449H157.757V70.4441Z" fill="#EBEBEB"/>
<path d="M136.636 69.8664L139.983 70.4434L142.463 56.0563L139.116 55.4793L136.636 69.8664Z" fill="#EBEBEB"/>
<path d="M169.972 70.4441H173.369V57.7677H169.972V70.4441Z" fill="#EBEBEB"/>
<path d="M162.166 70.4441H165.563V57.7677H162.166V70.4441Z" fill="#EBEBEB"/>
<path d="M142.459 70.4441H145.855V57.7677H142.459V70.4441Z" fill="#EBEBEB"/>
<path d="M150.553 69.701L153.869 70.438L156.619 58.0635L153.303 57.3266L150.553 69.701Z" fill="#EBEBEB"/>
<path d="M167.033 70.4441H168.731V55.1189H167.033V70.4441Z" fill="#EBEBEB"/>
<path d="M146.832 70.4441H148.531V55.1189H146.832V70.4441Z" fill="#EBEBEB"/>
<path d="M177.58 73.2029H117.792V90.6225H177.58V73.2029Z" fill="#E0E0E0"/>
<path d="M121.189 76.0232H117.792V90.6224H121.189V76.0232Z" fill="#EBEBEB"/>
<path d="M137.61 76.0232H134.213V90.6224H137.61V76.0232Z" fill="#EBEBEB"/>
<path d="M156.253 75.6562L152.905 76.2332L155.385 90.6202L158.733 90.0432L156.253 75.6562Z" fill="#EBEBEB"/>
<path d="M125.396 77.946H121.999V90.6224H125.396V77.946Z" fill="#EBEBEB"/>
<path d="M133.201 77.946H129.804V90.6224H133.201V77.946Z" fill="#EBEBEB"/>
<path d="M152.905 77.946H149.508V90.6224H152.905V77.946Z" fill="#EBEBEB"/>
<path d="M142.073 77.5038L138.757 78.2407L141.507 90.6152L144.823 89.8783L142.073 77.5038Z" fill="#EBEBEB"/>
<path d="M128.33 75.2971H126.632V90.6223H128.33V75.2971Z" fill="#EBEBEB"/>
<path d="M148.535 75.2971H146.837V90.6223H148.535V75.2971Z" fill="#EBEBEB"/>
<path d="M174.178 90.6223H177.575V76.0231H174.178V90.6223Z" fill="#EBEBEB"/>
<path d="M169.972 90.6223H173.369V77.9459H169.972V90.6223Z" fill="#EBEBEB"/>
<path d="M162.166 90.6223H165.563V77.9459H162.166V90.6223Z" fill="#EBEBEB"/>
<path d="M167.033 90.6223H168.731V75.2971H167.033V90.6223Z" fill="#EBEBEB"/>
<path d="M117.788 110.805L177.575 110.805V93.3856H117.788V110.805Z" fill="#E0E0E0"/>
<path d="M139.863 110.805H143.26V96.206H139.863V110.805Z" fill="#EBEBEB"/>
<path d="M118.746 110.224L122.093 110.801L124.573 96.414L121.226 95.837L118.746 110.224Z" fill="#EBEBEB"/>
<path d="M152.077 110.805H155.474V98.1288H152.077V110.805Z" fill="#EBEBEB"/>
<path d="M144.276 110.805H147.673V98.1288H144.276V110.805Z" fill="#EBEBEB"/>
<path d="M124.569 110.805H127.965V98.1288H124.569V110.805Z" fill="#EBEBEB"/>
<path d="M132.662 110.061L135.978 110.798L138.728 98.4236L135.412 97.6867L132.662 110.061Z" fill="#EBEBEB"/>
<path d="M149.142 110.805H150.841V95.48H149.142V110.805Z" fill="#EBEBEB"/>
<path d="M128.942 110.805H130.641V95.48H128.942V110.805Z" fill="#EBEBEB"/>
<path d="M157.822 110.222L161.17 110.799L163.65 96.412L160.302 95.835L157.822 110.222Z" fill="#EBEBEB"/>
<path d="M163.645 110.805H167.042V98.1288H163.645V110.805Z" fill="#EBEBEB"/>
<path d="M171.736 110.059L175.052 110.796L177.802 98.4214L174.487 97.6845L171.736 110.059Z" fill="#EBEBEB"/>
<path d="M168.014 110.805H169.712V95.48H168.014V110.805Z" fill="#EBEBEB"/>
<path d="M190.951 50.0544H179.85V144.628H190.951V50.0544Z" fill="#E0E0E0"/>
<path d="M44.1098 34.8481C44.1098 34.8481 43.6082 31.5393 46.0194 29.4185C48.4306 27.2977 48.2194 26.0349 47.533 25.8677C46.8466 25.7005 46.213 27.8257 45.1438 28.4109C45.1438 28.4109 45.113 25.3837 46.191 24.2705C47.269 23.1573 47.8322 20.3105 46.807 20.2357C45.7818 20.1609 45.6762 21.9429 45.487 23.1881C45.2978 24.4333 44.1318 26.1801 44.1318 26.1801C44.1318 26.1801 43.9074 23.4741 43.2122 22.3609C42.517 21.2477 44.3694 18.7001 43.6522 17.5869C42.935 16.4737 41.6634 18.5945 41.769 20.9837C41.8746 23.3729 43.4674 25.9161 43.089 28.4109C43.089 28.4109 42.3894 26.6509 41.769 26.5013C41.1486 26.3517 40.5018 25.1813 40.0794 24.7413C39.657 24.3013 39.1246 25.7973 40.0794 27.1745C41.0342 28.5517 43.4762 32.2433 43.1022 35.2265L44.1098 34.8481Z" fill="#E6E6E6"/>
<path d="M45.553 33.3433L46.3406 38.3021C46.3986 38.6623 46.3776 39.0308 46.2791 39.3821C46.1806 39.7334 46.0069 40.0591 45.77 40.3366C45.5331 40.6141 45.2387 40.8367 44.9072 40.9891C44.5757 41.1416 44.215 41.2201 43.8502 41.2193H43.0098C42.6449 41.2201 42.2842 41.1416 41.9527 40.9891C41.6212 40.8367 41.3268 40.6141 41.09 40.3366C40.8531 40.0591 40.6793 39.7334 40.5808 39.3821C40.4823 39.0308 40.4613 38.6623 40.5194 38.3021L41.307 33.3433H45.553Z" fill="#E6E6E6"/>
<path d="M33.5985 42.262L89.4653 42.262V39.3932L33.5985 39.3932V42.262Z" fill="#E0E0E0"/>
<path d="M84.4359 39.3889H86.8955V28.8069H84.4359V39.3889Z" fill="#EBEBEB"/>
<path d="M72.5341 39.3889H74.9937V28.8069H72.5341V39.3889Z" fill="#EBEBEB"/>
<path d="M57.2285 38.9692L59.6523 39.387L61.4499 28.9587L59.026 28.5409L57.2285 38.9692Z" fill="#EBEBEB"/>
<path d="M81.3822 39.3889H83.8418V30.2017H81.3822V39.3889Z" fill="#EBEBEB"/>
<path d="M75.7284 39.3889H78.188V30.2017H75.7284V39.3889Z" fill="#EBEBEB"/>
<path d="M61.4462 39.3889H63.9058V30.2017H61.4462V39.3889Z" fill="#EBEBEB"/>
<path d="M67.3099 38.8519L69.7109 39.3855L71.7041 30.4171L69.3031 29.8835L67.3099 38.8519Z" fill="#EBEBEB"/>
<path d="M79.2529 39.3931H80.4849V28.2875H79.2529V39.3931Z" fill="#EBEBEB"/>
<path d="M64.6142 39.3931H65.8462V28.2875H64.6142V39.3931Z" fill="#EBEBEB"/>
<path d="M89.4654 60.8213H33.5986V63.6901H89.4654V60.8213Z" fill="#E0E0E0"/>
<path d="M38.6276 50.2393H36.168V60.8213H38.6276V50.2393Z" fill="#EBEBEB"/>
<path d="M50.5294 50.2393H48.0698V60.8213H50.5294V50.2393Z" fill="#EBEBEB"/>
<path d="M64.0425 49.9745L61.6187 50.3923L63.4162 60.8205L65.84 60.4027L64.0425 49.9745Z" fill="#EBEBEB"/>
<path d="M41.6769 51.634H39.2173V60.8212H41.6769V51.634Z" fill="#EBEBEB"/>
<path d="M47.3351 51.634H44.8755V60.8212H47.3351V51.634Z" fill="#EBEBEB"/>
<path d="M61.6134 51.634H59.1538V60.8212H61.6134V51.634Z" fill="#EBEBEB"/>
<path d="M53.7667 51.3123L51.3657 51.8459L53.3589 60.8143L55.7599 60.2807L53.7667 51.3123Z" fill="#EBEBEB"/>
<path d="M43.8106 49.7112H42.5786V60.8168H43.8106V49.7112Z" fill="#EBEBEB"/>
<path d="M58.4498 49.7112H57.2178V60.8168H58.4498V49.7112Z" fill="#EBEBEB"/>
<path d="M84.1057 52.4436H72.1113V60.7244H84.1057V52.4436Z" fill="#EBEBEB"/>
<path d="M110 163.926C157.116 163.926 195.312 161.696 195.312 158.946C195.312 156.195 157.116 153.965 110 153.965C62.8838 153.965 24.6885 156.195 24.6885 158.946C24.6885 161.696 62.8838 163.926 110 163.926Z" fill="#F5F5F5"/>
<path d="M114.611 107.36C114.611 107.36 116.002 104.328 114.413 101.336C112.825 98.3444 112.363 97.6404 113.379 97.0288C114.396 96.4172 114.858 99.418 114.858 99.418C115.359 98.0607 115.41 96.578 115.003 95.1896C114.299 93.0248 113.859 89.5004 114.818 89.122C115.777 88.7436 115.003 93.522 115.839 95.1456C116.266 94.0028 116.541 92.8091 116.657 91.5948C116.772 89.8348 116.591 87.0804 117.352 86.3676C118.114 85.6548 118.598 86.152 117.854 89.9844C117.404 92.2771 117.156 94.6048 117.11 96.9408C117.11 96.9408 118.76 91.9072 119.869 91.762C120.978 91.6168 120.974 93.2448 120.028 94.6572C119.082 96.0696 117.251 98.6172 116.948 99.9064C116.948 99.9064 118.756 96.118 120.388 97.2664C122.021 98.4148 118.967 100.716 117.612 101.543C116.257 102.37 115.306 107.549 115.306 107.549L114.611 107.36Z" fill="#E89C24"/>
<path opacity="0.2" d="M114.611 107.36C114.611 107.36 116.002 104.328 114.413 101.336C112.825 98.3444 112.363 97.6404 113.379 97.0288C114.396 96.4172 114.858 99.418 114.858 99.418C115.359 98.0607 115.41 96.578 115.003 95.1896C114.299 93.0248 113.859 89.5004 114.818 89.122C115.777 88.7436 115.003 93.522 115.839 95.1456C116.266 94.0028 116.541 92.8091 116.657 91.5948C116.772 89.8348 116.591 87.0804 117.352 86.3676C118.114 85.6548 118.598 86.152 117.854 89.9844C117.404 92.2771 117.156 94.6048 117.11 96.9408C117.11 96.9408 118.76 91.9072 119.869 91.762C120.978 91.6168 120.974 93.2448 120.028 94.6572C119.082 96.0696 117.251 98.6172 116.948 99.9064C116.948 99.9064 118.756 96.118 120.388 97.2664C122.021 98.4148 118.967 100.716 117.612 101.543C116.257 102.37 115.306 107.549 115.306 107.549L114.611 107.36Z" fill="black"/>
<path d="M115.72 108.601C115.72 108.601 114.365 105.547 115.989 102.582C117.612 99.616 118.083 98.9164 117.08 98.2872C116.077 97.658 115.571 100.659 115.571 100.659C115.086 99.293 115.052 97.808 115.474 96.4216C116.204 94.27 116.688 90.7499 115.733 90.3583C114.779 89.9667 115.496 94.7583 114.638 96.3687C114.227 95.2191 113.967 94.0212 113.863 92.8048C113.771 91.0668 113.982 88.2948 113.234 87.5688C112.486 86.8428 111.989 87.3312 112.689 91.1812C113.109 93.4795 113.33 95.8099 113.349 98.1463C113.349 98.1463 111.756 93.0864 110.651 92.9236C109.547 92.7608 109.529 94.3887 110.458 95.8187C111.386 97.2487 113.186 99.8051 113.472 101.099C113.472 101.099 111.712 97.284 110.062 98.4236C108.412 99.5632 111.439 101.891 112.79 102.736C114.141 103.58 115.016 108.777 115.016 108.777L115.72 108.601Z" fill="#E89C24"/>
<path d="M109.463 106.423H120.653L119.746 114.431H110.37L109.463 106.423Z" fill="#263238"/>
<path d="M94.1997 113.885H136.127C136.127 115.584 134.913 116.965 133.377 117.058C128.872 117.282 121.937 118.07 119.737 120.824C115.637 125.954 116.037 150.159 120.943 154.334C122.483 155.654 126.971 158.242 126.971 158.242H103.352C103.352 158.242 107.541 155.602 108.997 154.334C113.881 150.124 114.022 125.932 109.903 120.824C107.791 118.184 101.297 117.352 96.9365 117.088C95.3965 116.992 94.1997 115.584 94.1997 113.885Z" fill="#E89C24"/>
<path opacity="0.7" d="M94.1997 113.885H136.127C136.127 115.584 134.913 116.965 133.377 117.058C128.872 117.282 121.937 118.07 119.737 120.824C115.637 125.954 116.037 150.159 120.943 154.334C122.483 155.654 126.971 158.242 126.971 158.242H103.352C103.352 158.242 107.541 155.602 108.997 154.334C113.881 150.124 114.022 125.932 109.903 120.824C107.791 118.184 101.297 117.352 96.9365 117.088C95.3965 116.992 94.1997 115.584 94.1997 113.885Z" fill="white"/>
<path opacity="0.2" d="M130.931 117.225C126.671 117.603 121.567 118.545 119.741 120.824C119.141 121.624 118.673 122.515 118.355 123.464H111.32C110.994 122.515 110.519 121.623 109.912 120.824C108.077 118.545 102.929 117.608 98.7534 117.225H130.931Z" fill="black"/>
<path d="M78.3861 158.242H74.1621L71.7773 138.719H77.5941L78.3861 158.242Z" fill="#263238"/>
<path d="M35.6182 158.242H39.8466L42.2314 138.719H36.4146L35.6182 158.242Z" fill="#263238"/>
<path d="M95.4711 158.242H91.2471L88.8623 138.719H94.6791L95.4711 158.242Z" fill="#263238"/>
<path d="M52.7031 158.242H56.9315L59.3163 138.719H53.4995L52.7031 158.242Z" fill="#263238"/>
<path opacity="0.2" d="M95.4711 158.242H91.2471L88.8623 138.719H94.6791L95.4711 158.242Z" fill="white"/>
<path opacity="0.2" d="M52.7031 158.242H56.9315L59.3163 138.719H53.4995L52.7031 158.242Z" fill="white"/>
<path d="M90.7458 114.717C91.0054 111.478 93.5134 108.997 96.5186 108.997H83.125C80.1198 108.997 77.6118 111.483 77.3478 114.717L76.0278 131.076H89.4214L90.7458 114.717Z" fill="#E89C24"/>
<path opacity="0.4" d="M90.7458 114.717C91.0054 111.478 93.5134 108.997 96.5186 108.997H83.125C80.1198 108.997 77.6118 111.483 77.3478 114.717L76.0278 131.076H89.4214L90.7458 114.717Z" fill="white"/>
<path opacity="0.2" d="M90.7458 114.717C91.0054 111.478 93.5134 108.997 96.5186 108.997H83.125C80.1198 108.997 77.6118 111.483 77.3478 114.717L76.0278 131.076H89.4214L90.7458 114.717Z" fill="black"/>
<path d="M33.616 94.6353H75.1828C76.8548 94.6353 78.3728 96.1005 78.5752 97.9045L83.4152 140.584H35.8072L30.9672 97.9045C30.7604 96.1005 31.9484 94.6353 33.616 94.6353Z" fill="#E89C24"/>
<path opacity="0.4" d="M33.616 94.6353H75.1828C76.8548 94.6353 78.3728 96.1005 78.5752 97.9045L83.4152 140.584H35.8072L30.9672 97.9045C30.7604 96.1005 31.9484 94.6353 33.616 94.6353Z" fill="white"/>
<path opacity="0.2" d="M45.012 140.571H35.8072L30.9672 97.8913C30.7604 96.0873 31.9484 94.6221 33.6072 94.6221H36.7708C38.4384 94.6221 39.9608 96.0873 40.1632 97.8913L45.012 140.571Z" fill="black"/>
<path d="M48.3999 140.523L46.7323 119.887C46.7098 119.455 46.5413 119.043 46.2543 118.719C45.9673 118.396 45.5789 118.179 45.1527 118.105L44.4663 118.012C43.894 117.914 43.3722 117.624 42.9867 117.19C42.6013 116.756 42.3751 116.203 42.3455 115.623L42.0419 111.861C41.9998 111.511 42.0303 111.156 42.1317 110.818C42.233 110.48 42.403 110.167 42.631 109.897C42.8589 109.628 43.1399 109.409 43.4565 109.253C43.773 109.097 44.1183 109.009 44.4707 108.992H29.0707C28.7183 109.009 28.373 109.097 28.0565 109.253C27.7399 109.409 27.4589 109.628 27.231 109.897C27.003 110.167 26.833 110.48 26.7317 110.818C26.6303 111.156 26.5998 111.511 26.6419 111.861L26.9455 115.623C26.9759 116.203 27.2023 116.755 27.5876 117.189C27.973 117.623 28.4943 117.913 29.0663 118.012L29.7527 118.105C30.1792 118.178 30.5681 118.395 30.8552 118.719C31.1423 119.043 31.3106 119.455 31.3323 119.887L32.9999 140.523C33.0358 141.219 33.3314 141.876 33.8283 142.365C34.3252 142.854 34.9873 143.138 35.6839 143.163H51.0839C50.3873 143.138 49.7252 142.854 49.2283 142.365C48.7314 141.876 48.4358 141.219 48.3999 140.523Z" fill="#E89C24"/>
<path d="M102.467 108.992H96.5182C93.513 108.992 91.005 111.478 90.7454 114.712L89.4254 131.072H57.5254L56.2054 114.712C55.9458 111.474 53.4378 108.992 50.4326 108.992H44.475C44.1226 109.009 43.7773 109.097 43.4608 109.253C43.1442 109.409 42.8632 109.628 42.6353 109.897C42.4073 110.167 42.2373 110.48 42.136 110.818C42.0346 111.156 42.0041 111.511 42.0462 111.861L42.3498 115.623C42.3794 116.203 42.6056 116.756 42.991 117.19C43.3765 117.624 43.8983 117.914 44.4706 118.012L45.157 118.105C45.5832 118.179 45.9716 118.396 46.2586 118.719C46.5455 119.043 46.7141 119.455 46.7366 119.887L48.4042 140.523C48.44 141.218 48.735 141.875 49.231 142.364C49.727 142.852 50.388 143.137 51.0838 143.163H95.8582C96.554 143.137 97.215 142.852 97.711 142.364C98.207 141.875 98.502 141.218 98.5378 140.523L100.205 119.887C100.228 119.455 100.396 119.043 100.683 118.719C100.97 118.396 101.359 118.179 101.785 118.105L102.471 118.012C103.044 117.914 103.565 117.624 103.951 117.19C104.336 116.756 104.563 116.203 104.592 115.623L104.896 111.861C104.938 111.511 104.907 111.156 104.806 110.818C104.705 110.48 104.535 110.167 104.307 109.897C104.079 109.628 103.798 109.409 103.481 109.253C103.165 109.097 102.819 109.009 102.467 108.992Z" fill="#E89C24"/>
<g opacity="0.4">
<path d="M48.3999 140.523L46.7323 119.887C46.7098 119.455 46.5413 119.043 46.2543 118.719C45.9673 118.396 45.5789 118.179 45.1527 118.105L44.4663 118.012C43.894 117.914 43.3722 117.624 42.9867 117.19C42.6013 116.756 42.3751 116.203 42.3455 115.623L42.0419 111.861C41.9998 111.511 42.0303 111.156 42.1317 110.818C42.233 110.48 42.403 110.167 42.631 109.897C42.8589 109.628 43.1399 109.409 43.4565 109.253C43.773 109.097 44.1183 109.009 44.4707 108.992H29.0707C28.7183 109.009 28.373 109.097 28.0565 109.253C27.7399 109.409 27.4589 109.628 27.231 109.897C27.003 110.167 26.833 110.48 26.7317 110.818C26.6303 111.156 26.5998 111.511 26.6419 111.861L26.9455 115.623C26.9759 116.203 27.2023 116.755 27.5876 117.189C27.973 117.623 28.4943 117.913 29.0663 118.012L29.7527 118.105C30.1792 118.178 30.5681 118.395 30.8552 118.719C31.1423 119.043 31.3106 119.455 31.3323 119.887L32.9999 140.523C33.0358 141.219 33.3314 141.876 33.8283 142.365C34.3252 142.854 34.9873 143.138 35.6839 143.163H51.0839C50.3873 143.138 49.7252 142.854 49.2283 142.365C48.7314 141.876 48.4358 141.219 48.3999 140.523Z" fill="white"/>
</g>
<path opacity="0.5" d="M102.467 108.992H96.5182C93.513 108.992 91.005 111.478 90.7454 114.712L89.4254 131.072H57.5254L56.2054 114.712C55.9458 111.474 53.4378 108.992 50.4326 108.992H44.475C44.1226 109.009 43.7773 109.097 43.4608 109.253C43.1442 109.409 42.8632 109.628 42.6353 109.897C42.4073 110.167 42.2373 110.48 42.136 110.818C42.0346 111.156 42.0041 111.511 42.0462 111.861L42.3498 115.623C42.3794 116.203 42.6056 116.756 42.991 117.19C43.3765 117.624 43.8983 117.914 44.4706 118.012L45.157 118.105C45.5832 118.179 45.9716 118.396 46.2586 118.719C46.5455 119.043 46.7141 119.455 46.7366 119.887L48.4042 140.523C48.44 141.218 48.735 141.875 49.231 142.364C49.727 142.852 50.388 143.137 51.0838 143.163H95.8582C96.554 143.137 97.215 142.852 97.711 142.364C98.207 141.875 98.502 141.218 98.5378 140.523L100.205 119.887C100.228 119.455 100.396 119.043 100.683 118.719C100.97 118.396 101.359 118.179 101.785 118.105L102.471 118.012C103.044 117.914 103.565 117.624 103.951 117.19C104.336 116.756 104.563 116.203 104.592 115.623L104.896 111.861C104.938 111.511 104.907 111.156 104.806 110.818C104.705 110.48 104.535 110.167 104.307 109.897C104.079 109.628 103.798 109.409 103.481 109.253C103.165 109.097 102.819 109.009 102.467 108.992Z" fill="white"/>
<path d="M151.8 45.8964C151.681 45.8964 151.615 45.8964 151.606 45.8964L151.633 45.6764C151.681 45.6764 156.372 46.1472 158.008 38.2228C159.61 30.4436 160.776 24.8248 168.494 26.3032C175.732 27.6892 178.2 17.7936 178.2 17.6924L178.416 17.7452C178.394 17.842 176.216 26.6464 169.844 26.6508C169.369 26.65 168.894 26.6028 168.428 26.51C161.269 25.1372 159.94 29.8364 158.198 38.258C156.719 45.4652 152.715 45.8964 151.8 45.8964Z" fill="#E89C24"/>
<path d="M152.487 46.7939C152.307 46.7951 152.128 46.7848 151.95 46.7631L151.985 46.5475C152.038 46.5475 157.239 47.3263 159.403 40.3611C159.782 39.1335 160.085 37.9939 160.376 36.8895C161.744 31.7107 162.646 28.2875 169.123 28.2875C177.267 28.2875 179.894 24.9347 181.496 19.5271L181.703 19.5887C179.78 26.0919 176.37 28.5075 169.123 28.5075C162.8 28.5075 161.977 31.6799 160.6 36.9599C160.31 38.0643 160.006 39.2083 159.623 40.4403C157.806 46.2351 153.912 46.7939 152.487 46.7939Z" fill="#E89C24"/>
<path d="M153.705 48.1317C153.209 48.1365 152.712 48.0967 152.223 48.0129L152.267 47.7973C152.315 47.7973 157.164 48.7565 159.412 45.0693C160.04 43.9118 160.566 42.7016 160.983 41.4525C162.642 37.0261 164.705 31.5085 171.231 31.1873C180.281 30.7473 183.441 28.6133 185.311 21.7185L185.526 21.7757C183.41 29.5153 179.406 31.0157 171.226 31.4073C164.846 31.7241 162.813 37.1625 161.177 41.5273C160.756 42.789 160.224 44.0111 159.588 45.1793C158.07 47.7005 155.382 48.1317 153.705 48.1317Z" fill="#E89C24"/>
<path d="M164.023 28.2832C163.777 28.1732 163.504 28.138 163.275 28.0544C163.042 27.9744 162.818 27.8665 162.611 27.7332C162.409 27.6106 162.224 27.4628 162.061 27.2932C162.031 27.2664 161.994 27.2476 161.955 27.2384C161.916 27.2291 161.875 27.2298 161.836 27.2404C161.813 27.2453 161.791 27.2556 161.771 27.2704C161.752 27.2852 161.737 27.3041 161.726 27.3257C161.716 27.3474 161.71 27.3711 161.71 27.3952C161.71 27.4193 161.716 27.4431 161.726 27.4648L163.169 30.4832C162.855 30.4022 162.525 30.4022 162.21 30.4832C161.519 30.6724 161.123 31.1784 161.33 31.614C161.537 32.0496 162.263 32.252 162.949 32.054C163.636 31.856 164.032 31.3588 163.829 30.9232C163.792 30.849 163.741 30.7819 163.68 30.7252L162.36 27.874L162.47 27.9356C162.715 28.0516 162.971 28.1402 163.235 28.1996C163.508 28.2568 163.755 28.2612 163.997 28.336C164.241 28.4095 164.474 28.5177 164.687 28.6572C164.486 28.4992 164.262 28.3731 164.023 28.2832Z" fill="#263238"/>
<path d="M176.291 27.9576C175.987 27.8212 175.653 27.7772 175.371 27.676C175.083 27.5745 174.807 27.4417 174.548 27.28C174.302 27.1285 174.074 26.9483 173.871 26.7432C173.833 26.711 173.788 26.6882 173.74 26.6767C173.692 26.6652 173.641 26.6654 173.593 26.6772C173.564 26.684 173.537 26.6973 173.514 26.7161C173.49 26.735 173.472 26.7588 173.459 26.7859C173.446 26.813 173.44 26.8427 173.44 26.8726C173.441 26.9025 173.448 26.932 173.461 26.9588L175.221 30.6768C174.833 30.5759 174.426 30.5759 174.038 30.6768C173.184 30.9056 172.718 31.5304 172.955 32.0672C173.193 32.604 174.099 32.8548 174.949 32.6216C175.798 32.3884 176.269 31.768 176.031 31.2268C175.983 31.1367 175.92 31.055 175.846 30.9848L174.227 27.4648L174.363 27.5352C174.664 27.6821 174.982 27.7914 175.309 27.8608C175.639 27.9356 175.947 27.94 176.242 28.0368C176.545 28.1229 176.833 28.255 177.096 28.4284C176.853 28.2315 176.581 28.0727 176.291 27.9576Z" fill="#263238"/>
<path d="M156.816 42.1388C156.631 42.0552 156.429 42.0288 156.257 41.9672C155.919 41.8483 155.612 41.6577 155.355 41.4083C155.332 41.388 155.304 41.3737 155.274 41.3668C155.244 41.3599 155.213 41.3606 155.183 41.3688C155.166 41.3729 155.15 41.3809 155.136 41.392C155.123 41.4032 155.111 41.4174 155.104 41.4334C155.096 41.4494 155.092 41.467 155.092 41.4847C155.092 41.5025 155.097 41.52 155.104 41.5359L156.178 43.7843C155.943 43.7228 155.696 43.7228 155.461 43.7843C154.95 43.9251 154.655 44.3035 154.809 44.6291C154.963 44.9547 155.5 45.1 156.015 44.9636C156.53 44.8272 156.82 44.4444 156.666 44.1188C156.639 44.0639 156.602 44.0146 156.556 43.9736L155.575 41.8483L155.659 41.8968C155.842 41.9822 156.033 42.0471 156.231 42.0904C156.433 42.1344 156.618 42.1387 156.798 42.1959C156.981 42.2488 157.154 42.3289 157.313 42.4336C157.163 42.3116 156.995 42.2123 156.816 42.1388Z" fill="#263238"/>
<path d="M118.712 62.5723L116.512 61.2523C116.359 60.9557 116.16 60.6854 115.922 60.4515C115.606 60.1875 111.386 59.9191 111.267 60.0115C111.148 60.1039 111.307 63.0915 111.527 63.2191C111.747 63.3467 115.069 63.3995 115.399 63.3907C115.623 63.373 115.837 63.2905 116.015 63.1531L118.061 64.6623L118.712 62.5723Z" fill="#E4897B"/>
<path d="M138.16 66.0659C134.706 66.8139 127.745 67.4607 126.874 67.0515C126.003 66.6423 117.92 61.9475 117.92 61.9475L116.354 63.7647C116.354 63.7647 122.707 69.1635 126.795 70.6419C130.882 72.1203 140.435 71.9091 140.435 71.9091C140.435 71.9091 141.816 70.5539 141.574 68.7279C141.332 66.9019 138.16 66.0659 138.16 66.0659Z" fill="#263238"/>
<path d="M174.068 150.977L178.512 154.986L182.327 154.528L177.192 148.887L174.068 150.977Z" fill="#E4897B"/>
<path d="M110.867 151.057L105.947 154.467L102.225 153.534L108.033 148.588L110.867 151.057Z" fill="#E4897B"/>
<path d="M160.6 55.6248L158.273 54.6392C157.952 54.6915 157.625 54.6915 157.305 54.6392C156.913 54.5424 154.273 51.3524 154.269 51.2116C154.264 51.0708 156.719 49.4868 156.957 49.5748C157.195 49.6628 159.135 52.272 159.32 52.5404C159.434 52.7284 159.492 52.9452 159.487 53.1652L161.854 53.9176L160.6 55.6248Z" fill="#E4897B"/>
<path d="M180.105 150.427L176.585 153.833C176.585 153.833 151.113 133.514 150.695 130.112C150.277 126.711 150.695 108.592 150.695 108.592C150.695 108.592 147.294 112.574 142.032 118.483C133.584 127.983 120.344 142.459 108.746 153.393L104.658 150.559C134.077 113.846 143.44 94.2084 143.44 94.2084L144.65 84.9685L161.555 83.4373C161.555 83.4373 165.62 94.0852 164.52 101.992C163.42 109.899 159.24 124.612 159.68 127.578C160.12 130.544 180.105 150.427 180.105 150.427Z" fill="#0D6C61"/>
<path d="M178.226 154.29H182.446C182.515 154.29 182.582 154.313 182.636 154.357C182.69 154.4 182.727 154.46 182.741 154.528L183.427 157.608C183.455 157.741 183.428 157.879 183.354 157.993C183.28 158.107 183.164 158.187 183.031 158.215C182.995 158.219 182.958 158.219 182.921 158.215C181.553 158.193 180.558 158.11 178.847 158.11C177.791 158.11 174.605 158.22 173.127 158.22C171.648 158.22 171.481 156.781 172.075 156.649C174.755 156.064 176.77 155.254 177.628 154.488C177.794 154.346 178.009 154.275 178.226 154.29Z" fill="#263238"/>
<path d="M102.96 152.618L106.779 154.414C106.842 154.444 106.892 154.494 106.922 154.556C106.953 154.618 106.961 154.689 106.946 154.757L106.247 157.837C106.231 157.902 106.203 157.964 106.164 158.018C106.124 158.073 106.075 158.119 106.017 158.154C105.96 158.189 105.897 158.212 105.83 158.223C105.764 158.234 105.696 158.231 105.631 158.215L105.525 158.18C104.298 157.577 103.435 157.08 101.882 156.35C100.927 155.91 97.9968 154.642 96.6768 154.022C95.3568 153.402 95.7968 152.016 96.3952 152.152C99.066 152.764 101.235 152.887 102.34 152.557C102.547 152.501 102.768 152.523 102.96 152.618Z" fill="#263238"/>
<path d="M143.906 87.4721L162.347 85.4041L162.593 87.5996L143.889 89.4652L143.906 87.4721Z" fill="black"/>
<path d="M156.305 85.0843L155.645 85.1582L156.081 89.0542L156.741 88.9803L156.305 85.0843Z" fill="#E89C24"/>
<path d="M146.975 86.1341L146.315 86.208L146.751 90.104L147.412 90.0301L146.975 86.1341Z" fill="#E89C24"/>
<path d="M152.264 86.1505L148.854 86.5325L149.129 88.9899L152.539 88.6079L152.264 86.1505Z" fill="white"/>
<path d="M143.933 87.7711C141.966 73.4799 138.16 66.0659 138.16 66.0659C146.872 62.7043 157.811 60.9927 157.811 60.9927C160.855 68.7939 162.048 79.9479 162.448 85.9231L143.933 87.7711Z" fill="#263238"/>
<path d="M151.426 62.2335C150.48 64.1651 146.643 65.1199 146.643 65.1199C146.643 65.1199 144.131 65.3927 144.325 64.4951C145.574 63.7471 145.975 62.8671 145.931 61.9651C145.879 61.4363 145.73 60.9216 145.491 60.4471C145.479 60.4275 145.468 60.4069 145.46 60.3855C145.328 60.1127 145.169 59.8399 145.02 59.5803L148.201 54.4807C148.425 56.4387 149.033 59.6243 150.353 61.3183C150.636 61.7015 151.003 62.0146 151.426 62.2335Z" fill="#E4897B"/>
<path opacity="0.2" d="M150.348 61.3007C150.26 61.4855 150.159 61.6043 150.044 61.6351C148.284 62.1191 146.665 61.3447 145.495 60.4295C145.483 60.4099 145.472 60.3893 145.464 60.3679C145.332 60.0951 145.174 59.8223 145.024 59.5627L148.205 54.4631C148.421 56.4211 149.028 59.6067 150.348 61.3007Z" fill="black"/>
<path d="M157.806 60.9928C157.806 60.9928 166.091 60.2668 166.21 59.1448C166.329 58.0228 159.245 55.2728 159.245 55.2728L160.464 53.2136C160.464 53.2136 167.719 55.1408 170.505 57.3364C173.29 59.532 172.08 62.7352 159.685 67.0516C159.685 67.0516 156.363 64.196 157.806 60.9928Z" fill="#263238"/>
<path opacity="0.3" d="M151.391 100.571L150.7 108.592C150.7 108.592 147.299 112.574 142.036 118.483C147.62 109.468 149.129 103.259 149.129 103.259C147.307 100.826 147.118 96.9365 147.118 96.9365L151.391 100.571Z" fill="black"/>
<path d="M150.3 81.0569C153.109 81.0569 155.386 78.5886 155.386 75.5437C155.386 72.4989 153.109 70.0305 150.3 70.0305C147.491 70.0305 145.213 72.4989 145.213 75.5437C145.213 78.5886 147.491 81.0569 150.3 81.0569Z" fill="white"/>
<path d="M152.504 74.1664C152.187 73.9112 151.805 73.7572 151.505 73.5504C151.197 73.3438 150.913 73.1016 150.661 72.8288C150.415 72.5763 150.202 72.2939 150.027 71.9884C149.993 71.9381 149.947 71.8969 149.893 71.8685C149.84 71.8401 149.78 71.8254 149.719 71.8256C149.683 71.8242 149.647 71.831 149.614 71.8456C149.581 71.8601 149.551 71.882 149.528 71.9096C149.505 71.9371 149.488 71.9697 149.479 72.0047C149.47 72.0397 149.47 72.0763 149.477 72.1116L150.423 77.0528C149.99 76.8211 149.506 76.703 149.015 76.7096C147.941 76.7096 147.176 77.308 147.308 78.0296C147.44 78.7512 148.421 79.31 149.508 79.3012C150.595 79.2924 151.347 78.7028 151.215 77.9812C151.19 77.8569 151.141 77.7388 151.07 77.6336L150.247 72.9872C150.291 73.0312 150.335 73.0752 150.383 73.1148C150.695 73.379 151.036 73.6064 151.4 73.7924C151.769 73.986 152.13 74.0784 152.451 74.2852C152.78 74.4831 153.076 74.7294 153.331 75.0156C153.103 74.6903 152.823 74.4036 152.504 74.1664Z" fill="#E89C24"/>
<path d="M153.014 71.3107C152.921 71.3013 152.832 71.2726 152.75 71.2263C152.669 71.1801 152.599 71.1174 152.543 71.0423C148.887 67.0471 150.537 54.9603 150.607 54.4455L150.827 54.4763C150.827 54.6039 149.12 66.9767 152.706 70.8971C152.856 71.0555 152.979 71.1171 153.08 71.0775C154.189 70.6375 153.899 61.5075 153.775 57.6135C153.709 55.4839 153.705 55.1803 153.753 55.0967C153.938 54.7755 155.104 54.2167 155.337 54.0935L155.434 54.2915C154.896 54.5201 154.395 54.827 153.947 55.2023C153.925 55.3079 153.947 56.3727 153.995 57.6091C154.198 63.9759 154.317 70.8091 153.164 71.2799C153.117 71.301 153.066 71.3115 153.014 71.3107Z" fill="#E89C24"/>
<g opacity="0.2">
<path d="M153.014 71.3107C152.921 71.3013 152.832 71.2726 152.75 71.2263C152.669 71.1801 152.599 71.1174 152.543 71.0423C148.887 67.0471 150.537 54.9603 150.607 54.4455L150.827 54.4763C150.827 54.6039 149.12 66.9767 152.706 70.8971C152.856 71.0555 152.979 71.1171 153.08 71.0775C154.189 70.6375 153.899 61.5075 153.775 57.6135C153.709 55.4839 153.705 55.1803 153.753 55.0967C153.938 54.7755 155.104 54.2167 155.337 54.0935L155.434 54.2915C154.896 54.5201 154.395 54.827 153.947 55.2023C153.925 55.3079 153.947 56.3727 153.995 57.6091C154.198 63.9759 154.317 70.8091 153.164 71.2799C153.117 71.301 153.066 71.3115 153.014 71.3107Z" fill="black"/>
</g>
<path d="M153.161 51.801L154.308 54.5787C154.377 54.7449 154.567 54.824 154.734 54.7554L160.464 52.3889C160.63 52.3202 160.709 52.1298 160.64 51.9636L159.493 49.186C159.425 49.0198 159.234 48.9407 159.068 49.0093L153.338 51.3758C153.172 51.4445 153.093 51.6348 153.161 51.801Z" fill="#E89C24"/>
<path opacity="0.4" d="M153.161 51.801L154.308 54.5787C154.377 54.7449 154.567 54.824 154.734 54.7554L160.464 52.3889C160.63 52.3202 160.709 52.1298 160.64 51.9636L159.493 49.186C159.425 49.0198 159.234 48.9407 159.068 49.0093L153.338 51.3758C153.172 51.4445 153.093 51.6348 153.161 51.801Z" fill="white"/>
<path d="M153.279 52.0838L154.426 54.8614C154.495 55.0276 154.685 55.1067 154.851 55.0381L160.581 52.6716C160.748 52.6029 160.827 52.4125 160.758 52.2463L159.611 49.4687C159.542 49.3025 159.352 49.2234 159.186 49.292L153.456 51.6585C153.289 51.7272 153.21 51.9176 153.279 52.0838Z" fill="#E89C24"/>
<path opacity="0.7" d="M153.279 52.0838L154.426 54.8614C154.495 55.0276 154.685 55.1067 154.851 55.0381L160.581 52.6716C160.748 52.6029 160.827 52.4125 160.758 52.2463L159.611 49.4687C159.542 49.3025 159.352 49.2234 159.186 49.292L153.456 51.6585C153.289 51.7272 153.21 51.9176 153.279 52.0838Z" fill="white"/>
<path d="M153.625 51.8999L154.846 54.8564L160.381 52.5706L159.16 49.614L153.625 51.8999Z" fill="#E89C24"/>
<path opacity="0.2" d="M154.83 51.7015L155.838 54.1416L158.453 53.0617L157.445 50.6216L154.83 51.7015Z" fill="black"/>
<path opacity="0.4" d="M158.139 52.8219L158.207 52.9846L158.39 52.909L158.322 52.7464L158.139 52.8219Z" fill="white"/>
<path opacity="0.4" d="M157.618 52.7067L157.686 52.8694L158.275 52.6259L158.208 52.4632L157.618 52.7067Z" fill="white"/>
<path opacity="0.4" d="M157.112 52.5946L157.179 52.7573L158.176 52.3462L158.109 52.1835L157.112 52.5946Z" fill="white"/>
<path opacity="0.4" d="M157.385 52.1427L157.452 52.3054L158.042 52.0619L157.975 51.8992L157.385 52.1427Z" fill="white"/>
<path opacity="0.4" d="M156.862 52.0317L156.929 52.1943L157.925 51.7828L157.858 51.6202L156.862 52.0317Z" fill="white"/>
<path opacity="0.4" d="M155.933 52.089L156 52.2517L157.81 51.5043L157.743 51.3416L155.933 52.089Z" fill="white"/>
<path opacity="0.4" d="M157.038 51.3034L157.105 51.4661L157.695 51.2225L157.627 51.0599L157.038 51.3034Z" fill="white"/>
<path opacity="0.4" d="M157.237 51.6538L157.304 51.8157L157.486 51.7404L157.419 51.5785L157.237 51.6538Z" fill="white"/>
<path d="M158.426 51.2336C158.497 51.2038 158.575 51.1956 158.65 51.2101C158.725 51.2246 158.794 51.2611 158.849 51.315C158.903 51.3689 158.941 51.4377 158.956 51.5128C158.971 51.5879 158.964 51.6659 158.935 51.7368C158.906 51.8078 158.857 51.8685 158.793 51.9113C158.73 51.9542 158.655 51.9772 158.578 51.9775C158.502 51.9778 158.427 51.9554 158.363 51.913C158.299 51.8706 158.249 51.8103 158.219 51.7396C158.18 51.645 158.179 51.5387 158.218 51.4438C158.257 51.349 158.332 51.2734 158.426 51.2336Z" fill="white"/>
<path d="M158.399 51.6964L158.441 51.7981L158.795 51.6519L158.753 51.5502L158.399 51.6964Z" fill="#E89C24"/>
<path d="M158.325 51.5267L158.367 51.6284L158.721 51.4824L158.679 51.3807L158.325 51.5267Z" fill="#E89C24"/>
<path d="M158.07 50.3712C158.117 50.3519 158.167 50.3419 158.217 50.3418C158.267 50.3417 158.317 50.3516 158.364 50.3708C158.41 50.39 158.453 50.4182 158.488 50.4537C158.524 50.4893 158.552 50.5315 158.572 50.578C158.591 50.6246 158.601 50.6744 158.601 50.7248C158.601 50.7752 158.592 50.8251 158.572 50.8717C158.553 50.9183 158.525 50.9606 158.489 50.9963C158.454 51.032 158.412 51.0603 158.365 51.0796C158.319 51.099 158.269 51.109 158.218 51.1091C158.168 51.1092 158.118 51.0993 158.071 51.0801C158.025 51.0609 157.982 51.0327 157.947 50.9972C157.911 50.9616 157.883 50.9194 157.863 50.8728C157.844 50.8263 157.834 50.7765 157.834 50.7261C157.834 50.6757 157.844 50.6258 157.863 50.5792C157.882 50.5326 157.91 50.4903 157.946 50.4546C157.981 50.4189 158.024 50.3906 158.07 50.3712Z" fill="white"/>
<path d="M158.021 50.7583L158.378 50.6131L158.131 50.5251L158.021 50.7583Z" fill="#E89C24"/>
<path d="M158.087 50.9212L158.444 50.7716L158.202 50.6836L158.087 50.9212Z" fill="#E89C24"/>
<path d="M159.077 52.7999C159.149 52.7714 159.21 52.7223 159.253 52.6589C159.297 52.5955 159.32 52.5206 159.321 52.4439C159.321 52.3671 159.299 52.2918 159.257 52.2277C159.215 52.1635 159.155 52.1134 159.084 52.0836C159.013 52.0538 158.935 52.0457 158.86 52.0603C158.784 52.075 158.715 52.1117 158.661 52.1659C158.606 52.22 158.569 52.2891 158.554 52.3644C158.539 52.4397 158.546 52.5178 158.576 52.5887C158.595 52.6357 158.623 52.6784 158.658 52.7145C158.694 52.7506 158.736 52.7793 158.783 52.799C158.829 52.8186 158.879 52.8288 158.93 52.829C158.981 52.8291 159.031 52.8192 159.077 52.7999Z" fill="white"/>
<path d="M158.77 52.5712L159.126 52.4216L159.012 52.6592L158.77 52.5712Z" fill="#E89C24"/>
<path d="M158.704 52.4084L159.06 52.2632L158.946 52.4964L158.704 52.4084Z" fill="#E89C24"/>
<path d="M151.681 51.1149C152.535 52.5933 152.315 54.3225 151.188 54.9737C150.062 55.6249 148.46 54.9473 147.607 53.4689C146.753 51.9905 146.969 50.2613 148.095 49.6145C149.221 48.9677 150.827 49.6365 151.681 51.1149Z" fill="#263238"/>
<path opacity="0.2" d="M151.681 51.1149C152.535 52.5933 152.315 54.3225 151.188 54.9737C150.062 55.6249 148.46 54.9473 147.607 53.4689C146.753 51.9905 146.969 50.2613 148.095 49.6145C149.221 48.9677 150.827 49.6365 151.681 51.1149Z" fill="white"/>
<path d="M150.537 51.7747C151.131 52.8043 150.977 54.0055 150.194 54.4587C149.411 54.9119 148.298 54.4587 147.704 53.4115C147.11 52.3643 147.264 51.1851 148.042 50.7319C148.821 50.2787 149.943 50.7495 150.537 51.7747Z" fill="#E89C24"/>
<path d="M147.466 46.7061C149.103 47.0361 150.546 50.2657 149.402 53.0949C148.258 55.9241 143.656 48.5937 143.656 48.5937C143.656 48.5937 146.423 46.4949 147.466 46.7061Z" fill="#263238"/>
<path d="M145.297 60.0425C146.143 60.4151 147.088 60.4998 147.987 60.2836C148.886 60.0674 149.689 59.5623 150.273 58.8457C151.049 57.9349 151.447 56.7623 151.386 55.5677C151.386 55.4049 151.36 55.2377 151.338 55.0705C150.854 52.0169 148.535 47.5905 144.997 47.6213C144.216 47.6219 143.448 47.8225 142.766 48.2039C142.084 48.5853 141.51 49.1349 141.101 49.8004C140.691 50.4658 140.459 51.225 140.425 52.0058C140.392 52.7865 140.559 53.5628 140.91 54.2609C142.366 57.2705 143.083 59.1097 145.297 60.0425Z" fill="#E4897B"/>
<path d="M146.445 53.5171C146.278 53.5875 146.045 53.4423 145.961 53.1871C145.948 53.1576 145.939 53.1266 145.935 53.0947C145.969 53.1797 146.031 53.2503 146.111 53.2944C146.192 53.3385 146.285 53.3535 146.375 53.3367C146.511 53.2795 146.564 53.0947 146.524 52.8967C146.533 52.912 146.541 52.9282 146.546 52.9451C146.656 53.1915 146.612 53.4511 146.445 53.5171Z" fill="#263238"/>
<path d="M149.292 52.3599C149.129 52.4303 148.892 52.2851 148.804 52.0299C148.786 51.989 148.773 51.9462 148.764 51.9023C148.861 52.1267 149.077 52.2411 149.204 52.1751C149.332 52.1091 149.398 51.9199 149.349 51.7087C149.349 51.7307 149.349 51.7527 149.38 51.7791C149.503 52.0123 149.455 52.2763 149.292 52.3599Z" fill="#263238"/>
<path d="M147.95 52.5095C148.568 53.1541 149.271 53.7107 150.04 54.1639C149.918 54.3593 149.755 54.5255 149.562 54.6509C149.369 54.7764 149.151 54.8579 148.923 54.8899L147.95 52.5095Z" fill="#DE5753"/>
<path d="M149.358 50.3623C149.339 50.3848 149.314 50.4022 149.287 50.413C149.259 50.4237 149.229 50.4275 149.2 50.4239C149.003 50.3858 148.801 50.3941 148.608 50.4484C148.416 50.5026 148.238 50.6013 148.091 50.7363C148.077 50.7516 148.06 50.764 148.041 50.7727C148.022 50.7815 148.001 50.7864 147.98 50.7872C147.96 50.788 147.939 50.7847 147.919 50.7775C147.9 50.7703 147.882 50.7593 147.866 50.7451C147.851 50.731 147.839 50.7139 147.83 50.695C147.821 50.6761 147.816 50.6556 147.816 50.6348C147.815 50.6139 147.818 50.5931 147.825 50.5736C147.832 50.554 147.843 50.536 147.858 50.5207C148.04 50.3451 148.262 50.2158 148.505 50.1438C148.747 50.0718 149.004 50.0592 149.252 50.1071C149.273 50.1098 149.293 50.1167 149.312 50.1272C149.33 50.1378 149.346 50.1519 149.359 50.1687C149.371 50.1855 149.38 50.2047 149.386 50.2251C149.391 50.2455 149.392 50.2667 149.389 50.2875C149.381 50.3133 149.37 50.3383 149.358 50.3623Z" fill="#263238"/>
<path d="M144.927 52.2808C144.898 52.292 144.865 52.292 144.835 52.2808C144.816 52.2724 144.799 52.2601 144.784 52.2447C144.77 52.2293 144.759 52.2111 144.752 52.1914C144.745 52.1716 144.742 52.1506 144.744 52.1297C144.745 52.1087 144.751 52.0883 144.76 52.0696C144.87 51.8396 145.034 51.6395 145.238 51.4863C145.441 51.3331 145.679 51.2313 145.931 51.1896C145.951 51.1866 145.973 51.1878 145.993 51.1933C146.014 51.1989 146.033 51.2085 146.049 51.2217C146.066 51.2349 146.079 51.2514 146.089 51.2701C146.099 51.2888 146.105 51.3093 146.107 51.3304C146.109 51.372 146.096 51.4132 146.07 51.4457C146.044 51.4783 146.007 51.4999 145.966 51.5064C145.769 51.5439 145.583 51.6271 145.424 51.7494C145.265 51.8717 145.137 52.0296 145.051 52.2104C145.037 52.2312 145.019 52.2484 144.998 52.2607C144.976 52.2729 144.952 52.2798 144.927 52.2808Z" fill="#263238"/>
<path d="M141.587 49.4692L141.851 49.9092C141.526 50.3492 142.019 51.8012 142.467 52.2324C143.422 53.152 143.607 55.1892 143.07 56.2892C143.07 56.2892 142.815 55.814 142.459 56.122C142.102 56.43 143.405 58.9072 144.773 59.7388C144.773 59.7388 143.053 59.2152 141.117 56.8832C139.33 54.7228 138.292 52.7076 138.349 51.5196L141.587 49.4692Z" fill="#263238"/>
<path d="M140.611 57.3539C141.242 57.9102 142.068 58.1935 142.908 58.1415C144.021 58.0667 144.206 56.9799 143.59 56.1219C143.031 55.3651 141.777 54.4631 140.809 54.9691C139.841 55.4751 139.841 56.6587 140.611 57.3539Z" fill="#E4897B"/>
<path d="M149.063 55.7656C149.052 56.1904 149.073 56.6154 149.125 57.0372L148.909 57.0988C147.932 57.3716 147.391 57.1736 147.083 56.8744C146.937 56.7246 146.828 56.5421 146.766 56.342C146.73 56.2294 146.707 56.1126 146.7 55.9944C147.379 56.0945 148.071 56.0465 148.729 55.8536C148.842 55.8305 148.953 55.8011 149.063 55.7656Z" fill="#263238"/>
<path d="M148.72 55.8535V56.2319C147.8 56.4871 147.118 56.5399 146.749 56.3419C146.712 56.2293 146.69 56.1125 146.683 55.9943C147.364 56.0957 148.059 56.0477 148.72 55.8535Z" fill="white"/>
<path d="M148.909 57.0988C147.932 57.3716 147.391 57.1736 147.083 56.8744C147.456 56.7776 147.843 56.7478 148.227 56.7864C148.481 56.8171 148.72 56.9263 148.909 57.0988Z" fill="#DE5753"/>
<path d="M138.693 53.0641C138.011 52.4965 137.373 51.0577 138.97 48.7521C140.567 46.4465 145.13 44.4885 147.083 45.0121C149.037 45.5357 148.892 48.2329 146.256 49.8829L147.083 48.6641C147.083 48.6641 145.209 50.3669 143.656 51.0181C144.405 50.3926 145.021 49.6218 145.464 48.7521C145.464 48.7521 142.538 50.8157 140.884 51.3921C139.978 51.6718 139.201 52.2645 138.693 53.0641Z" fill="#263238"/>
<path d="M143.629 55.0616C144.483 56.5444 144.263 58.2692 143.136 58.9204C142.01 59.5716 140.404 58.9204 139.55 57.4156C138.697 55.9108 138.917 54.2124 140.043 53.5612C141.17 52.91 142.771 53.5832 143.629 55.0616Z" fill="#263238"/>
<path opacity="0.2" d="M143.629 55.0616C144.483 56.5444 144.263 58.2692 143.136 58.9204C142.01 59.5716 140.404 58.9204 139.55 57.4156C138.697 55.9108 138.917 54.2124 140.043 53.5612C141.17 52.91 142.771 53.5832 143.629 55.0616Z" fill="white"/>
<path d="M140.998 54.8901C140.998 54.8901 139.238 48.7609 141.588 46.5037C141.375 46.5364 141.167 46.5985 140.972 46.6885C140.593 46.8513 138.098 49.4649 139.753 55.1497L140.998 54.8901Z" fill="#E89C24"/>
<path opacity="0.2" d="M140.998 54.8901C140.998 54.8901 139.238 48.7609 141.588 46.5037C141.375 46.5364 141.167 46.5985 140.972 46.6885C140.593 46.8513 138.098 49.4649 139.753 55.1497L140.998 54.8901Z" fill="black"/>
<path d="M146.195 67.3815C145.491 67.3838 144.804 67.172 144.223 66.7743C141.311 64.8031 141.447 58.4143 141.451 58.1195C141.455 58.0914 141.469 58.0656 141.49 58.0464C141.511 58.0271 141.537 58.0157 141.566 58.0139C141.58 58.0139 141.595 58.0169 141.608 58.0227C141.622 58.0286 141.634 58.0371 141.644 58.0479C141.654 58.0586 141.661 58.0714 141.666 58.0852C141.671 58.099 141.673 58.1137 141.671 58.1283C141.671 58.1899 141.535 64.6887 144.347 66.5895C147.158 68.4903 150.419 65.0979 150.454 65.0671C150.464 65.0566 150.476 65.0482 150.489 65.0425C150.502 65.0367 150.516 65.0338 150.531 65.0338C150.545 65.0338 150.559 65.0367 150.573 65.0425C150.586 65.0482 150.598 65.0566 150.608 65.0671C150.628 65.0877 150.639 65.1153 150.639 65.1441C150.639 65.1729 150.628 65.2006 150.608 65.2211C150.586 65.2431 148.505 67.3815 146.195 67.3815Z" fill="#E89C24"/>
<g opacity="0.2">
<path d="M146.195 67.3815C145.491 67.3838 144.804 67.172 144.223 66.7743C141.311 64.8031 141.447 58.4143 141.451 58.1195C141.455 58.0914 141.469 58.0656 141.49 58.0464C141.511 58.0271 141.537 58.0157 141.566 58.0139C141.58 58.0139 141.595 58.0169 141.608 58.0227C141.622 58.0286 141.634 58.0371 141.644 58.0479C141.654 58.0586 141.661 58.0714 141.666 58.0852C141.671 58.099 141.673 58.1137 141.671 58.1283C141.671 58.1899 141.535 64.6887 144.347 66.5895C147.158 68.4903 150.419 65.0979 150.454 65.0671C150.464 65.0566 150.476 65.0482 150.489 65.0425C150.502 65.0367 150.516 65.0338 150.531 65.0338C150.545 65.0338 150.559 65.0367 150.573 65.0425C150.586 65.0482 150.598 65.0566 150.608 65.0671C150.628 65.0877 150.639 65.1153 150.639 65.1441C150.639 65.1729 150.628 65.2006 150.608 65.2211C150.586 65.2431 148.505 67.3815 146.195 67.3815Z" fill="black"/>
</g>
<path d="M142.481 55.7261C143.075 56.7513 142.921 57.9525 142.142 58.4057C141.363 58.8589 140.241 58.4057 139.647 57.3629C139.053 56.3201 139.207 55.1321 139.99 54.6789C140.774 54.2257 141.887 54.6965 142.481 55.7261Z" fill="#E89C24"/>
</svg>
