<svg width="220" height="164" viewBox="0 0 220 164" fill="none" xmlns="http://www.w3.org/2000/svg">
<path d="M220 144.056H0V144.166H220V144.056Z" fill="#EBEBEB"/>
<path d="M197.956 151.136H183.383V151.246H197.956V151.136Z" fill="#EBEBEB"/>
<path d="M145.737 152.332H141.913V152.442H145.737V152.332Z" fill="#EBEBEB"/>
<path d="M182.943 147.052H174.5V147.162H182.943V147.052Z" fill="#EBEBEB"/>
<path d="M42.0861 147.792H23.0825V147.902H42.0861V147.792Z" fill="#EBEBEB"/>
<path d="M48.7915 147.792H46.0063V147.902H48.7915V147.792Z" fill="#EBEBEB"/>
<path d="M99.0659 149.648H57.8467V149.758H99.0659V149.648Z" fill="#EBEBEB"/>
<path d="M104.28 124.432H19.3205C18.6549 124.431 18.017 124.166 17.5468 123.695C17.0766 123.224 16.8125 122.585 16.8125 121.92V2.4904C16.8183 1.82865 17.0849 1.19591 17.5545 0.729616C18.0241 0.263322 18.6587 0.00113361 19.3205 0H104.28C104.946 0 105.585 0.264699 106.057 0.735865C106.528 1.20703 106.793 1.84607 106.793 2.5124V121.92C106.793 122.586 106.528 123.225 106.057 123.696C105.585 124.167 104.946 124.432 104.28 124.432ZM19.3205 0.0880003C18.6841 0.0891659 18.0742 0.342789 17.6246 0.7932C17.175 1.24361 16.9225 1.85401 16.9225 2.4904V121.92C16.9225 122.556 17.175 123.166 17.6246 123.617C18.0742 124.067 18.6841 124.321 19.3205 124.322H104.28C104.917 124.321 105.527 124.067 105.978 123.617C106.428 123.167 106.681 122.556 106.683 121.92V2.4904C106.681 1.8536 106.428 1.24322 105.978 0.792931C105.527 0.342646 104.917 0.0891635 104.28 0.0880003H19.3205Z" fill="#EBEBEB"/>
<path d="M199.456 124.432H114.492C113.826 124.431 113.188 124.166 112.717 123.695C112.246 123.224 111.981 122.586 111.98 121.92V2.4904C111.987 1.82825 112.255 1.19551 112.725 0.729341C113.195 0.263168 113.83 0.00112125 114.492 0H199.456C200.117 0.00228998 200.751 0.26499 201.22 0.73116C201.688 1.19733 201.954 1.82941 201.96 2.4904V121.92C201.96 122.584 201.697 123.222 201.227 123.693C200.758 124.164 200.121 124.43 199.456 124.432ZM114.492 0.0880003C113.856 0.0891635 113.245 0.342646 112.795 0.792931C112.345 1.24322 112.091 1.8536 112.09 2.4904V121.92C112.091 122.556 112.345 123.167 112.795 123.617C113.245 124.067 113.856 124.321 114.492 124.322H199.456C200.093 124.321 200.704 124.067 201.154 123.617C201.604 123.167 201.858 122.556 201.859 121.92V2.4904C201.858 1.8536 201.604 1.24322 201.154 0.792931C200.704 0.342646 200.093 0.0891635 199.456 0.0880003H114.492Z" fill="#EBEBEB"/>
<path d="M101.006 71.9532V16.7068L29.9112 16.7068V71.9532H101.006Z" fill="#E0E0E0"/>
<path d="M30.897 70.9675L100.021 70.9675V17.6923L30.897 17.6923V70.9675Z" fill="#EBEBEB"/>
<path d="M64.5171 27.3152H64.0771V34.7424H64.5171V27.3152Z" fill="#E0E0E0"/>
<path d="M47.6255 58.6609H47.1855V34.5269H78.9799V48.4661H78.5399V34.9669H47.6255V58.6609Z" fill="#E0E0E0"/>
<path d="M88.1055 56.0209H87.6655V48.6861H70.8707V55.7657H70.4307V48.2461H88.1055V56.0209Z" fill="#E0E0E0"/>
<path d="M72.2258 24.5872H56.3682V30.0476H72.2258V24.5872Z" fill="#F5F5F5"/>
<path d="M86.5525 37.686H71.4385V43.6172H86.5525V37.686Z" fill="#F5F5F5"/>
<path d="M75.8386 52.7075H65.459V58.8235H75.8386V52.7075Z" fill="#F5F5F5"/>
<path d="M93.4469 53.6975H82.3281V58.3439H93.4469V53.6975Z" fill="#F5F5F5"/>
<path d="M57.2836 38.9399H40.1104V46.8643H57.2836V38.9399Z" fill="#F5F5F5"/>
<path d="M52.8881 55.7656H41.9233V61.556H52.8881V55.7656Z" fill="#F5F5F5"/>
<path d="M66.6665 34.9368L64.2988 32.5691L61.9312 34.9368L64.2988 37.3044L66.6665 34.9368Z" fill="#F5F5F5"/>
<path d="M81.1323 48.4619L78.7646 46.0942L76.397 48.4619L78.7646 50.8296L81.1323 48.4619Z" fill="#F5F5F5"/>
<path d="M173.782 26.0127H129.963V28.2655H173.782V26.0127Z" fill="#E0E0E0"/>
<path d="M133.91 17.7144H131.978V26.0128H133.91V17.7144Z" fill="#EBEBEB"/>
<path d="M143.247 17.7144H141.315V26.0128H143.247V17.7144Z" fill="#EBEBEB"/>
<path d="M153.844 17.4983L151.94 17.8264L153.35 26.0042L155.254 25.6761L153.844 17.4983Z" fill="#EBEBEB"/>
<path d="M136.303 18.8057H134.372V26.0129H136.303V18.8057Z" fill="#EBEBEB"/>
<path d="M140.738 18.8057H138.807V26.0129H140.738V18.8057Z" fill="#EBEBEB"/>
<path d="M151.941 18.8057H150.009V26.0129H151.941V18.8057Z" fill="#EBEBEB"/>
<path d="M145.781 18.5468L143.895 18.9658L145.459 26.0014L147.344 25.5823L145.781 18.5468Z" fill="#EBEBEB"/>
<path d="M137.971 17.3008H137.007V26.0128H137.971V17.3008Z" fill="#EBEBEB"/>
<path d="M149.45 17.3008H148.487V26.0128H149.45V17.3008Z" fill="#EBEBEB"/>
<path d="M169.581 19.4436H160.173V25.938H169.581V19.4436Z" fill="#EBEBEB"/>
<path d="M129.963 45.0735L173.782 45.0735V42.8207L129.963 42.8207V45.0735Z" fill="#E0E0E0"/>
<path d="M169.835 42.8208H171.767V34.5224H169.835V42.8208Z" fill="#EBEBEB"/>
<path d="M160.499 42.8208H162.431V34.5224H160.499V42.8208Z" fill="#EBEBEB"/>
<path d="M148.496 42.4898L150.399 42.8179L151.809 34.6401L149.905 34.312L148.496 42.4898Z" fill="#EBEBEB"/>
<path d="M167.442 42.8208H169.374V35.6136H167.442V42.8208Z" fill="#EBEBEB"/>
<path d="M163.002 42.8208H164.934V35.6136H163.002V42.8208Z" fill="#EBEBEB"/>
<path d="M151.804 42.8208H153.736V35.6136H151.804V42.8208Z" fill="#EBEBEB"/>
<path d="M156.408 42.3932L158.294 42.8123L159.858 35.7767L157.972 35.3577L156.408 42.3932Z" fill="#EBEBEB"/>
<path d="M165.774 42.8208H166.738V34.1088H165.774V42.8208Z" fill="#EBEBEB"/>
<path d="M154.295 42.8208H155.258V34.1088H154.295V42.8208Z" fill="#EBEBEB"/>
<path d="M134.169 42.7461H143.577V36.2517H134.169V42.7461Z" fill="#EBEBEB"/>
<path d="M164.186 56.1133H139.607V143.735H164.186V56.1133Z" fill="#F5F5F5"/>
<path d="M162.065 58.6123H141.729V141.746H162.065V58.6123Z" fill="#EBEBEB"/>
<path d="M158.36 61.0588H145.429V61.9168H158.36V61.0588Z" fill="#E0E0E0"/>
<path d="M158.36 64.7593H145.429V65.6173H158.36V64.7593Z" fill="#E0E0E0"/>
<path d="M158.36 68.4641H145.429V69.3221H158.36V68.4641Z" fill="#E0E0E0"/>
<path d="M158.36 72.1689H145.429V73.0269H158.36V72.1689Z" fill="#E0E0E0"/>
<path d="M158.36 75.8735H145.429V76.7315H158.36V75.8735Z" fill="#E0E0E0"/>
<path d="M158.36 79.574H145.429V80.432H158.36V79.574Z" fill="#E0E0E0"/>
<path d="M158.36 83.2788H145.429V84.1368H158.36V83.2788Z" fill="#E0E0E0"/>
<path d="M158.36 113.401H145.429V114.259H158.36V113.401Z" fill="#E0E0E0"/>
<path d="M158.36 117.106H145.429V117.964H158.36V117.106Z" fill="#E0E0E0"/>
<path d="M158.36 120.811H145.429V121.669H158.36V120.811Z" fill="#E0E0E0"/>
<path d="M158.36 124.511H145.429V125.369H158.36V124.511Z" fill="#E0E0E0"/>
<path d="M158.36 128.216H145.429V129.074H158.36V128.216Z" fill="#E0E0E0"/>
<path d="M158.36 131.921H145.429V132.779H158.36V131.921Z" fill="#E0E0E0"/>
<path d="M158.36 135.625H145.429V136.483H158.36V135.625Z" fill="#E0E0E0"/>
<path d="M158.999 95.9595C158.999 96.2424 158.915 96.5189 158.758 96.754C158.601 96.9892 158.377 97.1725 158.116 97.2807C157.855 97.3889 157.567 97.4173 157.29 97.3621C157.012 97.3069 156.757 97.1707 156.558 96.9707C156.358 96.7707 156.221 96.5159 156.166 96.2385C156.111 95.9611 156.139 95.6736 156.248 95.4123C156.356 95.151 156.539 94.9277 156.774 94.7705C157.009 94.6134 157.286 94.5295 157.569 94.5295C157.757 94.529 157.943 94.5656 158.117 94.6372C158.29 94.7089 158.448 94.8142 158.581 94.9471C158.714 95.08 158.819 95.2379 158.891 95.4116C158.963 95.5854 158.999 95.7716 158.999 95.9595Z" fill="#E0E0E0"/>
<path d="M138.886 56.1133H114.308V143.735H138.886V56.1133Z" fill="#F5F5F5"/>
<path d="M136.765 58.6123H116.428V141.746H136.765V58.6123Z" fill="#EBEBEB"/>
<path d="M133.061 61.0588H120.129V61.9168H133.061V61.0588Z" fill="#E0E0E0"/>
<path d="M133.061 64.7593H120.129V65.6173H133.061V64.7593Z" fill="#E0E0E0"/>
<path d="M133.061 68.4641H120.129V69.3221H133.061V68.4641Z" fill="#E0E0E0"/>
<path d="M133.061 72.1689H120.129V73.0269H133.061V72.1689Z" fill="#E0E0E0"/>
<path d="M133.061 75.8735H120.129V76.7315H133.061V75.8735Z" fill="#E0E0E0"/>
<path d="M133.061 79.574H120.129V80.432H133.061V79.574Z" fill="#E0E0E0"/>
<path d="M133.061 83.2788H120.129V84.1368H133.061V83.2788Z" fill="#E0E0E0"/>
<path d="M133.061 113.401H120.129V114.259H133.061V113.401Z" fill="#E0E0E0"/>
<path d="M133.061 117.106H120.129V117.964H133.061V117.106Z" fill="#E0E0E0"/>
<path d="M133.061 120.811H120.129V121.669H133.061V120.811Z" fill="#E0E0E0"/>
<path d="M133.061 124.511H120.129V125.369H133.061V124.511Z" fill="#E0E0E0"/>
<path d="M133.061 128.216H120.129V129.074H133.061V128.216Z" fill="#E0E0E0"/>
<path d="M133.061 131.921H120.129V132.779H133.061V131.921Z" fill="#E0E0E0"/>
<path d="M133.061 135.625H120.129V136.483H133.061V135.625Z" fill="#E0E0E0"/>
<path d="M133.698 95.9595C133.698 96.2424 133.615 96.5189 133.457 96.754C133.3 96.9892 133.077 97.1725 132.816 97.2807C132.554 97.3889 132.267 97.4173 131.989 97.3621C131.712 97.3069 131.457 97.1707 131.257 96.9707C131.057 96.7707 130.921 96.5159 130.866 96.2385C130.811 95.9611 130.839 95.6736 130.947 95.4123C131.055 95.151 131.239 94.9277 131.474 94.7705C131.709 94.6134 131.986 94.5295 132.268 94.5295C132.456 94.529 132.643 94.5656 132.816 94.6372C132.99 94.7089 133.148 94.8142 133.281 94.9471C133.414 95.08 133.519 95.2379 133.591 95.4116C133.662 95.5854 133.699 95.7716 133.698 95.9595Z" fill="#E0E0E0"/>
<path d="M189.486 56.1133H164.908V143.735H189.486V56.1133Z" fill="#F5F5F5"/>
<path d="M187.365 58.6123H167.028V141.746H187.365V58.6123Z" fill="#EBEBEB"/>
<path d="M183.66 61.0588H170.729V61.9168H183.66V61.0588Z" fill="#E0E0E0"/>
<path d="M183.66 64.7593H170.729V65.6173H183.66V64.7593Z" fill="#E0E0E0"/>
<path d="M183.66 68.4641H170.729V69.3221H183.66V68.4641Z" fill="#E0E0E0"/>
<path d="M183.66 72.1689H170.729V73.0269H183.66V72.1689Z" fill="#E0E0E0"/>
<path d="M183.66 75.8735H170.729V76.7315H183.66V75.8735Z" fill="#E0E0E0"/>
<path d="M183.66 79.574H170.729V80.432H183.66V79.574Z" fill="#E0E0E0"/>
<path d="M183.66 83.2788H170.729V84.1368H183.66V83.2788Z" fill="#E0E0E0"/>
<path d="M183.66 113.401H170.729V114.259H183.66V113.401Z" fill="#E0E0E0"/>
<path d="M183.66 117.106H170.729V117.964H183.66V117.106Z" fill="#E0E0E0"/>
<path d="M183.66 120.811H170.729V121.669H183.66V120.811Z" fill="#E0E0E0"/>
<path d="M183.66 124.511H170.729V125.369H183.66V124.511Z" fill="#E0E0E0"/>
<path d="M183.66 128.216H170.729V129.074H183.66V128.216Z" fill="#E0E0E0"/>
<path d="M183.66 131.921H170.729V132.779H183.66V131.921Z" fill="#E0E0E0"/>
<path d="M183.66 135.625H170.729V136.483H183.66V135.625Z" fill="#E0E0E0"/>
<path d="M184.298 95.9595C184.298 96.2424 184.215 96.5189 184.057 96.754C183.9 96.9892 183.677 97.1725 183.416 97.2807C183.154 97.3889 182.867 97.4173 182.589 97.3621C182.312 97.3069 182.057 97.1707 181.857 96.9707C181.657 96.7707 181.521 96.5159 181.466 96.2385C181.411 95.9611 181.439 95.6736 181.547 95.4123C181.656 95.151 181.839 94.9277 182.074 94.7705C182.309 94.6134 182.586 94.5295 182.868 94.5295C183.056 94.529 183.243 94.5656 183.416 94.6372C183.59 94.7089 183.748 94.8142 183.881 94.9471C184.014 95.08 184.119 95.2379 184.191 95.4116C184.262 95.5854 184.299 95.7716 184.298 95.9595Z" fill="#E0E0E0"/>
<path d="M110 163.926C157.116 163.926 195.312 161.696 195.312 158.946C195.312 156.195 157.116 153.965 110 153.965C62.8838 153.965 24.6885 156.195 24.6885 158.946C24.6885 161.696 62.8838 163.926 110 163.926Z" fill="#F5F5F5"/>
<path d="M41.3202 153.001C41.3202 153.001 39.0014 142.05 43.221 136.118C47.4406 130.187 39.4106 136.052 38.4866 141.605C38.4866 141.605 37.1006 131.674 41.1926 124.692C45.2846 117.709 37.6286 123.442 36.9774 130.636C36.9774 130.636 35.7234 121.783 37.6066 116.802C39.4898 111.822 36.2118 115.042 34.9666 118.149C33.7214 121.255 35.3582 128.995 35.3582 128.995C35.3582 128.995 32.0758 114.708 28.9694 115.843C25.863 116.978 33.6114 126.342 34.6894 131.208C34.6894 131.208 31.0242 124.656 28.2434 126.02C25.4626 127.384 32.551 128.062 35.7938 137.834L36.9334 142.415C36.9334 142.415 33.5542 135.96 31.3498 137.988C29.1454 140.017 37.8838 143.55 39.9166 153.349L41.3202 153.001Z" fill="#E89C24"/>
<path d="M40.8671 153.63C40.8671 153.63 40.3787 139.823 33.5587 133.98C26.7387 128.137 38.1039 132.761 40.8671 139.137C40.8671 139.137 39.5691 126.817 32.5819 119.684C25.5947 112.552 36.4803 117.128 39.4063 125.554C39.4063 125.554 38.2667 114.554 34.5311 109.173C30.7955 103.792 35.6707 106.63 38.1039 109.991C40.5371 113.353 40.8671 123.099 40.8671 123.099C40.8671 123.099 40.5415 105.01 44.6027 105.446C48.6639 105.882 42.1651 119.403 42.3279 125.554C42.3279 125.554 44.7655 116.613 48.4879 117.418C52.2103 118.224 43.9383 121.15 42.9659 133.817V139.643C42.9659 139.643 45.0779 130.891 48.3251 132.678C51.5723 134.464 42.1651 141.288 42.6403 153.63H40.8671Z" fill="#E89C24"/>
<path opacity="0.2" d="M40.8671 153.63C40.8671 153.63 40.3787 139.823 33.5587 133.98C26.7387 128.137 38.1039 132.761 40.8671 139.137C40.8671 139.137 39.5691 126.817 32.5819 119.684C25.5947 112.552 36.4803 117.128 39.4063 125.554C39.4063 125.554 38.2667 114.554 34.5311 109.173C30.7955 103.792 35.6707 106.63 38.1039 109.991C40.5371 113.353 40.8671 123.099 40.8671 123.099C40.8671 123.099 40.5415 105.01 44.6027 105.446C48.6639 105.882 42.1651 119.403 42.3279 125.554C42.3279 125.554 44.7655 116.613 48.4879 117.418C52.2103 118.224 43.9383 121.15 42.9659 133.817V139.643C42.9659 139.643 45.0779 130.891 48.3251 132.678C51.5723 134.464 42.1651 141.288 42.6403 153.63H40.8671Z" fill="white"/>
<path d="M31.605 152.825H51.6602V154.99C51.6602 156.274 51.1503 157.505 50.2426 158.412C49.3349 159.32 48.1038 159.83 46.8202 159.83H36.445C35.1613 159.83 33.9303 159.32 33.0226 158.412C32.1149 157.505 31.605 156.274 31.605 154.99V152.825Z" fill="#263238"/>
<path d="M28.9785 151.668V153.199C28.9797 153.691 29.1758 154.162 29.5239 154.509C29.872 154.857 30.3436 155.052 30.8353 155.052H52.4349C52.9262 155.052 53.3974 154.856 53.7448 154.509C54.0922 154.162 54.2873 153.69 54.2873 153.199V151.668H28.9785Z" fill="#263238"/>
<path opacity="0.2" d="M28.9785 151.668V153.199C28.9797 153.691 29.1758 154.162 29.5239 154.509C29.872 154.857 30.3436 155.052 30.8353 155.052H52.4349C52.9262 155.052 53.3974 154.856 53.7448 154.509C54.0922 154.162 54.2873 153.69 54.2873 153.199V151.668H28.9785Z" fill="white"/>
<path d="M184.541 151.228C184.614 151.078 184.65 150.913 184.645 150.746C184.641 150.579 184.596 150.416 184.514 150.27C184.433 150.125 184.318 150.001 184.178 149.909C184.039 149.818 183.879 149.762 183.713 149.745C183.857 149.32 183.866 148.861 183.741 148.43C183.616 147.999 183.362 147.616 183.014 147.334C182.93 147.256 182.824 147.208 182.71 147.198C182.589 147.21 182.475 147.261 182.385 147.343L180.449 148.729C180.293 148.825 180.162 148.956 180.066 149.112C179.67 149.877 181.095 150.872 180.506 151.488C180.339 151.668 180.066 151.708 179.855 151.84C179.415 152.126 179.34 152.759 179.124 153.256C178.909 153.754 178.165 154.136 177.879 153.696C178.09 153.221 177.439 152.816 176.929 152.746C176.418 152.676 175.868 152.658 175.582 152.17C174.847 152.816 173.197 151.017 173.233 150.295C172.942 150.348 172.675 150.489 172.47 150.701C172.264 150.912 172.129 151.183 172.084 151.474C172 152.072 171.979 152.676 172.023 153.278C172.023 154.453 171.627 155.602 171.644 156.772C171.644 157.687 172.014 158.699 172.85 159.064C173.263 159.215 173.704 159.275 174.143 159.24L183.656 159.179C183.885 159.196 184.114 159.158 184.325 159.069C184.765 158.844 184.849 158.281 184.888 157.797C185.055 155.729 185.225 153.663 185.399 151.598L184.541 151.228Z" fill="#E89C24"/>
<path opacity="0.3" d="M184.541 151.228C184.614 151.078 184.65 150.913 184.645 150.746C184.641 150.579 184.596 150.416 184.514 150.27C184.433 150.125 184.318 150.001 184.178 149.909C184.039 149.818 183.879 149.762 183.713 149.745C183.857 149.32 183.866 148.861 183.741 148.43C183.616 147.999 183.362 147.616 183.014 147.334C182.93 147.256 182.824 147.208 182.71 147.198C182.589 147.21 182.475 147.261 182.385 147.343L180.449 148.729C180.293 148.825 180.162 148.956 180.066 149.112C179.67 149.877 181.095 150.872 180.506 151.488C180.339 151.668 180.066 151.708 179.855 151.84C179.415 152.126 179.34 152.759 179.124 153.256C178.909 153.754 178.165 154.136 177.879 153.696C178.09 153.221 177.439 152.816 176.929 152.746C176.418 152.676 175.868 152.658 175.582 152.17C174.847 152.816 173.197 151.017 173.233 150.295C172.942 150.348 172.675 150.489 172.47 150.701C172.264 150.912 172.129 151.183 172.084 151.474C172 152.072 171.979 152.676 172.023 153.278C172.023 154.453 171.627 155.602 171.644 156.772C171.644 157.687 172.014 158.699 172.85 159.064C173.263 159.215 173.704 159.275 174.143 159.24L183.656 159.179C183.885 159.196 184.114 159.158 184.325 159.069C184.765 158.844 184.849 158.281 184.888 157.797C185.055 155.729 185.225 153.663 185.399 151.598L184.541 151.228Z" fill="white"/>
<path d="M185.095 141.174H170.337L170.456 142.666L170.544 143.73L170.769 146.502L170.896 148.091L171.068 150.212L171.138 151.118L171.165 151.391L171.253 152.46L171.367 153.921L171.442 154.832L171.517 155.756L171.605 156.82L171.671 157.63L171.745 158.541L171.776 158.932H185.324L185.355 158.541L185.425 157.634L185.491 156.82L185.579 155.751L185.654 154.832L185.729 153.921L185.847 152.456L185.931 151.391L185.953 151.118L186.028 150.212L186.199 148.091L186.327 146.502L186.551 143.73L186.635 142.666L186.758 141.174H185.095ZM185.975 142.151L185.689 141.865H186.001L185.975 142.151ZM185.905 143.057L185.874 143.418L184.554 144.738L183.04 143.224L184.4 141.865H184.717L185.905 143.057ZM185.522 147.778L184.554 148.746L183.04 147.233L184.558 145.719L185.605 146.766L185.522 147.778ZM171.477 146.766L172.524 145.719L174.038 147.233L172.524 148.746L171.556 147.778L171.477 146.766ZM184.065 145.226L182.547 146.744L181.034 145.226L182.547 143.713L184.065 145.226ZM181.681 141.865H183.414L182.534 142.745L181.681 141.865ZM182.055 147.233L180.545 148.746L179.027 147.233L180.545 145.719L182.055 147.233ZM177.025 149.235L178.539 147.726L180.053 149.235L178.539 150.753L177.025 149.235ZM178.046 151.241L176.533 152.759L175.019 151.246L176.537 149.728L178.046 151.241ZM180.545 149.728L182.055 151.246L180.545 152.759L179.027 151.241L180.545 149.728ZM178.539 146.744L177.025 145.226L178.539 143.713L180.053 145.226L178.539 146.744ZM178.046 147.233L176.537 148.746L175.019 147.233L176.537 145.719L178.046 147.233ZM174.526 146.744L173.013 145.226L174.526 143.713L176.044 145.226L174.526 146.744ZM174.526 147.726L176.044 149.235L174.526 150.753L173.013 149.235L174.526 147.726ZM176.044 153.248L174.526 154.761L173.013 153.248L174.526 151.734L176.044 153.248ZM176.533 153.74L178.046 155.254L176.537 156.772L175.019 155.254L176.533 153.74ZM177.025 153.248L178.539 151.734L180.053 153.248L178.539 154.761L177.025 153.248ZM180.545 153.74L182.055 155.254L180.545 156.772L179.027 155.254L180.545 153.74ZM182.556 155.76L184.074 157.278L183.093 158.259H182.024L181.043 157.278L182.556 155.76ZM181.043 153.265L182.556 151.752L184.074 153.265L182.556 154.779L181.043 153.265ZM181.043 149.252L182.556 147.743L184.074 149.252L182.556 150.77L181.043 149.252ZM182.063 143.242L180.554 144.76L179.036 143.246L180.391 141.887H180.713L182.063 143.242ZM178.543 142.754L177.663 141.874H179.393L178.543 142.754ZM178.051 143.242L176.546 144.76L175.028 143.246L176.383 141.887H176.704L178.051 143.242ZM175.411 141.882L174.531 142.762L173.651 141.882H175.411ZM172.7 141.882L174.055 143.242L172.533 144.76L171.213 143.44L171.187 143.079L172.37 141.887L172.7 141.882ZM171.38 141.882L171.099 142.164L171.077 141.882H171.38ZM171.288 144.522L172.027 145.262L171.398 145.895L171.288 144.522ZM171.701 149.6L171.64 148.883L172.027 149.27L171.701 149.6ZM171.772 150.515L172.52 149.763L174.033 151.281L172.52 152.794L171.908 152.183L171.772 150.515ZM171.996 153.318V153.252L172.027 153.283L171.996 153.318ZM172.26 156.543L172.071 154.22L172.511 153.78L174.025 155.294L172.511 156.807L172.251 156.548L172.26 156.543ZM172.401 158.277L172.37 157.929L172.52 157.784L173.008 158.277H172.401ZM173.008 157.296L174.522 155.778L176.04 157.296L175.059 158.277H173.989L173.008 157.296ZM176.04 158.277L176.533 157.784L177.021 158.277H176.04ZM178.002 158.277L177.021 157.296L178.535 155.778L180.048 157.296L179.08 158.242L178.002 158.277ZM180.048 158.277L180.541 157.784L181.034 158.277H180.048ZM184.668 158.277H184.057L184.549 157.784L184.695 157.929L184.668 158.277ZM184.809 156.543L184.549 156.803L183.04 155.254L184.558 153.74L184.998 154.18L184.809 156.543ZM185.077 153.248V153.318L185.047 153.283L185.086 153.248H185.077ZM185.161 152.183L184.549 152.794L183.04 151.246L184.558 149.728L185.306 150.48L185.161 152.183ZM185.372 149.604L185.038 149.27L185.429 148.883L185.372 149.604ZM185.786 144.518L185.671 145.9L185.038 145.262L185.786 144.518Z" fill="#E89C24"/>
<g opacity="0.6">
<path d="M185.095 141.174H170.337L170.456 142.666L170.544 143.73L170.769 146.502L170.896 148.091L171.068 150.212L171.138 151.118L171.165 151.391L171.253 152.46L171.367 153.921L171.442 154.832L171.517 155.756L171.605 156.82L171.671 157.63L171.745 158.541L171.776 158.932H185.324L185.355 158.541L185.425 157.634L185.491 156.82L185.579 155.751L185.654 154.832L185.729 153.921L185.847 152.456L185.931 151.391L185.953 151.118L186.028 150.212L186.199 148.091L186.327 146.502L186.551 143.73L186.635 142.666L186.758 141.174H185.095ZM185.975 142.151L185.689 141.865H186.001L185.975 142.151ZM185.905 143.057L185.874 143.418L184.554 144.738L183.04 143.224L184.4 141.865H184.717L185.905 143.057ZM185.522 147.778L184.554 148.746L183.04 147.233L184.558 145.719L185.605 146.766L185.522 147.778ZM171.477 146.766L172.524 145.719L174.038 147.233L172.524 148.746L171.556 147.778L171.477 146.766ZM184.065 145.226L182.547 146.744L181.034 145.226L182.547 143.713L184.065 145.226ZM181.681 141.865H183.414L182.534 142.745L181.681 141.865ZM182.055 147.233L180.545 148.746L179.027 147.233L180.545 145.719L182.055 147.233ZM177.025 149.235L178.539 147.726L180.053 149.235L178.539 150.753L177.025 149.235ZM178.046 151.241L176.533 152.759L175.019 151.246L176.537 149.728L178.046 151.241ZM180.545 149.728L182.055 151.246L180.545 152.759L179.027 151.241L180.545 149.728ZM178.539 146.744L177.025 145.226L178.539 143.713L180.053 145.226L178.539 146.744ZM178.046 147.233L176.537 148.746L175.019 147.233L176.537 145.719L178.046 147.233ZM174.526 146.744L173.013 145.226L174.526 143.713L176.044 145.226L174.526 146.744ZM174.526 147.726L176.044 149.235L174.526 150.753L173.013 149.235L174.526 147.726ZM176.044 153.248L174.526 154.761L173.013 153.248L174.526 151.734L176.044 153.248ZM176.533 153.74L178.046 155.254L176.537 156.772L175.019 155.254L176.533 153.74ZM177.025 153.248L178.539 151.734L180.053 153.248L178.539 154.761L177.025 153.248ZM180.545 153.74L182.055 155.254L180.545 156.772L179.027 155.254L180.545 153.74ZM182.556 155.76L184.074 157.278L183.093 158.259H182.024L181.043 157.278L182.556 155.76ZM181.043 153.265L182.556 151.752L184.074 153.265L182.556 154.779L181.043 153.265ZM181.043 149.252L182.556 147.743L184.074 149.252L182.556 150.77L181.043 149.252ZM182.063 143.242L180.554 144.76L179.036 143.246L180.391 141.887H180.713L182.063 143.242ZM178.543 142.754L177.663 141.874H179.393L178.543 142.754ZM178.051 143.242L176.546 144.76L175.028 143.246L176.383 141.887H176.704L178.051 143.242ZM175.411 141.882L174.531 142.762L173.651 141.882H175.411ZM172.7 141.882L174.055 143.242L172.533 144.76L171.213 143.44L171.187 143.079L172.37 141.887L172.7 141.882ZM171.38 141.882L171.099 142.164L171.077 141.882H171.38ZM171.288 144.522L172.027 145.262L171.398 145.895L171.288 144.522ZM171.701 149.6L171.64 148.883L172.027 149.27L171.701 149.6ZM171.772 150.515L172.52 149.763L174.033 151.281L172.52 152.794L171.908 152.183L171.772 150.515ZM171.996 153.318V153.252L172.027 153.283L171.996 153.318ZM172.26 156.543L172.071 154.22L172.511 153.78L174.025 155.294L172.511 156.807L172.251 156.548L172.26 156.543ZM172.401 158.277L172.37 157.929L172.52 157.784L173.008 158.277H172.401ZM173.008 157.296L174.522 155.778L176.04 157.296L175.059 158.277H173.989L173.008 157.296ZM176.04 158.277L176.533 157.784L177.021 158.277H176.04ZM178.002 158.277L177.021 157.296L178.535 155.778L180.048 157.296L179.08 158.242L178.002 158.277ZM180.048 158.277L180.541 157.784L181.034 158.277H180.048ZM184.668 158.277H184.057L184.549 157.784L184.695 157.929L184.668 158.277ZM184.809 156.543L184.549 156.803L183.04 155.254L184.558 153.74L184.998 154.18L184.809 156.543ZM185.077 153.248V153.318L185.047 153.283L185.086 153.248H185.077ZM185.161 152.183L184.549 152.794L183.04 151.246L184.558 149.728L185.306 150.48L185.161 152.183ZM185.372 149.604L185.038 149.27L185.429 148.883L185.372 149.604ZM185.786 144.518L185.671 145.9L185.038 145.262L185.786 144.518Z" fill="white"/>
</g>
<path d="M170.113 142.485H186.983C187.381 142.485 187.704 142.162 187.704 141.764V141.275C187.704 140.877 187.381 140.554 186.983 140.554H170.113C169.714 140.554 169.391 140.877 169.391 141.275V141.764C169.391 142.162 169.714 142.485 170.113 142.485Z" fill="#E89C24"/>
<path d="M185.663 157.894H171.433C171.034 157.894 170.711 158.217 170.711 158.616V159.104C170.711 159.503 171.034 159.826 171.433 159.826H185.663C186.061 159.826 186.384 159.503 186.384 159.104V158.616C186.384 158.217 186.061 157.894 185.663 157.894Z" fill="#E89C24"/>
<path d="M161.449 150.146L149.182 148.94V135.106H144.32V148.936L132 150.146C131.41 150.204 130.863 150.479 130.464 150.918C130.066 151.357 129.845 151.929 129.844 152.522V154.365H163.597V152.522C163.596 151.93 163.377 151.36 162.98 150.921C162.583 150.482 162.038 150.206 161.449 150.146Z" fill="#263238"/>
<path opacity="0.1" d="M161.449 150.146L149.182 148.94V135.106H144.32V148.936L132 150.146C131.41 150.204 130.863 150.479 130.464 150.918C130.066 151.357 129.845 151.929 129.844 152.522V154.365H163.597V152.522C163.596 151.93 163.377 151.36 162.98 150.921C162.583 150.482 162.038 150.206 161.449 150.146Z" fill="white"/>
<path d="M131.147 159.826C132.901 159.826 134.323 158.403 134.323 156.649C134.323 154.894 132.901 153.472 131.147 153.472C129.392 153.472 127.97 154.894 127.97 156.649C127.97 158.403 129.392 159.826 131.147 159.826Z" fill="#263238"/>
<path d="M162.303 159.826C164.057 159.826 165.48 158.403 165.48 156.649C165.48 154.894 164.057 153.472 162.303 153.472C160.548 153.472 159.126 154.894 159.126 156.649C159.126 158.403 160.548 159.826 162.303 159.826Z" fill="#263238"/>
<path d="M143.484 123.455H150.04V136.989C150.04 137.471 149.848 137.934 149.508 138.274C149.167 138.615 148.705 138.807 148.223 138.807H145.323C144.841 138.807 144.379 138.615 144.038 138.274C143.697 137.934 143.506 137.471 143.506 136.989V123.455H143.484Z" fill="#263238"/>
<path opacity="0.2" d="M143.484 123.455H150.04V136.989C150.04 137.471 149.848 137.934 149.508 138.274C149.167 138.615 148.705 138.807 148.223 138.807H145.323C144.841 138.807 144.379 138.615 144.038 138.274C143.697 137.934 143.506 137.471 143.506 136.989V123.455H143.484Z" fill="white"/>
<path d="M163.728 96.8C163.728 96.8 160.085 119.539 152.9 123.451H160.204C160.204 123.451 167.424 115.72 169.624 96.8H163.728Z" fill="#263238"/>
<path opacity="0.1" d="M163.728 96.8C163.728 96.8 160.085 119.539 152.9 123.451H160.204C160.204 123.451 167.424 115.72 169.624 96.8H163.728Z" fill="white"/>
<path d="M162.749 124.976H130V122.2C130 121.616 130.232 121.057 130.644 120.644C131.057 120.232 131.616 120 132.2 120H160.549C161.132 120 161.692 120.232 162.105 120.644C162.517 121.057 162.749 121.616 162.749 122.2V124.976Z" fill="#E89C24"/>
<path d="M129.465 125.219H163.174C163.662 125.219 164.058 124.824 164.058 124.335V123.613C164.058 123.125 163.662 122.729 163.174 122.729H129.465C128.977 122.729 128.581 123.125 128.581 123.613V124.335C128.581 124.824 128.977 125.219 129.465 125.219Z" fill="#263238"/>
<path opacity="0.6" d="M129.465 125.219H163.174C163.662 125.219 164.058 124.824 164.058 124.335V123.613C164.058 123.125 163.662 122.729 163.174 122.729H129.465C128.977 122.729 128.581 123.125 128.581 123.613V124.335C128.581 124.824 128.977 125.219 129.465 125.219Z" fill="white"/>
<path d="M170.487 101.425H158.778C155.351 101.425 153.124 98.6745 153.806 95.2645L154.717 90.7369C155.395 87.3445 158.73 84.5769 162.158 84.5769H173.862C177.294 84.5769 179.52 87.3269 178.838 90.7369L177.927 95.2645C177.245 98.6745 173.914 101.425 170.487 101.425Z" fill="#E89C24"/>
<path d="M111.197 86.1915L108.165 84.4799C107.692 84.0977 107.134 83.8351 106.537 83.7143C104.864 83.6867 103.192 83.8178 101.543 84.1059C101.103 84.2775 101.262 87.8107 101.543 87.8679C101.825 87.9251 106.203 87.9779 106.595 87.8679C106.986 87.7579 107.941 86.6887 107.941 86.6887L110.189 88.1935L111.197 86.1915Z" fill="#EBB376"/>
<path d="M124.916 81.4573C123.323 82.8829 118.316 88.8537 117.533 89.0693C116.75 89.2849 109.428 84.6693 109.428 84.6693L108.39 87.5777C108.39 87.5777 115.28 93.2493 117.533 93.6409C119.975 94.0809 128.115 87.4809 128.115 87.4809L124.916 81.4573Z" fill="#0D6C61"/>
<path opacity="0.5" d="M128.115 87.4809C128.115 87.4809 126.28 88.9681 124.08 90.4817C121.66 92.1537 118.8 93.8653 117.528 93.6409C115.271 93.2537 108.381 87.5821 108.381 87.5821L109.419 84.6737C109.419 84.6737 116.75 89.2805 117.528 89.0737C118.307 88.8669 123.319 82.8873 124.903 81.4617L126.997 85.3953L128.115 87.4809Z" fill="white"/>
<path opacity="0.2" d="M128.115 87.4809C128.115 87.4809 126.28 88.9681 124.08 90.4817C124.454 88.4093 126.144 86.3281 126.997 85.3909L128.115 87.4809Z" fill="black"/>
<path d="M132.673 100.118C132.673 100.118 125.277 87.1903 124.916 81.4571C124.916 81.4571 127.455 76.7623 130.786 75.7371C134.116 74.7119 142.934 75.2971 142.934 75.2971C142.934 75.2971 149.908 82.4515 153.683 98.7271L132.673 100.118Z" fill="#0D6C61"/>
<path opacity="0.1" d="M137.892 85.1443L142.274 84.1147L143.871 88.1671L142.186 89.9667L139.44 89.0691L137.892 85.1443Z" fill="black"/>
<path d="M136.589 155.452L132.832 156.152L129.497 147.778L133.25 147.083L136.589 155.452Z" fill="#EBB376"/>
<path opacity="0.2" d="M133.25 147.083L129.501 147.783L131.406 152.57L135.093 151.694L133.25 147.083Z" fill="black"/>
<path d="M96.6284 156.886L93.5 154.695L97.1432 146.454L100.267 148.645L96.6284 156.886Z" fill="#EBB376"/>
<path opacity="0.2" d="M100.267 148.645L97.1432 146.458L95.062 151.171L98.2652 153.191L100.267 148.645Z" fill="black"/>
<path d="M148.9 112.838L136.91 116.512L112.992 123.851C107.479 136.655 100.725 150.04 100.725 150.04L94.4678 147.471C94.4678 147.471 101.204 124.991 103.171 119.372C106.313 110.405 139.876 104.412 139.876 104.412L148.9 112.838Z" fill="#263238"/>
<path d="M100.412 152.39L92.708 149.054L93.7112 145.534L102.089 149.358L100.412 152.39Z" fill="#E89C24"/>
<path opacity="0.2" d="M100.412 152.39L92.708 149.054L93.7112 145.534L102.089 149.358L100.412 152.39Z" fill="white"/>
<path d="M93.0205 154.471C93.0205 154.471 92.9765 154.427 92.9765 154.422L92.9281 154.374L92.9809 154.418C93.0073 154.365 93.5397 153.424 93.3417 152.935C93.3164 152.874 93.2775 152.819 93.228 152.775C93.1784 152.731 93.1196 152.698 93.0557 152.68C92.9855 152.653 92.9082 152.65 92.8363 152.673C92.7644 152.695 92.7022 152.741 92.6597 152.803C92.5309 153.105 92.5122 153.443 92.6069 153.758C92.3517 153.437 92.0305 153.116 91.7621 153.102C91.7053 153.102 91.6493 153.116 91.5988 153.142C91.5483 153.168 91.5047 153.206 91.4717 153.252C91.41 153.318 91.3681 153.4 91.351 153.489C91.3338 153.578 91.3421 153.669 91.3749 153.754C91.5068 153.968 91.714 154.125 91.9557 154.194C92.2686 154.323 92.5947 154.417 92.9281 154.475H92.9589H92.9853L93.0205 154.471ZM92.8049 152.922C92.8357 152.878 92.8885 152.834 93.0117 152.874H93.0513C93.0837 152.888 93.1129 152.908 93.1371 152.934C93.1614 152.96 93.1801 152.99 93.1921 153.023C93.3153 153.314 93.0997 153.881 92.9457 154.211C92.9312 154.185 92.915 154.16 92.8973 154.136C92.7288 153.754 92.6962 153.325 92.8049 152.922ZM91.5201 153.688C91.5027 153.633 91.5 153.575 91.5124 153.52C91.5247 153.464 91.5517 153.413 91.5905 153.371C91.6056 153.347 91.6265 153.328 91.6511 153.315C91.6758 153.302 91.7034 153.295 91.7313 153.296C91.9997 153.296 92.4529 153.855 92.7433 154.29C92.0833 154.141 91.6345 153.921 91.5201 153.688Z" fill="#E89C24"/>
<path d="M93.4558 154.158L97.3806 155.874C97.4141 155.887 97.4447 155.906 97.4707 155.931C97.4966 155.956 97.5174 155.985 97.5318 156.018C97.5461 156.051 97.5537 156.086 97.5542 156.122C97.5547 156.158 97.548 156.193 97.5346 156.226L96.3598 159.421C96.2882 159.583 96.1561 159.71 95.9916 159.776C95.8271 159.842 95.6434 159.841 95.4798 159.773C94.1202 159.152 93.5042 158.787 91.7838 158.013C90.7234 157.546 88.585 156.728 87.2386 155.861C85.8922 154.994 86.7986 153.688 87.4322 153.934C88.9678 154.515 91.4362 154.436 92.7606 154.092C92.9931 154.036 93.2381 154.059 93.4558 154.158Z" fill="#263238"/>
<path d="M132.365 155.76C132.365 155.694 132.299 154.612 131.903 154.268C131.841 154.222 131.769 154.19 131.693 154.173C131.618 154.157 131.539 154.156 131.463 154.172C131.385 154.177 131.311 154.208 131.252 154.259C131.193 154.311 131.153 154.381 131.138 154.458C131.152 154.786 131.285 155.099 131.512 155.338C131.194 155.149 130.82 155.079 130.456 155.14C130.404 155.165 130.359 155.202 130.325 155.249C130.291 155.296 130.269 155.351 130.262 155.408C130.238 155.495 130.238 155.586 130.263 155.672C130.288 155.758 130.336 155.836 130.403 155.896C130.619 156.032 130.878 156.082 131.129 156.037C131.467 156.009 131.8 155.942 132.123 155.839C132.128 155.841 132.133 155.842 132.139 155.842C132.144 155.842 132.149 155.841 132.154 155.839C132.154 155.839 132.154 155.839 132.154 155.813C132.154 155.786 132.246 155.791 132.251 155.778H132.33L132.365 155.76ZM131.314 154.493C131.314 154.44 131.349 154.378 131.472 154.356H131.516C131.551 154.354 131.587 154.36 131.62 154.372C131.653 154.384 131.684 154.403 131.71 154.427C131.952 154.629 132.018 155.232 132.035 155.593L131.956 155.549C131.623 155.285 131.395 154.91 131.314 154.493ZM130.535 155.76C130.495 155.72 130.467 155.67 130.452 155.615C130.437 155.56 130.437 155.503 130.451 155.448C130.453 155.419 130.462 155.392 130.479 155.369C130.495 155.345 130.517 155.327 130.544 155.316C130.786 155.201 131.424 155.483 131.899 155.734C131.226 155.91 130.724 155.918 130.535 155.76Z" fill="#E89C24"/>
<path d="M132.44 155.32L136.717 155.051C136.752 155.048 136.788 155.051 136.822 155.061C136.856 155.072 136.887 155.088 136.915 155.111C136.942 155.133 136.965 155.161 136.981 155.193C136.998 155.224 137.008 155.258 137.012 155.293L137.452 158.664C137.462 158.842 137.403 159.016 137.286 159.151C137.169 159.285 137.004 159.368 136.827 159.381C135.335 159.447 134.627 159.407 132.735 159.509C131.582 159.579 129.303 159.825 127.71 159.671C126.117 159.517 126.311 157.942 127.002 157.867C128.634 157.683 130.794 156.486 131.815 155.575C131.99 155.424 132.209 155.334 132.44 155.32Z" fill="#263238"/>
<path d="M125.356 77.8009C126.011 77.5697 126.725 77.5697 127.38 77.8009C127.53 78.4409 127.891 79.0122 128.403 79.4237C128.916 79.8351 129.552 80.0631 130.209 80.0713C130.534 80.0877 130.859 80.0745 131.182 80.0317C134.477 79.5917 134.116 74.6769 134.116 74.6769C132.915 74.7626 131.716 74.4752 130.684 73.8541C129.809 73.3401 129.044 72.6565 128.436 71.8433L125.356 77.8009Z" fill="#EBB376"/>
<path opacity="0.2" d="M125.356 77.8009C126.011 77.5697 126.725 77.5697 127.38 77.8009C127.53 78.4409 127.891 79.0122 128.403 79.4237C128.916 79.8351 129.552 80.0631 130.209 80.0713C131.058 77.9725 130.948 75.5701 130.684 73.8541C129.809 73.3401 129.044 72.6565 128.436 71.8433L125.356 77.8009Z" fill="black"/>
<path d="M123.059 66.9679C124.687 67.6719 124.344 69.4539 121.572 72.6879C119.922 71.2227 119.068 67.9271 119.961 66.8887C120.855 65.8503 121.638 66.3563 123.059 66.9679Z" fill="#263238"/>
<path d="M129.769 68.4773C130.279 72.0325 130.755 74.0873 129.36 76.2565C127.257 79.5169 122.593 78.8085 121.026 75.4733C119.627 72.4813 119.024 67.1705 122.17 65.0673C122.862 64.601 123.66 64.3187 124.491 64.2473C125.322 64.1758 126.157 64.3175 126.918 64.6589C127.679 65.0003 128.34 65.5301 128.839 66.1983C129.338 66.8665 129.658 67.6508 129.769 68.4773Z" fill="#EBB376"/>
<path d="M124.727 70.5276C124.788 70.8136 124.683 71.0732 124.493 71.1128C124.304 71.1524 124.111 70.9544 124.053 70.6728C123.996 70.3912 124.093 70.1228 124.282 70.0832C124.471 70.0436 124.647 70.2504 124.727 70.5276Z" fill="#263238"/>
<path d="M121.479 71.2052C121.541 71.4868 121.435 71.7508 121.251 71.7904C121.066 71.83 120.863 71.632 120.811 71.3504C120.758 71.0688 120.855 70.8004 121.044 70.7652C121.233 70.73 121.44 70.9192 121.479 71.2052Z" fill="#263238"/>
<path d="M122.567 71.1172C122.407 72.0616 122.119 72.9796 121.708 73.8452C121.933 73.9439 122.177 73.9923 122.423 73.987C122.668 73.9816 122.909 73.9227 123.13 73.8144L122.567 71.1172Z" fill="#D58745"/>
<path d="M127.728 65.6568C126.201 66.5588 126.768 68.2968 129.928 71.1216C131.38 69.454 131.811 66.0748 130.808 65.164C129.804 64.2532 129.061 64.8736 127.728 65.6568Z" fill="#263238"/>
<path d="M132.022 70.9413C131.954 71.8422 131.532 72.6793 130.847 73.2689C129.932 74.0389 128.982 73.3437 128.819 72.2217C128.674 71.2097 128.973 69.5817 130.09 69.2561C131.208 68.9305 132.101 69.8369 132.022 70.9413Z" fill="#EBB376"/>
<path d="M126.183 68.8468C126.158 68.869 126.128 68.8843 126.096 68.8913C126.063 68.8982 126.03 68.8965 125.998 68.8864C125.783 68.8043 125.551 68.7739 125.322 68.7976C125.093 68.8213 124.872 68.8984 124.678 69.0228C124.64 69.0525 124.592 69.066 124.544 69.0602C124.496 69.0544 124.453 69.0299 124.423 68.992C124.393 68.954 124.38 68.9058 124.386 68.858C124.391 68.8101 124.416 68.7665 124.454 68.7368C124.694 68.5756 124.968 68.474 125.255 68.4404C125.542 68.4067 125.833 68.4419 126.104 68.5432C126.126 68.5501 126.147 68.5615 126.165 68.5767C126.183 68.5918 126.198 68.6104 126.208 68.6313C126.219 68.6522 126.225 68.675 126.227 68.6984C126.229 68.7218 126.226 68.7453 126.218 68.7676C126.211 68.7957 126.199 68.8224 126.183 68.8468Z" fill="#263238"/>
<path d="M119.715 69.7223C119.678 69.7171 119.645 69.7001 119.618 69.6739C119.593 69.6339 119.583 69.5855 119.592 69.5388C119.601 69.4921 119.628 69.4507 119.667 69.4231C119.906 69.261 120.181 69.1588 120.468 69.1251C120.755 69.0914 121.046 69.1272 121.317 69.2295C121.339 69.2386 121.359 69.252 121.375 69.2691C121.392 69.2861 121.405 69.3063 121.414 69.3285C121.422 69.3507 121.427 69.3745 121.426 69.3983C121.425 69.4221 121.419 69.4455 121.409 69.4671C121.39 69.5109 121.354 69.5452 121.309 69.5625C121.265 69.5798 121.215 69.5787 121.172 69.5595C120.953 69.4836 120.72 69.4599 120.491 69.4905C120.261 69.521 120.042 69.605 119.852 69.7355C119.829 69.7428 119.805 69.7454 119.782 69.7431C119.758 69.7409 119.736 69.7338 119.715 69.7223Z" fill="#263238"/>
<path d="M130.407 65.5601C130.407 65.5601 131.19 64.0025 129.131 62.6517C127.072 61.3009 120.842 62.3569 118.611 65.1817C116.38 68.0065 118.316 69.7269 118.316 69.7269C118.222 69.2592 118.295 68.7733 118.523 68.3541C118.756 68.8282 119.133 69.2163 119.601 69.4629C120.309 69.7797 119.838 69.6785 119.838 69.6785C119.808 68.9341 120.049 68.2041 120.516 67.6237C121.051 68.1484 121.702 68.5403 122.417 68.7677C122.572 68.1534 122.938 67.613 123.451 67.2409C123.451 67.2409 123.838 68.4861 124.432 68.6049C124.432 68.6049 124.379 67.5885 125.752 66.8449C125.752 66.8449 125.906 67.8129 126.293 68.0681C126.306 68.1033 126.962 65.9121 130.407 65.5601Z" fill="#263238"/>
<path d="M124.045 75.0113C124.013 75.0114 123.983 75.0022 123.957 74.9849C123.938 74.9736 123.922 74.9587 123.909 74.941C123.896 74.9232 123.887 74.9031 123.882 74.8817C123.877 74.8603 123.876 74.8382 123.88 74.8166C123.884 74.795 123.892 74.7744 123.904 74.7561C124.416 74.0281 125.161 73.4972 126.016 73.2513C126.036 73.2446 126.058 73.2421 126.08 73.2441C126.101 73.246 126.122 73.2523 126.141 73.2626C126.16 73.2729 126.176 73.287 126.19 73.304C126.203 73.3209 126.213 73.3404 126.218 73.3613C126.231 73.4033 126.226 73.4485 126.206 73.4871C126.185 73.5258 126.15 73.5549 126.108 73.5681C125.332 73.7947 124.653 74.2749 124.181 74.9321C124.167 74.956 124.147 74.976 124.124 74.9899C124.1 75.0037 124.072 75.0111 124.045 75.0113Z" fill="#263238"/>
<path d="M124.199 72.5999C123.804 72.5642 123.433 72.3962 123.145 72.1231C122.858 71.8499 122.671 71.4877 122.615 71.0951C122.43 70.1227 122.949 69.2031 123.772 69.0447C124.595 68.8863 125.413 69.5551 125.598 70.5275C125.689 70.9766 125.621 71.4435 125.405 71.8475C125.308 72.0322 125.171 72.1931 125.004 72.3186C124.838 72.4441 124.645 72.5312 124.441 72.5735C124.361 72.5891 124.28 72.5979 124.199 72.5999ZM124.014 69.2559C123.948 69.2494 123.882 69.2494 123.816 69.2559C123.121 69.3879 122.681 70.1843 122.844 71.0159C123.002 71.8607 123.697 72.4503 124.397 72.3139C124.568 72.2784 124.729 72.205 124.869 72.0992C125.008 71.9934 125.122 71.8578 125.202 71.7023C125.393 71.3453 125.452 70.9326 125.369 70.5363C125.324 70.1984 125.165 69.886 124.919 69.6502C124.673 69.4144 124.354 69.2692 124.014 69.2383V69.2559Z" fill="#263238"/>
<path d="M120.415 73.238C120.078 73.233 119.754 73.11 119.5 72.8904C119.149 72.5925 118.914 72.1816 118.835 71.7288C118.65 70.7564 119.17 69.8412 119.992 69.6828C120.198 69.6476 120.409 69.6585 120.61 69.7149C120.811 69.7712 120.997 69.8714 121.154 70.0084C121.504 70.3046 121.739 70.7141 121.818 71.1656C121.907 71.6147 121.839 72.0808 121.625 72.4856C121.528 72.6698 121.391 72.8301 121.224 72.9549C121.058 73.0797 120.865 73.1659 120.661 73.2072C120.58 73.2261 120.498 73.2364 120.415 73.238ZM119.064 71.6892C119.133 72.0868 119.338 72.4479 119.645 72.71C119.774 72.8249 119.928 72.9087 120.095 72.9547C120.262 73.0008 120.437 73.0079 120.607 72.9756C120.777 72.9433 120.937 72.8724 121.076 72.7684C121.214 72.6644 121.327 72.53 121.405 72.3756C121.591 72.0148 121.651 71.6022 121.575 71.2035C121.499 70.8048 121.292 70.4429 120.987 70.1756C120.856 70.0607 120.701 69.9766 120.534 69.9294C120.366 69.8822 120.19 69.8731 120.019 69.9028C119.319 70.0348 118.884 70.8312 119.046 71.6628L119.064 71.6892Z" fill="#263238"/>
<path d="M121.704 71.302C121.679 71.302 121.654 71.2943 121.633 71.28C121.621 71.2709 121.611 71.2594 121.603 71.2462C121.595 71.2331 121.59 71.2184 121.588 71.2032C121.586 71.1881 121.587 71.1726 121.591 71.1578C121.595 71.1431 121.602 71.1292 121.611 71.1172C121.755 70.9515 121.953 70.8436 122.17 70.8137C122.387 70.7837 122.608 70.8337 122.791 70.9544C122.816 70.9707 122.835 70.9963 122.842 71.0257C122.849 71.0552 122.845 71.0863 122.83 71.1128C122.823 71.1265 122.812 71.1385 122.8 71.148C122.787 71.1575 122.773 71.1643 122.757 71.1681C122.742 71.1718 122.726 71.1723 122.711 71.1696C122.695 71.1669 122.681 71.1611 122.667 71.1524C122.532 71.0623 122.369 71.0234 122.208 71.0428C122.047 71.0621 121.897 71.1384 121.787 71.258C121.777 71.2709 121.765 71.2814 121.75 71.289C121.736 71.2966 121.72 71.301 121.704 71.302Z" fill="#263238"/>
<path d="M125.484 70.6508C125.458 70.6505 125.434 70.6417 125.414 70.6257C125.394 70.6098 125.38 70.5876 125.374 70.5628C125.366 70.5336 125.369 70.5024 125.384 70.476C125.399 70.4496 125.424 70.4302 125.453 70.422L128.753 69.498C128.783 69.491 128.815 69.4958 128.842 69.5113C128.869 69.5268 128.889 69.5519 128.898 69.5816C128.905 69.6113 128.9 69.6425 128.885 69.6687C128.869 69.6949 128.844 69.7141 128.815 69.7224L125.515 70.6464L125.484 70.6508Z" fill="#263238"/>
<path opacity="0.2" d="M136.91 116.512L112.992 123.851C112.992 123.851 112.112 117.251 116.42 114.171C122.712 109.657 136.589 108.394 136.589 108.394C136.589 108.394 136.761 112.319 136.91 116.512Z" fill="black"/>
<path d="M132.119 108.922L133.043 103.136L132.673 100.118L153.683 98.7141L154 102.08C154 102.08 156.499 113.89 154.766 117.093C151.686 122.813 138.926 122.589 127.842 122.589C130.249 129.629 135.08 147.449 135.08 147.449L129.285 150.089C129.285 150.089 118.105 129.752 115.566 120.947C113.335 113.173 124.208 110.841 132.119 108.922Z" fill="#263238"/>
<path d="M136.396 149.041L128.621 152.205L126.808 149.028L135.406 145.719L136.396 149.041Z" fill="#E89C24"/>
<path opacity="0.2" d="M136.396 149.041L128.621 152.205L126.808 149.028L135.406 145.719L136.396 149.041Z" fill="white"/>
<path d="M147.097 102.296L154.255 101.869L153.824 99.2112L146.824 99.66L147.097 102.296Z" fill="black"/>
<path d="M133.861 100.487L132.673 100.567L133.043 103.136L134.068 103.075L133.861 100.487Z" fill="black"/>
<path d="M134.909 103.026L146.256 102.348L146.045 99.7083L134.64 100.439L134.909 103.026Z" fill="black"/>
<path d="M138.244 103.061C137.997 103.062 137.758 102.969 137.576 102.802C137.394 102.635 137.282 102.405 137.262 102.159L137.179 101.2C137.155 100.942 137.235 100.686 137.4 100.486C137.564 100.287 137.801 100.161 138.059 100.135L140.096 99.9591C140.225 99.9465 140.356 99.9603 140.48 99.9997C140.604 100.039 140.719 100.103 140.818 100.188C140.916 100.271 140.997 100.373 141.056 100.488C141.115 100.603 141.151 100.728 141.161 100.857L141.244 101.816C141.256 101.945 141.242 102.076 141.203 102.2C141.163 102.324 141.1 102.438 141.016 102.537C140.933 102.637 140.832 102.72 140.717 102.779C140.602 102.839 140.476 102.875 140.347 102.885L138.31 103.057L138.244 103.061ZM140.197 100.395H140.153L138.116 100.571C138.044 100.576 137.975 100.596 137.911 100.629C137.847 100.661 137.79 100.707 137.744 100.761C137.698 100.816 137.663 100.88 137.641 100.948C137.62 101.017 137.612 101.089 137.619 101.16L137.698 102.124C137.711 102.268 137.781 102.401 137.892 102.493C138.002 102.585 138.144 102.631 138.288 102.621L140.325 102.445C140.397 102.439 140.467 102.419 140.531 102.386C140.595 102.352 140.652 102.307 140.699 102.251C140.791 102.141 140.836 101.999 140.826 101.855L140.743 100.896C140.737 100.824 140.716 100.754 140.683 100.69C140.65 100.626 140.604 100.569 140.549 100.522C140.451 100.439 140.326 100.393 140.197 100.395Z" fill="white"/>
<path d="M139.691 101.728C139.638 101.728 139.587 101.708 139.546 101.674C139.506 101.639 139.479 101.591 139.471 101.539C139.464 101.481 139.479 101.423 139.515 101.376C139.55 101.33 139.603 101.3 139.66 101.292L140.501 101.178C140.529 101.173 140.559 101.174 140.587 101.181C140.615 101.187 140.642 101.2 140.666 101.217C140.689 101.234 140.709 101.256 140.723 101.281C140.738 101.306 140.748 101.334 140.751 101.363C140.759 101.421 140.743 101.48 140.708 101.527C140.673 101.574 140.62 101.605 140.562 101.614L139.717 101.728H139.691Z" fill="white"/>
<path opacity="0.2" d="M132.207 81.9411C132.207 81.9411 134.336 89.4695 136.91 94.5647C136.91 94.5647 132.858 87.0099 131.344 81.1887L132.207 81.9411Z" fill="black"/>
<path d="M132.317 83.3448L133.412 81.9148H134.002L134.842 82.7948L134.926 83.798C133.892 84.26 132.317 83.798 132.317 83.798V83.3448Z" fill="#0D554C"/>
<path d="M133.368 82.28C133.345 80.4525 133.148 78.6315 132.779 76.8416L133.368 77.0968C133.925 78.893 134.126 80.7808 133.958 82.654L133.368 82.28Z" fill="#0D554C"/>
<path d="M132.625 83.3889C132.625 83.3889 128.484 81.7521 128.088 79.0681L127.798 79.5741C127.798 79.5741 128.783 82.9665 133.139 83.8069L132.625 83.3889Z" fill="#0D554C"/>
<path d="M134.35 83.1336C134.772 83.0659 135.172 82.8963 135.515 82.6395C135.858 82.3827 136.133 82.0464 136.316 81.6596C137.298 79.4024 136.316 76.0892 138.745 74.6196L140.109 75.1036C139.35 75.6824 138.795 76.4886 138.525 77.4048C138.032 79.2968 137.474 83.9784 134.35 83.8024V83.1336Z" fill="#0D554C"/>
<path d="M133.373 73.8584L131.345 78.8392L131.182 80.0316L129.743 79.3452L127.424 77.9636C127.424 77.9636 126.395 79.4024 128.115 81.6464L129.743 80.3L132.027 82.8036L132.673 79.7236L135.335 80.5816C135.335 80.5816 136.4 76.12 136.4 74.844L133.373 73.8584Z" fill="#0D6C61"/>
<path opacity="0.6" d="M136.4 74.844C136.4 76.1288 135.331 80.5948 135.331 80.5948L132.665 79.7368L132.022 82.8168L129.739 80.3132L128.111 81.6596C126.39 79.4156 127.415 77.9768 127.415 77.9768L129.739 79.3584L131.177 80.0448L131.34 78.8524L133.364 73.8716L136.4 74.844Z" fill="white"/>
<path opacity="0.2" d="M135.335 80.5948L132.669 79.7368L132.027 82.8036L131.886 78.9492L135.335 80.5948Z" fill="black"/>
<path opacity="0.2" d="M132.026 82.8036L129.743 80.3L128.115 81.6464L129.276 79.5696L132.026 82.8036Z" fill="black"/>
<path d="M120.939 87.6128L117.529 87.2301C117.056 86.8471 116.497 86.5844 115.901 86.4644C114.226 86.4354 112.552 86.565 110.902 86.8517C110.462 87.0233 110.621 90.5565 110.902 90.6181C111.184 90.6797 115.562 90.7281 115.958 90.6181C116.354 90.5081 117.304 89.4388 117.304 89.4388L120.292 89.9669L120.939 87.6128Z" fill="#EBB376"/>
<path d="M142.934 75.2841C141.526 75.5701 135.014 87.9385 135.014 87.9385L118.254 87.1201L118.003 89.9889C118.003 89.9889 133.021 93.2581 136.404 92.6289C139.788 91.9997 145.891 81.4397 146.256 80.2781C147.087 77.6337 143.88 75.0905 142.934 75.2841Z" fill="#0D6C61"/>
<path opacity="0.6" d="M142.934 75.2841C141.526 75.5701 135.014 87.9385 135.014 87.9385L118.254 87.1201L118.003 89.9889C118.003 89.9889 133.021 93.2581 136.404 92.6289C139.788 91.9997 145.891 81.4397 146.256 80.2781C147.087 77.6337 143.88 75.0905 142.934 75.2841Z" fill="white"/>
<path d="M130.037 42.9836H83.6306C83.1638 42.9836 82.7162 43.1691 82.3861 43.4991C82.056 43.8292 81.8706 44.2769 81.8706 44.7436C81.8706 45.2104 82.056 45.6581 82.3861 45.9882C82.7162 46.3182 83.1638 46.5036 83.6306 46.5036H130.037C130.504 46.5036 130.952 46.3182 131.282 45.9882C131.612 45.6581 131.797 45.2104 131.797 44.7436C131.797 44.2769 131.612 43.8292 131.282 43.4991C130.952 43.1691 130.504 42.9836 130.037 42.9836Z" fill="#0D6C61"/>
<path opacity="0.6" d="M130.037 42.9836H83.6306C83.1638 42.9836 82.7162 43.1691 82.3861 43.4991C82.056 43.8292 81.8706 44.2769 81.8706 44.7436C81.8706 45.2104 82.056 45.6581 82.3861 45.9882C82.7162 46.3182 83.1638 46.5036 83.6306 46.5036H130.037C130.504 46.5036 130.952 46.3182 131.282 45.9882C131.612 45.6581 131.797 45.2104 131.797 44.7436C131.797 44.2769 131.612 43.8292 131.282 43.4991C130.952 43.1691 130.504 42.9836 130.037 42.9836Z" fill="white"/>
<path d="M111.641 43.3796H83.6662C83.3161 43.3995 82.9869 43.5525 82.7461 43.8074C82.5053 44.0623 82.3711 44.3996 82.3711 44.7502C82.3711 45.1009 82.5053 45.4382 82.7461 45.6931C82.9869 45.9479 83.3161 46.101 83.6662 46.1208H111.641C111.991 46.101 112.321 45.9479 112.562 45.6931C112.802 45.4382 112.937 45.1009 112.937 44.7502C112.937 44.3996 112.802 44.0623 112.562 43.8074C112.321 43.5525 111.991 43.3995 111.641 43.3796Z" fill="#0D6C61"/>
<path d="M96.8439 38.2273C96.8439 38.6673 96.5139 38.9577 95.9639 38.9577H95.4447V39.6001H95.1411V37.4969H95.9639C96.5139 37.4925 96.8439 37.7697 96.8439 38.2273ZM96.5447 38.2273C96.5447 37.9237 96.3423 37.7521 95.9595 37.7521H95.4491V38.7201H95.9595C96.3599 38.7201 96.5447 38.5265 96.5447 38.2273Z" fill="#263238"/>
<path d="M98.6966 39.6L98.2566 38.9532H98.1246H97.6054V39.6H97.3062V37.4968H98.1202C98.6702 37.4968 99.0002 37.774 99.0002 38.2316C99.0071 38.3778 98.9655 38.5221 98.882 38.6423C98.7984 38.7624 98.6776 38.8516 98.5382 38.896L99.0354 39.6H98.6966ZM98.6966 38.2316C98.6966 37.928 98.4942 37.7564 98.107 37.7564H97.5966V38.72H98.1202C98.4854 38.72 98.6878 38.5264 98.6878 38.2272L98.6966 38.2316Z" fill="#263238"/>
<path d="M99.3034 38.5439C99.2955 38.3214 99.3543 38.1015 99.4722 37.9126C99.5901 37.7237 99.7618 37.5743 99.9652 37.4836C100.169 37.3929 100.394 37.365 100.614 37.4036C100.833 37.4421 101.036 37.5453 101.196 37.6999C101.357 37.8545 101.467 38.0535 101.513 38.2713C101.56 38.4891 101.54 38.7158 101.457 38.9224C101.374 39.1289 101.23 39.3058 101.046 39.4305C100.861 39.5551 100.644 39.6218 100.421 39.6219C100.276 39.6285 100.131 39.6054 99.9949 39.5541C99.859 39.5028 99.7349 39.4243 99.6303 39.3234C99.5257 39.2225 99.4428 39.1013 99.3866 38.9673C99.3304 38.8333 99.3021 38.6892 99.3034 38.5439ZM101.239 38.5439C101.241 38.3817 101.195 38.2226 101.106 38.0869C101.017 37.9511 100.89 37.8449 100.74 37.7816C100.591 37.7183 100.426 37.7008 100.267 37.7314C100.108 37.762 99.9609 37.8392 99.8455 37.9533C99.7302 38.0674 99.6514 38.2132 99.6191 38.3722C99.5868 38.5312 99.6024 38.6962 99.6641 38.8462C99.7258 38.9963 99.8307 39.1246 99.9655 39.215C100.1 39.3053 100.259 39.3535 100.421 39.3535C100.529 39.3571 100.636 39.3387 100.736 39.2995C100.837 39.2602 100.928 39.2008 101.005 39.125C101.081 39.0492 101.142 38.9586 101.182 38.8587C101.222 38.7588 101.242 38.6517 101.239 38.5439Z" fill="#263238"/>
<path d="M103.457 38.5308H103.747V39.3536C103.519 39.5323 103.236 39.6271 102.947 39.622C102.771 39.6143 102.6 39.5637 102.448 39.4747C102.297 39.3857 102.169 39.261 102.077 39.1114C101.984 38.9618 101.93 38.7919 101.918 38.6165C101.907 38.4411 101.938 38.2655 102.01 38.105C102.082 37.9445 102.192 37.804 102.33 37.6958C102.469 37.5875 102.631 37.5147 102.805 37.4838C102.978 37.4529 103.156 37.4648 103.323 37.5185C103.49 37.5721 103.642 37.6659 103.765 37.7916L103.576 37.9764C103.496 37.8969 103.402 37.8345 103.297 37.7929C103.193 37.7513 103.081 37.7314 102.969 37.7344C102.754 37.7344 102.548 37.8197 102.396 37.9715C102.244 38.1233 102.159 38.3293 102.159 38.544C102.159 38.7587 102.244 38.9646 102.396 39.1165C102.548 39.2683 102.754 39.3536 102.969 39.3536C103.143 39.3579 103.314 39.3104 103.461 39.2172L103.457 38.5308Z" fill="#263238"/>
<path d="M105.728 39.6L105.288 38.9532H105.156H104.632V39.6H104.333V37.4968H105.16C105.706 37.4968 106.04 37.774 106.04 38.2316C106.049 38.3751 106.01 38.5173 105.931 38.6371C105.852 38.7569 105.736 38.8477 105.6 38.896L106.04 39.6H105.728ZM105.728 38.2316C105.728 37.928 105.525 37.7564 105.143 37.7564H104.628V38.72H105.143C105.517 38.72 105.719 38.5264 105.719 38.2272L105.728 38.2316Z" fill="#263238"/>
<path d="M108.033 39.336V39.6H106.506V37.4968H107.989V37.7564H106.806V38.4032H107.862V38.6584H106.806V39.3404L108.033 39.336Z" fill="#263238"/>
<path d="M108.328 39.3579L108.438 39.1203C108.634 39.2806 108.88 39.3677 109.133 39.3667C109.499 39.3667 109.653 39.2259 109.653 39.0411C109.653 38.5263 108.377 38.8519 108.377 38.0687C108.377 37.7431 108.632 37.4659 109.186 37.4659C109.424 37.4605 109.659 37.5264 109.859 37.6551L109.763 37.8927C109.59 37.7839 109.39 37.7245 109.186 37.7211C108.825 37.7211 108.671 37.8751 108.671 38.0555C108.671 38.5703 109.947 38.2491 109.947 39.0235C109.947 39.3447 109.688 39.6219 109.133 39.6219C108.842 39.6296 108.558 39.5363 108.328 39.3579Z" fill="#263238"/>
<path d="M110.193 39.3581L110.303 39.1205C110.5 39.2801 110.745 39.3672 110.999 39.3669C111.364 39.3669 111.522 39.2261 111.522 39.0413C111.522 38.5265 110.246 38.8521 110.246 38.0689C110.246 37.7433 110.497 37.4661 111.051 37.4661C111.291 37.4614 111.526 37.5272 111.729 37.6553L111.628 37.8929C111.455 37.7834 111.256 37.724 111.051 37.7213C110.695 37.7213 110.541 37.8753 110.541 38.0557C110.541 38.5705 111.817 38.2493 111.817 39.0237C111.817 39.3449 111.557 39.6221 110.999 39.6221C110.708 39.6298 110.423 39.5365 110.193 39.3581Z" fill="#263238"/>
<path d="M114.426 37.4924V37.6948L113.573 39.6H113.256L114.087 37.7564H113.124V38.1348H112.838V37.4968L114.426 37.4924Z" fill="#263238"/>
<path d="M114.629 38.5441C114.629 37.8577 114.994 37.4661 115.509 37.4661C116.024 37.4661 116.363 37.8577 116.363 38.5441C116.363 39.2305 115.997 39.6221 115.509 39.6221C115.021 39.6221 114.629 39.2305 114.629 38.5441ZM116.046 38.5441C116.046 38.0073 115.817 37.7345 115.491 37.7345C115.166 37.7345 114.928 38.0073 114.928 38.5441C114.928 39.0809 115.157 39.3537 115.491 39.3537C115.826 39.3537 116.046 39.0809 116.046 38.5441Z" fill="#263238"/>
<path d="M116.6 38.0469C116.591 37.9762 116.596 37.9043 116.617 37.836C116.637 37.7677 116.672 37.7045 116.718 37.6505C116.765 37.5965 116.822 37.5529 116.887 37.5227C116.951 37.4924 117.022 37.4761 117.093 37.4749C117.383 37.4749 117.577 37.7037 117.577 38.0469C117.577 38.3901 117.383 38.6233 117.093 38.6233C117.021 38.6214 116.951 38.6045 116.887 38.5738C116.822 38.543 116.765 38.499 116.718 38.4447C116.672 38.3904 116.637 38.3269 116.617 38.2583C116.596 38.1898 116.591 38.1177 116.6 38.0469ZM117.388 38.0469C117.388 37.7961 117.273 37.6465 117.093 37.6465C116.912 37.6465 116.798 37.7961 116.798 38.0469C116.798 38.2977 116.912 38.4517 117.093 38.4517C117.273 38.4517 117.388 38.3021 117.388 38.0469ZM118.36 37.4925H118.593L117.154 39.6001H116.921L118.36 37.4925ZM117.92 39.0413C117.92 38.6981 118.114 38.4649 118.408 38.4649C118.546 38.4857 118.671 38.5551 118.762 38.6605C118.852 38.7658 118.902 38.9001 118.902 39.0391C118.902 39.178 118.852 39.3123 118.762 39.4176C118.671 39.523 118.546 39.5924 118.408 39.6133C118.338 39.6114 118.268 39.5947 118.204 39.5641C118.14 39.5336 118.083 39.4899 118.037 39.436C117.991 39.3821 117.957 39.3191 117.936 39.251C117.916 39.183 117.911 39.1116 117.92 39.0413ZM118.699 39.0413C118.699 38.7905 118.589 38.6365 118.408 38.6365C118.228 38.6365 118.114 38.7861 118.114 39.0413C118.114 39.2965 118.224 39.4417 118.408 39.4417C118.593 39.4417 118.716 39.2921 118.716 39.0413H118.699Z" fill="#263238"/>
<path d="M50.635 91.4717V90.0329H49.6714L50.635 89.4697H49.9134L50.877 88.8405H51.7922V88.1145H50.7318L51.7922 87.6921V86.1213H50.7318V85.0961H49.6714L50.7318 84.7397V84.0093H49.9706L50.591 83.3889L51.1322 82.8477H67.5794V83.5869H68.6662L67.4562 84.1281V84.7397H69.6738V85.8705H70.655L69.6738 86.3633V87.6305H68.9786V88.2333H67.5794V90.0329H68.3626L67.7202 90.6753V91.4761L50.635 91.4717Z" fill="#E89C24"/>
<path opacity="0.7" d="M50.635 91.4717V90.0329H49.6714L50.635 89.4697H49.9134L50.877 88.8405H51.7922V88.1145H50.7318L51.7922 87.6921V86.1213H50.7318V85.0961H49.6714L50.7318 84.7397V84.0093H49.9706L50.591 83.3889L51.1322 82.8477H67.5794V83.5869H68.6662L67.4562 84.1281V84.7397H69.6738V85.8705H70.655L69.6738 86.3633V87.6305H68.9786V88.2333H67.5794V90.0329H68.3626L67.7202 90.6753V91.4761L50.635 91.4717Z" fill="white"/>
<path opacity="0.1" d="M50.635 91.4717V90.0329H49.6714L50.635 89.4697H49.9134L50.877 88.8405H51.7922V88.1145H50.7318L51.7922 87.6921V86.1213H50.7318V85.0961H49.6714L50.7318 84.7397V84.0093H49.9706L50.591 83.3889L51.1322 82.8477H59.7958V83.5869H60.8826L59.6726 84.1281V84.7397H61.8902V85.8705H62.8714L61.8902 86.3633V87.6305H61.195V88.2333H59.7958V90.0329H60.579L59.9366 90.6753V91.4761L50.635 91.4717Z" fill="black"/>
<path opacity="0.1" d="M67.4565 84.7396H59.6729L67.4565 84.458V84.7396Z" fill="black"/>
<path opacity="0.1" d="M67.5795 88.2332H59.7959L59.7607 88.7788L67.5795 88.2332Z" fill="black"/>
<path opacity="0.1" d="M68.9789 87.6304H61.1953L68.9789 87.9032V87.6304Z" fill="black"/>
<path opacity="0.1" d="M67.5795 90.0328H59.7959L67.5795 89.7424V90.0328Z" fill="black"/>
<path opacity="0.1" d="M67.7206 90.6753H59.937V90.9701L67.7206 90.6753Z" fill="black"/>
<path opacity="0.1" d="M69.6742 85.8704H61.8906L69.6742 85.624V85.8704Z" fill="black"/>
<path opacity="0.1" d="M67.5795 83.5868H59.7959L67.5795 83.314V83.5868Z" fill="black"/>
<path opacity="0.1" d="M50.7319 84.0093H58.6255L50.7319 84.2513V84.0093Z" fill="black"/>
<path opacity="0.1" d="M59.6727 84.7397H50.7319L58.8367 85.0037L59.6727 84.7397Z" fill="black"/>
<path opacity="0.1" d="M61.8903 85.8704L50.7319 86.1212V85.8704H61.8903Z" fill="black"/>
<path opacity="0.1" d="M61.8907 86.3633H56.373L61.8907 86.6361V86.3633Z" fill="black"/>
<path opacity="0.1" d="M51.7925 87.692L59.7961 87.6304L51.7925 87.45V87.692Z" fill="black"/>
<path opacity="0.1" d="M51.7925 88.1145H59.9369L51.7925 88.3873V88.1145Z" fill="black"/>
<path opacity="0.1" d="M50.6353 89.4697H59.6729V89.7425L50.6353 89.4697Z" fill="black"/>
<path opacity="0.1" d="M50.6353 90.033H57.1869L50.6353 90.2134V90.033Z" fill="black"/>
<path d="M96.6768 91.7488L97.0376 90.3848H111.888L118.725 91.0668L118.985 91.7488H96.6768Z" fill="#263238"/>
<path opacity="0.4" d="M111.888 90.3848V91.7488H96.6768L97.0376 90.3848H111.888Z" fill="black"/>
<path d="M64.7062 75.2401L67.9578 89.9801C68.0162 90.2172 68.1515 90.4283 68.3425 90.5804C68.5336 90.7324 68.7697 90.8169 69.0139 90.8205H79.5254C79.6363 90.8179 79.745 90.7897 79.8431 90.738C79.9412 90.6864 80.026 90.6126 80.0908 90.5227C80.1556 90.4327 80.1987 90.329 80.2167 90.2195C80.2346 90.1101 80.2269 89.998 80.1942 89.8921L76.9471 75.2665C76.881 75.043 76.7399 74.8492 76.5475 74.7177C76.3551 74.5862 76.1232 74.5252 75.891 74.5449H65.3794C64.8998 74.5581 64.6006 74.7737 64.7062 75.2401Z" fill="#263238"/>
<path opacity="0.4" d="M65.3092 75.2401L68.5564 89.9801C68.6148 90.2172 68.7501 90.4283 68.9411 90.5804C69.1322 90.7324 69.3683 90.8169 69.6124 90.8205H79.5256C79.6362 90.817 79.7444 90.7883 79.842 90.7363C79.9397 90.6844 80.0241 90.6107 80.0887 90.521C80.1533 90.4313 80.1965 90.3279 80.2148 90.2189C80.2332 90.1098 80.2262 89.998 80.1944 89.8921L76.9472 75.2665C76.8812 75.043 76.7401 74.8492 76.5477 74.7177C76.3553 74.5862 76.1234 74.5252 75.8912 74.5449H66C65.5028 74.5581 65.2036 74.7737 65.3092 75.2401Z" fill="white"/>
<path d="M69.7002 89.8613V91.2297C69.7002 91.5773 70.1138 91.7225 70.457 91.7225H94.7802C95.1278 91.7225 95.5502 91.5773 95.5502 91.2297V89.8613H69.7002Z" fill="#263238"/>
<path opacity="0.2" d="M95.5502 89.8613V91.2297C95.5502 91.5773 95.1366 91.7225 94.7934 91.7225H70.4746C70.1226 91.7225 69.7002 91.5773 69.7002 91.2297V89.8613H95.5502Z" fill="white"/>
<path opacity="0.4" d="M95.5505 89.8613V91.2297C95.5505 91.5773 95.1369 91.7225 94.7937 91.7225H83.6001C83.2481 91.7225 82.8301 91.5773 82.8301 91.2297V89.8613H95.5505Z" fill="black"/>
<path d="M79.6049 88.7787L76.6525 75.5039H65.8989L68.8249 88.7787H79.6049Z" fill="#0D6C61"/>
<path d="M108.904 83.8464C108.926 84.0129 108.911 84.1821 108.861 84.3424C108.812 84.5028 108.728 84.6506 108.616 84.7759C108.504 84.9011 108.367 85.0007 108.213 85.0681C108.059 85.1355 107.893 85.169 107.725 85.1664H84.977C84.6189 85.1594 84.2758 85.0211 84.013 84.7777C83.7501 84.5344 83.5859 84.2029 83.5514 83.8464L82.2006 69.2824C82.1831 69.1353 82.192 68.9863 82.227 68.8424C82.2916 68.5871 82.4406 68.3611 82.6499 68.2013C82.8593 68.0415 83.1165 67.9573 83.3798 67.9624H106.128C106.486 67.9693 106.829 68.1077 107.092 68.351C107.355 68.5944 107.519 68.9258 107.553 69.2824L108.904 83.8464Z" fill="#263238"/>
<path opacity="0.4" d="M107.641 85.1533H84.977C84.6189 85.1464 84.2758 85.0081 84.013 84.7647C83.7501 84.5213 83.5859 84.1899 83.5514 83.8333L82.2006 69.2693C82.1831 69.1223 82.192 68.9733 82.227 68.8293H104.896C105.253 68.8382 105.595 68.9772 105.858 69.2202C106.12 69.4632 106.285 69.7935 106.321 70.1493L107.672 84.7133C107.689 84.8607 107.678 85.0097 107.641 85.1533Z" fill="black"/>
<path d="M92.0128 76.2212H96.7208L95.4668 89.694L102.907 90.8116V91.7488H87.2344V90.8116L90.4464 89.694L92.0128 76.2212Z" fill="#263238"/>
<path opacity="0.1" d="M96.7207 76.2212L93.2359 91.5376L90.4463 91.454L92.0127 76.2212H96.7207Z" fill="white"/>
<path d="M81.0218 159.826H78.417L73.7266 94.5869H77.1894L81.0218 159.826Z" fill="#263238"/>
<path opacity="0.1" d="M81.0262 159.826H78.417L73.9598 97.8252L73.7266 94.688H77.1894L77.3742 97.8252L81.0262 159.826Z" fill="white"/>
<path opacity="0.2" d="M77.3742 97.6712H73.9598L73.7266 94.688H77.1894L77.3742 97.6712Z" fill="black"/>
<path d="M112.935 159.826H110.326L109.903 94.5869H113.362L112.935 159.826Z" fill="#263238"/>
<path opacity="0.1" d="M113.362 94.688L113.296 105.217L112.939 159.826H110.326L109.969 105.217L109.903 94.688H113.362Z" fill="white"/>
<path opacity="0.2" d="M113.362 94.688L113.296 105.332H109.969L109.903 94.688H113.362Z" fill="black"/>
<path d="M140.624 159.826H138.019L133.329 94.5869H136.791L140.624 159.826Z" fill="#263238"/>
<path opacity="0.1" d="M140.628 159.826H138.019L133.557 97.8252L133.329 94.688H136.791L136.976 97.8252L140.628 159.826Z" fill="white"/>
<path opacity="0.2" d="M136.976 97.6712H133.557L133.329 94.688H136.791L136.976 97.6712Z" fill="black"/>
<path d="M51.1854 159.826H48.5806L52.413 94.5869H55.8714L51.1854 159.826Z" fill="#263238"/>
<path opacity="0.1" d="M55.8714 94.688L55.6426 97.8252L51.1854 159.826H48.5806L52.2238 97.8252L52.413 94.688H55.8714Z" fill="white"/>
<path opacity="0.2" d="M52.4128 94.688H55.8712L55.6424 97.6712H52.2236L52.4128 94.688Z" fill="black"/>
<path d="M49.6714 92.95H139.533V95.2644C139.533 95.5164 139.432 95.7582 139.254 95.9364C139.076 96.1146 138.834 96.2148 138.582 96.2148H50.5998C50.3478 96.2148 50.106 96.1146 49.9278 95.9364C49.7495 95.7582 49.6494 95.5164 49.6494 95.2644V92.95H49.6714Z" fill="#E89C24"/>
<path opacity="0.4" d="M49.6714 92.95H139.533V95.2644C139.533 95.5164 139.432 95.7582 139.254 95.9364C139.076 96.1146 138.834 96.2148 138.582 96.2148H50.5998C50.3478 96.2148 50.106 96.1146 49.9278 95.9364C49.7495 95.7582 49.6494 95.5164 49.6494 95.2644V92.95H49.6714Z" fill="white"/>
<path opacity="0.2" d="M139.537 92.95H49.6714V94.5823H139.537V92.95Z" fill="black"/>
<path d="M141.152 93.3768H48.0524C47.8089 93.3756 47.5756 93.2784 47.4034 93.1062C47.2312 92.934 47.134 92.7007 47.1328 92.4572C47.1328 92.2133 47.2297 91.9794 47.4022 91.8069C47.5746 91.6345 47.8085 91.5376 48.0524 91.5376H141.152C141.396 91.5376 141.63 91.6345 141.802 91.8069C141.975 91.9794 142.072 92.2133 142.072 92.4572C142.07 92.7007 141.973 92.934 141.801 93.1062C141.629 93.2784 141.396 93.3756 141.152 93.3768Z" fill="#E89C24"/>
<path opacity="0.4" d="M141.152 93.3768H48.0524C47.8089 93.3756 47.5756 93.2784 47.4034 93.1062C47.2312 92.934 47.134 92.7007 47.1328 92.4572C47.1328 92.2133 47.2297 91.9794 47.4022 91.8069C47.5746 91.6345 47.8085 91.5376 48.0524 91.5376H141.152C141.396 91.5376 141.63 91.6345 141.802 91.8069C141.975 91.9794 142.072 92.2133 142.072 92.4572C142.07 92.7007 141.973 92.934 141.801 93.1062C141.629 93.2784 141.396 93.3756 141.152 93.3768Z" fill="white"/>
<path d="M118.633 87.384V87.692L117.572 88.1144H118.633V88.8404H117.717L116.749 89.4696H117.475L116.512 90.0328H117.475V91.4716L134.561 91.476V90.6752L135.203 90.0328H134.415V88.2332H135.819V87.6304H136.514V87.384H118.633Z" fill="#E89C24"/>
<path opacity="0.9" d="M118.633 87.384V87.692L117.572 88.1144H118.633V88.8404H117.717L116.749 89.4696H117.475L116.512 90.0328H117.475V91.4716L134.561 91.476V90.6752L135.203 90.0328H134.415V88.2332H135.819V87.6304H136.514V87.384H118.633Z" fill="white"/>
<path opacity="0.1" d="M118.633 87.384V87.692L117.572 88.1144H118.633V88.8404H117.717L116.749 89.4696H117.475L116.512 90.0328H117.475V91.4716L126.777 91.476V90.6752L127.419 90.0328H126.632V88.2332H128.035V87.6304H128.731V87.384H118.633Z" fill="black"/>
<path opacity="0.1" d="M134.415 88.2332H126.632L126.601 88.7788L134.415 88.2332Z" fill="black"/>
<path opacity="0.1" d="M135.819 87.6304H128.036L135.819 87.9032V87.6304Z" fill="black"/>
<path opacity="0.1" d="M134.415 90.0328H126.632L134.415 89.7424V90.0328Z" fill="black"/>
<path opacity="0.1" d="M134.561 90.6753H126.777V90.9701L134.561 90.6753Z" fill="black"/>
<path opacity="0.1" d="M118.633 87.692L126.632 87.6304L118.633 87.45V87.692Z" fill="black"/>
<path opacity="0.1" d="M118.633 88.1145H126.777L118.633 88.3873V88.1145Z" fill="black"/>
<path opacity="0.1" d="M117.476 89.4697H126.513V89.7425L117.476 89.4697Z" fill="black"/>
<path opacity="0.1" d="M117.476 90.033H124.023L117.476 90.2134V90.033Z" fill="black"/>
</svg>
