<svg width="31" height="30" viewBox="0 0 31 30" fill="none" xmlns="http://www.w3.org/2000/svg">
<path d="M15.1667 11.25C16.1595 11.25 17.1115 11.6451 17.8135 12.3483C18.5155 13.0516 18.9098 14.0054 18.9098 15C18.9098 15.9946 18.5155 16.9484 17.8135 17.6517C17.1115 18.3549 16.1595 18.75 15.1667 18.75C14.174 18.75 13.2219 18.3549 12.5199 17.6517C11.8179 16.9484 11.4236 15.9946 11.4236 15C11.4236 14.0054 11.8179 13.0516 12.5199 12.3483C13.2219 11.6451 14.174 11.25 15.1667 11.25ZM15.1667 5.625C21.4053 5.625 26.733 9.5125 28.8915 15C26.733 20.4875 21.4053 24.375 15.1667 24.375C8.92816 24.375 3.60043 20.4875 1.44189 15C3.60043 9.5125 8.92816 5.625 15.1667 5.625ZM4.1619 15C5.17037 17.0629 6.73631 18.8009 8.68171 20.0166C10.6271 21.2322 12.8739 21.8766 15.1667 21.8766C17.4595 21.8766 19.7063 21.2322 21.6517 20.0166C23.5971 18.8009 25.1631 17.0629 26.1715 15C25.1631 12.9371 23.5971 11.1991 21.6517 9.98343C19.7063 8.7678 17.4595 8.12335 15.1667 8.12335C12.8739 8.12335 10.6271 8.7678 8.68171 9.98343C6.73631 11.1991 5.17037 12.9371 4.1619 15Z" fill="#E89C24"/>
</svg>
