<svg width="40" height="40" viewBox="0 0 40 40" fill="none" xmlns="http://www.w3.org/2000/svg">
<path d="M26.3166 31.1831C26.4728 31.0282 26.5968 30.8438 26.6814 30.6407C26.766 30.4376 26.8096 30.2198 26.8096 29.9998C26.8096 29.7798 26.766 29.5619 26.6814 29.3588C26.5968 29.1557 26.4728 28.9714 26.3166 28.8164L18.6833 21.1831C18.527 21.0282 18.4031 20.8438 18.3184 20.6407C18.2338 20.4376 18.1903 20.2198 18.1903 19.9998C18.1903 19.7798 18.2338 19.5619 18.3184 19.3588C18.4031 19.1557 18.527 18.9714 18.6833 18.8164L26.3166 11.1831C26.4728 11.0282 26.5968 10.8438 26.6814 10.6407C26.766 10.4376 26.8096 10.2198 26.8096 9.99977C26.8096 9.77975 26.766 9.56191 26.6814 9.35881C26.5968 9.15571 26.4728 8.97138 26.3166 8.81644C26.0043 8.50602 25.5819 8.33179 25.1416 8.33179C24.7013 8.33179 24.2788 8.50602 23.9666 8.81644L16.3166 16.4664C15.3803 17.4039 14.8543 18.6748 14.8543 19.9998C14.8543 21.3248 15.3803 22.5956 16.3166 23.5331L23.9666 31.1831C24.2788 31.4935 24.7013 31.6678 25.1416 31.6678C25.5819 31.6678 26.0043 31.4935 26.3166 31.1831Z" fill="#797979"/>
</svg>
