<svg width="200" height="189" viewBox="0 0 200 189" fill="none" xmlns="http://www.w3.org/2000/svg">
<path d="M175.138 140.221H187.211V135.119H175.138V140.221Z" fill="#EBEBEB"/>
<path d="M181.872 146.654H193.945V141.552H181.872V146.654Z" fill="#EBEBEB"/>
<path d="M168.399 146.654H180.472V141.552H168.399V146.654Z" fill="#EBEBEB"/>
<path d="M12.7892 146.654H24.8623V141.552H12.7892V146.654Z" fill="#EBEBEB"/>
<path d="M12.7892 8.97992L24.8623 8.97992V3.87802L12.7892 3.87802V8.97992Z" fill="#EBEBEB"/>
<path d="M6.0548 15.4132L18.1279 15.4132V10.3113L6.0548 10.3113V15.4132Z" fill="#EBEBEB"/>
<path d="M181.872 8.98448L193.945 8.98448V3.88258L181.872 3.88258V8.98448Z" fill="#EBEBEB"/>
<path d="M160.676 64.5902H148.603V69.6921H160.676V64.5902Z" fill="#EBEBEB"/>
<path d="M153.942 58.157H141.869V63.2589H153.942V58.157Z" fill="#EBEBEB"/>
<path d="M17.2617 17.1366H97.3784V129.023H17.2617V17.1366ZM94.9848 19.512H19.6371V126.656H94.9848V19.512Z" fill="#EBEBEB"/>
<path d="M58.5053 20.1366H56.1299V127.833H58.5053V20.1366Z" fill="#EBEBEB"/>
<path d="M15.1048 25.2522L99.5347 25.2522V21.9421L15.1048 21.9421V25.2522Z" fill="#EBEBEB"/>
<path d="M15.1048 28.9772L99.5347 28.9772V25.6671L15.1048 25.6671V28.9772Z" fill="#EBEBEB"/>
<path d="M15.1048 32.7022L99.5347 32.7022V29.3921L15.1048 29.3921V32.7022Z" fill="#EBEBEB"/>
<path d="M15.1048 36.4226L99.5347 36.4226V33.1125L15.1048 33.1125V36.4226Z" fill="#EBEBEB"/>
<path d="M15.1048 40.1521L99.5347 40.1521V36.8421L15.1048 36.8421V40.1521Z" fill="#EBEBEB"/>
<path d="M15.1048 43.8771L99.5347 43.8771V40.567L15.1048 40.567V43.8771Z" fill="#EBEBEB"/>
<path d="M15.1048 47.5975L99.5347 47.5975V44.2875L15.1048 44.2875V47.5975Z" fill="#EBEBEB"/>
<path d="M15.1048 51.3225L99.5347 51.3225V48.0124L15.1048 48.0124V51.3225Z" fill="#EBEBEB"/>
<path d="M15.1048 55.0475L99.5347 55.0475V51.7374L15.1048 51.7374V55.0475Z" fill="#EBEBEB"/>
<path d="M22.7558 21.2719H22.1631V85.6908H22.7558V21.2719Z" fill="#263238"/>
<path d="M21.4062 88.4586H23.5174L22.9885 85.4264H21.9352L21.4062 88.4586Z" fill="#263238"/>
<path d="M20.6171 21.2719H20.0244V101.94H20.6171V21.2719Z" fill="#263238"/>
<path d="M19.2632 104.17H21.3744L20.8454 101.138H19.7921L19.2632 104.17Z" fill="#263238"/>
<path d="M11.4122 23.5972L103.224 23.5972V16.6715L11.4122 16.6715V23.5972Z" fill="#DBDBDB"/>
<path d="M180.341 48.4518C188.432 43.5345 191.005 32.9893 186.087 24.8985C181.17 16.8078 170.625 14.2352 162.534 19.1525C154.443 24.0698 151.871 34.615 156.788 42.7058C161.705 50.7966 172.25 53.3691 180.341 48.4518Z" fill="#EBEBEB"/>
<path d="M181.725 47.5246C189.083 42.2819 190.798 32.067 185.556 24.7089C180.313 17.3508 170.098 15.6359 162.74 20.8786C155.382 26.1212 153.667 36.3362 158.91 43.6943C164.152 51.0524 174.367 52.7673 181.725 47.5246Z" fill="#DBDBDB"/>
<path d="M181.129 46.6789C188.02 41.7655 189.623 32.1962 184.71 25.3054C179.796 18.4145 170.227 16.8115 163.336 21.7249C156.446 26.6382 154.842 36.2075 159.756 43.0983C164.669 49.9892 174.238 51.5923 181.129 46.6789Z" fill="white"/>
<path opacity="0.5" d="M187.206 30.9468C180.226 35.1733 168.759 42.1081 162.349 45.9106C160.536 44.3824 159.102 42.4551 158.159 40.2798L179.36 20.629C181.341 21.673 183.069 23.1374 184.425 24.9197C185.78 26.702 186.729 28.7591 187.206 30.9468Z" fill="#EBEBEB"/>
<path opacity="0.5" d="M187.539 34.7311C187.487 36.4361 187.144 38.1197 186.527 39.7099L167.414 48.7556C166.581 48.4807 165.774 48.1328 165.002 47.7161C170.775 44.3786 181.325 38.3056 187.539 34.7311Z" fill="#EBEBEB"/>
<path d="M172.375 19.9862H172.079V22.3071H172.375V19.9862Z" fill="#C7C7C7"/>
<path d="M165.245 21.806L164.988 21.9542L166.149 23.9641L166.405 23.816L165.245 21.806Z" fill="#C7C7C7"/>
<path d="M159.986 26.9595L159.838 27.2161L161.848 28.3766L161.996 28.1199L159.986 26.9595Z" fill="#C7C7C7"/>
<path d="M160.338 34.0472H158.018V34.3436H160.338V34.0472Z" fill="#C7C7C7"/>
<path d="M161.854 39.9993L159.845 41.1604L159.993 41.4171L162.003 40.2559L161.854 39.9993Z" fill="#C7C7C7"/>
<path d="M166.159 44.4262L164.999 46.4366L165.256 46.5847L166.416 44.5743L166.159 44.4262Z" fill="#C7C7C7"/>
<path d="M172.375 46.0884H172.079V48.4093H172.375V46.0884Z" fill="#C7C7C7"/>
<path d="M178.296 44.4146L178.04 44.5628L179.2 46.5728L179.457 46.4246L178.296 44.4146Z" fill="#C7C7C7"/>
<path d="M182.605 40.0217L182.457 40.2784L184.466 41.4392L184.615 41.1825L182.605 40.0217Z" fill="#C7C7C7"/>
<path d="M186.436 34.0472H184.115V34.3436H186.436V34.0472Z" fill="#C7C7C7"/>
<path d="M184.462 26.9667L182.452 28.1279L182.6 28.3845L184.61 27.2234L184.462 26.9667Z" fill="#C7C7C7"/>
<path d="M179.207 21.8226L178.047 23.8332L178.304 23.9812L179.464 21.9707L179.207 21.8226Z" fill="#C7C7C7"/>
<path d="M172.448 21.0348L172.954 35.2326L171.5 35.2144L172.056 21.0303L172.448 21.0348Z" fill="#C7C7C7"/>
<path d="M181.293 29.2462L171.741 35.342L171.048 34.0654L181.102 28.8997L181.293 29.2462Z" fill="#A6A6A6"/>
<path d="M172.722 34.1977C172.722 34.2962 172.692 34.3925 172.637 34.4743C172.583 34.5561 172.505 34.6198 172.414 34.6573C172.323 34.6948 172.222 34.7043 172.126 34.6848C172.029 34.6652 171.941 34.6174 171.871 34.5475C171.802 34.4775 171.755 34.3885 171.737 34.2918C171.718 34.1951 171.728 34.095 171.767 34.0043C171.805 33.9136 171.869 33.8363 171.952 33.7822C172.034 33.7281 172.131 33.6998 172.229 33.7007C172.294 33.7007 172.359 33.7136 172.419 33.7386C172.479 33.7636 172.533 33.8003 172.579 33.8465C172.625 33.8927 172.661 33.9476 172.685 34.0078C172.71 34.0681 172.722 34.1326 172.722 34.1977Z" fill="#C7C7C7"/>
<path d="M188.966 125.111C186.992 123.182 184.448 120.848 181.434 121.678C178.598 122.462 177.513 125.558 177.003 128.138C176.351 131.462 175.84 134.818 175.311 138.169C174.782 141.52 174.281 144.935 173.793 148.318C173.519 150.227 173.249 152.139 172.981 154.054C172.845 155.005 172.711 155.961 172.58 156.921C172.452 157.833 172.293 158.795 172.243 159.739C172.243 160.04 172.699 160.086 172.767 159.798C173.132 158.203 173.282 156.548 173.515 154.929C173.747 153.31 173.971 151.674 174.226 150.046C174.682 146.813 175.188 143.585 175.671 140.353C176.155 137.12 176.665 133.892 177.18 130.664C177.636 127.929 177.823 124.527 180.249 122.722C181.58 121.732 183.281 121.723 184.785 122.298C186.386 122.909 187.658 124.049 188.889 125.179C188.898 125.19 188.911 125.196 188.924 125.197C188.938 125.198 188.951 125.193 188.962 125.184C188.972 125.175 188.978 125.162 188.979 125.148C188.98 125.135 188.975 125.121 188.966 125.111Z" fill="#00840D"/>
<path d="M186.267 123.137C186.267 123.137 182.237 121.687 180.249 124.628C178.261 127.568 180.636 135.05 198.983 139.268C198.445 133.533 196.954 127.929 194.57 122.685C190.635 114.109 183.627 117.355 186.267 123.137Z" fill="#0FBD21"/>
<path d="M197.93 138.046C197.656 137.533 197.351 137.036 197.018 136.559L196.106 135.146L195.386 134.093C195.386 134.011 195.409 133.92 195.422 133.833C195.422 133.673 195.463 133.514 195.482 133.354C195.527 133.012 195.577 132.67 195.628 132.324C195.678 131.977 195.737 131.644 195.801 131.302C195.844 130.935 195.925 130.573 196.042 130.222C196.065 130.167 195.97 130.14 195.96 130.222C195.922 130.428 195.867 130.631 195.796 130.828L195.673 131.284C195.587 131.631 195.5 131.982 195.422 132.333C195.345 132.684 195.29 132.98 195.235 133.304C195.208 133.464 195.185 133.619 195.163 133.76C194.834 133.304 194.501 132.848 194.159 132.392C193.184 131.106 192.153 129.871 191.086 128.667C191.086 128.667 191.086 128.667 191.086 128.635C191.182 126.707 191.137 124.796 191.542 122.9C191.542 122.849 191.479 122.822 191.465 122.872C191.064 124.655 190.667 126.52 190.781 128.343C190.398 127.915 190.01 127.491 189.618 127.071C188.706 126.114 187.817 125.166 186.883 124.24C186.846 124.204 186.787 124.24 186.823 124.295C188.369 125.959 189.837 127.696 191.264 129.461C190.146 129.442 189.027 129.483 187.913 129.584C186.668 129.675 185.433 129.834 184.197 130.003C184.186 130.003 184.176 130.007 184.168 130.015C184.161 130.023 184.156 130.033 184.156 130.044C184.156 130.055 184.161 130.065 184.168 130.073C184.176 130.081 184.186 130.085 184.197 130.085C185.428 129.911 186.667 129.799 187.909 129.752C189.108 129.702 190.298 129.752 191.492 129.752C192.263 130.714 193.029 131.676 193.772 132.652H193.603C193.321 132.652 193.042 132.652 192.76 132.652C192.203 132.652 191.643 132.702 191.086 132.748C189.947 132.839 188.815 133.008 187.699 133.254C187.688 133.254 187.678 133.258 187.67 133.266C187.662 133.274 187.658 133.284 187.658 133.295C187.658 133.306 187.662 133.316 187.67 133.324C187.678 133.332 187.688 133.336 187.699 133.336C188.825 133.208 189.956 133.103 191.091 133.062C191.629 133.062 192.172 133.062 192.714 133.062H193.558C193.711 133.083 193.867 133.069 194.014 133.021C194.506 133.664 195.003 134.303 195.491 134.945C195.878 135.461 196.266 135.976 196.64 136.5C197.014 137.024 197.374 137.613 197.802 138.11C197.811 138.127 197.826 138.139 197.844 138.145C197.862 138.151 197.881 138.15 197.898 138.141C197.915 138.133 197.928 138.118 197.934 138.1C197.94 138.082 197.938 138.063 197.93 138.046Z" fill="#00840D"/>
<path d="M188.023 127.304C187.373 127.221 186.717 127.191 186.062 127.213C185.406 127.213 184.749 127.213 184.097 127.254C184.086 127.254 184.076 127.258 184.068 127.266C184.06 127.273 184.056 127.284 184.056 127.295C184.056 127.306 184.06 127.316 184.068 127.324C184.076 127.332 184.086 127.336 184.097 127.336C184.758 127.286 185.424 127.277 186.09 127.286C186.756 127.295 187.376 127.354 188.014 127.34L188.023 127.304Z" fill="#00840D"/>
<path d="M193.781 128.786C193.854 128.157 193.936 127.527 194.069 126.912C194.069 126.901 194.064 126.89 194.057 126.883C194.049 126.875 194.038 126.871 194.028 126.871C194.017 126.871 194.006 126.875 193.999 126.883C193.991 126.89 193.986 126.901 193.986 126.912C193.895 127.532 193.772 128.143 193.681 128.759C193.635 129.063 193.594 129.366 193.558 129.67C193.502 129.959 193.477 130.252 193.48 130.546C193.48 130.601 193.576 130.605 193.59 130.546C193.645 130.259 193.677 129.967 193.686 129.675C193.713 129.379 193.745 129.082 193.781 128.786Z" fill="#00840D"/>
<path d="M192.555 121.842C192.395 122.453 192.236 123.068 192.099 123.689C192.044 124.003 191.994 124.322 191.953 124.637C191.897 124.938 191.876 125.243 191.889 125.549C191.889 125.549 191.93 125.549 191.939 125.549C192.011 125.26 192.06 124.966 192.085 124.669C192.125 124.365 192.17 124.061 192.222 123.757C192.336 123.119 192.45 122.485 192.61 121.856C192.664 121.819 192.587 121.792 192.555 121.842Z" fill="#00840D"/>
<path d="M168.682 159.055C168.581 157.897 168.468 156.744 168.349 155.59C168.106 153.307 167.829 151.028 167.519 148.751C167.214 146.471 166.922 144.192 166.557 141.944C166.424 140.894 166.19 139.859 165.86 138.853C165.74 138.421 165.524 138.022 165.227 137.687C164.93 137.352 164.56 137.089 164.145 136.92C161.989 136.172 160.53 138.41 159.659 139.997C159.632 140.043 159.704 140.079 159.732 140.034C160.256 139.286 161.697 137.179 163.334 137.275C164.437 137.344 165.317 138.123 165.846 140.873C167.164 147.712 168.354 161.608 168.49 162.516C168.563 162.999 168.905 162.972 168.905 162.461C168.914 161.321 168.782 160.186 168.682 159.055Z" fill="#00840D"/>
<path d="M160.243 139.14C160.243 139.14 162.13 132.479 157.963 135.807C151.019 141.351 150.773 153.415 150.773 153.415C150.773 153.415 163.115 146.248 164.652 141.52C166.931 134.471 160.243 139.14 160.243 139.14Z" fill="#0FBD21"/>
<path d="M162.577 142.409C161.61 142.605 160.626 142.733 159.65 142.865L158.259 143.061C157.949 143.102 157.63 143.134 157.316 143.17C158.227 141.907 159.162 140.645 160.051 139.354C160.088 139.304 160.01 139.249 159.969 139.29C159.241 140.047 158.553 140.842 157.908 141.67L157.361 140.125C157.151 139.528 156.905 138.935 156.773 138.301C156.773 138.251 156.682 138.274 156.696 138.328C156.864 138.939 156.983 139.559 157.151 140.152C157.32 140.745 157.489 141.328 157.699 141.903C157.243 142.491 156.809 143.093 156.39 143.699C156.176 143.097 155.934 142.514 155.729 141.903C155.725 141.892 155.717 141.883 155.707 141.878C155.697 141.873 155.685 141.872 155.674 141.876C155.663 141.879 155.654 141.887 155.649 141.897C155.644 141.908 155.643 141.919 155.647 141.93C155.87 142.605 155.989 143.298 156.199 143.987C155.911 144.401 155.629 144.816 155.36 145.231C154.863 146.002 154.393 146.786 153.933 147.579C153.897 147.593 153.866 147.619 153.847 147.652C153.827 147.685 153.818 147.723 153.823 147.762C153.043 149.129 152.3 150.497 151.571 151.865C151.565 151.875 151.564 151.886 151.567 151.897C151.57 151.908 151.577 151.917 151.587 151.922C151.596 151.928 151.608 151.929 151.619 151.926C151.629 151.923 151.638 151.916 151.644 151.906C152.378 150.538 153.189 149.216 154.037 147.912C154.17 147.873 154.306 147.847 154.443 147.835L154.867 147.743C155.186 147.675 155.501 147.593 155.82 147.511C156.445 147.356 157.065 147.21 157.703 147.101C157.753 147.101 157.73 147.009 157.676 147.019C156.928 147.164 156.18 147.246 155.423 147.333C155.068 147.374 154.712 147.42 154.361 147.479H154.306C154.762 146.804 155.218 146.134 155.674 145.473C156.13 144.812 156.586 144.178 157.042 143.54C157.471 143.476 157.895 143.366 158.319 143.284L159.755 143.006C160.708 142.815 161.661 142.601 162.618 142.441C162.655 142.482 162.632 142.4 162.577 142.409Z" fill="#00840D"/>
<path d="M155.168 143.066L155.004 142.537C154.887 142.17 154.793 141.797 154.721 141.42C154.721 141.365 154.63 141.392 154.639 141.442C154.721 141.821 154.808 142.195 154.895 142.569C154.973 142.946 155.081 143.317 155.218 143.677C155.255 143.763 155.387 143.727 155.36 143.636C155.296 143.444 155.223 143.257 155.168 143.066Z" fill="#00840D"/>
<path d="M163.831 140.854C163.271 140.936 162.701 140.977 162.135 141.028C161.57 141.078 161.004 141.155 160.439 141.242C160.407 141.242 160.407 141.292 160.439 141.292C161.009 141.251 161.57 141.205 162.135 141.132C162.701 141.059 163.266 140.973 163.836 140.936C163.895 140.945 163.891 140.854 163.831 140.854Z" fill="#00840D"/>
<path d="M177.764 150.62C177.545 145.715 177.235 140.818 176.743 135.93C176.497 133.496 176.223 131.065 175.881 128.635C175.574 126.255 175.103 123.898 174.473 121.582C173.971 119.817 173.305 118.044 172.124 116.612C171.575 115.892 170.852 115.324 170.022 114.962C169.192 114.6 168.284 114.455 167.383 114.542C165.235 114.807 163.507 116.161 162.012 117.629C160.334 119.279 158.82 121.076 157.247 122.84C156.855 123.296 156.463 123.752 156.076 124.185C156.044 124.226 156.103 124.286 156.135 124.245C157.658 122.498 159.235 120.802 160.886 119.184C162.413 117.684 163.981 116.047 166.097 115.427C167.079 115.115 168.129 115.091 169.124 115.358C169.916 115.608 170.629 116.059 171.194 116.667C172.384 117.907 173.05 119.58 173.529 121.204C174.846 125.713 175.321 130.441 175.808 135.096C176.305 139.828 176.643 144.57 176.88 149.321C177.117 154.072 177.304 158.896 177.764 163.637C177.824 164.225 177.897 164.814 177.974 165.397C178.024 165.794 178.635 165.794 178.603 165.397C178.211 160.459 177.988 155.549 177.764 150.62Z" fill="#00840D"/>
<path d="M161.743 118.167C161.743 118.167 164.547 112.983 161.237 111.328C157.927 109.673 146.847 122.029 143.61 140.111C143.61 140.111 161.501 132.196 167.579 124.308C173.656 116.421 166.767 114.679 161.743 118.167Z" fill="#0FBD21"/>
<path d="M164.373 122.384C162.363 122.384 160.356 122.234 158.346 122.248C158.724 121.814 159.098 121.381 159.481 120.953C160.044 120.38 160.568 119.771 161.049 119.129C161.081 119.088 161.018 119.029 160.976 119.061C160.433 119.532 159.926 120.042 159.458 120.588C158.951 121.12 158.449 121.658 157.954 122.202C157.183 123.032 156.431 123.875 155.674 124.723V123.424C155.674 122.74 155.674 122.056 155.697 121.377C155.697 120.009 155.697 118.605 155.802 117.228C155.802 117.173 155.724 117.178 155.72 117.228C155.624 118.596 155.478 119.995 155.41 121.386C155.378 122.065 155.359 122.754 155.355 123.433C155.355 123.784 155.355 124.135 155.355 124.486C155.355 124.678 155.355 124.883 155.355 125.079L154.999 125.476C153.394 127.299 151.867 129.205 150.385 131.134C150.385 131.029 150.385 130.919 150.358 130.815C150.358 130.6 150.312 130.391 150.285 130.176C150.235 129.72 150.171 129.264 150.102 128.808C150.034 128.353 149.97 127.947 149.897 127.518C149.824 127.09 149.697 126.547 149.66 126.055C149.66 126.044 149.656 126.033 149.648 126.026C149.64 126.018 149.63 126.014 149.619 126.014C149.608 126.014 149.598 126.018 149.59 126.026C149.582 126.033 149.578 126.044 149.578 126.055C149.664 126.542 149.72 127.033 149.747 127.527L149.87 128.854C149.911 129.31 149.952 129.743 149.998 130.185C149.998 130.395 150.039 130.609 150.061 130.824C150.061 130.929 150.084 131.033 150.098 131.143C150.108 131.232 150.137 131.318 150.185 131.394L149.419 132.392C148.406 133.737 147.408 135.096 146.414 136.45C146.382 136.491 146.441 136.55 146.473 136.505C147.417 135.278 148.388 134.07 149.373 132.857C150.107 132.889 150.859 132.834 151.593 132.825C152.327 132.816 153.144 132.825 153.923 132.802C153.973 132.802 153.973 132.72 153.923 132.72C153.148 132.72 152.373 132.748 151.598 132.748C150.823 132.748 150.166 132.716 149.46 132.748C150.326 131.693 151.198 130.646 152.077 129.606L153.039 128.471C153.341 128.511 153.646 128.52 153.951 128.498H155.008L156.992 128.471C158.359 128.448 159.727 128.403 161.095 128.403C161.104 128.4 161.112 128.394 161.118 128.386C161.123 128.378 161.126 128.369 161.126 128.359C161.126 128.35 161.123 128.34 161.118 128.333C161.112 128.325 161.104 128.319 161.095 128.316C159.727 128.316 158.359 128.243 156.992 128.207C156.331 128.207 155.669 128.17 155.008 128.161H153.951C153.75 128.161 153.54 128.161 153.34 128.161L155.592 125.489C155.61 125.479 155.624 125.463 155.633 125.444C156.367 124.577 157.101 123.711 157.84 122.854L158.15 122.503C160.233 122.567 162.312 122.43 164.401 122.471C164.428 122.471 164.428 122.384 164.373 122.384Z" fill="#00840D"/>
<path d="M163.343 125.941H162.86C162.85 125.941 162.841 125.945 162.834 125.951C162.827 125.958 162.823 125.967 162.823 125.977C162.823 125.987 162.827 125.996 162.834 126.003C162.841 126.01 162.85 126.014 162.86 126.014H163.348C163.402 126.023 163.398 125.941 163.343 125.941Z" fill="#00840D"/>
<path d="M162.263 125.945C161.62 125.945 160.973 125.922 160.33 125.904L159.363 125.877C159.06 125.837 158.754 125.837 158.451 125.877C158.419 125.877 158.424 125.927 158.451 125.936C158.751 125.997 159.057 126.018 159.363 126H160.33C160.973 126 161.615 126 162.258 126C162.263 126.007 162.27 126.012 162.278 126.014C162.286 126.017 162.295 126.017 162.303 126.015C162.31 126.012 162.318 126.008 162.323 126.001C162.328 125.995 162.331 125.987 162.332 125.979C162.333 125.97 162.331 125.962 162.327 125.955C162.323 125.948 162.316 125.942 162.309 125.938C162.301 125.935 162.293 125.933 162.285 125.935C162.277 125.936 162.269 125.94 162.263 125.945Z" fill="#00840D"/>
<path d="M156.637 131.986C155.33 131.769 154.008 131.648 152.683 131.626C152.661 131.626 152.683 131.654 152.683 131.658C153.997 131.781 155.314 131.854 156.619 132.064C156.673 132.073 156.692 131.991 156.637 131.986Z" fill="#00840D"/>
<path d="M151.261 126.228L151.22 125.882C151.183 125.626 151.142 125.366 151.101 125.106C151.028 124.619 150.942 124.126 150.846 123.638C150.846 123.593 150.759 123.606 150.764 123.638C150.828 124.146 150.882 124.652 150.928 125.157C150.951 125.407 150.969 125.654 150.992 125.904C150.986 126.144 151.02 126.383 151.092 126.611C151.102 126.627 151.116 126.639 151.133 126.647C151.149 126.655 151.168 126.658 151.186 126.656C151.204 126.653 151.222 126.646 151.236 126.634C151.25 126.622 151.26 126.606 151.265 126.588C151.287 126.469 151.286 126.347 151.261 126.228Z" fill="#00840D"/>
<path d="M177.591 111.51C176.948 110.32 176.132 108.743 174.536 108.843C173.214 108.925 172.621 110.275 172.339 111.387C171.468 114.83 171.404 118.463 171.235 121.992C170.88 129.447 170.556 136.915 170.506 144.379C170.506 146.449 170.506 148.519 170.506 150.588C170.529 152.699 170.506 154.824 170.656 156.931C170.656 156.972 170.673 157.011 170.702 157.04C170.731 157.069 170.77 157.086 170.811 157.086C170.852 157.086 170.892 157.069 170.921 157.04C170.95 157.011 170.966 156.972 170.966 156.931C170.966 155.107 170.912 153.32 170.907 151.514C170.903 149.709 170.907 147.99 170.944 146.23C170.998 142.658 171.092 139.09 171.226 135.524C171.358 131.977 171.513 128.435 171.682 124.892C171.76 123.118 171.833 121.349 171.915 119.576C171.997 117.802 172.065 116.143 172.261 114.437C172.371 113.48 172.512 112.523 172.717 111.583C172.817 110.883 173.102 110.222 173.542 109.668C173.85 109.372 174.251 109.193 174.677 109.162C175.102 109.131 175.525 109.251 175.872 109.5C176.602 110.025 177.174 110.739 177.527 111.565C177.545 111.602 177.614 111.561 177.591 111.51Z" fill="#00840D"/>
<path d="M177.158 110.94C177.158 110.94 175.84 106.304 178.749 108.62C183.582 112.486 183.764 120.889 183.764 120.889C183.764 120.889 175.165 115.874 174.098 112.6C172.493 107.694 177.158 110.94 177.158 110.94Z" fill="#0FBD21"/>
<path d="M181.945 117.442C181.867 117.314 181.785 117.191 181.703 117.064C181.712 116.932 181.712 116.799 181.703 116.667C181.703 116.466 181.703 116.266 181.703 116.065C181.703 115.673 181.726 115.285 181.749 114.893C181.746 114.884 181.74 114.876 181.732 114.871C181.724 114.865 181.715 114.862 181.705 114.862C181.696 114.862 181.686 114.865 181.679 114.871C181.671 114.876 181.665 114.884 181.662 114.893C181.662 115.276 181.63 115.664 181.616 116.047C181.616 116.238 181.616 116.43 181.616 116.626C181.616 116.699 181.616 116.786 181.616 116.872C181.279 116.348 180.933 115.828 180.577 115.322C180.472 115.172 180.363 115.026 180.258 114.866C180.205 114.363 180.196 113.857 180.23 113.352C180.23 112.814 180.23 112.272 180.262 111.734C180.262 111.684 180.18 111.684 180.18 111.734C180.18 112.295 180.135 112.855 180.107 113.416C180.076 113.815 180.066 114.215 180.075 114.615C179.246 113.485 178.366 112.395 177.472 111.314C177.445 111.278 177.381 111.314 177.408 111.364C177.96 112.067 178.489 112.782 179.009 113.507C177.996 113.27 176.971 113.133 175.94 112.988C175.89 112.988 175.867 113.061 175.94 113.065C177.025 113.234 178.097 113.521 179.168 113.74H179.191C179.601 114.319 180.012 114.903 180.413 115.486L180.901 116.202H180.855L180.522 116.156C180.285 116.129 180.044 116.111 179.806 116.093C179.309 116.051 178.812 116.024 178.316 115.997C178.265 115.997 178.265 116.079 178.316 116.083C178.803 116.083 179.291 116.129 179.775 116.184L180.545 116.275L180.882 116.316H180.978L181.803 117.533C182.291 118.249 182.715 119.02 183.244 119.713C183.25 119.721 183.258 119.727 183.268 119.729C183.278 119.731 183.288 119.729 183.297 119.724C183.305 119.719 183.311 119.71 183.313 119.7C183.315 119.69 183.313 119.68 183.308 119.672C182.897 118.902 182.442 118.158 181.945 117.442Z" fill="#00840D"/>
<path d="M179.788 112.199C179.788 112.021 179.788 111.839 179.788 111.661C179.774 111.28 179.789 110.899 179.834 110.521C179.834 110.462 179.752 110.453 179.752 110.521C179.752 110.899 179.711 111.273 179.693 111.647C179.693 111.834 179.693 112.026 179.693 112.213V112.473C179.677 112.562 179.677 112.653 179.693 112.742C179.693 112.751 179.696 112.761 179.703 112.767C179.71 112.774 179.719 112.778 179.729 112.778C179.739 112.778 179.748 112.774 179.755 112.767C179.762 112.761 179.766 112.751 179.766 112.742C179.779 112.659 179.779 112.574 179.766 112.491L179.788 112.199Z" fill="#00840D"/>
<path d="M178.745 114.123C178.425 114.068 178.097 114.05 177.773 114.023C177.45 113.995 177.067 113.963 176.711 113.918C176.7 113.918 176.69 113.922 176.682 113.93C176.674 113.937 176.67 113.948 176.67 113.959C176.67 113.97 176.674 113.98 176.682 113.988C176.69 113.995 176.7 114 176.711 114C177.39 114.041 178.079 114.164 178.745 114.187C178.772 114.191 178.781 114.127 178.745 114.123Z" fill="#00840D"/>
<path d="M177.787 136.295C175.963 134.927 174.358 132.989 171.924 132.894C169.917 132.816 168.509 134.325 167.706 136.008C167.301 136.903 166.972 137.83 166.721 138.78C166.363 140.053 166.022 141.33 165.7 142.61C165.065 145.129 164.527 147.672 164.086 150.237C163.844 151.664 163.63 153.096 163.434 154.532C163.203 155.99 163.063 157.461 163.015 158.937C163.008 158.997 163.026 159.058 163.064 159.105C163.102 159.153 163.157 159.183 163.217 159.19C163.278 159.196 163.339 159.179 163.386 159.141C163.433 159.103 163.464 159.047 163.47 158.987C163.717 157.783 163.817 156.543 163.995 155.339C164.173 154.136 164.36 152.895 164.565 151.692C164.98 149.257 165.477 146.832 166.005 144.424C166.525 142.145 167.036 139.838 167.77 137.622C168.294 136.035 169.138 134.184 170.852 133.609C173.46 132.743 175.831 134.95 177.741 136.386C177.773 136.368 177.832 136.295 177.787 136.295Z" fill="#00840D"/>
<path d="M175.918 134.977C175.918 134.977 174.253 130.217 176.661 129.283C180.276 127.883 189.732 138.534 187.881 154.851C187.881 154.851 180.586 150.83 175.179 146.303C169.772 141.775 168.39 135.839 170.779 134.33C173.168 132.821 175.918 134.977 175.918 134.977Z" fill="#0FBD21"/>
<path d="M186.787 151.341C186.536 150.771 186.242 150.221 185.907 149.695C185.602 149.139 185.287 148.582 184.964 148.031C184.339 146.955 183.714 145.879 183.071 144.839L182.752 144.324C182.752 144.26 182.78 144.196 182.793 144.132L182.903 143.677C182.98 143.325 183.044 142.965 183.108 142.61C183.24 141.912 183.363 141.201 183.564 140.517C183.564 140.467 183.495 140.449 183.482 140.517C183.331 141.214 183.112 141.885 182.907 142.582C182.807 142.92 182.698 143.257 182.606 143.594C182.579 143.713 182.547 143.827 182.515 143.946C181.74 142.673 180.951 141.406 180.099 140.179C180.155 140.01 180.183 139.833 180.181 139.655L180.263 138.944C180.327 138.406 180.391 137.868 180.468 137.334C180.607 136.283 180.798 135.239 181.043 134.207C181.043 134.157 180.974 134.143 180.96 134.207C180.701 135.233 180.418 136.263 180.222 137.303C180.126 137.813 180.035 138.328 179.967 138.844C179.935 139.099 179.907 139.359 179.88 139.619C179.88 139.692 179.857 139.774 179.848 139.851C179.588 139.482 179.324 139.113 179.05 138.752C178.216 137.654 177.349 136.582 176.479 135.515C176.447 135.474 176.378 135.515 176.41 135.561C177.903 137.472 179.274 139.476 180.514 141.561C180.755 141.944 180.97 142.332 181.225 142.714L180.992 142.687C180.687 142.646 180.377 142.628 180.081 142.601C179.473 142.543 178.857 142.488 178.234 142.436C177.003 142.341 175.767 142.263 174.541 142.135C174.486 142.135 174.473 142.208 174.541 142.213C175.786 142.359 177.021 142.555 178.261 142.733L180.085 142.979C180.547 143.074 181.018 143.123 181.489 143.125C181.976 143.909 182.461 144.695 182.944 145.482C182.835 145.473 182.725 145.473 182.616 145.482H180.856C180.062 145.482 179.274 145.482 178.48 145.482C178.425 145.482 178.435 145.564 178.48 145.564C179.283 145.564 180.081 145.614 180.883 145.655C181.266 145.655 181.644 145.696 182.027 145.724C182.214 145.724 182.406 145.756 182.597 145.765C182.763 145.799 182.933 145.799 183.099 145.765L184.33 147.766C184.707 148.374 185.091 148.982 185.483 149.59C185.848 150.241 186.262 150.863 186.723 151.45C186.742 151.432 186.806 151.409 186.787 151.341Z" fill="#00840D"/>
<path d="M183.309 138.164C183.233 138.689 183.124 139.209 182.98 139.719C182.843 140.248 182.693 140.772 182.524 141.288C182.52 141.295 182.517 141.303 182.516 141.311C182.515 141.32 182.515 141.328 182.518 141.336C182.521 141.344 182.526 141.351 182.532 141.357C182.538 141.363 182.545 141.367 182.553 141.37C182.561 141.373 182.57 141.373 182.578 141.372C182.587 141.371 182.595 141.367 182.601 141.363C182.608 141.358 182.614 141.351 182.618 141.344C182.622 141.336 182.624 141.328 182.625 141.32C182.784 140.804 182.93 140.285 183.081 139.765C183.231 139.245 183.286 138.702 183.418 138.183C183.4 138.119 183.313 138.119 183.309 138.164Z" fill="#00840D"/>
<path d="M177.938 141.356C177.828 141.259 177.687 141.205 177.541 141.205L176.853 141.11C176.424 141.05 175.995 141.005 175.567 140.955C174.678 140.85 173.784 140.763 172.895 140.654C172.884 140.654 172.874 140.658 172.866 140.666C172.858 140.673 172.854 140.684 172.854 140.695C172.854 140.706 172.858 140.716 172.866 140.724C172.874 140.731 172.884 140.736 172.895 140.736C173.734 140.836 174.568 140.964 175.407 141.073C175.818 141.128 176.228 141.187 176.643 141.233L177.236 141.301C177.467 141.302 177.696 141.34 177.915 141.415C177.921 141.414 177.927 141.412 177.932 141.407C177.937 141.403 177.941 141.398 177.944 141.392C177.946 141.386 177.947 141.38 177.946 141.373C177.944 141.367 177.942 141.361 177.938 141.356Z" fill="#00840D"/>
<path d="M183.295 148.528C182.875 148.496 182.451 148.482 182.027 148.468H181.389H181.084C180.951 148.477 180.818 148.469 180.687 148.446C180.628 148.446 180.623 148.541 180.687 148.528C180.811 148.514 180.936 148.514 181.061 148.528H181.394L182.032 148.569C182.451 148.592 182.875 148.619 183.295 148.619C183.341 148.605 183.345 148.532 183.295 148.528Z" fill="#00840D"/>
<path d="M185.871 146.704L186.007 145.988L186.267 144.575C186.267 144.525 186.194 144.511 186.185 144.575C186.08 145.031 185.975 145.487 185.875 145.943C185.82 146.171 185.77 146.399 185.725 146.627L185.656 146.946C185.622 147.055 185.609 147.169 185.62 147.283C185.62 147.324 185.684 147.352 185.711 147.311C185.8 147.12 185.854 146.914 185.871 146.704Z" fill="#00840D"/>
<path d="M161.132 157.086L161.642 162.871L163.37 182.404H178.667L180.824 162.871L181.462 157.086H161.132Z" fill="#E89C24"/>
<path d="M161.132 157.086L161.642 162.871H180.824L181.462 157.086H161.132Z" fill="#A37339"/>
<path d="M159.618 160.204H182.98V155.513H159.618V160.204Z" fill="#E89C24"/>
<path d="M0 182.344L24.9989 182.235L50.0023 182.194L100 182.116L149.998 182.194L175.001 182.23L200 182.344L175.001 182.454L149.998 182.495L100 182.572L50.0023 182.495L24.9989 182.454L0 182.344Z" fill="#263238"/>
<path d="M77.7275 145.87V145.933C77.7275 145.933 77.7275 145.961 77.7275 145.979C77.7275 145.997 77.7275 146.052 77.7503 146.102V146.184C77.7648 146.243 77.7754 146.302 77.7823 146.362C77.7823 146.403 77.7823 146.444 77.8051 146.49C77.8279 146.535 77.837 146.681 77.8598 146.791C77.8826 146.9 77.9282 147.16 77.9646 147.379L78.1698 148.491C78.1926 148.61 78.2154 148.737 78.2382 148.87C78.261 149.002 78.302 149.225 78.3385 149.412C78.375 149.599 78.4114 149.832 78.4525 150.055C78.4798 150.21 78.5117 150.37 78.5391 150.534C78.6257 151.022 78.7169 151.541 78.8218 152.098C78.8239 152.111 78.8239 152.125 78.8218 152.139C78.9312 152.759 79.0498 153.424 79.1774 154.122C79.2093 154.304 79.2458 154.487 79.2823 154.669C79.3188 154.851 79.3552 155.052 79.3871 155.244C79.3871 155.362 79.4282 155.485 79.4555 155.608C79.6288 156.578 79.8157 157.605 80.0163 158.69C80.0847 159.055 80.1486 159.424 80.2169 159.798C80.3492 160.528 80.4859 161.276 80.6273 162.046C80.6638 162.224 80.6957 162.402 80.723 162.584C80.9267 163.7 81.1379 164.861 81.3568 166.067C81.3841 166.191 81.4024 166.314 81.4252 166.437C81.53 167.002 81.6349 167.572 81.7352 168.156C81.7487 168.2 81.7579 168.246 81.7626 168.292L81.913 169.122C82.1136 170.235 82.3203 171.373 82.5331 172.537C82.5878 172.824 82.6425 173.116 82.6927 173.413C82.7975 174.001 82.907 174.593 83.0164 175.191C83.1532 175.934 83.2899 176.682 83.4267 177.443C83.5635 178.204 83.7003 178.966 83.8416 179.723C83.9146 180.11 83.983 180.498 84.0559 180.885C84.138 181.341 84.2246 181.797 84.3067 182.285H123.708C118.848 162.092 114.749 145.81 114.749 145.81L77.7275 145.87Z" fill="#455A64"/>
<path d="M83.6822 150.429C85.6548 161.067 87.6488 171.706 89.664 182.344H90.2111C88.1184 171.68 85.9618 161.034 83.8281 150.383C83.7962 150.283 83.6685 150.324 83.6822 150.429Z" fill="#37474F"/>
<path d="M77.7319 145.87C77.7319 145.87 77.7319 145.892 77.7319 145.933C77.7319 145.974 77.7319 145.961 77.7319 145.979C77.7319 145.997 77.7319 146.052 77.7547 146.102V146.184C77.7692 146.243 77.7798 146.302 77.7866 146.362C77.7866 146.403 77.7866 146.444 77.8094 146.49C77.8322 146.535 77.8459 146.681 77.8642 146.791C77.8824 146.9 77.9325 147.16 77.969 147.379C78.0328 147.702 78.0967 148.072 78.1742 148.491C78.197 148.61 78.2198 148.737 78.2426 148.87C78.2654 149.002 78.3064 149.225 78.3429 149.412C78.3794 149.599 78.4158 149.832 78.4569 150.055C78.4842 150.21 78.5161 150.37 78.5435 150.534C78.6347 151.022 78.7259 151.541 78.8262 152.098C78.8283 152.111 78.8283 152.125 78.8262 152.139C78.9402 152.759 79.0587 153.415 79.1864 154.113C79.2228 154.295 79.2548 154.482 79.2867 154.669C79.3186 154.856 79.3596 155.052 79.3915 155.244C79.4189 155.362 79.4371 155.485 79.4599 155.608C79.6377 156.575 79.8247 157.605 80.0207 158.69C80.0891 159.055 80.1529 159.424 80.2213 159.798C80.3581 160.528 80.4949 161.276 80.6317 162.046C80.6681 162.224 80.7001 162.402 80.7274 162.584C80.9371 163.706 81.1484 164.867 81.3612 166.067C81.3885 166.191 81.4068 166.314 81.4296 166.437C81.5344 167.002 81.6393 167.572 81.7396 168.156C81.7531 168.2 81.7622 168.246 81.7669 168.292L81.9174 169.122C82.1211 170.235 82.3277 171.373 82.5375 172.537C82.5922 172.824 82.6469 173.116 82.6971 173.413C82.8065 174.001 82.9113 174.593 83.0208 175.191C83.1575 175.934 83.2943 176.682 83.4311 177.443C83.5679 178.204 83.7092 178.966 83.846 179.723C83.919 180.11 83.9873 180.498 84.0603 180.885C84.1424 181.341 84.229 181.797 84.3156 182.285H104.103L105.685 166.09L105.74 165.516L105.804 164.896L106.114 161.727L106.383 158.991L107.655 145.87H77.7319Z" fill="#263238"/>
<path d="M55.3412 182.344H97.8388C97.9117 178.432 97.9893 174.648 98.085 171.078C98.085 170.992 98.085 170.905 98.085 170.818C98.085 170.818 103.046 167.882 105.717 165.58C106.172 165.206 106.59 164.791 106.967 164.339C108.676 162.16 110.391 153.78 113.938 145.897H61.9614C53.5175 162.283 54.1102 175.451 55.3412 182.344Z" fill="#455A64"/>
<path d="M108.207 163.76C105.677 164.795 103.401 166.387 101.158 167.923C98.8284 169.514 96.6901 171.356 94.4469 173.066C94.3603 173.134 94.4469 173.276 94.5381 173.212C96.8998 171.703 99.3755 170.376 101.714 168.821C104.053 167.267 106.347 165.844 108.321 163.943C108.398 163.87 108.312 163.715 108.207 163.76Z" fill="#263238"/>
<path d="M108.526 149.139C108.225 150.757 107.829 152.362 107.482 153.971C107.154 155.481 106.912 157.017 106.516 158.531C106.19 159.975 105.455 161.295 104.4 162.333C103.807 162.885 103.155 163.373 102.522 163.874C102.184 164.148 101.815 164.408 101.459 164.686C101.505 164.472 101.546 164.23 101.582 164.034C101.692 163.418 101.792 162.807 101.897 162.21C102.125 160.842 102.353 159.475 102.554 158.107C102.964 155.421 103.342 152.709 103.921 150.05C103.927 150.028 103.924 150.004 103.913 149.984C103.901 149.964 103.882 149.949 103.86 149.943C103.837 149.937 103.814 149.94 103.793 149.952C103.773 149.963 103.759 149.983 103.753 150.005C103.082 152.64 102.344 155.248 101.765 157.906C101.478 159.206 100.456 165.657 100.397 166.113C100.338 166.569 100.31 167.057 100.297 167.526C100.235 168.006 100.235 168.492 100.297 168.972C100.307 168.993 100.322 169.011 100.342 169.024C100.362 169.036 100.385 169.043 100.408 169.043C100.432 169.043 100.455 169.036 100.475 169.024C100.494 169.011 100.51 168.993 100.52 168.972C100.714 168.526 100.852 168.057 100.93 167.577C101.049 167.118 101.149 166.653 101.231 166.181C101.263 166.017 101.286 165.844 101.309 165.671C101.943 165.283 102.535 164.759 103.133 164.349C103.73 163.938 104.418 163.437 105.025 162.926C106.14 161.981 106.945 160.723 107.336 159.315C107.725 157.799 107.979 156.252 108.093 154.692C108.298 152.868 108.444 151.044 108.7 149.221C108.709 149.061 108.544 149.029 108.526 149.139Z" fill="#263238"/>
<path d="M65.2807 160.409C65.9555 160.058 68.5862 160.683 73.369 159.867C74.3052 159.746 75.1942 159.384 75.9496 158.818C77.1988 157.801 78.1426 156.165 78.8949 154.765C79.7976 153.19 80.4904 151.504 80.9557 149.75C80.9785 149.64 81.1335 149.695 81.1153 149.795C80.9375 150.785 80.8372 151.774 80.5773 152.754C80.3183 153.674 79.9875 154.572 79.5879 155.44C78.863 157.063 78.0195 158.804 76.5651 159.903C75.0377 161.052 72.9176 161.271 71.0574 161.399C69.9859 161.472 65.7868 161.358 65.226 160.76C65.2045 160.735 65.1888 160.704 65.1799 160.672C65.171 160.64 65.169 160.606 65.1742 160.573C65.1794 160.539 65.1916 160.508 65.2099 160.479C65.2283 160.451 65.2524 160.427 65.2807 160.409Z" fill="#263238"/>
<path d="M98.2947 84.127C108.663 89.8809 147.016 104.598 155.624 99.3643C162.039 95.4615 161.122 87.086 155.665 81.6832C150.919 76.9825 115.356 75.6603 105.403 75.3867C95.9421 75.1086 88.1456 78.4734 98.2947 84.127Z" fill="#FFBE9D"/>
<path d="M123.795 97.1074L139.252 75.9019C139.252 75.9019 112.507 73.2985 101.213 74.2742C89.4408 75.291 87.0289 79.8959 101.24 86.4477C115.238 92.8991 123.795 97.1074 123.795 97.1074Z" fill="#E89C24"/>
<path d="M121.187 93.0177C121.497 92.4706 121.885 91.9645 122.241 91.4493C122.596 90.9341 122.975 90.3915 123.339 89.8581C124.083 88.7821 124.844 87.7197 125.619 86.6665C127.151 84.551 128.674 82.4309 130.242 80.3427C130.671 79.7682 131.104 79.1938 131.551 78.633C131.998 78.0722 132.531 77.4795 132.996 76.8913C133.023 76.8503 133.074 76.8913 133.051 76.9369C132.686 77.4703 132.367 78.0357 132.007 78.5737C131.647 79.1117 131.259 79.6725 130.876 80.2105C130.119 81.2774 129.359 82.3412 128.596 83.402C127.074 85.472 125.56 87.551 123.991 89.5891L122.674 91.2943C122.218 91.887 121.785 92.5207 121.274 93.0724C121.219 93.0815 121.165 93.0542 121.187 93.0177Z" fill="#263238"/>
<path d="M110.851 77.6026C110.563 78.2144 110.362 78.8636 110.254 79.5312C110.693 79.0159 111.055 78.4401 111.33 77.8214C111.619 77.2098 111.82 76.5606 111.927 75.8928C111.49 76.4092 111.128 76.9848 110.851 77.6026ZM116.674 87.6696C116.063 87.3788 115.413 87.1776 114.745 87.0723C115.795 87.937 117.052 88.5122 118.392 88.741C117.874 88.3027 117.295 87.9418 116.674 87.6696ZM100.629 80.4476C100.018 80.1568 99.3689 79.9556 98.7007 79.8503C99.7503 80.715 101.008 81.2902 102.348 81.519C101.829 81.0823 101.25 80.7215 100.629 80.4476ZM123.955 79.3807C123.728 78.7435 123.412 78.1417 123.016 77.5934C123.139 78.943 123.61 80.2374 124.383 81.3503C124.337 80.6764 124.193 80.0128 123.955 79.3807ZM128.642 87.1316C128.005 87.3603 127.404 87.6764 126.855 88.0708C128.204 87.9475 129.499 87.4762 130.612 86.703C129.938 86.7513 129.275 86.8956 128.642 87.1316Z" fill="white"/>
<path d="M101.24 86.4431C115.237 92.8946 123.795 97.1074 123.795 97.1074L128.724 90.3231L91.6746 77.6481C90.6123 79.8002 93.3935 82.8276 101.24 86.4431Z" fill="#D28D20"/>
<path d="M133.921 37.3937C131.049 33.3952 123.731 27.8191 116.423 23.5105C112.876 21.4087 102.056 16.4618 100.237 19.0561C98.4179 21.6503 101.45 23.3829 101.45 23.3829C101.45 23.3829 96.5668 21.974 94.971 24.7507C93.3753 27.5273 98.1763 30.0623 98.1763 30.0623C98.1763 30.0623 93.0516 28.9818 91.661 31.8861C90.2704 34.7903 95.5318 36.5092 95.5318 36.5092C95.5318 36.5092 90.895 35.3056 90.7491 38.1643C90.5758 41.6111 99.3754 42.8649 103.178 45.3863C104.044 45.9562 119.865 58.2254 119.865 58.2254L133.921 37.3937Z" fill="#FFBE9D"/>
<path d="M95.5959 36.5822C102.066 37.526 104.715 39.0533 109.625 43.2342C109.721 43.3163 109.862 43.1932 109.771 43.0975C105.353 38.57 102.284 36.1673 95.637 36.2585C95.2996 36.2721 95.2904 36.5411 95.5959 36.5822Z" fill="#263238"/>
<path d="M97.9436 29.9483C104.577 31.5122 107.482 33.1399 112.93 37.1475C113.003 37.2068 113.108 37.0791 113.035 37.0153C108.02 32.6429 104.906 30.3176 98.0712 29.6292C97.7657 29.6064 97.6381 29.8799 97.9436 29.9483Z" fill="#263238"/>
<path d="M101.993 23.5379C108.303 25.5166 111.567 27.1854 116.354 31.7447C116.378 31.7648 116.407 31.7756 116.438 31.775C116.469 31.7744 116.498 31.7623 116.52 31.7412C116.542 31.7201 116.556 31.6915 116.558 31.661C116.56 31.6304 116.551 31.6001 116.532 31.576C112.105 26.4467 108.047 24.354 102.07 23.3692C101.664 23.2871 101.591 23.4148 101.993 23.5379Z" fill="#263238"/>
<path d="M122.364 62.1646C122.364 62.1646 114.362 60.4001 111.02 58.8545C107.678 57.3089 97.3421 46.9455 99.4531 44.5838C102.189 41.5382 109.324 46.3437 112.516 49.1431C112.516 49.1431 118.812 42.0898 124.685 44.4288C130.557 46.7677 122.364 62.1646 122.364 62.1646Z" fill="#FFBE9D"/>
<path d="M100.479 43.9957C104.97 43.0109 108.918 46.9684 112.219 49.4669C112.266 49.5066 112.321 49.5344 112.381 49.5477C112.44 49.5611 112.502 49.5596 112.561 49.5434C112.62 49.5272 112.674 49.4968 112.719 49.4548C112.763 49.4129 112.797 49.3606 112.816 49.3027C115.652 46.5261 120.467 43.4303 124.584 44.21C124.607 44.2125 124.63 44.2069 124.648 44.1941C124.667 44.1813 124.681 44.1622 124.687 44.1402C124.693 44.1182 124.691 44.0948 124.681 44.0741C124.672 44.0535 124.655 44.037 124.634 44.0276C120.33 42.5868 115.356 45.2449 112.443 48.4866C109.101 45.8741 104.965 42.0762 100.465 43.9546C100.461 43.9575 100.459 43.9615 100.457 43.9661C100.456 43.9706 100.456 43.9755 100.457 43.9801C100.459 43.9846 100.462 43.9886 100.466 43.9914C100.469 43.9942 100.474 43.9957 100.479 43.9957Z" fill="#263238"/>
<path d="M160.11 91.9235C159.823 100.782 149.319 100.171 144.782 95.9585C134.127 86.0784 118.42 65.917 114.161 53.4882C112.794 49.4897 128.879 31.918 132.007 35.1825C137.565 40.9728 160.694 73.946 160.11 91.9235Z" fill="#FFBE9D"/>
<path d="M133.128 83.4066C133.913 84.2045 134.665 85.0206 135.408 85.8458C136.151 86.6711 136.899 87.4963 137.638 88.3261L139.831 90.8383C140.191 91.2578 140.56 91.6727 140.934 92.0876C141.308 92.5025 141.677 92.9128 142.051 93.3277C141.176 92.6338 140.349 91.8813 139.575 91.0754C138.787 90.2866 138.034 89.4614 137.296 88.627C136.557 87.7927 135.837 86.9446 135.144 86.0692C134.451 85.1938 133.771 84.3185 133.128 83.4066Z" fill="#263238"/>
<path d="M137.597 88.6134C137.971 89.1514 138.294 89.6758 138.618 90.2138C138.773 90.4829 138.933 90.7519 139.074 91.03C139.228 91.3131 139.363 91.6055 139.48 91.9055C138.97 91.5037 138.542 91.0066 138.221 90.4418C138.056 90.1645 137.916 89.873 137.802 89.5709C137.683 89.2646 137.614 88.9414 137.597 88.6134Z" fill="#263238"/>
<path d="M118.666 154.605H57.1421C57.1421 154.605 66.5389 95.9174 89.2079 75.8472C92.0074 73.3669 98.3266 73.9323 102.43 75.9794C103.903 76.7135 109.187 84.1042 110.696 91.0982C112.205 98.0922 118.83 154.396 118.666 154.605Z" fill="#E89C24"/>
<path d="M82.1232 92.776C81.4856 93.0019 80.8837 93.3182 80.336 93.7153C81.6877 93.5852 82.9823 93.106 84.0929 92.3247C83.4181 92.3802 82.7549 92.5322 82.1232 92.776ZM112.051 99.615C112.024 99.6317 111.998 99.65 111.973 99.6698H112.055C112.055 99.6698 112.051 99.6105 112.051 99.5968V99.615ZM96.0657 108.871C95.4293 109.099 94.8278 109.415 94.2785 109.81C95.6301 109.68 96.9248 109.2 98.0353 108.419C97.3615 108.469 96.6982 108.615 96.0657 108.852V108.871ZM87.6902 134.339C87.0524 134.567 86.4505 134.884 85.9029 135.283C86.5779 135.226 87.2412 135.072 87.8726 134.827C88.5099 134.598 89.1117 134.281 89.6598 133.883C88.9849 133.94 88.3216 134.094 87.6902 134.339ZM73.6155 116.558C72.9791 116.786 72.3776 117.102 71.8283 117.497C73.1799 117.367 74.4746 116.888 75.5852 116.106C74.9159 116.168 74.2589 116.324 73.6338 116.571L73.6155 116.558ZM60.9953 152.002C60.3581 152.229 59.7563 152.545 59.208 152.941C60.5607 152.812 61.856 152.331 62.9649 151.546C62.2955 151.609 61.6384 151.767 61.0135 152.016L60.9953 152.002ZM88.1644 149.781C87.5272 150.008 86.9254 150.325 86.3771 150.721C87.7298 150.592 89.0251 150.111 90.134 149.326C89.4642 149.387 88.8069 149.545 88.1826 149.795L88.1644 149.781ZM118.434 152.28C117.998 152.367 117.569 152.489 117.153 152.645C116.516 152.873 115.914 153.189 115.365 153.584C116.04 153.526 116.704 153.373 117.335 153.128C117.726 152.981 118.107 152.807 118.475 152.608C118.479 152.522 118.47 152.408 118.452 152.294L118.434 152.28ZM105.718 133.632C105.081 133.859 104.479 134.175 103.931 134.572C105.282 134.441 106.577 133.962 107.687 133.181C107.018 133.24 106.361 133.397 105.736 133.646L105.718 133.632ZM88.4607 83.2789C88.2338 82.6417 87.9176 82.04 87.5215 81.4917C87.6516 82.8433 88.1308 84.138 88.9121 85.2486C88.8587 84.5735 88.7066 83.9099 88.4607 83.2789ZM74.9241 152.116C74.6981 151.478 74.3818 150.876 73.9848 150.329C74.1178 151.678 74.5985 152.969 75.38 154.076C75.3242 153.404 75.1706 152.744 74.9241 152.116ZM72.2249 134.977C71.9959 134.341 71.6765 133.74 71.2766 133.195C71.3341 133.868 71.4876 134.53 71.7325 135.16C71.9591 135.798 72.277 136.4 72.6763 136.947C72.6207 136.272 72.4687 135.609 72.2249 134.977ZM95.628 124.792C95.4002 124.155 95.0841 123.553 94.6888 123.004C94.8188 124.356 95.298 125.651 96.0794 126.761C96.0238 126.087 95.8718 125.423 95.628 124.792ZM87.3483 102.82C87.1197 102.183 86.802 101.581 86.4045 101.033C86.5334 102.386 87.0144 103.681 87.7996 104.79C87.744 104.115 87.592 103.452 87.3483 102.82ZM98.6828 152.973C98.7253 153.537 98.8402 154.093 99.0247 154.628H99.5718C99.3521 154.031 99.0531 153.467 98.6828 152.95V152.973ZM116.113 140.207C115.887 139.569 115.569 138.967 115.169 138.42C115.229 139.093 115.383 139.754 115.625 140.385C115.852 141.023 116.17 141.625 116.569 142.172C116.514 141.492 116.36 140.824 116.113 140.189V140.207ZM105.472 90.2729C105.244 89.6366 104.926 89.0362 104.528 88.4902C104.588 89.1633 104.741 89.8247 104.984 90.4553C105.207 91.0943 105.523 91.6966 105.923 92.2426C105.867 91.5678 105.715 90.9046 105.472 90.2729ZM100.639 80.4476C100.028 80.1568 99.3784 79.9556 98.7101 79.8503C99.7597 80.7149 101.017 81.2902 102.358 81.519C101.835 81.0815 101.254 80.7207 100.63 80.4476H100.639ZM80.5001 126.524C79.8898 126.231 79.2401 126.029 78.5715 125.922C79.0884 126.361 79.6657 126.724 80.2858 126.998C80.8974 127.287 81.5467 127.488 82.2144 127.596C81.6975 127.158 81.1201 126.797 80.5001 126.524ZM64.5926 142.55C63.9818 142.26 63.3322 142.058 62.664 141.953C63.7136 142.818 64.971 143.393 66.3115 143.622C65.7933 143.183 65.2143 142.823 64.5926 142.55ZM106.183 146.544C105.572 146.254 104.923 146.052 104.254 145.947C105.304 146.812 106.561 147.387 107.902 147.616C107.382 147.179 106.804 146.818 106.183 146.544ZM104.861 121.126C104.25 120.836 103.6 120.635 102.932 120.529C103.446 120.968 104.022 121.329 104.642 121.6C105.253 121.89 105.902 122.093 106.57 122.202C106.055 121.763 105.479 121.401 104.861 121.126ZM100.63 99.5512C100.019 99.2604 99.3692 99.0593 98.701 98.9539C99.7506 99.8186 101.008 100.394 102.348 100.623C101.83 100.184 101.251 99.8234 100.63 99.5512ZM75.2797 105.528C74.9882 106.139 74.787 106.789 74.6824 107.457C75.5454 106.406 76.1205 105.15 76.3511 103.81C75.9131 104.328 75.5522 104.907 75.2797 105.528ZM95.7101 140.945C95.4184 141.556 95.2158 142.206 95.1083 142.874C95.5473 142.359 95.9097 141.783 96.1843 141.164C96.473 140.553 96.6741 139.903 96.7815 139.236C96.3449 139.752 95.9841 140.327 95.7101 140.945ZM108.207 109.682C107.916 110.294 107.715 110.946 107.61 111.615C108.047 111.098 108.407 110.52 108.681 109.901C108.972 109.29 109.173 108.641 109.279 107.972C108.842 108.488 108.481 109.064 108.207 109.682ZM80.2585 142.769C79.9677 143.38 79.7665 144.03 79.6612 144.698C80.5242 143.647 81.0993 142.39 81.3299 141.05C80.8935 141.57 80.5327 142.149 80.2585 142.769ZM64.2461 125.644C63.9553 126.257 63.7541 126.908 63.6488 127.577C64.0855 127.06 64.4463 126.483 64.7202 125.863C65.011 125.252 65.2122 124.603 65.3175 123.935C64.8825 124.452 64.5218 125.027 64.2461 125.644ZM86.0306 116.07C85.7378 116.681 85.5365 117.333 85.4333 118.003C85.8683 117.484 86.2289 116.907 86.5048 116.289C86.7935 115.677 86.9946 115.028 87.1021 114.36C86.6643 114.88 86.3035 115.461 86.0306 116.083V116.07ZM94.0414 91.0754C93.7532 91.6872 93.5522 92.3364 93.4441 93.004C93.8831 92.4888 94.2455 91.9129 94.5201 91.2942C94.8088 90.6826 95.0099 90.0334 95.1174 89.3656C94.6788 89.8862 94.3165 90.4665 94.0414 91.0891V91.0754Z" fill="white"/>
<path d="M78.6805 156.716C78.6805 153.274 79.679 132.474 79.0863 125.653C78.8857 123.374 86.7825 97.8734 88.8205 89.3109C90.7354 81.2774 86.6457 77.7302 80.641 85.2942C75.6485 91.586 62.5997 116.156 59.9644 122.717C57.3291 129.278 54.5844 151.382 54.6026 156.055C54.6209 159.753 78.6668 160.118 78.6805 156.716Z" fill="#FFBE9D"/>
<path d="M81.3066 186.334C78.9403 187.524 77.0254 185.559 77.0254 185.559C76.3392 186.687 75.2792 187.539 74.0299 187.966C71.7958 188.613 69.7943 185.39 69.7943 185.39C68.8382 186.412 67.5953 187.121 66.2289 187.423C64.0267 187.829 61.551 184.866 61.551 184.866C60.1538 185.318 58.6403 185.252 57.288 184.679C53.7363 183.005 53.0296 177.055 52.5417 173.28C52.0539 169.505 54.4795 157.236 54.6709 155.066L78.6303 152.786C78.6303 152.786 85.6425 169.113 85.5833 173.636C85.5194 177.466 83.9465 184.993 81.3066 186.334Z" fill="#FFBE9D"/>
<path d="M77.1122 185.467C78.1335 181.423 77.9101 177.302 77.9147 173.157C77.9107 173.142 77.9015 173.128 77.8888 173.118C77.876 173.108 77.8602 173.102 77.844 173.102C77.8278 173.102 77.8121 173.108 77.7993 173.118C77.7865 173.128 77.7774 173.142 77.7733 173.157C77.8144 177.261 77.0393 181.323 76.9162 185.422C76.9101 185.448 76.9147 185.475 76.9288 185.498C76.9429 185.52 76.9654 185.537 76.9914 185.543C77.0174 185.549 77.0448 185.544 77.0674 185.53C77.0901 185.516 77.1062 185.493 77.1122 185.467Z" fill="#263238"/>
<path d="M70.0864 185.271C70.227 184.331 70.2469 183.376 70.1457 182.431C70.0955 181.423 70.0272 180.42 69.9451 179.413C69.784 177.407 69.5712 175.402 69.3068 173.399C69.3068 173.312 69.1563 173.308 69.1654 173.399C69.325 175.4 69.4527 177.407 69.5256 179.413C69.5667 180.42 69.594 181.423 69.6168 182.431C69.5755 183.38 69.6397 184.332 69.8083 185.267C69.8172 185.297 69.8353 185.323 69.86 185.341C69.8847 185.36 69.9147 185.37 69.9457 185.371C69.9767 185.371 70.007 185.362 70.0323 185.344C70.0576 185.326 70.0766 185.301 70.0864 185.271Z" fill="#263238"/>
<path d="M61.5283 184.779C61.7381 183.99 61.5283 183.028 61.4417 182.221C61.3505 181.309 61.2594 180.397 61.1773 179.486C61.0086 177.662 60.8444 175.838 60.7441 174.014C60.7441 173.923 60.5937 173.923 60.5982 174.014C60.694 175.875 60.7624 177.744 60.8764 179.604C60.9311 180.516 60.9903 181.428 61.0542 182.34C61.1089 183.119 61.0907 184.095 61.4372 184.811C61.4554 184.834 61.5147 184.82 61.5283 184.779Z" fill="#263238"/>
<path d="M83.9103 115.65L59.0664 115.732C59.0664 115.732 72.6396 92.5435 80.0394 83.9674C87.7629 75.0265 92.9104 75.7606 89.883 91.1256C86.9149 106.249 83.9103 115.65 83.9103 115.65Z" fill="#E89C24"/>
<path d="M75.2797 105.529C74.9882 106.139 74.787 106.789 74.6824 107.457C75.5454 106.407 76.1205 105.15 76.3511 103.81C75.9131 104.328 75.5522 104.907 75.2797 105.529ZM78.9818 85.2577L78.7265 85.5723C79.0484 85.6803 79.3796 85.7582 79.7159 85.8048C79.4878 85.6012 79.2421 85.4181 78.9818 85.2577ZM71.0395 98.0238C70.9191 97.7032 70.7806 97.3896 70.6246 97.0846L70.3328 97.5405C70.3966 97.7685 70.4696 97.9965 70.5471 98.2108C70.7746 98.8486 71.0925 99.4504 71.4908 99.998C71.4383 99.3125 71.2863 98.6382 71.0395 97.9965V98.0238ZM87.3482 102.838C87.1197 102.201 86.8019 101.599 86.4044 101.051C86.4615 101.726 86.615 102.389 86.8604 103.021C86.9516 103.253 87.0473 103.477 87.1476 103.709C87.216 103.427 87.2844 103.144 87.3574 102.852L87.3482 102.838ZM88.4607 83.2972C88.2338 82.66 87.9176 82.0582 87.5215 81.5099C87.6515 82.8616 88.1307 84.1562 88.9121 85.2668C88.8604 84.5856 88.7083 83.9157 88.4607 83.2789V83.2972ZM63.5576 110.261C62.929 110.483 62.3338 110.79 61.7886 111.173C63.1369 111.041 64.4281 110.562 65.5364 109.782C64.8581 109.84 64.1916 109.995 63.5576 110.243V110.261ZM82.1232 92.7943C81.4856 93.0202 80.8837 93.3365 80.336 93.7335C81.6876 93.6034 82.9823 93.1242 84.0929 92.3429C83.419 92.3926 82.7558 92.5385 82.1232 92.776V92.7943Z" fill="white"/>
<path d="M63.1379 111.729C63.7625 111.661 64.4009 111.679 65.0255 111.67L66.9586 111.633C68.2672 111.606 69.5757 111.602 70.8797 111.606C73.4922 111.606 76.1047 111.606 78.7126 111.656C79.433 111.656 80.1488 111.688 80.8646 111.72C81.5805 111.752 82.3738 111.843 83.1443 111.875C83.1899 111.875 83.1808 111.944 83.1443 111.948C82.4969 111.948 81.8495 112.035 81.202 112.057C80.5546 112.08 79.8753 112.094 79.2096 112.099C77.9056 112.099 76.6017 112.099 75.2931 112.099C72.7217 112.076 70.1502 112.062 67.5787 111.98L65.4267 111.907C64.679 111.884 63.9085 111.907 63.147 111.807C63.106 111.793 63.0969 111.734 63.1379 111.729Z" fill="#263238"/>
<path d="M87.234 104.129C87.7671 103.321 88.1401 102.419 88.3328 101.471C88.3328 101.471 88.3054 101.448 88.3009 101.471C88.0338 102.286 87.6983 103.078 87.2978 103.837L87.5303 102.811C87.8039 101.566 88.082 100.331 88.2963 99.0771C88.2963 99.0771 88.269 99.0451 88.2644 99.0771C87.6398 101.202 87.1109 103.363 86.5364 105.506C85.9619 107.649 85.3783 109.851 84.8084 112.026C84.4938 113.216 84.1792 114.401 83.8966 115.591C83.4908 115.627 83.1762 115.614 82.816 115.646C82.7202 115.646 82.7111 115.819 82.816 115.828C83.2716 115.864 83.7296 115.856 84.1838 115.805C85.4103 111.971 86.3495 108.05 87.234 104.129Z" fill="#263238"/>
<path d="M87.649 79.1436C89.3911 82.3665 91.9391 85.0826 95.0442 87.0267C96.5281 88.0073 98.233 88.6028 100.005 88.7593C100.926 88.8533 101.854 88.6572 102.658 88.1984C103.404 87.6573 103.997 86.9314 104.377 86.092C104.839 85.1413 105.157 84.1272 105.321 83.0829C105.526 81.9014 105.646 80.7069 105.681 79.5083C105.681 79.4628 105.75 79.4719 105.745 79.5083C105.713 80.6436 105.772 81.788 105.654 82.9096C105.57 83.9067 105.359 84.8889 105.025 85.8322C104.704 86.7248 104.197 87.5392 103.538 88.2212C102.845 88.8914 101.934 89.2895 100.971 89.3428C99.0838 89.4343 97.2111 88.9681 95.5868 88.0024C93.9428 87.0879 92.4508 85.9235 91.1642 84.551C89.6778 82.9679 88.4583 81.154 87.5532 79.1801C87.5474 79.1734 87.5432 79.1655 87.5411 79.1569C87.539 79.1483 87.539 79.1394 87.5411 79.1308C87.5433 79.1222 87.5474 79.1142 87.5533 79.1076C87.5592 79.101 87.5665 79.0959 87.5748 79.0928C87.5831 79.0896 87.592 79.0885 87.6007 79.0896C87.6095 79.0906 87.6179 79.0938 87.6252 79.0988C87.6325 79.1037 87.6385 79.1104 87.6426 79.1183C87.6467 79.1261 87.6489 79.1348 87.649 79.1436Z" fill="#263238"/>
<path d="M101.564 86.2425C98.0533 87.2228 91.7523 82.0525 89.1717 77.7576C88.9985 77.4612 89.3313 74.2742 89.5547 70.376C89.6778 68.0097 89.7644 65.3607 89.6687 62.9625C89.6459 62.4701 104.938 66.0309 104.938 66.0309C104.938 66.0309 103.652 71.142 103.848 75.3457C103.865 75.6776 103.913 76.0072 103.99 76.3305C103.99 76.3761 104.012 76.4308 104.021 76.4946C104.4 78.364 104.956 85.2942 101.564 86.2425Z" fill="#FFBE9D"/>
<path d="M102.471 76.636C102.99 76.6318 103.507 76.5845 104.017 76.4946C104.012 76.4394 104.002 76.3845 103.99 76.3305C103.91 76.0076 103.863 75.6778 103.848 75.3457C103.657 71.1465 104.933 66.031 104.933 66.031C104.933 66.031 92.5229 63.1403 90.0791 62.926C90.6581 65.6936 93.5442 76.8001 102.471 76.636Z" fill="#263238"/>
<path d="M90.7675 41.9804C88.0319 46.8771 87.4939 62.6251 90.4849 66.8151C94.8253 72.8882 103.575 75.2864 109.151 69.6921C114.554 64.2574 114.886 43.7403 111.399 39.76C106.237 33.9013 94.8208 34.7493 90.7675 41.9804Z" fill="#FFBE9D"/>
<path d="M108.873 43.6765C108.227 44.4619 107.391 45.0694 106.445 45.4412C105.499 45.813 104.473 45.9369 103.465 45.8011C101.468 45.5139 99.4666 44.178 98.7189 42.2585C98.7125 42.2489 98.7031 42.2418 98.692 42.2384C98.681 42.2349 98.6692 42.2354 98.6585 42.2397C98.6478 42.244 98.6389 42.2518 98.6333 42.2619C98.6277 42.2719 98.6257 42.2837 98.6277 42.295C99.4302 44.3421 101.135 46.0109 103.392 46.2799C104.463 46.3876 105.542 46.2128 106.524 45.7727C107.506 45.3327 108.355 44.6429 108.987 43.7722C109.041 43.6947 108.932 43.6035 108.873 43.6765Z" fill="#263238"/>
<path d="M102.95 30.9195C100.47 30.2538 97.7523 31.4484 96.2842 33.4864C95.4382 34.7164 94.9174 36.1406 94.7705 37.6263C94.7737 37.6365 94.7801 37.6454 94.7887 37.6517C94.7973 37.6581 94.8077 37.6615 94.8184 37.6615C94.8291 37.6615 94.8395 37.6581 94.8481 37.6517C94.8567 37.6454 94.8631 37.6365 94.8663 37.6263C95.2903 35.2873 96.7538 32.921 98.9286 31.8541C99.9187 31.3267 101.049 31.1215 102.161 31.2669C103.273 31.4124 104.313 31.9014 105.134 32.6657C106.042 33.5202 106.63 34.659 106.803 35.8937C106.81 35.9186 106.826 35.9401 106.848 35.9543C106.87 35.9685 106.896 35.9745 106.921 35.9712C106.947 35.9679 106.971 35.9556 106.988 35.9364C107.006 35.9171 107.016 35.8923 107.017 35.8664C106.929 34.724 106.491 33.6365 105.764 32.7515C105.036 31.8665 104.054 31.2268 102.95 30.9195Z" fill="#263238"/>
<path d="M121.593 36.6414C121.032 35.0369 119.918 33.6843 118.452 32.8253C116.423 31.6216 114.161 31.8496 111.918 32.1186C111.908 32.1218 111.899 32.1281 111.893 32.1367C111.886 32.1453 111.883 32.1558 111.883 32.1664C111.883 32.1771 111.886 32.1875 111.893 32.1962C111.899 32.2048 111.908 32.2111 111.918 32.2143C113.828 31.9909 115.78 31.8724 117.558 32.7432C119.029 33.4519 120.209 34.647 120.9 36.1262C121.562 37.6485 121.653 39.3581 121.157 40.9421C120.662 42.5262 119.612 43.8788 118.201 44.7525C117.375 45.2344 116.459 45.542 115.509 45.6565C114.559 45.771 113.596 45.6899 112.679 45.4182C112.611 45.4182 112.556 45.5048 112.634 45.5276C113.875 45.9468 115.207 46.012 116.483 45.716C117.759 45.4199 118.927 44.7744 119.856 43.8517C120.786 42.929 121.439 41.7656 121.745 40.492C122.05 39.2185 121.994 37.8851 121.584 36.6414H121.593Z" fill="#263238"/>
<path d="M89.8828 44.096C89.8828 44.096 90.1564 39.2859 91.4011 37.8132C92.6458 36.3405 95.3996 35.9895 95.3996 35.9895C95.3996 35.9895 97.0045 31.918 100.871 31.6444C104.354 31.3982 106.716 34.4712 106.716 34.4712C106.716 34.4712 111.531 29.6793 117.043 32.3921C122.277 34.9682 121.602 42.9333 116.564 45.4866C113.008 47.2738 108.106 44.178 108.106 44.178C107.651 44.2464 102.895 47.2009 99.2203 42.9789C99.2203 42.9789 95.9604 45.5322 94.0774 43.7495C94.0728 43.7403 91.5834 44.9531 89.8828 44.096Z" fill="#263238"/>
<path opacity="0.2" d="M93.8219 38.5199C93.6532 40.8999 93.1061 47.6751 92.2398 49.1614C91.3735 50.6477 89.3082 54.5369 88.4692 54.8104C88.5604 49.6903 89.3811 44.4516 90.7489 41.9804C91.5192 40.6242 92.5662 39.4451 93.8219 38.5199Z" fill="#263238"/>
<path d="M90.6625 54.7238C90.6625 54.7238 88.1913 49.1295 85.7156 49.9182C83.2399 50.707 84.4253 58.3439 86.8554 59.8348C87.1546 60.0448 87.4929 60.1926 87.8502 60.2697C88.2075 60.3467 88.5766 60.3514 88.9357 60.2834C89.2949 60.2154 89.6368 60.0761 89.9412 59.8738C90.2456 59.6714 90.5063 59.4101 90.7081 59.1053L90.6625 54.7238Z" fill="#FFBE9D"/>
<path d="M86.1125 52.0976C86.0715 52.0976 86.0487 52.1432 86.0852 52.166C87.7721 53.2693 88.4059 55.166 88.7341 57.0673C88.3238 56.2785 87.6536 55.7587 86.6141 56.2284C86.5593 56.2557 86.6141 56.3378 86.646 56.3378C86.987 56.2965 87.3323 56.3621 87.6345 56.5254C87.9366 56.6887 88.1807 56.9418 88.3329 57.2497C88.5859 57.7706 88.7801 58.318 88.912 58.8819C88.9667 59.0597 89.2767 59.0324 89.2539 58.8317C89.256 58.8166 89.256 58.8013 89.2539 58.7861C89.7554 56.4654 88.6019 52.8271 86.1125 52.0976Z" fill="#263238"/>
<path d="M101.642 54.4548C101.642 54.4137 101.555 54.5004 101.555 54.546C101.555 55.6084 101.363 56.8259 100.388 57.1405C100.36 57.1405 100.36 57.1998 100.388 57.1998C101.573 57.0766 101.824 55.4625 101.642 54.4548Z" fill="#263238"/>
<path d="M100.734 53.3149C99.0334 53.1234 98.7689 56.5387 100.347 56.7165C101.924 56.8944 102.161 53.4745 100.734 53.3149Z" fill="#263238"/>
<path d="M108.293 54.9062C108.293 54.8651 108.375 54.9609 108.371 55.0019C108.252 56.0598 108.298 57.2818 109.228 57.7378C109.26 57.7378 109.251 57.8016 109.228 57.7925C108.061 57.5189 108.015 55.8865 108.293 54.9062Z" fill="#263238"/>
<path d="M109.324 53.8712C111.038 53.8712 110.906 57.3001 109.324 57.2956C107.742 57.291 107.888 53.8712 109.324 53.8712Z" fill="#263238"/>
<path d="M99.0336 51.1904C99.4349 50.9259 99.8498 50.7344 100.274 50.5247C100.676 50.223 101.167 50.0627 101.669 50.0687C101.826 50.1036 101.966 50.1891 102.069 50.3119C102.172 50.4347 102.232 50.588 102.239 50.7481C102.239 51.4321 101.719 51.888 101.154 52.2118C100.596 52.557 99.9295 52.6822 99.2844 52.5629C99.1441 52.524 99.0176 52.4464 98.9193 52.3389C98.8211 52.2314 98.7551 52.0985 98.7289 51.9552C98.7028 51.812 98.7175 51.6643 98.7713 51.529C98.8252 51.3938 98.9161 51.2764 99.0336 51.1904Z" fill="#263238"/>
<path d="M111.449 52.5491C111.096 52.2371 110.728 51.9433 110.345 51.6691C110.001 51.3075 109.548 51.0688 109.055 50.9897C108.895 50.9956 108.741 51.0542 108.617 51.1564C108.494 51.2587 108.407 51.3988 108.371 51.5551C108.262 52.2299 108.681 52.768 109.178 53.1875C109.664 53.6278 110.296 53.8716 110.952 53.8715C111.102 53.8637 111.246 53.8124 111.367 53.7239C111.488 53.6353 111.581 53.5134 111.633 53.373C111.686 53.2326 111.697 53.0799 111.664 52.9336C111.631 52.7872 111.556 52.6536 111.449 52.5491Z" fill="#263238"/>
<path d="M102.02 62.7254C103.388 62.2695 105.111 62.5841 106.196 62.7984C106.319 62.7984 106.447 62.5522 106.474 62.4427C106.474 62.4017 106.566 60.1996 106.566 60.1996C106.848 60.3683 108.303 61.1479 108.307 60.7239C108.344 57.2269 108.385 53.3377 107.683 49.8498C107.683 49.8245 107.673 49.8001 107.655 49.7821C107.637 49.7642 107.612 49.7541 107.587 49.7541C107.561 49.7541 107.537 49.7642 107.519 49.7821C107.501 49.8001 107.491 49.8245 107.491 49.8498C107.322 53.2101 107.746 56.5794 107.628 59.9533C107.113 59.668 106.561 59.4576 105.987 59.3287C105.868 59.3515 106.014 61.7041 105.946 62.0643C105.946 62.0643 103.857 61.271 102.034 62.2604C101.564 62.5203 101.368 62.9352 102.02 62.7254Z" fill="#263238"/>
<path d="M99.7672 64.1388C100.004 64.4033 100.223 64.7544 100.611 64.8137C101.002 64.8324 101.392 64.7671 101.755 64.6221C101.763 64.6183 101.772 64.6175 101.78 64.6197C101.789 64.6219 101.796 64.627 101.801 64.6342C101.806 64.6414 101.808 64.6501 101.807 64.6587C101.807 64.6674 101.803 64.6754 101.796 64.6814C101.63 64.8732 101.416 65.0167 101.175 65.0969C100.934 65.1772 100.676 65.1911 100.428 65.1374C100.218 65.0684 100.033 64.9383 99.8962 64.7637C99.7598 64.5892 99.6784 64.378 99.6623 64.157C99.6532 64.1206 99.7353 64.1023 99.7672 64.1388Z" fill="#263238"/>
<path d="M95.0257 52.0201C93.5804 52.0201 94.3555 49.2845 94.6609 48.3407C94.8726 47.3322 94.9947 46.3069 95.0257 45.2768C95.0564 46.3077 95.183 47.3334 95.4041 48.3407C95.705 49.289 96.4801 52.0201 95.0257 52.0201Z" fill="white"/>
<path d="M113.117 59.4062C113.231 58.1524 113.318 56.9031 113.373 55.6493C113.427 54.3955 113.468 53.1462 113.459 51.8924C113.45 50.6386 113.432 49.3939 113.373 48.1401C113.373 47.5155 113.309 46.8908 113.259 46.2662C113.208 45.6416 113.149 45.0124 113.117 44.3832C113.399 45.6121 113.602 46.8578 113.724 48.1127C113.856 49.3698 113.92 50.633 113.915 51.897C113.915 53.1593 113.851 54.4208 113.724 55.6767C113.655 56.3013 113.578 56.9259 113.486 57.5506C113.395 58.1752 113.272 58.7861 113.117 59.4062Z" fill="#263238"/>
<path d="M85.3101 187.574C85.342 187.761 85.3785 187.948 85.4149 188.139C85.383 187.952 85.3465 187.761 85.3146 187.574H85.3101Z" fill="#EBEBEB"/>
<path d="M83.4635 39.6369C84.712 37.793 85.3892 35.6219 85.4104 33.3952C85.4104 25.4665 76.7066 19.0378 65.9739 19.0378C55.2412 19.0378 46.542 25.4665 46.542 33.3952C46.542 41.3239 55.2412 47.748 65.9739 47.748C71.1761 47.748 75.895 46.2434 79.3784 43.7768L86.076 45.4775L83.4635 39.6369Z" fill="white"/>
<path d="M83.4636 39.6369C84.6022 37.8652 85.233 35.8151 85.2873 33.7098C85.314 31.6183 84.7447 29.5624 83.646 27.7826C82.5477 26.0186 81.1001 24.498 79.3921 23.3145C77.6904 22.1264 75.8179 21.204 73.8388 20.5789C71.8613 19.9459 69.8115 19.5659 67.7384 19.4482C65.6696 19.3194 63.5929 19.4357 61.5514 19.7947C59.5129 20.1426 57.5322 20.7701 55.6653 21.6594C53.8054 22.5309 52.109 23.7153 50.65 25.161C49.1919 26.5872 48.1041 28.348 47.4813 30.2903C46.8725 32.2262 46.8456 34.2982 47.4038 36.2493C47.9844 38.2125 49.0399 40.0024 50.4768 41.4607C51.9227 42.9262 53.61 44.1323 55.4647 45.0261C57.3281 45.9213 59.3032 46.5623 61.3371 46.9319C63.3766 47.3198 65.4555 47.4606 67.5287 47.3513C71.7067 47.1941 75.7614 45.893 79.2508 43.5899L79.3328 43.5306L79.424 43.558L86.0943 45.3543L85.9667 45.5048L83.4636 39.6369ZM83.4636 39.6369L86.1673 45.4227L86.263 45.6279L86.0396 45.5732L79.3191 43.9683L79.4924 43.9364C77.7577 45.1741 75.8433 46.1383 73.816 46.7951C71.7941 47.4645 69.6951 47.8736 67.5697 48.0124C65.4368 48.1612 63.2936 48.0526 61.1866 47.6887C59.0783 47.3164 57.0305 46.6584 55.0999 45.7328C53.1518 44.8102 51.3779 43.5577 49.8567 42.0306C48.3118 40.4887 47.1689 38.5912 46.5284 36.5047C45.908 34.3899 45.927 32.1389 46.5831 30.035C47.261 27.9602 48.4347 26.0822 50.0026 24.5637C51.5534 23.0605 53.3518 21.8358 55.3188 20.9436C57.2589 20.0347 59.3146 19.3965 61.4283 19.0469C65.6514 18.3126 69.991 18.6449 74.0531 20.0135C76.079 20.6904 77.9888 21.6745 79.7158 22.9315C81.4587 24.1781 82.9191 25.7783 84.0016 27.6276C85.0837 29.471 85.6099 31.5879 85.5168 33.7234C85.4238 35.8589 84.7155 37.922 83.4773 39.6643L83.4636 39.6369Z" fill="#263238"/>
<path d="M50.5083 31.8587C50.5077 31.8124 50.5164 31.7665 50.5338 31.7236C50.5512 31.6807 50.5771 31.6418 50.6098 31.6091C50.6425 31.5763 50.6815 31.5505 50.7243 31.5331C50.7672 31.5156 50.8131 31.507 50.8594 31.5076C50.9061 31.507 50.9525 31.5156 50.9958 31.5329C51.0392 31.5502 51.0788 31.5759 51.1122 31.6085C51.1457 31.6411 51.1724 31.68 51.1908 31.7229C51.2092 31.7658 51.219 31.812 51.2196 31.8587V35.6429C51.2196 35.69 51.2102 35.7366 51.1921 35.7801C51.1739 35.8235 51.1473 35.8629 51.1138 35.896C51.0803 35.9291 51.0406 35.9552 50.9969 35.9728C50.9532 35.9904 50.9065 35.9992 50.8594 35.9985C50.8129 35.9986 50.7669 35.9893 50.724 35.9714C50.6811 35.9535 50.6422 35.9272 50.6095 35.8941C50.5769 35.861 50.5511 35.8218 50.5337 35.7787C50.5164 35.7355 50.5077 35.6894 50.5083 35.6429V31.8587Z" fill="#263238"/>
<path d="M52.2775 32.9622C52.4116 32.9408 52.5329 32.87 52.6173 32.7636C52.7017 32.6572 52.7432 32.5231 52.7335 32.3876C52.6328 32.3671 52.5419 32.3132 52.4757 32.2345C52.4095 32.1559 52.3718 32.0572 52.3687 31.9545V31.8861C52.3668 31.8289 52.3767 31.7719 52.3978 31.7187C52.419 31.6655 52.4509 31.6173 52.4916 31.577C52.5322 31.5368 52.5808 31.5054 52.6342 31.4848C52.6876 31.4642 52.7447 31.4549 52.8019 31.4574C53.0846 31.4574 53.2579 31.6763 53.2579 32.0229V32.0867C53.2778 32.4203 53.1646 32.7483 52.9432 32.9986C52.7829 33.1611 52.569 33.2599 52.3414 33.2768C52.3158 33.2801 52.2898 33.2778 52.2652 33.2701C52.2406 33.2624 52.2179 33.2494 52.1988 33.232C52.1797 33.2147 52.1647 33.1934 52.1546 33.1696C52.1446 33.1458 52.1399 33.1202 52.1407 33.0944C52.1496 33.0621 52.167 33.0328 52.191 33.0096C52.2151 32.9863 52.245 32.9699 52.2775 32.9622Z" fill="#263238"/>
<path d="M57.7576 31.8587V35.6429C57.7552 35.7373 57.7164 35.8271 57.6492 35.8934C57.582 35.9597 57.4918 35.9974 57.3974 35.9986C57.3509 35.9986 57.3049 35.9893 57.262 35.9714C57.2191 35.9535 57.1802 35.9272 57.1475 35.8941C57.1149 35.861 57.0891 35.8218 57.0717 35.7787C57.0544 35.7356 57.0457 35.6894 57.0463 35.6429V32.9438L56.1345 34.2295C56.102 34.2753 56.0589 34.3125 56.0088 34.3379C55.9588 34.3633 55.9033 34.3762 55.8472 34.3754C55.7899 34.3758 55.7333 34.3628 55.6818 34.3375C55.6304 34.3121 55.5855 34.2752 55.5509 34.2295L54.639 32.9438V35.6429C54.639 35.7373 54.6015 35.8277 54.5348 35.8944C54.4681 35.9611 54.3777 35.9986 54.2834 35.9986C54.189 35.9986 54.0986 35.9611 54.0319 35.8944C53.9652 35.8277 53.9277 35.7373 53.9277 35.6429V31.8587C53.9289 31.7659 53.9663 31.6773 54.0319 31.6117C54.0975 31.5462 54.1861 31.5088 54.2788 31.5076C54.3334 31.5079 54.3872 31.5214 54.4356 31.5467C54.484 31.5721 54.5256 31.6087 54.5569 31.6535L55.8335 33.4271L57.1102 31.6535C57.1436 31.6077 57.1876 31.5705 57.2383 31.5451C57.2891 31.5197 57.3452 31.5069 57.402 31.5076C57.4948 31.5099 57.5833 31.5474 57.6493 31.6127C57.7154 31.6779 57.7541 31.7659 57.7576 31.8587Z" fill="#263238"/>
<path d="M61.0953 34.8815C61.151 34.817 61.2293 34.7763 61.3141 34.7678C61.399 34.7593 61.4838 34.7837 61.5512 34.8359C61.8951 35.13 62.326 35.303 62.7777 35.3283C63.0634 35.3351 63.344 35.2522 63.5801 35.0913C63.6599 35.0435 63.7269 34.977 63.7754 34.8976C63.8238 34.8182 63.8523 34.7282 63.8582 34.6353C63.8581 34.5627 63.8375 34.4916 63.799 34.4302C63.7497 34.3533 63.6843 34.2879 63.6075 34.2387C63.3354 34.0845 63.037 33.9824 62.7275 33.9377C62.4433 33.8878 62.1662 33.8036 61.9023 33.687C61.6587 33.5813 61.4512 33.407 61.305 33.1855C61.2067 33.0282 61.1546 32.8465 61.1545 32.6611C61.1607 32.4751 61.2105 32.2932 61.3 32.13C61.3895 31.9668 61.5162 31.827 61.6697 31.7219C61.9955 31.4981 62.3824 31.3802 62.7777 31.3845C63.2849 31.4107 63.7725 31.5886 64.1774 31.8952C64.2482 31.945 64.2971 32.0201 64.3141 32.1049C64.331 32.1898 64.3147 32.2779 64.2686 32.3511C64.2459 32.3884 64.2158 32.4207 64.1802 32.4459C64.1445 32.4712 64.1041 32.4888 64.0614 32.4978C64.0186 32.5068 63.9745 32.5069 63.9317 32.4981C63.8889 32.4893 63.8484 32.4719 63.8126 32.4468C63.5165 32.2096 63.1559 32.0667 62.7777 32.0365C62.5221 32.0331 62.2718 32.1096 62.0619 32.2553C61.991 32.298 61.9316 32.3572 61.8887 32.4279C61.8459 32.4986 61.8208 32.5786 61.8157 32.6611C61.8123 32.7237 61.8282 32.7857 61.8612 32.8389C61.9084 32.9051 61.9671 32.9622 62.0345 33.0076C62.2815 33.1521 62.5539 33.248 62.8369 33.2903C63.142 33.3421 63.4392 33.4325 63.7215 33.5593C63.9817 33.6731 64.2045 33.858 64.3643 34.0928C64.4639 34.2561 64.516 34.444 64.5148 34.6353C64.5108 34.8307 64.4603 35.0224 64.3676 35.1944C64.2748 35.3665 64.1424 35.514 63.9813 35.6247C63.6352 35.8696 63.2198 35.9974 62.7959 35.9894C62.1934 35.9634 61.6164 35.739 61.1545 35.3511C61.086 35.2956 61.0416 35.2158 61.0305 35.1282C61.0195 35.0407 61.0427 34.9523 61.0953 34.8815Z" fill="#263238"/>
<path d="M69.0557 32.0638C69.4707 32.5025 69.7023 33.0831 69.7031 33.687C69.7051 34.2913 69.4731 34.873 69.0557 35.3101C68.8617 35.5244 68.6255 35.6963 68.3618 35.8148C68.0982 35.9332 67.8128 35.9958 67.5238 35.9986C67.2284 35.9976 66.9364 35.9361 66.6658 35.8176C66.3952 35.6992 66.1519 35.5265 65.9508 35.3101C65.5376 34.8714 65.3104 34.2896 65.317 33.687C65.3128 33.0848 65.5396 32.5038 65.9508 32.0638C66.1521 31.8481 66.3956 31.6761 66.6662 31.5584C66.9368 31.4408 67.2287 31.38 67.5238 31.3799C67.8125 31.3818 68.0978 31.4436 68.3614 31.5613C68.6251 31.679 68.8615 31.8501 69.0557 32.0638ZM68.9691 33.687C68.9704 33.272 68.8158 32.8717 68.5359 32.5654C68.4085 32.4228 68.2525 32.3086 68.0782 32.2301C67.9038 32.1516 67.715 32.1105 67.5238 32.1094C67.3283 32.1089 67.1349 32.1492 66.9559 32.2277C66.7769 32.3062 66.6162 32.4212 66.4842 32.5654C66.1945 32.8672 66.0313 33.2686 66.0283 33.687C66.0287 34.1045 66.1923 34.5054 66.4842 34.804C66.6126 34.9496 66.7704 35.0661 66.9473 35.146C67.1242 35.2258 67.316 35.2671 67.5101 35.2671C67.7041 35.2671 67.896 35.2258 68.0729 35.146C68.2497 35.0661 68.4076 34.9496 68.5359 34.804C68.8125 34.5065 68.9671 34.1159 68.9691 33.7098V33.687Z" fill="#263238"/>
<path d="M73.9391 35.4651C73.9541 35.51 73.9601 35.5574 73.9567 35.6047C73.9534 35.6519 73.9408 35.698 73.9196 35.7403C73.8984 35.7827 73.8691 35.8204 73.8333 35.8515C73.7976 35.8825 73.756 35.9061 73.7111 35.921C73.6641 35.9261 73.6167 35.9261 73.5698 35.921C73.4808 35.9217 73.3937 35.8963 73.319 35.8481C73.2328 35.7922 73.1622 35.7153 73.1138 35.6247C73.0108 35.3815 72.9656 35.1178 72.9816 34.8542C72.9805 34.7577 72.9538 34.6633 72.9041 34.5806C72.8545 34.5052 72.7892 34.4414 72.7126 34.3937C72.6012 34.3238 72.4797 34.2715 72.3524 34.2387H71.5956V35.6065C71.5956 35.6535 71.5862 35.7002 71.5681 35.7436C71.5499 35.7871 71.5233 35.8265 71.4898 35.8595C71.4563 35.8926 71.4165 35.9187 71.3729 35.9363C71.3292 35.9539 71.2825 35.9627 71.2354 35.9621C71.1889 35.9621 71.1429 35.9529 71.1 35.9349C71.0571 35.917 71.0182 35.8907 70.9855 35.8576C70.9529 35.8246 70.9271 35.7853 70.9097 35.7422C70.8923 35.6991 70.8837 35.6529 70.8843 35.6065V31.8222C70.8837 31.7759 70.8924 31.73 70.9098 31.6871C70.9272 31.6443 70.953 31.6053 70.9858 31.5726C71.0185 31.5399 71.0574 31.514 71.1003 31.4966C71.1432 31.4792 71.1891 31.4705 71.2354 31.4711H72.3843C72.7471 31.4711 73.095 31.6152 73.3515 31.8718C73.608 32.1283 73.7521 32.4762 73.7521 32.8389C73.7513 33.0406 73.706 33.2396 73.6193 33.4217C73.5326 33.6038 73.4067 33.7644 73.2506 33.8921C73.3374 33.9586 73.4128 34.0387 73.474 34.1292C73.6137 34.3333 73.6884 34.5749 73.6883 34.8222C73.6821 34.9488 73.6898 35.0757 73.7111 35.2007C73.7689 35.221 73.8203 35.2562 73.8603 35.3025C73.9003 35.3489 73.9274 35.405 73.9391 35.4651ZM73.0272 32.8845C73.0278 32.7973 73.0111 32.7109 72.9782 32.6301C72.9452 32.5494 72.8966 32.476 72.8352 32.4141C72.7737 32.3522 72.7006 32.3031 72.6201 32.2696C72.5396 32.2361 72.4533 32.2189 72.3661 32.2189H71.5773V33.5411H72.3661C72.4537 33.5429 72.5407 33.5273 72.6222 33.4952C72.7037 33.463 72.778 33.415 72.8408 33.3539C72.9036 33.2929 72.9536 33.2199 72.988 33.1393C73.0223 33.0587 73.0403 32.9721 73.0409 32.8845H73.0272Z" fill="#263238"/>
<path d="M77.9469 35.4651C77.9626 35.5097 77.9693 35.557 77.9666 35.6042C77.9638 35.6513 77.9517 35.6975 77.9309 35.74C77.9101 35.7824 77.881 35.8203 77.8454 35.8514C77.8098 35.8825 77.7683 35.9062 77.7235 35.921C77.6765 35.9257 77.6291 35.9257 77.5821 35.921C77.4932 35.9217 77.4061 35.8963 77.3314 35.8481C77.2441 35.7935 77.1732 35.7163 77.1262 35.6247C77.0213 35.382 76.9745 35.1181 76.9894 34.8542C76.9905 34.7574 76.9636 34.6624 76.9119 34.5806C76.8648 34.5032 76.799 34.4389 76.7204 34.3937C76.6095 34.3229 76.4879 34.2706 76.3602 34.2386H75.6034V35.6064C75.6034 35.6535 75.594 35.7002 75.5759 35.7436C75.5577 35.7871 75.5311 35.8265 75.4976 35.8595C75.4641 35.8926 75.4244 35.9187 75.3807 35.9363C75.337 35.9539 75.2903 35.9627 75.2432 35.9621C75.1967 35.9621 75.1507 35.9529 75.1078 35.9349C75.0649 35.917 75.026 35.8907 74.9933 35.8576C74.9607 35.8246 74.9349 35.7853 74.9175 35.7422C74.9002 35.6991 74.8915 35.6529 74.8921 35.6064V31.8222C74.8915 31.7759 74.9002 31.73 74.9176 31.6871C74.935 31.6443 74.9609 31.6053 74.9936 31.5726C75.0263 31.5399 75.0653 31.514 75.1081 31.4966C75.151 31.4792 75.1969 31.4705 75.2432 31.4711H76.3921C76.676 31.4682 76.9537 31.5537 77.1867 31.7157C77.4198 31.8778 77.5967 32.1083 77.6929 32.3753C77.7891 32.6423 77.7998 32.9327 77.7236 33.2061C77.6474 33.4795 77.488 33.7225 77.2675 33.9013C77.3543 33.9677 77.4298 34.0478 77.4909 34.1383C77.6293 34.3429 77.7024 34.5845 77.7007 34.8314C77.6952 34.9581 77.7044 35.0851 77.728 35.2098C77.7832 35.2303 77.8322 35.2644 77.8705 35.3091C77.9088 35.3538 77.9351 35.4075 77.9469 35.4651ZM77.035 32.8845C77.0356 32.7973 77.019 32.7109 76.986 32.6301C76.953 32.5494 76.9045 32.476 76.843 32.4141C76.7816 32.3522 76.7085 32.3031 76.628 32.2696C76.5475 32.2361 76.4611 32.2189 76.3739 32.2189H75.5851V33.5411H76.3739C76.4615 33.5429 76.5486 33.5273 76.63 33.4951C76.7115 33.463 76.7858 33.415 76.8486 33.3539C76.9114 33.2928 76.9614 33.2199 76.9958 33.1393C77.0301 33.0587 77.0481 32.9721 77.0487 32.8845H77.035Z" fill="#263238"/>
<path d="M81.9502 32.1095L80.637 33.9334V35.6615C80.6376 35.7084 80.6288 35.7549 80.6112 35.7984C80.5935 35.8418 80.5673 35.8812 80.5342 35.9144C80.501 35.9475 80.4616 35.9737 80.4182 35.9914C80.3747 36.009 80.3282 36.0178 80.2813 36.0172C80.1882 36.0148 80.0995 35.9765 80.0341 35.9102C79.9686 35.8438 79.9314 35.7547 79.9302 35.6615V33.9334L78.6261 32.1095C78.5717 32.0351 78.5491 31.9422 78.5632 31.8511C78.5773 31.76 78.627 31.6783 78.7014 31.6239C78.7757 31.5695 78.8687 31.5468 78.9598 31.5609C79.0508 31.575 79.1326 31.6247 79.187 31.6991L80.2813 33.1993L81.3802 31.6991C81.4072 31.6617 81.4412 31.6299 81.4804 31.6057C81.5197 31.5814 81.5633 31.5651 81.6088 31.5577C81.6543 31.5503 81.7008 31.5519 81.7457 31.5625C81.7906 31.5731 81.833 31.5924 81.8704 31.6193C81.9078 31.6463 81.9396 31.6803 81.9638 31.7195C81.9881 31.7587 82.0044 31.8024 82.0118 31.8479C82.0192 31.8934 82.0176 31.9399 82.007 31.9848C81.9965 32.0297 81.9771 32.0721 81.9502 32.1095Z" fill="#263238"/>
</svg>
