<svg width="330" height="318" viewBox="0 0 330 318" fill="none" xmlns="http://www.w3.org/2000/svg">
<path d="M159.23 44.4812H18.6237V144.209H159.23V44.4812Z" fill="#DBDBDB"/>
<path d="M18.6237 144.209V166.952L41.2519 144.209H18.6237Z" fill="#DBDBDB"/>
<path d="M170.77 198.365L311.376 198.365V98.6368L170.77 98.6368V198.365Z" fill="#EBEBEB"/>
<path d="M311.376 198.357V221.1L288.748 198.357H311.376Z" fill="#EBEBEB"/>
<path d="M287.593 0H286.875V53.6891H287.593V0Z" fill="#C7C7C7"/>
<path d="M291.676 48.6726H282.792V58.2894H291.676V48.6726Z" fill="#DBDBDB"/>
<path d="M305.405 88.9697H269.062C269.78 75.1401 276.39 52.9856 287.241 52.9856C298.092 52.9856 304.681 75.133 305.405 88.9697Z" fill="#DBDBDB"/>
<path d="M241.439 0H240.722V53.6891H241.439V0Z" fill="#C7C7C7"/>
<path d="M245.523 48.6726H236.638V58.2894H245.523V48.6726Z" fill="#DBDBDB"/>
<path d="M259.252 88.9697H222.902C223.62 75.1401 230.229 52.9856 241.081 52.9856C251.932 52.9856 258.527 75.133 259.252 88.9697Z" fill="#DBDBDB"/>
<path d="M195.279 0H194.561V53.6891H195.279V0Z" fill="#C7C7C7"/>
<path d="M199.369 48.6726H190.485V58.2894H199.369V48.6726Z" fill="#DBDBDB"/>
<path d="M213.084 88.9697H176.748C177.466 75.1401 184.076 52.9856 194.92 52.9856C205.764 52.9856 212.366 75.133 213.084 88.9697Z" fill="#DBDBDB"/>
<path d="M0 263.257L41.2518 263.084L82.5036 263.02L165 262.898L247.496 263.02L288.748 263.084L330 263.257L288.748 263.436L247.496 263.501L165 263.615L82.5036 263.493L41.2518 263.436L0 263.257Z" fill="#263238"/>
<path d="M165 301.86C248.549 301.86 316.278 293.397 316.278 282.957C316.278 272.517 248.549 264.053 165 264.053C81.4515 264.053 13.7219 272.517 13.7219 282.957C13.7219 293.397 81.4515 301.86 165 301.86Z" fill="#EBEBEB"/>
<path d="M95.1418 317.168C119.645 317.168 139.508 312.162 139.508 305.987C139.508 299.811 119.645 294.805 95.1418 294.805C70.6388 294.805 50.7753 299.811 50.7753 305.987C50.7753 312.162 70.6388 317.168 95.1418 317.168Z" fill="#EBEBEB"/>
<path d="M208.828 208.821C215.66 217.684 227.983 221.424 238.848 222.457C249.922 223.526 262.445 222.931 272.665 218.244C277.143 216.199 281.277 213.134 284.004 209.058C286.925 204.687 287.413 200.008 284.593 195.724C282.325 192.272 277.194 189.688 277.287 186.595C277.38 183.502 280.05 181.148 280.875 178.198C282.268 173.174 279.591 169.263 276.088 165.847C267.792 157.744 270.469 147.503 265.539 137.599C262.733 131.973 254.616 121.495 239.301 125.643C233.473 127.229 229.346 132.246 226.813 137.492C223.842 143.671 225.521 151.982 221.94 157.895C218.876 162.919 214.62 163.637 211.677 168.919C210.4 171.215 209.732 173.942 212.079 179.526C212.933 181.557 213.802 184.628 212.876 186.975C211.591 190.226 207.565 191.604 206.144 194.992C204.178 199.649 205.814 204.888 208.828 208.821Z" fill="#263238"/>
<path d="M280.581 210.256C285.813 209.589 288.289 202.62 285.11 198.917C283.1 196.563 279.993 195.408 277.976 193.068C274.66 189.221 277.847 185.949 279.828 182.303C284.134 174.473 278.801 168.933 273.146 163.83C268.84 159.955 268.122 155.649 267.993 150.144C267.993 150.058 268.137 150.051 268.144 150.144C268.424 154.206 268.862 158.196 271.639 161.455C273.892 164.103 276.95 165.962 279.131 168.703C282.784 173.303 283.086 178.176 280.237 183.207C279.426 184.643 277.904 186.272 277.538 187.865C276.684 191.626 279.519 193.671 282.21 195.616C284.27 197.109 286.559 198.766 287.27 201.321C288.346 205.175 284.693 210.249 280.646 210.543C280.438 210.579 280.373 210.256 280.581 210.256Z" fill="#263238"/>
<path d="M277.624 214.024C280.875 212.223 284.399 210.608 286.38 207.35C289.315 202.52 285.971 198.738 282.835 195.15C281.485 193.614 280.38 192.092 280.517 189.989C280.717 186.839 283.143 184.248 283.631 181.148C284.787 173.72 277.431 168.947 273.821 163.407C270.132 157.665 269.084 151.127 267.878 144.625C267.878 144.598 267.887 144.572 267.904 144.55C267.921 144.529 267.945 144.515 267.971 144.509C267.998 144.504 268.026 144.509 268.049 144.522C268.073 144.535 268.091 144.557 268.101 144.582C269.694 152.886 271.933 160.737 277.675 167.246C281.686 171.804 285.949 176.734 283.832 183.1C283.308 184.664 282.318 186.071 281.83 187.635C280.868 190.743 281.672 192.796 283.703 195.092C285.734 197.389 287.944 199.578 288.232 202.642C288.791 208.599 282.648 212.352 277.854 214.498C277.793 214.518 277.727 214.515 277.667 214.49C277.608 214.465 277.56 214.42 277.532 214.362C277.504 214.304 277.498 214.238 277.515 214.176C277.532 214.114 277.571 214.06 277.624 214.024Z" fill="#263238"/>
<path d="M204.795 193.09C207.465 189.544 211.613 187.844 210.651 182.676C209.984 179.088 208.082 176.217 208.893 172.493C209.56 169.399 211.641 167.031 214.082 165.036C217.182 162.503 220.584 160.472 222.873 157.142C225.371 153.496 226.548 149.183 227.76 145.02C227.76 144.941 227.925 144.977 227.911 145.02C226.612 150.69 225.04 156.503 220.577 160.658C218.244 162.811 215.424 164.455 213.113 166.651C208.957 170.605 208.907 175.033 210.572 180.107C211.333 182.432 212.007 184.772 210.881 187.112C209.754 189.451 207.45 190.865 205.814 192.803C198.867 201.056 209.094 211.871 217.684 213.565C218.072 213.637 218.014 214.225 217.613 214.153C211.189 213.084 204.472 207.228 203.159 200.977C202.852 199.622 202.839 198.217 203.122 196.856C203.404 195.495 203.975 194.211 204.795 193.09Z" fill="#263238"/>
<path d="M205.003 197.575C205.132 193.829 207.558 191.791 209.453 188.877C212.431 184.298 209.496 179.684 209.216 174.789C209.015 171.38 210.472 168.517 212.661 166.069C215.596 162.768 219.328 160.443 221.761 156.639C224.309 152.588 225.581 147.865 225.414 143.082C225.414 142.996 225.55 143.011 225.55 143.082C225.793 146.316 225.342 149.565 224.228 152.611C223.114 155.657 221.363 158.43 219.091 160.744C216.149 163.737 212.208 166.148 210.522 170.21C208.742 174.516 210.91 178.485 211.441 182.798C211.631 184.073 211.557 185.373 211.222 186.618C210.888 187.863 210.3 189.025 209.496 190.032C208.304 191.626 206.855 193.068 206.173 194.999C205.254 197.611 205.793 200.546 206.847 203.058C210.192 210.996 218.589 216.077 226.627 217.469C226.914 217.519 226.885 217.971 226.627 217.928C219.303 216.775 212.728 212.784 208.326 206.819C206.374 204.171 204.888 200.927 205.003 197.575Z" fill="#263238"/>
<path d="M241.425 182.483C237.485 181.535 229.361 191.812 222.206 207.429C210.723 232.44 204.673 263.257 204.673 263.257H242.078C242.078 263.257 251.616 184.915 241.425 182.483Z" fill="#FFBE9D"/>
<path d="M200.123 264.857H184.858V267.24H200.123V264.857Z" fill="#455A64"/>
<path d="M200.123 264.857H184.858V266.429H200.123V264.857Z" fill="#263238"/>
<path d="M218.23 258.455C217.302 259.833 215.995 260.913 214.467 261.565C212.939 262.217 211.255 262.413 209.618 262.13C209.089 262.026 208.571 261.877 208.068 261.685C207.312 261.385 206.59 261.004 205.915 260.551L207.859 257.68C208.219 257.932 208.601 258.15 209.001 258.333C212.639 259.977 214.936 257.113 215.388 256.46C217.483 253.518 218.258 246.807 216.105 244.224C215.962 244.03 215.352 243.729 212.89 244.224C212.438 244.324 211.921 244.439 211.34 244.597C210.89 244.752 210.422 244.853 209.948 244.898L209.883 243.176L209.718 241.454C209.876 241.454 210.12 241.353 210.436 241.26C211.573 240.93 212.735 240.69 213.909 240.542C215.718 240.356 217.613 240.542 218.775 241.977C222.249 246.24 220.849 254.752 218.23 258.455Z" fill="#455A64"/>
<path d="M207.874 257.673C208.234 257.925 208.616 258.143 209.015 258.326L208.06 261.685C207.304 261.385 206.583 261.004 205.907 260.551L207.874 257.673Z" fill="#263238"/>
<path d="M213.938 240.564L212.912 244.245C212.46 244.346 211.943 244.461 211.362 244.619C210.911 244.773 210.444 244.875 209.969 244.92L209.905 243.198L209.74 241.475C209.898 241.475 210.142 241.375 210.457 241.281C211.597 240.951 212.761 240.711 213.938 240.564Z" fill="#263238"/>
<path d="M172.177 236.093C172.177 236.093 174.007 251.644 177.2 258.197C180.394 264.749 184.779 265.467 187.521 265.467H197.496C200.238 265.467 204.673 264.749 207.816 258.197C210.96 251.644 212.804 236.093 212.804 236.093H172.177Z" fill="#455A64"/>
<path d="M226.921 239.904L226.289 263.257H302.413C302.413 263.257 288.117 202.255 266.708 184.313C254.996 174.509 245.896 178.708 239.71 185.195C238.203 186.832 221.696 213.479 220.978 223.074C220.39 231.543 226.921 239.904 226.921 239.904Z" fill="#FFBE9D"/>
<path d="M226.921 239.904L226.289 263.257H302.406C302.406 263.257 295.229 232.698 283.466 208.484C281.887 211.469 277.861 217.584 271.373 217.627C262.761 217.692 256.525 203.69 256.525 203.69C256.525 203.69 245.243 210.694 238.102 209.582C230.961 208.47 231.306 198.874 231.306 198.874C226.512 207.443 221.402 217.806 221.014 223.06C220.39 231.543 226.921 239.904 226.921 239.904Z" fill="#0D6C61"/>
<path d="M256.489 206.395C256.182 204.04 256.086 201.662 256.202 199.29C256.285 196.907 256.551 194.535 256.998 192.192C257.411 189.798 258.232 187.492 259.424 185.375C260.052 184.25 261.044 183.372 262.237 182.884C262.848 182.679 263.504 182.646 264.132 182.791C264.426 182.891 264.721 182.992 264.993 183.107L265.761 183.573L264.921 183.308C264.634 183.257 264.355 183.222 264.075 183.186C263.532 183.161 262.992 183.28 262.51 183.53C261.576 184.092 260.839 184.929 260.4 185.927C259.906 186.95 259.507 188.017 259.209 189.114C258.886 190.212 258.62 191.338 258.405 192.472C258.19 193.606 257.982 194.755 257.809 195.91C257.637 197.066 257.479 198.221 257.314 199.384C257.027 201.709 256.733 204.041 256.489 206.395Z" fill="#0D6C61"/>
<path d="M230.43 200.446C231.216 198.252 232.154 196.115 233.236 194.051C234.311 191.972 235.509 189.959 236.825 188.023C237.492 187.061 238.181 186.114 238.92 185.195C239.669 184.282 240.472 183.414 241.324 182.597C242.18 181.754 243.146 181.03 244.195 180.444C244.711 180.125 245.291 179.923 245.894 179.853C246.497 179.784 247.108 179.848 247.683 180.042C247.124 179.996 246.561 180.06 246.026 180.231C245.492 180.402 244.996 180.677 244.568 181.04C243.673 181.724 242.852 182.501 242.121 183.358C240.637 185.09 239.261 186.911 238.002 188.812C236.695 190.7 235.468 192.645 234.219 194.554C232.971 196.463 231.744 198.515 230.43 200.446Z" fill="#0D6C61"/>
<path d="M302.405 263.257H271.825L271.373 217.627C277.832 217.584 281.887 211.469 283.466 208.484C295.243 232.698 302.405 263.257 302.405 263.257Z" fill="#263238"/>
<path d="M256.934 181.342C256.553 182.655 249.757 190.944 243.7 190.334C241.726 190.133 242.343 179.318 242.343 179.318L242.207 178.514L240.305 167.196L253.891 159.467L255.85 158.448C255.85 158.448 256.166 161.584 256.525 165.488C256.525 165.668 256.561 165.847 256.575 166.041C256.589 166.234 256.625 166.471 256.64 166.672C256.704 167.261 256.762 167.856 256.812 168.445C256.848 168.897 256.884 169.335 256.905 169.816C256.927 170.297 256.962 170.756 256.998 171.251C257.208 174.612 257.187 177.983 256.934 181.342Z" fill="#FFBE9D"/>
<path d="M256.525 165.481C255.226 168.562 253.273 171.323 250.801 173.573C248.328 175.824 245.396 177.51 242.207 178.514L240.305 167.196L253.891 159.467L255.85 158.448C255.85 158.448 256.144 161.577 256.525 165.481Z" fill="#263238"/>
<path d="M225.737 149.793C223.964 169.887 235.784 173.189 240.09 173.569C244.016 173.906 257.436 174.574 261.276 154.795C265.115 135.016 256.338 127.853 247.396 126.59C238.454 125.327 227.509 129.727 225.737 149.793Z" fill="#FFBE9D"/>
<path d="M229.059 146.118C229.52 146.076 229.977 146.009 230.43 145.917C230.926 145.916 231.407 145.752 231.801 145.451C231.906 145.332 231.969 145.181 231.979 145.023C231.989 144.864 231.947 144.707 231.858 144.575C231.644 144.342 231.371 144.17 231.069 144.078C230.766 143.986 230.444 143.977 230.136 144.051C229.489 144.099 228.885 144.388 228.442 144.862C228.348 144.976 228.289 145.115 228.272 145.261C228.255 145.408 228.28 145.557 228.346 145.689C228.411 145.822 228.513 145.933 228.639 146.009C228.766 146.085 228.912 146.123 229.059 146.118Z" fill="#263238"/>
<path d="M242.939 147.453C242.473 147.367 242.057 147.209 241.604 147.08C241.112 147.014 240.655 146.787 240.305 146.434C240.219 146.302 240.179 146.146 240.191 145.989C240.203 145.832 240.266 145.683 240.37 145.565C240.611 145.36 240.903 145.223 241.215 145.17C241.527 145.117 241.848 145.149 242.143 145.264C242.777 145.396 243.338 145.763 243.714 146.29C243.795 146.415 243.838 146.561 243.837 146.709C243.836 146.858 243.792 147.003 243.709 147.127C243.627 147.25 243.51 147.347 243.373 147.405C243.236 147.463 243.085 147.48 242.939 147.453Z" fill="#263238"/>
<path d="M239.932 152.355C239.932 152.297 240.033 152.426 240.025 152.484C239.86 153.847 239.903 155.434 241.102 155.993C241.102 155.993 241.102 156.079 241.102 156.072C239.588 155.713 239.559 153.618 239.932 152.355Z" fill="#263238"/>
<path d="M241.281 151.034C243.492 151.034 243.269 155.484 241.224 155.455C239.179 155.426 239.423 151.005 241.281 151.034Z" fill="#263238"/>
<path d="M242.135 151.307C242.509 151.58 242.853 152.025 243.327 152.111C243.8 152.197 244.296 151.745 244.669 151.321C244.712 151.271 244.748 151.321 244.741 151.371C244.741 152.218 244.346 153.072 243.427 153.158C242.509 153.245 242.035 152.441 241.87 151.587C241.834 151.407 241.985 151.199 242.135 151.307Z" fill="#263238"/>
<path d="M231.377 151.3C231.377 151.249 231.27 151.364 231.27 151.414C231.27 152.792 231.011 154.357 229.748 154.766C229.712 154.766 229.712 154.845 229.748 154.838C231.277 154.687 231.586 152.606 231.377 151.3Z" fill="#263238"/>
<path d="M230.215 149.821C228.019 149.556 227.66 153.977 229.698 154.213C231.736 154.45 232.059 150.037 230.215 149.821Z" fill="#263238"/>
<path d="M229.275 150.037C228.901 150.238 228.557 150.64 228.105 150.632C227.653 150.625 227.301 150.116 227.028 149.635C227.028 149.585 226.964 149.635 226.957 149.678C226.863 150.517 227.071 151.422 227.875 151.644C228.679 151.867 229.203 151.178 229.468 150.352C229.519 150.202 229.418 149.972 229.275 150.037Z" fill="#263238"/>
<path d="M238.734 162.825C238.403 163.148 238.073 163.586 237.578 163.629C237.069 163.616 236.567 163.496 236.107 163.278C236.097 163.273 236.086 163.271 236.075 163.273C236.065 163.276 236.055 163.281 236.048 163.289C236.04 163.297 236.036 163.307 236.035 163.318C236.034 163.329 236.036 163.34 236.042 163.349C236.239 163.619 236.505 163.831 236.812 163.964C237.118 164.096 237.455 164.144 237.786 164.103C238.066 164.029 238.317 163.874 238.51 163.659C238.702 163.443 238.828 163.176 238.87 162.89C238.92 162.811 238.784 162.782 238.734 162.825Z" fill="#263238"/>
<path d="M233.315 157.529C233.315 157.529 232.87 159.869 232.813 160.837C232.813 160.924 236.15 161.297 237.994 159.273C238.073 159.187 237.951 159.072 237.858 159.129C236.596 159.925 235.111 160.29 233.624 160.17C233.566 159.897 234.413 156.625 234.263 156.582C233.511 156.601 232.765 156.721 232.045 156.941C232.763 152.692 234.198 148.594 234.837 144.353C234.846 144.319 234.842 144.284 234.825 144.253C234.808 144.223 234.78 144.201 234.747 144.191C234.714 144.182 234.678 144.186 234.648 144.202C234.617 144.219 234.595 144.247 234.586 144.281C232.813 148.465 231.866 153.338 230.997 157.708C230.89 158.268 232.921 157.665 233.315 157.529Z" fill="#263238"/>
<path d="M259.352 156.345C254.465 155.799 254.185 140.628 254.171 138.769C254.113 139.939 253.819 146.154 253.324 146.369C252.8 146.318 252.288 146.18 251.81 145.96C251.867 145.217 251.867 144.471 251.81 143.728C251.81 143.377 251.623 144.446 251.336 145.788L250.446 145.465C250.622 143.886 250.586 142.291 250.338 140.721C250.238 140.126 249.879 142.745 249.147 145.027C245.831 143.857 241.045 142.293 236.487 141.791C235.267 141.654 234.212 141.59 233.279 141.561C233.409 139.731 233.767 137.8 233.602 138.209C233.152 139.288 232.808 140.408 232.576 141.554C232.074 141.554 231.6 141.554 231.177 141.554C231.248 138.956 232.791 134.922 232.325 135.525C230.952 137.379 229.942 139.476 229.347 141.704C227.56 141.905 227.043 142.214 227.028 141.755C227.028 140.922 228.564 133.76 234.607 128.887C241.167 123.583 253.496 123.059 259.726 132.475C259.726 132.475 265.115 136.602 265.56 142.637C266.005 148.673 262.18 156.661 259.352 156.345Z" fill="#263238"/>
<path d="M257.974 156.058C257.974 156.058 262.381 149.778 265.23 151.35C268.079 152.922 264.756 162.029 261.405 163.27C260.989 163.458 260.539 163.559 260.082 163.568C259.626 163.578 259.172 163.496 258.748 163.326C258.324 163.157 257.939 162.904 257.615 162.582C257.291 162.261 257.035 161.877 256.862 161.455L257.974 156.058Z" fill="#FFBE9D"/>
<path d="M264.211 153.934C264.22 153.937 264.228 153.944 264.234 153.952C264.239 153.96 264.242 153.97 264.242 153.98C264.242 153.99 264.239 154 264.234 154.008C264.228 154.017 264.22 154.023 264.211 154.027C261.857 154.974 260.622 157.149 259.747 159.409C260.465 158.541 261.398 158.067 262.56 158.9C262.625 158.943 262.56 159.036 262.496 159.022C262.085 158.887 261.642 158.884 261.229 159.013C260.816 159.141 260.454 159.395 260.192 159.74C259.756 160.317 259.386 160.94 259.087 161.598C258.972 161.806 258.591 161.699 258.678 161.455C258.682 161.436 258.682 161.416 258.678 161.397C258.663 158.419 260.996 154.235 264.211 153.934Z" fill="#263238"/>
<path d="M277.624 193.807C302.642 220.167 323.197 274.976 311.161 280.122C300.159 284.823 265.309 280.481 250.977 277.064C246.764 276.06 255.24 243.442 259.747 244.511C265.187 245.803 279.124 247.805 279.663 247.769C280.861 247.683 267.462 209.359 263.386 195.379C257.702 175.851 268.23 183.903 277.624 193.807Z" fill="#FFBE9D"/>
<path d="M216.378 237.019C214.433 240.033 216.809 242.889 216.809 242.889C215.192 243.652 213.894 244.957 213.141 246.578C211.95 249.499 216.012 252.642 216.012 252.642C214.502 253.784 213.372 255.355 212.768 257.149C211.907 260.056 215.546 263.816 215.546 263.816C214.743 265.626 214.616 267.663 215.187 269.558C216.938 274.582 224.847 276.369 229.863 277.567C234.88 278.766 250.224 277.452 253.173 277.495L261.111 245.423C261.111 245.423 240.14 233.667 234.047 233.1C228.909 232.591 218.553 233.631 216.378 237.019Z" fill="#FFBE9D"/>
<path d="M217.16 242.43C222.744 241.626 228.256 242.516 233.81 243.097C233.835 243.097 233.859 243.107 233.876 243.125C233.894 243.142 233.904 243.166 233.904 243.191C233.904 243.215 233.894 243.239 233.876 243.256C233.859 243.274 233.835 243.284 233.81 243.284C228.291 242.645 222.715 243.112 217.182 242.695C217.151 242.691 217.123 242.677 217.101 242.654C217.08 242.631 217.067 242.602 217.064 242.571C217.062 242.54 217.07 242.509 217.087 242.484C217.105 242.458 217.131 242.439 217.16 242.43Z" fill="#263238"/>
<path d="M216.213 252.247C217.499 252.186 218.788 252.295 220.045 252.57C221.387 252.778 222.73 253.015 224.072 253.288C226.756 253.79 229.423 254.362 232.074 255.003C232.188 255.003 232.174 255.219 232.074 255.197C229.397 254.695 226.72 254.235 224.029 253.855C222.679 253.659 221.33 253.475 219.981 253.302C218.697 253.224 217.426 253.002 216.192 252.642C216.139 252.639 216.09 252.616 216.055 252.577C216.02 252.538 216.002 252.486 216.005 252.434C216.008 252.382 216.031 252.333 216.07 252.298C216.109 252.263 216.161 252.245 216.213 252.247Z" fill="#263238"/>
<path d="M215.653 263.838C216.751 263.666 218.014 264.089 219.084 264.311C220.304 264.57 221.517 264.814 222.737 265.029C225.177 265.517 227.617 265.998 230.071 266.4C230.193 266.4 230.172 266.608 230.071 266.586C227.574 266.199 225.048 265.869 222.579 265.424L218.912 264.792C217.78 264.698 216.675 264.404 215.646 263.924C215.636 263.911 215.632 263.895 215.633 263.879C215.634 263.864 215.642 263.849 215.653 263.838Z" fill="#263238"/>
<path d="M223.361 233.825C220.813 234.097 217.892 234.593 216.184 236.695C215.401 237.594 215 238.763 215.065 239.954C215.185 241.067 215.724 242.093 216.572 242.824C215.549 243.131 214.634 243.719 213.929 244.521C213.225 245.323 212.761 246.307 212.589 247.36C212.539 247.888 212.597 248.421 212.76 248.925C212.923 249.43 213.187 249.896 213.536 250.295C213.873 250.719 214.254 251.092 214.641 251.48C215.029 251.867 215.438 252.197 215.826 252.534C215.392 252.864 214.982 253.224 214.598 253.611C214.17 254.008 213.78 254.446 213.436 254.917C212.736 255.858 212.329 256.983 212.266 258.154C212.297 259.318 212.677 260.445 213.357 261.391C213.905 262.362 214.687 263.181 215.632 263.773C215.689 263.773 215.747 263.73 215.704 263.687C214.96 262.981 214.334 262.159 213.852 261.254C213.27 260.291 212.965 259.186 212.969 258.061C213.08 256.994 213.463 255.973 214.082 255.097C214.387 254.624 214.717 254.169 215.072 253.733C215.366 253.374 216.134 252.642 216.062 252.592C215.991 252.542 215.251 251.695 214.972 251.314C214.692 250.934 214.405 250.518 214.146 250.102C213.601 249.304 213.374 248.331 213.507 247.374C213.691 246.484 214.113 245.661 214.728 244.992C215.338 244.274 216.105 243.765 216.744 243.097C216.786 243.023 216.799 242.936 216.78 242.853C215.424 240.635 215.646 238.547 217.182 236.99C217.96 236.22 218.866 235.591 219.859 235.131C220.995 234.641 222.169 234.243 223.368 233.94C223.454 233.94 223.44 233.818 223.361 233.825Z" fill="#263238"/>
<path d="M272.536 223.706C272.163 222.234 271.747 220.777 271.316 219.313C270.455 216.378 269.565 213.436 268.445 210.579C267.821 208.965 267.132 207.378 266.464 205.778C266.464 205.778 266.421 205.778 266.429 205.778C267.039 207.802 267.598 209.84 268.208 211.864C267.584 210.687 266.881 209.56 266.285 208.376C266.285 208.311 266.163 208.376 266.192 208.433C266.809 209.661 267.311 210.938 267.893 212.18C268.223 212.897 268.61 213.572 268.962 214.247C268.962 214.333 269.012 214.419 269.041 214.498C270.017 217.404 270.964 220.325 271.955 223.225C272.507 224.854 273.11 226.483 273.562 228.141C273.569 228.153 273.579 228.162 273.592 228.168C273.604 228.173 273.618 228.173 273.631 228.169C273.644 228.165 273.655 228.156 273.663 228.144C273.67 228.132 273.672 228.118 273.67 228.105C273.239 226.67 272.909 225.177 272.536 223.706Z" fill="#263238"/>
<path d="M300.812 257.293C299.232 255.991 297.536 254.835 295.746 253.841C294.013 252.78 292.202 251.854 290.327 251.07C284.341 248.674 278.039 247.156 271.617 246.563C271.602 246.563 271.588 246.57 271.577 246.58C271.566 246.591 271.56 246.606 271.56 246.621C271.56 246.636 271.566 246.651 271.577 246.661C271.588 246.672 271.602 246.678 271.617 246.678C272.708 246.879 284.363 249.671 289.258 251.573C291.124 252.291 292.918 253.202 294.705 254.113C295.729 254.63 296.738 255.168 297.734 255.728C298.731 256.295 299.686 256.927 300.69 257.465C300.713 257.475 300.739 257.477 300.763 257.47C300.787 257.464 300.808 257.449 300.822 257.429C300.836 257.408 300.843 257.384 300.841 257.359C300.84 257.334 300.829 257.311 300.812 257.293Z" fill="#263238"/>
<path d="M59.0501 192.544C64.1815 201.774 99.3474 237.04 119.284 237.916C142.085 238.928 184.758 225.414 188.224 222.457C197.712 214.347 186.516 190.32 179.181 190.772C170.038 191.332 126.698 205.477 119.765 204.731C108.943 203.561 84.793 187.506 67.5043 179.289C57.4497 174.502 55.1029 185.44 59.0501 192.544Z" fill="#FFBE9D"/>
<path d="M184.492 224.208C186.53 223.311 202.628 217.685 209.496 210.766C213.134 207.106 222.005 195.903 220.053 193.413C218.266 191.138 215.086 193.614 215.086 193.614C215.086 193.614 218.962 188.59 216.45 185.425C213.938 182.26 208.778 186.739 208.778 186.739C208.778 186.739 212.366 181.263 209.654 178.32C206.941 175.378 202.477 180.71 202.477 180.71C202.477 180.71 206.008 175.859 202.735 174.38C198.802 172.6 193.298 182.275 188.619 185.562C187.556 186.279 166.005 199.133 166.005 199.133L184.492 224.208Z" fill="#FFBE9D"/>
<path d="M202.262 180.667C198.2 187.779 195.192 190.191 188.08 193.98C187.937 194.052 188.016 194.274 188.166 194.209C195.48 191.138 199.685 188.662 202.613 180.846C202.757 180.466 202.455 180.33 202.262 180.667Z" fill="#263238"/>
<path d="M208.556 186.667C203.697 193.686 200.453 196.327 193.291 200.841C193.19 200.905 193.291 201.085 193.398 201.027C200.79 197.188 204.931 194.619 208.871 186.968C209.051 186.624 208.778 186.344 208.556 186.667Z" fill="#263238"/>
<path d="M214.735 193.822C209.532 200.281 206.123 203.324 198.594 206.812C198.556 206.826 198.525 206.855 198.508 206.892C198.492 206.929 198.49 206.971 198.505 207.009C198.519 207.047 198.548 207.078 198.585 207.095C198.622 207.112 198.664 207.113 198.702 207.099C206.718 204.286 211.017 200.511 214.914 194.001C215.18 193.556 215.058 193.413 214.735 193.822Z" fill="#263238"/>
<path d="M159.495 198.056C159.495 198.056 165.718 189.896 169.241 186.918C172.765 183.939 189.989 177.66 191.561 181.298C193.585 186.035 184.377 191.597 179.475 193.75C179.475 193.75 184.162 204.63 178.406 210.07C172.65 215.51 159.495 198.056 159.495 198.056Z" fill="#FFBE9D"/>
<path d="M191.69 182.806C190.442 188.425 183.86 190.822 179.282 193.255C179.212 193.288 179.152 193.336 179.106 193.397C179.06 193.458 179.029 193.53 179.016 193.605C179.003 193.681 179.009 193.758 179.033 193.831C179.057 193.904 179.098 193.969 179.153 194.023C180.81 198.716 181.794 205.814 178.729 210.084C178.708 210.109 178.698 210.141 178.701 210.173C178.703 210.206 178.719 210.236 178.743 210.257C178.768 210.278 178.8 210.288 178.833 210.285C178.865 210.282 178.895 210.267 178.916 210.242C182.82 206.108 182.425 199.054 180.279 194.037C185.009 191.611 191.511 188.913 191.762 182.813L191.69 182.806Z" fill="#263238"/>
<path d="M58.9352 195.185C62.868 201.056 94.704 235.806 115.674 238.691C129.812 240.636 154.256 237.837 163.5 235.784L150.747 196.24C150.747 196.24 128.987 204.257 120.605 203.582C112.222 202.908 78.8219 182.892 66.4349 178.284C61.1743 176.318 57.995 177.567 56.531 180.294C54.5359 183.932 55.6554 190.284 58.9352 195.185Z" fill="#FFC727"/>
<path d="M156.388 235.024C154.3 229.175 146.613 204.881 145.3 199.549C145.207 199.176 145.422 199.025 145.565 199.398C152.233 216.773 154.852 229.081 156.61 234.93C156.646 235.074 156.431 235.167 156.388 235.024Z" fill="#263238"/>
<path d="M101.443 225.227C101.411 227.22 101.906 229.185 102.878 230.925C102.904 229.933 102.786 228.942 102.527 227.983C102.297 227.018 101.932 226.09 101.443 225.227Z" fill="#263238"/>
<path d="M123.827 204.73C123.809 205.723 123.927 206.713 124.179 207.673C124.409 208.637 124.776 209.563 125.27 210.422C125.302 208.431 124.807 206.467 123.834 204.73H123.827Z" fill="#263238"/>
<path d="M88.1517 193.032C88.1295 195.024 88.624 196.987 89.5871 198.731C89.6093 196.739 89.1148 194.776 88.1517 193.032Z" fill="#263238"/>
<path d="M149.104 218.804C149.081 220.794 149.575 222.755 150.539 224.495C150.562 222.506 150.067 220.545 149.104 218.804Z" fill="#263238"/>
<path d="M118.172 233.875C120.162 233.903 122.124 233.408 123.863 232.44C122.871 232.412 121.88 232.528 120.921 232.784C119.959 233.02 119.034 233.387 118.172 233.875Z" fill="#263238"/>
<path d="M137.011 211.979C138.003 211.997 138.993 211.879 139.953 211.627C140.917 211.398 141.843 211.03 142.702 210.536C140.711 210.504 138.748 210.999 137.011 211.972V211.979Z" fill="#263238"/>
<path d="M90.0392 216.292C92.0319 216.324 93.9976 215.829 95.7375 214.857C94.7449 214.832 93.7538 214.95 92.795 215.208C91.8299 215.438 90.902 215.803 90.0392 216.292Z" fill="#263238"/>
<path d="M56.3373 183.437C58.3295 183.464 60.294 182.97 62.0356 182.002C61.0433 181.974 60.0522 182.09 59.0931 182.346C58.1286 182.581 57.2012 182.948 56.3373 183.437Z" fill="#263238"/>
<path d="M73.2098 189.049C72.4904 189.734 71.8719 190.516 71.3725 191.375C70.852 192.22 70.4556 193.136 70.1956 194.095C71.6201 192.711 72.6591 190.979 73.2098 189.071V189.049Z" fill="#263238"/>
<path d="M143.613 230.983C142.898 231.672 142.282 232.457 141.783 233.315C141.263 234.161 140.866 235.077 140.606 236.035C142.029 234.651 143.066 232.92 143.613 231.012V230.983Z" fill="#263238"/>
<path d="M113.407 214.843C111.982 216.226 110.943 217.958 110.392 219.866C111.113 219.184 111.732 218.4 112.23 217.541C112.745 216.701 113.141 215.792 113.407 214.843Z" fill="#263238"/>
<path d="M81.1473 210.314C80.463 209.595 79.6801 208.976 78.822 208.477C77.9764 207.956 77.0604 207.56 76.1021 207.3C77.486 208.724 79.2175 209.763 81.1258 210.314H81.1473Z" fill="#263238"/>
<path d="M134.607 223.175C133.922 222.458 133.139 221.841 132.281 221.345C131.437 220.822 130.52 220.426 129.561 220.168C130.244 220.887 131.027 221.503 131.887 221.998C132.733 222.517 133.649 222.913 134.607 223.175Z" fill="#263238"/>
<path d="M103.955 206.23C103.27 205.513 102.488 204.897 101.63 204.4C100.786 203.877 99.8691 203.48 98.9097 203.223C99.5922 203.943 100.375 204.559 101.235 205.053C102.082 205.571 102.998 205.968 103.955 206.23Z" fill="#263238"/>
<path d="M93.2329 227.904C77.0422 216.306 61.6553 199.125 58.9568 195.157C55.6771 190.284 54.5575 183.932 56.5311 180.265C57.9665 177.538 61.1745 176.289 66.435 178.255C67.4971 178.65 68.71 179.16 70.0234 179.755C75.614 191.69 85.5394 212.158 93.2329 227.904Z" fill="#263238"/>
<path d="M91.932 263.49L14 263.698C14 263.698 22.8489 205.962 51.4697 178.468C55.0078 175.066 63.3184 175.468 68.8302 177.936C70.7966 178.812 78.1168 188.221 80.4636 197.314C82.8104 206.406 92.133 263.21 91.932 263.49Z" fill="#FFC727"/>
<path d="M64.6623 202.125C64.6384 204.117 65.1331 206.081 66.0977 207.824C66.1228 206.831 66.0044 205.84 65.746 204.881C65.5173 203.916 65.1525 202.988 64.6623 202.125Z" fill="#263238"/>
<path d="M62.5165 235.461C62.4942 237.453 62.9888 239.416 63.9518 241.16C63.9741 239.168 63.4795 237.205 62.5165 235.461Z" fill="#263238"/>
<path d="M36.3429 222.572C36.3146 224.562 36.8096 226.524 37.7783 228.263C37.8059 227.271 37.6898 226.28 37.4338 225.32C37.1977 224.359 36.8306 223.434 36.3429 222.572Z" fill="#263238"/>
<path d="M84.2547 221.775C84.2275 223.767 84.7224 225.732 85.6901 227.473C85.7181 226.481 85.602 225.49 85.3456 224.531C85.1108 223.567 84.7437 222.639 84.2547 221.775Z" fill="#263238"/>
<path d="M48.4357 213.199C49.428 213.217 50.418 213.099 51.3781 212.847C52.3447 212.619 53.2729 212.252 54.134 211.757C52.1413 211.725 50.1756 212.22 48.4357 213.192V213.199Z" fill="#263238"/>
<path d="M34.6277 243.628C36.6193 243.651 38.5826 243.156 40.326 242.193C39.3334 242.168 38.3423 242.286 37.3835 242.545C36.4184 242.774 35.4905 243.139 34.6277 243.628Z" fill="#263238"/>
<path d="M70.4252 255.944C71.4175 255.963 72.4077 255.844 73.3676 255.592C74.3342 255.364 75.2624 254.996 76.1235 254.501C74.1308 254.47 72.1651 254.965 70.4252 255.937V255.944Z" fill="#263238"/>
<path d="M33.666 261.125C34.6585 261.147 35.649 261.028 36.6085 260.773C37.5899 260.549 38.5329 260.181 39.4074 259.683C37.4158 259.66 35.4525 260.155 33.7091 261.118L33.666 261.125Z" fill="#263238"/>
<path d="M56.2583 181.937C57.2506 181.955 58.2407 181.837 59.2008 181.586C60.1673 181.357 61.0956 180.99 61.9566 180.495C59.9639 180.463 57.9982 180.958 56.2583 181.93V181.937Z" fill="#263238"/>
<path d="M47.3018 188.138C45.8762 189.521 44.8371 191.253 44.2876 193.162C45.7098 191.776 46.7484 190.045 47.3018 188.138Z" fill="#263238"/>
<path d="M25.6281 227.416C24.9094 228.099 24.293 228.882 23.7981 229.742C23.2746 230.586 22.878 231.502 22.6211 232.461C23.3403 231.779 23.9567 230.996 24.4512 230.136C24.9692 229.289 25.3654 228.374 25.6281 227.416Z" fill="#263238"/>
<path d="M72.5136 220.24C71.0971 221.629 70.0616 223.359 69.5066 225.263C70.9231 223.874 71.9586 222.144 72.5136 220.24Z" fill="#263238"/>
<path d="M52.5192 248.645C51.804 249.334 51.1881 250.119 50.6892 250.977C50.1687 251.823 49.7723 252.739 49.5122 253.697C50.9352 252.313 51.9718 250.581 52.5192 248.673V248.645Z" fill="#263238"/>
<path d="M74.9106 189.537C73.485 190.919 72.4479 192.652 71.9036 194.561C72.6223 193.878 73.2387 193.095 73.7336 192.236C74.2511 191.396 74.6473 190.488 74.9106 189.537Z" fill="#263238"/>
<path d="M82.8553 210.802C82.1702 210.083 81.3846 209.466 80.5228 208.972C79.6788 208.448 78.7623 208.052 77.8029 207.795C78.4864 208.516 79.2723 209.133 80.1353 209.625C80.9809 210.146 81.8969 210.542 82.8553 210.802Z" fill="#263238"/>
<path d="M24.5516 251.372C23.8648 250.653 23.0795 250.034 22.2191 249.535C21.3747 249.014 20.4583 248.619 19.4991 248.365C20.8882 249.782 22.6181 250.817 24.5229 251.372H24.5516Z" fill="#263238"/>
<path d="M86.3718 241.325C84.9861 239.902 83.2552 238.864 81.3481 238.31C82.0334 239.031 82.8189 239.65 83.6806 240.148C84.5188 240.663 85.4245 241.059 86.3718 241.325Z" fill="#263238"/>
<path d="M39.7232 208.104C39.0364 207.384 38.2511 206.766 37.3908 206.266C36.5451 205.746 35.6291 205.349 34.6708 205.089C36.0566 206.512 37.7875 207.55 39.6945 208.104H39.7232Z" fill="#263238"/>
<path d="M80.9103 200.618C81.628 202.635 82.1878 204.738 82.6902 206.848V206.604C82.6902 205.405 82.6327 204.185 82.6902 203.015C82.6902 202.958 82.7906 202.929 82.805 203.015C83.0083 204.215 83.09 205.431 83.049 206.647C83.049 207.221 83.049 207.795 83.0059 208.369C83.2069 209.317 83.3935 210.264 83.5514 211.24C83.8528 213.041 84.7355 219.744 84.836 221.079C84.836 221.359 84.5417 221.416 84.4484 221.129C84.0322 219.787 82.7835 212.891 82.4031 211.118C81.6628 207.68 81.1117 204.203 80.7524 200.704C80.7668 200.554 80.8888 200.547 80.9103 200.618Z" fill="#263238"/>
<path d="M66.9301 192.121C62.2007 192.767 54.9378 184.944 52.3542 178.887C52.1748 178.471 53.1795 174.387 54.1627 169.371C54.7512 166.321 55.3254 162.912 55.5981 159.761C55.6555 159.115 57.7511 160.515 57.7511 160.515L61.727 161.893L74.9178 166.479C74.9178 166.479 72.3342 172.895 71.839 178.385C71.7993 178.819 71.7993 179.256 71.839 179.691C71.839 179.755 71.839 179.827 71.839 179.913C72.0256 182.389 71.5089 191.489 66.9301 192.121Z" fill="#FFBE9D"/>
<path d="M71.8534 179.677C71.8534 179.741 71.8534 179.813 71.8534 179.899C71.1726 179.919 70.4913 179.888 69.8152 179.806C56.5454 178.227 56.5167 161.146 56.5167 161.146L61.7486 161.864L74.9178 166.479C74.9178 166.479 72.3342 172.895 71.839 178.385C71.805 178.815 71.8098 179.247 71.8534 179.677Z" fill="#263238"/>
<path d="M54.1125 135.346C51.5002 142.221 53.8254 162.754 58.5118 167.641C65.3082 174.681 77.1139 176.117 83.2715 167.792C89.2425 159.725 85.7331 133.028 80.4008 128.542C72.6284 121.904 57.9807 125.198 54.1125 135.346Z" fill="#FFBE9D"/>
<path d="M72.5424 149.836C72.5424 149.786 72.4419 149.915 72.4491 149.972C72.6429 151.35 72.6357 152.965 71.43 153.561C71.3941 153.561 71.43 153.654 71.43 153.639C72.9587 153.252 72.9515 151.113 72.5424 149.836Z" fill="#263238"/>
<path d="M71.1501 148.537C68.911 148.609 69.2196 153.087 71.2936 153.022C73.3677 152.958 73.0304 148.465 71.1501 148.537Z" fill="#263238"/>
<path d="M81.0324 149.061C81.0324 149.01 81.1472 149.118 81.1472 149.175C81.1974 150.568 81.4917 152.154 82.7835 152.527V152.606C81.2405 152.498 80.8745 150.388 81.0324 149.061Z" fill="#263238"/>
<path d="M82.1878 147.525C84.4054 147.202 84.8934 151.666 82.8337 151.967C80.774 152.269 80.3147 147.819 82.1878 147.525Z" fill="#263238"/>
<path d="M69.241 146.599C69.8188 146.393 70.3843 146.153 70.9347 145.882C71.5683 145.709 72.1263 145.33 72.5208 144.805C72.6123 144.616 72.6387 144.403 72.5959 144.198C72.553 143.992 72.4433 143.807 72.2839 143.671C71.9298 143.447 71.5222 143.322 71.1033 143.308C70.6845 143.294 70.2695 143.392 69.9013 143.592C69.0929 143.884 68.4207 144.464 68.0138 145.221C67.9344 145.399 67.908 145.596 67.9379 145.789C67.9677 145.981 68.0526 146.161 68.1822 146.307C68.3118 146.452 68.4806 146.557 68.6685 146.609C68.8563 146.661 69.0551 146.658 69.241 146.599Z" fill="#263238"/>
<path d="M83.7596 145.149C83.1511 145.07 82.5474 144.957 81.9511 144.812C81.2931 144.774 80.6655 144.522 80.164 144.094C80.0349 143.928 79.9647 143.724 79.9647 143.513C79.9647 143.303 80.0349 143.098 80.164 142.932C80.4585 142.634 80.8278 142.42 81.2332 142.314C81.6386 142.208 82.065 142.213 82.4678 142.329C83.3055 142.449 84.0709 142.87 84.6208 143.513C84.742 143.667 84.816 143.852 84.8339 144.047C84.8518 144.242 84.8128 144.438 84.7217 144.611C84.6305 144.784 84.4911 144.927 84.3204 145.023C84.1496 145.118 83.9548 145.162 83.7596 145.149Z" fill="#263238"/>
<path d="M72.2266 162.352C72.5782 162.653 72.9443 163.07 73.4466 163.07C73.951 163.019 74.4396 162.865 74.882 162.618C74.925 162.618 74.9753 162.618 74.9466 162.682C74.7685 162.97 74.5153 163.203 74.2143 163.357C73.9133 163.512 73.5759 163.581 73.2385 163.558C72.9507 163.504 72.6852 163.367 72.4756 163.162C72.2661 162.958 72.122 162.696 72.0615 162.409C72.0687 162.345 72.1764 162.309 72.2266 162.352Z" fill="#263238"/>
<path d="M73.3963 158.089C73.785 158.616 74.2794 159.056 74.8479 159.381C75.4163 159.706 76.0463 159.909 76.6976 159.977C77.266 160.045 77.8413 160.03 78.4056 159.933C78.5127 159.926 78.6186 159.907 78.7214 159.876L79.0228 159.811C79.0962 159.793 79.1613 159.75 79.208 159.69C79.2547 159.631 79.2804 159.557 79.2812 159.481C79.2846 159.436 79.2846 159.39 79.2812 159.345V159.223C79.2381 158.154 79.0228 156.539 79.0228 156.539C79.4247 156.704 81.4773 157.465 81.4055 156.905C80.8098 152.305 80.1496 147.18 78.585 142.731C78.5749 142.701 78.5544 142.676 78.5272 142.661C78.5001 142.645 78.4681 142.64 78.4374 142.646C78.4067 142.652 78.3792 142.669 78.3602 142.694C78.3411 142.719 78.3318 142.75 78.3339 142.781C78.7286 147.231 79.9056 151.573 80.3792 156.037C79.6498 155.754 78.8837 155.578 78.1042 155.513C77.9535 155.57 78.5779 158.634 78.5563 159.101C78.5582 159.118 78.5582 159.135 78.5563 159.151C76.7765 159.51 75.3842 159.058 73.5326 157.974C73.4106 157.867 73.303 157.989 73.3963 158.089Z" fill="#263238"/>
<path d="M77.731 159.438C77.1903 160.246 76.4482 160.899 75.578 161.333C75.1047 161.558 74.5722 161.629 74.0565 161.534C72.9298 161.319 72.8293 160.307 72.9729 159.424C73.0524 158.953 73.1873 158.493 73.3748 158.053C74.6394 158.973 76.1675 159.459 77.731 159.438Z" fill="#263238"/>
<path d="M75.6068 161.333C75.1335 161.558 74.601 161.629 74.0853 161.534C72.9586 161.318 72.8581 160.307 73.0017 159.424C74.2002 159.46 75.4274 160.185 75.6068 161.333Z" fill="#FF99BA"/>
<path d="M53.7608 133.638C57.3492 123.591 73.9489 123.59 78.4774 126.655C79.7513 127.483 80.8482 128.556 81.7044 129.812C82.5606 131.067 83.1591 132.48 83.4653 133.968C83.4653 133.968 82.3959 131.384 80.5946 131.392C78.7932 131.399 79.1162 133.207 76.4536 134.004C74.0422 134.722 70.6405 132.274 66.5641 132.97C64.8013 133.23 63.169 134.051 61.9098 135.311C60.6505 136.572 59.8314 138.205 59.574 139.968C59.0357 143.298 59.4519 156.74 56.7033 157.414C53.9546 158.089 50.8901 141.762 53.7608 133.638Z" fill="#263238"/>
<path d="M59.0214 152.513C59.0214 152.513 54.7154 145.731 51.694 147.223C48.6726 148.716 51.6294 158.398 55.0671 159.869C55.4956 160.084 55.9629 160.211 56.4413 160.242C56.9197 160.273 57.3995 160.208 57.8524 160.051C58.3053 159.894 58.7221 159.648 59.0782 159.327C59.4343 159.006 59.7225 158.617 59.9257 158.182L59.0214 152.513Z" fill="#FFBE9D"/>
<path d="M52.6197 149.972C52.6104 149.976 52.6024 149.982 52.5968 149.991C52.5911 149.999 52.5881 150.009 52.5881 150.019C52.5881 150.029 52.5911 150.039 52.5968 150.047C52.6024 150.055 52.6104 150.062 52.6197 150.065C55.0239 151.171 56.2081 153.51 56.9975 155.907C56.2799 154.967 55.3397 154.422 54.0838 155.233C54.0192 155.276 54.0838 155.376 54.1412 155.369C54.5791 155.251 55.0428 155.272 55.4684 155.429C55.8939 155.585 56.2602 155.871 56.5167 156.245C56.9397 156.872 57.2935 157.543 57.5717 158.247C57.6793 158.469 58.0812 158.376 58.0094 158.118C58.0062 158.099 58.0062 158.079 58.0094 158.06C58.1817 154.946 55.9569 150.453 52.6197 149.972Z" fill="#263238"/>
<path d="M38.4816 197.339C31.0609 210.752 14.0018 262.187 25.6281 271.912C40.0533 283.997 84.4772 282.878 94.2304 283.057C98.4718 283.136 103.496 253.317 100.173 250.231C96.8499 247.145 49.6127 248.796 47.5315 246.147C46.6775 245.049 55.6125 207.436 52.7777 191.253C49.8567 174.639 41.826 191.253 38.4816 197.339Z" fill="#FFBE9D"/>
<path d="M54.3351 184.994C60.1697 198.63 47.5746 243.513 49.1535 244.748C50.7323 245.982 87.5561 246.599 87.5561 246.599L83.3505 287.198C75.9083 287.119 26.798 282.555 20.1954 269.795C13.5928 257.034 27.3721 212.582 36.2784 195.595C42.8021 183.265 50.3233 175.593 54.3351 184.994Z" fill="#FFC727"/>
<path d="M40.204 242.43C43.1608 242.839 46.0674 243.334 48.9955 243.714C48.981 243.651 48.981 243.584 48.9955 243.521L49.0385 243.234C47.2715 242.323 45.4084 241.613 43.4837 241.117C43.3617 241.073 43.3761 240.858 43.4837 240.873C45.4397 241.002 47.3606 241.455 49.1677 242.215C51.3686 228.89 53.7297 215.587 56.2511 202.305C56.2511 202.262 56.3372 202.269 56.3372 202.305C55.9114 205.86 55.4593 209.41 54.9808 212.955C55.5478 211.182 56.244 209.417 56.7894 207.709C56.8002 207.692 56.8163 207.679 56.8352 207.671C56.8542 207.664 56.875 207.663 56.8945 207.669C56.9139 207.675 56.931 207.687 56.9431 207.703C56.9552 207.719 56.9617 207.739 56.9616 207.759C56.4736 210.63 55.9569 213.981 54.5646 216.586C54.5604 216.613 54.5505 216.638 54.5356 216.66C54.5208 216.683 54.5013 216.702 54.4785 216.716C53.2441 225.443 51.8374 234.141 50.1724 242.796C50.6818 243.123 51.139 243.524 51.5288 243.987C55.8851 245.164 86.9029 245.602 87.4125 246.083C87.922 246.564 87.5488 249.42 87.2689 252.061C87.2689 252.291 86.8814 252.449 86.8957 252.219C87.0106 250.482 87.19 247.195 86.8455 247.08C86.3647 246.93 54.8445 247.87 40.0676 242.717C39.8882 242.66 40.0389 242.408 40.204 242.43Z" fill="#263238"/>
<path d="M45.0985 272.529C45.0804 273.521 45.1987 274.511 45.4501 275.472C45.6786 276.438 46.046 277.366 46.541 278.227C46.5726 276.235 46.0775 274.269 45.1057 272.529H45.0985Z" fill="#263238"/>
<path d="M82.1017 266.106C82.0833 267.098 82.2016 268.088 82.4534 269.048C82.6818 270.015 83.0493 270.943 83.5442 271.804C83.5758 269.811 83.0807 267.846 82.1089 266.106H82.1017Z" fill="#263238"/>
<path d="M35.6253 222.572C35.597 224.562 36.092 226.524 37.0606 228.263C37.0882 227.271 36.9722 226.28 36.7162 225.32C36.48 224.359 36.113 223.434 35.6253 222.572Z" fill="#263238"/>
<path d="M47.718 213.199C48.7103 213.217 49.7004 213.099 50.6605 212.847C51.627 212.619 52.5553 212.252 53.4163 211.757C51.4236 211.725 49.458 212.22 47.718 213.192V213.199Z" fill="#263238"/>
<path d="M33.91 243.628C35.9016 243.651 37.865 243.156 39.6084 242.193C38.6157 242.168 37.6247 242.286 36.6659 242.545C35.7007 242.774 34.7729 243.139 33.91 243.628Z" fill="#263238"/>
<path d="M69.7075 255.944C70.6999 255.963 71.6901 255.844 72.65 255.592C73.6165 255.364 74.5448 254.996 75.4058 254.501C73.4132 254.47 71.4475 254.965 69.7075 255.937V255.944Z" fill="#263238"/>
<path d="M32.9484 261.125C33.9408 261.147 34.9314 261.028 35.8908 260.773C36.8722 260.549 37.8153 260.181 38.6897 259.683C36.6982 259.66 34.7348 260.155 32.9914 261.118L32.9484 261.125Z" fill="#263238"/>
<path d="M46.5842 188.138C45.1586 189.521 44.1194 191.253 43.5699 193.162C44.9922 191.776 46.0307 190.045 46.5842 188.138Z" fill="#263238"/>
<path d="M24.9105 227.416C24.1917 228.099 23.5753 228.882 23.0804 229.742C22.5569 230.586 22.1603 231.502 21.9034 232.461C22.6227 231.779 23.2391 230.996 23.7335 230.136C24.2515 229.289 24.6477 228.374 24.9105 227.416Z" fill="#263238"/>
<path d="M51.8016 248.645C51.0864 249.334 50.4705 250.119 49.9715 250.977C49.451 251.823 49.0546 252.739 48.7946 253.697C50.2176 252.313 51.2541 250.581 51.8016 248.673V248.645Z" fill="#263238"/>
<path d="M72.2265 278.27C71.5071 278.955 70.8907 279.741 70.3965 280.603C69.873 281.447 69.4764 282.363 69.2195 283.323C69.9406 282.639 70.5572 281.853 71.0495 280.99C71.5701 280.145 71.9664 279.229 72.2265 278.27Z" fill="#263238"/>
<path d="M23.8339 251.372C23.1471 250.653 22.3618 250.034 21.5015 249.535C20.6571 249.014 19.7406 248.619 18.7815 248.365C20.1705 249.782 21.9005 250.817 23.8052 251.372H23.8339Z" fill="#263238"/>
<path d="M39.0055 208.104C38.3188 207.384 37.5335 206.766 36.6731 206.266C35.8275 205.746 34.9115 205.349 33.9531 205.089C35.3389 206.512 37.0698 207.55 38.9768 208.104H39.0055Z" fill="#263238"/>
<path d="M63.4494 266.773C62.0654 265.349 60.3339 264.31 58.4257 263.759C59.1084 264.48 59.8915 265.099 60.7509 265.596C61.5905 266.114 62.4989 266.51 63.4494 266.773Z" fill="#263238"/>
<path d="M51.2561 230.072C49.8722 228.647 48.1406 227.608 46.2324 227.057C46.9071 227.784 47.683 228.41 48.5361 228.916C49.3851 229.425 50.3005 229.814 51.2561 230.072Z" fill="#263238"/>
<path d="M90.5631 248.76C90.5631 248.76 99.2398 249.018 101.386 249.219C103.531 249.42 125.069 244.856 131.923 249.09C136.767 252.09 147.711 265.596 146.635 274.682C145.975 280.172 139.882 280.589 139.882 280.589C139.882 280.589 138.999 283.933 136.365 284.973C135.431 285.362 134.425 285.544 133.415 285.51C132.405 285.475 131.413 285.224 130.509 284.773C130.205 285.774 129.64 286.676 128.872 287.386C128.104 288.096 127.16 288.589 126.138 288.813C121.832 289.782 119.916 287.234 119.916 287.234C118.147 289.139 115.748 290.34 113.163 290.614C106.94 291.124 98.5149 287.658 97.5245 285.153C95.9026 281.062 103.022 280.897 107.902 281.328C107.902 281.328 106.137 281.199 105.785 278.744C105.785 278.744 103.008 285.246 88.0154 282.44L90.5631 248.76Z" fill="#FFBE9D"/>
<path d="M112.395 259.998C115.911 263.587 118.416 268.56 120.289 273.189C122.162 277.818 123.059 282.856 120.232 287.227C120.206 287.261 120.17 287.284 120.129 287.294C120.088 287.304 120.045 287.299 120.008 287.28C119.97 287.261 119.94 287.23 119.924 287.191C119.907 287.153 119.904 287.109 119.916 287.069C122.406 282.045 120.813 276.857 118.696 271.998C116.88 267.85 115.021 263.759 112.064 260.285C111.892 260.106 112.208 259.812 112.395 259.998Z" fill="#263238"/>
<path d="M121.889 258.068C127.681 264.369 134.808 275.916 130.645 284.693C130.636 284.717 130.619 284.737 130.596 284.747C130.573 284.758 130.547 284.759 130.523 284.751C130.499 284.742 130.48 284.725 130.469 284.702C130.458 284.679 130.457 284.653 130.466 284.629C132.741 274.962 126.877 265.869 121.631 258.283C121.516 258.125 121.753 257.917 121.889 258.068Z" fill="#263238"/>
<path d="M130.616 255.635C134.004 258.57 136.566 262.776 138.554 266.752C140.707 271.058 141.582 275.83 140.14 280.517C140.131 280.539 140.115 280.557 140.094 280.569C140.072 280.58 140.048 280.583 140.025 280.578C140.001 280.573 139.98 280.559 139.966 280.54C139.952 280.521 139.945 280.498 139.946 280.474C140.872 270.957 136.458 262.898 130.344 255.879C130.207 255.721 130.466 255.506 130.616 255.635Z" fill="#263238"/>
<path d="M97.4958 283.294C97.4958 283.344 97.4958 283.394 97.5604 283.351C99.8211 281.033 103.675 281.033 107.342 281.572C107.365 281.584 107.391 281.591 107.418 281.591C107.444 281.591 107.47 281.584 107.493 281.572C109.739 281.916 111.9 282.454 113.565 282.784C113.619 282.794 113.674 282.783 113.721 282.755C113.768 282.727 113.803 282.683 113.821 282.631C113.838 282.579 113.836 282.522 113.816 282.471C113.795 282.421 113.757 282.379 113.708 282.354C111.69 281.404 109.534 280.779 107.321 280.502C106.917 279.842 106.642 279.112 106.51 278.349C106.418 277.16 106.696 275.972 107.306 274.947C107.306 274.89 107.256 274.847 107.213 274.89C106.734 275.337 106.358 275.881 106.11 276.487C105.863 277.093 105.749 277.746 105.778 278.399C105.778 278.443 105.778 278.493 105.778 278.543C105.556 279 105.26 279.417 104.902 279.777C104.675 279.983 104.435 280.175 104.185 280.352C101.486 280.466 98.9097 281.263 97.4958 283.294ZM106.309 280.423C105.936 280.423 105.555 280.38 105.175 280.366C105.28 280.247 105.378 280.122 105.469 279.993C105.665 279.711 105.813 279.398 105.907 279.067C105.978 279.533 106.113 279.987 106.309 280.416V280.423Z" fill="#263238"/>
<path d="M71.9395 177.89L67.7555 189.595L52.8638 175.557L48.9812 180.401C48.9812 180.401 63.8944 203.037 63.9375 201.982L68.3081 191.863L75.4346 198.515L74.2074 181.177L71.9395 177.89Z" fill="#FFC727"/>
<path d="M75.291 189.911C74.9968 187.04 74.7743 184.169 74.3437 181.299C74.3437 181.198 74.1715 181.162 74.1499 181.299C73.6834 184.083 74.8676 194.999 74.9681 197.626C74.6667 197.331 68.3727 191.784 68.3153 191.884C67.3464 193.506 64.1384 200.877 63.9231 201.544C61.5691 197.956 51.6007 183.796 48.852 180.416C48.8377 180.393 48.8149 180.377 48.7887 180.371C48.7625 180.365 48.7349 180.369 48.712 180.384C48.6892 180.398 48.673 180.421 48.6669 180.447C48.6609 180.473 48.6655 180.501 48.6797 180.524C50.7897 184.334 63.6791 203.015 63.8513 202.958C65.5572 199.475 67.0807 195.906 68.4157 192.265C69.4922 193.485 75.8723 199.772 75.8795 199.348C75.8494 196.194 75.653 193.044 75.291 189.911Z" fill="#263238"/>
<path d="M104.062 302.169H88.7975V304.551H104.062V302.169Z" fill="#455A64"/>
<path d="M104.062 302.169H88.7975V303.74H104.062V302.169Z" fill="#263238"/>
<path d="M70.6835 295.76C71.6107 297.139 72.9171 298.221 74.4452 298.874C75.9734 299.527 77.6578 299.724 79.2955 299.442C79.8241 299.338 80.3427 299.189 80.8457 298.997C81.6018 298.696 82.3235 298.316 82.9987 297.863L81.0538 294.992C80.6949 295.245 80.3128 295.464 79.9127 295.645C76.2813 297.289 73.9776 294.425 73.5254 293.772C71.4298 290.829 70.6547 284.112 72.8078 281.536C72.9513 281.342 73.5254 281.04 76.0229 281.536C76.4751 281.636 76.9918 281.751 77.5731 281.909C78.0237 282.064 78.491 282.165 78.9654 282.21L79.03 280.488L79.195 278.765C79.0372 278.765 78.7931 278.665 78.4774 278.572C77.3412 278.238 76.1794 277.998 75.0038 277.854C73.1953 277.66 71.3006 277.854 70.138 279.289C66.6788 283.545 68.0639 292.071 70.6835 295.76Z" fill="#455A64"/>
<path d="M81.0323 294.985C80.6734 295.238 80.2913 295.457 79.8912 295.638L80.817 298.997C81.5731 298.697 82.2949 298.316 82.97 297.863L81.0323 294.985Z" fill="#263238"/>
<path d="M74.9752 277.875L76.0015 281.557C76.4536 281.658 76.9703 281.772 77.5517 281.93C78.0023 282.085 78.4696 282.186 78.9439 282.232L79.0085 280.509L79.1736 278.787C79.0157 278.787 78.7717 278.686 78.4559 278.593C77.3174 278.259 76.1532 278.019 74.9752 277.875Z" fill="#263238"/>
<path d="M116.729 273.412C116.729 273.412 114.899 288.964 111.706 295.516C108.512 302.068 104.127 302.786 101.385 302.786H91.4386C88.697 302.786 84.2618 302.068 81.1184 295.516C77.975 288.964 76.0947 273.412 76.0947 273.412H116.729Z" fill="#455A64"/>
<path d="M101.063 146.563C99.3012 143.952 98.35 140.878 98.3282 137.729C98.3282 126.547 110.615 117.476 125.758 117.476C140.901 117.476 153.173 126.547 153.173 137.729C153.173 148.91 140.901 157.988 125.758 157.988C118.409 157.988 111.756 155.835 106.84 152.383L97.3881 154.78L101.063 146.563Z" fill="#FFC727"/>
<path d="M135.619 137.728C135.619 138.296 135.787 138.851 136.102 139.323C136.418 139.795 136.866 140.163 137.391 140.381C137.915 140.598 138.492 140.655 139.049 140.544C139.606 140.433 140.118 140.16 140.519 139.758C140.921 139.357 141.194 138.845 141.305 138.288C141.416 137.732 141.359 137.154 141.141 136.63C140.924 136.105 140.556 135.657 140.084 135.341C139.612 135.026 139.057 134.858 138.489 134.858C137.728 134.858 136.998 135.16 136.459 135.698C135.921 136.237 135.619 136.967 135.619 137.728Z" fill="#263238"/>
<path d="M122.909 137.728C122.909 138.296 123.077 138.851 123.392 139.323C123.708 139.795 124.156 140.163 124.681 140.381C125.205 140.598 125.782 140.655 126.339 140.544C126.896 140.433 127.408 140.16 127.809 139.758C128.211 139.357 128.484 138.845 128.595 138.288C128.706 137.732 128.649 137.154 128.431 136.63C128.214 136.105 127.846 135.657 127.374 135.341C126.902 135.026 126.347 134.858 125.779 134.858C125.018 134.858 124.288 135.16 123.749 135.698C123.211 136.237 122.909 136.967 122.909 137.728Z" fill="#263238"/>
<path d="M110.199 137.728C110.199 138.296 110.367 138.851 110.682 139.323C110.998 139.795 111.446 140.163 111.971 140.381C112.495 140.598 113.072 140.655 113.629 140.544C114.186 140.433 114.698 140.16 115.099 139.758C115.501 139.357 115.774 138.845 115.885 138.288C115.996 137.732 115.939 137.154 115.721 136.63C115.504 136.105 115.136 135.657 114.664 135.341C114.192 135.026 113.637 134.858 113.069 134.858C112.308 134.858 111.578 135.16 111.039 135.698C110.501 136.237 110.199 136.967 110.199 137.728Z" fill="#263238"/>
<path d="M220.261 115.208C222.022 112.596 222.973 109.523 222.995 106.373C222.995 95.192 210.709 86.1206 195.566 86.1206C180.423 86.1206 168.151 95.192 168.151 106.373C168.151 117.555 180.423 126.633 195.566 126.633C202.907 126.633 209.568 124.48 214.484 121.028L223.928 123.418L220.261 115.208Z" fill="#FFC727"/>
<path d="M185.698 106.373C185.698 106.941 185.529 107.496 185.214 107.968C184.898 108.44 184.45 108.808 183.926 109.026C183.401 109.243 182.824 109.3 182.267 109.189C181.71 109.078 181.199 108.805 180.797 108.403C180.396 108.002 180.122 107.49 180.011 106.933C179.901 106.377 179.958 105.799 180.175 105.275C180.392 104.75 180.76 104.302 181.232 103.986C181.704 103.671 182.259 103.503 182.827 103.503C183.588 103.503 184.319 103.805 184.857 104.343C185.395 104.882 185.698 105.612 185.698 106.373Z" fill="#263238"/>
<path d="M198.408 106.373C198.408 106.941 198.239 107.496 197.924 107.968C197.608 108.44 197.16 108.808 196.636 109.026C196.111 109.243 195.534 109.3 194.977 109.189C194.42 109.078 193.909 108.805 193.507 108.403C193.106 108.002 192.832 107.49 192.721 106.933C192.611 106.377 192.668 105.799 192.885 105.275C193.102 104.75 193.47 104.302 193.942 103.986C194.414 103.671 194.969 103.503 195.537 103.503C196.298 103.503 197.028 103.805 197.567 104.343C198.105 104.882 198.408 105.612 198.408 106.373Z" fill="#263238"/>
<path d="M211.118 106.373C211.118 106.941 210.949 107.496 210.634 107.968C210.318 108.44 209.87 108.808 209.345 109.026C208.821 109.243 208.244 109.3 207.687 109.189C207.13 109.078 206.619 108.805 206.217 108.403C205.816 108.002 205.542 107.49 205.431 106.933C205.321 106.377 205.377 105.799 205.595 105.275C205.812 104.75 206.18 104.302 206.652 103.986C207.124 103.671 207.679 103.503 208.247 103.503C209.008 103.503 209.738 103.805 210.277 104.343C210.815 104.882 211.118 105.612 211.118 106.373Z" fill="#263238"/>
</svg>
