<svg width="330" height="325" viewBox="0 0 330 325" fill="none" xmlns="http://www.w3.org/2000/svg">
<path d="M329.328 71.2936H280.599V122.087H329.328V71.2936Z" fill="#E0E0E0"/>
<path d="M326.026 71.2936H277.297V122.087H326.026V71.2936Z" fill="#FAFAFA"/>
<path d="M326.04 122.101H277.283V71.2794H326.04V122.101ZM277.311 122.101H326.012V71.3077H277.311V122.101Z" fill="#E0E0E0"/>
<path d="M319.478 78.1245H283.852V115.263H319.478V78.1245Z" fill="white"/>
<path d="M283.852 115.504C283.6 115.88 283.303 116.224 282.968 116.529C282.403 117.13 281.604 117.943 280.705 118.82C279.807 119.697 278.987 120.489 278.379 121.048C278.07 121.375 277.723 121.664 277.347 121.91C277.596 121.537 277.891 121.195 278.223 120.892C278.789 120.291 279.595 119.478 280.493 118.587C281.391 117.696 282.219 116.918 282.827 116.359C283.133 116.034 283.477 115.747 283.852 115.504Z" fill="#E0E0E0"/>
<path d="M319.478 115.419C319.849 115.675 320.19 115.972 320.496 116.303C321.097 116.869 321.91 117.668 322.794 118.566C323.678 119.464 324.463 120.284 325.022 120.892C325.351 121.198 325.638 121.545 325.877 121.925C325.509 121.679 325.167 121.394 324.859 121.076C324.258 120.503 323.445 119.704 322.561 118.806C321.677 117.908 320.885 117.081 320.326 116.473C320 116.159 319.714 115.805 319.478 115.419Z" fill="#E0E0E0"/>
<path d="M319.379 78.2236C319.634 77.8607 319.931 77.5286 320.263 77.2336C320.835 76.6325 321.635 75.8193 322.526 74.9354C323.417 74.0515 324.251 73.2666 324.859 72.7079C325.166 72.3832 325.51 72.096 325.884 71.8523C325.634 72.2234 325.342 72.565 325.015 72.8706C324.442 73.4716 323.643 74.2849 322.745 75.1688C321.847 76.0527 321.019 76.8447 320.411 77.4033C320.099 77.7142 319.752 77.9893 319.379 78.2236Z" fill="#E0E0E0"/>
<path d="M283.753 78.3084C283.376 78.06 283.032 77.7654 282.728 77.4316C282.127 76.8658 281.314 76.0668 280.437 75.1687C279.56 74.2707 278.761 73.4504 278.209 72.8422C277.884 72.531 277.595 72.1847 277.347 71.8098C277.72 72.0597 278.062 72.3541 278.365 72.6867C278.966 73.2524 279.779 74.0585 280.663 74.9566C281.547 75.8546 282.339 76.682 282.898 77.2831C283.22 77.5916 283.507 77.9356 283.753 78.3084Z" fill="#E0E0E0"/>
<path d="M319.379 115.256C319.371 115.198 319.371 115.138 319.379 115.08C319.379 114.952 319.379 114.783 319.379 114.556C319.379 114.097 319.379 113.425 319.379 112.555C319.379 110.794 319.379 108.234 319.343 104.989C319.343 98.483 319.343 89.2124 319.273 78.1175L319.414 78.2518H283.888L284.043 78.0962C284.043 91.7228 284.043 104.472 284.043 115.228L283.909 115.094L309.627 115.164H316.854H318.771H316.883L309.691 115.2L283.88 115.263H283.739V115.129C283.739 104.373 283.739 91.6238 283.739 77.9972V77.9407H283.902H319.428H319.563V78.0821C319.563 89.2124 319.513 98.5042 319.492 105.031C319.492 108.27 319.492 110.816 319.492 112.569C319.492 113.425 319.492 114.09 319.492 114.549C319.492 114.761 319.492 114.931 319.492 115.051C319.461 115.123 319.423 115.192 319.379 115.256Z" fill="#E0E0E0"/>
<path d="M301.587 99.1548L296.637 99.2184L295.718 101.439L293.179 101.474L297.818 91.1005H300.265L305.215 101.347L302.613 101.382L301.587 99.1548ZM300.781 97.3516L299.049 93.4269L297.401 97.4011L300.781 97.3516Z" fill="#E0E0E0"/>
<path d="M310.964 97.7405L311.013 101.375H309.938V100.576C309.698 100.882 309.385 101.123 309.029 101.279C308.672 101.434 308.283 101.499 307.895 101.467C306.481 101.467 305.575 100.76 305.561 99.7276C305.547 98.6951 306.191 97.9597 308.05 97.9314H309.847V97.7405C309.847 96.8212 309.274 96.3262 308.149 96.3262C307.435 96.3251 306.741 96.5614 306.176 96.998L305.696 96.1848C306.443 95.6433 307.347 95.3602 308.27 95.3787C309.967 95.3292 310.943 96.1141 310.964 97.7405ZM309.854 99.5508V98.7305H308.1C306.983 98.7305 306.686 99.1689 306.686 99.6781C306.686 100.187 307.216 100.647 308.1 100.64C308.466 100.658 308.828 100.566 309.141 100.376C309.454 100.186 309.702 99.9054 309.854 99.572V99.5508Z" fill="#E0E0E0"/>
<path d="M322.497 132.786H282.495V174.486H322.497V132.786Z" fill="#E0E0E0"/>
<path d="M319.789 132.786H279.786V174.486H319.789V132.786Z" fill="#FAFAFA"/>
<path d="M319.803 174.5H279.772V132.779H319.803V174.5ZM279.8 174.5H319.775V132.793H279.8V174.5Z" fill="#E0E0E0"/>
<path d="M314.415 138.387H285.167V168.879H314.415V138.387Z" fill="white"/>
<path d="M285.168 169.084C284.965 169.388 284.728 169.668 284.46 169.918C283.987 170.413 283.336 171.078 282.601 171.806C281.865 172.535 281.186 173.178 280.684 173.638C280.432 173.905 280.15 174.143 279.843 174.345C280.045 174.04 280.282 173.76 280.55 173.51C281.017 173.015 281.681 172.351 282.417 171.622C283.152 170.894 283.831 170.251 284.333 169.791C284.579 169.519 284.859 169.281 285.168 169.084Z" fill="#E0E0E0"/>
<path d="M314.415 169.006C314.719 169.208 314.999 169.446 315.249 169.713C315.744 170.18 316.409 170.837 317.137 171.573C317.865 172.308 318.509 172.987 318.969 173.482C319.238 173.736 319.475 174.02 319.676 174.331C319.374 174.124 319.095 173.887 318.841 173.623C318.346 173.157 317.682 172.499 316.953 171.764C316.225 171.028 315.581 170.349 315.122 169.847C314.852 169.598 314.614 169.315 314.415 169.006Z" fill="#E0E0E0"/>
<path d="M314.33 138.472C314.533 138.165 314.77 137.883 315.037 137.63C315.511 137.142 316.161 136.47 316.897 135.749C317.632 135.028 318.311 134.377 318.813 133.918C319.063 133.648 319.345 133.41 319.655 133.211C319.453 133.516 319.215 133.796 318.947 134.045C318.481 134.533 317.823 135.205 317.081 135.933C316.338 136.661 315.666 137.305 315.164 137.765C314.919 138.036 314.638 138.274 314.33 138.472Z" fill="#E0E0E0"/>
<path d="M285.083 138.549C284.777 138.348 284.497 138.11 284.248 137.842C283.753 137.376 283.089 136.725 282.36 135.99C281.632 135.254 280.988 134.575 280.529 134.073C280.261 133.821 280.024 133.539 279.822 133.232C280.127 133.434 280.407 133.671 280.656 133.939C281.151 134.406 281.816 135.063 282.544 135.806C283.272 136.548 283.916 137.22 284.376 137.722C284.647 137.966 284.884 138.244 285.083 138.549Z" fill="#E0E0E0"/>
<path d="M314.33 168.879V168.73C314.33 168.624 314.33 168.49 314.33 168.306C314.33 167.924 314.33 167.372 314.33 166.658C314.33 165.244 314.33 163.123 314.33 160.443C314.33 155.104 314.294 147.502 314.266 138.387L314.379 138.5H285.217L285.344 138.366C285.344 149.56 285.344 160.025 285.344 168.857L285.238 168.744L306.353 168.801H312.286H313.856H312.307H306.396L285.182 168.857H285.068V168.744C285.068 159.912 285.068 149.447 285.068 138.253V138.125H285.203H314.365H314.478V138.238C314.478 147.382 314.436 155.012 314.422 160.372C314.422 163.024 314.422 165.117 314.422 166.559C314.422 167.266 314.422 167.804 314.422 168.179C314.422 168.355 314.422 168.497 314.422 168.596C314.422 168.695 314.337 168.879 314.33 168.879Z" fill="#E0E0E0"/>
<path d="M301.99 155.132C301.99 156.596 300.816 157.458 298.511 157.494L293.964 157.55L293.851 149.065L298.143 149.008C300.343 149.008 301.488 149.85 301.502 151.165C301.514 151.555 301.412 151.939 301.208 152.272C301.005 152.605 300.709 152.871 300.357 153.039C300.827 153.15 301.244 153.418 301.541 153.798C301.838 154.179 301.997 154.649 301.99 155.132ZM295.895 150.535V152.53H297.917C298.914 152.53 299.445 152.169 299.437 151.504C299.43 150.84 298.886 150.521 297.896 150.535H295.895ZM299.947 154.955C299.947 154.248 299.367 153.909 298.313 153.923L295.937 153.958V156.079L298.306 156.044C299.395 156.002 299.954 155.683 299.947 154.955Z" fill="#E0E0E0"/>
<path d="M308.68 155.019C308.696 155.359 308.641 155.699 308.518 156.017C308.395 156.335 308.207 156.624 307.966 156.865C307.725 157.106 307.436 157.294 307.118 157.417C306.8 157.54 306.46 157.595 306.12 157.579C305.77 157.598 305.42 157.535 305.099 157.394C304.779 157.252 304.496 157.037 304.274 156.765V157.543H303.383L303.291 150.635H304.218L304.253 153.357C304.468 153.095 304.741 152.885 305.05 152.744C305.359 152.603 305.696 152.535 306.035 152.544C306.375 152.515 306.718 152.558 307.04 152.67C307.363 152.782 307.658 152.96 307.908 153.193C308.157 153.427 308.354 153.71 308.487 154.024C308.62 154.339 308.686 154.677 308.68 155.019ZM307.739 155.019C307.734 154.676 307.627 154.344 307.432 154.062C307.237 153.78 306.964 153.563 306.645 153.437C306.327 153.31 305.979 153.281 305.644 153.353C305.309 153.425 305.003 153.594 304.765 153.84C304.526 154.085 304.366 154.396 304.303 154.733C304.241 155.069 304.28 155.417 304.415 155.731C304.55 156.046 304.776 156.313 305.063 156.5C305.35 156.686 305.686 156.784 306.028 156.78C306.259 156.788 306.49 156.748 306.704 156.662C306.919 156.575 307.113 156.445 307.275 156.279C307.436 156.113 307.561 155.915 307.641 155.698C307.721 155.481 307.754 155.25 307.739 155.019Z" fill="#E0E0E0"/>
<path d="M266.57 54.8243H60.2906V202.149H266.57V54.8243Z" fill="#E0E0E0"/>
<path d="M260.191 60.7078H65.191V196.485H260.191V60.7078Z" fill="#F5F5F5"/>
<path d="M277.905 202.149H53.5728V208.012H277.905V202.149Z" fill="#EBEBEB"/>
<path d="M60.3613 54.9587C62.313 56.6912 64.1727 58.4944 65.9477 60.432L60.3613 54.9587Z" fill="#EBEBEB"/>
<path d="M65.9476 60.432C64.9458 59.6055 64.0009 58.7124 63.1191 57.759C62.1459 56.8794 61.2339 55.9343 60.3895 54.9304C61.4852 55.6531 62.4895 56.5055 63.3807 57.469C64.353 58.3492 65.215 59.3441 65.9476 60.432Z" fill="#EBEBEB"/>
<path d="M260.347 61.139L266.584 55.093L260.347 61.139Z" fill="#EBEBEB"/>
<path d="M266.577 55.093C265.674 56.2279 264.676 57.283 263.593 58.2469C262.597 59.303 261.511 60.2707 260.347 61.139C261.252 60.0063 262.25 58.9513 263.331 57.9852C264.33 56.9314 265.415 55.9639 266.577 55.093Z" fill="#EBEBEB"/>
<path d="M260.693 196.457C262.815 198.373 267.008 202.114 266.57 202.114L260.693 196.457Z" fill="#EBEBEB"/>
<path d="M266.57 202.149C265.636 201.171 264.651 200.241 263.621 199.363C262.565 198.478 261.586 197.506 260.693 196.457C261.836 197.23 262.9 198.113 263.869 199.095C264.71 199.865 265.445 200.594 265.948 201.145C266.151 201.369 266.34 201.605 266.513 201.852C266.561 201.925 266.599 202.003 266.626 202.086C266.648 202.164 266.556 202.171 266.57 202.149Z" fill="#EBEBEB"/>
<path d="M299.699 254.951C303.334 253.077 307.619 252.83 311.65 253.502C313.821 253.862 316.084 254.506 317.561 256.139C319.039 257.773 319.315 260.637 317.618 262.037C316.614 262.871 315.207 262.999 313.898 262.977C310.738 262.942 307.23 262.383 304.706 264.286C303.291 265.375 302.301 267.178 300.583 267.708C299.721 267.909 298.818 267.823 298.009 267.465C297.2 267.106 296.53 266.494 296.1 265.721C295.281 264.135 295.101 262.295 295.598 260.58C295.802 259.39 296.279 258.262 296.99 257.286C297.701 256.31 298.628 255.511 299.699 254.951Z" fill="#0FBD21"/>
<path d="M291.362 238.871C293.589 242.046 297.91 240.993 299.911 239.055C301.912 237.117 302.74 234.31 303.539 231.63C305.3 225.506 307.075 219.085 305.766 212.848C305.448 210.96 304.619 209.194 303.369 207.743C302.734 207.028 301.922 206.492 301.015 206.191C300.107 205.889 299.137 205.832 298.2 206.025C296.022 206.597 294.664 208.733 293.688 210.762C290.806 216.759 289.294 223.322 289.262 229.975C289.262 233.073 289.615 236.34 291.383 238.871" fill="#0FBD21"/>
<path d="M285.259 243.411C287.671 240.582 288.13 236.34 287.055 232.804C285.981 229.268 283.52 226.164 280.755 223.668C277.463 220.739 273.632 218.478 269.476 217.014C267.868 216.365 266.138 216.071 264.406 216.151C263.543 216.203 262.705 216.464 261.966 216.913C261.226 217.361 260.608 217.983 260.163 218.725C258.975 220.995 260.114 223.738 261.344 225.98C263.514 229.929 265.992 233.7 268.755 237.259C270.975 240.123 273.514 242.916 276.901 244.238C280.288 245.561 283.803 245.384 285.592 243.036" fill="#0FBD21"/>
<path d="M291.213 286.78C291.328 286.316 291.395 285.842 291.411 285.365C291.518 284.319 291.645 282.997 291.8 281.427C291.997 279.487 292.292 277.559 292.684 275.649C293.207 273.324 293.916 271.044 294.806 268.833C295.669 266.623 296.84 264.547 298.285 262.666C299.464 261.134 300.969 259.883 302.69 259.003C303.856 258.423 305.107 258.034 306.396 257.851C306.873 257.829 307.347 257.758 307.81 257.639C307.326 257.588 306.838 257.588 306.353 257.639C305.015 257.742 303.705 258.082 302.485 258.643C300.675 259.502 299.085 260.764 297.839 262.334C296.333 264.242 295.118 266.363 294.233 268.627C293.337 270.875 292.639 273.196 292.147 275.564C291.774 277.497 291.516 279.45 291.376 281.413C291.256 283.081 291.206 284.439 291.185 285.372C291.145 285.841 291.154 286.313 291.213 286.78Z" fill="#179B25"/>
<path d="M291.482 283.753C291.524 283.532 291.538 283.306 291.525 283.081C291.525 282.579 291.525 281.943 291.525 281.165C291.525 279.503 291.525 277.099 291.609 274.129C291.758 268.189 292.267 261.797 293.257 252.788C294.19 244.302 295.449 234.444 296.793 228.038C297.076 226.574 297.366 225.266 297.634 224.113C297.903 222.96 298.108 221.992 298.341 221.164L298.794 219.305C298.857 219.091 298.895 218.87 298.907 218.647C298.804 218.847 298.726 219.058 298.674 219.276C298.532 219.757 298.348 220.365 298.122 221.108C297.896 221.85 297.62 222.89 297.33 224.035C297.04 225.181 296.715 226.489 296.404 227.946C294.756 235.53 293.514 243.197 292.684 250.914C291.694 259.944 291.27 268.168 291.213 274.122C291.178 277.099 291.213 279.51 291.312 281.193C291.362 281.971 291.404 282.608 291.433 283.11C291.431 283.325 291.447 283.54 291.482 283.753Z" fill="#179B25"/>
<path d="M291.525 267.892C291.579 267.226 291.579 266.557 291.525 265.891C291.413 264.076 291.208 262.268 290.909 260.474C290.472 257.819 289.885 255.192 289.149 252.604C288.291 249.407 287.187 246.282 285.846 243.255C283.557 237.677 280.272 232.561 276.151 228.158C275.433 227.406 274.67 226.698 273.867 226.037C273.521 225.74 273.21 225.45 272.892 225.216L272.008 224.601C271.477 224.197 270.914 223.838 270.325 223.526C270.233 223.654 272.715 225.117 275.847 228.476C279.83 232.919 283.027 238.008 285.302 243.524C286.614 246.531 287.722 249.624 288.618 252.781C289.375 255.354 290.003 257.965 290.499 260.601C290.909 262.85 291.15 264.696 291.291 265.969C291.32 266.615 291.398 267.258 291.525 267.892Z" fill="#E0E0E0"/>
<path d="M276.194 295.866L277.785 317.639H305.752L307.343 295.866H276.194Z" fill="#C58940"/>
<path d="M310.681 287.289H273.493V295.873H310.681V287.289Z" fill="#C58940"/>
<path d="M273.493 316.812V319.188H275.239H310.066V316.812H273.493Z" fill="#A37339"/>
<path d="M276.951 323.374L275.239 319.188H308.736L306.735 323.374H276.951Z" fill="#C58940"/>
<path d="M306.827 302.987C306.788 303.057 306.743 303.123 306.693 303.185C306.587 303.334 306.445 303.518 306.275 303.737L304.649 305.823L304.578 305.915L304.508 305.823L300.498 300.286H300.732L296.793 305.865L296.665 306.042L296.531 305.872L291.857 300.314H292.126L291.864 300.64L287.685 305.879L287.55 306.056L287.416 305.872L283.492 300.286H283.718C281.773 302.499 280.126 304.373 278.867 305.816L278.775 305.915L278.711 305.802L277.191 303.249L276.802 302.542C276.754 302.466 276.714 302.385 276.682 302.301C276.682 302.301 276.745 302.365 276.844 302.513L277.276 303.171L278.874 305.674H278.718L283.499 300.074L283.619 299.932L283.732 300.081L287.706 305.639H287.437L291.609 300.392L291.864 300.074L291.998 299.904L292.133 300.067L296.8 305.639H296.538L300.512 300.081L300.633 299.918L300.746 300.081L304.663 305.681H304.522L306.219 303.652L306.671 303.129C306.775 303.03 306.827 302.983 306.827 302.987Z" fill="#A37339"/>
<path d="M307.732 295.739C307.732 295.838 300.724 295.916 292.083 295.916C283.442 295.916 276.42 295.824 276.42 295.739C276.42 295.654 283.428 295.562 292.076 295.562C300.725 295.562 307.732 295.626 307.732 295.739Z" fill="#A37339"/>
<path d="M309.146 319.421C309.146 319.52 301.531 319.598 292.133 319.598C282.735 319.598 275.126 319.52 275.126 319.421C275.126 319.322 282.742 319.251 292.133 319.251C301.524 319.251 309.146 319.329 309.146 319.421Z" fill="#A37339"/>
<path d="M43.5738 167.457H3.57104V209.157H43.5738V167.457Z" fill="#E0E0E0"/>
<path d="M40.8655 167.457H0.862671V209.157H40.8655V167.457Z" fill="#FAFAFA"/>
<path d="M40.8796 209.171H0.848572V167.45H40.8796V209.171ZM0.876858 209.171H40.8514V167.471H0.876858V209.171Z" fill="#E0E0E0"/>
<path d="M35.4842 173.065H6.23694V203.557H35.4842V173.065Z" fill="white"/>
<path d="M6.23693 203.755C6.03639 204.063 5.79892 204.345 5.52979 204.596C5.06308 205.091 4.40544 205.756 3.67002 206.484C2.93459 207.213 2.25574 207.849 1.76074 208.309C1.50686 208.574 1.22468 208.811 0.91925 209.016C1.11699 208.708 1.35478 208.427 1.62639 208.181C2.0931 207.686 2.75074 207.015 3.49323 206.293C4.23573 205.572 4.90751 204.914 5.4025 204.455C5.65466 204.192 5.93442 203.957 6.23693 203.755Z" fill="#E0E0E0"/>
<path d="M35.4842 203.684C35.7925 203.884 36.0751 204.122 36.3257 204.391C36.8207 204.858 37.4854 205.515 38.2137 206.251C38.9421 206.986 39.5785 207.665 40.0382 208.16C40.3038 208.414 40.541 208.696 40.7453 209.002C40.4371 208.804 40.1565 208.566 39.9109 208.294C39.4159 207.828 38.7441 207.17 38.0228 206.428C37.3015 205.685 36.6085 205.013 36.1843 204.518C35.9242 204.264 35.6897 203.984 35.4842 203.684Z" fill="#E0E0E0"/>
<path d="M35.4064 173.15C35.6097 172.844 35.8469 172.561 36.1135 172.308C36.5802 171.813 37.2379 171.149 37.9733 170.42C38.7087 169.692 39.3876 169.055 39.8826 168.596C40.1378 168.329 40.4225 168.092 40.7311 167.889C40.5286 168.193 40.2913 168.473 40.024 168.723C39.5573 169.218 38.8996 169.89 38.1642 170.611C37.4288 171.332 36.7499 171.99 36.2479 172.45C35.9929 172.712 35.7108 172.947 35.4064 173.15Z" fill="#E0E0E0"/>
<path d="M6.15918 173.22C5.85297 173.017 5.57069 172.78 5.31768 172.513C4.82976 172.047 4.15798 171.389 3.43669 170.654C2.71541 169.918 2.06485 169.239 1.60521 168.744C1.33353 168.493 1.0958 168.208 0.898071 167.896C1.19942 168.103 1.47899 168.34 1.73249 168.603C2.22042 169.07 2.8922 169.727 3.62055 170.463C4.3489 171.198 4.9924 171.877 5.45204 172.379C5.72027 172.63 5.95764 172.913 6.15918 173.22Z" fill="#E0E0E0"/>
<path d="M35.4064 203.557C35.4064 203.557 35.4064 203.5 35.4064 203.408C35.4064 203.316 35.4064 203.161 35.4064 202.984C35.4064 202.595 35.4064 202.05 35.4064 201.336C35.4064 199.922 35.4064 197.801 35.4064 195.12C35.4064 189.782 35.4064 182.173 35.3498 173.065L35.4629 173.178H6.30056L6.43492 173.051C6.43492 184.245 6.43492 194.71 6.43492 203.543L6.32178 203.429L27.444 203.486H33.3769H34.9467H33.3981H27.4935L6.27935 203.543H6.17328V203.436C6.17328 194.604 6.17328 184.139 6.17328 172.945V172.817H6.30764H35.47H35.5831V172.931C35.5831 182.067 35.5407 189.704 35.5266 195.057C35.5266 197.716 35.5266 199.809 35.5266 201.244C35.5266 201.951 35.5266 202.496 35.5266 202.871C35.5266 203.048 35.5266 203.182 35.5266 203.281C35.5009 203.378 35.4603 203.471 35.4064 203.557Z" fill="#E0E0E0"/>
<path d="M26.2136 188.367C26.2136 189.297 25.9378 190.207 25.4211 190.98C24.9044 191.753 24.1699 192.356 23.3107 192.712C22.4514 193.068 21.5059 193.161 20.5937 192.979C19.6815 192.798 18.8436 192.35 18.186 191.693C17.5283 191.035 17.0805 190.197 16.899 189.285C16.7176 188.373 16.8107 187.427 17.1666 186.568C17.5225 185.709 18.1253 184.974 18.8986 184.457C19.6719 183.941 20.5811 183.665 21.5111 183.665C22.1289 183.664 22.7408 183.785 23.3118 184.021C23.8827 184.257 24.4015 184.603 24.8383 185.04C25.2752 185.477 25.6215 185.996 25.8575 186.567C26.0935 187.138 26.2145 187.75 26.2136 188.367Z" fill="#E0E0E0"/>
<path d="M15.6489 118.629C15.6489 118.629 15.6489 118.516 15.7055 118.297C15.7621 118.078 15.8257 117.753 15.9106 117.342C16.0944 116.487 16.3702 115.256 16.7167 113.679C17.4238 110.476 18.4845 105.901 19.7715 100.187L30.0038 55.6022L30.1877 54.8173L30.3362 55.6022L30.5625 56.5922C34.5436 74.2706 38.15 90.2873 40.7594 101.891C42.0464 107.683 43.0859 112.371 43.8072 115.631C44.1607 117.243 44.4294 118.46 44.6204 119.365C44.7052 119.782 44.7759 120.072 44.8254 120.341C44.8749 120.609 44.882 120.68 44.882 120.68C44.882 120.68 44.8396 120.567 44.783 120.348L44.5496 119.386C44.3446 118.516 44.0476 117.265 43.6728 115.659C42.9162 112.407 41.8413 107.725 40.5048 101.948C37.8672 90.3509 34.2254 74.3696 30.2018 56.6912L29.9755 55.7012H30.3362L19.9978 100.251L16.8298 113.686C16.4551 115.263 16.1581 116.515 15.953 117.342C15.854 117.745 15.7691 118.05 15.7126 118.29C15.656 118.53 15.6489 118.629 15.6489 118.629Z" fill="#263238"/>
<path d="M15.6418 131.874V120.68H45.5043V131.874C45.5043 133.586 45.1667 135.282 44.5107 136.864C43.8548 138.445 42.8935 139.882 41.6817 141.092C40.4699 142.302 39.0315 143.261 37.4487 143.914C35.866 144.567 34.1699 144.902 32.4576 144.9H28.6744C25.2192 144.9 21.9054 143.527 19.4615 141.085C17.0176 138.642 15.6437 135.329 15.6418 131.874Z" fill="#C58940"/>
<path d="M15.6418 120.68C15.769 120.825 15.8827 120.981 15.9813 121.147L16.8935 122.561L20.1817 127.695L30.9231 144.709L31.0009 144.829H30.6897C34.7487 138.153 38.4258 132.1 41.1059 127.723L44.2951 122.561L45.179 121.147C45.2767 120.984 45.3854 120.828 45.5043 120.68C45.4335 120.858 45.3458 121.028 45.2426 121.189L44.4153 122.603C43.6657 123.862 42.6192 125.637 41.3251 127.822C38.6663 132.235 35.0316 138.288 31.0009 144.984L30.8453 145.239L30.6897 144.984L30.612 144.864L19.9625 127.808L16.7733 122.611L15.9176 121.196C15.8144 121.03 15.7223 120.858 15.6418 120.68Z" fill="#A37339"/>
<path d="M33.5395 55.5032C33.5395 56.1479 33.3483 56.7782 32.9901 57.3143C32.6319 57.8504 32.1228 58.2682 31.5271 58.515C30.9315 58.7617 30.276 58.8262 29.6436 58.7005C29.0113 58.5747 28.4304 58.2642 27.9745 57.8083C27.5186 57.3524 27.2081 56.7715 27.0824 56.1392C26.9566 55.5068 27.0211 54.8514 27.2679 54.2557C27.5146 53.66 27.9324 53.1509 28.4685 52.7927C29.0046 52.4345 29.6349 52.2433 30.2796 52.2433C30.708 52.2424 31.1323 52.326 31.5282 52.4895C31.9242 52.653 32.2839 52.8931 32.5868 53.196C32.8897 53.4989 33.1298 53.8587 33.2933 54.2546C33.4568 54.6505 33.5405 55.0748 33.5395 55.5032Z" fill="#263238"/>
<path d="M30.2796 0C30.3786 0 30.4635 12.5658 30.4635 28.0592C30.4635 43.5526 30.3786 56.1185 30.2796 56.1185C30.1806 56.1185 30.0958 43.5526 30.0958 28.0592C30.0958 12.5658 30.1735 0 30.2796 0Z" fill="#263238"/>
<path d="M31.9697 146.116C31.9697 146.396 31.8867 146.669 31.7313 146.902C31.5759 147.134 31.355 147.315 31.0966 147.422C30.8382 147.529 30.5538 147.557 30.2795 147.503C30.0051 147.448 29.7531 147.314 29.5553 147.116C29.3576 146.918 29.2229 146.666 29.1683 146.392C29.1137 146.117 29.1417 145.833 29.2488 145.575C29.3558 145.316 29.5371 145.095 29.7697 144.94C30.0022 144.784 30.2757 144.702 30.5554 144.702C30.9305 144.702 31.2902 144.851 31.5554 145.116C31.8207 145.381 31.9697 145.741 31.9697 146.116Z" fill="#A37339"/>
<path d="M29.9543 146.639L30.1806 146.526C29.7843 146.778 29.4509 147.118 29.2057 147.518C28.9606 147.919 28.8103 148.371 28.7663 148.838C28.6849 149.771 28.7639 150.711 28.9997 151.617C29.0633 151.907 29.2189 152.268 29.5159 152.254C29.8129 152.24 29.9119 151.921 29.9543 151.653C30.0462 151.099 30.0605 150.535 29.9968 149.977C29.9627 150.694 30.1944 151.399 30.6473 151.957C30.7322 152.063 30.8595 152.176 30.9938 152.141C31.1282 152.105 31.1706 151.957 31.206 151.829C31.3317 151.368 31.4029 150.893 31.4181 150.415C31.4499 150.839 31.6048 151.245 31.8636 151.582C31.9301 151.662 32.0122 151.728 32.1051 151.775C32.1979 151.823 32.2994 151.851 32.4034 151.857C32.5074 151.864 32.6117 151.849 32.7098 151.814C32.8079 151.779 32.8977 151.724 32.9738 151.653C33.0466 151.532 33.0947 151.398 33.1153 151.258C33.136 151.119 33.1287 150.976 33.094 150.839C32.8584 149.167 32.1852 147.586 31.1423 146.257" fill="#A37339"/>
<path d="M17.5229 120.68C17.5229 120.68 4.08724 105.208 5.59344 104.649C7.09965 104.091 19.022 112.661 19.022 112.661C19.022 112.661 8.76849 89.7428 10.8192 88.0669C12.8699 86.391 23.675 108.348 23.675 108.348C23.675 108.348 21.992 76.3001 23.675 75.9253C25.3579 75.5506 31.4959 107.98 31.4959 107.98C31.4959 107.98 40.6321 78.3508 43.2344 78.3508C45.8367 78.3508 40.4412 106.863 40.4412 106.863C40.4412 106.863 51.2533 88.6255 52.9646 91.051C54.6759 93.4765 45.2851 113.227 45.2851 113.227C45.2851 113.227 58.8904 101.856 59.4278 103.327C59.9653 104.798 44.7052 120.659 44.7052 120.659L17.5229 120.68Z" fill="#0FBD21"/>
<path d="M15.649 97.387C15.7409 97.3446 18.1239 102.443 20.9666 108.779C23.8093 115.115 26.0368 120.284 25.9166 120.327C25.7964 120.369 23.4416 115.263 20.5989 108.927C17.7562 102.592 15.557 97.4294 15.649 97.387Z" fill="#168321"/>
<path d="M26.4894 100.237C26.5884 100.237 26.9844 104.727 27.3733 110.278C27.7622 115.829 27.9885 120.341 27.8895 120.348C27.7905 120.355 27.3945 115.857 27.0056 110.306C26.6167 104.755 26.3904 100.244 26.4894 100.237Z" fill="#168321"/>
<path d="M41.4382 85.8818C41.4299 86.0052 41.4037 86.1267 41.3604 86.2425C41.285 86.5159 41.186 86.8553 41.0634 87.2608C40.7877 88.1942 40.4058 89.46 39.9462 90.9945C38.9986 94.1483 37.7258 98.5184 36.4105 103.369C35.0952 108.22 34.0416 112.64 33.292 115.843C32.9243 117.406 32.6273 118.672 32.4081 119.641C32.302 120.051 32.2242 120.39 32.1535 120.673C32.1307 120.795 32.0927 120.914 32.0404 121.027C32.0353 120.9 32.0496 120.774 32.0828 120.652C32.1323 120.376 32.1889 120.03 32.2667 119.612C32.4293 118.707 32.698 117.399 33.0374 115.787C33.7446 112.562 34.7558 108.128 36.0498 103.27C37.3439 98.4123 38.6662 94.0776 39.6704 90.9167C40.1795 89.3539 40.6038 88.0881 40.9079 87.2183C41.0564 86.8153 41.1695 86.5112 41.2685 86.2213C41.307 86.0999 41.3642 85.9854 41.4382 85.8818Z" fill="#168321"/>
<path d="M47.9014 102.401C47.9863 102.457 45.3699 106.368 42.0534 111.12C38.7369 115.871 35.9933 119.662 35.9013 119.662C35.8094 119.662 38.4399 115.702 41.7564 110.943C45.0729 106.184 47.8237 102.344 47.9014 102.401Z" fill="#168321"/>
<path d="M22.0485 120.369C21.6205 120.146 21.2255 119.866 20.8747 119.535C19.9791 118.787 19.1246 117.991 18.3149 117.151C17.504 116.324 16.7392 115.453 16.0237 114.542C15.6981 114.185 15.4265 113.783 15.2176 113.347C15.3024 113.283 16.6955 114.966 18.5836 116.883C20.4716 118.799 22.1193 120.263 22.0485 120.369Z" fill="#168321"/>
<path d="M30.2018 114.203C30.4769 115.245 30.6358 116.315 30.6756 117.392C30.8375 118.459 30.8731 119.541 30.7816 120.616C30.505 119.574 30.3461 118.505 30.3079 117.427C30.1461 116.36 30.1105 115.278 30.2018 114.203Z" fill="#168321"/>
<path d="M45.5043 127.652C45.1275 127.765 44.7419 127.845 44.3517 127.893C43.6445 128.02 42.5202 128.19 41.1766 128.381C37.6778 128.87 34.1564 129.181 30.6261 129.314C27.0844 129.449 23.5376 129.302 20.019 128.876C18.6755 128.699 17.5936 128.522 16.8511 128.367C16.462 128.308 16.0788 128.215 15.7055 128.091C16.0974 128.105 16.4875 128.149 16.8723 128.225C17.6218 128.338 18.7108 128.473 20.0544 128.614C23.5572 128.965 27.0799 129.076 30.5978 128.946C34.7204 128.805 38.4471 128.423 41.1342 128.119L44.3163 127.751C44.7083 127.681 45.1061 127.648 45.5043 127.652Z" fill="#A37339"/>
<path d="M45.5043 130.976C45.1286 131.093 44.7427 131.173 44.3517 131.216C43.6445 131.351 42.5202 131.521 41.1766 131.704C38.4966 132.072 34.7629 132.496 30.6261 132.645C27.0842 132.774 23.5376 132.625 20.019 132.199C18.6755 132.023 17.5936 131.846 16.8511 131.69C16.462 131.631 16.0788 131.539 15.7055 131.414C16.097 131.433 16.4868 131.478 16.8723 131.549C17.6218 131.662 18.7108 131.803 20.0544 131.938C23.5572 132.289 27.0799 132.4 30.5978 132.27C34.7204 132.129 38.4471 131.747 41.1342 131.443L44.3163 131.075C44.7095 131.014 45.1064 130.981 45.5043 130.976Z" fill="#A37339"/>
<path d="M154.601 212.672C154.184 214.086 152.31 275.607 163.716 324.194L220.478 324.322C221.235 291.129 233.914 239.515 215.564 210.968L154.601 212.672Z" fill="#263238"/>
<path d="M211.901 95.2374C213.775 102.054 216.61 107.513 219.375 110.257C222.14 113.001 225.096 116.211 224.997 120.1C224.955 121.628 224.446 123.247 225.117 124.626C225.98 126.408 228.292 126.797 230.025 127.773C231.282 128.55 232.306 129.652 232.989 130.963C233.672 132.273 233.989 133.743 233.907 135.219C233.699 138.175 232.398 140.948 230.258 142.998C228.137 145.161 224.7 146.675 222.027 145.197C220.415 144.306 219.496 142.566 218.682 140.911C214.473 132.346 210.663 123.601 207.255 114.677" fill="#263238"/>
<path d="M194.675 66.0538C192.288 63.4032 189.151 61.5424 185.68 60.7191C182.209 59.8958 178.57 60.1491 175.247 61.4451C171.924 62.7412 169.075 65.0186 167.078 67.9743C165.081 70.9299 164.032 74.4236 164.07 77.9903C164.12 82.5513 165.902 87.3386 164.07 91.5249C162.797 94.4949 159.827 96.7365 159.438 99.9398C158.965 103.652 162.147 107.011 161.977 110.766C161.871 113.213 160.336 115.37 158.576 117.067C156.815 118.764 154.764 120.157 153.145 122.017C148.654 127.122 148.372 135.184 151.731 141.067C155.089 146.95 161.68 150.656 168.426 151.455C175.172 152.254 182.06 150.394 188.035 147.148C191.924 145.027 195.58 142.255 197.892 138.479C200.205 134.703 201.004 129.809 199.172 125.75" fill="#263238"/>
<path d="M173.263 63.303C174.271 63.2841 175.28 63.3314 176.282 63.4445C178.683 63.8822 181.038 64.5403 183.318 65.4103C185.634 66.2824 188.092 66.7164 190.566 66.6902C191.315 66.6542 192.056 66.5259 192.773 66.3084C193.039 66.2358 193.295 66.1313 193.536 65.9972C192.562 66.2469 191.564 66.3985 190.559 66.4498C188.12 66.4065 185.707 65.9449 183.424 65.085C181.127 64.2073 178.742 63.5768 176.311 63.204C175.565 63.1353 174.815 63.1353 174.069 63.204C173.797 63.199 173.526 63.2323 173.263 63.303Z" fill="#455A64"/>
<path d="M230.385 147.537C230.328 146.663 230.212 145.794 230.039 144.935C229.293 141.436 227.707 138.171 225.416 135.422C223.126 132.673 220.201 130.524 216.893 129.159L199.816 121.953L180.299 122.455C180.299 122.455 165.795 129.081 162.875 132.532C162.656 132.786 160.711 134.71 160.584 135.459L145.897 179.062L127.122 190.765L132.27 197.327L159.947 194.703L163.299 189.251C161.468 193.36 154.163 210.027 154.163 215.133C154.163 215.133 196.881 224.276 213.888 222.565C221.369 221.808 223.144 221.108 223.144 221.108L218.152 202.397C222.289 202.114 226.517 199.569 228.215 196.033C231.163 189.902 230.916 155.768 230.385 147.537Z" fill="#0D6C61"/>
<path d="M97.0475 154.036H94.1058L98.1365 192.087L132.928 189.697L129.003 156.935L97.0475 154.036Z" fill="#E0E0E0"/>
<path d="M97.0475 152.155L100.124 190.75L168.815 188.537L160.351 152.155L129.47 155.139L97.0475 152.155Z" fill="#FAFAFA"/>
<path d="M97.0475 152.19L97.5991 152.233L99.2609 152.374L105.696 152.926L129.484 155.047L160.365 152.035H160.513V152.176C163.122 163.349 165.986 175.646 168.999 188.558L169.048 188.778H168.822L165.583 188.877L100.138 190.941H99.9963V190.8C99.0841 178.948 98.3416 169.289 97.8183 162.578C97.5708 159.247 97.3728 156.652 97.2455 154.87C97.1795 154.003 97.1301 153.338 97.0971 152.876C97.0971 152.424 97.0971 152.169 97.0971 152.169C97.0971 152.169 97.097 152.417 97.1607 152.876C97.2243 153.336 97.2668 154.022 97.3375 154.899C97.493 156.688 97.7123 159.29 97.9951 162.635C98.5467 169.324 99.3387 178.948 100.315 190.75L100.166 190.623L165.612 188.502L168.857 188.403L168.681 188.622C165.682 175.717 162.833 163.42 160.237 152.24L160.414 152.367L129.533 155.309L105.851 153.06L99.3952 152.438L97.7052 152.268L97.0475 152.19Z" fill="#263238"/>
<path d="M135.07 189.159C135.018 189.054 134.98 188.942 134.957 188.827C134.894 188.565 134.809 188.247 134.717 187.865C134.512 187.024 134.236 185.808 133.911 184.33C133.253 181.31 132.433 177.131 131.655 172.485C130.877 167.839 130.304 163.618 129.944 160.556C129.767 159.021 129.632 157.784 129.555 156.921C129.519 156.525 129.491 156.214 129.47 155.931C129.451 155.816 129.451 155.699 129.47 155.585C129.506 155.695 129.532 155.809 129.548 155.924C129.548 156.193 129.632 156.511 129.696 156.907C129.823 157.812 129.993 159.028 130.205 160.52C130.63 163.575 131.252 167.79 132.023 172.429C132.793 177.067 133.578 181.254 134.144 184.28C134.427 185.751 134.66 186.96 134.851 187.858C134.922 188.254 134.986 188.565 135.028 188.841C135.054 188.945 135.069 189.052 135.07 189.159Z" fill="#263238"/>
<path d="M125.559 198.366L119.195 193.699L119.542 183.092C120.254 183.247 120.902 183.618 121.396 184.154C121.889 184.691 122.205 185.367 122.299 186.091C122.561 188.58 122.78 190.941 122.78 190.941L124.782 191.543L124.506 190.164L129.371 183.234C129.371 183.234 131.216 184.598 130.446 186.395C131.33 185.532 132.73 186.246 132.567 187.045L132.907 185.157C132.907 185.157 135.12 184.499 135.028 186.741C135.025 187.638 134.937 188.533 134.766 189.414H142.495C142.495 189.414 140.261 193.19 138.96 194.216C137.658 195.241 125.927 198.423 125.927 198.423" fill="#FFBE9D"/>
<path d="M126.146 196.33C125.069 194.48 124.505 192.375 124.513 190.234C124.626 190.234 124.831 191.649 125.284 193.296C125.736 194.944 126.245 196.28 126.146 196.33Z" fill="#FFBE9D"/>
<path d="M128.72 194.689C128.346 193.318 128.088 191.918 127.949 190.503V190.439V190.383L128.07 190.178C128.757 188.845 129.551 187.57 130.446 186.366C129.867 187.75 129.179 189.086 128.388 190.362L128.268 190.567V190.453C128.535 191.85 128.687 193.267 128.72 194.689Z" fill="#FFBE9D"/>
<path d="M131.874 193.466C131.674 192.642 131.572 191.797 131.57 190.948V190.906C131.662 190.503 131.747 190.086 131.846 189.654C132.064 188.401 132.403 187.172 132.857 185.984C132.757 187.254 132.537 188.511 132.199 189.739L131.909 190.977V190.934C131.991 191.777 131.979 192.626 131.874 193.466Z" fill="#FFBE9D"/>
<path d="M203.33 71.8877V75.3597L204.037 127.292C204.122 133.317 199.01 138.196 192.554 138.238C186.034 138.281 180.596 133.38 180.412 127.292C180.214 120.928 179.896 114.175 179.896 114.175C179.896 114.175 171.622 113.036 169.621 102.344C168.624 97.0264 168.652 88.2579 168.914 81.0875C168.961 79.5509 169.321 78.04 169.972 76.6471C170.623 75.2541 171.55 74.0085 172.698 72.986C173.847 71.9636 175.191 71.1859 176.65 70.7004C178.109 70.2149 179.651 70.0318 181.183 70.1623L203.33 71.8877Z" fill="#FFBE9D"/>
<path d="M172.987 88.8378C173.001 89.1946 173.15 89.5329 173.403 89.7847C173.656 90.0366 173.995 90.1833 174.352 90.1955C174.53 90.209 174.709 90.1862 174.877 90.1283C175.046 90.0705 175.201 89.979 175.334 89.8592C175.466 89.7395 175.573 89.5941 175.647 89.4319C175.721 89.2696 175.762 89.094 175.766 88.9156C175.752 88.5588 175.604 88.2206 175.35 87.9687C175.097 87.7169 174.758 87.5701 174.401 87.5579C174.223 87.5434 174.044 87.5655 173.875 87.623C173.705 87.6804 173.55 87.7719 173.417 87.8918C173.285 88.0118 173.178 88.1576 173.104 88.3203C173.03 88.483 172.99 88.6591 172.987 88.8378Z" fill="#263238"/>
<path d="M170.986 85.5921C171.163 85.7618 172.188 84.9627 173.666 84.9274C175.144 84.892 176.254 85.6345 176.41 85.4153C176.565 85.1961 176.304 85.0122 175.823 84.7081C175.169 84.2796 174.398 84.0646 173.616 84.0929C172.847 84.1142 172.104 84.3791 171.495 84.8496C171.057 85.1819 170.901 85.5072 170.986 85.5921Z" fill="#263238"/>
<path d="M187.604 88.8378C187.618 89.1946 187.766 89.5328 188.019 89.7846C188.273 90.0365 188.612 90.1832 188.968 90.1955C189.146 90.2089 189.325 90.1861 189.494 90.1283C189.663 90.0704 189.818 89.9789 189.95 89.8592C190.083 89.7394 190.189 89.594 190.264 89.4318C190.338 89.2696 190.378 89.0939 190.383 88.9155C190.369 88.5587 190.22 88.2205 189.967 87.9686C189.714 87.7168 189.375 87.5701 189.018 87.5578C188.84 87.5444 188.661 87.5672 188.492 87.625C188.324 87.6828 188.168 87.7744 188.036 87.8941C187.904 88.0139 187.797 88.1593 187.723 88.3215C187.648 88.4837 187.608 88.6594 187.604 88.8378Z" fill="#263238"/>
<path d="M185.567 85.4648C185.744 85.6416 186.769 84.8354 188.247 84.8001C189.725 84.7647 190.835 85.5072 190.991 85.288C191.146 85.0688 190.892 84.8849 190.404 84.5808C189.749 84.1548 188.978 83.9423 188.198 83.9727C187.429 83.9919 186.686 84.2543 186.076 84.7223C185.631 85.0546 185.482 85.387 185.567 85.4648Z" fill="#263238"/>
<path d="M180.49 96.6093C179.702 96.3849 178.89 96.2613 178.071 96.2416C177.69 96.2416 177.329 96.1426 177.258 95.888C177.214 95.4973 177.291 95.1026 177.477 94.7566L178.524 91.8432C179.938 87.6993 180.992 84.2909 180.829 84.2344C180.667 84.1778 179.358 87.4943 177.916 91.6381L176.919 94.5727C176.696 95.0373 176.642 95.5644 176.763 96.0648C176.823 96.1961 176.912 96.3121 177.024 96.4039C177.135 96.4958 177.266 96.5612 177.407 96.5951C177.617 96.6495 177.833 96.6756 178.05 96.6729C178.863 96.7485 179.682 96.7271 180.49 96.6093Z" fill="#263238"/>
<path d="M179.952 114.175C185.012 114.109 189.955 112.64 194.23 109.932C194.23 109.932 190.941 117.406 180.165 116.699L179.952 114.175Z" fill="#FFBE9D"/>
<path d="M181.218 100.159C181.49 99.7975 181.85 99.5111 182.263 99.3267C182.676 99.1424 183.129 99.0663 183.58 99.1055C183.908 99.1238 184.23 99.2092 184.524 99.3563C184.818 99.5035 185.079 99.7093 185.291 99.9611C185.496 100.202 185.622 100.5 185.652 100.815C185.683 101.13 185.616 101.446 185.461 101.722C185.23 101.994 184.923 102.192 184.579 102.289C184.235 102.386 183.87 102.378 183.53 102.266C182.822 102.04 182.166 101.674 181.6 101.192C181.433 101.076 181.287 100.933 181.169 100.767C181.113 100.685 181.084 100.587 181.084 100.488C181.084 100.388 181.113 100.291 181.169 100.209" fill="#FFBE9D"/>
<path d="M184.881 97.5144C184.641 97.5144 184.683 99.1125 183.332 100.293C181.982 101.474 180.27 101.347 180.263 101.566C180.263 101.672 180.652 101.87 181.381 101.87C182.324 101.856 183.233 101.511 183.948 100.895C184.631 100.303 185.057 99.4684 185.136 98.5681C185.199 97.8892 184.994 97.5003 184.881 97.5144Z" fill="#263238"/>
<path d="M185.023 79.6663C185.178 80.0623 186.656 79.8289 188.403 79.9915C190.149 80.1542 191.564 80.5926 191.79 80.2249C191.882 80.0481 191.627 79.6733 191.083 79.2986C190.312 78.8418 189.447 78.5662 188.554 78.4927C187.661 78.4192 186.763 78.5497 185.928 78.8743C185.27 79.1501 184.959 79.4753 185.023 79.6663Z" fill="#263238"/>
<path d="M171.41 81.2856C171.686 81.6108 172.697 81.2361 173.921 81.1866C175.144 81.1371 176.198 81.3492 176.424 80.9886C176.53 80.8189 176.353 80.4794 175.893 80.1754C175.275 79.8015 174.556 79.6286 173.836 79.6804C173.116 79.7034 172.421 79.9506 171.849 80.3875C171.424 80.7694 171.297 81.1229 171.41 81.2856Z" fill="#263238"/>
<path d="M189.824 68.4864C186.953 72.305 189.937 77.6792 193.247 81.1583C196.556 84.6375 200.587 88.6045 199.682 93.2928C198.635 98.7307 191.196 102.21 192.306 107.634C192.709 109.614 194.272 111.304 194.279 113.291C194.279 116.94 189.569 118.707 188.212 122.095C186.352 126.733 191.472 131.358 191.549 136.358C191.592 139.186 189.98 141.845 189.895 144.681C189.718 150.493 196.598 154.75 202.234 153.322C207.87 151.893 211.731 146.392 212.962 140.706C214.192 135.021 212.325 127.03 211.413 121.288L221.178 123.551C223.003 121.819 220.514 119.973 220.104 117.491C219.078 111.275 214.991 106.014 213.032 100.018C211.328 94.7778 211.321 89.1702 210.578 83.7111C209.836 78.252 208.139 72.5666 203.974 68.9673C199.809 65.368 192.596 64.9225 189.223 69.2784" fill="#263238"/>
<path d="M196.153 168.051L193.183 164.014L197.221 155.019L198.635 133.953C198.635 133.953 195.707 133.182 195.41 136.492C195.234 138.436 195.078 140.176 195.078 140.176L191.755 139.108L187.024 140.523C187.024 140.523 187.236 142.927 189.145 142.453C190.27 142.169 191.43 142.049 192.589 142.099L194.399 144.758V145.713L191.995 143.995H187.243L184.301 146.533C184.301 146.533 185.298 148.888 186.84 148.174C186.84 148.174 184.273 155.118 184.011 156.426C184.011 156.426 181.395 163.193 184.011 167.111C185.8 169.695 187.857 172.082 190.149 174.232L196.153 168.051Z" fill="#FFBE9D"/>
<path d="M197.341 147.474C197.507 147.149 197.576 146.783 197.539 146.42C197.28 145.557 196.934 144.723 196.506 143.931C195.924 142.768 195.451 141.554 195.092 140.303C195.789 141.404 196.384 142.566 196.867 143.775C197.079 144.256 197.284 144.716 197.475 145.19C197.67 145.576 197.787 145.996 197.822 146.427C197.84 146.726 197.764 147.023 197.603 147.276C197.461 147.431 197.355 147.488 197.341 147.474Z" fill="#FFBE9D"/>
<path d="M196.103 146.929C195.318 146.597 194.585 146.155 193.925 145.614C192.78 144.801 191.91 144.044 191.995 143.945C192.744 144.334 193.454 144.793 194.116 145.317C194.852 145.757 195.521 146.3 196.103 146.929Z" fill="#FFBE9D"/>
<path d="M193.975 150.903C193.568 150.602 193.228 150.219 192.978 149.779C192.671 149.335 192.411 148.861 192.2 148.365C192.073 148.069 191.962 147.767 191.868 147.46C191.856 147.399 191.832 147.342 191.797 147.292C191.761 147.242 191.716 147.2 191.663 147.17C191.519 147.12 191.369 147.089 191.217 147.078C190.248 146.95 189.329 146.788 188.594 146.717H188.643C188.378 146.869 188.139 147.062 187.936 147.29C187.731 147.502 187.554 147.686 187.398 147.827C187.087 148.124 186.847 148.237 186.833 148.202C186.819 148.167 187.003 148.032 187.264 147.707L187.752 147.12C187.964 146.832 188.234 146.591 188.544 146.413H188.594C189.393 146.455 190.284 146.597 191.259 146.724C191.451 146.737 191.64 146.78 191.818 146.851C191.913 146.904 191.996 146.975 192.062 147.06C192.129 147.145 192.178 147.242 192.207 147.346C192.306 147.679 192.391 147.962 192.504 148.244C192.701 148.734 192.937 149.207 193.211 149.659C193.685 150.422 194.017 150.861 193.975 150.903Z" fill="#FFBE9D"/>
<path d="M189.555 151.483C189.529 150.698 189.625 149.913 189.838 149.157C189.93 148.374 190.15 147.612 190.489 146.901C190.514 147.687 190.416 148.472 190.199 149.227C190.106 150.009 189.889 150.77 189.555 151.483Z" fill="#FFBE9D"/>
<path d="M193.133 155.457C193.178 155.218 193.146 154.97 193.041 154.75C192.909 154.518 192.706 154.335 192.462 154.227C192.132 154.109 191.773 154.109 191.443 154.227C191.026 154.377 190.633 154.586 190.277 154.849C189.847 155.161 189.37 155.4 188.862 155.556C188.549 155.647 188.215 155.642 187.904 155.542C187.593 155.443 187.319 155.253 187.116 154.998C187.019 154.846 186.957 154.674 186.935 154.496C186.913 154.317 186.931 154.136 186.988 153.965C187.103 153.645 187.278 153.349 187.505 153.095C188.296 152.176 189.191 151.35 190.171 150.635C190.614 150.303 191.135 150.091 191.684 150.019C192.178 149.978 192.672 150.091 193.098 150.345C193.673 150.7 194.157 151.184 194.512 151.759C194.666 151.95 194.788 152.165 194.873 152.395C194.696 152.229 194.537 152.044 194.399 151.844C194.018 151.329 193.537 150.896 192.985 150.571C192.606 150.368 192.175 150.282 191.747 150.323C191.255 150.403 190.791 150.605 190.397 150.91C189.457 151.627 188.594 152.44 187.823 153.336C187.42 153.788 187.158 154.375 187.448 154.8C187.612 154.995 187.828 155.139 188.071 155.215C188.314 155.292 188.574 155.297 188.82 155.231C189.817 154.962 190.552 154.149 191.429 153.951C191.818 153.83 192.238 153.855 192.61 154.022C192.884 154.162 193.101 154.391 193.225 154.672C193.36 155.21 193.133 155.478 193.133 155.457Z" fill="#FFBE9D"/>
<path d="M224.092 199.47C223.9 199.725 223.685 199.962 223.448 200.177C222.785 200.785 222.022 201.275 221.193 201.626C219.876 202.19 218.46 202.481 217.028 202.482C215.133 202.48 213.261 202.078 211.533 201.301C209.454 200.355 207.509 199.137 205.749 197.681C203.832 196.139 201.838 194.449 199.788 192.61C197.628 190.692 195.623 188.607 193.791 186.373C191.865 183.944 190.129 181.37 188.601 178.673C188.268 178.086 187.943 177.499 187.611 176.926L187.547 176.806L187.646 176.707L198.494 165.52L198.586 165.421L198.706 165.492C205.777 169.876 211.745 173.786 215.974 176.481L220.924 179.634L222.232 180.476L222.572 180.695L222.678 180.78C222.678 180.78 222.635 180.78 222.55 180.723L222.204 180.525L220.867 179.726C219.701 179.019 218.039 177.987 215.875 176.657C211.632 174.006 205.65 170.145 198.536 165.782H198.748L187.936 176.94V176.721C188.261 177.301 188.594 177.881 188.919 178.468C190.447 181.152 192.18 183.715 194.102 186.133C195.917 188.357 197.906 190.433 200.049 192.342C204.158 195.962 207.828 199.413 211.668 201.046C213.358 201.826 215.194 202.24 217.056 202.263C218.463 202.275 219.859 202.011 221.164 201.485C221.988 201.151 222.753 200.685 223.427 200.106C223.887 199.703 224.092 199.455 224.092 199.47Z" fill="#263238"/>
<path d="M212.452 154.637C212.475 154.889 212.475 155.142 212.452 155.394C212.452 155.959 212.417 156.645 212.396 157.444C212.332 159.276 212.247 161.623 212.155 164.226C212.063 166.828 211.95 169.268 211.851 171L211.724 173.051C211.722 173.304 211.689 173.556 211.625 173.8C211.575 173.551 211.561 173.297 211.583 173.044C211.583 172.556 211.583 171.856 211.583 170.986C211.583 169.253 211.682 166.856 211.781 164.212C211.88 161.567 212.007 159.17 212.127 157.437C212.137 156.495 212.246 155.556 212.452 154.637Z" fill="#263238"/>
<path d="M221.405 136.025C221.405 136.089 220.641 136.35 219.503 137.022C218.837 137.413 218.208 137.863 217.622 138.366C216.189 139.602 215.034 141.127 214.234 142.842C213.907 143.54 213.645 144.267 213.45 145.013C213.11 146.293 213.075 147.134 213.004 147.134C212.968 146.943 212.968 146.746 213.004 146.554C213.026 146.023 213.097 145.496 213.216 144.978C213.375 144.204 213.612 143.448 213.923 142.722C214.71 140.942 215.902 139.371 217.402 138.132C218.013 137.627 218.674 137.186 219.375 136.817C219.843 136.563 220.333 136.352 220.839 136.188C221.018 136.105 221.209 136.05 221.405 136.025Z" fill="#263238"/>
<path d="M166.213 175.427C166.013 175.069 165.843 174.695 165.704 174.31C165.4 173.602 164.961 172.521 164.48 171.191C163.533 168.546 162.239 164.763 162.224 160.393C162.224 159.334 162.312 158.277 162.486 157.232C162.672 156.264 162.908 155.305 163.193 154.361C163.717 152.565 164.212 150.967 164.48 149.588C164.712 148.504 164.8 147.393 164.742 146.286C164.699 145.508 164.593 145.077 164.636 145.069C164.677 145.167 164.708 145.269 164.728 145.374C164.803 145.671 164.855 145.973 164.883 146.279C164.996 147.397 164.948 148.526 164.742 149.631C164.501 151.045 164.035 152.657 163.519 154.453C163.278 155.351 163.031 156.299 162.861 157.282C162.695 158.308 162.612 159.346 162.613 160.386C162.613 164.678 163.865 168.44 164.735 171.099C165.18 172.436 165.583 173.511 165.845 174.253C165.999 174.634 166.122 175.026 166.213 175.427Z" fill="#263238"/>
<path d="M200.834 204.158C200.736 204.221 200.629 204.269 200.516 204.299L199.597 204.639C198.798 204.929 197.617 205.296 196.146 205.699C194.675 206.102 192.9 206.506 190.913 206.866C188.926 207.227 186.727 207.488 184.4 207.651C182.074 207.814 179.853 207.807 177.838 207.736C175.823 207.665 174.012 207.481 172.499 207.269C170.986 207.057 169.77 206.859 168.963 206.675L168.009 206.463C167.894 206.444 167.783 206.411 167.676 206.364C167.791 206.345 167.908 206.345 168.023 206.364L168.992 206.513C169.833 206.654 171.049 206.824 172.527 206.986C174.005 207.149 175.844 207.298 177.852 207.375C179.86 207.453 182.095 207.411 184.379 207.262C186.663 207.114 188.876 206.824 190.856 206.506C192.836 206.187 194.611 205.798 196.082 205.424C197.553 205.049 198.741 204.716 199.554 204.476L200.495 204.207C200.605 204.175 200.719 204.158 200.834 204.158Z" fill="#263238"/>
<path d="M163.717 188.311C163.664 188.683 163.564 189.046 163.42 189.393C163.186 190.1 162.818 191.055 162.366 192.257C161.447 194.668 160.153 197.977 158.788 201.662C157.423 205.346 156.249 208.733 155.457 211.151L154.531 214.058C154.439 214.421 154.316 214.776 154.163 215.118C154.209 214.747 154.287 214.38 154.396 214.022C154.559 213.315 154.842 212.318 155.203 211.074C155.91 208.606 157.069 205.226 158.441 201.534C159.813 197.843 161.143 194.548 162.118 192.158L163.285 189.329C163.561 188.679 163.695 188.304 163.717 188.311Z" fill="#263238"/>
<path d="M213.195 324.06C213.186 323.973 213.186 323.885 213.195 323.798C213.195 323.608 213.195 323.36 213.195 323.035C213.195 322.328 213.153 321.366 213.124 320.107C213.082 317.562 213.054 313.884 213.061 309.33C213.061 300.23 213.188 287.664 213.061 273.783C212.933 259.902 212.495 247.336 211.646 238.277C211.42 236.014 211.264 233.964 211.003 232.182C210.89 231.286 210.784 230.452 210.685 229.678C210.635 229.297 210.593 228.929 210.55 228.582C210.508 228.236 210.43 227.875 210.373 227.592C210.168 226.355 210.006 225.386 209.886 224.7C209.836 224.389 209.801 224.134 209.772 223.951C209.761 223.864 209.761 223.776 209.772 223.689C209.802 223.771 209.824 223.857 209.836 223.944L209.992 224.651C210.119 225.358 210.31 226.298 210.543 227.529C210.607 227.847 210.67 228.172 210.734 228.519C210.798 228.865 210.833 229.226 210.89 229.622C210.996 230.393 211.109 231.22 211.236 232.118C211.519 233.907 211.696 235.958 211.943 238.221C212.856 247.279 213.358 259.859 213.464 273.747C213.57 287.635 213.407 300.201 213.343 309.295C213.343 313.828 213.301 317.505 213.294 320.072V322.999C213.294 323.318 213.294 323.572 213.294 323.763C213.276 323.866 213.242 323.966 213.195 324.06Z" fill="#455A64"/>
<path d="M205.282 70.8695C205.171 69.9415 205.357 69.0022 205.813 68.1865C206.269 67.3709 206.972 66.7207 207.821 66.3296C208.682 65.9655 209.616 65.8072 210.549 65.8673C211.482 65.9275 212.388 66.2044 213.195 66.6761C214.218 67.2413 215.09 68.0442 215.738 69.0171C216.386 69.99 216.79 71.1043 216.917 72.2662C217.044 73.4281 216.889 74.6034 216.467 75.6932C216.044 76.7829 215.366 77.7551 214.489 78.5278C213.515 79.4476 212.222 79.9544 210.883 79.942C209.727 79.7731 208.605 79.4223 207.559 78.9025C206.463 78.4853 205.211 78.1954 204.158 78.7187" fill="#263238"/>
<path d="M210.105 79.9349C209.617 78.125 208.964 76.3639 208.153 74.6738C207.226 73.0454 206.146 71.5087 204.928 70.0845C205.397 70.3896 205.815 70.7667 206.166 71.2018C207.987 73.2039 209.268 75.6379 209.886 78.2731C210.043 78.8125 210.117 79.373 210.105 79.9349Z" fill="#FF725E"/>
<path d="M208.358 75.5365C208.118 75.7374 207.857 75.9127 207.58 76.0598C206.835 76.4809 206.054 76.8358 205.247 77.1205C202.562 78.0655 199.68 78.3089 196.874 77.8276C195.33 77.5633 193.834 77.0725 192.433 76.3709C191.267 75.8138 190.269 74.9574 189.541 73.8889C189.061 73.1566 188.799 72.3033 188.785 71.428C188.778 71.1903 188.802 70.9527 188.855 70.7209C188.891 70.5653 188.919 70.4875 188.933 70.4875C188.947 70.4875 188.884 70.827 188.933 71.4139C189.001 72.2495 189.289 73.0522 189.767 73.7404C190.927 75.5365 193.763 76.8942 196.938 77.4599C199.69 77.9231 202.512 77.7194 205.169 76.8659C206.258 76.4869 207.323 76.043 208.358 75.5365Z" fill="#455A64"/>
<path d="M209.101 79.3551C209.101 79.3551 209.002 79.5319 208.775 79.8147C208.45 80.204 208.093 80.5659 207.708 80.8966C205.147 83.1402 201.848 84.3591 198.444 84.3192C197.937 84.3214 197.43 84.2788 196.931 84.1919C196.57 84.1283 196.379 84.0858 196.386 84.0575C196.393 84.0293 197.178 84.1 198.444 84.0575C200.091 84.0005 201.719 83.6831 203.267 83.1171C204.801 82.5391 206.233 81.7203 207.51 80.6916C208.535 79.8784 209.051 79.2844 209.101 79.3551Z" fill="#455A64"/>
<path d="M215.783 71.5765C215.87 72.0332 215.821 72.5052 215.642 72.9342C215.308 74.0181 214.594 74.9449 213.631 75.544C212.668 76.143 211.521 76.3739 210.402 76.1941C209.94 76.1567 209.497 75.9928 209.122 75.7204C209.122 75.6638 209.624 75.8689 210.43 75.9325C211.479 76.0331 212.532 75.7857 213.427 75.2285C214.321 74.6713 215.008 73.8353 215.38 72.8494C215.698 72.121 215.727 71.5765 215.783 71.5765Z" fill="#455A64"/>
<path d="M290.938 298.136H24.9973L24.3043 306.608H75.8688V324.322H80.8541V306.608H270.091V324.4H275.07V306.608H290.938V298.136Z" fill="#455A64"/>
<path d="M235.668 233.051C235.668 232.67 230.223 208.436 229.806 206.604L234.409 199.809C234.409 199.809 236.092 198.211 235.569 197.497C235.045 196.782 234.154 196.69 233.157 197.341C232.528 197.758 229.226 199.505 229.226 199.505C229.226 199.505 227.974 189.668 227.712 188.961C227.451 188.254 226.765 187.915 226.298 188.431C225.831 188.947 225.959 195.616 225.959 195.616C225.959 195.616 223.307 187.399 222.741 187.073C222.605 186.99 222.451 186.938 222.292 186.923C222.133 186.907 221.972 186.928 221.822 186.984C221.672 187.04 221.537 187.129 221.427 187.245C221.316 187.361 221.234 187.501 221.186 187.653C221.186 187.978 223.003 196.789 223.003 196.789C223.003 196.789 218.76 188.756 218.053 189.011C217.778 189.08 217.534 189.238 217.358 189.461C217.183 189.683 217.087 189.958 217.084 190.241C217.021 190.821 219.913 199.3 219.913 199.3C219.913 199.3 216.674 193.084 216.094 193.282C215.807 193.44 215.578 193.686 215.44 193.984C215.303 194.281 215.264 194.615 215.33 194.937C215.415 195.502 219.446 207.757 220.196 210.013L221.907 239.005L233.553 264.151L244.054 249.457C244.054 249.457 235.668 233.454 235.668 233.051Z" fill="#FFBE9D"/>
<path d="M250.68 240.434C250.68 240.434 249.266 260.941 252.01 264.151C254.753 267.362 260.354 266.527 260.354 266.527L263.989 249.068L250.68 240.434Z" fill="#FFBE9D"/>
<path d="M244.472 249.542L249.789 257.038L261.811 263.345L289.149 277.679C290.554 278.416 291.659 279.62 292.275 281.083C292.89 282.546 292.977 284.177 292.522 285.698L291.574 288.859L281.321 314.217L281.844 324.399L227.274 324.322C227.274 324.322 239.543 284.432 239.932 281.893C240.321 279.355 237.966 275.982 237.966 275.982C237.966 275.982 230.895 271.032 230.895 270.459C230.895 269.886 231.87 250.532 244.472 249.542Z" fill="#0D6C61"/>
<path d="M243.185 291.913C243.114 291.913 243.185 290.938 243.072 289.389C242.993 288.48 242.851 287.577 242.647 286.688C242.392 285.6 242.066 284.53 241.671 283.484C240.925 281.599 240.011 279.784 238.942 278.061C238.122 276.731 237.563 275.939 237.612 275.939C237.784 276.089 237.936 276.26 238.065 276.448C238.348 276.788 238.723 277.304 239.161 277.962C240.304 279.668 241.253 281.497 241.99 283.414C242.394 284.474 242.718 285.564 242.958 286.674C243.148 287.582 243.266 288.504 243.312 289.431C243.312 289.827 243.312 290.188 243.312 290.499C243.314 290.769 243.3 291.038 243.27 291.305C243.269 291.511 243.241 291.716 243.185 291.913Z" fill="#263238"/>
<path d="M274.256 311.388C273.918 311.551 273.565 311.684 273.203 311.784C272.496 312.017 271.52 312.336 270.282 312.717C267.814 313.488 264.385 314.492 260.573 315.546C256.762 316.6 253.297 317.448 250.779 318.035C249.521 318.332 248.495 318.558 247.788 318.707C247.425 318.806 247.053 318.87 246.678 318.898C247.028 318.761 247.387 318.65 247.753 318.566L250.716 317.781L260.481 315.185L270.212 312.484L273.16 311.664C273.518 311.543 273.884 311.451 274.256 311.388Z" fill="#263238"/>
<path d="M292.09 286.2L291.645 286.058C291.216 285.901 290.78 285.767 290.337 285.655C288.642 285.215 286.885 285.062 285.139 285.203C282.371 285.415 279.716 286.394 277.474 288.031C276.076 289.045 274.857 290.286 273.867 291.701C272.739 293.268 271.965 295.06 271.598 296.955C271.408 297.968 271.434 299.009 271.675 300.01C271.922 301.052 272.525 301.975 273.38 302.62C274.318 303.258 275.427 303.599 276.562 303.599C277.697 303.599 278.805 303.258 279.744 302.62C280.696 301.861 281.417 300.851 281.825 299.704C282.234 298.557 282.314 297.318 282.056 296.128C281.773 294.865 281.192 293.689 280.362 292.696C279.531 291.703 278.476 290.923 277.283 290.422C274.758 289.321 271.924 289.151 269.285 289.941C267.918 290.305 266.602 290.839 265.368 291.532C264.101 292.224 262.916 293.054 261.832 294.007C259.601 295.971 257.837 298.408 256.67 301.142C256.079 302.538 255.67 304.004 255.454 305.505C255.346 306.256 255.301 307.016 255.319 307.775C255.323 308.525 255.536 309.26 255.934 309.896C256.148 310.192 256.42 310.442 256.734 310.629C257.048 310.816 257.397 310.938 257.759 310.985C258.499 311.101 259.256 311.06 259.979 310.865C261.431 310.489 262.703 309.612 263.572 308.39C264.4 307.181 264.778 305.72 264.64 304.261C264.502 302.802 263.856 301.438 262.815 300.406C261.776 299.417 260.5 298.711 259.109 298.356C257.751 297.977 256.338 297.826 254.93 297.91C252.185 298.084 249.514 298.874 247.116 300.222C244.829 301.497 242.839 303.242 241.275 305.342C239.783 307.365 238.709 309.733 238.793 312.109C238.812 313.246 239.176 314.349 239.836 315.274C240.497 316.198 241.423 316.9 242.492 317.286C242.999 317.436 243.531 317.484 244.057 317.425C244.583 317.367 245.092 317.204 245.554 316.946C246.442 316.447 247.176 315.713 247.675 314.825C248.549 313.102 248.78 311.123 248.326 309.246C247.997 307.553 247.387 305.928 246.522 304.437C244.917 301.644 242.343 299.954 240.059 299.848C239.057 299.773 238.051 299.908 237.103 300.244C236.409 300.492 235.77 300.874 235.222 301.368C234.781 301.779 234.407 302.256 234.112 302.782C234.112 302.782 234.176 302.641 234.317 302.365C234.551 301.969 234.839 301.607 235.173 301.29C235.835 300.7 236.612 300.252 237.455 299.975C238.299 299.697 239.19 299.596 240.073 299.678C242.407 299.763 245.059 301.474 246.699 304.303C247.584 305.813 248.213 307.459 248.559 309.175C249.032 311.111 248.799 313.152 247.901 314.931C247.375 315.869 246.599 316.642 245.66 317.165C245.165 317.443 244.62 317.618 244.056 317.682C243.493 317.745 242.922 317.694 242.379 317.533C241.251 317.134 240.272 316.4 239.572 315.43C238.872 314.459 238.484 313.299 238.461 312.102C238.362 309.62 239.472 307.195 240.986 305.13C242.615 302.935 244.701 301.121 247.1 299.811C249.499 298.501 252.154 297.727 254.881 297.542C256.329 297.451 257.782 297.602 259.18 297.988C260.624 298.361 261.952 299.09 263.041 300.109C264.142 301.201 264.826 302.645 264.973 304.189C265.12 305.732 264.722 307.279 263.847 308.56C262.926 309.853 261.58 310.782 260.043 311.183C259.269 311.392 258.459 311.435 257.667 311.31C257.257 311.255 256.862 311.116 256.507 310.904C256.153 310.691 255.845 310.408 255.602 310.073C255.156 309.385 254.911 308.587 254.895 307.768C254.878 306.985 254.925 306.202 255.036 305.427C255.253 303.895 255.669 302.397 256.274 300.972C257.478 298.196 259.288 295.725 261.57 293.738C262.676 292.766 263.889 291.921 265.184 291.221C266.442 290.514 267.784 289.97 269.179 289.601C271.897 288.795 274.812 288.975 277.41 290.11C278.651 290.637 279.748 291.453 280.609 292.49C281.471 293.527 282.071 294.755 282.36 296.072C282.628 297.321 282.54 298.621 282.104 299.822C281.669 301.024 280.905 302.079 279.899 302.867C278.909 303.54 277.739 303.896 276.542 303.89C275.345 303.884 274.178 303.515 273.196 302.832C272.296 302.144 271.659 301.168 271.392 300.067C271.151 299.027 271.126 297.948 271.322 296.899C271.707 294.969 272.506 293.145 273.662 291.553C274.67 290.121 275.913 288.871 277.339 287.855C279.202 286.532 281.335 285.642 283.585 285.25C285.835 284.857 288.144 284.972 290.344 285.585C290.942 285.742 291.526 285.948 292.09 286.2Z" fill="#FAFAFA"/>
<path d="M255.574 263.918C255.201 264.588 254.723 265.194 254.159 265.714C252.68 267.191 250.79 268.189 248.736 268.578C247.315 268.85 245.851 268.801 244.45 268.436C242.843 268.011 241.356 267.217 240.109 266.117C239.437 265.525 238.845 264.847 238.348 264.102C237.809 263.326 237.416 262.459 237.188 261.542C237.051 261.06 237.01 260.556 237.069 260.058C237.127 259.561 237.283 259.08 237.528 258.643C237.816 258.206 238.209 257.848 238.671 257.601C239.133 257.354 239.649 257.226 240.172 257.228C241.195 257.211 242.202 257.48 243.079 258.006C243.915 258.533 244.637 259.223 245.2 260.036C246.211 261.587 246.706 263.419 246.614 265.269C246.575 266.123 246.415 266.968 246.14 267.779C245.87 268.535 245.493 269.249 245.023 269.9C244.146 271.053 243.004 271.978 241.693 272.594C239.803 273.495 237.685 273.801 235.618 273.471C234.867 273.367 234.136 273.152 233.447 272.835C234.167 273.045 234.899 273.21 235.639 273.33C237.672 273.596 239.737 273.259 241.579 272.361C242.84 271.746 243.936 270.839 244.776 269.716C245.223 269.083 245.58 268.391 245.836 267.659C246.092 266.874 246.24 266.058 246.275 265.233C246.357 263.459 245.877 261.705 244.903 260.22C244.378 259.452 243.702 258.8 242.916 258.303C242.098 257.816 241.159 257.57 240.208 257.596C239.746 257.588 239.29 257.696 238.881 257.909C238.472 258.123 238.124 258.436 237.867 258.819C237.646 259.216 237.506 259.653 237.455 260.105C237.404 260.556 237.443 261.014 237.57 261.45C237.788 262.322 238.16 263.147 238.666 263.89C239.143 264.614 239.714 265.273 240.363 265.848C241.568 266.921 243.002 267.702 244.557 268.132C245.913 268.494 247.332 268.554 248.714 268.309C250.732 267.948 252.601 267.004 254.089 265.594C254.621 265.069 255.117 264.509 255.574 263.918Z" fill="#FAFAFA"/>
<path d="M280.663 322.193C280.621 322.25 280.048 321.797 278.973 321.38C277.583 320.814 276.062 320.653 274.584 320.914C273.107 321.176 271.733 321.85 270.622 322.858C269.759 323.622 269.377 324.272 269.32 324.201C269.264 324.131 269.377 324.025 269.554 323.749C269.808 323.355 270.107 322.992 270.445 322.667C271.56 321.565 272.982 320.825 274.525 320.546C276.068 320.282 277.654 320.486 279.079 321.132C279.505 321.322 279.908 321.559 280.281 321.84C280.529 322.045 280.663 322.179 280.663 322.193Z" fill="#FAFAFA"/>
<g opacity="0.3">
<path d="M272.885 265.573C267.574 263.239 261.613 262.977 256.005 260.389L249.45 256.953C250.086 257.957 251.883 258.791 252.314 260.312C252.634 261.868 252.696 263.466 252.498 265.042C252.279 269.27 252.645 273.509 253.587 277.636C254.174 280.203 255.291 283.06 257.787 283.923C259.449 284.496 261.28 284.001 262.97 283.506C270.509 281.285 279.51 278.888 287.048 276.668C284.8 271.315 278.188 267.899 272.885 265.573Z" fill="black"/>
</g>
<path d="M290.061 241.29C289.241 237.337 288.053 233.299 285.394 230.258C282.304 226.722 277.53 224.948 272.828 224.651C268.797 224.396 267.998 222.416 263.883 223.088C262.298 223.363 260.783 223.945 259.421 224.799C253.657 228.335 250.433 234.147 248.75 240.985C248.12 243.545 248.092 246.734 250.228 248.276C251.776 249.393 253.968 249.245 255.531 250.341C257.264 251.564 257.709 253.997 257.349 256.09C256.988 258.183 255.998 260.106 255.411 262.143C253.997 267.093 255.022 272.354 256.062 277.389L286.101 276.519C287.261 276.484 288.526 276.406 289.368 275.607C290.013 274.859 290.404 273.925 290.485 272.941C292.375 262.461 292.23 251.715 290.061 241.29Z" fill="#263238"/>
<path d="M250.999 241.912C250.987 241.634 251.011 241.356 251.069 241.084C251.105 240.763 251.159 240.445 251.232 240.13C251.317 239.755 251.388 239.331 251.529 238.871C251.823 237.787 252.201 236.728 252.66 235.703C253.227 234.452 253.902 233.253 254.676 232.118C255.468 230.991 256.353 229.931 257.32 228.95C258.115 228.158 258.971 227.43 259.88 226.772C260.255 226.482 260.63 226.256 260.948 226.065C261.217 225.886 261.496 225.72 261.782 225.57C262.017 225.423 262.269 225.304 262.532 225.216C262.567 225.273 261.528 225.839 260.036 226.998C259.161 227.676 258.334 228.413 257.561 229.205C256.623 230.183 255.761 231.23 254.98 232.337C254.218 233.462 253.544 234.644 252.964 235.873C252.5 236.878 252.103 237.912 251.776 238.97C251.225 240.752 251.069 241.926 250.999 241.912Z" fill="#455A64"/>
<path d="M254.577 246.162C254.519 245.492 254.541 244.818 254.64 244.153C254.795 242.54 255.077 240.942 255.482 239.373C255.886 237.805 256.411 236.271 257.052 234.784C257.288 234.154 257.597 233.554 257.971 232.995C257.78 233.638 257.544 234.266 257.264 234.876C256.131 237.885 255.328 241.007 254.867 244.189C254.818 244.853 254.721 245.512 254.577 246.162Z" fill="#455A64"/>
<path d="M283.951 271.131C283.89 270.976 283.845 270.814 283.817 270.65C283.732 270.332 283.64 269.851 283.527 269.236C283.254 267.488 283.115 265.722 283.11 263.953C283.11 261.719 283.258 259.053 283.499 256.111C283.814 252.932 283.96 249.738 283.937 246.544C283.924 243.357 283.35 240.197 282.24 237.209C281.293 234.787 279.828 232.6 277.948 230.803C276.674 229.596 275.178 228.65 273.542 228.017C273.095 227.852 272.639 227.71 272.177 227.592C272.012 227.559 271.851 227.51 271.696 227.444C271.863 227.457 272.029 227.483 272.191 227.522C272.672 227.603 273.145 227.723 273.606 227.882C275.288 228.472 276.831 229.401 278.138 230.612C280.079 232.412 281.594 234.623 282.572 237.082C283.714 240.104 284.306 243.306 284.319 246.537C284.345 249.744 284.189 252.95 283.852 256.139C283.59 259.081 283.4 261.726 283.385 263.953C283.364 265.712 283.465 267.47 283.689 269.214C283.774 269.83 283.845 270.311 283.902 270.629C283.937 270.794 283.954 270.962 283.951 271.131Z" fill="#455A64"/>
<path d="M281.144 270.685C281 269.939 280.92 269.182 280.903 268.422C280.819 267.008 280.762 265.085 280.797 262.935C280.833 260.785 280.981 258.855 281.123 257.462C281.162 256.701 281.273 255.946 281.455 255.206C281.48 255.963 281.456 256.722 281.384 257.476C281.306 258.89 281.215 260.806 281.165 262.942C281.116 265.078 281.165 267.015 281.165 268.415C281.216 269.171 281.209 269.93 281.144 270.685Z" fill="#455A64"/>
<path d="M145.812 250.928C146.104 254.812 146.392 258.692 146.675 262.567C143.747 263.105 140.706 263.437 137.814 262.744C134.922 262.051 132.157 260.163 131.132 257.37C130.902 256.84 130.833 256.255 130.934 255.687C130.995 255.408 131.139 255.154 131.347 254.958C131.555 254.762 131.818 254.634 132.1 254.591" fill="#FFBE9D"/>
<path d="M153.654 238.518C154.114 237.103 156.051 236.226 156.065 234.734C156.079 233.242 154.036 232.33 153.435 230.88C152.53 228.695 155.21 226.376 154.587 224.113C153.88 221.398 149.185 221.108 148.315 218.456C147.954 217.346 148.315 215.953 147.41 215.154C146.236 214.107 144.185 215.154 142.708 214.524C141.343 213.93 140.989 212.113 139.624 211.505C138.26 210.897 136.577 211.915 135.205 212.7C134.795 212.94 134.278 213.244 133.748 213.52C131.422 212.757 127.716 212.863 126.125 214.107C124.251 215.564 122.823 217.516 120.737 218.696C118.905 219.743 116.621 220.16 115.157 221.638C112.555 224.269 113.955 228.582 112.626 231.941C112.173 233.087 111.403 234.105 110.915 235.236C110.427 236.368 110.278 237.754 111.028 238.772C111.777 239.79 113.347 240.356 113.375 241.601C113.404 242.845 111.827 243.68 111.961 244.868C112.096 246.056 114.033 246.466 114.86 247.512C115.942 248.87 114.86 250.991 115.794 252.462C116.819 254.025 119.287 253.693 121.189 254.145C124.506 254.93 126.967 258.544 130.333 257.999C131.62 257.787 132.73 256.967 134.017 256.762C135.756 256.486 137.446 257.363 139.193 257.575C142.347 257.964 145.296 256.203 147.912 254.513C149.256 253.65 150.698 252.646 151.045 251.161C151.363 249.818 150.712 248.333 151.434 247.095C152.155 245.858 153.753 245.582 154.347 244.422C155.28 242.534 153.039 240.434 153.654 238.518Z" fill="#263238"/>
<path d="M120.015 224.601C119.97 224.517 119.936 224.426 119.916 224.332C119.857 224.066 119.833 223.792 119.846 223.519C119.913 222.499 120.36 221.54 121.097 220.832C122.195 219.8 123.586 219.133 125.079 218.923C125.984 218.773 126.912 218.981 127.667 219.503C128.052 219.812 128.349 220.217 128.529 220.676C128.714 221.162 128.714 221.697 128.529 222.183C128.437 222.432 128.282 222.655 128.081 222.829C127.879 223.003 127.637 223.124 127.377 223.18C127.106 223.24 126.823 223.203 126.578 223.074C126.339 222.937 126.162 222.714 126.083 222.451C126.023 222.211 126.015 221.961 126.058 221.717C126.102 221.473 126.197 221.241 126.337 221.037C126.599 220.661 126.962 220.367 127.384 220.189C128.098 219.894 128.893 219.859 129.63 220.089C130.367 220.319 131.001 220.799 131.422 221.447C131.963 222.313 132.181 223.343 132.037 224.354C132.009 224.623 131.952 224.889 131.867 225.146C131.803 225.322 131.768 225.407 131.754 225.407C131.74 225.407 131.853 225.025 131.895 224.339C131.971 223.372 131.723 222.406 131.188 221.596C130.825 221.048 130.29 220.638 129.668 220.429C128.962 220.178 128.187 220.201 127.497 220.493C127.145 220.647 126.84 220.89 126.613 221.2C126.503 221.362 126.429 221.545 126.393 221.737C126.358 221.929 126.363 222.127 126.408 222.317C126.462 222.494 126.583 222.643 126.746 222.732C126.909 222.82 127.1 222.841 127.278 222.791C127.479 222.748 127.666 222.654 127.822 222.52C127.978 222.385 128.097 222.213 128.169 222.02C128.283 221.61 128.272 221.174 128.136 220.771C127.999 220.367 127.745 220.014 127.405 219.757C126.725 219.286 125.888 219.098 125.071 219.234C123.648 219.424 122.314 220.035 121.239 220.988C120.52 221.645 120.061 222.538 119.945 223.505C119.942 223.872 119.965 224.238 120.015 224.601Z" fill="#455A64"/>
<path d="M116.607 238.27C116.458 238.058 116.357 237.817 116.31 237.563C116.088 236.699 116.12 235.788 116.402 234.942C116.684 234.095 117.205 233.348 117.901 232.79C118.43 232.377 119.038 232.079 119.689 231.914C120.339 231.75 121.016 231.723 121.677 231.835L121.465 232.047C121.387 231.532 121.387 231.007 121.465 230.492C121.574 229.739 121.835 229.017 122.233 228.369C122.631 227.721 123.156 227.161 123.777 226.722C124.642 226.155 125.652 225.848 126.686 225.838C127.72 225.828 128.736 226.115 129.611 226.666C129.798 226.789 129.975 226.926 130.142 227.076C130.248 227.182 130.304 227.239 130.297 227.246C130.037 227.109 129.784 226.958 129.541 226.793C128.843 226.412 128.071 226.186 127.278 226.128C126.109 226.03 124.942 226.34 123.975 227.005C123.404 227.424 122.922 227.952 122.558 228.559C122.194 229.166 121.954 229.84 121.854 230.541C121.78 231.021 121.78 231.51 121.854 231.991L121.889 232.245L121.642 232.196C121.025 232.087 120.393 232.107 119.785 232.255C119.176 232.402 118.605 232.673 118.106 233.051C117.299 233.664 116.731 234.539 116.501 235.526C116.342 236.185 116.325 236.869 116.451 237.535C116.536 238.008 116.607 238.256 116.607 238.27Z" fill="#455A64"/>
<path d="M141.138 218.887C141.138 218.944 140.643 218.795 139.865 218.76C138.85 218.697 137.837 218.902 136.927 219.355C136.017 219.808 135.243 220.493 134.682 221.341C134.243 221.985 134.073 222.458 134.017 222.437C134.06 221.994 134.213 221.569 134.462 221.2C134.998 220.263 135.799 219.507 136.764 219.026C137.73 218.545 138.816 218.362 139.886 218.498C140.33 218.518 140.761 218.652 141.138 218.887Z" fill="#455A64"/>
<path d="M151.384 237.591C151.384 237.591 151.518 237.33 151.709 236.884C151.964 236.208 152.063 235.483 151.999 234.763C151.927 233.705 151.469 232.711 150.712 231.969C150.24 231.535 149.68 231.206 149.07 231.005C148.461 230.804 147.815 230.735 147.177 230.803C146.577 230.869 145.997 231.057 145.472 231.354L145.098 231.581L145.211 231.156C145.334 230.644 145.333 230.11 145.211 229.597C145.088 229.085 144.845 228.609 144.504 228.207C144.225 227.887 143.885 227.627 143.504 227.441C143.122 227.255 142.707 227.148 142.283 227.126C141.711 227.092 141.138 227.196 140.614 227.43C140.431 227.531 140.242 227.623 140.049 227.705C140.187 227.537 140.361 227.402 140.558 227.309C141.088 227.019 141.686 226.874 142.29 226.892C142.753 226.895 143.209 226.995 143.63 227.185C144.052 227.375 144.429 227.651 144.737 227.995C145.125 228.432 145.402 228.955 145.545 229.521C145.688 230.088 145.692 230.68 145.557 231.248L145.289 231.043C145.857 230.713 146.488 230.506 147.141 230.435C147.831 230.362 148.528 230.439 149.185 230.662C149.841 230.884 150.442 231.245 150.946 231.722C151.603 232.398 152.04 233.257 152.199 234.186C152.359 235.115 152.232 236.071 151.837 236.926C151.752 237.109 151.647 237.282 151.526 237.443C151.441 237.542 151.398 237.598 151.384 237.591Z" fill="#455A64"/>
<path d="M113.489 303.15C113.489 303.15 104.755 304.911 103.447 303.977C102.139 303.044 97.2951 299.876 98.0376 295.584C98.7801 291.291 107.74 260.715 109.599 258.473C111.459 256.231 113.333 253.997 117.06 254.188C120.786 254.379 145.218 259.59 145.218 259.59C145.218 259.59 155.288 259.032 157.338 260.524C159.389 262.016 164.056 264.816 164.056 270.035C164.056 275.253 163.024 311.049 163.024 311.049L165.739 324.194H111.997L113.496 303.15" fill="#FFC727"/>
<path d="M113.489 303.15C113.382 303.15 112.739 296.079 112.074 287.275C111.41 278.471 110.908 271.371 111.007 271.364C111.106 271.357 111.756 278.436 112.421 287.246C113.085 296.057 113.588 303.143 113.489 303.15Z" fill="#263238"/>
<path d="M163.985 269.13C163.797 269.126 163.61 269.103 163.427 269.059L161.829 268.776L155.966 267.722C151.016 266.845 144.164 265.707 136.562 264.639C128.961 263.571 122.059 262.801 117.053 262.284L111.127 261.69L109.514 261.528C109.326 261.517 109.139 261.489 108.956 261.443C109.144 261.427 109.333 261.427 109.522 261.443L111.141 261.542C112.555 261.634 114.57 261.797 117.081 262.023C122.094 262.468 129.01 263.211 136.612 264.271C144.214 265.332 151.073 266.513 156.016 267.461C158.484 267.934 160.485 268.338 161.857 268.635L163.441 268.981C163.625 269.019 163.807 269.069 163.985 269.13Z" fill="#263238"/>
<path d="M163.024 282.162C162.847 282.182 162.669 282.182 162.493 282.162L160.987 282.127C159.672 282.127 157.777 282.006 155.429 281.893C150.748 281.653 144.277 281.229 137.149 280.578C130.021 279.927 123.579 279.164 118.926 278.549C116.6 278.244 114.719 277.976 113.425 277.778L111.933 277.537C111.758 277.519 111.585 277.484 111.417 277.431C111.594 277.426 111.772 277.438 111.947 277.467L113.446 277.636L118.962 278.294C123.615 278.846 130.057 279.56 137.185 280.21C144.313 280.861 150.769 281.328 155.45 281.625L160.987 281.978L162.5 282.084C162.676 282.1 162.851 282.126 163.024 282.162Z" fill="#263238"/>
<path d="M163.844 294.325C163.681 294.377 163.512 294.41 163.342 294.424L161.885 294.643C160.626 294.827 158.795 295.046 156.525 295.28C151.992 295.739 145.692 296.163 138.733 296.163C131.775 296.163 125.475 295.746 120.935 295.287C118.665 295.06 116.833 294.841 115.575 294.657L114.118 294.445C113.949 294.421 113.781 294.388 113.616 294.346C113.787 294.327 113.96 294.327 114.132 294.346L115.589 294.495C116.855 294.629 118.693 294.813 120.963 295.011C125.496 295.4 131.782 295.775 138.733 295.775C145.685 295.775 151.964 295.393 156.504 294.997C158.767 294.799 160.605 294.615 161.871 294.473L163.328 294.332C163.499 294.314 163.672 294.312 163.844 294.325Z" fill="#263238"/>
<path d="M162.889 312.314C162.722 312.352 162.551 312.369 162.38 312.364L160.923 312.442L155.563 312.618C151.031 312.746 144.772 312.866 137.885 312.908C130.997 312.951 124.704 312.908 120.206 312.725C117.944 312.647 116.105 312.576 114.846 312.484L113.39 312.378C113.218 312.375 113.047 312.353 112.88 312.314C113.05 312.302 113.22 312.302 113.39 312.314H114.853C116.119 312.364 117.951 312.399 120.213 312.449C124.739 312.527 130.997 312.555 137.892 312.512L155.57 312.336L160.938 312.272H162.394C162.56 312.273 162.726 312.287 162.889 312.314Z" fill="#263238"/>
<path d="M112.23 287.579C110.314 287.195 108.424 286.69 106.573 286.065C104.689 285.561 102.84 284.938 101.036 284.199C102.952 284.583 104.841 285.088 106.693 285.712C108.577 286.215 110.426 286.839 112.23 287.579Z" fill="#263238"/>
<path d="M34.1902 262.857C34.0134 258.692 30.407 251.189 28.922 243.814C28.1654 240.045 27.7128 236.693 30.1453 233.709C32.2031 231.185 35.0953 229.466 37.9239 227.868C42.4425 225.301 47.2156 222.777 52.399 222.494C55.7791 222.31 59.4279 223.258 61.5918 225.86C63.3667 227.981 63.8687 230.895 64.2152 233.638C64.8009 238.224 65.129 242.84 65.1982 247.463C65.3257 249.866 65.0872 252.274 64.491 254.605C64.1874 255.769 63.6561 256.861 62.9278 257.819C62.1996 258.777 61.2888 259.581 60.2482 260.184C58.4096 261.139 56.2175 261.224 54.379 262.178C52.5404 263.133 51.1827 265.714 52.5475 267.242L40.3847 270.565L34.1902 262.857Z" fill="#FFBE9D"/>
<path d="M31.6515 256.783C32.277 258.088 33.1592 259.253 34.2454 260.21C35.3316 261.166 36.5996 261.893 37.9733 262.348C39.358 262.778 40.8323 262.831 42.2443 262.502C43.6563 262.173 44.955 261.473 46.0064 260.474C47.2015 259.251 47.9086 257.646 48.7218 256.139C49.535 254.633 50.5392 253.12 52.0736 252.349C53.6081 251.578 55.7932 251.819 56.6418 253.311C56.9246 253.778 57.1014 254.372 57.5893 254.619C57.9148 254.73 58.2709 254.709 58.5806 254.559C58.8903 254.409 59.1286 254.144 59.244 253.82C59.448 253.161 59.4651 252.459 59.2935 251.791C58.7649 249.279 58.4878 246.72 58.4662 244.153C58.5652 241.594 59.3077 238.956 61.0684 237.082C62.4191 235.668 64.2506 234.777 65.8628 233.653C67.4751 232.528 68.9884 230.923 69.1227 228.957C69.2429 227.203 68.2176 225.542 66.9165 224.354C64.0879 221.766 52.9222 219.771 49.3582 221.221C49.3582 221.221 34.3811 227.734 33.6456 228.257C32.9102 228.78 27.5077 230.683 27.635 237.28C27.7622 243.878 31.6515 256.783 31.6515 256.783Z" fill="#263238"/>
<path d="M34.1902 262.857C34.0134 258.692 30.407 251.189 28.922 243.814C28.1654 240.045 27.7128 236.693 30.1453 233.709C32.2031 231.185 35.0953 229.466 37.9239 227.868C42.4425 225.301 47.2156 222.777 52.399 222.494C55.7791 222.31 59.4279 223.258 61.5918 225.86C63.3667 227.981 63.8687 230.895 64.2152 233.638C64.8009 238.224 65.129 242.84 65.1982 247.463C65.3257 249.866 65.0872 252.274 64.491 254.605C64.1874 255.769 63.6561 256.861 62.9278 257.819C62.1996 258.777 61.2888 259.581 60.2482 260.184C58.4096 261.139 56.2175 261.224 54.379 262.178C52.5404 263.133 51.1827 265.714 52.5475 267.242L40.3847 270.565L34.1902 262.857Z" fill="#FFBE9D"/>
<path d="M69.3702 223.943C69.1945 223.766 68.9838 223.626 68.7515 223.534C68.5193 223.442 68.2704 223.399 68.0207 223.407C67.7709 223.416 67.5256 223.476 67.3003 223.584C67.075 223.692 66.8744 223.846 66.7114 224.035C67.1943 223.391 67.4015 222.582 67.2875 221.784C67.1734 220.987 66.7475 220.268 66.1032 219.785C65.459 219.303 64.6493 219.095 63.8523 219.209C63.0553 219.323 62.3363 219.749 61.8533 220.394C62.1544 219.738 62.216 218.997 62.0274 218.301C61.8387 217.604 61.4118 216.996 60.8209 216.582C60.2172 216.188 59.534 215.933 58.8201 215.834C58.1062 215.735 57.3793 215.795 56.6912 216.009C55.3162 216.448 54.0268 217.12 52.8798 217.996C52.866 217.518 52.7226 217.052 52.4648 216.648C52.207 216.245 51.8445 215.919 51.416 215.705C50.5534 215.285 49.5924 215.109 48.6369 215.196C46.7783 215.295 44.9742 215.858 43.3893 216.834C41.8044 217.81 40.4894 219.167 39.5644 220.783C38.6256 220.405 37.5976 220.308 36.6047 220.502C35.6119 220.697 34.6967 221.176 33.9701 221.88C33.2436 222.584 32.7367 223.483 32.5109 224.47C32.2852 225.456 32.3501 226.487 32.698 227.437C31.707 227.642 30.8181 228.185 30.1834 228.973C29.5488 229.761 29.2078 230.745 29.2189 231.757C28.0926 233.377 27.5355 235.324 27.6349 237.294C27.7905 243.906 31.6515 256.797 31.6515 256.797C32.277 258.102 33.1592 259.268 34.2454 260.224C35.3316 261.18 36.5995 261.907 37.9733 262.362C39.358 262.792 40.8323 262.846 42.2443 262.516C43.6563 262.187 44.955 261.487 46.0064 260.488C47.2014 259.265 47.9086 257.66 48.7218 256.154C49.535 254.647 50.5462 253.134 52.0736 252.363C53.601 251.593 55.3618 252.123 57.0236 252.604C58.5156 253.035 58.5156 252.066 58.6076 250.928L58.4803 244.146C58.5793 241.587 59.3218 238.949 61.0826 237.075C62.4332 235.661 64.2647 234.77 65.877 233.645C67.4892 232.521 69.0025 230.916 69.1369 228.95C69.1547 228.664 69.1404 228.377 69.0944 228.094C69.421 227.705 69.6792 227.262 69.8581 226.786C70.0487 226.314 70.104 225.798 70.0178 225.296C69.9317 224.793 69.7074 224.325 69.3702 223.943Z" fill="#263238"/>
<path d="M49.3229 235.102C49.3082 235.347 49.2483 235.586 49.1461 235.809C48.8232 236.615 48.2686 237.307 47.5524 237.798C46.8363 238.289 45.9907 238.557 45.1225 238.567C44.4653 238.572 43.8146 238.436 43.2153 238.166C42.616 237.896 42.0821 237.5 41.6504 237.004H41.9404C41.635 237.454 41.2603 237.853 40.8301 238.185C40.2332 238.643 39.5486 238.973 38.8188 239.156C38.089 239.338 37.3295 239.369 36.5873 239.246C35.3851 239.015 34.3046 238.363 33.5396 237.407C33.0233 236.782 32.6644 236.043 32.493 235.251C32.4451 235.037 32.4167 234.819 32.4081 234.6C32.4081 234.451 32.4081 234.374 32.4081 234.374C32.4081 234.374 32.4647 234.678 32.6132 235.215C32.8363 235.962 33.2146 236.654 33.7234 237.245C34.4888 238.131 35.5436 238.717 36.7005 238.899C37.3906 239.001 38.094 238.963 38.7693 238.788C39.4445 238.613 40.0779 238.305 40.6322 237.881C41.0277 237.572 41.3715 237.202 41.6504 236.785L41.7848 236.587L41.9404 236.771C42.3359 237.227 42.823 237.595 43.37 237.851C43.917 238.107 44.5116 238.245 45.1154 238.256C46.1001 238.271 47.057 237.929 47.8096 237.294C48.3178 236.878 48.7303 236.357 49.0188 235.767C49.2309 235.342 49.2946 235.095 49.3229 235.102Z" fill="#455A64"/>
<path d="M59.0461 230.626C59.1588 230.803 59.2296 231.003 59.2529 231.211C59.2762 231.42 59.2514 231.631 59.1804 231.828C59.074 232.273 58.8492 232.681 58.5298 233.009C58.1373 233.394 57.6491 233.668 57.1156 233.801C56.1417 234.005 55.1285 233.901 54.2163 233.504C53.8319 233.387 53.4757 233.192 53.1697 232.931C53.5575 232.998 53.9369 233.107 54.3012 233.257C55.1768 233.556 56.1157 233.619 57.0236 233.44C57.5092 233.321 57.9553 233.078 58.3177 232.733C58.6141 232.459 58.8356 232.113 58.9612 231.729C59.0418 231.367 59.0704 230.996 59.0461 230.626Z" fill="#455A64"/>
<path d="M65.976 228.207C66.0405 228.614 65.9736 229.03 65.7851 229.395C65.4216 230.333 64.7071 231.091 63.7934 231.509C62.8796 231.928 61.8386 231.974 60.8917 231.637C60.4929 231.539 60.1346 231.319 59.8663 231.008C59.8663 230.951 60.2765 231.213 60.9624 231.39C61.8522 231.618 62.7926 231.543 63.6354 231.177C64.4659 230.781 65.1386 230.115 65.5446 229.289C65.8629 228.66 65.9194 228.2 65.976 228.207Z" fill="#455A64"/>
<path d="M57.5611 223.455C56.9164 223.03 56.1963 222.733 55.4396 222.579C54.5439 222.411 53.6179 222.543 52.8049 222.955C51.9919 223.366 51.3372 224.034 50.9422 224.856C50.6873 225.355 50.5358 225.901 50.4967 226.461L50.1361 226.44C50.1288 226.067 49.9899 225.708 49.7442 225.427C49.4984 225.147 49.1614 224.962 48.7925 224.905C48.1771 224.803 47.5459 224.937 47.0247 225.28C46.5529 225.626 46.0997 225.996 45.667 226.39C45.667 226.39 45.7377 226.227 45.9357 225.987C46.2124 225.644 46.5362 225.342 46.8974 225.089C47.1764 224.881 47.4939 224.731 47.8313 224.648C48.1688 224.564 48.5196 224.548 48.8633 224.601C49.2823 224.683 49.6696 224.881 49.9805 225.174C50.1584 225.338 50.2972 225.541 50.3865 225.766C50.4758 225.991 50.5135 226.233 50.4967 226.475L50.1361 226.44C50.1939 225.588 50.4897 224.77 50.9898 224.079C51.4899 223.387 52.1742 222.85 52.9647 222.529C53.7831 222.206 54.6794 222.135 55.5386 222.324C56.1134 222.443 56.656 222.685 57.1297 223.031C57.4338 223.265 57.5752 223.441 57.5611 223.455Z" fill="#455A64"/>
<path d="M50.921 218.329C50.921 218.385 50.5887 218.399 50.0937 218.562C49.454 218.767 48.8901 219.159 48.4743 219.686C48.0546 220.22 47.8079 220.869 47.7672 221.546C47.7852 221.834 47.7852 222.122 47.7672 222.409C47.7318 222.409 47.555 222.112 47.5197 221.546C47.4723 220.798 47.6976 220.057 48.1539 219.462C48.6101 218.866 49.2666 218.456 50.0017 218.308C50.5816 218.201 50.9281 218.286 50.921 218.329Z" fill="#455A64"/>
<path d="M37.1602 226.588C37.1248 226.588 37.2379 226.058 37.8673 225.563C38.2525 225.279 38.7018 225.094 39.1755 225.025C39.7462 224.948 40.3271 225.003 40.8726 225.188C41.8297 225.544 42.6879 226.123 43.3759 226.878C43.9133 227.437 44.1962 227.811 44.1608 227.847C43.8118 227.625 43.4891 227.364 43.1991 227.069C42.4946 226.404 41.6654 225.885 40.7595 225.542C40.267 225.372 39.7433 225.311 39.225 225.365C38.8038 225.413 38.3984 225.553 38.037 225.775C37.4077 226.164 37.2167 226.623 37.1602 226.588Z" fill="#455A64"/>
<path d="M44.3163 232.267C44.0267 231.643 43.9644 230.937 44.14 230.272C44.3156 229.607 44.7182 229.024 45.2781 228.625C44.9741 229.184 44.7141 229.765 44.5002 230.364C44.3953 230.993 44.3339 231.629 44.3163 232.267Z" fill="#455A64"/>
<path d="M83.9868 259.569L73.7333 262.9L75.6992 281.752L74.992 283.166L67.3762 295.661C67.2418 295.881 75.1052 297.726 78.0681 298.363C81.7664 299.155 91.5037 298.363 90.0894 286.115C89.0287 277.467 83.9868 259.569 83.9868 259.569Z" fill="#FFBE9D"/>
<path d="M72.9342 246.042C72.1228 246.443 71.433 247.054 70.9359 247.811C70.4388 248.568 70.1522 249.444 70.1057 250.348C70.0824 250.592 70.1316 250.838 70.2471 251.055C70.3917 251.237 70.5957 251.362 70.8232 251.408C71.0507 251.455 71.2873 251.42 71.4916 251.31C71.8969 251.081 72.2394 250.755 72.4887 250.362" fill="#FFBE9D"/>
<path d="M72.51 250.376C72.51 250.376 72.5099 250.504 72.3544 250.694C72.1751 250.981 71.9333 251.222 71.6472 251.402C71.4342 251.53 71.1886 251.594 70.9401 251.585C70.7889 251.588 70.6392 251.556 70.502 251.492C70.3649 251.429 70.2439 251.335 70.1481 251.218C69.9731 250.95 69.898 250.63 69.936 250.313C69.9475 250 69.9902 249.69 70.0633 249.386C70.3146 248.321 70.9082 247.367 71.7533 246.671C72.0767 246.357 72.4805 246.14 72.9201 246.042C72.9201 246.098 72.4958 246.317 71.923 246.862C71.1852 247.572 70.6631 248.477 70.4168 249.471C70.353 249.753 70.3128 250.039 70.2966 250.327C70.2589 250.57 70.3037 250.819 70.4239 251.034C70.5655 251.174 70.7487 251.265 70.9461 251.293C71.1436 251.321 71.3449 251.285 71.52 251.189C71.7861 251.039 72.0251 250.846 72.2271 250.617C72.3968 250.482 72.4958 250.355 72.51 250.376Z" fill="#7C3B29"/>
<path d="M78.9449 246.084C78.9449 246.084 73.896 248.099 73.2878 249.726C72.6797 251.352 71.5341 257.419 71.5341 257.419L73.7757 263.289L83.8171 261.28C83.8171 261.28 85.3587 249.316 85.4647 248.962C85.4647 248.962 89.0004 238.942 88.958 238.023C88.958 236.785 87.9751 236.375 86.7588 237.825C85.5425 239.274 82.8413 244.797 82.8413 244.797L78.9449 246.084Z" fill="#FFBE9D"/>
<path d="M78.0044 243.68C76.9852 243.542 75.9477 243.678 74.9991 244.076C74.1364 244.571 73.483 245.362 73.1605 246.303C72.849 247.238 72.6497 248.206 72.5665 249.188C72.4746 249.895 72.4463 250.808 73.0403 251.253C73.1884 251.358 73.3602 251.425 73.5404 251.447C73.7206 251.469 73.9035 251.446 74.0727 251.38C74.24 251.307 74.386 251.193 74.4973 251.048C74.6086 250.904 74.6814 250.733 74.7091 250.553" fill="#FFBE9D"/>
<path d="M74.7092 250.553C74.7092 250.553 74.7587 250.765 74.5607 251.076C74.4391 251.265 74.2609 251.411 74.0515 251.493C73.7677 251.606 73.4514 251.606 73.1676 251.493C72.998 251.417 72.8469 251.305 72.7248 251.164C72.6027 251.024 72.5125 250.859 72.4605 250.68C72.3526 250.294 72.319 249.891 72.3615 249.492C72.4232 248.617 72.5604 247.749 72.7716 246.897C72.9881 246.018 73.4348 245.213 74.0657 244.563C74.5999 244.045 75.2867 243.713 76.0244 243.616C76.4941 243.559 76.969 243.559 77.4387 243.616C77.6174 243.613 77.7949 243.644 77.962 243.708C77.962 243.786 77.1983 243.708 76.0315 243.892C75.3622 244.009 74.7465 244.333 74.2707 244.818C73.6993 245.437 73.2953 246.191 73.0969 247.01C72.8894 247.84 72.7428 248.684 72.6585 249.535C72.6114 249.891 72.6306 250.253 72.715 250.602C72.7495 250.744 72.8141 250.877 72.9044 250.992C72.9947 251.106 73.1085 251.2 73.2383 251.267C73.432 251.364 73.653 251.393 73.8651 251.348C74.0772 251.303 74.2676 251.187 74.4051 251.02C74.5197 250.873 74.6214 250.717 74.7092 250.553Z" fill="#7C3B29"/>
<path d="M82.6644 244.656C82.0782 243.943 81.3004 243.413 80.4228 243.128C79.9304 243.052 79.427 243.092 78.953 243.246C78.479 243.399 78.0475 243.662 77.6932 244.012C76.9914 244.719 76.4278 245.552 76.0315 246.466C75.6708 247.208 75.3243 247.965 75.0203 248.736C74.8348 249.142 74.7109 249.573 74.6525 250.016C74.6229 250.237 74.6383 250.462 74.6979 250.677C74.7574 250.892 74.8599 251.093 74.999 251.267C75.2374 251.506 75.5467 251.661 75.8807 251.71C76.2146 251.758 76.5553 251.697 76.8517 251.536C77.442 251.199 77.882 250.651 78.0822 250.002" fill="#FFBE9D"/>
<path d="M78.0963 250.001C78.0673 250.24 77.9852 250.47 77.8559 250.673C77.7091 250.977 77.492 251.241 77.2227 251.444C76.9534 251.647 76.6395 251.783 76.3073 251.84C76.0674 251.877 75.8223 251.86 75.5898 251.791C75.3573 251.721 75.1434 251.6 74.9637 251.437C74.7736 251.231 74.6339 250.984 74.5553 250.716C74.4768 250.447 74.4617 250.164 74.5111 249.888C74.6097 249.323 74.7907 248.775 75.0486 248.262C75.289 247.724 75.5365 247.173 75.7557 246.6C76.195 245.491 76.8876 244.501 77.7781 243.708C78.1611 243.377 78.6181 243.144 79.1104 243.027C79.6027 242.91 80.1159 242.913 80.6066 243.036C81.2291 243.255 81.7878 243.624 82.2331 244.111C82.5513 244.443 82.7069 244.641 82.6856 244.655C82.4874 244.528 82.3026 244.382 82.1341 244.217C81.6759 243.795 81.1302 243.478 80.5359 243.291C80.0914 243.204 79.6326 243.222 79.1965 243.345C78.7605 243.468 78.3594 243.692 78.0256 243.998C77.1914 244.773 76.5414 245.725 76.1234 246.784L75.4163 248.417C75.1677 248.904 74.9869 249.423 74.8788 249.959C74.8358 250.184 74.8433 250.415 74.9008 250.636C74.9583 250.858 75.0643 251.064 75.2112 251.239C75.3573 251.376 75.5318 251.48 75.7225 251.542C75.9132 251.605 76.1152 251.624 76.3143 251.6C76.6145 251.553 76.9007 251.441 77.1525 251.271C77.4043 251.101 77.6155 250.878 77.771 250.617C77.9832 250.228 78.068 249.987 78.0963 250.001Z" fill="#7C3B29"/>
<path d="M79.1287 253.82L78.4711 250.376C77.2006 250.173 76.0003 249.658 74.9778 248.877C74.6313 247.965 75.1122 247.392 76.3921 247.039C77.672 246.685 81.6673 247.265 82.1058 247.505C83.6403 248.333 83.8241 250.482 84.0433 252.215" fill="#FFBE9D"/>
<path d="M84.0292 252.215C83.9438 251.95 83.8846 251.678 83.8524 251.402C83.7477 250.664 83.5676 249.939 83.315 249.238C83.1432 248.768 82.8677 248.342 82.5089 247.993C82.3088 247.804 82.0663 247.666 81.8017 247.59C81.5259 247.519 81.2289 247.463 80.9178 247.413C79.5827 247.181 78.2272 247.089 76.873 247.137C76.3681 247.189 75.8831 247.361 75.4587 247.64C75.2707 247.76 75.1346 247.947 75.0768 248.163C75.0413 248.382 75.0657 248.607 75.1476 248.813L75.091 248.736C76.089 249.504 77.2586 250.018 78.4994 250.235H78.5984V250.327C78.7681 251.331 78.9095 252.179 79.0227 252.858C79.0925 253.167 79.1258 253.482 79.1217 253.799C79.009 253.504 78.9261 253.198 78.8742 252.887C78.7257 252.215 78.5418 251.373 78.3297 250.376L78.4428 250.489C77.1408 250.299 75.9078 249.783 74.8576 248.99V248.941C74.7477 248.672 74.7159 248.378 74.7657 248.092C74.8482 247.803 75.0312 247.552 75.2819 247.385C75.765 247.055 76.3253 246.855 76.9083 246.805C78.2922 246.755 79.6772 246.86 81.038 247.116C81.348 247.165 81.6549 247.231 81.9573 247.314C82.2563 247.412 82.5278 247.579 82.7493 247.802C83.1313 248.19 83.4213 248.659 83.5979 249.174C83.8318 249.901 83.9766 250.654 84.0292 251.416C84.062 251.681 84.062 251.949 84.0292 252.215Z" fill="#7C3B29"/>
<path d="M78.0892 252.604C77.7793 252.667 77.4648 252.704 77.1487 252.717C76.4101 252.817 75.7053 253.089 75.0911 253.512C74.477 253.934 73.9707 254.495 73.6131 255.149C73.3302 255.651 73.2241 256.005 73.1676 255.991C73.111 255.977 73.1676 255.602 73.3797 255.036C73.6948 254.298 74.2129 253.664 74.8738 253.209C75.5347 252.753 76.3113 252.494 77.1134 252.462C77.7145 252.455 78.1034 252.604 78.0892 252.604Z" fill="#7C3B29"/>
<path d="M81.8654 284.877C80.7757 284.509 79.7105 284.072 78.6762 283.569C77.5943 283.18 76.5385 282.722 75.5153 282.197C76.6604 282.379 77.7729 282.727 78.8176 283.23C79.9103 283.623 80.9377 284.179 81.8654 284.877Z" fill="#7C3B29"/>
<path d="M47.3075 264.901C47.9581 264.682 58.1197 266.513 61.0755 267.828C62.7444 268.571 76.8942 280.048 76.8942 280.048L66.4993 297.097L59.6824 294.615L59.6047 324.435L17.1764 324.322L18.0957 276.696C18.0957 276.696 21.1434 264.215 26.3268 262.702C31.5101 261.188 47.3075 264.901 47.3075 264.901Z" fill="#FFC727"/>
<path d="M58.7491 295.032C58.6319 295.031 58.5153 295.015 58.4026 294.983C58.0707 294.924 57.7425 294.846 57.4196 294.749C56.2283 294.389 55.0965 293.855 54.0607 293.165C52.5122 292.157 51.1784 290.852 50.1361 289.325C48.8236 287.458 48.0327 285.275 47.845 283C47.6574 280.726 48.0796 278.442 49.0683 276.385C49.8404 274.703 50.9361 273.189 52.2929 271.93C53.1966 271.071 54.2269 270.355 55.3477 269.808C55.6474 269.656 55.9568 269.524 56.2741 269.412C56.3801 269.364 56.4917 269.328 56.6064 269.306C55.0902 270.031 53.6948 270.985 52.4697 272.135C51.1845 273.391 50.1523 274.881 49.429 276.526C48.4819 278.536 48.0794 280.759 48.2618 282.973C48.4443 285.187 49.2052 287.314 50.4685 289.142C51.4719 290.65 52.7535 291.953 54.2446 292.981C55.6318 293.892 57.1511 294.584 58.7491 295.032Z" fill="#263238"/>
<path d="M51.5504 322.306C51.4514 322.306 51.7059 316.352 52.1161 309.019C52.5262 301.686 52.9646 295.739 53.0283 295.739C53.0919 295.739 52.8798 301.693 52.4626 309.033C52.0454 316.373 51.6352 322.313 51.5504 322.306Z" fill="#263238"/>
<path d="M40.7736 304.642C40.5969 304.871 40.3953 305.08 40.1725 305.264C39.7765 305.653 39.1825 306.191 38.44 306.841C36.948 308.149 34.8336 309.889 32.4152 311.699C29.9968 313.509 27.7128 315.037 26.051 316.098C25.2166 316.628 24.5306 317.038 24.0498 317.314C23.8106 317.474 23.5545 317.606 23.2861 317.71C23.5016 317.512 23.7388 317.339 23.9932 317.194L25.9308 315.878C27.5713 314.768 29.813 313.212 32.2243 311.409C34.6356 309.606 36.7712 307.874 38.3057 306.643L40.116 305.158C40.3198 304.967 40.5398 304.795 40.7736 304.642Z" fill="#263238"/>
<path d="M24.0286 275.939C23.9366 275.876 24.7711 274.659 25.6055 273.054C26.4399 271.449 26.9844 270.084 27.0834 270.12C26.8938 271.217 26.503 272.269 25.9308 273.224C25.4656 274.236 24.8211 275.156 24.0286 275.939Z" fill="#FAFAFA"/>
<path d="M26.9491 291.807C26.118 291.049 25.4159 290.161 24.8701 289.177C24.2203 288.257 23.7302 287.234 23.4205 286.15C24.0561 287.062 24.6438 288.006 25.1812 288.979C25.8273 289.885 26.4176 290.83 26.9491 291.807Z" fill="#FAFAFA"/>
<path d="M38.2774 277.53C37.5922 278.568 36.8084 279.536 35.9368 280.423C35.1531 281.385 34.2794 282.271 33.3275 283.067C34.0059 282.027 34.7878 281.058 35.661 280.175C36.4438 279.209 37.3202 278.324 38.2774 277.53Z" fill="#FAFAFA"/>
<path d="M41.7636 296.171C41.6646 296.128 42.4707 294.389 43.2627 292.189C44.0547 289.99 44.6133 288.159 44.7194 288.18C44.2352 291.003 43.2331 293.712 41.7636 296.171Z" fill="#FAFAFA"/>
<path d="M34.466 304.486C34.2287 303.488 34.117 302.464 34.1336 301.439C34.0232 300.418 34.0375 299.387 34.176 298.37C34.4032 299.369 34.5124 300.392 34.5013 301.417C34.6075 302.438 34.5956 303.468 34.466 304.486Z" fill="#FAFAFA"/>
<path d="M27.6137 313.693C26.7022 312.817 25.8758 311.855 25.1458 310.822C24.3241 309.858 23.5949 308.819 22.9678 307.718C23.8846 308.59 24.7114 309.552 25.4357 310.589C26.2643 311.548 26.994 312.588 27.6137 313.693Z" fill="#FAFAFA"/>
<path d="M36.8631 319.626C36.473 318.055 36.3251 316.434 36.4247 314.818C36.8148 316.389 36.9627 318.01 36.8631 319.626Z" fill="#FAFAFA"/>
<path d="M47.2157 315.228C46.4631 314.443 45.7992 313.577 45.2357 312.647C44.5745 311.77 44.0146 310.821 43.5668 309.818C44.3194 310.603 44.9833 311.469 45.5468 312.399C46.208 313.276 46.7679 314.225 47.2157 315.228Z" fill="#FAFAFA"/>
<path d="M50.8432 301.135C50.3288 301.242 49.7965 301.23 49.2875 301.099C48.7634 301.083 48.2503 300.945 47.7884 300.696C48.3028 300.588 48.8351 300.6 49.3441 300.732C49.8682 300.748 50.3814 300.886 50.8432 301.135Z" fill="#FAFAFA"/>
<path d="M58.0772 309.012C57.3643 308.168 56.7499 307.245 56.2458 306.261C55.6338 305.344 55.1239 304.362 54.7254 303.334C55.4414 304.173 56.0561 305.094 56.5569 306.078C57.1698 306.997 57.6796 307.981 58.0772 309.012Z" fill="#FAFAFA"/>
<path d="M57.9146 315.68C57.7455 316.54 57.46 317.373 57.066 318.155C56.7841 318.986 56.384 319.772 55.8781 320.489C56.0461 319.629 56.3316 318.796 56.7266 318.014C57.01 317.184 57.41 316.398 57.9146 315.68Z" fill="#FAFAFA"/>
<path d="M53.4385 285.266C52.9312 284.399 52.6109 283.436 52.498 282.438C52.264 281.457 52.2351 280.439 52.4131 279.447C52.5263 279.447 52.5758 280.776 52.8586 282.374C53.1415 283.972 53.5375 285.231 53.4385 285.266Z" fill="#FAFAFA"/>
<path d="M57.5045 274.765C58.0711 274.316 58.7094 273.964 59.3925 273.726C60.0284 273.375 60.7196 273.136 61.4361 273.019C60.8676 273.47 60.2268 273.821 59.541 274.058C58.9062 274.406 58.2179 274.644 57.5045 274.765Z" fill="#FAFAFA"/>
<path d="M62.6312 284.093C62.0586 283.388 61.5829 282.611 61.2169 281.78C60.7424 281.009 60.376 280.176 60.1279 279.305C60.7026 280.005 61.1785 280.781 61.5422 281.611C62.0118 282.387 62.3779 283.221 62.6312 284.093Z" fill="#FAFAFA"/>
<path d="M69.5754 281.059C68.9396 280.389 68.3994 279.635 67.9702 278.817C67.4339 278.068 67.001 277.25 66.6832 276.385C67.3133 277.057 67.8508 277.811 68.2813 278.626C68.818 279.377 69.2531 280.195 69.5754 281.059Z" fill="#FAFAFA"/>
<path d="M67.4327 289.559C66.5432 289.993 65.6057 290.32 64.6395 290.535C63.7059 290.856 62.7374 291.065 61.7544 291.157C62.638 290.715 63.5742 290.387 64.5405 290.181C65.4744 289.852 66.4462 289.643 67.4327 289.559Z" fill="#FAFAFA"/>
<path d="M45.575 270.989C44.5967 270.723 43.6858 270.254 42.9021 269.61C42.0513 269.063 41.3279 268.34 40.7806 267.489C40.8584 267.411 41.806 268.352 43.1283 269.306C44.4507 270.261 45.6175 270.904 45.575 270.989Z" fill="#FAFAFA"/>
<path d="M30.2867 265.594C29.5798 265.754 28.8413 265.7 28.1653 265.438C27.4654 265.302 26.8211 264.962 26.3126 264.462C26.9746 264.632 27.6262 264.84 28.2643 265.085C28.9483 265.212 29.6238 265.383 30.2867 265.594Z" fill="#FAFAFA"/>
<path d="M325.545 324.322C325.545 324.421 252.667 324.506 162.783 324.506C72.8988 324.506 0 324.421 0 324.322C0 324.223 72.8352 324.138 162.783 324.138C252.731 324.138 325.545 324.216 325.545 324.322Z" fill="#263238"/>
</svg>
