<svg width="330" height="306" viewBox="0 0 330 306" fill="none" xmlns="http://www.w3.org/2000/svg">
<path d="M320.41 289.736H2.77734V304.857H320.41V289.736Z" fill="#DBDBDB"/>
<path d="M185.52 304.856H308.932L308.932 7.52216H185.52L185.52 304.856Z" fill="#EBEBEB"/>
<path d="M308.924 304.849H314.821V0.391602L308.924 7.51505V304.849Z" fill="#DBDBDB"/>
<path d="M199.811 161.661H294.633V21.784H199.811V161.661Z" fill="white"/>
<path d="M293.884 218.347C294.501 240.687 294.618 265.531 294.574 287.9V288.598H293.877C274.445 288.546 254.257 288.399 234.884 287.907C254.242 287.415 274.46 287.254 293.877 287.21L293.186 287.907L293.15 279.212C293.208 259.913 293.311 237.603 293.884 218.355V218.347Z" fill="#C7C7C7"/>
<path d="M200.56 255.213C199.972 229.341 199.891 201.031 199.825 175.1V174.365H200.56C226.028 174.439 253.802 174.512 279.226 175.1C260.323 175.518 239.129 175.717 220.226 175.768L200.56 175.834L201.294 175.1L201.25 195.126C201.206 214.382 201 235.965 200.582 255.213H200.56Z" fill="#C7C7C7"/>
<path d="M185.512 7.51505H308.924L314.821 0.391602H185.512V7.51505Z" fill="#C7C7C7"/>
<path d="M294.633 171.773H280.82V203.182H294.633V171.773Z" fill="#DBDBDB"/>
<path d="M284.102 178.661V185.785L294.633 184.764V178.661H284.102Z" fill="#C7C7C7"/>
<path d="M302.425 175.1H284.11V182.223H302.425V175.1Z" fill="#DBDBDB"/>
<path d="M150.857 17.7449H2.77734V304.636H150.857V17.7449Z" fill="#DBDBDB"/>
<path d="M144.571 24.4497H79.953V151.541H144.571V24.4497Z" fill="#EBEBEB"/>
<path d="M140.399 147.384H84.1316V28.5989H140.399V147.384ZM84.866 146.65H139.665V29.3333H84.866V146.65Z" fill="#DBDBDB"/>
<path d="M121.423 36.0454H103.101V37.5435H121.423V36.0454Z" fill="#DBDBDB"/>
<path d="M121.423 39.4458H103.101V40.9439H121.423V39.4458Z" fill="#DBDBDB"/>
<path d="M121.423 42.8459H103.101V44.3441H121.423V42.8459Z" fill="#DBDBDB"/>
<path d="M121.423 131.639H103.101V133.138H121.423V131.639Z" fill="#DBDBDB"/>
<path d="M121.423 135.04H103.101V136.538H121.423V135.04Z" fill="#DBDBDB"/>
<path d="M121.423 138.439H103.101V139.938H121.423V138.439Z" fill="#DBDBDB"/>
<path d="M136.177 75.5625H131.242V100.414H136.177V75.5625Z" fill="#DBDBDB"/>
<path d="M73.674 24.4497H9.05627V151.541H73.674V24.4497Z" fill="#EBEBEB"/>
<path d="M69.5027 147.384H13.2495V28.5989H69.5027V147.384ZM13.9692 146.65H68.7684V29.3333H13.9839L13.9692 146.65Z" fill="#DBDBDB"/>
<path d="M50.5266 36.0454H32.2039V37.5435H50.5266V36.0454Z" fill="#DBDBDB"/>
<path d="M50.5266 39.4458H32.2039V40.9439H50.5266V39.4458Z" fill="#DBDBDB"/>
<path d="M50.5266 42.8459H32.2039V44.3441H50.5266V42.8459Z" fill="#DBDBDB"/>
<path d="M50.5266 131.639H32.2039V133.138H50.5266V131.639Z" fill="#DBDBDB"/>
<path d="M50.5266 135.04H32.2039V136.538H50.5266V135.04Z" fill="#DBDBDB"/>
<path d="M50.5266 138.439H32.2039V139.938H50.5266V138.439Z" fill="#DBDBDB"/>
<path d="M65.2801 75.5625H60.3451V100.414H65.2801V75.5625Z" fill="#DBDBDB"/>
<path d="M144.571 157.754H79.953V284.845H144.571V157.754Z" fill="#EBEBEB"/>
<path d="M140.399 280.695H84.1316V161.947H140.399V280.695ZM84.866 279.961H139.665V162.681H84.866V279.961Z" fill="#DBDBDB"/>
<path d="M121.423 169.357H103.101V170.855H121.423V169.357Z" fill="#DBDBDB"/>
<path d="M121.423 172.757H103.101V174.255H121.423V172.757Z" fill="#DBDBDB"/>
<path d="M121.423 176.157H103.101V177.655H121.423V176.157Z" fill="#DBDBDB"/>
<path d="M121.423 264.943H103.101V266.441H121.423V264.943Z" fill="#DBDBDB"/>
<path d="M121.423 268.343H103.101V269.841H121.423V268.343Z" fill="#DBDBDB"/>
<path d="M121.423 271.751H103.101V273.249H121.423V271.751Z" fill="#DBDBDB"/>
<path d="M136.177 208.874H131.242V233.725H136.177V208.874Z" fill="#DBDBDB"/>
<path d="M73.674 157.754H9.05627V284.845H73.674V157.754Z" fill="#EBEBEB"/>
<path d="M69.5027 280.695H13.2495V161.947H69.5027V280.695ZM13.9839 279.961H68.7684V162.681H13.9839V279.961Z" fill="#DBDBDB"/>
<path d="M50.5266 169.357H32.2039V170.855H50.5266V169.357Z" fill="#DBDBDB"/>
<path d="M50.5266 172.757H32.2039V174.255H50.5266V172.757Z" fill="#DBDBDB"/>
<path d="M50.5266 176.157H32.2039V177.655H50.5266V176.157Z" fill="#DBDBDB"/>
<path d="M50.5266 264.943H32.2039V266.441H50.5266V264.943Z" fill="#DBDBDB"/>
<path d="M50.5266 268.343H32.2039V269.841H50.5266V268.343Z" fill="#DBDBDB"/>
<path d="M50.5266 271.751H32.2039V273.249H50.5266V271.751Z" fill="#DBDBDB"/>
<path d="M65.2801 208.874H60.3451V233.725H65.2801V208.874Z" fill="#DBDBDB"/>
<path d="M2.77734 304.636C104.525 304.188 218.684 304.188 320.41 304.636C218.662 305.092 104.503 305.092 2.77734 304.636Z" fill="#263238"/>
<path d="M252.502 303.359C254.316 303.124 299.047 281.489 300.237 279.587C300.692 278.853 297.923 272.17 294.362 264.165C293.59 262.44 292.783 260.662 291.953 258.856C286.54 247.135 280.563 234.864 280.563 234.864L250.6 249.25L262.783 272.838L265.456 278.023C265.456 278.023 252.039 293.966 250.96 296.192C249.88 298.417 250.688 303.594 252.502 303.359Z" fill="#FFBE9D"/>
<path d="M252.502 303.359C254.316 303.124 299.047 281.489 300.236 279.587C300.787 278.713 296.565 269.005 291.931 258.863L262.791 272.816L265.464 278.001C265.464 278.001 252.047 293.944 250.967 296.169C249.888 298.394 250.688 303.594 252.502 303.359Z" fill="white"/>
<path d="M252.502 303.359C254.316 303.124 299.047 281.489 300.236 279.587C300.692 278.853 297.923 272.17 294.361 264.165L265.486 278.03C265.486 278.03 252.069 293.973 250.989 296.199C249.91 298.424 250.688 303.594 252.502 303.359Z" fill="#0D6C61"/>
<path d="M252.282 301.258C259.692 297.446 289.926 282.781 297.541 279.572C297.607 279.572 297.622 279.572 297.541 279.623C290.286 283.559 259.927 297.983 252.318 301.383C252.179 301.478 252.12 301.339 252.282 301.258Z" fill="#263238"/>
<path d="M253.06 293.21C253.884 292.784 254.787 292.534 255.712 292.474C256.637 292.415 257.564 292.548 258.436 292.865C260.002 293.43 261.292 294.573 262.041 296.059C262.041 296.103 261.983 296.147 261.953 296.103C260.979 294.743 259.591 293.734 257.995 293.228C256.4 292.723 254.684 292.747 253.104 293.298C253.093 293.3 253.082 293.298 253.072 293.293C253.062 293.288 253.054 293.28 253.049 293.27C253.044 293.26 253.043 293.249 253.045 293.238C253.047 293.227 253.052 293.217 253.06 293.21Z" fill="#263238"/>
<path d="M262.938 280.182C265.919 278.713 269.914 278.067 272.962 279.616C273.079 279.675 272.999 279.844 272.881 279.844C269.594 279.736 266.304 279.982 263.07 280.578C263.021 280.584 262.971 280.574 262.929 280.547C262.887 280.521 262.856 280.481 262.84 280.434C262.825 280.387 262.826 280.337 262.844 280.29C262.861 280.244 262.895 280.206 262.938 280.182Z" fill="#263238"/>
<path d="M261.028 282.216C264.01 280.747 268.005 280.094 271.052 281.65C271.17 281.709 271.089 281.878 270.972 281.871C267.684 281.77 264.396 282.016 261.16 282.605C261.109 282.621 261.054 282.616 261.006 282.592C260.959 282.567 260.923 282.525 260.905 282.475C260.888 282.424 260.891 282.369 260.914 282.32C260.937 282.272 260.978 282.235 261.028 282.216Z" fill="#263238"/>
<path d="M259.148 284.236C262.13 282.767 266.125 282.121 269.172 283.67C269.29 283.736 269.209 283.898 269.091 283.898C265.804 283.79 262.515 284.036 259.28 284.632C259.231 284.639 259.182 284.628 259.14 284.602C259.098 284.575 259.066 284.535 259.051 284.488C259.035 284.442 259.036 284.391 259.054 284.345C259.072 284.299 259.105 284.26 259.148 284.236Z" fill="#263238"/>
<path d="M257.268 286.263C260.25 284.794 264.245 284.148 267.292 285.697C267.41 285.756 267.329 285.925 267.212 285.925C263.924 285.817 260.635 286.063 257.4 286.659C257.351 286.666 257.302 286.655 257.26 286.628C257.218 286.602 257.187 286.562 257.171 286.515C257.155 286.468 257.156 286.418 257.174 286.372C257.192 286.325 257.225 286.287 257.268 286.263Z" fill="#263238"/>
<path d="M292.188 273.374C295.558 271.758 298.063 276.995 294.707 278.618C291.35 280.24 288.81 274.997 292.188 273.374Z" fill="#263238"/>
<path d="M258.164 278.03C260.793 279.337 263.892 279.462 266.749 279.903C267.043 279.954 267.212 279.646 267.167 279.403C267.181 279.4 267.193 279.393 267.203 279.384C267.214 279.375 267.222 279.363 267.227 279.35C267.232 279.337 267.233 279.324 267.232 279.31C267.231 279.296 267.226 279.283 267.219 279.271C265.67 276.625 263.451 274.434 260.786 272.919C259.214 272.06 256.703 271.759 255.792 273.749C254.881 275.739 256.629 277.244 258.164 278.03ZM256.82 275.614C255.542 272.206 259.699 273.286 260.83 273.962C261.553 274.406 262.247 274.897 262.908 275.43C264.289 276.539 265.486 277.824 266.749 279.058C265.361 278.757 263.958 278.574 262.563 278.324C260.896 278.045 257.525 277.494 256.82 275.614Z" fill="#263238"/>
<path d="M276.949 272.206C275.767 270.356 273.329 271.017 271.897 272.081C269.472 273.962 267.583 276.446 266.418 279.286C266.414 279.299 266.412 279.312 266.414 279.326C266.415 279.34 266.42 279.353 266.427 279.365C266.433 279.377 266.443 279.387 266.454 279.395C266.466 279.403 266.478 279.408 266.492 279.411C266.486 279.474 266.495 279.539 266.518 279.598C266.542 279.658 266.579 279.711 266.627 279.753C266.675 279.796 266.732 279.826 266.794 279.842C266.857 279.857 266.922 279.858 266.984 279.844C269.738 278.999 272.793 278.441 275.216 276.781C276.626 275.775 278.073 273.947 276.949 272.206ZM270.906 277.714C269.554 278.162 268.196 278.537 266.866 279.036C267.893 277.603 268.991 276.223 270.156 274.901C270.731 274.269 271.346 273.675 272 273.124C273.021 272.302 276.986 270.635 276.2 274.196C275.767 276.157 272.484 277.178 270.906 277.714Z" fill="#263238"/>
<path opacity="0.1" d="M300.229 279.587C299.311 281.055 271.897 294.561 259.009 300.538L295.595 267.014C298.533 273.704 300.633 278.955 300.229 279.587Z" fill="black"/>
<path d="M291.776 257.71L261.557 270.929C261.557 270.929 239.687 233.27 241.391 218.054C243.308 200.979 261.704 150.3 261.704 150.3H295.757C295.757 150.3 276.494 199.907 275.312 217.444C274.849 224.369 291.776 257.71 291.776 257.71Z" fill="#0D6C61"/>
<path opacity="0.6" d="M291.776 257.71L261.557 270.929C261.557 270.929 239.687 233.27 241.391 218.054C243.308 200.979 261.704 150.3 261.704 150.3H295.757C295.757 150.3 276.494 199.907 275.312 217.444C274.849 224.369 291.776 257.71 291.776 257.71Z" fill="black"/>
<path d="M287.436 253.45C282.788 255.088 278.212 256.961 273.681 258.892C271.434 259.847 269.18 260.809 266.94 261.793C264.7 262.777 262.445 263.908 260.198 264.98C260.187 264.981 260.176 264.985 260.167 264.991C260.157 264.997 260.149 265.005 260.143 265.015C260.137 265.024 260.134 265.035 260.133 265.047C260.132 265.058 260.134 265.069 260.138 265.08C260.142 265.09 260.148 265.1 260.157 265.107C260.165 265.115 260.175 265.12 260.186 265.123C260.196 265.127 260.208 265.127 260.219 265.125C260.23 265.123 260.241 265.119 260.25 265.112C262.585 264.253 264.928 263.445 267.241 262.512C269.554 261.58 271.772 260.662 274.027 259.722C278.58 257.834 283.111 255.859 287.532 253.685C287.563 253.673 287.588 253.648 287.601 253.617C287.614 253.586 287.614 253.551 287.601 253.52C287.589 253.489 287.564 253.464 287.533 253.451C287.502 253.438 287.467 253.438 287.436 253.45Z" fill="#263238"/>
<path d="M273.454 227.564C272.881 225.941 272.315 224.303 271.765 222.673C271.146 221.052 270.725 219.363 270.509 217.642C270.439 215.793 270.675 213.944 271.207 212.171C271.625 210.482 281.128 183.494 283.236 176.782C285.625 169.198 288.144 161.658 290.792 154.163C290.873 153.928 290.499 153.84 290.418 154.067C285.564 167.455 271.53 208.507 271.074 210.269C270.592 211.934 270.219 213.63 269.958 215.344C269.554 218.773 270.876 222.004 271.963 225.199C273.094 228.533 279.498 244.983 282.979 252.048C283.015 252.121 283.14 252.048 283.111 251.989C280.489 245.549 274.621 230.89 273.454 227.564Z" fill="#263238"/>
<path d="M258.105 305.15C259.838 305.716 309.299 305.239 311.171 304.027C311.906 303.572 312.236 296.367 312.412 287.643C312.456 285.763 312.478 283.817 312.5 281.841C312.625 269.019 312.464 255.404 312.464 255.404L279.38 255.631L280.32 282.069L280.526 287.871C280.526 287.871 261.667 296.522 259.758 298.064C257.848 299.606 256.372 304.563 258.105 305.15Z" fill="#FFBE9D"/>
<path d="M258.105 305.15C259.838 305.716 309.299 305.239 311.171 304.027C312.038 303.469 312.376 292.945 312.5 281.841L280.32 282.062L280.526 287.863C280.526 287.863 261.667 296.514 259.758 298.056C257.848 299.599 256.372 304.563 258.105 305.15Z" fill="white"/>
<path d="M258.105 305.151C259.838 305.716 309.299 305.239 311.171 304.027C311.906 303.572 312.236 296.367 312.412 287.643L280.526 287.863C280.526 287.863 261.667 296.514 259.758 298.057C257.848 299.599 256.372 304.563 258.105 305.151Z" fill="#0D6C61"/>
<path d="M258.796 303.138C267.087 302.859 300.545 302.492 308.733 302.845C308.799 302.845 308.799 302.896 308.733 302.896C300.523 303.359 267.057 303.447 258.796 303.278C258.619 303.27 258.619 303.146 258.796 303.138Z" fill="#263238"/>
<path d="M262.938 296.221C263.859 296.189 264.777 296.348 265.634 296.688C266.491 297.028 267.268 297.541 267.917 298.196C269.089 299.368 269.768 300.945 269.811 302.603C269.811 302.647 269.716 302.654 269.708 302.603C269.407 300.968 268.585 299.474 267.364 298.345C266.144 297.216 264.591 296.512 262.938 296.338C262.922 296.338 262.907 296.332 262.896 296.321C262.885 296.31 262.879 296.295 262.879 296.28C262.879 296.264 262.885 296.249 262.896 296.238C262.907 296.227 262.922 296.221 262.938 296.221Z" fill="#263238"/>
<path d="M277.317 288.686C280.636 288.605 284.491 289.743 286.584 292.438C286.665 292.541 286.511 292.651 286.415 292.607C283.5 291.113 280.432 289.936 277.265 289.097C277.22 289.08 277.182 289.049 277.157 289.008C277.133 288.967 277.122 288.919 277.128 288.871C277.134 288.823 277.156 288.779 277.19 288.746C277.224 288.712 277.269 288.691 277.317 288.686Z" fill="#263238"/>
<path d="M274.768 289.729C278.08 289.655 281.943 290.786 284.029 293.482C284.109 293.584 283.963 293.702 283.86 293.651C280.939 292.146 277.863 290.961 274.687 290.118C274.651 290.095 274.623 290.061 274.606 290.021C274.59 289.982 274.585 289.938 274.594 289.896C274.603 289.854 274.624 289.815 274.655 289.785C274.686 289.756 274.726 289.736 274.768 289.729Z" fill="#263238"/>
<path d="M272.213 290.735C275.532 290.654 279.388 291.792 281.48 294.48C281.561 294.59 281.407 294.701 281.312 294.649C278.393 293.162 275.326 291.986 272.161 291.139C272.113 291.126 272.072 291.096 272.045 291.055C272.017 291.013 272.005 290.964 272.012 290.915C272.018 290.865 272.042 290.82 272.079 290.787C272.116 290.754 272.163 290.736 272.213 290.735Z" fill="#263238"/>
<path d="M269.657 291.756C272.976 291.675 276.839 292.813 278.925 295.509C279.006 295.611 278.859 295.729 278.756 295.678C275.841 294.182 272.773 293.005 269.606 292.167C269.561 292.15 269.523 292.119 269.498 292.078C269.473 292.037 269.463 291.989 269.469 291.941C269.475 291.894 269.496 291.85 269.531 291.816C269.565 291.782 269.609 291.761 269.657 291.756Z" fill="#263238"/>
<path d="M306.574 294.987C310.297 294.987 310.341 300.752 306.611 300.774C302.88 300.796 302.843 295.016 306.574 294.987Z" fill="#263238"/>
<path d="M273.953 284.728C275.76 287.019 278.506 288.451 280.886 290.059C280.942 290.089 281.003 290.105 281.067 290.107C281.13 290.109 281.193 290.097 281.25 290.07C281.308 290.044 281.359 290.005 281.399 289.956C281.438 289.907 281.467 289.849 281.481 289.787C281.494 289.788 281.507 289.787 281.519 289.782C281.532 289.778 281.543 289.771 281.553 289.762C281.562 289.753 281.57 289.742 281.575 289.73C281.581 289.718 281.583 289.705 281.583 289.692C281.307 286.65 280.239 283.733 278.484 281.232C277.434 279.8 275.304 278.456 273.637 279.866C271.97 281.276 272.896 283.391 273.953 284.728ZM273.77 281.981C274.063 278.368 277.346 281.107 278.08 282.194C278.54 282.9 278.952 283.636 279.314 284.397C280.037 285.996 280.677 287.631 281.231 289.295C280.115 288.429 278.925 287.672 277.779 286.85C276.413 285.903 273.615 283.971 273.777 281.981H273.77Z" fill="#263238"/>
<path d="M293.355 287.459C293.069 285.3 290.594 284.852 288.854 285.205C285.872 285.865 283.116 287.299 280.864 289.361C280.853 289.37 280.844 289.38 280.838 289.392C280.832 289.404 280.829 289.418 280.829 289.431C280.829 289.445 280.832 289.458 280.838 289.47C280.844 289.482 280.853 289.493 280.864 289.501C280.831 289.556 280.811 289.618 280.807 289.681C280.802 289.745 280.813 289.809 280.838 289.868C280.863 289.927 280.902 289.979 280.951 290.019C281 290.06 281.058 290.089 281.121 290.103C283.963 290.522 286.952 291.315 289.838 290.838C291.527 290.566 293.62 289.508 293.355 287.459ZM285.564 289.853C284.161 289.685 282.78 289.442 281.37 289.325C282.901 288.471 284.475 287.696 286.085 287.004C286.87 286.674 287.677 286.402 288.501 286.189C289.772 285.873 294.046 286.064 291.828 288.935C290.609 290.514 287.238 290.052 285.564 289.853Z" fill="#263238"/>
<path d="M313.881 280.321H279.512C279.512 280.321 278.572 244.432 277.309 231.449C275.98 217.635 275.84 174.476 275.84 174.476L271.978 173.242C267.138 170.187 262.24 154.596 261.696 150.3H306.64C306.64 150.3 313.183 169.005 309.68 180.578C309.68 180.578 309.857 221.248 310.591 228.54C311.986 242.251 313.881 280.321 313.881 280.321Z" fill="#0D6C61"/>
<path opacity="0.6" d="M313.881 280.321H279.512C279.512 280.321 278.572 244.432 277.309 231.449C275.98 217.635 275.84 174.476 275.84 174.476L271.978 173.242C267.138 170.187 262.24 154.596 261.696 150.3H306.64C306.64 150.3 313.183 169.005 309.68 180.578C309.68 180.578 309.857 221.248 310.591 228.54C311.986 242.251 313.881 280.321 313.881 280.321Z" fill="black"/>
<path d="M270.957 172.632C274.53 173.633 278.027 174.887 281.422 176.385C281.554 176.444 281.466 176.598 281.326 176.554C277.801 175.386 274.203 174.27 270.766 172.955C270.494 172.853 270.678 172.559 270.957 172.632Z" fill="#263238"/>
<path d="M269.833 154.001C269.833 153.906 270.053 153.891 270.053 154.001C270.058 157.036 270.257 160.068 270.648 163.078C270.81 164.473 272.271 172.206 275.422 171.641C275.951 171.545 276.215 171.149 276.303 170.532C276.286 169.727 276.145 168.929 275.884 168.167C275.53 166.557 275.258 164.929 275.069 163.291C274.706 160.251 274.75 157.176 275.201 154.148C275.201 154.045 275.4 154.052 275.4 154.148C275.309 158.377 275.632 162.605 276.362 166.772C276.758 168.777 278.073 171.802 275.341 172.111C272.609 172.419 270.758 167.359 270.421 165.971C269.554 162.043 269.355 157.996 269.833 154.001Z" fill="#263238"/>
<path d="M275.341 171.832C275.627 172.346 275.872 172.881 276.075 173.433C276.278 173.843 276.379 174.297 276.369 174.755C276.369 174.835 276.208 174.843 276.149 174.791C275.832 174.408 275.583 173.974 275.414 173.506C275.172 173.014 274.922 172.522 274.68 172.037C274.533 171.685 275.165 171.494 275.341 171.832Z" fill="#263238"/>
<path d="M311.458 274.02C306.545 273.719 301.595 273.653 296.675 273.668C294.229 273.668 291.784 273.668 289.331 273.719C286.878 273.771 284.359 273.91 281.87 274.02C281.781 274.02 281.781 274.167 281.87 274.167C284.359 274.285 286.834 274.454 289.323 274.498C291.813 274.542 294.214 274.556 296.667 274.571C301.595 274.571 306.537 274.571 311.458 274.263C311.474 274.263 311.489 274.26 311.504 274.254C311.519 274.247 311.532 274.239 311.543 274.227C311.555 274.216 311.563 274.203 311.57 274.188C311.576 274.173 311.579 274.157 311.579 274.142C311.579 274.126 311.576 274.11 311.57 274.095C311.563 274.081 311.555 274.067 311.543 274.056C311.532 274.045 311.519 274.036 311.504 274.03C311.489 274.024 311.474 274.02 311.458 274.02Z" fill="#263238"/>
<path d="M275.958 174.344C275.958 174.204 275.73 174.197 275.73 174.344C275.503 185.624 277.933 253.965 278.668 260.772C278.668 260.792 278.676 260.81 278.689 260.824C278.703 260.838 278.722 260.846 278.741 260.846C278.761 260.846 278.779 260.838 278.793 260.824C278.807 260.81 278.815 260.792 278.815 260.772C278.734 254.67 276.443 177.729 275.958 174.344Z" fill="#263238"/>
<path d="M302.77 166.405C299.634 165.986 296.3 165.582 294.156 162.968C293.195 161.743 292.491 160.336 292.085 158.833C291.585 157.144 291.409 155.382 290.91 153.693C290.91 153.677 290.904 153.662 290.893 153.651C290.882 153.64 290.867 153.634 290.851 153.634C290.835 153.634 290.821 153.64 290.81 153.651C290.798 153.662 290.792 153.677 290.792 153.693C290.689 155.601 290.91 157.513 291.446 159.347C291.869 160.888 292.621 162.318 293.649 163.541C295.933 166.17 299.465 166.574 302.755 166.537C302.843 166.559 302.865 166.412 302.77 166.405Z" fill="#263238"/>
<path d="M305.605 190.588C305.37 186.512 305.12 182.51 306.104 178.5C306.682 176.399 307.053 174.247 307.213 172.074C307.306 169.816 307.215 167.554 306.941 165.311C306.47 160.944 305.57 156.634 304.253 152.444C304.245 152.414 304.224 152.389 304.197 152.374C304.169 152.358 304.137 152.355 304.107 152.364C304.076 152.372 304.051 152.393 304.036 152.42C304.021 152.448 304.017 152.48 304.026 152.51C305.157 156.389 305.956 160.357 306.413 164.371C306.861 168.417 307.073 172.566 306.082 176.547C305.557 178.392 305.175 180.275 304.936 182.179C304.804 184.089 304.804 186.005 304.936 187.915C305.142 192.064 307.47 262.777 308.403 272.074C308.403 272.17 308.55 272.17 308.542 272.074C308.175 263.761 305.847 194.781 305.605 190.588Z" fill="#263238"/>
<path d="M280.474 112.538C274.768 128.012 260.742 148.677 254.257 149.323C251.18 149.624 245.724 150.836 241.369 147.634C231.866 140.658 228.15 133.681 224.632 129.128C222.745 126.705 238.204 112.972 240.576 115.219C246.142 120.528 249.087 125.735 249.976 125.588C253.28 125.052 265.339 113.104 273.747 104.732C283.955 94.5388 282.766 106.37 280.474 112.538Z" fill="#FFBE9D"/>
<path d="M237.572 108.977C234.796 106.913 231.785 104.321 228.304 103.307C224.823 102.294 220.535 105.981 220.131 107.288C219.727 108.595 218.5 117.158 221.959 118.23C225.418 119.302 225.279 112.392 225.631 111.709C225.984 111.026 226.366 110.159 227.026 110.423C227.687 110.688 237.403 119.655 237.403 119.655L237.572 108.977Z" fill="#FFBE9D"/>
<path d="M237.234 109.388C237.036 109.322 228.899 102.778 225.418 101.787C221.937 100.796 217.648 104.46 217.244 105.767C216.841 107.074 215.614 115.637 219.073 116.709C222.532 117.782 222.392 110.834 222.745 110.188C223.097 109.542 223.479 108.631 224.14 108.903C224.801 109.175 234.517 118.134 234.517 118.134L237.234 109.388Z" fill="#FFBE9D"/>
<path d="M220.344 116.636C220.902 116.131 221.317 115.487 221.548 114.771C221.853 114.053 222.044 113.293 222.113 112.516C222.114 111.837 222.171 111.159 222.282 110.489C222.484 109.849 222.845 109.27 223.333 108.808C223.751 108.404 224.206 108.727 224.596 109.021C225.163 109.465 225.703 109.943 226.211 110.453C226.769 110.982 227.32 111.532 227.871 112.068C228.463 112.609 229.02 113.188 229.538 113.802C229.538 113.846 229.538 113.919 229.465 113.882C228.921 113.478 228.451 112.994 227.952 112.546C227.452 112.098 226.828 111.525 226.255 111.026C225.683 110.526 225.213 110.064 224.669 109.601C224.478 109.439 224.111 109.065 223.847 109.05C223.582 109.035 223.23 109.63 223.112 109.829C222.777 110.404 222.616 111.065 222.65 111.731C222.64 112.407 222.564 113.081 222.422 113.743C222.285 114.367 222.037 114.962 221.688 115.498C221.311 115.96 220.879 116.374 220.402 116.732C220.38 116.79 220.292 116.68 220.344 116.636Z" fill="#263238"/>
<path d="M245.364 121.872C245.364 121.872 238.483 110.122 237.029 107.801C234.091 103.079 220.872 92.2399 218.574 91.2632C216.275 90.2865 212.486 93.5618 222.378 102.117C227.592 106.626 227.592 110.416 226.887 112.296C226.182 114.176 223.215 117.172 220.05 116.085C216.885 114.998 216.224 109.652 213.44 108.213C210.657 106.773 210.914 112.802 212.03 116.584C213.286 120.292 215.565 123.569 218.603 126.036C221.063 127.945 228.532 134.327 228.532 134.327L245.364 121.872Z" fill="#FFBE9D"/>
<path d="M216.752 112.583C217.678 113.897 218.676 115.52 220.248 116.1C221.82 116.68 223.288 115.931 224.471 114.822C225.712 113.759 226.5 112.262 226.674 110.636C226.734 109.13 226.356 107.637 225.587 106.34C224.642 104.761 223.475 103.327 222.121 102.081C222.062 102.022 222.157 101.941 222.216 102C223.494 103.116 227.518 106.406 227.181 110.813C226.986 112.475 226.16 114 224.875 115.072C223.766 116.137 222.341 117.048 220.74 116.695C218.794 116.254 217.634 114.198 216.628 112.619C216.598 112.531 216.708 112.516 216.752 112.583Z" fill="#263238"/>
<path d="M243.109 115.931L226.336 135.906C226.336 135.906 239.68 148.795 244.446 149.86C248.319 150.719 252.355 150.493 256.108 149.206C259.42 148.207 275.503 129.069 280.673 113.53C285.843 97.9906 280.056 97.3223 271.016 106.803C261.975 116.284 250.747 125.662 250.196 124.994C249.645 124.325 243.109 115.931 243.109 115.931Z" fill="#0D6C61"/>
<path d="M246.274 121.469C245.592 122.1 239.988 128.607 238.74 130.068C237.491 131.529 232.74 137.478 231.543 138.991C231.491 139.049 231.58 139.138 231.631 139.079C232.285 138.344 232.99 137.669 233.643 136.942C234.297 136.215 238.049 131.86 239.247 130.399C240.444 128.937 245.856 122.32 246.392 121.586C246.436 121.476 246.333 121.417 246.274 121.469Z" fill="#263238"/>
<path opacity="0.1" d="M280.665 113.53C275.525 129.069 259.405 148.207 256.101 149.206C252.347 150.489 248.312 150.715 244.439 149.859C242.742 149.478 239.952 147.59 237.051 145.321L279.094 100.752C282.766 99.6722 283.992 103.513 280.665 113.53Z" fill="black"/>
<path d="M309.203 153.355C309.203 153.311 260.632 151.923 260.632 151.923C260.07 151.058 259.692 150.087 259.523 149.07C259.354 148.053 259.396 147.011 259.647 146.011C261.851 136.685 268.555 117.319 273.52 105.621C276.509 98.5705 283.933 97.9096 288.854 101.824C298.65 109.608 307.661 135.025 309.901 146.268C310.391 148.647 310.147 151.118 309.203 153.355Z" fill="#0D6C61"/>
<path d="M285.615 101.31C285.365 102.177 280.922 107.626 276.942 107.244C275.642 107.112 276.031 100.01 276.031 100.01L275.936 99.4814L274.688 92.0495L284.851 86.3066C284.851 86.3066 285.703 100.943 285.615 101.31Z" fill="#FFBE9D"/>
<path d="M274.688 92.0493L275.973 99.4812L276.061 100.01C276.061 100.01 275.995 101.302 276.009 102.786C281.488 102.25 284.183 98.2915 285.402 95.5229C285.182 91.2856 284.881 86.2698 284.881 86.2698L274.688 92.0493Z" fill="#263238"/>
<path d="M262.673 75.0411C256.512 91.2708 265.537 96.8007 269.04 98.1225C272.213 99.3269 283.192 103.028 291.005 87.5181C298.819 72.0081 293.208 64.0181 286.092 60.8676C278.976 57.7172 268.812 58.804 262.673 75.0411Z" fill="#FFBE9D"/>
<path d="M266.22 87.4082C266.518 88.1288 266.996 88.7609 267.608 89.2442C267.948 89.4963 268.359 89.6351 268.783 89.6407C269.708 89.6407 269.943 88.8623 269.973 88.172C269.982 87.7871 269.945 87.4024 269.863 87.0264C268.721 87.5416 267.444 87.6755 266.22 87.4082Z" fill="white"/>
<path d="M269.958 88.2305C269.962 88.2916 269.962 88.3529 269.958 88.4141C269.621 88.5249 269.27 88.5891 268.915 88.605C269.268 88.5095 269.613 88.3627 269.958 88.2305Z" fill="#DBDBDB"/>
<path d="M268.144 88.7005C267.774 88.7483 267.398 88.7483 267.028 88.7005C266.965 88.6379 266.908 88.569 266.859 88.4949C267.285 88.5683 267.718 88.6197 268.144 88.7005Z" fill="#DBDBDB"/>
<path d="M265.875 77.7069C264.046 77.1047 262.974 80.8059 264.671 81.3788C266.367 81.9516 267.41 78.2283 265.875 77.7069Z" fill="#263238"/>
<path d="M274.261 80.5487C276.112 81.0848 274.908 84.7494 273.197 84.2573C271.486 83.7653 272.712 80.1081 274.261 80.5487Z" fill="#263238"/>
<path d="M265.089 75.8194C265.417 76.0496 265.758 76.2605 266.11 76.451C266.438 76.7227 266.845 76.88 267.27 76.8989C267.406 76.8771 267.53 76.8114 267.624 76.7118C267.718 76.6123 267.777 76.4845 267.792 76.3482C267.779 76.0761 267.694 75.8122 267.546 75.5838C267.397 75.3554 267.191 75.1705 266.947 75.0483C266.493 74.7212 265.931 74.5794 265.376 74.6518C265.249 74.6725 265.132 74.73 265.038 74.8169C264.944 74.9039 264.877 75.0166 264.847 75.141C264.816 75.2654 264.823 75.396 264.866 75.5166C264.909 75.6372 264.987 75.7425 265.089 75.8194Z" fill="#263238"/>
<path d="M275.458 79.9688C275.055 79.9688 274.673 79.9027 274.269 79.866C273.842 79.8895 273.419 79.7735 273.064 79.5355C272.972 79.4391 272.914 79.3154 272.898 79.183C272.882 79.0506 272.91 78.9166 272.976 78.8011C273.149 78.5864 273.377 78.4225 273.636 78.3269C273.894 78.2312 274.174 78.2073 274.445 78.2577C274.992 78.2777 275.513 78.4941 275.914 78.8672C275.997 78.9599 276.052 79.0743 276.073 79.1971C276.095 79.3199 276.08 79.4462 276.033 79.5613C275.985 79.6765 275.906 79.7758 275.804 79.8479C275.703 79.92 275.583 79.9619 275.458 79.9688Z" fill="#263238"/>
<path d="M270.384 90.7125C270.046 90.9181 269.65 91.2266 269.253 91.1605C268.827 91.0517 268.429 90.8539 268.085 90.5803C268.085 90.5803 268.005 90.5803 268.019 90.6244C268.131 90.8895 268.312 91.1196 268.543 91.2903C268.774 91.4609 269.048 91.5658 269.334 91.5938C269.583 91.5888 269.824 91.5101 270.028 91.3676C270.232 91.2251 270.389 91.0252 270.48 90.7933C270.516 90.7125 270.428 90.7125 270.384 90.7125Z" fill="#263238"/>
<path d="M266.338 84.757C266.338 84.757 265.603 86.38 265.361 87.1805C265.361 87.2539 265.522 87.3494 265.787 87.4448C266.436 87.7734 267.163 87.9171 267.888 87.8601C268.614 87.8031 269.309 87.5476 269.899 87.1217C269.98 87.063 269.899 86.9455 269.811 86.9748C268.587 87.3705 267.267 87.3576 266.051 86.9381C266.051 86.6958 267.417 84.1695 267.285 84.1548C266.727 84.0814 265.721 84.0373 265.346 84.0226C265.801 82.9578 267.248 79.9983 268.071 78.0595C268.122 77.9347 267.938 77.8392 267.88 77.942C266.551 80.0343 265.364 82.2129 264.325 84.4633C264.274 84.6542 265.978 84.8378 266.338 84.757Z" fill="#263238"/>
<path d="M289.456 89.185C286.195 88.1422 287.62 79.6748 287.62 79.6748C287.62 79.6748 283.735 77.3762 283.764 69.4596C283.764 69.4596 279.586 76.5317 266.014 72.3971C266.021 69.8652 266.822 67.3992 268.306 65.3471C266.511 67.4964 264.897 69.7906 263.481 72.2062C263.481 72.2062 262.203 60.089 272.763 57.761C276.964 56.8357 282.861 58.2163 291.123 64.2823C291.123 64.2823 293.818 59.1416 294.736 60.067C295.654 60.9923 292.746 65.6702 292.746 65.6702C292.746 65.6702 296.939 65.1415 297.46 66.0888C297.908 66.904 293.906 67.2345 293.906 67.2345C293.906 67.2345 299.642 70.2454 297.394 77.0825C295.323 83.3687 291.064 89.7064 289.456 89.185Z" fill="#263238"/>
<path d="M292.812 66.9559C294.572 67.2061 296.181 68.0903 297.336 69.4424C298.49 70.7946 299.112 72.5217 299.083 74.2996C298.913 76.3779 298.265 78.3886 297.189 80.1747C296.099 82.0473 294.776 83.7745 293.252 85.3153C293.172 85.4034 293.047 85.2639 293.128 85.1758C294.477 83.7164 295.592 82.0566 296.432 80.2554C297.33 78.5799 297.957 76.7731 298.29 74.9018C298.508 73.156 298.063 71.392 297.041 69.9596C296.019 68.5272 294.497 67.5311 292.775 67.1689C292.658 67.1321 292.702 66.9412 292.812 66.9559Z" fill="#263238"/>
<path d="M281.025 57.2471C283.293 58.1905 285.428 59.4248 287.377 60.919C289.291 62.2632 290.96 63.9248 292.312 65.8319C292.379 65.9274 292.254 66.0449 292.173 65.9568C289.013 62.7967 285.305 60.2363 281.231 58.4001C277.522 56.5935 272.896 55.7783 269.356 58.4001C269.297 58.4441 269.231 58.4001 269.282 58.3193C272.528 55.4626 277.236 55.7269 281.025 57.2471Z" fill="#263238"/>
<path d="M286.07 85.6308C286.07 85.6308 291.211 81.4522 293.194 83.4276C295.177 85.4031 290.3 92.1741 287.231 92.4237C286.839 92.4825 286.439 92.4613 286.056 92.3616C285.672 92.2618 285.313 92.0856 285 91.8434C284.686 91.6012 284.425 91.2982 284.231 90.9524C284.038 90.6066 283.917 90.2253 283.875 89.8314L286.07 85.6308Z" fill="#FFBE9D"/>
<path d="M291.74 85.337C291.749 85.337 291.759 85.3409 291.766 85.3478C291.773 85.3547 291.776 85.364 291.776 85.3737C291.776 85.3835 291.773 85.3928 291.766 85.3997C291.759 85.4066 291.749 85.4105 291.74 85.4105C289.573 85.6455 288.068 87.1656 286.783 88.8327C287.568 88.2745 288.464 88.0983 289.235 89.0677C289.28 89.1191 289.235 89.1852 289.155 89.1558C288.843 88.9508 288.475 88.8471 288.101 88.8589C287.728 88.8707 287.368 88.9975 287.069 89.2219C286.575 89.602 286.122 90.0327 285.718 90.507C285.578 90.6539 285.285 90.507 285.409 90.2941V90.25C286.085 87.7752 289 84.8376 291.74 85.337Z" fill="#263238"/>
<path d="M307.059 139.593C306.596 138.946 285.6 119.03 284.55 107.464C283.86 99.8629 293.708 107.082 293.708 107.082L294.266 104.798C294.266 104.798 286.922 100.906 283.875 102.037C274.688 105.4 297.336 135.443 307.779 144.153L307.059 139.593Z" fill="#263238"/>
<path d="M308.3 154.324C306.163 152.584 307.881 142.104 303.938 130.971C299.994 119.838 291.174 106.135 291.806 105.217C292.753 103.88 300.971 103.469 304.158 105.731C308.197 108.61 315.335 118.737 315.335 118.737C315.335 118.737 319.462 120.837 320.601 122.864C320.902 123.392 321.621 125.192 322.517 127.578C322.767 128.239 325.352 129.87 325.624 130.611C327.188 134.878 328.752 138.807 329.854 142.237C330.493 144.212 328.833 145.989 328.782 146.195C328.583 147.017 327.21 154.919 326.086 155.896C324.963 156.873 316.965 161.389 308.3 154.324Z" fill="#37474F"/>
<g opacity="0.8">
<path d="M310.966 149.786C310.591 148.104 310.709 148.633 310.342 146.951C309.974 145.27 309.563 143.654 309.262 142.002C309.262 141.811 309.203 141.649 309.424 141.532C309.865 141.382 310.324 141.288 310.79 141.253C311.928 141.054 313.073 140.871 314.226 140.709C316.598 140.379 319.279 140.041 321.68 139.909C321.908 139.909 321.967 140.173 321.732 140.188C317.929 140.477 314.144 140.967 310.393 141.656C310.187 141.656 309.725 141.73 309.614 141.892C309.626 142.017 309.656 142.141 309.703 142.259L309.945 143.36C310.114 144.095 310.275 144.829 310.444 145.563C310.775 147.032 310.621 146.298 310.951 147.767C311.105 148.442 311.252 149.11 311.406 149.786L311.649 150.88C311.679 151.066 311.721 151.25 311.774 151.431C311.804 151.6 311.886 151.755 312.008 151.875C312.13 151.994 312.287 152.073 312.457 152.099C313.191 152.342 314.05 152.474 314.836 152.657L317.48 153.282C317.938 153.432 318.41 153.535 318.89 153.59C319.389 153.59 319.844 153.069 320.167 152.812L323.105 150.462C323.395 150.22 323.643 149.932 323.839 149.61C324.03 149.265 322.282 141.612 321.636 140.063C321.636 139.989 321.82 139.938 321.849 140.012C322.913 143.111 323.796 146.269 324.493 149.47C324.493 150.109 323.905 150.484 323.377 150.895C322.642 151.482 321.908 152.07 321.174 152.65L320.021 153.561C319.76 153.802 319.432 153.959 319.081 154.009C318.734 153.993 318.39 153.931 318.06 153.825L316.518 153.458L313.58 152.724C312.919 152.562 311.884 152.481 311.524 151.945C311.388 151.681 311.301 151.395 311.267 151.101C311.157 150.638 311.061 150.197 310.966 149.786Z" fill="#263238"/>
<path d="M309.827 142.435C311.95 143.17 314.087 143.904 316.261 144.492C316.547 144.572 316.826 144.66 317.112 144.727C317.31 144.801 317.525 144.816 317.731 144.767C317.936 144.719 318.122 144.61 318.265 144.455C318.64 144.146 319 143.816 319.367 143.5L321.952 141.356C322.011 141.304 322.128 141.356 322.07 141.429C321.181 142.281 320.3 143.133 319.389 143.97C318.772 144.543 318.199 145.358 317.127 145.086C315.901 144.771 314.704 144.352 313.529 143.926C312.354 143.5 311.01 143.015 309.798 142.457C309.747 142.479 309.776 142.421 309.827 142.435Z" fill="#263238"/>
<path d="M316.914 143.786C316.915 143.708 316.936 143.632 316.976 143.565C317.016 143.497 317.073 143.442 317.142 143.404C317.236 143.363 317.337 143.342 317.439 143.342C317.542 143.342 317.643 143.363 317.737 143.404C317.825 143.404 317.737 143.544 317.685 143.515C317.61 143.479 317.526 143.464 317.443 143.471C317.409 143.463 317.374 143.463 317.34 143.471L317.281 143.588L317.237 143.676V143.72C317.23 143.789 317.23 143.858 317.237 143.926C317.249 143.99 317.279 144.05 317.323 144.098C317.367 144.146 317.424 144.181 317.487 144.198C317.525 144.211 317.566 144.213 317.605 144.204C317.644 144.194 317.679 144.175 317.707 144.146C317.758 144.086 317.788 144.011 317.795 143.933H317.84C317.853 144.002 317.843 144.074 317.813 144.137C317.782 144.201 317.733 144.253 317.671 144.286C317.589 144.314 317.501 144.322 317.416 144.31C317.33 144.297 317.249 144.263 317.179 144.212C317.099 144.173 317.033 144.112 316.986 144.037C316.939 143.962 316.914 143.875 316.914 143.786Z" fill="#263238"/>
</g>
<g opacity="0.8">
<path d="M300.956 119.779L299.994 117.76C299.443 116.585 298.834 115.424 298.327 114.227C298.268 114.095 298.217 113.978 298.364 113.845C298.666 113.638 298.994 113.473 299.34 113.353C300.156 112.964 300.978 112.619 301.815 112.23C303.534 111.495 305.487 110.68 307.257 110.085C307.419 110.027 307.507 110.225 307.338 110.284C304.537 111.285 301.789 112.43 299.105 113.713C298.959 113.787 298.621 113.912 298.569 114.058C298.569 114.058 298.687 114.308 298.694 114.315L299.069 115.094C299.318 115.615 299.568 116.137 299.803 116.658C300.303 117.701 300.06 117.172 300.538 118.215C300.773 118.692 301 119.17 301.228 119.684L301.602 120.462C301.668 120.594 301.72 120.734 301.793 120.859C301.847 120.977 301.935 121.075 302.047 121.139C302.159 121.204 302.289 121.232 302.418 121.219C303.027 121.219 303.681 121.175 304.298 121.153L306.383 121.079C306.754 121.1 307.126 121.08 307.492 121.02C307.867 120.918 308.116 120.425 308.315 120.168L310.121 117.782C310.301 117.537 310.44 117.264 310.532 116.974C310.62 116.673 307.984 111.238 307.22 110.196C307.184 110.152 307.338 110.063 307.375 110.115C308.707 112.247 309.916 114.453 310.995 116.724C311.113 117.209 310.731 117.613 310.408 118.039L309.042 119.823C308.807 120.132 308.579 120.44 308.307 120.749C308.158 120.986 307.94 121.173 307.683 121.285C307.423 121.345 307.156 121.37 306.89 121.358L305.671 121.395L303.328 121.468C302.807 121.468 302.014 121.637 301.646 121.299C301.502 121.128 301.39 120.931 301.316 120.719C301.243 120.381 301.125 120.088 300.956 119.779Z" fill="#263238"/>
<path d="M298.819 114.448C300.538 114.558 302.256 114.653 303.996 114.675H304.672C304.837 114.688 305.001 114.652 305.146 114.573C305.291 114.493 305.409 114.373 305.487 114.228C305.715 113.912 305.928 113.596 306.148 113.28C306.662 112.546 307.184 111.811 307.705 111.121C307.742 111.062 307.845 111.121 307.808 111.121C307.294 111.951 306.787 112.781 306.251 113.596C305.884 114.161 305.597 114.896 304.745 114.91C303.776 114.91 302.807 114.837 301.852 114.778C300.897 114.72 299.81 114.602 298.812 114.462C298.775 114.492 298.782 114.448 298.819 114.448Z" fill="#263238"/>
<path d="M304.364 114C304.352 113.941 304.355 113.881 304.372 113.823C304.389 113.766 304.418 113.713 304.459 113.669C304.523 113.621 304.597 113.586 304.675 113.567C304.754 113.549 304.835 113.546 304.914 113.559C304.98 113.559 304.958 113.662 304.914 113.655C304.852 113.636 304.786 113.636 304.723 113.655C304.695 113.662 304.67 113.677 304.65 113.699V113.743C304.647 113.767 304.647 113.792 304.65 113.816C304.647 113.828 304.647 113.841 304.65 113.853C304.642 113.906 304.642 113.961 304.65 114.014C304.67 114.061 304.702 114.101 304.744 114.13C304.785 114.158 304.834 114.174 304.885 114.176C304.917 114.177 304.949 114.169 304.978 114.154C305.006 114.138 305.03 114.115 305.046 114.088C305.065 114.03 305.065 113.969 305.046 113.912C305.066 113.963 305.071 114.019 305.059 114.072C305.047 114.126 305.02 114.175 304.98 114.213C304.926 114.251 304.862 114.276 304.796 114.285C304.729 114.294 304.662 114.287 304.599 114.264C304.539 114.245 304.486 114.211 304.445 114.164C304.403 114.118 304.375 114.061 304.364 114Z" fill="#263238"/>
</g>
<path d="M322.628 127.953C322.628 127.953 324.706 134.974 324.787 135.686C324.867 136.398 327.085 144.168 327.673 144.623C328.001 144.863 328.286 145.156 328.517 145.49" fill="#263238"/>
<path d="M315.335 118.736C315.335 118.736 319.058 127.644 319.367 128.283C319.675 128.922 322.796 137.184 323.252 137.904C323.804 138.77 324.441 139.58 325.154 140.32" fill="#263238"/>
<path d="M282.766 104.82C279.197 108.081 258.913 133.358 258.605 136.479C258.12 141.355 258.649 154.236 269.841 151.482C277.588 149.573 286.731 123.348 289.757 111.429C291.622 104.034 289.118 98.9964 282.766 104.82Z" fill="#FFBE9D"/>
<path d="M247.112 124.677C244.402 124.376 230.955 139.813 234.333 141.972C250.262 152.106 264.693 152.496 268.357 151.761C273.16 150.807 275.157 145.027 274.093 142.009C272.558 137.625 249.799 124.979 247.112 124.677Z" fill="#FFBE9D"/>
<path d="M248.683 125.228C248.683 125.228 242.551 118.707 238.402 114.367C236.089 111.944 231.749 108.139 229.237 107.141C225.477 105.672 208.792 101.765 207.764 105.789C206.838 109.461 221.592 110.93 221.592 110.93C221.592 110.93 206.838 108.095 206.523 112.685C206.207 117.275 223.112 116.768 223.112 116.768C223.112 116.768 207.889 114.191 208.315 118.971C208.638 122.592 223.971 122.989 223.971 122.989C223.971 122.989 210.863 120.866 211.039 124.597C211.23 128.724 225.359 129.98 225.359 129.98C227.394 139.402 233.269 142.464 238.314 144.278C239.305 144.675 248.683 125.228 248.683 125.228Z" fill="#FFBE9D"/>
<path d="M226.762 111.628C225.036 111.231 223.296 110.813 221.548 110.57C219.8 110.328 218.038 110.152 216.275 110.071C213.968 109.923 211.652 110.041 209.372 110.423C213.47 110.049 219.749 110.813 221.497 111.055C223.244 111.297 225.007 111.452 226.755 111.694L226.762 111.628Z" fill="#263238"/>
<path d="M226.006 117.958C223.802 117.554 221.599 117.062 219.352 116.746C217.105 116.431 214.99 116.335 212.743 116.181C212.574 116.181 212.618 116.262 212.794 116.284C214.997 116.533 217.076 116.93 219.308 117.202C221.541 117.473 223.788 117.664 225.998 118.017C226.028 118.024 226.035 117.965 226.006 117.958Z" fill="#263238"/>
<path d="M226.329 123.517C222.948 122.807 219.502 122.445 216.047 122.438C215.871 122.438 215.952 122.555 216.128 122.57C219.558 122.863 222.253 123.069 226.321 123.635C226.365 123.642 226.402 123.532 226.329 123.517Z" fill="#263238"/>
<path d="M219.874 104.798C223.083 105.305 226.321 105.745 229.369 106.957C234.26 109.38 238.035 113.508 241.516 117.598C237.668 113.926 233.937 109.88 229.156 107.405C226.219 106.193 222.973 105.598 219.874 104.798Z" fill="#263238"/>
<path d="M248.331 124.729L236.581 146.761C236.581 146.761 263.694 156.579 271.28 151.468C278.866 146.357 287.348 124.803 290.153 112.546C292.959 100.289 286.386 99.3273 280.386 106.928C274.386 114.529 260.683 130.692 260.683 130.692L248.331 124.729Z" fill="#0D6C61"/>
<path d="M243.109 146.944C246.502 138.256 251.386 129.649 252.127 128.085C252.164 128.011 252.274 128.085 252.238 128.151C251.43 129.62 246.913 140.092 243.234 147.01C243.19 147.09 243.109 147.024 243.109 146.944Z" fill="#263238"/>
<path d="M242.713 148.728C259.031 152.944 264.156 153.634 269.15 152.283C272.947 151.262 277.787 142.861 279.637 139.556C281.488 136.251 283.177 132.793 284.726 129.312C286.276 125.831 287.84 122.32 289.309 118.788L289.845 117.488C289.845 117.422 289.977 117.488 289.948 117.488C288.986 119.992 288.06 122.511 287.091 125.015C287.921 123.708 288.743 122.394 289.515 121.05C289.515 120.991 289.632 121.05 289.595 121.109C288.756 122.732 287.817 124.302 286.783 125.809C286.437 126.668 286.092 127.527 285.732 128.386C284.22 131.963 282.553 135.48 280.695 138.888C278.837 142.295 275.422 149.881 270.281 152.511C264.068 155.683 249.946 151.482 242.683 148.839C242.647 148.802 242.669 148.728 242.713 148.728Z" fill="#263238"/>
<path d="M248.331 124.729C250.38 125.654 254.47 127.542 256.504 128.496C257.863 129.091 259.229 129.796 260.573 130.288C260.661 130.325 260.712 130.288 260.573 130.325C260.768 130.174 260.95 130.007 261.116 129.825C265.86 124.531 270.2 118.883 274.937 113.581C273.468 115.681 271.133 118.722 269.532 120.778C266.969 124.009 264.45 127.299 261.601 130.325C261.322 130.575 261.087 130.912 260.69 131.008C259.266 130.663 257.562 129.642 256.24 129.025C253.567 127.659 250.923 126.242 248.316 124.751L248.331 124.729Z" fill="#263238"/>
<path d="M273.219 114.213C272.579 115.479 272.013 116.781 271.522 118.112C271.528 117.382 271.682 116.66 271.973 115.99C272.265 115.32 272.688 114.715 273.219 114.213Z" fill="#263238"/>
<path d="M0.765139 305.15C2.48358 305.701 51.4371 305.055 53.3024 303.85C54.0368 303.395 54.3232 296.257 54.4701 287.628C54.4701 285.763 54.5215 283.831 54.5288 281.878L56.5777 255.874L24.8013 256.057L22.6569 282.216L22.8772 287.958C22.8772 287.958 4.27546 296.595 2.38077 298.13C0.486076 299.664 -0.945958 304.614 0.765139 305.15Z" fill="#FFBE9D"/>
<path d="M0.765139 305.15C2.48358 305.701 51.4371 305.055 53.3024 303.85C54.1543 303.292 54.4554 292.872 54.5288 281.878L22.6789 282.208L22.8992 287.951C22.8992 287.951 4.27546 296.595 2.38077 298.13C0.486076 299.665 -0.945958 304.614 0.765139 305.15Z" fill="white"/>
<path d="M0.765139 305.15C2.48358 305.701 51.4371 305.055 53.3024 303.85C54.0368 303.395 54.3232 296.257 54.4701 287.628L22.8919 287.951C22.8919 287.951 4.27546 296.595 2.38077 298.13C0.486076 299.664 -0.945958 304.614 0.765139 305.15Z" fill="#FFC727"/>
<path d="M40.3553 304.82C47.4054 304.556 52.7149 304.24 53.3097 303.851C53.9046 303.461 54.2938 297.109 54.448 289.163C51.0185 293.254 44.2696 300.59 40.3553 304.82Z" fill="#263238"/>
<path d="M1.44809 303.197C9.65842 302.881 42.7788 302.404 50.9083 302.72C50.9818 302.72 50.9818 302.771 50.9083 302.771C42.7788 303.256 9.65107 303.469 1.44809 303.329C1.27918 303.322 1.27918 303.197 1.44809 303.197Z" fill="#263238"/>
<path d="M5.50917 296.338C6.42103 296.303 7.33027 296.457 8.17961 296.791C9.02895 297.124 9.79999 297.63 10.4442 298.277C11.6131 299.43 12.2918 300.99 12.3389 302.631C12.3389 302.683 12.2507 302.683 12.2361 302.631C11.937 301.01 11.1194 299.53 9.90615 298.413C8.69293 297.297 7.14983 296.604 5.50917 296.441C5.49554 296.441 5.48246 296.435 5.47282 296.426C5.46318 296.416 5.45776 296.403 5.45776 296.389C5.45776 296.376 5.46318 296.363 5.47282 296.353C5.48246 296.343 5.49554 296.338 5.50917 296.338Z" fill="#263238"/>
<path d="M19.734 288.818C23.0167 288.73 26.8428 289.839 28.921 292.49C29.0018 292.593 28.855 292.71 28.7521 292.659C25.8598 291.192 22.8194 290.037 19.6826 289.214C19.6394 289.198 19.6031 289.167 19.5794 289.128C19.5557 289.088 19.5461 289.042 19.552 288.996C19.5579 288.95 19.5791 288.908 19.6121 288.875C19.6452 288.843 19.6881 288.823 19.734 288.818Z" fill="#263238"/>
<path d="M17.2152 289.838C20.4979 289.75 24.3166 290.859 26.3949 293.51C26.4757 293.613 26.3288 293.731 26.2333 293.679C23.3404 292.214 20.3002 291.059 17.1638 290.235C17.1207 290.218 17.0843 290.188 17.0606 290.148C17.0369 290.109 17.0273 290.062 17.0332 290.016C17.0391 289.971 17.0603 289.928 17.0933 289.896C17.1264 289.864 17.1693 289.843 17.2152 289.838Z" fill="#263238"/>
<path d="M14.7183 290.867C18.0009 290.772 21.827 291.88 23.9053 294.539C23.9861 294.642 23.8392 294.752 23.7364 294.7C20.8452 293.233 17.8045 292.081 14.6669 291.264C14.6237 291.247 14.5874 291.217 14.5637 291.177C14.54 291.137 14.5303 291.091 14.5363 291.045C14.5422 290.999 14.5634 290.957 14.5964 290.924C14.6294 290.892 14.6723 290.872 14.7183 290.867Z" fill="#263238"/>
<path d="M12.1626 291.888C15.4526 291.8 19.2714 292.908 21.3496 295.56C21.4304 295.662 21.2835 295.773 21.1881 295.721C18.2943 294.254 15.2512 293.101 12.1112 292.284C12.068 292.268 12.0317 292.237 12.008 292.198C11.9843 292.158 11.9747 292.111 11.9806 292.066C11.9865 292.02 12.0077 291.977 12.0407 291.945C12.0737 291.913 12.1167 291.893 12.1626 291.888Z" fill="#263238"/>
<path d="M48.7199 294.95C52.3918 294.913 52.4725 300.641 48.7786 300.678C45.0847 300.715 45.026 294.994 48.7199 294.95Z" fill="#263238"/>
<path d="M16.3926 284.911C18.1992 287.173 20.9164 288.583 23.2811 290.169C23.3363 290.199 23.3979 290.216 23.4608 290.217C23.5237 290.219 23.586 290.205 23.6427 290.178C23.6993 290.151 23.7487 290.11 23.7867 290.06C23.8247 290.01 23.8503 289.952 23.8612 289.89C23.92 289.89 23.9714 289.89 23.9641 289.794C23.6832 286.786 22.617 283.904 20.8723 281.437C19.8222 280.02 17.7145 278.698 16.0695 280.101C14.4245 281.503 15.3425 283.589 16.3926 284.911ZM16.209 282.194C16.4881 278.61 19.7487 281.312 20.4758 282.392C20.9358 283.097 21.3456 283.833 21.7022 284.595C22.4218 286.175 23.0615 287.79 23.6189 289.435C22.51 288.583 21.335 287.834 20.1894 287.026C18.8308 286.056 16.0548 284.162 16.187 282.194H16.209Z" fill="#263238"/>
<path d="M35.6039 287.525C35.3175 285.381 32.8647 284.955 31.1389 285.322C28.1892 285.989 25.4667 287.42 23.2444 289.471C23.193 289.515 23.2444 289.574 23.2444 289.611C23.2129 289.665 23.1944 289.725 23.1903 289.788C23.1862 289.85 23.1967 289.913 23.2209 289.97C23.2451 290.028 23.2824 290.079 23.3298 290.12C23.3772 290.161 23.4334 290.19 23.4941 290.206C26.3141 290.602 29.2736 291.373 32.1303 290.896C33.812 290.624 35.8756 289.574 35.6039 287.525ZM27.937 289.941C26.5417 289.78 25.1684 289.552 23.7731 289.442C25.2863 288.588 26.8428 287.813 28.4364 287.121C29.2115 286.793 30.0091 286.52 30.8231 286.306C32.0863 285.99 36.3163 286.166 34.1352 289.009C32.9014 290.58 29.56 290.132 27.937 289.941Z" fill="#263238"/>
<path d="M54.9988 276.51H23.1489C23.1489 276.51 27.2761 219.404 29.4058 209.88C33.3127 192.534 43.168 142.199 43.168 142.199H78.4181C78.4181 142.199 61.9093 204.394 60.3745 214.396C59.0232 223.187 54.9988 276.51 54.9988 276.51Z" fill="#FFBE9D"/>
<path opacity="0.1" d="M78.4181 142.199C78.4181 142.199 61.9167 204.394 60.3745 214.396C59.9339 217.216 59.6401 224.677 59.3537 233.424L50.3282 142.199H78.4181Z" fill="black"/>
<path d="M43.851 305.151C45.5695 305.701 94.523 305.048 96.381 303.843C97.1153 303.388 97.4091 296.25 97.5486 287.621C97.5853 285.756 97.6074 283.832 97.6147 281.871C97.6955 269.174 96.5205 255.705 96.5205 255.705L63.5911 256.043L65.7942 282.201L66.0145 287.944C66.0145 287.944 47.376 296.58 45.4887 298.123C43.6013 299.665 42.1326 304.563 43.851 305.151Z" fill="#FFBE9D"/>
<path d="M43.851 305.15C45.5695 305.701 94.523 305.048 96.381 303.843C97.2402 303.285 97.5339 292.864 97.6147 281.871L65.7648 282.201L65.9851 287.944C65.9851 287.944 47.3467 296.58 45.4593 298.122C43.572 299.665 42.1326 304.563 43.851 305.15Z" fill="white"/>
<path d="M43.8509 305.151C45.5694 305.701 94.5229 305.048 96.3809 303.843C97.1153 303.388 97.409 296.25 97.5485 287.621L65.9704 287.944C65.9704 287.944 47.3319 296.58 45.4445 298.123C43.5572 299.665 42.1325 304.563 43.8509 305.151Z" fill="#FFC727"/>
<path d="M44.5266 303.145C52.7296 302.83 85.8573 302.352 93.9868 302.668C94.0529 302.668 94.0529 302.72 93.9868 302.72C85.8646 303.212 52.7369 303.417 44.5266 303.278C44.3577 303.278 44.3577 303.153 44.5266 303.145Z" fill="#263238"/>
<path d="M48.5878 296.279C49.4996 296.244 50.4089 296.398 51.2582 296.732C52.1076 297.066 52.8786 297.572 53.5228 298.218C54.6922 299.374 55.3708 300.937 55.4175 302.58C55.4175 302.624 55.322 302.632 55.3147 302.58C55.0171 300.957 54.2 299.475 52.9867 298.357C51.7733 297.239 50.2295 296.546 48.5878 296.382C48.5741 296.382 48.5611 296.377 48.5514 296.367C48.5418 296.357 48.5364 296.344 48.5364 296.331C48.5364 296.317 48.5418 296.304 48.5514 296.294C48.5611 296.285 48.5741 296.279 48.5878 296.279Z" fill="#263238"/>
<path d="M62.8126 288.767C66.0953 288.678 69.9214 289.787 71.9997 292.438C72.0804 292.541 71.9262 292.659 71.8308 292.607C68.9378 291.142 65.8976 289.987 62.7612 289.163C62.7181 289.147 62.6817 289.116 62.658 289.076C62.6343 289.037 62.6247 288.99 62.6306 288.945C62.6366 288.899 62.6577 288.856 62.6907 288.824C62.7238 288.792 62.7667 288.771 62.8126 288.767Z" fill="#263238"/>
<path d="M60.2864 289.794C63.5764 289.699 67.3951 290.808 69.4734 293.466C69.5542 293.569 69.4073 293.679 69.3119 293.628C66.4219 292.165 63.384 291.015 60.2497 290.198C60.2026 290.186 60.1615 290.157 60.1336 290.117C60.1057 290.078 60.0928 290.029 60.0972 289.981C60.1016 289.932 60.123 289.887 60.1576 289.853C60.1923 289.819 60.2379 289.798 60.2864 289.794Z" fill="#263238"/>
<path d="M57.7674 290.815C61.0501 290.727 64.8762 291.836 66.9545 294.487C67.0279 294.59 66.881 294.7 66.7856 294.649C63.8944 293.178 60.8538 292.02 57.716 291.197C57.679 291.178 57.649 291.147 57.6299 291.11C57.6108 291.072 57.6035 291.03 57.6091 290.988C57.6147 290.947 57.6329 290.908 57.6612 290.877C57.6895 290.846 57.7265 290.825 57.7674 290.815Z" fill="#263238"/>
<path d="M55.2412 291.836C58.5239 291.748 62.35 292.857 64.4283 295.508C64.509 295.611 64.3622 295.721 64.2593 295.677C61.3683 294.207 58.3277 293.052 55.1898 292.232C55.1466 292.216 55.1103 292.185 55.0866 292.146C55.0629 292.106 55.0533 292.06 55.0592 292.014C55.0651 291.968 55.0863 291.926 55.1193 291.893C55.1524 291.861 55.1953 291.841 55.2412 291.836Z" fill="#263238"/>
<path d="M91.8278 294.906C95.4997 294.862 95.5805 300.59 91.8939 300.634C88.2073 300.678 88.1045 294.943 91.8278 294.906Z" fill="#263238"/>
<path d="M59.4712 284.86C61.2704 287.129 63.995 288.531 66.3523 290.118C66.4076 290.148 66.4691 290.164 66.5319 290.166C66.5947 290.168 66.6571 290.156 66.7142 290.129C66.7712 290.103 66.8213 290.063 66.8605 290.014C66.8997 289.965 66.9268 289.907 66.9398 289.846C66.9986 289.846 67.05 289.846 67.0426 289.751C66.7573 286.736 65.6806 283.851 63.9215 281.386C62.8787 279.969 60.7637 278.647 59.126 280.049C57.4884 281.452 58.421 283.538 59.4712 284.86ZM59.2803 282.142C59.5593 278.566 62.82 281.268 63.5543 282.341C64.0116 283.047 64.4213 283.783 64.7807 284.544C65.5004 286.124 66.1401 287.739 66.6975 289.383C65.5812 288.531 64.4062 287.79 63.2679 286.982C61.9093 286.013 59.126 284.118 59.2803 282.142Z" fill="#263238"/>
<path d="M78.6825 287.525C78.3961 285.388 75.9433 284.955 74.2175 285.322C71.2688 285.992 68.547 287.423 66.3229 289.471C66.2715 289.515 66.3229 289.574 66.3229 289.611C66.2898 289.665 66.27 289.725 66.2651 289.788C66.2602 289.851 66.2704 289.914 66.2948 289.973C66.3192 290.031 66.3572 290.082 66.4055 290.123C66.4538 290.163 66.5111 290.192 66.5726 290.206C69.3926 290.602 72.3522 291.381 75.2089 290.94C76.8906 290.58 78.9542 289.523 78.6825 287.525ZM70.9789 289.919C69.5909 289.758 68.2176 289.53 66.8223 289.42C68.3354 288.566 69.892 287.792 71.4856 287.099C72.2619 286.774 73.0593 286.502 73.8723 286.284C75.1354 285.968 79.3655 286.145 77.177 288.987C75.9726 290.529 72.6386 290.088 70.9789 289.89V289.919Z" fill="#263238"/>
<path d="M97.6147 276.51H65.1626L56.7907 167.484L52.3037 165.927C47.2952 162.762 43.7629 146.628 43.1827 142.177H85.8647C85.8647 142.177 92.6724 157.724 92.2464 166.566C92.0649 168.968 91.5712 171.335 90.7777 173.609L97.6147 276.51Z" fill="#FFBE9D"/>
<path d="M43.1828 142.199L30.6984 196.095C39.5797 198.714 48.7678 200.148 58.0245 200.362C73.4464 200.722 97.6368 199.018 97.6368 199.018C97.6368 199.018 96.9024 165.604 85.8867 142.199H43.1828Z" fill="#455A64"/>
<path d="M51.6868 164.275C55.2622 165.268 58.7598 166.523 62.1517 168.028C62.2839 168.079 62.1958 168.241 62.0562 168.189C58.5312 167.029 54.9328 165.913 51.4959 164.598C51.2242 164.495 51.4371 164.202 51.6868 164.275Z" fill="#FFC727"/>
<path d="M50.5632 145.644C50.5632 145.548 50.7908 145.526 50.7835 145.644C50.7881 148.677 50.9868 151.706 51.3783 154.713C51.5399 156.116 53.0013 163.842 56.1518 163.276C56.6805 163.181 56.9522 162.784 57.033 162.175C57.016 161.367 56.8748 160.567 56.6144 159.803C56.2589 158.192 55.9869 156.565 55.7993 154.926C55.4355 151.886 55.48 148.811 55.9314 145.783C55.9314 145.681 56.1371 145.688 56.1371 145.783C56.0406 150.012 56.3603 154.241 57.0918 158.407C57.4883 160.419 58.8029 163.445 56.071 163.754C53.3391 164.062 51.4885 158.995 51.1507 157.614C50.284 153.685 50.0854 149.639 50.5632 145.644Z" fill="#FFC727"/>
<path d="M56.0711 163.474C56.3582 163.988 56.6038 164.523 56.8055 165.075C57.0092 165.483 57.1101 165.934 57.0992 166.39C57.0992 166.478 56.945 166.485 56.8789 166.427C56.5606 166.047 56.312 165.615 56.1445 165.149C55.9022 164.649 55.6525 164.157 55.4101 163.68C55.2633 163.328 55.8948 163.151 56.0711 163.474Z" fill="#FFC727"/>
<path d="M43.5646 145.916C57.716 145.424 71.9702 145.424 86.1217 145.916C71.9702 146.415 57.7234 146.415 43.5646 145.916Z" fill="#FFC727"/>
<path d="M65.941 55.2493C76.8686 60.1697 79.2333 75.5769 78.5136 97.498C78.4034 100.825 50.2107 106.619 36.5733 96.3377C34.3702 94.678 37.4987 67.8659 42.911 60.1403C49.6232 50.5567 59.1774 52.209 65.941 55.2493Z" fill="#263238"/>
<path d="M66.2421 55.4624C71.9629 58.3999 75.6348 64.1501 77.2578 70.2234C78.3591 74.7323 79.1177 79.3181 79.527 83.9415C80.1411 88.3224 80.2102 92.7624 79.7326 97.1603C79.7259 97.1874 79.7103 97.2114 79.6884 97.2286C79.6664 97.2457 79.6393 97.2551 79.6114 97.2551C79.5836 97.2551 79.5565 97.2457 79.5345 97.2286C79.5126 97.2114 79.497 97.1874 79.4903 97.1603C79.5426 88.8585 78.6806 80.5763 76.9199 72.4632C75.4953 65.6555 71.9996 59.5676 65.9998 55.8957C65.7941 55.7562 65.9924 55.3522 66.2421 55.4624Z" fill="#263238"/>
<path d="M38.747 67.6679C40.7519 60.6987 45.2463 55.7123 51.9658 53.4651C52.0099 53.4651 52.0319 53.5238 51.9658 53.5385C44.6735 56.4099 40.561 62.1821 38.6956 69.8197C36.7495 78.1328 35.883 86.5708 35.1927 95.1189C35.1853 95.1514 35.1671 95.1803 35.141 95.2011C35.115 95.2219 35.0827 95.2332 35.0495 95.2332C35.0162 95.2332 34.9839 95.2219 34.9579 95.2011C34.9318 95.1803 34.9136 95.1514 34.9062 95.1189C34.9891 85.8406 36.2803 76.6127 38.747 67.6679Z" fill="#263238"/>
<path d="M58.891 102.345C56.2766 111.275 46.2964 143.771 38.5121 145.445C30.7277 147.12 24.7939 144.19 24.9334 137.808C25.0877 130.861 44.6074 107.052 50.0418 101.383C55.2118 95.9852 61.454 93.5323 58.891 102.345Z" fill="#FFBE9D"/>
<path d="M53.5301 124.751L31.609 119.5C31.609 119.5 47.8975 100.847 54.2351 96.7346C61.3659 92.0787 62.1811 96.7346 60.5802 104.681C58.9792 112.627 53.5301 124.751 53.5301 124.751Z" fill="#FFC727"/>
<path opacity="0.1" d="M46.8179 109.96C46.3299 110.592 45.736 111.133 45.0627 111.561C44.3863 111.134 43.7899 110.593 43.3002 109.96C42.6172 109.013 43.0432 107.926 43.851 107.816C44.105 107.792 44.3599 107.851 44.5781 107.983C44.7963 108.115 44.9662 108.314 45.0627 108.55C45.1559 108.313 45.324 108.113 45.5415 107.981C45.7589 107.848 46.0137 107.79 46.2671 107.816C47.0675 107.926 47.5008 109.013 46.8179 109.96ZM59.4051 107.816C59.1527 107.791 58.899 107.849 58.6828 107.981C58.4666 108.114 58.2999 108.314 58.208 108.55C58.1115 108.314 57.9416 108.115 57.7234 107.983C57.5052 107.851 57.2503 107.792 56.9963 107.816C56.1885 107.926 55.7552 109.013 56.4382 109.96C56.9315 110.592 57.5302 111.134 58.208 111.561C58.208 111.561 58.4797 111.392 58.8469 111.106C59.1921 110.048 59.5152 108.998 59.8016 107.977C59.6838 107.894 59.548 107.838 59.4051 107.816ZM52.8324 98.7904C52.5802 98.7664 52.3271 98.8251 52.1111 98.9575C51.8952 99.09 51.7282 99.2891 51.6354 99.5248C51.539 99.3575 51.4231 99.2022 51.2902 99.0621C50.7688 99.5101 50.218 100.002 49.6525 100.531C49.7086 100.677 49.7826 100.815 49.8729 100.942C50.3625 101.574 50.959 102.116 51.6354 102.543C52.3087 102.115 52.9026 101.573 53.3905 100.942C54.0735 99.9728 53.6402 98.8859 52.8324 98.7904ZM39.6871 117.605C39.4337 117.579 39.1789 117.637 38.9614 117.77C38.744 117.902 38.5759 118.103 38.4827 118.34C38.3861 118.103 38.2162 117.904 37.9981 117.772C37.7799 117.64 37.525 117.581 37.271 117.605C36.4631 117.715 36.0372 118.802 36.7202 119.757C37.0873 120.238 37.5199 120.666 38.0053 121.027L38.7397 121.204C39.3179 120.794 39.8305 120.299 40.2599 119.735C40.9282 118.802 40.4949 117.715 39.6871 117.605ZM52.825 117.605C52.5729 117.581 52.3197 117.64 52.1038 117.772C51.8879 117.905 51.7209 118.104 51.628 118.34C51.5315 118.103 51.3616 117.904 51.1434 117.772C50.9252 117.64 50.6703 117.581 50.4163 117.605C49.6085 117.715 49.1825 118.802 49.8655 119.757C50.3576 120.387 50.9536 120.928 51.628 121.358C52.2994 120.927 52.8929 120.386 53.3832 119.757C54.0735 118.802 53.6402 117.715 52.8324 117.605H52.825Z" fill="black"/>
<path d="M35.6627 116.196C36.4484 116.254 43.3002 117.782 44.7763 118.149C46.2524 118.516 52.333 119.948 53.8311 120.448C53.8424 120.452 53.8521 120.459 53.8589 120.469C53.8658 120.479 53.8694 120.491 53.8694 120.503C53.8694 120.515 53.8658 120.526 53.8589 120.536C53.8521 120.546 53.8424 120.554 53.8311 120.558C52.2743 120.345 46.1422 118.92 44.6294 118.582C43.1166 118.244 36.3677 116.577 35.6553 116.291C35.5672 116.269 35.6113 116.188 35.6627 116.196Z" fill="#263238"/>
<path opacity="0.1" d="M60.6168 104.665C59.0158 112.597 53.5374 124.75 53.5374 124.75L39.5842 121.402L60.1468 95.3093C61.6596 96.4917 61.5494 100.024 60.6168 104.665Z" fill="black"/>
<path d="M88.3763 142.772L41.9857 142.199C41.8095 142.031 47.6404 109.277 54.2204 98.3498C55.8948 95.5665 63.4001 91.4907 68.7831 96.8223C80.1439 108.073 88.5892 142.486 88.3763 142.772Z" fill="#FFC727"/>
<path opacity="0.1" d="M59.9632 109.96C59.4753 110.592 58.8814 111.133 58.208 111.561C57.5287 111.136 56.9296 110.594 56.4382 109.96C55.7552 109.013 56.1885 107.926 56.9963 107.816C57.2503 107.792 57.5053 107.851 57.7234 107.983C57.9416 108.115 58.1115 108.314 58.208 108.55C58.2999 108.314 58.4667 108.114 58.6828 107.981C58.899 107.849 59.1527 107.791 59.4051 107.816C60.2496 107.926 60.6462 109.013 59.9632 109.96ZM72.5504 107.816C72.2972 107.791 72.0429 107.85 71.8258 107.982C71.6086 108.115 71.4402 108.314 71.346 108.55C71.2528 108.313 71.0847 108.113 70.8673 107.981C70.6498 107.848 70.395 107.79 70.1417 107.816C69.3338 107.926 68.9006 109.013 69.5835 109.96C70.0732 110.593 70.6697 111.134 71.346 111.561C72.0224 111.134 72.6189 110.593 73.1085 109.96C73.7915 109.013 73.3582 107.926 72.5504 107.816ZM53.6402 99.4147C53.2216 100.186 52.8177 101.038 52.4138 101.963C52.788 101.657 53.1234 101.307 53.4126 100.92C53.5789 100.711 53.6874 100.462 53.7273 100.198C53.7673 99.9336 53.7373 99.6636 53.6402 99.4147ZM65.9777 98.7904C65.7254 98.7652 65.4717 98.8233 65.2555 98.956C65.0393 99.0886 64.8726 99.2884 64.7807 99.5248C64.6842 99.2887 64.5143 99.0898 64.2961 98.9576C64.0779 98.8253 63.823 98.7667 63.569 98.7904C62.7612 98.9006 62.3279 99.9875 63.0109 100.935C63.5023 101.568 64.1014 102.11 64.7807 102.536C65.4541 102.108 66.0479 101.566 66.5359 100.935C67.2188 99.9728 66.7856 98.8859 65.9777 98.7904ZM46.2965 126.645C46.0431 126.62 45.7883 126.678 45.5708 126.81C45.3534 126.943 45.1853 127.143 45.0921 127.38C45.0921 127.328 45.0113 127.248 44.9379 127.152C44.7322 128.077 44.534 128.973 44.343 129.847C44.5767 130.045 44.8219 130.229 45.0774 130.398C45.7488 129.967 46.3423 129.426 46.8326 128.797C47.5008 127.842 47.0676 126.755 46.2965 126.645ZM59.4345 126.645C59.1821 126.62 58.9284 126.678 58.7122 126.811C58.496 126.943 58.3293 127.143 58.2374 127.38C58.1409 127.144 57.971 126.945 57.7528 126.812C57.5346 126.68 57.2797 126.622 57.0257 126.645C56.2179 126.755 55.7846 127.842 56.4676 128.797C56.9614 129.428 57.5601 129.97 58.2374 130.398C58.9088 129.967 59.5023 129.426 59.9926 128.797C60.6462 127.842 60.2496 126.755 59.4051 126.645H59.4345ZM72.5798 126.645C72.3266 126.621 72.0723 126.679 71.8551 126.812C71.638 126.944 71.4696 127.143 71.3754 127.38C71.2822 127.143 71.1141 126.943 70.8967 126.81C70.6792 126.678 70.4244 126.62 70.171 126.645C69.3632 126.755 68.9299 127.842 69.6129 128.797C70.105 129.427 70.701 129.969 71.3754 130.398C72.0498 129.969 72.6459 129.427 73.1379 128.797C73.7915 127.842 73.3582 126.755 72.5504 126.645H72.5798ZM83.9112 126.726C83.7273 126.643 83.5232 126.615 83.3237 126.645C82.5159 126.755 82.0826 127.842 82.7656 128.797C83.2469 129.413 83.8277 129.944 84.484 130.369C84.484 130.369 84.675 130.251 84.954 130.045C84.6236 128.995 84.2637 127.872 83.8818 126.697L83.9112 126.726ZM52.8324 117.605C52.5802 117.581 52.3271 117.64 52.1112 117.772C51.8952 117.905 51.7282 118.104 51.6354 118.34C51.5388 118.103 51.3689 117.905 51.1508 117.772C50.9326 117.64 50.6777 117.581 50.4237 117.605C49.6158 117.715 49.1899 118.802 49.8729 119.757C50.3649 120.387 50.961 120.928 51.6354 121.358C52.3068 120.927 52.9003 120.386 53.3905 119.757C54.0735 118.802 53.6402 117.715 52.8324 117.605ZM65.9777 117.605C65.7254 117.58 65.4717 117.638 65.2555 117.771C65.0393 117.903 64.8726 118.103 64.7807 118.34C64.6842 118.103 64.5143 117.905 64.2961 117.772C64.0779 117.64 63.823 117.581 63.569 117.605C62.7612 117.715 62.3279 118.802 63.0109 119.757C63.5047 120.388 64.1034 120.93 64.7807 121.358C65.4521 120.927 66.0456 120.386 66.5359 119.757C67.2188 118.802 66.7856 117.715 65.9777 117.605ZM79.1231 117.605C78.8699 117.581 78.6156 117.639 78.3984 117.771C78.1813 117.904 78.0129 118.103 77.9187 118.34C77.8255 118.103 77.6574 117.902 77.4399 117.77C77.2225 117.637 76.9677 117.579 76.7143 117.605C75.9065 117.715 75.4732 118.802 76.1562 119.757C76.6483 120.387 77.2443 120.928 77.9187 121.358C78.5931 120.928 79.1892 120.387 79.6812 119.757C80.3642 118.802 79.9309 117.715 79.1231 117.605ZM52.8324 136.442C52.5797 136.414 52.3249 136.471 52.1082 136.604C51.8915 136.737 51.7251 136.938 51.6354 137.176C51.5418 136.938 51.3726 136.737 51.1536 136.604C50.9347 136.472 50.6782 136.415 50.4237 136.442C49.6158 136.552 49.1899 137.639 49.8729 138.586C50.3649 139.216 50.961 139.758 51.6354 140.187C52.3068 139.757 52.9003 139.215 53.3905 138.586C54.0735 137.639 53.6402 136.552 52.8324 136.442ZM65.9777 136.442C65.7248 136.413 65.4695 136.469 65.2525 136.602C65.0355 136.736 64.8694 136.938 64.7807 137.176C64.6872 136.938 64.5179 136.737 64.299 136.604C64.08 136.472 63.8235 136.415 63.569 136.442C62.7612 136.552 62.3279 137.639 63.0109 138.586C63.5047 139.217 64.1034 139.759 64.7807 140.187C65.4521 139.757 66.0456 139.215 66.5359 138.586C67.2188 137.639 66.7856 136.552 65.9777 136.442ZM79.1231 136.442C78.8695 136.415 78.6142 136.472 78.3965 136.605C78.1788 136.738 78.0109 136.939 77.9187 137.176C77.8276 136.938 77.6599 136.736 77.4419 136.603C77.224 136.471 76.9681 136.414 76.7143 136.442C75.9065 136.552 75.4732 137.639 76.1562 138.586C76.6483 139.216 77.2443 139.758 77.9187 140.187C78.5931 139.758 79.1892 139.216 79.6812 138.586C80.3642 137.639 79.9309 136.552 79.1231 136.442Z" fill="black"/>
<path d="M28.363 134.283C22.2897 136.155 25.2346 143.639 28.9872 146.033C37.7997 151.673 55.2485 157.687 64.6339 158.341C67.6521 158.547 70.1123 137.529 67.1381 136.229C64.0243 134.885 40.6858 130.471 28.363 134.283Z" fill="#FFBE9D"/>
<path d="M93.3993 143.962C93.4583 144.675 93.2979 145.39 92.9396 146.009C92.5813 146.629 92.0421 147.124 91.3945 147.428C92.1535 148.378 92.5585 149.562 92.5401 150.777C92.4006 152.914 88.9857 153.634 88.9857 153.634C89.5716 154.781 89.7969 156.079 89.6319 157.357C89.3015 159.391 85.9601 160.618 85.9601 160.618C85.9205 161.964 85.3994 163.251 84.4913 164.246C81.9357 166.801 76.5601 165.553 73.1379 164.796C69.7157 164.04 59.853 158.106 58.0317 157.262L63.5616 135.811C63.5616 135.811 79.8868 134.841 83.7863 136.303C87.0469 137.536 93.0688 141.245 93.3993 143.962Z" fill="#FFBE9D"/>
<path d="M91.3431 147.311C88.1632 145.166 84.5207 144.072 80.9517 142.78C80.8709 142.78 80.8268 142.875 80.9076 142.897C84.4767 144.145 87.752 146.084 91.2623 147.472C91.2837 147.483 91.3085 147.485 91.3313 147.477C91.354 147.47 91.3728 147.453 91.3835 147.432C91.3942 147.41 91.396 147.386 91.3884 147.363C91.3808 147.34 91.3645 147.321 91.3431 147.311Z" fill="#263238"/>
<path d="M88.9784 153.333C88.2089 152.919 87.3895 152.605 86.5402 152.4C85.6516 152.128 84.7631 151.871 83.8671 151.629C82.0752 151.144 80.276 150.696 78.4621 150.307C78.3813 150.307 78.3299 150.41 78.418 150.432C80.2026 150.916 81.9798 151.43 83.7349 151.996C84.6235 152.275 85.4974 152.569 86.3787 152.863C87.189 153.198 88.0337 153.445 88.8976 153.597C88.9326 153.608 88.9705 153.604 89.0029 153.587C89.0352 153.57 89.0595 153.54 89.0702 153.505C89.0809 153.47 89.0772 153.432 89.06 153.4C89.0428 153.367 89.0134 153.343 88.9784 153.333Z" fill="#263238"/>
<path d="M85.8868 160.588C85.1837 160.22 84.4242 159.972 83.6396 159.854C82.8171 159.656 82.0019 159.443 81.1794 159.23C79.5491 158.804 77.9114 158.378 76.2885 157.893C76.2077 157.893 76.1636 157.989 76.2444 158.011C77.8894 158.517 79.5271 159.039 81.1721 159.523L83.6102 160.258C84.3305 160.534 85.0934 160.683 85.8647 160.698C85.872 160.7 85.8794 160.7 85.8866 160.698C85.8939 160.697 85.9008 160.694 85.9069 160.69C85.913 160.686 85.9183 160.681 85.9224 160.675C85.9265 160.668 85.9294 160.662 85.9308 160.654C85.9323 160.647 85.9323 160.64 85.9308 160.632C85.9294 160.625 85.9266 160.618 85.9225 160.612C85.9184 160.606 85.9131 160.601 85.907 160.597C85.9009 160.593 85.894 160.59 85.8868 160.588Z" fill="#263238"/>
<path d="M32.9529 133.306C37.8698 132.288 42.9345 132.203 47.8828 133.057C42.9771 132.932 37.8732 133.057 32.9529 133.306Z" fill="#263238"/>
<path d="M73.0865 98.7904C79.7987 105.282 103.93 131.624 101.551 139.96C99.3111 147.707 91.9674 148.772 87.3555 144.366C80.6653 137.977 70.597 113.647 68.1075 106.178C65.7428 99.1135 66.4918 92.4454 73.0865 98.7904Z" fill="#FFBE9D"/>
<path d="M74.2836 124.758L95.7421 117.928C95.7421 117.928 78.117 100.516 71.5076 96.8518C64.0537 92.7319 63.5764 97.4466 65.7501 105.246C67.9239 113.045 74.2836 124.758 74.2836 124.758Z" fill="#FFC727"/>
<path d="M95.742 117.928L74.2836 124.765C74.2836 124.765 67.9312 113.015 65.7575 105.246C63.5837 97.4759 64.061 92.7612 71.515 96.8517C71.8895 97.0647 72.3081 97.3143 72.7487 97.5861L73.2995 97.9533C76.3955 100.201 79.3645 102.618 82.1928 105.194L82.369 105.348C84.9173 107.61 87.4656 109.975 89.6541 112.039L90.5647 112.905C93.6123 115.828 95.742 117.928 95.742 117.928Z" fill="#FFC727"/>
<path d="M95.742 117.928L74.2836 124.765C74.2836 124.765 67.9312 113.015 65.7575 105.246C63.5837 97.4759 64.061 92.7612 71.515 96.8517C71.8895 97.0647 72.3081 97.3143 72.7487 97.5861L73.2995 97.9533C76.3955 100.201 79.3645 102.618 82.1928 105.194L82.369 105.348C84.9173 107.61 87.4656 109.975 89.6541 112.039L90.5647 112.905C93.6123 115.828 95.742 117.928 95.742 117.928Z" fill="#FFC727"/>
<path opacity="0.1" d="M73.1086 109.96C72.6189 110.593 72.0224 111.134 71.3461 111.561C70.6697 111.134 70.0733 110.593 69.5836 109.96C68.9006 109.013 69.3339 107.926 70.1417 107.816C70.3951 107.79 70.6499 107.848 70.8673 107.981C71.0848 108.113 71.2529 108.313 71.3461 108.55C71.4403 108.314 71.6086 108.115 71.8258 107.982C72.043 107.85 72.2973 107.791 72.5505 107.816C73.3583 107.926 73.7916 109.013 73.1086 109.96ZM85.145 107.882C84.8602 108.028 84.6307 108.262 84.4914 108.55C84.3972 108.314 84.2289 108.115 84.0117 107.982C83.7945 107.85 83.5402 107.791 83.287 107.816C82.4792 107.926 82.046 109.013 82.7289 109.96C83.2186 110.593 83.8151 111.134 84.4914 111.561C85.1678 111.134 85.7643 110.593 86.2539 109.96C86.4225 109.734 86.5311 109.469 86.5697 109.189C86.0997 108.756 85.6297 108.337 85.145 107.882ZM65.9778 98.7904C65.7254 98.7652 65.4717 98.8233 65.2556 98.956C65.0394 99.0886 64.8726 99.2884 64.7808 99.5248L64.6412 99.3118C64.6964 100.334 64.8314 101.351 65.0451 102.352C65.6088 101.963 66.1049 101.484 66.5139 100.935C67.2189 99.9728 66.7856 98.8859 65.9778 98.7904ZM75.8258 99.87C75.808 100.253 75.9249 100.629 76.1563 100.935C76.6459 101.567 77.2424 102.109 77.9188 102.536C78.1365 102.4 78.345 102.251 78.543 102.088C77.603 101.28 76.6924 100.531 75.8258 99.8553V99.87ZM79.1231 117.62C78.8699 117.595 78.6157 117.654 78.3985 117.786C78.1813 117.919 78.013 118.118 77.9188 118.354C77.8256 118.117 77.6574 117.917 77.44 117.785C77.2226 117.652 76.9677 117.594 76.7144 117.62C75.9066 117.73 75.4733 118.817 76.1563 119.772C76.6483 120.402 77.2444 120.943 77.9188 121.372C78.5931 120.943 79.1892 120.402 79.6813 119.772C80.3642 118.802 79.9309 117.715 79.1231 117.605V117.62ZM92.2685 117.62C92.0153 117.595 91.761 117.654 91.5438 117.786C91.3266 117.919 91.1583 118.118 91.0641 118.354C90.9699 118.118 90.8015 117.919 90.5844 117.786C90.3672 117.654 90.1129 117.595 89.8597 117.62C89.0519 117.73 88.6186 118.817 89.3016 119.772L89.4411 119.948L93.1644 118.765C93.1818 118.496 93.1005 118.23 92.9355 118.016C92.7706 117.803 92.5334 117.656 92.2685 117.605V117.62Z" fill="black"/>
<path d="M91.512 115.079C90.7336 115.204 84.014 117.223 82.56 117.701C81.1059 118.178 75.1575 120.036 73.7034 120.638C73.6898 120.638 73.6767 120.644 73.667 120.653C73.6574 120.663 73.652 120.676 73.652 120.69C73.652 120.703 73.6574 120.716 73.667 120.726C73.6767 120.736 73.6898 120.741 73.7034 120.741C75.2382 120.418 81.2454 118.538 82.7362 118.097C84.227 117.657 90.8144 115.498 91.5487 115.16C91.6075 115.153 91.5634 115.072 91.512 115.079Z" fill="#263238"/>
<path d="M76.4059 124.09C75.6715 124.361 74.9371 124.618 74.2468 124.875L74.2101 124.802C72.3301 121.365 70.5823 117.862 69.0694 114.256C68.5627 113.052 68.078 111.84 67.6521 110.584C68.739 112.957 69.8552 115.307 70.9935 117.657L74.401 124.699L74.2909 124.648C75.0252 124.45 75.7596 124.251 76.4352 124.068L76.4059 124.09Z" fill="#263238"/>
<path d="M67.4318 112.435C68.1678 113.063 68.7955 113.807 69.2897 114.638C68.4236 114.154 67.7633 113.371 67.4318 112.435Z" fill="#263238"/>
<path d="M65.684 96.2937C65.3388 97.1896 60.0807 102.558 55.8874 101.757C54.5215 101.493 55.623 93.9877 55.623 93.9877L55.5716 93.4076L54.9401 85.3882L66.3376 80.2476C66.3376 80.2476 65.8235 95.9192 65.684 96.2937Z" fill="#FFBE9D"/>
<path d="M65.706 95.9412C60.771 96.2863 57.3341 93.8335 55.4908 92.3868L54.9401 85.3809L66.3376 80.2402C66.3376 80.2402 65.9043 93.5618 65.706 95.9412Z" fill="#263238"/>
<path d="M75.8919 70.6784C80.658 87.4736 71.1331 92.225 67.5126 93.2532C64.2226 94.1785 52.9059 96.9251 46.4213 80.71C39.9368 64.495 46.2451 56.9676 53.6623 54.4487C61.0795 51.9298 71.1184 53.8759 75.8919 70.6784Z" fill="#FFBE9D"/>
<path d="M73.2922 70.4807C72.8956 70.6129 72.5137 70.6716 72.1172 70.7671C71.7193 70.9256 71.2798 70.9463 70.8687 70.8258C70.7463 70.7656 70.6471 70.6669 70.586 70.5449C70.525 70.4229 70.5057 70.2843 70.5309 70.1502C70.6275 69.8942 70.7908 69.6686 71.0038 69.4969C71.2169 69.3251 71.4719 69.2135 71.7427 69.1735C72.28 69.0042 72.8611 69.0408 73.373 69.2763C73.4832 69.3381 73.5737 69.4298 73.6339 69.5409C73.694 69.652 73.7215 69.7779 73.7131 69.904C73.7046 70.0301 73.6606 70.1512 73.5861 70.2533C73.5116 70.3553 73.4097 70.4342 73.2922 70.4807Z" fill="#263238"/>
<path d="M62.3132 74.5562C62.7143 74.5783 63.1164 74.5783 63.5176 74.5562C63.9451 74.602 64.3758 74.5066 64.744 74.2845C64.8422 74.1926 64.9081 74.0715 64.9319 73.9392C64.9557 73.8069 64.9362 73.6704 64.8762 73.5501C64.7148 73.3297 64.498 73.1559 64.2478 73.0463C63.9976 72.9366 63.7229 72.8951 63.4515 72.9259C62.8886 72.9063 62.3387 73.0975 61.9093 73.462C61.8296 73.5515 61.7758 73.6609 61.7536 73.7786C61.7313 73.8963 61.7415 74.0179 61.783 74.1303C61.8244 74.2426 61.8957 74.3416 61.9891 74.4167C62.0825 74.4917 62.1945 74.5399 62.3132 74.5562Z" fill="#263238"/>
<path d="M64.1124 75.129C62.203 75.32 62.7318 79.1241 64.5016 78.9405C66.2715 78.7569 65.7134 74.9675 64.1124 75.129Z" fill="#263238"/>
<path d="M63.3928 75.4298C63.0917 75.6942 62.82 76.1201 62.4234 76.2156C62.0268 76.3111 61.5642 75.9733 61.2043 75.6354C61.2043 75.5987 61.1382 75.6354 61.1456 75.6868C61.2411 76.4212 61.6229 77.1556 62.4161 77.1556C63.2092 77.1556 63.569 76.4212 63.6498 75.6868C63.6645 75.5106 63.5176 75.327 63.3928 75.4298Z" fill="#263238"/>
<path d="M72.5505 73.5281C74.4231 73.1388 75.0767 76.9209 73.3362 77.2881C71.5958 77.6553 70.9789 73.8585 72.5505 73.5281Z" fill="#263238"/>
<path d="M73.3802 73.6452C73.7107 73.7921 74.0705 74.1079 74.4304 74.0712C74.7902 74.0345 75.084 73.5645 75.2823 73.1238C75.2823 73.0798 75.341 73.1238 75.3483 73.1238C75.4952 73.8582 75.3851 74.6366 74.7094 74.8937C74.0338 75.1507 73.5271 74.5852 73.2407 73.8949C73.1819 73.8215 73.248 73.5865 73.3802 73.6452Z" fill="#263238"/>
<path d="M66.198 85.4176C66.5064 85.6673 66.8222 86.0272 67.2555 86.0198C67.695 85.9733 68.1187 85.8304 68.4966 85.6012C68.4966 85.6012 68.5774 85.6012 68.5553 85.66C68.4068 85.9137 68.191 86.1214 67.9318 86.26C67.6726 86.3987 67.3801 86.463 67.0866 86.4458C66.8395 86.4046 66.61 86.2914 66.4271 86.1202C66.2441 85.949 66.1159 85.7276 66.0585 85.4837C66.0585 85.4176 66.1246 85.3809 66.198 85.4176Z" fill="#263238"/>
<path d="M70.4648 80.4312C70.4648 80.4312 70.9715 82.1497 71.1037 82.9795C71.1037 83.0603 70.9201 83.1264 70.641 83.1852C70.641 83.1852 70.641 83.1852 70.6043 83.1852C69.9126 83.4218 69.1691 83.4634 68.4553 83.3054C67.7415 83.1473 67.085 82.7958 66.5579 82.2892C66.4918 82.2158 66.5579 82.1203 66.668 82.157C67.8308 82.7206 69.1454 82.8907 70.4133 82.6417C70.4133 82.4067 69.444 79.7042 69.5762 79.7042C70.1416 79.7042 71.1477 79.8144 71.5222 79.8511C71.2212 78.7201 70.193 75.577 69.6422 73.5281C69.6055 73.3959 69.8038 73.3225 69.8479 73.44C70.8802 75.7062 71.7585 78.0395 72.4769 80.4239C72.5357 80.6075 70.8173 80.5194 70.4648 80.4312Z" fill="#263238"/>
<path d="M70.4722 82.5534C70.1596 83.3247 69.6538 84.0025 69.0034 84.5216C68.6364 84.7906 68.1952 84.9394 67.7403 84.9475C66.7415 84.9475 66.4918 84.1103 66.4625 83.3319C66.4485 82.9201 66.4855 82.5082 66.5726 82.1055C67.7917 82.6657 69.1577 82.8226 70.4722 82.5534Z" fill="#263238"/>
<path d="M68.9887 84.5216C68.6217 84.7906 68.1805 84.9394 67.7256 84.9475C66.7268 84.9475 66.4771 84.1103 66.4478 83.3319C66.9434 83.2152 67.4639 83.2693 67.925 83.4852C68.3861 83.701 68.7609 84.0662 68.9887 84.5216Z" fill="#FF99BA"/>
<path d="M47.9855 84.3453C48.9703 83.5329 49.729 82.4802 50.1882 81.289C50.6475 80.0978 50.7918 78.8083 50.6072 77.545C53.3195 75.5205 55.4375 72.8039 56.7393 69.6798C56.7393 70.069 56.4676 72.8891 56.306 74.3137C66.7635 69.9075 68.1882 60.5589 68.1882 60.5589C72.5577 63.445 73.7988 65.6261 74.5699 66.6762C74.5699 66.6762 73.1012 59.7584 68.5848 55.8736C63.077 51.1075 57.5691 53.4134 57.5691 53.4134C54.7229 53.3125 51.9049 54.0067 49.4313 55.418C46.9576 56.8293 44.926 58.9019 43.5646 61.4034C38.2697 70.8842 47.9855 84.3453 47.9855 84.3453Z" fill="#263238"/>
<path d="M64.1932 70.6859C62.6606 72.0483 60.9266 73.1655 59.0526 73.998C61.1209 72.9121 62.9421 71.4101 64.4018 69.5864C65.8615 67.7627 66.9282 65.6568 67.5347 63.4009C67.9896 61.9138 68.1517 60.3526 68.012 58.8037C68.0081 58.7906 68.0073 58.7767 68.0097 58.7632C68.0121 58.7497 68.0176 58.7369 68.0258 58.7259C68.034 58.7149 68.0447 58.7059 68.0569 58.6998C68.0692 58.6936 68.0827 58.6904 68.0965 58.6904C68.1102 58.6904 68.1237 58.6936 68.136 58.6998C68.1482 58.7059 68.1589 58.7149 68.1671 58.7259C68.1753 58.7369 68.1808 58.7497 68.1832 58.7632C68.1856 58.7767 68.1848 58.7906 68.1809 58.8037C68.4802 60.3254 68.5274 61.886 68.3204 63.423C68.0592 64.9205 67.5239 66.357 66.7415 67.6603C66.0444 68.801 65.1861 69.8349 64.1932 70.73V70.6859Z" fill="#263238"/>
<path d="M51.0993 80.5413C51.0993 80.5413 46.3259 75.9074 44.1521 77.7139C41.9784 79.5205 46.2892 86.7321 49.3442 87.2608C49.7315 87.3555 50.134 87.3704 50.5272 87.3045C50.9204 87.2386 51.2961 87.0934 51.6314 86.8777C51.9667 86.6619 52.2545 86.3802 52.4774 86.0496C52.7003 85.7191 52.8536 85.3466 52.9279 84.9549L51.0993 80.5413Z" fill="#FFBE9D"/>
<path d="M45.4372 79.7483C45.4294 79.7518 45.4227 79.7574 45.418 79.7646C45.4133 79.7718 45.4108 79.7801 45.4108 79.7887C45.4108 79.7973 45.4133 79.8057 45.418 79.8129C45.4227 79.82 45.4294 79.8257 45.4372 79.8291C47.5963 80.255 48.9989 81.9074 50.1079 83.6846C49.3735 83.0604 48.4849 82.8107 47.633 83.6846C47.6267 83.6894 47.6215 83.6954 47.6175 83.7023C47.6136 83.7091 47.611 83.7167 47.61 83.7245C47.609 83.7324 47.6095 83.7404 47.6116 83.748C47.6136 83.7556 47.6172 83.7628 47.622 83.769C47.6268 83.7753 47.6328 83.7806 47.6397 83.7845C47.6465 83.7885 47.6541 83.791 47.6619 83.792C47.6698 83.7931 47.6777 83.7925 47.6854 83.7905C47.693 83.7884 47.7002 83.7849 47.7064 83.7801C48.0362 83.6018 48.4131 83.5302 48.7852 83.5749C49.1574 83.6196 49.5066 83.7785 49.7847 84.0297C50.2502 84.4509 50.6688 84.9212 51.0332 85.4324C51.158 85.594 51.4665 85.4324 51.3563 85.2488V85.2047C50.8936 82.6344 48.2279 79.4766 45.4372 79.7483Z" fill="#263238"/>
<path d="M90.2195 144.696C94.3761 149.646 100.971 143.852 101.683 139.387C103.335 128.922 99.928 108.462 96.7701 99.4148C95.7567 96.4773 77.2798 103.615 77.2798 106.92C77.2725 110.372 81.7815 134.643 90.2195 144.696Z" fill="#FFBE9D"/>
<path d="M97.4972 105.701C97.4972 105.811 98.1654 99.8258 98.562 94.0169C98.7676 90.9692 98.0039 84.7637 97.13 82.4578C95.8228 79.0062 88.1412 65.3983 84.8071 67.1901C81.7815 68.8131 89.867 79.6745 89.867 79.6745C89.867 79.6745 82.6774 68.0053 79.3948 70.627C76.1121 73.2487 86.8781 84.2937 86.8781 84.2937C86.8781 84.2937 79.2259 72.4703 76.2663 75.7089C74.0632 78.1544 83.2209 88.7074 83.2209 88.7074C83.2209 88.7074 76.5674 78.5876 74.166 81.0037C71.5076 83.6769 79.3727 93.9508 79.3727 93.9508C74.2909 101.126 74.2321 105.701 77.904 111.642L97.4972 105.701Z" fill="#FFBE9D"/>
<path d="M92.6063 83.5377C91.8131 82.135 91.02 80.7177 90.102 79.3884C89.1841 78.0592 88.222 76.7667 87.1645 75.533C85.8448 73.8951 84.339 72.4164 82.6775 71.1267C85.4534 73.6456 88.8095 78.3383 89.7275 79.6675C90.6455 80.9967 91.6222 82.2672 92.5402 83.5891C92.5622 83.6111 92.6283 83.5744 92.6063 83.5377Z" fill="#263238"/>
<path d="M87.8768 86.9378C86.7899 85.19 85.7692 83.4202 84.6015 81.7164C83.4338 80.0127 82.1854 78.5292 80.9296 76.9209C80.8268 76.7961 80.7974 76.9209 80.8856 77.0237C82.0973 78.6761 83.0887 80.2991 84.2857 81.9661C85.4827 83.6331 86.7385 85.2634 87.8621 86.9672C87.8548 86.9892 87.8988 86.9599 87.8768 86.9378Z" fill="#263238"/>
<path d="M84.3445 90.5803C82.7386 87.8053 80.8564 85.1997 78.7265 82.8032C78.6237 82.6784 78.5943 82.8032 78.7265 82.9354C80.6433 85.425 82.1634 87.5473 84.2858 90.6317C84.2858 90.7125 84.3812 90.639 84.3445 90.5803Z" fill="#263238"/>
<path d="M79.3434 93.9364C77.2137 91.3587 71.537 84.2426 73.7034 80.9306C75.0914 79.3664 77.2137 81.1509 78.352 82.1717L77.8746 82.5903C76.7584 80.8058 74.4524 77.0384 76.6556 75.3567C74.8049 77.1559 77.2504 80.5634 78.3887 82.2158L80.1439 84.5951L77.9407 82.6344C76.2003 81.0628 73.5345 79.7703 74.0118 83.4055C74.8784 87.2609 77.2724 90.6244 79.3728 93.9364H79.3434Z" fill="#263238"/>
<path d="M80.4303 122.805C82.1928 127.659 83.7791 132.829 85.8647 137.559C83.0741 133.094 81.4951 127.938 80.4303 122.805Z" fill="#263238"/>
<path d="M81.0472 135.311C83.1622 139.056 87.1719 145.827 91.681 146.569C93.2505 146.855 94.8687 146.695 96.3523 146.109C97.8358 145.522 99.1254 144.532 100.075 143.25C99.5105 144.189 98.7609 145.003 97.8717 145.644C95.1839 147.546 91.2624 147.788 88.4938 145.813C85.1893 142.97 82.626 139.366 81.0251 135.311H81.0472Z" fill="#263238"/>
<path d="M72.7192 23.429V50.6596H76.5453V57.269L83.1474 50.6596H119.396V23.429H72.7192Z" fill="white"/>
<path d="M72.734 23.429L72.9543 50.6596L72.734 50.4393H76.5601H76.7951V50.6817L76.8318 57.2911L76.3692 57.1001L82.9418 50.4907C83.0814 50.241 119.183 50.432 119.411 50.3512L119.051 50.711L119.103 23.4804L119.411 23.7962C107.778 23.7521 84.3739 23.5758 72.734 23.4804V23.429ZM72.734 23.429C84.484 23.3335 107.918 23.1499 119.734 23.1499V23.4657L119.778 50.6964V51.0562H119.418C119.492 50.9314 82.3543 51.2031 83.3898 50.9167L76.7804 57.5261L76.3104 57.9887V57.3278V50.7184L76.5528 50.9607H72.7267H72.5063V50.7404L72.7267 23.5097L72.734 23.429Z" fill="#263238"/>
<path d="M104.885 37.0444C104.885 37.4802 105.014 37.9061 105.256 38.2684C105.498 38.6307 105.842 38.9131 106.245 39.0799C106.648 39.2466 107.091 39.2902 107.518 39.2052C107.945 39.1202 108.338 38.9104 108.646 38.6023C108.954 38.2942 109.164 37.9016 109.249 37.4742C109.334 37.0469 109.29 36.6039 109.124 36.2013C108.957 35.7988 108.674 35.4547 108.312 35.2126C107.95 34.9705 107.524 34.8413 107.088 34.8413C106.504 34.8413 105.943 35.0734 105.53 35.4866C105.117 35.8998 104.885 36.4601 104.885 37.0444Z" fill="#263238"/>
<path d="M93.8473 37.0444C93.8473 37.4802 93.9765 37.9061 94.2186 38.2684C94.4607 38.6307 94.8047 38.9131 95.2073 39.0799C95.6099 39.2466 96.0529 39.2902 96.4802 39.2052C96.9076 39.1202 97.3002 38.9104 97.6083 38.6023C97.9164 38.2942 98.1262 37.9016 98.2112 37.4742C98.2962 37.0469 98.2526 36.6039 98.0858 36.2013C97.9191 35.7988 97.6367 35.4547 97.2744 35.2126C96.9121 34.9705 96.4862 34.8413 96.0504 34.8413C95.4661 34.8413 94.9057 35.0734 94.4926 35.4866C94.0794 35.8998 93.8473 36.4601 93.8473 37.0444Z" fill="#263238"/>
<path d="M82.8097 37.0444C82.8097 37.4802 82.9389 37.9061 83.181 38.2684C83.4231 38.6307 83.7671 38.9131 84.1697 39.0799C84.5723 39.2466 85.0153 39.2902 85.4426 39.2052C85.87 39.1202 86.2626 38.9104 86.5707 38.6023C86.8788 38.2942 87.0886 37.9016 87.1736 37.4742C87.2586 37.0469 87.215 36.6039 87.0482 36.2013C86.8815 35.7988 86.5991 35.4547 86.2368 35.2126C85.8745 34.9705 85.4486 34.8413 85.0128 34.8413C84.4285 34.8413 83.8681 35.0734 83.455 35.4866C83.0418 35.8998 82.8097 36.4601 82.8097 37.0444Z" fill="#263238"/>
<path d="M263.231 28.9658V56.1965H259.405V62.8059L252.803 56.1965H216.554V28.9658H263.231Z" fill="white"/>
<path d="M263.231 28.9662L263.452 56.1968V56.4172H263.231H259.405L259.647 56.1748L259.684 62.7842V63.4378L259.214 62.9751L252.605 56.3658C253.78 56.6375 216.319 56.4098 216.576 56.5053H216.216V56.1968L216.26 28.9662V28.6504H216.576C228.216 28.7165 251.621 28.856 263.253 28.9662H263.231ZM263.231 28.9662C251.599 29.0837 228.179 29.2232 216.554 29.282L216.87 28.9662L216.914 56.1968L216.554 55.837L252.803 55.8811H252.935L253.023 55.9765L259.633 62.5859L259.163 62.7842L259.199 56.1748V55.9325H259.434H263.261L263.04 56.1528L263.261 28.9221L263.231 28.9662Z" fill="#263238"/>
<path d="M231.065 42.5813C231.065 43.017 230.936 43.443 230.694 43.8053C230.452 44.1676 230.108 44.45 229.705 44.6167C229.303 44.7835 228.86 44.8271 228.433 44.7421C228.005 44.6571 227.613 44.4473 227.304 44.1392C226.996 43.831 226.787 43.4385 226.702 43.0111C226.617 42.5837 226.66 42.1408 226.827 41.7382C226.994 41.3356 227.276 40.9916 227.638 40.7495C228.001 40.5074 228.427 40.3782 228.862 40.3782C229.447 40.3782 230.007 40.6103 230.42 41.0235C230.833 41.4366 231.065 41.997 231.065 42.5813Z" fill="#263238"/>
<path d="M242.103 42.5813C242.103 43.017 241.974 43.443 241.732 43.8053C241.49 44.1676 241.146 44.45 240.743 44.6167C240.341 44.7835 239.898 44.8271 239.47 44.7421C239.043 44.6571 238.65 44.4473 238.342 44.1392C238.034 43.831 237.824 43.4385 237.739 43.0111C237.654 42.5837 237.698 42.1408 237.865 41.7382C238.031 41.3356 238.314 40.9916 238.676 40.7495C239.038 40.5074 239.464 40.3782 239.9 40.3782C240.484 40.3782 241.045 40.6103 241.458 41.0235C241.871 41.4366 242.103 41.997 242.103 42.5813Z" fill="#263238"/>
<path d="M253.141 42.5813C253.141 43.017 253.012 43.443 252.77 43.8053C252.528 44.1676 252.183 44.45 251.781 44.6167C251.378 44.7835 250.935 44.8271 250.508 44.7421C250.081 44.6571 249.688 44.4473 249.38 44.1392C249.072 43.831 248.862 43.4385 248.777 43.0111C248.692 42.5837 248.736 42.1408 248.902 41.7382C249.069 41.3356 249.351 40.9916 249.714 40.7495C250.076 40.5074 250.502 40.3782 250.938 40.3782C251.522 40.3782 252.082 40.6103 252.496 41.0235C252.909 41.4366 253.141 41.997 253.141 42.5813Z" fill="#263238"/>
<path d="M181.499 213.543C186.362 211.034 192.08 210.712 197.477 211.6C200.375 212.077 203.395 212.943 205.371 215.131C207.347 217.318 207.714 221.138 205.46 223.003C203.998 223.997 202.233 224.445 200.474 224.269C196.255 224.269 191.592 223.48 188.194 226.023C186.262 227.466 184.985 229.876 182.643 230.586C181.492 230.854 180.286 230.739 179.207 230.26C178.127 229.782 177.232 228.965 176.658 227.933C175.564 225.812 175.322 223.353 175.981 221.06C176.259 219.466 176.902 217.959 177.859 216.655C178.816 215.351 180.062 214.286 181.499 213.543Z" fill="#0FBD21"/>
<path d="M170.396 192.047C173.371 196.288 179.145 194.889 181.821 192.291C184.497 189.693 185.629 185.951 186.662 182.365C189.016 174.182 191.392 165.599 189.638 157.272C189.216 154.746 188.11 152.384 186.44 150.443C185.589 149.491 184.504 148.778 183.293 148.374C182.081 147.971 180.785 147.892 179.534 148.145C176.625 148.922 174.815 151.764 173.505 154.485C169.647 162.495 167.626 171.265 167.587 180.155C167.587 184.297 168.064 188.627 170.396 192.047Z" fill="#0FBD21"/>
<path d="M162.235 198.132C165.466 194.312 166.077 188.716 164.633 183.919C163.19 179.123 159.959 175.037 156.217 171.706C151.811 167.8 146.691 164.783 141.139 162.823C138.988 161.968 136.677 161.589 134.366 161.713C133.207 161.777 132.082 162.125 131.089 162.725C130.096 163.325 129.266 164.159 128.67 165.155C127.082 168.175 128.603 171.817 130.258 174.837C133.155 180.115 136.463 185.156 140.151 189.915C143.126 193.746 146.524 197.521 151.043 199.253C155.562 200.985 160.27 200.707 162.624 197.599" fill="#0FBD21"/>
<path d="M170.196 256.079C170.353 255.446 170.442 254.799 170.462 254.147C170.596 252.748 170.773 250.983 170.973 248.884C171.233 246.293 171.63 243.717 172.161 241.168C172.853 238.059 173.792 235.011 174.97 232.052C176.124 229.096 177.69 226.318 179.623 223.802C181.197 221.757 183.207 220.088 185.507 218.917C187.065 218.142 188.737 217.621 190.459 217.373C191.108 217.351 191.752 217.258 192.38 217.096C191.731 217.024 191.075 217.024 190.426 217.096C188.639 217.233 186.89 217.688 185.263 218.439C182.838 219.582 180.713 221.273 179.056 223.38C177.036 225.926 175.409 228.759 174.226 231.785C173.033 234.786 172.101 237.885 171.44 241.046C170.941 243.632 170.6 246.246 170.418 248.873C170.252 251.094 170.185 252.915 170.152 254.17C170.1 254.806 170.115 255.446 170.196 256.079Z" fill="#00840D"/>
<path d="M170.562 252.027C170.596 251.731 170.596 251.434 170.562 251.138V248.574C170.562 246.353 170.562 243.144 170.673 239.169C170.873 231.23 171.551 222.692 172.894 210.645C174.149 199.32 175.825 186.14 177.591 177.568C177.968 175.614 178.357 173.86 178.701 172.328C179.045 170.796 179.345 169.463 179.623 168.386L180.222 165.899C180.31 165.61 180.363 165.312 180.378 165.011C180.246 165.281 180.142 165.564 180.067 165.855C179.867 166.499 179.623 167.309 179.323 168.308C179.023 169.308 178.657 170.684 178.268 172.228C177.879 173.771 177.446 175.503 177.036 177.446C174.841 187.58 173.192 197.825 172.095 208.136C170.773 220.216 170.174 231.197 170.118 239.158C170.118 243.144 170.118 246.364 170.263 248.585C170.263 249.628 170.374 250.472 170.418 251.138C170.426 251.44 170.474 251.738 170.562 252.027Z" fill="#00840D"/>
<path d="M170.607 230.831C170.674 229.94 170.674 229.045 170.607 228.155C170.507 226.445 170.263 223.958 169.785 220.915C169.2 217.358 168.414 213.836 167.431 210.367C166.272 206.096 164.787 201.921 162.99 197.876C159.933 190.416 155.542 183.576 150.032 177.691C149.079 176.68 148.059 175.734 146.979 174.859C146.513 174.46 146.102 174.071 145.68 173.749L144.503 172.927C143.799 172.393 143.057 171.911 142.282 171.484C142.149 171.662 145.469 173.616 149.655 178.068C154.978 184.004 159.251 190.804 162.29 198.176C164.048 202.198 165.532 206.334 166.732 210.556C167.743 213.994 168.581 217.482 169.241 221.004C169.796 224.013 170.107 226.467 170.351 228.177C170.368 229.067 170.453 229.954 170.607 230.831Z" fill="#00840D"/>
<path d="M150.121 268.226L152.242 297.328H189.627L191.758 268.226H150.121Z" fill="#C58940"/>
<path d="M196.211 256.756H146.513V268.226H196.211V256.756Z" fill="#A37339"/>
<path d="M146.513 296.206V299.393H148.844H195.389V296.206H146.513Z" fill="#A37339"/>
<path d="M151.132 304.989L148.844 299.393H193.613L190.937 304.989H151.132Z" fill="#C58940"/>
<path d="M191.059 277.731C191.059 277.731 191.003 277.831 190.881 278.008L190.326 278.741C189.793 279.418 189.072 280.362 188.106 281.528L188.006 281.65L187.917 281.528L182.609 274.122H182.92L177.646 281.583L177.48 281.817L177.302 281.595L171.051 274.167H171.406C171.306 274.311 171.184 274.455 171.062 274.6L165.51 281.606L165.333 281.839L165.155 281.595C163.257 278.919 161.491 276.409 159.892 274.144H160.192L153.708 281.539L153.586 281.672L153.497 281.517L151.465 278.108L150.943 277.198C150.88 277.096 150.828 276.988 150.788 276.876C150.788 276.876 150.865 276.964 151.01 277.164L151.576 278.042C152.098 278.852 152.82 279.973 153.719 281.372H153.508L159.903 273.889L160.059 273.7L160.203 273.9L165.522 281.328H165.166L170.718 274.311L171.062 273.878L171.24 273.656L171.417 273.878L177.646 281.328H177.302L182.621 273.911L182.776 273.689L182.931 273.911L188.161 281.384H187.972L190.193 278.663L190.804 277.964C190.879 277.876 190.965 277.798 191.059 277.731Z" fill="#A37339"/>
</svg>
