<svg width="450" height="400" viewBox="0 0 450 400" fill="none" xmlns="http://www.w3.org/2000/svg">
<path d="M402.702 318.751C398.402 316.532 393.347 316.248 388.576 317.033C386.014 317.455 383.344 318.221 381.597 320.155C379.85 322.088 379.526 325.465 381.518 327.114C382.811 327.993 384.371 328.389 385.926 328.233C389.656 328.233 393.779 327.536 396.783 329.784C398.491 331.06 399.62 333.19 401.691 333.819C402.708 334.055 403.774 333.954 404.729 333.53C405.683 333.107 406.474 332.385 406.982 331.473C407.948 329.598 408.163 327.424 407.58 325.396C407.335 323.988 406.766 322.655 405.92 321.502C405.074 320.349 403.972 319.407 402.702 318.751Z" fill="#0FBD21"/>
<path d="M412.518 299.747C409.888 303.496 404.783 302.26 402.418 299.963C400.052 297.666 399.051 294.358 398.138 291.187C396.057 283.952 393.956 276.364 395.507 269.002C395.88 266.769 396.857 264.681 398.334 262.965C399.086 262.123 400.045 261.493 401.116 261.136C402.187 260.78 403.333 260.71 404.44 260.933C407.012 261.621 408.612 264.133 409.77 266.538C413.18 273.62 414.968 281.373 415.002 289.233C415.002 292.895 414.58 296.723 412.518 299.747Z" fill="#0FBD21"/>
<path d="M419.733 305.126C416.877 301.749 416.337 296.802 417.613 292.561C418.889 288.321 421.746 284.708 425.054 281.763C428.949 278.31 433.475 275.643 438.384 273.91C440.286 273.154 442.329 272.819 444.372 272.929C445.396 272.986 446.391 273.293 447.269 273.823C448.147 274.354 448.881 275.092 449.408 275.972C450.811 278.642 449.467 281.862 448.004 284.532C445.443 289.197 442.518 293.655 439.258 297.862C436.627 301.249 433.623 304.586 429.628 306.117C425.633 307.649 421.471 307.403 419.39 304.655" fill="#0FBD21"/>
<path d="M412.695 356.357C412.556 355.797 412.478 355.225 412.459 354.649C412.341 353.412 412.184 351.851 412.008 349.996C411.778 347.705 411.427 345.428 410.957 343.173C410.346 340.425 409.516 337.73 408.474 335.114C407.454 332.501 406.07 330.046 404.361 327.821C402.969 326.013 401.192 324.538 399.158 323.502C397.781 322.817 396.303 322.356 394.78 322.137C394.207 322.118 393.637 322.036 393.082 321.892C393.656 321.828 394.236 321.828 394.81 321.892C396.39 322.013 397.936 322.415 399.374 323.08C401.518 324.09 403.397 325.585 404.862 327.448C406.647 329.698 408.087 332.203 409.132 334.879C410.186 337.532 411.011 340.271 411.595 343.065C412.036 345.352 412.337 347.663 412.499 349.986C412.646 351.949 412.705 353.559 412.734 354.668C412.78 355.231 412.767 355.797 412.695 356.357Z" fill="#00840D"/>
<path d="M412.372 352.774C412.342 352.513 412.342 352.249 412.372 351.989V349.721C412.372 347.758 412.372 344.921 412.273 341.407C412.097 334.388 411.498 326.839 410.31 316.189C409.201 306.176 407.719 294.524 406.158 286.946C405.824 285.219 405.481 283.668 405.176 282.313C404.872 280.959 404.607 279.781 404.361 278.828L403.831 276.63C403.753 276.374 403.707 276.111 403.694 275.844C403.81 276.083 403.902 276.333 403.969 276.59C404.146 277.16 404.361 277.876 404.627 278.76C404.892 279.643 405.216 280.86 405.559 282.225C405.903 283.589 406.285 285.121 406.649 286.838C408.588 295.798 410.047 304.855 411.017 313.97C412.185 324.65 412.715 334.359 412.764 341.397C412.764 344.921 412.764 347.768 412.637 349.731C412.637 350.653 412.538 351.4 412.499 351.989C412.492 352.255 412.449 352.519 412.372 352.774Z" fill="#00840D"/>
<path d="M412.331 334.035C412.272 333.247 412.272 332.456 412.331 331.669C412.42 330.157 412.636 327.958 413.058 325.269C413.575 322.124 414.27 319.01 415.139 315.943C416.164 312.167 417.477 308.476 419.065 304.9C421.768 298.305 425.65 292.257 430.521 287.054C431.364 286.161 432.266 285.325 433.22 284.551C433.633 284.198 433.996 283.854 434.369 283.57L435.409 282.843C436.032 282.371 436.688 281.944 437.373 281.567C437.49 281.724 434.555 283.452 430.855 287.388C426.148 292.636 422.37 298.648 419.684 305.165C418.13 308.721 416.818 312.377 415.757 316.11C414.863 319.15 414.123 322.233 413.539 325.347C413.048 328.007 412.773 330.177 412.557 331.689C412.543 332.475 412.467 333.26 412.331 334.035Z" fill="#00840D"/>
<path d="M430.443 367.096L428.568 392.824H395.517L393.633 367.096H430.443Z" fill="#C58940"/>
<path d="M389.696 356.955H433.633V367.096H389.696V356.955Z" fill="#A37339"/>
<path d="M433.633 391.832V394.65H431.572H390.422V391.832H433.633Z" fill="#A37339"/>
<path d="M429.55 399.597L431.572 394.65H391.993L394.359 399.597H429.55Z" fill="#C58940"/>
<path d="M394.251 375.498C394.251 375.498 394.3 375.587 394.408 375.744L394.899 376.391C395.37 376.99 396.008 377.825 396.862 378.855L396.95 378.963L397.029 378.855L401.721 372.308H401.446L406.109 378.904L406.256 379.111L406.413 378.914L411.939 372.347H411.625C411.714 372.475 411.822 372.602 411.93 372.73L416.838 378.924L416.995 379.13L417.152 378.914C418.83 376.549 420.391 374.33 421.805 372.328H421.54L427.272 378.865L427.38 378.983L427.459 378.845L429.255 375.832L429.717 375.027C429.772 374.937 429.818 374.842 429.854 374.742C429.854 374.742 429.785 374.821 429.658 374.998L429.157 375.773C428.696 376.49 428.058 377.481 427.263 378.718H427.449L421.795 372.102L421.657 371.935L421.53 372.112L416.828 378.679H417.142L412.234 372.475L411.93 372.092L411.773 371.896L411.615 372.092L406.109 378.679H406.413L401.711 372.121L401.574 371.925L401.436 372.121L396.813 378.728H396.98L395.016 376.323L394.476 375.704C394.41 375.627 394.334 375.558 394.251 375.498Z" fill="#A37339"/>
<path d="M26.9554 367.879C26.9554 367.987 35.2305 368.085 45.4492 368.085C55.6678 368.085 63.9429 367.987 63.9429 367.879C63.9429 367.771 55.658 367.673 45.4492 367.673C35.2403 367.673 26.9554 367.761 26.9554 367.879Z" fill="#F5F5F5"/>
<path d="M10.3273 23.4187H77.2639V93.1922H10.3273V23.4187Z" fill="#E0E0E0"/>
<path d="M14.8615 23.4187H81.7981V93.1922H14.8615V23.4187Z" fill="#FAFAFA"/>
<path d="M14.8817 93.2216H81.8184V23.399H14.8817V93.2216ZM81.8184 93.1726H14.8817V23.4776H81.7791L81.8184 93.1726Z" fill="#E0E0E0"/>
<path d="M23.8541 32.8029H72.7976V83.8177H23.8541V32.8029Z" fill="#FAFAFA"/>
<path d="M72.7972 84.1516C73.145 84.6639 73.5501 85.1348 74.0046 85.5553C74.7899 86.3798 75.8893 87.5185 77.1164 88.7161C78.3434 89.9137 79.4821 91.0032 80.3164 91.7787C80.7418 92.2233 81.216 92.6185 81.73 92.9567C81.388 92.4428 80.986 91.9716 80.5324 91.553C79.7471 90.7284 78.6477 89.5897 77.4109 88.3921C76.174 87.1946 75.0451 86.0952 74.2108 85.3295C73.7854 84.8849 73.3112 84.4898 72.7972 84.1516Z" fill="#E0E0E0"/>
<path d="M23.8535 84.0337C23.3405 84.3806 22.8694 84.7858 22.4498 85.2411C21.6252 86.0166 20.4865 87.116 19.2988 88.3529C18.111 89.5897 17.0018 90.7088 16.2361 91.5431C15.7916 91.9685 15.3964 92.4427 15.0582 92.9567C15.5778 92.6224 16.05 92.2196 16.4619 91.7591C17.2865 90.9738 18.4251 89.8744 19.6227 88.6375C20.8203 87.4007 21.9197 86.2718 22.6854 85.4375C23.1309 85.0193 23.5233 84.5478 23.8535 84.0337Z" fill="#E0E0E0"/>
<path d="M23.991 32.9306C23.6282 32.4184 23.2065 31.9505 22.7345 31.5367C21.9492 30.7122 20.8498 29.5735 19.6227 28.3857C18.3957 27.198 17.2571 26.0887 16.4227 25.3231C15.9999 24.8758 15.5254 24.4804 15.0092 24.1451C15.353 24.6604 15.7585 25.1318 16.2165 25.5489C16.992 26.3734 18.0914 27.5121 19.3283 28.7097C20.5651 29.9072 21.7038 31.0067 22.5382 31.7723C22.9721 32.2176 23.4602 32.6067 23.991 32.9306Z" fill="#E0E0E0"/>
<path d="M72.9347 33.0582C73.4499 32.7143 73.9213 32.3088 74.3384 31.8508C75.1629 31.0753 76.3016 29.9759 77.4894 28.7391C78.6771 27.5022 79.7864 26.3734 80.552 25.539C80.9993 25.1162 81.3947 24.6416 81.73 24.1254C81.2215 24.4743 80.7539 24.8793 80.3361 25.3328C79.5115 26.1083 78.3728 27.2175 77.1753 28.4446C75.9777 29.6716 74.8684 30.8201 74.1028 31.6545C73.6572 32.0726 73.2649 32.5441 72.9347 33.0582Z" fill="#E0E0E0"/>
<path d="M23.9907 83.8177C23.9907 83.8177 23.9907 83.7294 23.9907 83.5723C23.9907 83.4153 23.9907 83.1601 23.9907 82.8558C23.9907 82.2177 23.9907 81.295 23.9907 80.0974C23.9907 77.6826 23.9907 74.2077 24.0397 69.7021C24.0397 60.7693 24.0986 48.0377 24.1379 32.803L23.9514 32.9895H72.7575L72.5416 32.7735C72.5416 51.493 72.5416 69.0149 72.5416 83.8177L72.7281 83.6312L37.3898 83.7294L27.4656 83.7785H24.8349H27.4263H37.3112L72.7673 83.8767H72.9539V83.6901C72.9539 68.9659 72.9539 51.3949 72.9539 32.6459V32.4202H72.7968H23.9907H23.8041V32.6165C23.8041 47.9003 23.8729 60.6712 23.9023 69.6432C23.9023 74.0899 23.9023 77.5845 23.9514 79.9894C23.9514 81.1772 23.9514 82.0803 23.9514 82.7085C23.9514 83.003 23.9514 83.2386 23.9514 83.4055C23.9504 83.5439 23.9636 83.682 23.9907 83.8177Z" fill="#E0E0E0"/>
<path d="M40.158 50.1384H56.4922V66.4725H40.158V50.1384Z" fill="#EBEBEB"/>
<path d="M10.3273 109.742H77.2639V179.516H10.3273V109.742Z" fill="#E0E0E0"/>
<path d="M14.8615 109.742H81.7981V179.516H14.8615V109.742Z" fill="#FAFAFA"/>
<path d="M14.8817 179.545H81.8184V109.723H14.8817V179.545ZM81.8184 179.496H14.8817V109.801H81.7791L81.8184 179.496Z" fill="#E0E0E0"/>
<path d="M23.8541 119.127H72.7976V170.141H23.8541V119.127Z" fill="#FAFAFA"/>
<path d="M72.7972 170.485C73.148 170.995 73.5528 171.466 74.0046 171.889C74.7899 172.713 75.8893 173.852 77.1164 175.04C78.3434 176.227 79.4821 177.337 80.3164 178.102C80.7418 178.547 81.216 178.942 81.73 179.28C81.388 178.766 80.986 178.295 80.5324 177.877C79.7471 177.052 78.6477 175.913 77.4109 174.716C76.174 173.518 75.0451 172.419 74.2108 171.653C73.7907 171.206 73.3157 170.813 72.7972 170.485Z" fill="#E0E0E0"/>
<path d="M23.8535 170.357C23.3405 170.704 22.8694 171.109 22.4498 171.565C21.6252 172.34 20.4865 173.44 19.2988 174.676C18.111 175.913 17.0018 177.032 16.2361 177.867C15.7871 178.292 15.3915 178.77 15.0582 179.29C15.5734 178.946 16.0448 178.541 16.4619 178.083C17.2865 177.307 18.4251 176.198 19.6227 174.971C20.8203 173.744 21.9197 172.595 22.6854 171.761C23.1309 171.343 23.5233 170.871 23.8535 170.357Z" fill="#E0E0E0"/>
<path d="M23.991 119.264C23.6491 118.744 23.2435 118.269 22.7836 117.85C21.9983 117.026 20.8989 115.887 19.6718 114.699C18.4448 113.512 17.3061 112.412 16.4718 111.637C16.0489 111.19 15.5744 110.794 15.0582 110.459C15.4021 110.974 15.8076 111.446 16.2656 111.863C17.0411 112.687 18.1405 113.826 19.3773 115.023C20.6142 116.221 21.7529 117.32 22.5873 118.086C23.0107 118.529 23.4814 118.924 23.991 119.264Z" fill="#E0E0E0"/>
<path d="M72.9347 119.382C73.4499 119.038 73.9213 118.632 74.3384 118.174C75.1629 117.399 76.3016 116.3 77.4894 115.063C78.6771 113.826 79.7864 112.707 80.552 111.872C80.9966 111.447 81.3918 110.973 81.73 110.459C81.2169 110.798 80.7486 111.2 80.3361 111.656C79.5115 112.432 78.3728 113.541 77.1753 114.768C75.9777 115.995 74.8684 117.144 74.1028 117.978C73.6572 118.396 73.2649 118.868 72.9347 119.382Z" fill="#E0E0E0"/>
<path d="M23.9905 170.141C23.9905 170.141 23.9905 170.053 23.9905 169.896C23.9905 169.739 23.9905 169.484 23.9905 169.179C23.9905 168.541 23.9905 167.619 23.9905 166.431C23.9905 164.006 23.9905 160.541 24.0396 156.026C24.0396 147.093 24.0985 134.361 24.1378 119.127L23.9513 119.313H72.7574L72.5414 119.097C72.5414 137.817 72.5414 155.339 72.5414 170.141L72.7967 169.945L37.4584 170.043H27.5342H24.9034H27.4949H37.3799L72.836 170.141H73.0225V169.955C73.0225 155.231 73.0225 137.66 73.0225 118.911V118.901H72.7967H23.9905H23.804V119.097C23.804 134.381 23.8728 147.152 23.9022 156.124C23.9022 160.571 23.9022 164.065 23.9513 166.48C23.9513 167.658 23.9513 168.561 23.9513 169.189C23.9513 169.484 23.9513 169.719 23.9513 169.886C23.9583 169.972 23.9714 170.057 23.9905 170.141Z" fill="#E0E0E0"/>
<path d="M40.158 136.462H56.4922V152.796H40.158V136.462Z" fill="#EBEBEB"/>
<path d="M222.003 70.8015L221.424 71.7831C220.771 72.8621 219.824 73.7335 218.695 74.296L217.714 74.7869L218.695 75.3758C219.778 76.0242 220.651 76.9719 221.208 78.1047L221.709 79.0864L222.288 78.1047C222.939 77.0236 223.886 76.1516 225.017 75.5918L225.999 75.0912L225.017 74.512C223.936 73.8611 223.064 72.9141 222.504 71.7831L222.003 70.8015Z" fill="#E0E0E0"/>
<path d="M118.55 43.7186L117.971 44.7002C117.327 45.7943 116.379 46.6776 115.242 47.2426L114.261 47.7432L115.242 48.3224C116.323 48.9733 117.196 49.9203 117.755 51.0513L118.256 52.0329L118.835 51.0513C119.489 49.9723 120.435 49.1009 121.564 48.5383L122.546 48.0377L121.564 47.4586C120.483 46.8076 119.611 45.8606 119.051 44.7297L118.55 43.7186Z" fill="#E0E0E0"/>
<path d="M171.263 10.9227L170.969 11.4037C170.643 11.9444 170.17 12.3805 169.604 12.6602L169.094 12.9154L169.575 13.2001C170.121 13.5261 170.561 14.0034 170.841 14.5743L171.086 15.0749L171.381 14.594C171.704 14.0511 172.178 13.6144 172.745 13.3375L173.256 13.0823L172.765 12.7878C172.225 12.4621 171.789 11.9887 171.509 11.4233L171.263 10.9227Z" fill="#E0E0E0"/>
<path d="M131.214 44.0818L130.929 44.5628C130.6 45.1039 130.123 45.5398 129.555 45.8193L129.054 46.0745L129.535 46.3592C130.076 46.6884 130.512 47.1651 130.791 47.7334L131.047 48.2341L131.331 47.7531C131.661 47.212 132.137 46.7761 132.706 46.4966L133.206 46.2414L132.725 45.9567C132.184 45.6275 131.748 45.1508 131.469 44.5824L131.214 44.0818Z" fill="#E0E0E0"/>
<path d="M169.182 79.479L168.888 79.96C168.562 80.5004 168.089 80.9363 167.523 81.2165L167.013 81.4717L167.504 81.7564C168.045 82.0855 168.481 82.5623 168.76 83.1306L169.015 83.6313L169.3 83.1503C169.628 82.609 170.1 82.1703 170.665 81.884L171.175 81.6385L170.694 81.3441C170.151 81.019 169.711 80.5456 169.428 79.9796L169.182 79.479Z" fill="#E0E0E0"/>
<path d="M122.919 108.879C122.565 106.297 126.217 104.167 128.965 103.97C130.283 104.024 131.602 103.912 132.892 103.637C135.582 102.655 136.652 99.2292 139.272 98.12C141.236 97.2954 143.493 98.0317 145.398 98.9838C147.302 99.936 149.177 101.143 151.287 101.281C153.133 101.399 155.145 100.711 156.755 101.615C157.962 102.292 158.591 103.676 159.7 104.501C160.858 105.206 162.192 105.567 163.548 105.541C164.902 105.506 166.251 105.726 167.523 106.189C168.15 106.436 168.68 106.88 169.034 107.453C169.388 108.026 169.546 108.698 169.487 109.369L122.919 108.879Z" fill="#EBEBEB"/>
<path d="M206.602 15.3007C206.111 11.7473 211.127 8.82203 214.887 8.52754C216.693 8.3803 218.558 8.65516 220.256 8.05637C223.947 6.77045 225.419 2.00959 229.012 0.488079C231.702 -0.640784 234.804 0.370287 237.415 1.67584C240.026 2.9814 242.598 4.6207 245.513 4.82684C248.046 4.99371 250.794 4.05136 253.013 5.2882C254.672 6.21092 255.535 8.11526 257.057 9.21467C258.643 10.1889 260.477 10.6864 262.338 10.6478C264.193 10.6021 266.04 10.9017 267.786 11.5313C269.465 12.3068 270.858 14.0835 270.515 15.8995L206.602 15.3007Z" fill="#F5F5F5"/>
<path d="M386.032 66.8161C385.991 66.9003 385.961 66.9894 385.943 67.0812L385.727 67.8664C385.619 68.2994 385.484 68.7255 385.325 69.1425C385.148 69.6334 384.962 70.2125 384.677 70.8309L384.245 71.8126L383.686 72.8727C383.494 73.2622 383.277 73.6393 383.038 74.0016C382.792 74.3746 382.576 74.7869 382.282 75.1795C379.524 79.2122 375.663 82.3647 371.16 84.2595C369.794 84.8314 368.378 85.275 366.929 85.5847C365.389 85.8903 363.832 86.1067 362.267 86.2325C359.057 86.5467 355.582 86.7234 352.254 88.0584C348.893 89.5484 345.913 91.7801 343.537 94.5861C341.023 97.2524 338.991 100.335 337.53 103.696C336.87 105.318 336.466 107.034 336.332 108.78C336.218 110.449 336.324 112.126 336.646 113.767C337.303 116.775 338.189 119.729 339.297 122.602C340.242 125.094 340.945 127.671 341.397 130.297C341.764 132.464 341.681 134.683 341.152 136.815C340.752 138.424 340.027 139.934 339.022 141.252C338.387 142.089 337.609 142.806 336.725 143.373C336.126 143.755 335.743 143.903 335.743 143.922C336.084 143.787 336.413 143.623 336.725 143.432C337.63 142.878 338.428 142.167 339.081 141.331C340.121 140.013 340.873 138.491 341.29 136.864C341.845 134.707 341.948 132.458 341.594 130.258C341.146 127.617 340.449 125.024 339.513 122.513C338.423 119.638 337.55 116.685 336.902 113.679C336.597 112.062 336.498 110.412 336.607 108.771C336.739 107.059 337.139 105.38 337.795 103.794C339.245 100.468 341.258 97.4159 343.744 94.7726C346.088 92.0052 349.027 89.8039 352.343 88.3332C355.592 87.008 359.037 86.8313 362.257 86.5074C363.832 86.3689 365.398 86.1461 366.949 85.8399C368.426 85.5433 369.872 85.1095 371.268 84.5442C375.809 82.6186 379.689 79.408 382.429 75.3071C382.724 74.9145 382.949 74.5022 383.185 74.1194C383.418 73.7481 383.631 73.3648 383.823 72.9709L384.373 71.9107L384.795 70.9291C385.037 70.3724 385.247 69.8021 385.423 69.2211C385.571 68.8003 385.692 68.3709 385.786 67.9352C385.865 67.5916 385.934 67.3266 385.973 67.14C386.001 67.0337 386.02 66.9254 386.032 66.8161Z" fill="#455A64"/>
<path d="M366.076 56.4109L365.86 56.6072L365.252 57.1962C364.987 57.4613 364.692 57.8146 364.27 58.1778C363.848 58.541 363.524 59.0809 363.131 59.6699C362.14 61.0832 361.325 62.6128 360.707 64.2246C359.867 66.355 359.367 68.6042 359.224 70.8898C359.158 72.2168 359.207 73.547 359.372 74.8654C359.573 76.2936 359.881 77.7046 360.294 79.0863C361.109 81.9527 362.258 84.8975 363.122 88.127C363.546 89.7739 363.786 91.4628 363.838 93.1628C363.876 94.9354 363.695 96.706 363.298 98.434C362.47 102.099 360.811 105.524 358.449 108.447C356.081 111.344 353.153 113.734 349.84 115.475C346.766 117.118 343.454 118.271 340.024 118.891C336.745 119.5 333.565 119.657 330.62 120.108C327.863 120.437 325.185 121.248 322.708 122.503C319.174 124.484 316.408 127.596 314.855 131.338C314.435 132.343 314.106 133.385 313.874 134.45C313.815 134.813 313.775 135.088 313.736 135.294C313.73 135.389 313.73 135.484 313.736 135.579C313.736 135.579 313.736 135.48 313.805 135.294C313.874 135.107 313.903 134.823 313.972 134.469C314.214 133.417 314.542 132.386 314.953 131.387C315.642 129.821 316.544 128.357 317.633 127.038C319.077 125.291 320.843 123.838 322.836 122.759C325.298 121.531 327.955 120.743 330.689 120.432C333.634 119.99 336.804 119.843 340.112 119.244C343.574 118.616 346.918 117.458 350.027 115.809C353.38 114.049 356.344 111.632 358.743 108.702C361.12 105.748 362.798 102.295 363.652 98.6009C364.04 96.845 364.218 95.0491 364.182 93.2511C364.129 91.528 363.885 89.8161 363.455 88.1467C362.621 84.8877 361.413 81.9428 360.589 79.0961C360.157 77.7323 359.829 76.3377 359.607 74.9243C359.432 73.6233 359.376 72.309 359.44 70.9978C359.666 67.0069 360.972 63.1523 363.22 59.8466C363.602 59.2478 364.005 58.7766 364.329 58.3349C364.653 57.8932 364.977 57.5692 365.232 57.3533L365.811 56.7349C365.909 56.6351 365.998 56.5267 366.076 56.4109Z" fill="#455A64"/>
<path d="M317.299 126.754C317.531 127.011 317.787 127.244 318.065 127.451C318.575 127.893 319.331 128.501 320.283 129.228C322.753 131.135 325.322 132.911 327.979 134.548C330.639 136.184 333.381 137.681 336.195 139.034C337.275 139.554 338.158 139.957 338.767 140.212C339.08 140.371 339.409 140.496 339.749 140.585C339.456 140.4 339.151 140.236 338.836 140.094L336.303 138.828C334.173 137.748 331.267 136.177 328.165 134.263C325.064 132.349 322.354 130.455 320.43 129.041L318.163 127.353C317.891 127.131 317.602 126.931 317.299 126.754Z" fill="#455A64"/>
<path d="M322.57 122.631C322.812 122.811 323.072 122.965 323.345 123.092L325.485 124.251C327.291 125.232 329.765 126.626 332.445 128.266C335.125 129.905 337.481 131.495 339.169 132.663L341.132 134.057C341.372 134.236 341.625 134.396 341.888 134.538C341.681 134.321 341.455 134.124 341.211 133.949C340.759 133.586 340.092 133.085 339.248 132.477C337.589 131.25 335.233 129.64 332.553 127.991C329.873 126.342 327.37 124.977 325.534 124.064C324.612 123.593 323.866 123.23 323.336 122.994C323.091 122.853 322.835 122.731 322.57 122.631Z" fill="#455A64"/>
<path d="M330.128 121.041C330.602 121.454 331.111 121.825 331.65 122.15C332.631 122.788 333.956 123.652 335.468 124.565C336.98 125.478 338.364 126.253 339.395 126.803C339.932 127.123 340.497 127.396 341.083 127.618C340.587 127.248 340.062 126.92 339.512 126.636L335.645 124.319L331.777 121.993C331.258 121.626 330.706 121.307 330.128 121.041Z" fill="#455A64"/>
<path d="M337.177 112.697C337.526 113.018 337.912 113.298 338.325 113.531L341.162 115.436L343.979 117.399C344.35 117.694 344.751 117.947 345.177 118.155C344.871 117.78 344.514 117.45 344.117 117.173C343.429 116.624 342.458 115.907 341.348 115.151C340.239 114.395 339.209 113.757 338.404 113.325C338.023 113.064 337.611 112.853 337.177 112.697Z" fill="#455A64"/>
<path d="M337.737 105.256C337.737 105.305 338.571 105.757 339.916 106.532C341.261 107.308 343.096 108.437 345.03 109.791C346.964 111.146 348.652 112.501 349.84 113.502C350.466 114.072 351.121 114.61 351.803 115.112C351.669 114.928 351.518 114.757 351.352 114.601C351.047 114.287 350.586 113.855 350.007 113.325C346.983 110.595 343.637 108.245 340.043 106.326C339.356 105.963 338.787 105.688 338.394 105.502C338.187 105.391 337.966 105.309 337.737 105.256Z" fill="#455A64"/>
<path d="M341.418 99.4844C341.369 99.563 344.814 102.046 349.114 105.05C353.413 108.054 356.967 110.41 356.967 110.341C356.967 110.272 353.58 107.769 349.281 104.775C344.981 101.781 341.477 99.4059 341.418 99.4844Z" fill="#455A64"/>
<path d="M344.352 92.9763C344.556 93.1634 344.78 93.328 345.02 93.4671C345.51 93.8009 346.129 94.223 346.875 94.7138C348.445 95.7641 350.605 97.2366 352.951 98.9053C355.297 100.574 357.378 102.145 358.841 103.283L360.627 104.638C360.836 104.815 361.063 104.97 361.305 105.099C361.128 104.887 360.927 104.696 360.706 104.53C360.313 104.186 359.724 103.696 358.988 103.097C357.516 101.909 355.454 100.309 353.098 98.6403C350.742 96.9715 348.563 95.5187 346.963 94.5175C346.158 94.0168 345.501 93.6242 345 93.3591C344.798 93.2097 344.581 93.0814 344.352 92.9763Z" fill="#455A64"/>
<path d="M350.409 89.3737C350.35 89.4424 353.275 91.5627 356.927 94.1051C360.579 96.6475 363.592 98.6304 363.651 98.5617C363.71 98.493 360.775 96.3629 357.123 93.8303C353.472 91.2977 350.458 89.2952 350.409 89.3737Z" fill="#455A64"/>
<path d="M356.759 85.7417C357.799 86.7949 358.922 87.7632 360.116 88.6375C361.238 89.6041 362.429 90.4867 363.68 91.2781C362.635 90.2144 361.513 89.2301 360.323 88.3332C359.2 87.3835 358.009 86.5173 356.759 85.7417Z" fill="#455A64"/>
<path d="M361.04 76.6225C361.477 77.1062 361.957 77.5497 362.473 77.9477C363.386 78.7231 364.682 79.7735 366.154 80.8925C367.627 82.0116 368.991 82.9343 370.002 83.592C370.528 83.9734 371.09 84.3022 371.681 84.5736C371.195 84.1386 370.676 83.7416 370.13 83.3858C369.148 82.6791 367.813 81.7073 366.35 80.6177C364.888 79.5281 363.572 78.5072 362.62 77.771C362.125 77.3465 361.597 76.9625 361.04 76.6225Z" fill="#455A64"/>
<path d="M359.194 70.4187C359.395 70.6117 359.615 70.7828 359.852 70.9291C360.274 71.2433 360.912 71.6752 361.697 72.1954C363.278 73.2458 365.496 74.6495 367.999 76.1219C370.503 77.5943 372.829 78.7919 374.527 79.6361C375.371 80.0582 376.068 80.392 376.549 80.6177C376.792 80.751 377.049 80.8564 377.315 80.9319C377.093 80.7696 376.856 80.6282 376.608 80.5098L374.645 79.4398C372.976 78.5465 370.718 77.29 368.176 75.8372C365.634 74.3844 363.445 73.0298 361.835 72.0286L359.93 70.8506C359.702 70.6789 359.455 70.534 359.194 70.4187Z" fill="#455A64"/>
<path d="M362.139 63.7927C362.363 63.9923 362.602 64.1729 362.856 64.3326C363.327 64.6663 364.014 65.1375 364.878 65.7167C366.596 66.8553 368.991 68.4063 371.671 70.0652C374.35 71.7242 376.795 73.177 378.542 74.1979C379.435 74.7083 380.162 75.1206 380.672 75.3954C380.93 75.5474 381.199 75.6787 381.477 75.7881C381.248 75.5951 381.002 75.4242 380.741 75.2776L378.66 73.9917L371.788 69.7806L364.917 65.5203L362.836 64.2246C362.618 64.0589 362.385 63.9143 362.139 63.7927Z" fill="#455A64"/>
<path d="M103.855 259.479C103.904 259.528 104.631 258.801 106.044 257.594C106.751 256.995 107.625 256.269 108.685 255.493C109.88 254.615 111.14 253.827 112.454 253.137C113.212 252.748 114 252.42 114.81 252.156C115.659 251.846 116.556 251.686 117.46 251.685C117.907 251.684 118.347 251.788 118.746 251.989C119.137 252.192 119.448 252.52 119.63 252.921C119.82 253.361 119.911 253.837 119.895 254.315C119.886 254.831 119.82 255.345 119.698 255.847C119.436 256.91 119.054 257.941 118.56 258.919C118.043 259.958 117.463 260.965 116.822 261.933C114.073 265.993 110.631 269.539 106.653 272.407C105.713 273.08 104.729 273.69 103.708 274.232C102.744 274.76 101.723 275.175 100.665 275.469C100.168 275.607 99.6581 275.69 99.1433 275.715C98.6678 275.742 98.192 275.665 97.7495 275.489C97.3347 275.324 96.9885 275.023 96.7678 274.635C96.5581 274.241 96.4406 273.805 96.4243 273.359C96.3954 272.452 96.5284 271.548 96.8169 270.689C97.0841 269.87 97.4122 269.073 97.7985 268.303C98.4536 266.971 99.2049 265.688 100.046 264.465C100.792 263.385 101.48 262.502 102.069 261.766C103.227 260.323 103.934 259.567 103.885 259.518C103.836 259.469 103.669 259.665 103.305 260.009C102.942 260.352 102.442 260.863 101.823 261.56C101.063 262.403 100.345 263.284 99.6734 264.2C98.7742 265.417 97.9733 266.704 97.2783 268.048C96.8789 268.842 96.5346 269.662 96.2476 270.502C95.9181 271.448 95.7618 272.446 95.7862 273.447C95.7965 273.999 95.9378 274.541 96.1985 275.027C96.4806 275.549 96.9301 275.961 97.4746 276.196C98.0147 276.421 98.5978 276.525 99.1826 276.5C99.7561 276.482 100.326 276.4 100.881 276.255C101.995 275.951 103.072 275.523 104.091 274.978C105.155 274.394 106.178 273.738 107.153 273.015C111.231 270.106 114.747 266.481 117.529 262.316C118.19 261.323 118.784 260.286 119.306 259.214C119.815 258.177 120.207 257.088 120.474 255.964C120.607 255.408 120.673 254.838 120.67 254.266C120.686 253.68 120.565 253.099 120.317 252.568C120.065 252.029 119.64 251.59 119.109 251.321C118.614 251.08 118.07 250.955 117.519 250.958C116.532 250.968 115.555 251.154 114.633 251.508C113.802 251.816 112.994 252.187 112.219 252.617C110.897 253.349 109.636 254.186 108.449 255.12C107.399 255.945 106.545 256.701 105.867 257.349C105.19 257.996 104.69 258.517 104.366 258.88C104.042 259.243 103.836 259.459 103.855 259.479Z" fill="#455A64"/>
<path d="M113.269 261.834C113.21 261.834 113.495 262.816 113.868 264.563C114.055 265.447 114.261 266.527 114.428 267.783C114.618 269.205 114.697 270.639 114.663 272.073C114.644 272.9 114.559 273.724 114.408 274.537C114.265 275.4 113.97 276.231 113.534 276.991C113.312 277.363 113.01 277.681 112.651 277.923C112.292 278.156 111.871 278.272 111.444 278.257C110.976 278.244 110.518 278.13 110.099 277.923C109.654 277.696 109.239 277.416 108.862 277.089C108.059 276.394 107.338 275.61 106.712 274.753C106.05 273.848 105.45 272.901 104.916 271.916C102.686 267.73 101.239 263.173 100.646 258.468C100.518 257.357 100.462 256.238 100.479 255.12C100.495 254.058 100.63 253.001 100.881 251.969C101.009 251.487 101.187 251.02 101.411 250.575C101.619 250.163 101.914 249.802 102.275 249.515C102.613 249.251 103.025 249.1 103.453 249.083C103.886 249.075 104.315 249.162 104.71 249.338C105.502 249.707 106.223 250.212 106.84 250.831C107.431 251.412 107.976 252.039 108.469 252.705C109.337 253.849 110.112 255.06 110.786 256.328C111.375 257.447 111.826 258.448 112.18 259.272C112.887 260.931 113.21 261.874 113.269 261.854C113.261 261.609 113.211 261.366 113.122 261.138C112.995 260.676 112.788 260.009 112.484 259.174C112.18 258.34 111.758 257.299 111.198 256.141C110.563 254.821 109.817 253.557 108.97 252.362C108.476 251.66 107.921 251.003 107.311 250.399C106.651 249.703 105.869 249.134 105.004 248.72C104.52 248.501 103.994 248.39 103.463 248.396C102.889 248.411 102.333 248.603 101.873 248.946C101.426 249.293 101.057 249.731 100.793 250.232C100.531 250.724 100.327 251.244 100.184 251.783C99.9052 252.867 99.7536 253.981 99.7328 255.101C99.6992 256.258 99.7484 257.416 99.8801 258.566C100.452 263.382 101.935 268.046 104.248 272.308C104.803 273.333 105.429 274.317 106.123 275.253C106.787 276.155 107.555 276.975 108.41 277.697C108.835 278.054 109.299 278.361 109.794 278.61C110.299 278.872 110.856 279.02 111.424 279.042C111.995 279.056 112.557 278.895 113.034 278.581C113.472 278.276 113.84 277.881 114.114 277.423C114.579 276.585 114.888 275.671 115.026 274.723C115.173 273.877 115.245 273.02 115.242 272.161C115.249 270.694 115.128 269.229 114.879 267.783C114.702 266.699 114.47 265.624 114.182 264.563C113.947 263.69 113.721 263.022 113.564 262.6C113.513 262.329 113.414 262.069 113.269 261.834Z" fill="#455A64"/>
<path d="M110.049 257.309C110.049 257.378 111.031 257.633 112.69 258.242C113.534 258.546 114.555 258.939 115.723 259.459C117.032 260.046 118.292 260.735 119.492 261.52C120.189 261.967 120.846 262.473 121.456 263.032C122.116 263.604 122.665 264.293 123.075 265.064C123.276 265.447 123.39 265.869 123.409 266.301C123.418 266.731 123.291 267.154 123.046 267.508C122.792 267.886 122.456 268.201 122.064 268.431C121.637 268.686 121.182 268.893 120.709 269.049C119.694 269.36 118.647 269.558 117.588 269.638C116.47 269.712 115.349 269.712 114.231 269.638C111.868 269.499 109.525 269.135 107.232 268.549C104.934 267.976 102.696 267.187 100.547 266.193C99.5318 265.716 98.5481 265.175 97.6021 264.573C96.7068 264.018 95.8799 263.359 95.1383 262.61C94.7892 262.253 94.4859 261.854 94.2352 261.422C93.9915 261.032 93.8373 260.593 93.7836 260.136C93.7389 259.712 93.8245 259.284 94.0291 258.909C94.2499 258.523 94.5512 258.188 94.9125 257.928C95.6458 257.46 96.457 257.127 97.3077 256.946C98.1105 256.748 98.9278 256.613 99.7519 256.544C101.183 256.431 102.62 256.431 104.051 256.544C105.318 256.642 106.407 256.779 107.301 256.907C109.067 257.182 110.039 257.407 110.059 257.339C109.844 257.222 109.612 257.139 109.372 257.093C108.92 256.956 108.243 256.779 107.35 256.593C106.456 256.406 105.386 256.229 104.091 256.092C102.633 255.937 101.166 255.905 99.7028 255.994C98.8462 256.045 97.9957 256.17 97.1604 256.367C96.22 256.557 95.324 256.923 94.5199 257.447C94.0762 257.74 93.7039 258.129 93.4302 258.585C93.1393 259.08 93.0121 259.654 93.0671 260.225C93.1174 260.79 93.2952 261.338 93.5873 261.825C93.8634 262.302 94.1927 262.747 94.5689 263.15C95.3462 263.962 96.216 264.68 97.1604 265.29C98.129 265.923 99.139 266.49 100.184 266.988C102.391 268.016 104.692 268.828 107.055 269.413C109.399 270.01 111.796 270.375 114.211 270.502C115.366 270.566 116.524 270.547 117.676 270.443C118.795 270.355 119.898 270.134 120.965 269.786C121.494 269.614 122.002 269.38 122.476 269.089C122.959 268.793 123.374 268.398 123.694 267.93C124.005 267.453 124.163 266.891 124.145 266.321C124.12 265.785 123.976 265.262 123.723 264.789C123.26 263.952 122.648 263.207 121.917 262.59C121.269 262.025 120.576 261.513 119.846 261.059C118.594 260.296 117.28 259.64 115.919 259.096C114.901 258.677 113.863 258.31 112.807 257.996C111.944 257.741 111.256 257.574 110.795 257.476C110.557 257.381 110.305 257.324 110.049 257.309Z" fill="#455A64"/>
<path d="M105.102 262.973C104.976 263.478 105.003 264.009 105.178 264.499C105.354 264.988 105.67 265.415 106.089 265.725C106.507 266.035 107.007 266.214 107.527 266.239C108.046 266.264 108.562 266.135 109.008 265.867C109.454 265.599 109.811 265.205 110.033 264.735C110.256 264.264 110.333 263.739 110.257 263.224C110.18 262.709 109.953 262.229 109.603 261.844C109.254 261.458 108.798 261.185 108.293 261.059C107.616 260.892 106.901 261 106.303 261.359C105.706 261.717 105.274 262.298 105.102 262.973Z" fill="#455A64"/>
<path d="M51.4761 217.907L51.7706 217.77L52.6246 217.338L55.913 215.63L67.9967 209.279H67.8888L105.112 223.502L105.446 223.63L105.347 223.286L104.209 219.173C101.607 209.789 99.1436 200.905 96.984 193.092V193.033L76.37 177.582L70.4803 173.224L68.9195 172.075L68.517 171.791C68.432 171.719 68.3829 171.689 68.3698 171.702L68.4974 171.81L68.89 172.124L70.4213 173.302L76.2325 177.729L96.7877 193.288L96.7288 193.2C98.8883 201.053 101.333 209.887 103.924 219.301C104.317 220.705 104.7 222.108 105.063 223.414L105.298 223.198L67.9967 209.072H67.9378L55.913 215.522L52.6638 217.279L51.8197 217.75L51.4761 217.907Z" fill="#E89C24"/>
<path d="M100.331 223.051L102.559 223.708L103.276 225.917L104.591 224.003H106.918L105.504 222.157L106.221 219.949L104.032 220.724L102.157 219.36L102.216 221.686L100.331 223.051Z" fill="#E89C24"/>
<path d="M93.9016 192.375L95.3053 192.886L95.6882 194.338L96.6109 193.16L98.1128 193.249L97.2686 192.002L97.8183 190.608L96.3753 191.02L95.217 190.068L95.1679 191.57L93.9016 192.375Z" fill="#E89C24"/>
<path d="M65.7193 170.75L66.7401 172.291L66.0628 173.999L67.8396 173.499L69.2531 174.676L69.3316 172.831L70.8826 171.849L69.1549 171.211L68.7034 169.425L67.5549 170.868L65.7193 170.75Z" fill="#E89C24"/>
<path d="M50.5239 216.158L51.5546 217.699L50.8674 219.407L52.6442 218.907L54.0675 220.085L54.1362 218.239L55.697 217.257L53.9694 216.619L53.508 214.833L52.3693 216.276L50.5239 216.158Z" fill="#E89C24"/>
<path d="M66.534 208.395L67.1917 209.377L66.75 210.466L67.8887 210.142L68.7918 210.898L68.831 209.72L69.8323 209.092L68.723 208.68L68.4384 207.541L67.7021 208.474L66.534 208.395Z" fill="#E89C24"/>
<path d="M193.725 57.8026C188.942 48.5574 192.56 37.1857 201.805 32.4032C211.051 27.6208 222.422 31.2386 227.205 40.4839C231.987 49.7291 228.369 61.1008 219.124 65.8833C209.879 70.6657 198.507 67.0479 193.725 57.8026Z" fill="#E89C22"/>
<g opacity="0.3">
<path d="M214.646 53.9788C214.835 54.5564 215.19 55.0652 215.668 55.4407C216.146 55.8162 216.724 56.0417 217.33 56.0885C217.936 56.1353 218.542 56.0014 219.072 55.7037C219.602 55.406 220.031 54.9579 220.306 54.4161C220.581 53.8743 220.69 53.263 220.617 52.6596C220.545 52.0563 220.296 51.4879 219.9 51.0264C219.505 50.5649 218.982 50.2309 218.397 50.0668C217.811 49.9027 217.191 49.9158 216.613 50.1044C215.839 50.3573 215.196 50.9076 214.827 51.6342C214.458 52.3608 214.393 53.2041 214.646 53.9788Z" fill="white"/>
</g>
<g opacity="0.3">
<path d="M215.997 44.2026C216.107 44.5385 216.314 44.8344 216.592 45.0527C216.87 45.2711 217.206 45.4021 217.558 45.4294C217.91 45.4566 218.263 45.3787 218.571 45.2056C218.879 45.0325 219.129 44.772 219.289 44.4569C219.449 44.1419 219.512 43.7864 219.47 43.4356C219.428 43.0848 219.282 42.7543 219.053 42.4859C218.823 42.2176 218.518 42.0234 218.178 41.928C217.838 41.8325 217.477 41.8401 217.141 41.9498C216.691 42.0969 216.317 42.4168 216.103 42.8393C215.888 43.2618 215.85 43.7522 215.997 44.2026Z" fill="white"/>
</g>
<path d="M229.258 47.8449C229.275 48.1802 249.519 57.9373 246.574 62.3893C243.629 66.8412 224.274 64.2075 206.269 57.3542C188.263 50.5009 170.691 40.7695 173.049 35.9104C175.407 31.0514 196.776 36.187 196.776 36.187L195.053 38.2469C195.053 38.2469 182.039 34.8545 179.508 38.6447C176.976 42.4349 190.102 49.7455 207.067 55.2762C224.032 60.8069 239.564 63.5008 240.721 60.0871C241.878 56.6734 229.2 50.7035 229.2 50.7035L229.258 47.8449Z" fill="#F2971D"/>
<g opacity="0.3">
<path d="M229.258 47.8449C229.275 48.1802 249.519 57.9373 246.574 62.3893C243.629 66.8412 224.274 64.2075 206.269 57.3542C188.263 50.5009 170.691 40.7695 173.049 35.9104C175.407 31.0514 196.776 36.187 196.776 36.187L195.053 38.2469C195.053 38.2469 182.039 34.8545 179.508 38.6447C176.976 42.4349 190.102 49.7455 207.067 55.2762C224.032 60.8069 239.564 63.5008 240.721 60.0871C241.878 56.6734 229.2 50.7035 229.2 50.7035L229.258 47.8449Z" fill="black"/>
</g>
<g opacity="0.3">
<path d="M215.324 33.6009C215.241 33.8239 216.79 34.4543 218.838 36.078C221.528 38.1381 223.556 40.9405 224.672 44.1396C225.788 47.3387 225.943 50.7945 225.118 54.0807C224.513 56.6225 223.7 58.0858 223.904 58.205C224.108 58.3242 225.203 56.9961 226.116 54.3849C226.634 52.8398 226.918 51.2261 226.959 49.5972C227.097 45.535 225.714 41.5676 223.079 38.4726C222.036 37.2227 220.811 36.1364 219.445 35.2498C217.132 33.7331 215.405 33.44 215.324 33.6009Z" fill="white"/>
</g>
<path d="M152.72 65.9621C152.669 63.7978 151.977 61.6973 150.732 59.9262C149.487 58.1552 147.745 56.793 145.726 56.0122C143.707 55.2313 141.502 55.0668 139.389 55.5394C137.276 56.012 135.351 57.1006 133.857 58.6673C132.363 60.2341 131.367 62.2087 130.996 64.3414C130.624 66.4742 130.893 68.6692 131.769 70.649C132.645 72.6288 134.088 74.3043 135.917 75.4637C137.745 76.6231 139.876 77.2142 142.04 77.1624C144.942 77.0929 147.697 75.874 149.699 73.7737C151.702 71.6733 152.789 68.8635 152.72 65.9621Z" fill="#0E6B5A"/>
<g opacity="0.4">
<path d="M138.212 62.0356C138.204 61.682 138.091 61.3387 137.888 61.0492C137.685 60.7596 137.4 60.537 137.07 60.4093C136.741 60.2817 136.38 60.2549 136.035 60.3323C135.69 60.4096 135.375 60.5877 135.132 60.844C134.888 61.1002 134.726 61.4231 134.665 61.7716C134.605 62.1202 134.65 62.4788 134.794 62.8019C134.937 63.1251 135.174 63.3983 135.473 63.5869C135.772 63.7755 136.121 63.8711 136.474 63.8614C136.709 63.8563 136.94 63.805 137.154 63.7104C137.368 63.6157 137.562 63.4796 137.723 63.3099C137.884 63.1402 138.011 62.9403 138.095 62.7216C138.179 62.5029 138.218 62.2698 138.212 62.0356Z" fill="black"/>
</g>
<g opacity="0.4">
<path d="M134.639 66.1977C134.633 65.9908 134.565 65.7905 134.444 65.6224C134.324 65.4542 134.156 65.3258 133.962 65.2536C133.768 65.1814 133.557 65.1687 133.355 65.2172C133.154 65.2656 132.972 65.3729 132.832 65.5254C132.692 65.6779 132.601 65.8687 132.57 66.0733C132.539 66.2779 132.57 66.4871 132.658 66.6742C132.747 66.8612 132.889 67.0176 133.067 67.1233C133.245 67.229 133.451 67.2793 133.657 67.2677C133.927 67.25 134.18 67.129 134.363 66.9296C134.546 66.7303 134.645 66.4681 134.639 66.1977Z" fill="black"/>
</g>
<g opacity="0.4">
<path d="M136.042 69.388C135.94 69.3905 135.843 69.433 135.771 69.5064C135.7 69.5798 135.66 69.6782 135.66 69.7806C135.661 69.8309 135.672 69.8804 135.692 69.9264C135.713 69.9724 135.742 70.0139 135.779 70.0485C135.815 70.0831 135.858 70.1103 135.905 70.1283C135.952 70.1463 136.002 70.155 136.052 70.1536C136.103 70.1537 136.153 70.1435 136.2 70.1235C136.246 70.1035 136.288 70.0743 136.323 70.0376C136.358 70.0008 136.385 69.9573 136.403 69.9098C136.42 69.8622 136.428 69.8116 136.425 69.761C136.423 69.6612 136.381 69.5663 136.31 69.4966C136.238 69.4269 136.142 69.388 136.042 69.388Z" fill="black"/>
</g>
<path d="M107.527 147.613C107.625 147.613 107.693 133.753 107.693 116.663C107.693 99.5728 107.625 85.7123 107.527 85.7123C107.428 85.7123 107.36 99.563 107.36 116.663C107.36 133.763 107.438 147.613 107.527 147.613Z" fill="#263238"/>
<path d="M105.682 86.2424C106.471 85.0991 107.173 83.8981 107.782 82.6497H107.488V82.7282C107.994 84.0551 108.595 85.3443 109.284 86.586C108.897 85.2188 108.398 83.8858 107.792 82.6006V82.5221L107.655 82.2079L107.498 82.5024C106.793 83.6984 106.186 84.9491 105.682 86.2424Z" fill="#263238"/>
<path d="M107.87 78.3993C107.929 78.468 108.439 78.1342 108.852 77.5158C109.264 76.8974 109.362 76.2986 109.274 76.279C109.185 76.2593 108.95 76.7698 108.577 77.3391C108.204 77.9085 107.811 78.3305 107.87 78.3993Z" fill="#263238"/>
<path d="M108.842 80.1858C108.656 79.4248 108.393 78.6848 108.057 77.9771C107.833 77.2273 107.53 76.5034 107.153 75.8176C107.214 76.6067 107.416 77.3783 107.752 78.0949C107.984 78.8529 108.353 79.5617 108.842 80.1858Z" fill="#263238"/>
<path d="M111.963 93.8598C111.739 93.2357 111.549 92.6 111.394 91.9554C111.36 91.3015 111.36 90.6462 111.394 89.9922C111.046 90.6127 110.944 91.3418 111.109 92.034C111.157 92.7275 111.462 93.3784 111.963 93.8598Z" fill="#263238"/>
<path d="M111.355 91.2781C111.355 91.2781 111.434 91.5432 111.826 91.6413C112.059 91.6908 112.302 91.6486 112.504 91.5235C112.623 91.4376 112.722 91.3258 112.792 91.1966C112.863 91.0673 112.904 90.9238 112.911 90.7767C112.919 90.6297 112.893 90.4828 112.836 90.347C112.779 90.2112 112.692 90.0899 112.582 89.9922C112.388 89.8544 112.151 89.7916 111.915 89.8155C111.512 89.8155 111.375 90.11 111.414 90.1296C111.453 90.1493 111.62 90.0315 111.925 90.0511C112.016 90.0495 112.107 90.067 112.191 90.1024C112.275 90.1379 112.352 90.1906 112.414 90.2571C112.477 90.3236 112.525 90.4025 112.556 90.4887C112.587 90.575 112.599 90.6666 112.592 90.7579C112.588 90.8495 112.566 90.9394 112.527 91.0222C112.487 91.105 112.432 91.1789 112.363 91.2395C112.294 91.3001 112.213 91.346 112.126 91.3746C112.039 91.4032 111.947 91.4138 111.856 91.4057C111.552 91.4156 111.394 91.2389 111.355 91.2781Z" fill="#263238"/>
<path d="M59.3387 143.216C59.3387 143.304 71.1967 143.382 85.8425 143.382C100.488 143.382 112.346 143.304 112.346 143.216C112.346 143.127 100.498 143.049 85.8425 143.049C71.1869 143.049 59.3387 143.127 59.3387 143.216Z" fill="#263238"/>
<path d="M58.799 143.147C59.568 143.027 60.3153 142.796 61.0175 142.46C61.747 142.23 62.4408 141.9 63.0789 141.478C62.3219 141.601 61.5875 141.836 60.8997 142.175C60.1558 142.395 59.4481 142.722 58.799 143.147Z" fill="#263238"/>
<path d="M58.2197 143.343C59.338 143.979 60.5616 144.408 61.832 144.61C61.2916 144.256 60.6985 143.991 60.075 143.824C59.4892 143.557 58.8614 143.394 58.2197 143.343Z" fill="#263238"/>
<path d="M110.02 144.894C109.836 145.021 109.681 145.183 109.562 145.373C109.444 145.562 109.366 145.773 109.333 145.994C109.215 146.474 109.253 146.979 109.441 147.437C109.549 147.719 109.733 147.967 109.971 148.153C110.117 148.248 110.288 148.298 110.462 148.298C110.636 148.298 110.806 148.248 110.953 148.153C111.202 147.968 111.403 147.725 111.537 147.444C111.67 147.163 111.732 146.854 111.718 146.543C111.725 146.292 111.676 146.043 111.574 145.814C111.472 145.584 111.32 145.381 111.129 145.218C111.002 145.108 110.854 145.024 110.694 144.972C110.534 144.92 110.365 144.9 110.197 144.914C109.961 144.914 109.853 145.022 109.863 145.032C109.873 145.041 109.991 145.032 110.197 145.032C110.488 145.058 110.761 145.182 110.972 145.385C111.124 145.532 111.241 145.709 111.318 145.906C111.394 146.103 111.427 146.313 111.414 146.524C111.42 146.78 111.366 147.034 111.257 147.265C111.148 147.497 110.987 147.7 110.786 147.859C110.689 147.921 110.577 147.954 110.462 147.954C110.347 147.954 110.234 147.921 110.138 147.859C109.944 147.711 109.791 147.514 109.696 147.289C109.524 146.887 109.469 146.445 109.539 146.013C109.641 145.618 109.804 145.24 110.02 144.894Z" fill="#263238"/>
<path d="M66.9067 145.591C66.9067 145.591 66.7202 145.483 66.465 145.699C66.3896 145.765 66.3301 145.846 66.291 145.938C66.2519 146.03 66.2342 146.129 66.2392 146.229C66.2641 146.484 66.3749 146.723 66.5534 146.906C66.9264 147.319 67.6135 147.476 67.9276 147.976C67.9998 148.107 68.0377 148.254 68.0377 148.403C68.0377 148.553 67.9998 148.7 67.9276 148.83C67.846 148.967 67.7267 149.078 67.5841 149.15C67.4414 149.221 67.2813 149.25 67.1227 149.233C66.9626 149.22 66.8103 149.158 66.6859 149.056C66.5615 148.955 66.4708 148.818 66.4258 148.664C66.3784 148.52 66.3688 148.367 66.398 148.22C66.4273 148.072 66.4943 147.934 66.5926 147.819C66.7908 147.59 67.0306 147.4 67.2994 147.26C67.4457 147.205 67.578 147.119 67.6866 147.007C67.7953 146.895 67.8776 146.76 67.9276 146.612C67.9566 146.485 67.9567 146.352 67.9278 146.225C67.8989 146.098 67.8418 145.978 67.7607 145.876C67.6444 145.729 67.4923 145.614 67.319 145.542C67.0344 145.444 66.8675 145.464 66.8577 145.483C66.8479 145.503 67.0147 145.483 67.2601 145.66C67.4029 145.737 67.5243 145.848 67.6135 145.984C67.6698 146.066 67.707 146.16 67.7223 146.258C67.7376 146.357 67.7306 146.458 67.7018 146.553C67.6037 146.975 66.8184 147.034 66.357 147.633C66.2243 147.787 66.133 147.972 66.0918 148.172C66.0506 148.371 66.0608 148.577 66.1215 148.772C66.1888 148.985 66.318 149.174 66.4928 149.313C66.6676 149.453 66.88 149.538 67.1031 149.557C67.3236 149.581 67.5463 149.54 67.7446 149.441C67.943 149.342 68.1087 149.188 68.2221 148.997C68.3236 148.818 68.377 148.615 68.377 148.408C68.377 148.202 68.3236 147.999 68.2221 147.819C68.0219 147.538 67.751 147.315 67.4368 147.172C67.1953 147.054 66.968 146.909 66.7595 146.74C66.6038 146.602 66.4999 146.415 66.465 146.21C66.4571 146.134 66.4644 146.058 66.4863 145.986C66.5082 145.913 66.5443 145.846 66.5926 145.787C66.7104 145.591 66.9067 145.621 66.9067 145.591Z" fill="#263238"/>
<path d="M67.0446 144.354C67.2703 143.386 67.2703 142.378 67.0446 141.409C66.8189 142.378 66.8189 143.386 67.0446 144.354Z" fill="#263238"/>
<path d="M52.8802 143.274C53.1695 143.378 53.4762 143.425 53.7833 143.412L54.7649 143.471C54.8381 143.495 54.9174 143.495 54.9906 143.471C55.0383 143.44 55.0752 143.395 55.0963 143.342C55.1174 143.289 55.1216 143.232 55.1084 143.176C55.0746 143.052 55.0024 142.943 54.9023 142.862L54.4704 142.411C54.176 142.182 53.9823 141.847 53.9305 141.478C53.9218 141.345 53.9576 141.213 54.0323 141.103C54.1069 140.993 54.2162 140.911 54.3428 140.869C54.5423 140.845 54.7445 140.883 54.9219 140.977C55.0692 141.036 55.1477 141.076 55.1673 141.056C55.187 141.036 55.1182 140.968 54.9906 140.869C54.8001 140.706 54.5543 140.622 54.3035 140.634C54.1079 140.673 53.9325 140.781 53.8085 140.937C53.6845 141.093 53.62 141.288 53.6262 141.488C53.6627 141.934 53.8745 142.347 54.2152 142.636L54.6667 143.078C54.7452 143.147 54.8041 143.216 54.8041 143.245H54.7452H53.7636C53.4695 143.205 53.1709 143.215 52.8802 143.274Z" fill="#263238"/>
<path d="M100.479 143.216C100.479 143.216 100.479 142.882 100.479 142.303C100.479 141.723 100.479 140.869 100.528 139.878C100.528 137.817 100.587 134.97 100.596 131.711L100.439 131.878H103.512L103.345 131.711V135.117C103.345 136.207 103.345 137.247 103.345 138.229C103.345 140.192 103.345 141.861 103.394 143.206L103.492 143.108L101.254 143.157C100.724 143.157 100.43 143.157 100.42 143.206C100.678 143.222 100.937 143.222 101.195 143.206L103.492 143.255H103.59V143.157C103.59 141.812 103.59 140.123 103.59 138.18C103.59 137.198 103.59 136.158 103.59 135.068V131.662L103.423 131.495H100.282V131.652C100.282 134.98 100.282 137.876 100.361 139.927C100.361 140.909 100.361 141.714 100.361 142.322C100.375 142.623 100.414 142.922 100.479 143.216Z" fill="#263238"/>
<path d="M71.1773 143.216C71.1886 143.098 71.1886 142.98 71.1773 142.862C71.1773 142.607 71.1773 142.293 71.1773 141.881C71.1773 140.997 71.1773 139.799 71.2264 138.317C71.2264 135.313 71.2853 131.151 71.2951 126.43L71.1282 126.587H74.2105L74.0436 126.43V129.021C74.0436 129.875 74.0436 130.71 74.0436 131.524C74.0436 133.164 74.0436 134.705 74.0436 136.148C74.0436 138.995 74.0927 141.409 74.1025 143.176L74.1909 143.088H71.943H71.3344H71.1086C71.3668 143.106 71.6259 143.106 71.8841 143.088L74.1909 143.137H74.2792V143.049C74.2792 141.282 74.2792 138.867 74.3381 136.02C74.3381 134.577 74.3381 133.075 74.3381 131.397C74.3381 130.582 74.3381 129.748 74.3381 128.894V126.302L74.1712 126.135H70.9319V126.302C70.9319 131.093 70.9319 135.313 71.0006 138.307C71.0006 139.77 71.0006 140.958 71.0497 141.831C71.0497 142.204 71.0497 142.519 71.0497 142.813C71.0497 143.108 71.1773 143.225 71.1773 143.216Z" fill="#263238"/>
<path d="M93.0672 143.216C93.0786 143.072 93.0786 142.927 93.0672 142.784C93.0672 142.47 93.0672 142.067 93.0672 141.566C93.0672 140.497 93.0672 138.995 93.1163 137.13C93.1163 133.37 93.1163 128.177 93.185 122.317L93.0181 122.484H96.1004C95.7666 122.15 96.0121 122.395 95.9335 122.327V125.645C95.9335 126.734 95.9335 127.794 95.9335 128.835C95.9335 130.906 95.9335 132.86 95.9335 134.656C95.9335 138.229 95.9826 141.174 96.0022 143.216L96.0808 143.137H93.8132H93.2144H92.9985H93.185H93.774H96.0808H96.1593V143.059C96.1593 141.017 96.1593 138.072 96.2182 134.499C96.2182 132.702 96.2182 130.749 96.2182 128.678C96.2182 127.637 96.2182 126.577 96.2182 125.488V122.17C96.1396 122.091 96.3851 122.327 96.0513 121.993H92.812V122.15C92.812 128.04 92.861 133.291 92.8807 137.08C92.8807 138.926 92.8807 140.418 92.9298 141.478C92.9298 141.969 92.9298 142.362 92.9298 142.656C92.9298 142.951 93.0672 143.225 93.0672 143.216Z" fill="#263238"/>
<path d="M85.8227 143.147C85.8268 143.091 85.8268 143.036 85.8227 142.98V142.46C85.8227 142.008 85.8227 141.38 85.8227 140.585C85.8227 138.946 85.8227 136.599 85.8718 133.713C85.8718 127.883 85.9209 119.824 85.9503 110.773L85.7835 110.94H88.8952L88.7381 110.783V121.159C88.7381 124.437 88.7381 127.519 88.7381 130.327C88.7381 135.903 88.797 140.369 88.8167 143.088L88.8756 143.029H86.608H85.8031C85.8031 143.029 85.862 143.029 85.9896 143.029H86.5393H88.8461H88.9148V142.96C88.9148 140.192 88.9148 135.726 88.9835 130.199C88.9835 127.392 88.9835 124.31 88.9835 121.031C88.9835 119.382 88.9835 117.693 88.9835 115.956V110.655C88.9148 110.577 89.1504 110.812 88.8167 110.479H85.5773V110.645C85.5773 119.735 85.5773 127.843 85.646 133.704C85.646 136.59 85.646 138.926 85.6951 140.575C85.6951 141.36 85.6951 141.979 85.6951 142.42V142.892C85.8129 143.108 85.8129 143.157 85.8227 143.147Z" fill="#263238"/>
<path d="M78.3923 143.147C78.3923 143.147 78.3923 143.049 78.3923 142.862C78.3923 142.676 78.3923 142.381 78.3923 142.028C78.3923 141.292 78.3923 140.222 78.3923 138.857C78.3923 136.099 78.3922 132.113 78.4413 127.196C78.4413 117.379 78.4413 103.705 78.51 88.4903L78.3432 88.6572H81.4255C81.1015 88.3333 81.3273 88.5787 81.2586 88.5099V97.9041C81.2586 100.967 81.2586 103.951 81.2586 106.827C81.2586 112.589 81.2586 117.929 81.2586 122.71C81.2586 132.231 81.3273 139.466 81.3469 143.147H79.0401H78.2646C78.2646 143.147 78.3235 143.147 78.4511 143.147H79.0106H81.3469H81.396V143.088C81.396 139.407 81.4451 132.172 81.4745 122.651C81.4745 117.87 81.4745 112.53 81.4745 106.768C81.4745 103.892 81.4745 100.878 81.4745 97.8452V88.4707C81.396 88.3922 81.6414 88.6179 81.3077 88.2842H78.0683V88.4707C78.0683 103.735 78.0683 117.409 78.137 127.294C78.137 132.202 78.137 136.128 78.1861 138.916C78.1861 140.271 78.1861 141.321 78.1861 142.057C78.1861 142.401 78.1861 142.666 78.1861 142.862C78.1861 143.059 78.3923 143.157 78.3923 143.147Z" fill="#263238"/>
<path d="M415.521 190.304L405.648 235.277L330.405 218.757L415.521 190.304ZM400.007 205.878L364.545 218.082L395.827 224.922L400.007 205.878Z" fill="#0D6C61"/>
<path d="M407.344 193.058C407.425 194.097 407.678 195.115 408.093 196.071C408.349 197.088 408.775 198.054 409.354 198.928C409.279 197.879 409.027 196.851 408.61 195.886C408.347 194.88 407.919 193.924 407.344 193.058Z" fill="white"/>
<path d="M394.728 197.207C394.812 198.234 395.067 199.239 395.483 200.181C395.735 201.173 396.16 202.113 396.738 202.958C396.662 201.931 396.41 200.926 395.992 199.985C395.742 198.99 395.314 198.049 394.728 197.207Z" fill="white"/>
<path d="M382.122 201.358C382.307 202.365 382.662 203.333 383.173 204.221C383.528 205.189 384.059 206.083 384.738 206.858C384.555 205.847 384.2 204.876 383.688 203.985C383.327 203.023 382.796 202.133 382.122 201.358Z" fill="white"/>
<path d="M369.656 205.809C369.828 206.823 370.184 207.796 370.706 208.682C371.074 209.644 371.603 210.536 372.271 211.319C372.098 210.306 371.742 209.332 371.221 208.446C370.853 207.485 370.324 206.593 369.656 205.809Z" fill="white"/>
<path d="M356.711 210.025C356.834 211.073 357.134 212.093 357.599 213.041C357.899 214.046 358.365 214.995 358.978 215.847C358.57 213.788 357.803 211.817 356.711 210.025Z" fill="white"/>
<path d="M343.258 214.497C343.334 215.484 343.591 216.448 344.014 217.342C344.275 218.296 344.702 219.196 345.277 220.001C345.196 219.01 344.937 218.043 344.513 217.144C344.262 216.192 343.837 215.294 343.258 214.497Z" fill="white"/>
<path d="M403.404 194.374C403.266 194.432 403.373 195.125 403.649 195.945C403.926 196.764 404.266 197.366 404.423 197.321C404.579 197.277 404.454 196.571 404.176 195.761C403.898 194.951 403.538 194.346 403.404 194.374Z" fill="white"/>
<path d="M399.293 195.653C399.146 195.699 399.262 196.403 399.539 197.214C399.817 198.024 400.145 198.643 400.311 198.6C400.477 198.557 400.332 197.848 400.066 197.03C399.799 196.211 399.428 195.615 399.293 195.653Z" fill="white"/>
<path d="M390.069 198.796C389.93 198.853 390.038 199.546 390.314 200.366C390.59 201.186 390.929 201.797 391.087 201.743C391.245 201.688 391.118 200.992 390.84 200.182C390.563 199.372 390.205 198.748 390.069 198.796Z" fill="white"/>
<path d="M385.944 200.092C385.807 200.14 385.913 200.843 386.191 201.653C386.468 202.463 386.806 203.084 386.962 203.039C387.119 202.995 386.993 202.289 386.717 201.469C386.441 200.649 386.091 200.046 385.944 200.092Z" fill="white"/>
<path d="M377.566 203.162C377.42 203.208 377.535 203.912 377.813 204.723C378.091 205.533 378.419 206.152 378.585 206.109C378.751 206.066 378.616 205.358 378.34 204.539C378.064 203.719 377.702 203.124 377.566 203.162Z" fill="white"/>
<path d="M373.621 204.457C373.474 204.503 373.59 205.208 373.867 206.018C374.145 206.828 374.473 207.447 374.639 207.404C374.805 207.361 374.672 206.644 374.394 205.834C374.116 205.024 373.747 204.477 373.621 204.457Z" fill="white"/>
<path d="M365.101 207.305C364.963 207.363 365.07 208.056 365.346 208.876C365.623 209.695 365.954 210.295 366.12 210.252C366.286 210.209 366.151 209.502 365.873 208.692C365.595 207.882 365.238 207.258 365.101 207.305Z" fill="white"/>
<path d="M360.516 208.866C360.377 208.923 360.485 209.617 360.761 210.436C361.037 211.256 361.376 211.867 361.534 211.813C361.692 211.759 361.565 211.062 361.288 210.252C361.01 209.442 360.653 208.818 360.516 208.866Z" fill="white"/>
<path d="M352.275 211.649C352.138 211.697 352.244 212.4 352.521 213.21C352.799 214.02 353.137 214.641 353.293 214.596C353.449 214.552 353.324 213.846 353.048 213.026C352.772 212.206 352.421 211.603 352.275 211.649Z" fill="white"/>
<path d="M347.533 213.195C347.394 213.252 347.5 213.955 347.778 214.765C348.056 215.575 348.393 216.196 348.551 216.142C348.709 216.088 348.582 215.391 348.305 214.581C348.027 213.771 347.67 213.147 347.533 213.195Z" fill="white"/>
<path d="M201.857 225.426L222.776 221.392L262.904 230.599L283.243 234.84L283.538 262.63L238.167 270.983L207.551 261.913L195.977 244.882L201.857 225.426Z" fill="#FFBE9D"/>
<path d="M186.996 228.194L206.736 223.541C206.736 223.541 220.695 266.733 255.14 264.838C283.214 263.317 283.244 234.84 283.244 234.84L303.769 238.462C303.769 238.462 312.378 290.576 302.945 327.132C295.092 357.562 288.122 399.261 288.122 399.261H151.765L186.996 228.194Z" fill="#E89C24"/>
<path d="M387.02 361.724C387.02 361.724 330.783 263.199 320.663 250.556C309.58 236.715 300.736 238.315 300.736 238.315L294.787 304.682L342.602 372.522L353.998 376.635L387.02 361.724Z" fill="#E89C24"/>
<path d="M189.351 227.645C189.351 227.645 157.39 230.197 145.924 282.615C140.742 306.302 134.145 334.062 132.3 352.713C130.925 366.249 139.279 380.326 152.776 382.053L169.719 385.195C174.195 386.025 178.819 385.108 182.64 382.632C186.46 380.156 189.185 376.309 190.254 371.884L195.977 348.187L180.733 343.063L184.257 272.475L189.351 227.645Z" fill="#E89C24"/>
<path d="M306.38 275.096C306.455 275.332 306.504 275.576 306.527 275.822C306.615 276.353 306.713 277.059 306.851 277.933C306.92 278.394 306.988 278.915 307.077 279.464C307.165 280.014 307.194 280.632 307.253 281.29C307.391 282.596 307.548 284.088 307.617 285.747C307.853 289.626 307.88 293.516 307.695 297.398C307.466 302.151 306.994 306.888 306.282 311.593C305.545 316.599 304.623 321.33 303.69 325.61C302.758 329.89 301.825 333.728 301.03 336.948C300.235 340.168 299.538 342.749 299.067 344.536C298.831 345.39 298.645 346.077 298.497 346.587C298.438 346.828 298.362 347.064 298.271 347.294C298.292 347.049 298.334 346.805 298.399 346.568C298.517 346.038 298.684 345.351 298.88 344.487L300.686 336.82C301.442 333.591 302.345 329.753 303.238 325.473C304.132 321.193 305.054 316.471 305.791 311.475C306.527 306.478 307.028 301.659 307.234 297.33C307.44 293.001 307.459 289.025 307.234 285.727C307.234 284.078 307.057 282.586 306.949 281.27C306.9 280.623 306.851 280.014 306.812 279.445C306.772 278.875 306.684 278.385 306.635 277.913C306.537 277.04 306.468 276.333 306.409 275.803C306.384 275.568 306.374 275.332 306.38 275.096Z" fill="#263238"/>
<path d="M197.469 350.72C197.402 350.581 197.346 350.437 197.302 350.288C197.204 349.964 197.067 349.552 196.9 349.022L196.272 346.99C196.095 346.066 195.705 345.195 195.133 344.448C194.292 343.641 193.288 343.025 192.188 342.641C190.895 342.153 189.561 341.778 188.203 341.522C184.964 340.922 181.68 340.594 178.387 340.541H178.122V340.286L181.008 321.468C182.863 309.62 184.551 298.891 185.778 291.038C186.416 287.19 186.927 284.058 187.29 281.84C187.467 280.79 187.614 279.955 187.722 279.337C187.722 279.082 187.81 278.866 187.849 278.689C187.856 278.614 187.876 278.541 187.908 278.473C187.923 278.547 187.923 278.624 187.908 278.699C187.908 278.875 187.908 279.091 187.83 279.356C187.751 279.975 187.633 280.809 187.496 281.869C187.172 284.098 186.711 287.239 186.151 291.097C184.954 298.95 183.324 309.659 181.518 321.527C180.458 328.3 179.466 334.71 178.573 340.335L178.347 340.07C181.681 340.155 185.001 340.527 188.272 341.179C189.649 341.454 190.999 341.851 192.306 342.367C193.451 342.786 194.487 343.457 195.339 344.33C195.69 344.724 195.951 345.189 196.105 345.694L196.468 347C196.694 347.795 196.88 348.482 197.037 349.051C197.194 349.621 197.293 350.033 197.371 350.337C197.416 350.462 197.449 350.59 197.469 350.72Z" fill="#263238"/>
<path d="M153.444 358.73C153.475 358.283 153.561 357.841 153.699 357.415C154.008 356.232 154.421 355.078 154.936 353.969C156.61 350.262 159.219 347.053 162.508 344.66C165.797 342.266 169.652 340.768 173.694 340.315C174.906 340.167 176.128 340.127 177.346 340.197C177.796 340.202 178.244 340.258 178.681 340.364C177.041 340.373 175.402 340.475 173.773 340.668C169.822 341.213 166.068 342.726 162.843 345.072C159.618 347.418 157.023 350.525 155.289 354.116C154.592 355.62 153.976 357.16 153.444 358.73Z" fill="#263238"/>
<path d="M160.835 332.639C161.085 332.575 161.344 332.552 161.601 332.57C162.306 332.557 163.011 332.59 163.711 332.668C166.029 332.901 168.301 333.47 170.455 334.356C172.609 335.248 174.625 336.441 176.443 337.9C176.994 338.336 177.515 338.808 178.004 339.314C178.347 339.677 178.534 339.883 178.504 339.912C178.475 339.942 177.641 339.225 176.227 338.185C172.52 335.469 168.208 333.697 163.662 333.021C161.925 332.766 160.835 332.727 160.835 332.639Z" fill="#263238"/>
<path d="M193.916 264.838C193.852 264.373 193.829 263.903 193.847 263.434C193.847 262.531 193.788 261.236 193.67 259.636C193.376 255.461 192.659 251.327 191.531 247.297C190.386 243.273 188.844 239.373 186.927 235.655C186.181 234.231 185.552 233.093 185.091 232.327C184.832 231.935 184.609 231.521 184.424 231.09C184.737 231.439 185.016 231.817 185.258 232.219C185.778 232.965 186.456 234.074 187.221 235.488C191.307 242.902 193.625 251.159 193.994 259.616C194.063 261.226 194.053 262.561 193.994 263.434C194.015 263.904 193.988 264.374 193.916 264.838Z" fill="#263238"/>
<g opacity="0.3">
<path d="M304.927 319.063C313.074 305.251 313.251 287.307 306.134 272.927C308.423 288.248 307.931 303.857 304.682 319.004" fill="black"/>
</g>
<g opacity="0.3">
<path d="M232.386 334.68C226.201 336.496 217.661 336.938 211.605 334.68C216.326 341.385 225.426 343.809 233.318 341.63C241.21 339.451 248.494 331.549 249.103 323.372C245.284 328.535 238.58 332.894 232.386 334.68Z" fill="black"/>
</g>
<path d="M255.139 312.378C255.111 312.566 255.061 312.75 254.992 312.928C254.874 313.281 254.737 313.821 254.462 314.469C253.747 316.345 252.856 318.149 251.802 319.858C250.248 322.406 248.371 324.742 246.217 326.808C240.932 331.952 234.11 335.227 226.79 336.133C223.832 336.517 220.836 336.517 217.877 336.133C215.879 335.885 213.907 335.454 211.987 334.847C211.3 334.641 210.8 334.415 210.446 334.288C210.267 334.227 210.093 334.151 209.926 334.062C210.639 334.222 211.343 334.419 212.037 334.651C220.348 336.962 229.211 336.227 237.029 332.58C244.768 328.775 250.882 322.317 254.256 314.381C254.825 313.104 255.09 312.358 255.139 312.378Z" fill="#263238"/>
<path d="M186.191 381.101C186.191 381.101 186.122 381.209 185.945 381.366C185.698 381.612 185.432 381.839 185.15 382.044C184.123 382.809 182.984 383.412 181.773 383.83C179.973 384.429 178.094 384.759 176.198 384.812C173.904 384.884 171.609 384.802 169.326 384.566C164.418 384.144 160.06 383.428 156.909 382.868C155.328 382.583 154.052 382.338 153.179 382.152C152.713 382.089 152.256 381.977 151.814 381.818C152.282 381.825 152.748 381.871 153.208 381.955L156.968 382.505C160.129 382.986 164.507 383.634 169.375 384.056C171.658 384.292 173.953 384.387 176.247 384.341C178.105 384.302 179.948 384.004 181.724 383.457C183.323 382.9 184.828 382.106 186.191 381.101Z" fill="#263238"/>
<path d="M297.055 122.827L301.089 118.901C306.458 121.237 308.942 127.47 309.855 133.262C310.768 139.053 310.63 145.139 313.094 150.46C314.979 154.553 318.405 158.313 318.002 162.838C317.62 167.108 313.752 170.563 313.732 174.853C313.732 178.986 317.168 182.156 319.17 185.769C321.643 190.229 323.586 203.098 324.245 214.297C324.817 224.022 316.642 230.526 306.933 229.745C289.932 228.378 269.521 226.553 256.465 223.551C261.167 192.807 280.966 149.419 297.055 122.827Z" fill="#263238"/>
<path d="M305.035 150.234C306.272 129.335 291.096 110.213 269.942 107.691C247.492 105.021 227.634 121.1 225.769 142.97L220.508 231.257C220.412 232.963 220.888 234.653 221.862 236.057C227.045 243.635 236.43 249.564 244.822 250.732C252.94 251.861 261.176 249.751 268.087 245.903C269.233 245.255 270.189 244.317 270.859 243.184C271.529 242.05 271.89 240.76 271.905 239.444L272.269 219.684C272.267 219.667 272.269 219.649 272.275 219.633C272.281 219.617 272.29 219.602 272.303 219.59C272.315 219.578 272.329 219.569 272.346 219.563C272.362 219.557 272.379 219.555 272.396 219.556C274.245 219.696 276.104 219.643 277.942 219.399C283.165 218.123 296.485 212.999 300.961 193.445C302.453 186.966 303.945 168.561 305.035 150.234Z" fill="#FFBE9D"/>
<path d="M275.999 179.104C275.999 178.907 278.188 178.691 281.732 178.495C282.625 178.495 283.479 178.348 283.695 177.759C283.827 176.858 283.676 175.939 283.263 175.128L281.064 168.257C278.021 158.519 275.881 150.538 276.274 150.43C276.667 150.322 279.464 158.107 282.507 167.844C283.234 170.249 283.931 172.536 284.598 174.716C284.873 175.697 285.373 176.895 284.834 178.181C284.683 178.481 284.466 178.742 284.199 178.944C283.932 179.147 283.622 179.285 283.292 179.349C282.792 179.449 282.281 179.485 281.771 179.457C278.198 179.437 276.009 179.3 275.999 179.104Z" fill="#263238"/>
<path d="M299.263 157.626C298.881 158.048 296.564 156.104 293.246 156.006C289.928 155.908 287.455 157.645 287.101 157.194C286.924 156.988 287.327 156.212 288.407 155.407C289.833 154.382 291.559 153.857 293.315 153.915C295.069 153.976 296.752 154.622 298.095 155.751C299.126 156.634 299.509 157.439 299.263 157.626Z" fill="#263238"/>
<path d="M265.554 158.47C265.103 158.892 262.688 156.703 259.066 156.389C255.444 156.075 252.626 157.734 252.263 157.243C252.087 157.017 252.577 156.261 253.804 155.456C255.449 154.482 257.36 154.056 259.262 154.239C261.166 154.408 262.964 155.19 264.386 156.467C265.456 157.42 265.77 158.283 265.554 158.47Z" fill="#263238"/>
<path d="M272.269 219.546C272.269 219.546 258.742 219.693 242.565 208.582C242.565 208.582 246.747 226.427 272.161 225.868L272.269 219.546Z" fill="#EB996E"/>
<path d="M273.987 187.251C273.371 186.382 272.546 185.681 271.59 185.213C270.633 184.745 269.574 184.524 268.509 184.571C267.741 184.582 266.982 184.748 266.279 185.058C265.576 185.369 264.942 185.817 264.416 186.377C263.913 186.914 263.591 187.594 263.494 188.323C263.398 189.051 263.531 189.792 263.876 190.441C264.73 191.806 266.674 192.247 268.372 191.894C270.054 191.434 271.628 190.647 273.005 189.577C273.414 189.316 273.773 188.983 274.065 188.596C274.203 188.415 274.285 188.197 274.299 187.97C274.313 187.742 274.259 187.516 274.144 187.32" fill="#EB996E"/>
<path d="M265.594 180.743C266.163 180.743 265.938 184.473 269 187.339C272.063 190.206 276.117 190.068 276.117 190.588C276.117 190.834 275.135 191.256 273.467 191.177C271.254 191.055 269.153 190.17 267.518 188.674C265.961 187.251 265.024 185.274 264.907 183.167C264.858 181.607 265.339 180.743 265.594 180.743Z" fill="#263238"/>
<path d="M266.133 144.786C265.721 145.689 262.276 144.992 258.163 145.159C254.05 145.326 250.663 146.141 250.172 145.306C249.966 144.884 250.594 144.06 251.998 143.255C253.865 142.283 255.926 141.742 258.03 141.674C260.133 141.606 262.225 142.012 264.151 142.862C265.574 143.569 266.271 144.354 266.133 144.786Z" fill="#263238"/>
<path d="M299.98 145.522C299.273 146.308 296.476 145.522 293.109 145.522C289.742 145.522 286.915 146.082 286.237 145.267C285.943 144.874 286.385 144.089 287.621 143.304C289.334 142.406 291.245 141.957 293.178 141.999C295.111 142.04 297.002 142.57 298.674 143.539C299.892 144.335 300.294 145.139 299.98 145.522Z" fill="#263238"/>
<path d="M273.005 103.273C271.179 100.171 267.793 98.758 264.004 98.1886C248.533 95.8425 231.276 105.158 222.609 118.174C213.941 131.191 213.48 150.617 219.821 164.909L229.47 158.882C248.838 150.892 262.512 132.231 274.968 112.952C276.706 110.331 274.625 105.973 273.005 103.273Z" fill="#263238"/>
<path d="M296.839 111.784C290.37 104.422 285.668 97.0598 272.239 102.203C270.276 105.963 274.203 110.842 277.579 113.688C282.487 117.87 286.699 120.687 289.899 123.681C296.358 129.718 303.7 150.028 304.338 161.11C304.338 161.807 305.565 151.599 306.301 151.491C307.205 151.353 310.846 146.897 310.346 140.811C308.618 120.01 303.308 119.136 296.839 111.784Z" fill="#263238"/>
<path d="M264.043 98.1886C265.051 97.9918 266.095 98.0802 267.056 98.4439C269.433 99.1727 271.551 100.566 273.162 102.459C273.622 102.991 274.03 103.566 274.379 104.177C274.684 104.766 274.921 105.389 275.086 106.032C275.436 107.069 275.702 108.132 275.881 109.212C276.146 111.107 275.695 112.255 275.596 112.226C275.498 112.196 275.645 111.067 275.233 109.33C274.961 108.302 274.633 107.29 274.252 106.297C274.077 105.716 273.847 105.154 273.564 104.618C273.233 104.056 272.851 103.523 272.426 103.028C270.906 101.267 268.983 99.8999 266.821 99.0426C265.152 98.4439 264.023 98.3457 264.043 98.1886Z" fill="#455A64"/>
<path d="M296.2 164.055C296.202 164.808 295.914 165.533 295.398 166.081C294.881 166.629 294.174 166.958 293.422 167C293.049 167.035 292.673 166.995 292.315 166.883C291.957 166.77 291.626 166.588 291.34 166.345C291.053 166.103 290.818 165.806 290.649 165.472C290.479 165.138 290.377 164.773 290.35 164.399C290.331 163.634 290.61 162.892 291.129 162.33C291.647 161.767 292.364 161.428 293.128 161.385C293.507 161.349 293.889 161.39 294.252 161.506C294.615 161.622 294.95 161.811 295.237 162.061C295.525 162.311 295.758 162.616 295.924 162.959C296.089 163.302 296.184 163.675 296.2 164.055Z" fill="#263238"/>
<path d="M263.866 164.212C263.885 164.977 263.606 165.719 263.087 166.282C262.569 166.844 261.852 167.183 261.088 167.226C260.715 167.262 260.339 167.224 259.981 167.112C259.624 167.001 259.292 166.819 259.006 166.578C258.719 166.336 258.484 166.04 258.314 165.706C258.144 165.372 258.043 165.008 258.016 164.634C257.994 163.868 258.272 163.123 258.791 162.559C259.31 161.994 260.028 161.654 260.794 161.611C261.167 161.575 261.544 161.614 261.902 161.726C262.261 161.838 262.593 162.02 262.879 162.263C263.166 162.505 263.401 162.803 263.57 163.138C263.74 163.472 263.84 163.838 263.866 164.212Z" fill="#263238"/>
<path d="M174.892 188.782C176.718 185.779 178.819 182.951 182.156 181.705C185.494 180.458 189.283 179.742 191.904 177.307C196.017 173.528 195.83 167.246 195.457 161.768C195.084 156.291 194.986 149.989 199.187 146.308C202.701 143.235 208.287 142.96 211.33 139.436C213.362 137.09 213.764 133.851 214.471 130.857C216.434 122.837 220.822 108.829 244.459 100.77L223.551 180.223C225.112 180.664 228.842 184.218 229.048 186.623C229.235 188.871 228.263 191.148 228.243 193.406C228.243 196.164 231.247 197.813 233.151 199.855C235.566 202.456 236.312 206.206 235.939 209.671C235.165 214.407 233.898 219.049 232.16 223.522C212.763 221.559 184.453 220.93 169.67 208.562C166.99 206.324 170.828 195.467 174.892 188.782Z" fill="#263238"/>
<path d="M229.509 158.882C229.146 158.686 214.863 152.992 213.95 168.06C213.038 183.128 228.321 180.89 228.37 180.468C228.42 180.046 229.509 158.882 229.509 158.882Z" fill="#FFBE9D"/>
<path d="M224.13 174.5C224.061 174.441 223.855 174.667 223.394 174.833C222.755 175.067 222.051 175.042 221.431 174.765C219.88 174.078 218.692 171.476 218.78 168.767C218.83 167.476 219.165 166.212 219.762 165.066C219.933 164.606 220.212 164.194 220.576 163.864C220.94 163.534 221.378 163.297 221.853 163.172C222.159 163.111 222.477 163.159 222.751 163.307C223.025 163.456 223.239 163.697 223.355 163.987C223.531 164.418 223.414 164.713 223.492 164.742C223.571 164.772 223.836 164.507 223.747 163.879C223.691 163.499 223.503 163.152 223.217 162.897C222.824 162.558 222.312 162.388 221.794 162.426C221.169 162.509 220.577 162.751 220.073 163.129C219.569 163.507 219.172 164.009 218.918 164.585C218.2 165.851 217.803 167.273 217.759 168.728C217.671 171.761 219.045 174.686 221.185 175.442C221.581 175.586 222.004 175.638 222.422 175.593C222.841 175.549 223.243 175.41 223.6 175.187C224.081 174.853 224.179 174.529 224.13 174.5Z" fill="#EB996E"/>
<path d="M282.958 162.818C283.038 161.686 283.199 160.561 283.439 159.451C283.894 157.595 284.73 155.854 285.895 154.339C287.06 152.824 288.528 151.569 290.206 150.653C291.883 149.738 293.733 149.182 295.638 149.022C297.542 148.862 299.459 149.101 301.266 149.724C302.51 150.143 303.682 150.753 304.741 151.53C305.871 152.311 306.866 153.273 307.685 154.377C309.444 156.68 310.418 159.486 310.464 162.384C310.51 165.281 309.626 168.117 307.941 170.475C307.162 171.602 306.208 172.596 305.114 173.42C304.082 174.233 302.929 174.879 301.698 175.334C299.42 176.211 296.949 176.462 294.542 176.06C292.442 175.714 290.455 174.877 288.74 173.616C286.23 171.79 284.408 169.173 283.567 166.185C283.296 165.081 283.099 163.959 282.978 162.828C282.974 162.903 282.974 162.979 282.978 163.054C282.978 163.241 282.978 163.456 282.978 163.722C282.987 164.08 283.023 164.438 283.086 164.791C283.14 165.279 283.232 165.761 283.361 166.234C284.149 169.308 285.968 172.018 288.514 173.911C290.4 175.322 292.612 176.233 294.945 176.559C297.277 176.885 299.654 176.616 301.855 175.776C304.467 174.789 306.726 173.046 308.343 170.77C310.093 168.327 311.013 165.387 310.965 162.382C310.917 159.377 309.905 156.468 308.078 154.082C307.228 152.944 306.2 151.95 305.035 151.137C303.947 150.356 302.745 149.747 301.472 149.331C299.246 148.562 296.862 148.368 294.542 148.768C292.222 149.168 290.04 150.148 288.2 151.618C285.71 153.594 283.977 156.367 283.292 159.471C283.18 159.949 283.101 160.435 283.057 160.924C283.009 161.282 282.986 161.643 282.988 162.004C282.988 162.269 282.988 162.485 282.988 162.661C282.976 162.713 282.966 162.766 282.958 162.818Z" fill="#455A64"/>
<path d="M245.029 163.427C245.107 162.295 245.265 161.17 245.5 160.06C246.238 157.049 247.967 154.373 250.408 152.462C252.083 151.149 254.043 150.248 256.131 149.832C258.525 149.359 261.001 149.531 263.306 150.332C264.549 150.756 265.72 151.365 266.781 152.138C267.91 152.923 268.904 153.884 269.726 154.985C271.483 157.287 272.456 160.091 272.504 162.986C272.552 165.881 271.671 168.715 269.991 171.074C269.209 172.201 268.251 173.195 267.154 174.019C266.123 174.832 264.97 175.478 263.738 175.933C261.461 176.81 258.99 177.061 256.582 176.659C254.486 176.313 252.501 175.476 250.791 174.215C248.279 172.389 246.454 169.772 245.608 166.784C245.337 165.68 245.144 164.558 245.029 163.427C245.018 163.502 245.018 163.578 245.029 163.653C245.029 163.83 245.029 164.055 245.029 164.32C245.028 164.679 245.061 165.037 245.127 165.39C245.18 165.879 245.275 166.362 245.411 166.833C246.191 169.91 248.012 172.623 250.565 174.51C252.301 175.814 254.318 176.694 256.455 177.081C258.937 177.509 261.489 177.265 263.846 176.375C266.462 175.395 268.723 173.65 270.335 171.368C272.085 168.926 273.004 165.985 272.956 162.981C272.909 159.976 271.897 157.067 270.07 154.681C268.381 152.456 266.067 150.784 263.424 149.881C261.04 149.066 258.48 148.907 256.013 149.419C253.385 149.96 250.969 151.246 249.054 153.125C247.139 155.003 245.806 157.394 245.215 160.011C245.093 160.487 245.014 160.974 244.979 161.464C244.921 161.821 244.898 162.182 244.911 162.544V163.201C244.933 163.284 244.973 163.361 245.029 163.427Z" fill="#455A64"/>
<path d="M272.121 162.396C272.2 162.445 272.593 161.807 273.505 161.071C274.676 160.101 276.141 159.557 277.661 159.531C279.181 159.504 280.665 159.995 281.869 160.924C282.85 161.621 283.223 162.249 283.292 162.19C283.048 161.57 282.633 161.032 282.095 160.639C280.865 159.563 279.279 158.984 277.645 159.015C276.011 159.046 274.448 159.684 273.26 160.806C272.739 161.219 272.344 161.77 272.121 162.396Z" fill="#455A64"/>
<path d="M226.054 157.92C226.958 158.207 227.889 158.398 228.832 158.49C230.57 158.764 232.975 159.02 235.625 159.255L242.428 159.864C243.36 160.007 244.302 160.079 245.245 160.08C244.342 159.791 243.411 159.597 242.467 159.501C240.739 159.236 238.335 158.98 235.674 158.745L228.882 158.136C227.947 157.986 227.001 157.914 226.054 157.92Z" fill="#455A64"/>
<path d="M304.868 171.309C306.093 169.894 307.087 168.294 307.813 166.568C308.383 164.782 308.671 162.917 308.667 161.042C308.885 161.57 308.986 162.139 308.962 162.71C308.997 164.085 308.77 165.455 308.294 166.745C307.819 168.036 307.099 169.222 306.174 170.239C305.457 171.005 304.907 171.359 304.868 171.309Z" fill="white"/>
<path d="M307.244 155.8C307.322 155.682 307.882 155.967 308.225 156.634C308.569 157.302 308.422 157.91 308.284 157.901C308.147 157.891 308.029 157.39 307.764 156.85C307.499 156.31 307.155 155.908 307.244 155.8Z" fill="white"/>
<path d="M270.217 168.335C270.139 168.335 270.414 167.55 270.639 166.284C271.218 162.962 270.58 159.543 268.843 156.654C268.185 155.554 267.655 154.946 267.714 154.887C268.293 155.309 268.78 155.843 269.147 156.458C270.133 157.885 270.811 159.502 271.137 161.205C271.463 162.909 271.431 164.662 271.042 166.352C270.904 167.062 270.623 167.737 270.217 168.335Z" fill="white"/>
<path d="M218.034 180.262C218.034 180.262 217.828 180.556 217.534 181.096C217.111 181.863 216.889 182.724 216.886 183.599C216.87 184.234 216.986 184.865 217.226 185.453C217.466 186.041 217.824 186.573 218.28 187.015C218.829 187.561 219.499 187.969 220.236 188.206C220.973 188.444 221.756 188.503 222.52 188.38C223.28 188.224 223.992 187.893 224.602 187.414C225.212 186.936 225.702 186.322 226.035 185.621C226.303 185.046 226.451 184.422 226.47 183.787C226.488 183.153 226.377 182.521 226.143 181.931C225.833 181.114 225.327 180.386 224.67 179.81C224.199 179.408 223.885 179.241 223.904 179.202C224.229 179.285 224.531 179.439 224.788 179.653C225.537 180.198 226.121 180.938 226.476 181.793C226.761 182.426 226.908 183.112 226.908 183.805C226.908 184.499 226.761 185.185 226.476 185.818C226.139 186.607 225.61 187.299 224.939 187.834C224.267 188.368 223.473 188.727 222.629 188.879C221.784 189.031 220.915 188.97 220.099 188.703C219.284 188.436 218.547 187.971 217.956 187.349C217.467 186.858 217.087 186.27 216.842 185.622C216.596 184.974 216.491 184.281 216.533 183.59C216.566 182.665 216.855 181.768 217.367 180.998C217.71 180.458 218.034 180.242 218.034 180.262Z" fill="#E0E0E0"/>
<path d="M300.952 191.845C301.783 192.177 302.699 192.232 303.563 192.002C304.488 191.743 305.321 191.229 305.968 190.52C306.765 189.659 307.303 188.591 307.519 187.437C307.744 186.284 307.6 185.089 307.107 184.021C306.702 183.147 306.101 182.377 305.35 181.774C304.624 181.243 303.832 180.811 302.994 180.488C303.243 180.465 303.495 180.499 303.73 180.586C304.394 180.77 305.019 181.073 305.575 181.479C306.409 182.092 307.083 182.896 307.539 183.825C308.099 184.973 308.271 186.272 308.029 187.526C307.789 188.779 307.189 189.936 306.302 190.853C305.582 191.604 304.657 192.127 303.642 192.355C302.961 192.516 302.25 192.478 301.59 192.247C301.129 192.061 300.932 191.865 300.952 191.845Z" fill="#E0E0E0"/>
<path d="M246.501 386.755L261.059 391.065C261.059 391.065 269.088 394.51 272.995 395.403C277.844 396.513 281.152 395.011 281.329 392.311C281.506 389.612 277.736 389.268 277.736 389.268C274.533 388.048 271.417 386.608 268.411 384.959C266.228 383.443 264.444 381.422 263.208 379.069L268.411 379.786C268.411 379.786 279.356 387.639 283.479 390.014C287.602 392.39 288.505 388.218 288.858 386.961C289.212 385.705 276.666 372.973 276.666 372.973C276.666 372.973 288.681 380.689 290.831 382.613C292.981 384.537 296.22 385.165 296.937 383.918C297.653 382.672 299.627 382.662 296.937 377.342C294.247 372.021 272.72 357.709 272.72 357.709L278.61 356.453L285.069 359.329C285.519 361.545 286.436 363.64 287.759 365.474C290.085 368.929 294.218 365.474 294.218 365.474L291.656 352.222L278.895 344.232C278.895 344.232 265.623 345.851 263.65 346.744C261.677 347.638 259.518 351.397 259.518 351.397L255.935 352.85C250.369 354.46 250.555 360.026 248.759 360.202C246.963 360.379 194.603 350.17 194.603 350.17L189.862 348.933C182.009 354.892 178.877 364.738 177.493 373.474C177.493 373.474 176.05 377.754 177.493 380.11L246.501 386.755Z" fill="#FFBE9D"/>
<path d="M236.891 377.44C236.829 377.16 236.813 376.871 236.842 376.586C236.838 376.256 236.868 375.928 236.93 375.604C236.976 375.159 237.062 374.719 237.186 374.289C237.923 371.81 239.17 369.513 240.847 367.545C242.476 365.567 244.29 363.749 246.266 362.117C247.048 361.403 247.9 360.768 248.808 360.222C248.082 360.974 247.311 361.682 246.501 362.342C244.613 364.034 242.854 365.865 241.24 367.82C239.61 369.746 238.354 371.96 237.539 374.348C236.96 376.223 236.999 377.45 236.891 377.44Z" fill="#EB996E"/>
<path d="M259.567 351.397C259.567 351.397 259.135 351.623 258.467 352.163C257.537 352.949 256.733 353.872 256.082 354.902C255.613 355.598 255.212 356.337 254.885 357.11C254.583 358.02 254.391 358.963 254.315 359.918C254.18 361.029 253.783 362.092 253.157 363.02C252.446 363.918 251.862 364.909 251.419 365.965C250.747 367.749 250.747 369.717 251.419 371.501L251.488 371.687L251.321 371.795C249.045 373.265 247.397 375.529 246.698 378.147C246.457 379.178 246.309 380.23 246.256 381.288C246.176 381.014 246.143 380.728 246.158 380.444C246.147 379.648 246.233 378.853 246.413 378.078C247.039 375.328 248.707 372.929 251.066 371.383L250.968 371.678C250.257 369.779 250.257 367.687 250.968 365.788C251.421 364.701 252.029 363.686 252.774 362.774C253.371 361.895 253.748 360.885 253.873 359.83C253.992 357.959 254.677 356.168 255.837 354.696C256.53 353.652 257.4 352.739 258.409 351.996C258.68 351.792 258.977 351.624 259.292 351.496C259.379 351.451 259.471 351.418 259.567 351.397Z" fill="#EB996E"/>
<path d="M272.17 357.267C270.914 357.43 269.638 357.295 268.444 356.872C267.25 356.449 266.173 355.75 265.299 354.833C265.397 354.715 266.713 355.726 268.607 356.384C270.502 357.042 272.17 357.12 272.17 357.267Z" fill="#EB996E"/>
<path d="M275.528 371.766C273.632 371.234 271.789 370.531 270.021 369.665C268.184 368.96 266.411 368.1 264.72 367.093C266.611 367.64 268.453 368.342 270.227 369.194C272.064 369.899 273.837 370.76 275.528 371.766Z" fill="#EB996E"/>
<path d="M263.719 378.932C261.813 378.286 259.951 377.519 258.143 376.635C259.168 376.68 260.171 376.941 261.088 377.4C262.066 377.713 262.964 378.235 263.719 378.932Z" fill="#EB996E"/>
<path d="M273.721 372.699C272.876 373.152 272.133 373.773 271.537 374.524C270.941 375.276 270.505 376.141 270.256 377.067C270.188 377.067 270.129 376.723 270.256 376.173C270.395 375.453 270.705 374.777 271.159 374.202C271.614 373.626 272.199 373.168 272.867 372.865C273.348 372.659 273.702 372.64 273.721 372.699Z" fill="#EB996E"/>
<path d="M278.983 364.738C279.042 364.875 278.08 365.366 277.432 366.465C277.102 367.163 276.827 367.885 276.608 368.625C276.468 368.22 276.431 367.786 276.5 367.363C276.568 366.94 276.74 366.541 277 366.2C277.746 364.944 278.964 364.6 278.983 364.738Z" fill="#EB996E"/>
<path d="M277.501 350.318C277.452 350.318 277.255 350.092 277.108 349.621C276.931 348.978 276.931 348.3 277.108 347.657C277.279 347.023 277.618 346.446 278.09 345.989C278.443 345.645 278.738 345.527 278.767 345.576C278.299 346.262 277.92 347.004 277.638 347.785C277.492 348.621 277.446 349.471 277.501 350.318Z" fill="#EB996E"/>
<path d="M383.624 354.833C383.624 354.833 382.966 341.954 369.616 339.284C356.266 336.614 332.884 347.962 332.884 347.962L267.37 393.617L269.334 399.261L335.829 389.995L341.915 392.331L388.62 361.646L432.695 329.782L427.787 325.944C427.787 325.944 415.438 334.455 407.271 338.116C399.104 341.778 387.295 348.197 383.624 354.833Z" fill="#F5F5F5"/>
<path d="M269.204 399.165L321.801 366.681L380.413 357.267C380.413 357.267 383.358 361.528 388.335 360.487L436.533 327.112L437.446 329.124L343.976 394.795C342.603 395.296 341.12 395.413 339.685 395.133C338.251 394.853 336.921 394.186 335.838 393.205L269.204 399.165Z" fill="#0A0E2D"/>
<path d="M380.414 357.267C380.281 357.412 380.129 357.537 379.962 357.641L378.608 358.622C377.43 359.466 375.731 360.693 373.699 362.244C369.537 365.336 363.883 369.744 357.778 374.74C351.672 379.737 346.185 384.38 342.258 387.766L337.576 391.791L336.3 392.871C336.162 393.008 336.007 393.127 335.838 393.224C335.838 393.224 335.956 393.067 336.231 392.802L337.438 391.644C338.499 390.662 340.04 389.229 341.983 387.511C345.851 384.056 351.279 379.383 357.414 374.367C363.549 369.351 369.194 364.993 373.444 361.969C375.545 360.448 377.282 359.27 378.5 358.475L379.903 357.572C380.064 357.455 380.235 357.353 380.414 357.267Z" fill="#263238"/>
<path d="M379.815 350.102C374.504 344.398 366.141 342.366 358.367 342.975C350.592 343.584 343.22 346.479 335.966 349.356L268.146 395.776L268.755 397.524L336.938 351.388C336.938 351.388 352.173 346.479 358.916 345.635C370.185 344.232 379.815 350.102 379.815 350.102Z" fill="#E0E0E0"/>
<path d="M390.456 356.207L423.065 334.209C423.065 334.209 396.345 348.109 390.456 356.207Z" fill="#E0E0E0"/>
<path d="M268.146 395.776C268.229 395.692 268.321 395.616 268.421 395.551L269.265 394.952L272.514 392.665L284.529 384.341L324.285 357.042L335.829 349.189C342.397 346.225 349.329 344.142 356.443 342.995C362.189 342.183 368.048 343.01 373.346 345.38C375.327 346.301 377.152 347.527 378.755 349.012C379.953 350.129 380.973 351.423 381.778 352.85C382.285 353.744 382.68 354.697 382.956 355.687C383.025 356.011 383.084 356.266 383.133 356.463C383.155 356.55 383.171 356.638 383.182 356.728C382.829 355.403 382.308 354.13 381.631 352.939C380.806 351.549 379.781 350.289 378.588 349.199C376.981 347.759 375.168 346.568 373.209 345.665C367.962 343.384 362.184 342.609 356.521 343.427C349.464 344.583 342.588 346.652 336.064 349.581H336.113L324.57 357.434L284.784 384.635L272.671 392.832L269.373 395.03L268.499 395.6C268.388 395.671 268.27 395.73 268.146 395.776Z" fill="#263238"/>
<path d="M327.515 360.683C327.669 360.555 327.841 360.45 328.025 360.369C328.369 360.183 328.879 359.898 329.537 359.564C330.862 358.877 332.796 357.915 335.23 356.816C341.542 353.857 348.241 351.805 355.128 350.72C362.05 349.675 369.123 350.322 375.742 352.605C377.731 353.322 379.641 354.24 381.445 355.343C382.093 355.716 382.554 356.08 382.878 356.325C383.049 356.431 383.21 356.552 383.359 356.688C383.359 356.688 382.642 356.276 381.347 355.54C379.52 354.514 377.605 353.657 375.624 352.978C369.036 350.817 362.033 350.228 355.177 351.26C348.34 352.341 341.676 354.322 335.358 357.15C332.914 358.21 330.96 359.113 329.606 359.751L328.055 360.468C327.882 360.557 327.701 360.629 327.515 360.683Z" fill="#263238"/>
<path d="M430.948 328.398C430.948 328.398 430.81 328.526 430.526 328.722L429.259 329.566L424.557 332.59C420.572 335.142 415.085 338.666 409.067 342.632C403.05 346.597 397.671 350.239 393.744 352.889L389.101 356.011L387.825 356.845C387.683 356.95 387.528 357.035 387.364 357.101C387.485 356.972 387.62 356.857 387.766 356.757L388.993 355.844C390.053 355.059 391.604 353.95 393.538 352.585C397.406 349.866 402.785 346.165 408.812 342.2C414.839 338.234 420.366 334.759 424.39 332.285C426.403 331.048 428.042 330.067 429.181 329.399L430.506 328.634C430.646 328.542 430.793 328.463 430.948 328.398Z" fill="#263238"/>
<path d="M401.283 363.697C400.617 365.3 399.771 366.821 398.76 368.232C397.504 369.724 393.401 371.805 393.077 374.642C392.753 377.479 393.42 384.134 388.983 389.2C386.123 392.35 382.504 394.716 378.47 396.071L360.968 394.363L333.011 383.359C332.387 383.201 331.849 382.804 331.515 382.253C331.18 381.702 331.076 381.041 331.225 380.414C331.398 379.732 331.771 379.118 332.295 378.649C332.82 378.18 333.473 377.879 334.17 377.783L334.837 377.675C334.837 377.675 333.227 376.36 335.534 374.053C337.497 372.09 341.689 373.199 343.848 373.916C346.008 374.632 358.671 379.923 360.938 380.738C362.951 381.455 364.502 382.093 364.502 382.093C364.502 382.093 348.295 371.157 348.069 369.724C347.804 368.006 347.981 367.221 349.64 366.024C351.603 364.6 354.823 366.122 357.944 367.437C360.271 368.419 375.103 375.742 375.103 375.742C375.103 375.742 375.771 375.094 375.103 373.778C374.436 372.463 369.508 366.122 368.732 364.944C367.957 363.766 367.751 363.098 368.526 362.107C369.606 360.703 372.453 360.036 375.074 362.431C376.733 363.962 382.632 367.928 382.632 367.928L409.862 348.06C409.862 348.06 413.249 347.972 412.071 352.693C410.893 357.415 401.283 363.697 401.283 363.697Z" fill="#FFBE9D"/>
<path d="M380.983 380.257C379.894 380.015 378.879 379.514 378.024 378.796C377.17 378.079 376.501 377.165 376.075 376.134C376.202 376.056 376.997 377.273 378.352 378.402C379.707 379.531 381.052 380.11 380.983 380.257Z" fill="#EB996E"/>
<path d="M383.221 368.409C383.221 368.35 383.584 368.242 384.202 368.32C384.974 368.432 385.7 368.755 386.3 369.251C386.901 369.748 387.354 370.401 387.609 371.138C387.795 371.707 387.766 372.119 387.697 372.119C387.286 371.203 386.699 370.376 385.969 369.685C385.145 369.085 384.211 368.652 383.221 368.409Z" fill="#EB996E"/>
<path d="M384.507 373.876C384.36 373.876 384.292 372.414 383.712 370.745C383.133 369.076 382.318 367.849 382.436 367.8C383.299 368.535 383.913 369.519 384.193 370.617C384.632 371.645 384.742 372.784 384.507 373.876Z" fill="#EB996E"/>
<path d="M400.616 362.284C400.616 362.333 400.272 362.136 399.919 361.665C399.471 361.04 399.19 360.31 399.104 359.545C399.018 358.78 399.13 358.006 399.428 357.297C399.663 356.767 399.928 356.502 399.977 356.541C399.628 357.482 399.503 358.491 399.614 359.488C399.725 360.485 400.068 361.443 400.616 362.284Z" fill="#EB996E"/>
<path d="M376.006 387.109C375.377 387.253 374.722 387.253 374.092 387.109C372.567 386.839 371.103 386.293 369.773 385.499C368.449 384.721 367.203 383.817 366.053 382.799C365.541 382.424 365.087 381.974 364.708 381.464C365.273 381.748 365.801 382.101 366.279 382.515C367.475 383.438 368.727 384.288 370.028 385.057C371.316 385.82 372.708 386.392 374.161 386.755C375.28 386.991 376.006 387.03 376.006 387.109Z" fill="#EB996E"/>
<path d="M380.561 384.301C380.698 384.301 380.708 385.283 379.884 386.098C379.059 386.912 378.058 386.873 378.077 386.736C378.097 386.598 378.853 386.402 379.52 385.754C380.188 385.106 380.414 384.282 380.561 384.301Z" fill="#EB996E"/>
<path d="M387.246 379.393C387.305 379.393 387.305 379.658 387.118 380.012C386.86 380.447 386.472 380.79 386.009 380.993C385.549 381.217 385.031 381.292 384.527 381.209C384.134 381.131 383.938 380.974 383.967 380.915C383.997 380.856 384.87 380.993 385.793 380.532C386.716 380.07 387.108 379.344 387.246 379.393Z" fill="#EB996E"/>
<path d="M363.668 390.535C363.619 390.662 357.11 387.953 349.14 384.468C341.169 380.983 334.749 378.048 334.847 377.931C334.945 377.813 341.414 380.522 349.385 384.007C357.356 387.492 363.727 390.407 363.668 390.535Z" fill="#EB996E"/>
<path d="M0 399.291C0 399.428 98.9669 399.546 221.012 399.546C343.056 399.546 442.043 399.428 442.043 399.291C442.043 399.153 343.096 399.035 221.012 399.035C98.9276 399.035 0 399.143 0 399.291Z" fill="#263238"/>
<path d="M40.9635 294.719L62.2647 399.291H247.153C248.132 399.291 249.07 398.902 249.763 398.21C250.455 397.518 250.844 396.579 250.844 395.6C250.845 395.114 250.75 394.633 250.565 394.184C250.381 393.735 250.109 393.327 249.766 392.984C249.423 392.64 249.016 392.367 248.567 392.181C248.119 391.995 247.638 391.899 247.153 391.899H209.93L190.18 294.611C189.997 293.703 189.506 292.886 188.791 292.298C188.076 291.709 187.179 291.386 186.253 291.381L44.9685 289.87C44.3657 289.863 43.769 289.992 43.2223 290.246C42.6755 290.5 42.1925 290.873 41.8086 291.338C41.4247 291.803 41.1495 292.348 41.0033 292.933C40.8571 293.518 40.8435 294.128 40.9635 294.719Z" fill="#E0E0E0"/>
<path d="M40.9641 294.719L40.9052 294.405C40.8653 294.079 40.8653 293.749 40.9052 293.423C40.9749 292.797 41.1884 292.196 41.529 291.667C41.8696 291.137 42.328 290.693 42.8684 290.37C43.2438 290.139 43.6553 289.974 44.0857 289.879C44.5655 289.8 45.0524 289.77 45.5385 289.791H48.8661L57.1903 289.86L110.62 290.36L147.862 290.743L168.732 290.949L179.667 291.067L185.262 291.126C185.743 291.126 186.185 291.126 186.695 291.126C187.194 291.182 187.679 291.325 188.129 291.548C189.035 291.99 189.752 292.742 190.151 293.668C190.335 294.127 190.466 294.604 190.543 295.092L190.828 296.496C191.014 297.477 191.211 298.38 191.407 299.323C191.787 301.214 192.173 303.118 192.565 305.036C193.344 308.864 194.133 312.741 194.931 316.668C196.528 324.521 198.164 332.547 199.839 340.747C203.167 357.14 206.642 374.191 210.205 391.791L209.96 391.595H246.564C247.047 391.577 247.53 391.606 248.007 391.683C248.99 391.894 249.854 392.474 250.422 393.303C250.997 394.129 251.232 395.145 251.08 396.14C250.991 396.742 250.762 397.316 250.413 397.815C250.064 398.314 249.603 398.725 249.067 399.016C248.528 399.303 247.931 399.464 247.32 399.487H149.07H62.2653H62.1082V399.33C55.5902 367.182 50.3288 341.041 46.6281 322.921C44.8022 313.87 43.3887 306.822 42.4267 302.032C41.9555 299.637 41.5956 297.821 41.3469 296.584C41.1015 295.347 40.9936 294.719 40.9936 294.719C40.9936 294.719 41.1408 295.347 41.396 296.564C41.6512 297.781 42.0439 299.627 42.5347 302.002C43.5163 306.793 44.9789 313.831 46.844 322.881C50.5545 340.992 55.9044 367.123 62.491 399.251L62.2947 399.094L149.099 399.045H247.281C247.808 399.024 248.325 398.887 248.793 398.643C249.257 398.387 249.657 398.029 249.961 397.595C250.266 397.161 250.467 396.663 250.55 396.14C250.676 395.27 250.473 394.384 249.98 393.656C249.478 392.94 248.725 392.439 247.87 392.253C247.428 392.186 246.981 392.159 246.535 392.174H209.724V391.978C206.161 374.397 202.696 357.346 199.378 340.933C197.709 332.727 196.073 324.697 194.47 316.844L192.114 305.212C191.731 303.298 191.338 301.394 190.956 299.509C190.769 298.527 190.573 297.615 190.386 296.682L190.102 295.269C190.028 294.813 189.91 294.366 189.748 293.933C189.478 293.314 189.049 292.777 188.504 292.377C187.959 291.977 187.318 291.728 186.646 291.656C186.214 291.656 185.724 291.656 185.262 291.656L179.667 291.587L168.722 291.47L147.862 291.224L110.61 290.782L57.1805 290.125L48.8661 290.017L45.5385 289.968C45.0593 289.938 44.5784 289.965 44.1053 290.046C43.6835 290.133 43.2789 290.289 42.9077 290.508C42.3782 290.817 41.9261 291.243 41.5859 291.753C41.2457 292.264 41.0264 292.845 40.9445 293.453C40.9055 293.874 40.9121 294.299 40.9641 294.719Z" fill="#263238"/>
<path d="M120.052 348.678C123.424 348.678 126.158 345.945 126.158 342.573C126.158 339.201 123.424 336.467 120.052 336.467C116.68 336.467 113.947 339.201 113.947 342.573C113.947 345.945 116.68 348.678 120.052 348.678Z" fill="#0D1130"/>
<path d="M41.3535 295.592C41.3535 295.592 41.3563 295.592 41.7784 295.592H50.8289L77.2639 295.72L164.481 296.329L177.095 296.437H180.197C180.725 296.417 181.255 296.45 181.777 296.535C182.576 296.697 183.314 297.078 183.91 297.634C184.506 298.19 184.937 298.9 185.154 299.686C185.389 300.667 185.556 301.649 185.762 302.631L190.268 325.345C193.125 339.824 195.706 352.831 197.866 363.815C200.025 374.799 201.792 383.614 202.951 389.749C203.54 392.802 203.991 395.178 204.305 396.807C204.452 397.602 204.57 398.221 204.649 398.653C204.727 399.085 204.747 399.281 204.747 399.281C204.747 399.281 204.688 399.075 204.6 398.663C204.511 398.25 204.374 397.622 204.207 396.827L202.754 389.828C201.517 383.693 199.731 374.848 197.512 363.923C195.294 352.998 192.703 339.942 189.807 325.473C188.364 318.238 186.862 310.641 185.272 302.768C185.065 301.786 184.889 300.805 184.673 299.823C184.414 298.891 183.82 298.087 183.004 297.566C182.6 297.307 182.15 297.127 181.679 297.035C181.186 296.955 180.686 296.926 180.187 296.947H177.095L164.481 296.849L77.2639 296.083L50.8289 295.789L43.6435 295.592H41.7686L41.3535 295.592Z" fill="#263238"/>
</svg>
