<svg width="31" height="30" viewBox="0 0 31 30" fill="none" xmlns="http://www.w3.org/2000/svg">
<path d="M23.3197 10H25.8151C26.146 10 26.4634 10.1317 26.6974 10.3661C26.9313 10.6005 27.0628 10.9185 27.0628 11.25V26.25C27.0628 26.5815 26.9313 26.8995 26.6974 27.1339C26.4634 27.3683 26.146 27.5 25.8151 27.5H5.85171C5.5208 27.5 5.20344 27.3683 4.96945 27.1339C4.73546 26.8995 4.604 26.5815 4.604 26.25V11.25C4.604 10.9185 4.73546 10.6005 4.96945 10.3661C5.20344 10.1317 5.5208 10 5.85171 10H8.34714V8.75C8.34714 6.76088 9.13587 4.85322 10.5398 3.4467C11.9438 2.04018 13.8479 1.25 15.8334 1.25C17.8189 1.25 19.723 2.04018 21.127 3.4467C22.5309 4.85322 23.3197 6.76088 23.3197 8.75V10ZM7.09943 12.5V25H24.5674V12.5H7.09943ZM14.5857 17.5H17.0811V20H14.5857V17.5ZM9.59485 17.5H12.0903V20H9.59485V17.5ZM19.5765 17.5H22.072V20H19.5765V17.5ZM20.8242 10V8.75C20.8242 7.42392 20.2984 6.15215 19.3625 5.21447C18.4265 4.27678 17.1571 3.75 15.8334 3.75C14.5097 3.75 13.2403 4.27678 12.3043 5.21447C11.3684 6.15215 10.8426 7.42392 10.8426 8.75V10H20.8242Z" fill="#E89C24"/>
</svg>
